<svg width="96" height="96" viewBox="0 0 96 96" fill="none" xmlns="http://www.w3.org/2000/svg">
<path d="M47 0.57735C47.6188 0.220084 48.3812 0.220085 49 0.57735L88.5692 23.4226C89.188 23.7799 89.5692 24.4402 89.5692 25.1547V70.8453C89.5692 71.5598 89.188 72.2201 88.5692 72.5774L49 95.4226C48.3812 95.7799 47.6188 95.7799 47 95.4226L7.43078 72.5774C6.81198 72.2201 6.43078 71.5598 6.43078 70.8453V25.1547C6.43078 24.4402 6.81198 23.7799 7.43078 23.4226L47 0.57735Z" fill="#ABAEB3" fill-opacity="0.1"/>
<path d="M66.972 34.9226C66.972 36.3004 65.7864 38.2588 62.2439 40.03C58.8594 41.7223 53.999 42.8452 48.486 42.8452C42.9731 42.8452 38.1126 41.7223 34.7281 40.03C31.1856 38.2588 30 36.3004 30 34.9226C30 33.5447 31.1856 31.5864 34.7281 29.8152C38.1126 28.1229 42.9731 27 48.486 27C53.999 27 58.8594 28.1229 62.2439 29.8152C65.7864 31.5864 66.972 33.5447 66.972 34.9226Z" fill="url(#paint0_linear_3939_24370)"/>
<path d="M34.8147 42.9764C38.4995 44.5417 43.2722 45.486 48.486 45.486C53.6998 45.486 58.4726 44.5417 62.1573 42.9764C64.0545 43.9127 66.972 45.6543 66.972 48.1269C66.972 49.5047 65.7864 51.4631 62.2439 53.2343C58.8594 54.9266 53.999 56.0495 48.486 56.0495C42.9731 56.0495 38.1126 54.9266 34.7281 53.2343C31.1856 51.4631 30 49.5047 30 48.1269C30 45.6543 32.9175 43.9127 34.8147 42.9764Z" fill="url(#paint1_linear_3939_24370)"/>
<path d="M34.8147 56.1807C38.4994 57.746 43.2722 58.6903 48.486 58.6903C53.6999 58.6903 58.4726 57.746 62.1573 56.1807C64.0545 57.117 66.972 58.8585 66.972 61.3312C66.972 62.709 65.7864 64.6674 62.2439 66.4386C58.8594 68.1309 53.999 69.2538 48.486 69.2538C42.9731 69.2538 38.1126 68.1309 34.7281 66.4386C31.1856 64.6674 30 62.709 30 61.3312C30 58.8585 32.9175 57.117 34.8147 56.1807Z" fill="url(#paint2_linear_3939_24370)"/>
<defs>
<linearGradient id="paint0_linear_3939_24370" x1="57.729" y1="13.9013" x2="45.5415" y2="133.23" gradientUnits="userSpaceOnUse">
<stop offset="0.1975" stop-color="#FFB666"/>
<stop offset="0.95505" stop-color="#FF0E65"/>
</linearGradient>
<linearGradient id="paint1_linear_3939_24370" x1="57.729" y1="13.9013" x2="45.5415" y2="133.23" gradientUnits="userSpaceOnUse">
<stop offset="0.1975" stop-color="#FFB666"/>
<stop offset="0.95505" stop-color="#FF0E65"/>
</linearGradient>
<linearGradient id="paint2_linear_3939_24370" x1="57.729" y1="13.9013" x2="45.5415" y2="133.23" gradientUnits="userSpaceOnUse">
<stop offset="0.1975" stop-color="#FFB666"/>
<stop offset="0.95505" stop-color="#FF0E65"/>
</linearGradient>
</defs>
</svg>
