<svg width="96" height="96" viewBox="0 0 96 96" fill="none" xmlns="http://www.w3.org/2000/svg">
<path d="M47 0.57735C47.6188 0.220084 48.3812 0.220085 49 0.57735L88.5692 23.4226C89.188 23.7799 89.5692 24.4402 89.5692 25.1547V70.8453C89.5692 71.5598 89.188 72.2201 88.5692 72.5774L49 95.4226C48.3812 95.7799 47.6188 95.7799 47 95.4226L7.43078 72.5774C6.81198 72.2201 6.43078 71.5598 6.43078 70.8453V25.1547C6.43078 24.4402 6.81198 23.7799 7.43078 23.4226L47 0.57735Z" fill="#ABAEB3" fill-opacity="0.1"/>
<path fill-rule="evenodd" clip-rule="evenodd" d="M55.9567 44.2999C55.3721 43.2362 55.0652 42.0383 55.0652 40.8203V25.3876C55.0652 25.141 55.2621 24.9412 55.505 24.9412H55.6403C56.4437 24.9412 57.095 24.2828 57.095 23.4706C57.095 22.6584 56.4437 22 55.6403 22H39.9431C39.1397 22 38.4884 22.6584 38.4884 23.4706C38.4884 24.2828 39.1397 24.9412 39.9431 24.9412H40.0783C40.3212 24.9412 40.5181 25.141 40.5181 25.3876V40.8203C40.5181 42.0383 40.2113 43.2362 39.6267 44.2999L28.5555 64.4457C26.9395 67.3863 29.0428 71 32.3704 71H63.2129C66.5405 71 68.6439 67.3863 67.0279 64.4457L55.9567 44.2999ZM43.1042 25.3876C43.1042 25.141 43.3011 24.9412 43.544 24.9412H52.0394C52.2823 24.9412 52.4792 25.141 52.4792 25.3876V40.6954C52.4792 41.1885 52.0853 41.5882 51.5995 41.5882H43.9838C43.498 41.5882 43.1042 41.1885 43.1042 40.6954V25.3876Z" fill="url(#paint0_linear_3939_24358)"/>
<defs>
<linearGradient id="paint0_linear_3939_24358" x1="57.6875" y1="6.81" x2="42.4061" y2="144.943" gradientUnits="userSpaceOnUse">
<stop offset="0.1975" stop-color="#FFB666"/>
<stop offset="0.95505" stop-color="#FF0E65"/>
</linearGradient>
</defs>
</svg>
