<svg width="96" height="96" viewBox="0 0 96 96" fill="none" xmlns="http://www.w3.org/2000/svg">
<path d="M47 0.57735C47.6188 0.220084 48.3812 0.220085 49 0.57735L88.5692 23.4226C89.188 23.7799 89.5692 24.4402 89.5692 25.1547V70.8453C89.5692 71.5598 89.188 72.2201 88.5692 72.5774L49 95.4226C48.3812 95.7799 47.6188 95.7799 47 95.4226L7.43078 72.5774C6.81198 72.2201 6.43078 71.5598 6.43078 70.8453V25.1547C6.43078 24.4402 6.81198 23.7799 7.43078 23.4226L47 0.57735Z" fill="#ABAEB3" fill-opacity="0.1"/>
<path fill-rule="evenodd" clip-rule="evenodd" d="M40.7546 36.7061C33.6033 43.8508 31.4733 51.071 31.1796 53.746C30.7047 58.0717 37.9307 65.2711 42.2591 64.8153C44.9238 64.5347 52.2272 62.4577 59.3282 55.2626C71.8506 42.4667 69.8082 32.9849 66.4292 29.6102C63.0502 26.2356 53.4184 24.0539 40.7546 36.7061ZM60.6662 41.3233C59.0205 42.9675 56.3524 42.9675 54.7067 41.3233C53.0611 39.6792 53.0611 37.0135 54.7067 35.3693C56.3524 33.7252 59.0198 33.7245 60.6655 35.3686C62.3112 37.0128 62.3118 39.6792 60.6662 41.3233Z" fill="url(#paint0_linear_3939_24361)"/>
<path d="M57.6315 59.208C53.1491 63.1096 48.9423 64.9876 45.8889 65.8901C46.6868 67.9639 48.1038 71.64 48.8509 73.5777C49.069 74.1435 49.8187 74.257 50.1962 73.7824C55.7722 70.7967 57.8231 65.5876 57.6315 59.208Z" fill="url(#paint1_linear_3939_24361)"/>
<path d="M30.1575 50.1475C31.0784 47.1114 32.9692 42.915 36.8463 38.4018C30.4385 38.2105 25.2327 40.2377 22.2199 45.8286C21.932 46.3629 21.8582 46.9565 22.4246 47.1745C24.3752 47.9255 28.0846 49.3531 30.1575 50.1475Z" fill="url(#paint2_linear_3939_24361)"/>
<defs>
<linearGradient id="paint0_linear_3939_24361" x1="57.25" y1="12.4054" x2="45.3194" y2="145.681" gradientUnits="userSpaceOnUse">
<stop offset="0.1975" stop-color="#FFB666"/>
<stop offset="0.95505" stop-color="#FF0E65"/>
</linearGradient>
<linearGradient id="paint1_linear_3939_24361" x1="57.25" y1="12.4054" x2="45.3194" y2="145.681" gradientUnits="userSpaceOnUse">
<stop offset="0.1975" stop-color="#FFB666"/>
<stop offset="0.95505" stop-color="#FF0E65"/>
</linearGradient>
<linearGradient id="paint2_linear_3939_24361" x1="57.25" y1="12.4054" x2="45.3194" y2="145.681" gradientUnits="userSpaceOnUse">
<stop offset="0.1975" stop-color="#FFB666"/>
<stop offset="0.95505" stop-color="#FF0E65"/>
</linearGradient>
</defs>
</svg>
