<svg width="983" height="184" viewBox="0 0 983 184" fill="none" xmlns="http://www.w3.org/2000/svg">
<rect width="983" height="183.036" rx="16" fill="#FAFAFA"/>
<path d="M56.1528 44.8674C56.1528 48.69 59.2516 51.7888 63.0742 51.7888C66.8968 51.7888 69.9956 48.69 69.9956 44.8674C69.9956 41.0448 66.8968 37.946 63.0742 37.946C59.2516 37.946 56.1528 41.0448 56.1528 44.8674Z" fill="#FFC933"/>
<path d="M52 72.5535C52 78.6695 56.9581 83.6276 63.0741 83.6276C69.1901 83.6276 74.1482 78.6695 74.1482 72.5535C74.1482 66.4374 69.1901 61.4794 63.0741 61.4794C56.9581 61.4794 52 66.4374 52 72.5535Z" fill="#FFC933"/>
<path d="M63.0741 138.997C56.9581 138.997 52 134.039 52 127.923C52 121.807 56.9581 116.849 63.0741 116.849C69.1901 116.849 74.1482 121.807 74.1482 127.923C74.1482 134.039 69.1901 138.997 63.0741 138.997Z" fill="#FFC933"/>
<path d="M63.0742 107.161C59.2516 107.161 56.1528 104.062 56.1528 100.239C56.1528 96.4168 59.2516 93.3179 63.0742 93.3179C66.8968 93.3179 69.9956 96.4168 69.9956 100.239C69.9956 104.062 66.8968 107.161 63.0742 107.161Z" fill="#FFC933"/>
<path d="M94.4968 110.482C94.4968 116.599 99.4549 121.557 105.571 121.557C111.687 121.557 116.645 116.599 116.645 110.482C116.645 104.366 111.687 99.4084 105.571 99.4084C99.4549 99.4084 94.4968 104.366 94.4968 110.482Z" fill="#FFC933"/>
<path d="M98.6496 138.168C98.6496 141.991 101.748 145.09 105.571 145.09C109.394 145.09 112.492 141.991 112.492 138.168C112.492 134.346 109.394 131.247 105.571 131.247C101.748 131.247 98.6496 134.346 98.6496 138.168Z" fill="#FFC933"/>
<path d="M98.6496 82.7964C98.6496 86.619 101.748 89.7178 105.571 89.7178C109.394 89.7178 112.492 86.619 112.492 82.7964C112.492 78.9738 109.394 75.875 105.571 75.875C101.748 75.875 98.6496 78.9738 98.6496 82.7964Z" fill="#FFC933"/>
<path d="M98.6496 55.1104C98.6496 58.933 101.748 62.0318 105.571 62.0318C109.394 62.0318 112.492 58.933 112.492 55.1104C112.492 51.2878 109.394 48.189 105.571 48.189C101.748 48.189 98.6496 51.2878 98.6496 55.1104Z" fill="#FFC933"/>
<path d="M136.995 72.5535C136.995 78.6695 141.953 83.6276 148.069 83.6276C154.185 83.6276 159.143 78.6695 159.143 72.5535C159.143 66.4374 154.185 61.4794 148.069 61.4794C141.953 61.4794 136.995 66.4374 136.995 72.5535Z" fill="#FFC933"/>
<path d="M141.147 44.8674C141.147 48.69 144.246 51.7888 148.069 51.7888C151.892 51.7888 154.99 48.69 154.99 44.8674C154.99 41.0448 151.892 37.946 148.069 37.946C144.246 37.946 141.147 41.0448 141.147 44.8674Z" fill="#FFC933"/>
<path d="M141.147 100.239C141.147 104.062 144.246 107.161 148.069 107.161C151.892 107.161 154.99 104.062 154.99 100.239C154.99 96.4168 151.892 93.3179 148.069 93.3179C144.246 93.3179 141.147 96.4168 141.147 100.239Z" fill="#FFC933"/>
<path d="M141.147 127.923C141.147 131.746 144.246 134.845 148.069 134.845C151.892 134.845 154.99 131.746 154.99 127.923C154.99 124.101 151.892 121.002 148.069 121.002C144.246 121.002 141.147 124.101 141.147 127.923Z" fill="#FFC933"/>
<path d="M425.194 121.596V117.563L432.342 116.726C432.343 116.37 432.344 116.008 432.344 115.638C432.405 113.377 432.436 111.054 432.436 108.671V62.4697L424.644 61.1863V57.5196L438.486 54.0361L440.594 54.5862L440.319 66.6865V85.387H440.778C442.061 83.6147 443.558 82.0258 445.27 80.6202C447.042 79.1535 448.936 77.9923 450.953 77.1368C452.97 76.2812 455.078 75.8534 457.278 75.8534C461.495 75.8534 464.642 77.1979 466.72 79.8868C468.798 82.5147 469.837 86.6703 469.837 92.3538V108.763C469.898 111.146 469.929 113.468 469.929 115.729L469.954 116.715L476.804 117.563V121.596H454.712V117.563L461.587 116.75V115.729C461.648 113.468 461.678 111.146 461.678 108.763C461.739 106.318 461.77 104.087 461.77 102.071V93.5455C461.77 89.5732 461.159 86.7926 459.937 85.2036C458.714 83.6147 456.698 82.8202 453.886 82.8202C452.359 82.8202 450.831 83.0647 449.303 83.5536C447.775 83.9814 446.217 84.6842 444.628 85.662C443.32 86.4467 441.945 87.4329 440.503 88.6207V108.671C440.564 111.054 440.594 113.377 440.594 115.638L440.61 116.25L440.622 116.723L447.47 117.563V121.596H425.194Z" fill="#181B1F"/>
<path d="M347.497 121.596V117.563L354.644 116.733C354.646 116.376 354.647 116.01 354.647 115.638V108.671C354.708 106.226 354.738 104.026 354.738 102.071V97.4873C354.738 95.1039 354.708 92.9955 354.647 91.1621C354.647 89.3287 354.616 87.4343 354.555 85.4786L347.038 84.9286V81.1702L360.88 76.2201L363.08 76.8617L362.897 88.5037V115.638L362.927 116.715L369.772 117.563V121.596H347.497Z" fill="#181B1F"/>
<path d="M358.497 67.0531C356.786 67.0531 355.319 66.4726 354.097 65.3114C352.875 64.1503 352.263 62.7141 352.263 61.003C352.263 59.2918 352.875 57.8862 354.097 56.7862C355.319 55.6251 356.786 55.0445 358.497 55.0445C360.208 55.0445 361.644 55.6251 362.805 56.7862C364.028 57.8862 364.639 59.2918 364.639 61.003C364.639 62.7141 364.028 64.1503 362.805 65.3114C361.644 66.4726 360.208 67.0531 358.497 67.0531Z" fill="#181B1F"/>
<path d="M220.33 65.3043L236.64 122.055H242.598L255.707 79.0618L257.229 72.5402L271.933 122.055H277.708L293.652 65.4107L301.358 64.6697V60.178H279.999V64.6697L288.256 65.4636L278.166 101.979L276.527 110.565L263.049 65.424L272.024 64.6697V60.178H246.357V64.6697L254.7 65.3536L243.149 101.612L241.565 109.984L229.604 65.3903L238.107 64.6697V60.178H212.714V64.6697L220.33 65.3043Z" fill="#181B1F"/>
<path fill-rule="evenodd" clip-rule="evenodd" d="M310.06 120.038C313.36 121.871 317.241 122.788 321.702 122.788C324.941 122.788 327.66 122.36 329.86 121.505C332.121 120.588 334.047 119.366 335.635 117.838C337.286 116.249 338.752 114.446 340.036 112.429L337.469 110.321C335.758 112.338 333.802 113.896 331.602 114.996C329.463 116.096 326.835 116.646 323.718 116.646C320.602 116.646 317.882 115.974 315.56 114.629C313.299 113.224 311.526 111.207 310.243 108.579C309.092 106.046 308.482 103.051 308.416 99.5957H338.661C338.844 98.9234 338.997 98.0679 339.119 97.029C339.241 95.9289 339.302 94.8289 339.302 93.7289C339.302 90.001 338.538 86.8231 337.011 84.1953C335.483 81.5063 333.374 79.459 330.685 78.0534C327.996 76.5867 324.88 75.8534 321.335 75.8534C317.302 75.8534 313.665 76.8923 310.426 78.9701C307.187 80.9869 304.621 83.798 302.726 87.4037C300.893 91.0094 299.976 95.165 299.976 99.8707C299.976 104.576 300.832 108.64 302.543 112.063C304.315 115.485 306.821 118.143 310.06 120.038ZM308.545 95.4706C308.779 92.6425 309.314 90.259 310.151 88.3204C311.374 85.6314 312.963 83.6453 314.918 82.3619C316.935 81.0785 319.074 80.4368 321.335 80.4368C323.413 80.4368 325.216 80.8341 326.744 81.6285C328.271 82.423 329.433 83.5841 330.227 85.112C331.021 86.6398 331.419 88.5343 331.419 90.7954C331.419 91.9566 331.174 92.9649 330.685 93.8205C330.196 94.615 329.096 95.165 327.385 95.4706H308.545Z" fill="#181B1F"/>
<path fill-rule="evenodd" clip-rule="evenodd" d="M384.928 141.855C387.801 142.833 391.345 143.322 395.562 143.322C399.29 143.322 402.621 142.894 405.554 142.038C408.548 141.183 411.085 139.991 413.162 138.463C415.24 136.997 416.829 135.286 417.929 133.33C419.09 131.435 419.671 129.419 419.671 127.28C419.671 124.896 419.09 122.819 417.929 121.046C416.829 119.274 415.149 117.899 412.887 116.921C410.687 115.943 407.907 115.454 404.546 115.454H392.995C390.612 115.454 388.901 115.057 387.862 114.263C386.823 113.407 386.303 112.215 386.303 110.688C386.303 109.465 386.64 108.335 387.312 107.296C387.698 106.748 388.204 106.149 388.829 105.5C390.93 106.147 393.235 106.471 395.745 106.471C399.107 106.471 402.071 105.86 404.637 104.637C407.265 103.354 409.312 101.582 410.779 99.3207C412.307 96.9984 413.071 94.2483 413.071 91.0705C413.071 89.1148 412.796 87.4037 412.246 85.937C411.939 85.0856 411.566 84.2911 411.127 83.5536H420.588V76.2201L418.204 75.67L408.654 80.7104C407.954 79.9642 407.134 79.2924 406.196 78.6951C404.851 77.7784 403.293 77.0756 401.521 76.5867C399.809 76.0978 397.915 75.8534 395.837 75.8534C392.476 75.8534 389.481 76.4645 386.853 77.6868C384.287 78.909 382.239 80.6813 380.712 83.0036C379.245 85.2648 378.512 88.0148 378.512 91.2538C378.512 94.4928 379.245 97.2428 380.712 99.504C382.107 101.655 383.999 103.336 386.39 104.546C383.905 106.19 382.073 107.748 380.895 109.221C379.673 110.688 379.062 112.307 379.062 114.079C379.062 116.096 379.703 117.685 380.987 118.846C382.331 119.946 384.164 120.71 386.487 121.138V121.493C384.54 122.26 382.89 123.058 381.537 123.888C379.703 125.049 378.389 126.271 377.595 127.555C376.8 128.899 376.403 130.396 376.403 132.047C376.403 134.247 377.106 136.202 378.512 137.913C379.917 139.625 382.056 140.938 384.928 141.855ZM388.326 122.323C388.564 122.327 388.807 122.33 389.053 122.33C389.97 122.391 390.887 122.421 391.804 122.421H403.171C406.348 122.421 408.64 123.063 410.046 124.346C411.512 125.63 412.246 127.31 412.246 129.388C412.246 131.038 411.665 132.566 410.504 133.972C409.343 135.438 407.601 136.599 405.279 137.455C402.957 138.311 400.084 138.738 396.662 138.738C393.912 138.738 391.62 138.433 389.787 137.822C387.953 137.211 386.578 136.263 385.662 134.98C384.745 133.758 384.287 132.291 384.287 130.58C384.287 129.358 384.47 128.227 384.837 127.188C385.265 126.149 385.845 125.141 386.578 124.163C387.077 123.55 387.659 122.936 388.326 122.323ZM400.695 100.879C399.29 101.796 397.609 102.254 395.654 102.254C393.698 102.254 392.017 101.796 390.612 100.879C389.267 99.9624 388.228 98.679 387.495 97.029C386.762 95.3789 386.395 93.4539 386.395 91.2538C386.395 88.9926 386.762 87.037 387.495 85.387C388.29 83.7369 389.39 82.4536 390.795 81.5369C392.262 80.5591 393.943 80.0702 395.837 80.0702C397.793 80.0702 399.443 80.5285 400.787 81.4452C402.193 82.3619 403.262 83.6453 403.996 85.2953C404.79 86.8842 405.187 88.7787 405.187 90.9788C405.187 93.24 404.79 95.2261 403.996 96.9373C403.262 98.5873 402.162 99.9012 400.695 100.879Z" fill="#181B1F"/>
<path d="M496.336 82.1786V110.504C496.336 112.888 496.825 114.629 497.802 115.729C498.78 116.768 500.125 117.288 501.836 117.288C502.936 117.288 503.975 117.104 504.953 116.738C505.93 116.31 506.908 115.791 507.886 115.179L509.994 118.296C509.322 119.091 508.436 119.824 507.336 120.496C506.297 121.168 505.105 121.688 503.761 122.055C502.416 122.421 500.919 122.605 499.269 122.605C495.908 122.605 493.219 121.688 491.202 119.855C489.186 118.021 488.177 115.21 488.177 111.421V82.1786H480.294V77.9618L488.941 76.9405L491.386 64.4864H496.977L496.221 77.0451H509.078V82.1786H496.336Z" fill="#181B1F"/>
<path d="M530.041 122.788C527.168 122.788 524.54 122.482 522.157 121.871C519.774 121.26 517.513 120.466 515.374 119.488L515.007 108.671H520.324L522.179 116.985C522.704 117.195 523.247 117.388 523.807 117.563C525.763 118.113 527.902 118.388 530.224 118.388C532.607 118.388 534.532 118.082 535.999 117.471C537.527 116.799 538.658 115.913 539.391 114.813C540.124 113.652 540.491 112.399 540.491 111.054C540.491 109.099 539.788 107.54 538.382 106.379C536.977 105.157 534.746 104.057 531.691 103.079L528.299 101.887C525.671 100.971 523.41 99.9318 521.515 98.7707C519.621 97.6095 518.154 96.2345 517.115 94.6456C516.076 92.9955 515.557 91.0705 515.557 88.8704C515.557 86.487 516.229 84.3175 517.574 82.3619C518.918 80.4063 520.843 78.8479 523.349 77.6868C525.854 76.4645 528.879 75.8534 532.424 75.8534C535.052 75.8534 537.496 76.1895 539.758 76.8617C542.019 77.4729 544.066 78.2979 545.899 79.3368L545.624 89.4204H540.491L538.975 81.6957C538.481 81.497 537.978 81.3218 537.466 81.1702C535.877 80.6202 534.166 80.3452 532.332 80.3452C529.338 80.3452 527.107 80.9563 525.64 82.1786C524.174 83.3397 523.44 84.8675 523.44 86.762C523.44 88.7176 524.082 90.2454 525.365 91.3455C526.649 92.3844 528.879 93.4539 532.057 94.5539L534.532 95.3789C537.71 96.4789 540.338 97.7012 542.416 99.0457C544.494 100.39 545.991 101.887 546.908 103.537C547.886 105.188 548.374 107.082 548.374 109.221C548.374 111.727 547.672 114.018 546.266 116.096C544.86 118.113 542.783 119.732 540.033 120.955C537.344 122.177 534.013 122.788 530.041 122.788Z" fill="#181B1F"/>
<path fill-rule="evenodd" clip-rule="evenodd" d="M585.723 120.588C588.718 122.055 592.109 122.788 595.898 122.788C599.321 122.788 602.285 122.33 604.79 121.413C607.357 120.496 609.527 119.305 611.299 117.838C612.431 116.862 613.45 115.849 614.358 114.798C615.361 115.905 616.388 117.04 617.441 118.205C618.48 119.305 619.549 120.191 620.649 120.863C621.749 121.474 622.941 121.902 624.224 122.146C625.508 122.452 626.944 122.605 628.533 122.605C629.938 122.605 631.222 122.513 632.383 122.33C633.605 122.207 634.827 122.024 636.049 121.78L636.324 117.379L626.514 116.391C625.035 114.799 623.599 113.264 622.207 111.788C621.369 110.873 620.546 109.98 619.74 109.107C621.184 107.239 622.465 105.321 623.582 103.354C625.11 100.604 626.424 97.6095 627.524 94.3705C628.246 92.2463 628.901 89.9381 629.491 87.4459L636.508 86.5787V82.1786H617.166V86.5787L624.487 87.384C624.05 89.5068 623.565 91.4995 623.032 93.3622C622.177 96.2956 621.199 99.0151 620.099 101.521C619.31 103.275 618.441 104.998 617.494 106.69C617.137 106.307 616.783 105.928 616.432 105.554C614.599 103.537 612.827 101.612 611.116 99.779C609.465 97.9456 607.815 96.1734 606.165 94.4622C604.576 92.6899 603.171 91.1316 601.949 89.7871C600.864 88.594 599.827 87.4489 598.839 86.352C603.493 84.1567 606.913 81.91 609.099 79.6118C611.543 77.0451 612.766 74.0505 612.766 70.6282C612.766 67.0837 611.513 64.242 609.007 62.103C606.501 59.9029 603.049 58.8029 598.648 58.8029C595.715 58.8029 593.087 59.3224 590.765 60.3613C588.504 61.4002 586.701 62.928 585.356 64.9448C584.012 66.9004 583.34 69.2838 583.34 72.095C583.34 74.0505 583.615 75.9145 584.165 77.6868C584.776 79.459 585.631 81.2007 586.731 82.9119C587.707 84.3755 588.875 85.8872 590.236 87.4471C587.553 88.6086 585.224 89.9692 583.248 91.5288C580.987 93.3011 579.245 95.3789 578.023 97.7623C576.862 100.085 576.281 102.743 576.281 105.738C576.281 109.038 577.106 111.971 578.756 114.538C580.467 117.104 582.79 119.121 585.723 120.588ZM596.936 84.1412C596.384 83.4951 595.824 82.8409 595.257 82.1786C593.973 80.6507 592.965 79.2757 592.232 78.0534C591.498 76.8312 590.979 75.67 590.673 74.57C590.368 73.4089 590.215 72.2172 590.215 70.9949C590.215 68.4282 591.009 66.3809 592.598 64.8531C594.187 63.2642 596.173 62.4697 598.557 62.4697C600.879 62.4697 602.774 63.203 604.24 64.6697C605.707 66.0753 606.44 68.0921 606.44 70.7199C606.44 73.6533 605.371 76.2812 603.232 78.6035C601.525 80.5112 599.426 82.3572 596.936 84.1412ZM611.997 112.196C610.639 113.257 609.123 114.16 607.449 114.904C604.76 116.127 601.765 116.738 598.465 116.738C595.471 116.738 592.934 116.157 590.857 114.996C588.779 113.774 587.22 112.154 586.181 110.138C585.143 108.121 584.623 105.951 584.623 103.629C584.623 101.735 584.959 99.8707 585.631 98.0373C586.304 96.1428 587.373 94.3705 588.84 92.7205C589.811 91.6331 590.942 90.6444 592.234 89.7545C592.927 90.5705 593.598 91.3758 594.248 92.1705C595.41 93.4539 596.601 94.7983 597.823 96.2039C599.046 97.6095 600.421 99.1985 601.949 100.971C604.393 103.782 606.868 106.563 609.374 109.313C610.227 110.249 611.101 111.21 611.997 112.196Z" fill="#181B1F"/>
<path fill-rule="evenodd" clip-rule="evenodd" d="M665.655 121.596V117.104L674.511 116.407C674.535 115.02 674.547 113.633 674.547 112.246V69.6199C674.547 68.1961 674.535 66.7785 674.51 65.367L665.655 64.6697V60.178H692.881C697.22 60.178 700.948 60.7891 704.064 62.0113C707.242 63.2336 709.687 64.9753 711.398 67.2365C713.109 69.4365 713.965 72.0644 713.965 75.12C713.965 77.8701 713.231 80.2841 711.765 82.3619C710.359 84.3786 708.281 86.0287 705.531 87.312C702.842 88.5343 699.542 89.2982 695.631 89.6037V89.6954C700.337 89.9399 704.278 90.7038 707.456 91.9871C710.634 93.2094 713.017 94.89 714.606 97.029C716.256 99.1068 717.081 101.612 717.081 104.546C717.081 106.868 716.562 109.068 715.523 111.146C714.545 113.163 713.017 114.966 710.94 116.554C708.923 118.143 706.326 119.396 703.148 120.313C699.97 121.168 696.242 121.596 691.964 121.596H665.655ZM683.714 69.6199L683.806 64.8531H690.589C693.706 64.8531 696.334 65.2198 698.473 65.9531C700.612 66.6865 702.2 67.8476 703.239 69.4365C704.339 71.0255 704.889 73.1644 704.889 75.8534C704.889 78.5423 704.339 80.7424 703.239 82.4536C702.139 84.1647 700.428 85.4481 698.106 86.3037C695.845 87.0981 692.942 87.4954 689.397 87.4954H683.714V69.6199ZM683.714 92.1705H689.856C696.028 92.1705 700.52 93.2094 703.331 95.2872C706.203 97.3651 707.639 100.482 707.639 104.637C707.639 108.549 706.203 111.574 703.331 113.713C700.52 115.791 696.12 116.829 690.131 116.829H683.806L683.714 112.063V92.1705Z" fill="#181B1F"/>
<path d="M724.647 117.563V121.596H746.923V117.563L740.077 116.715L740.047 115.638V88.5037L740.231 76.8617L738.031 76.2201L724.189 81.1702V84.9286L731.706 85.4786C731.767 87.4343 731.797 89.3287 731.797 91.1621C731.858 92.9955 731.889 95.1039 731.889 97.4873V102.071C731.889 104.026 731.858 106.226 731.797 108.671V115.638C731.797 116.01 731.796 116.376 731.795 116.733L724.647 117.563Z" fill="#181B1F"/>
<path d="M731.247 65.3114C732.469 66.4726 733.936 67.0531 735.647 67.0531C737.358 67.0531 738.795 66.4726 739.956 65.3114C741.178 64.1503 741.789 62.7141 741.789 61.003C741.789 59.2918 741.178 57.8862 739.956 56.7862C738.795 55.6251 737.358 55.0445 735.647 55.0445C733.936 55.0445 732.469 55.6251 731.247 56.7862C730.025 57.8862 729.414 59.2918 729.414 61.003C729.414 62.7141 730.025 64.1503 731.247 65.3114Z" fill="#181B1F"/>
<path fill-rule="evenodd" clip-rule="evenodd" d="M767.121 122.88C763.698 122.88 760.734 121.902 758.229 119.946C755.784 117.93 754.562 114.966 754.562 111.054C754.562 108.976 754.99 107.113 755.845 105.463C756.762 103.751 758.32 102.224 760.52 100.879C762.72 99.4735 765.746 98.2207 769.596 97.1206C771.307 96.6317 772.987 96.1734 774.637 95.7456C776.349 95.2567 778.029 94.7678 779.679 94.2789C780.199 94.1305 780.718 93.9849 781.238 93.8421V91.6205C781.238 88.6871 780.902 86.4259 780.229 84.837C779.618 83.1869 778.61 82.0563 777.204 81.4452C775.86 80.773 774.118 80.4368 771.979 80.4368C770.635 80.4368 769.259 80.5591 767.854 80.8035C767.44 80.8756 767.018 80.9635 766.587 81.0674L765.287 86.8537C764.982 88.5037 764.401 89.7565 763.545 90.6121C762.751 91.4066 761.682 91.8038 760.337 91.8038C758.931 91.8038 757.831 91.4371 757.037 90.7038C756.304 89.9704 755.876 89.0537 755.754 87.9537C756.548 84.287 758.595 81.3535 761.895 79.1535C765.195 76.9534 769.321 75.8534 774.271 75.8534C777.449 75.8534 780.138 76.4034 782.338 77.5034C784.599 78.5423 786.31 80.2229 787.471 82.5452C788.693 84.8064 789.305 87.8926 789.305 91.8038V111.879C789.305 113.774 789.641 115.149 790.313 116.004C790.985 116.799 791.871 117.196 792.971 117.196C793.766 117.196 794.438 117.043 794.988 116.738C795.599 116.432 796.149 116.066 796.638 115.638L798.196 118.388C797.219 119.793 796.057 120.863 794.713 121.596C793.43 122.269 791.932 122.605 790.221 122.605C787.593 122.605 785.485 121.749 783.896 120.038C782.611 118.654 781.825 116.79 781.54 114.446H781.146C779.74 116.096 778.365 117.563 777.021 118.846C775.676 120.13 774.21 121.107 772.621 121.78C771.093 122.513 769.26 122.88 767.121 122.88ZM778.304 98.4957C779.276 98.1903 780.253 97.885 781.238 97.5797V111.12C780.042 112.08 778.972 112.914 778.029 113.621C776.624 114.66 775.34 115.424 774.179 115.913C773.079 116.402 771.857 116.646 770.512 116.646C768.251 116.646 766.418 116.066 765.012 114.904C763.607 113.682 762.904 111.91 762.904 109.588C762.904 108.488 763.118 107.418 763.545 106.379C763.973 105.279 764.829 104.24 766.112 103.262C767.396 102.285 769.321 101.399 771.887 100.604C774.026 99.8707 776.165 99.1679 778.304 98.4957Z" fill="#181B1F"/>
<path d="M810.413 121.871C812.797 122.482 815.425 122.788 818.297 122.788C822.269 122.788 825.6 122.177 828.289 120.955C831.039 119.732 833.117 118.113 834.522 116.096C835.928 114.018 836.631 111.727 836.631 109.221C836.631 107.082 836.142 105.188 835.164 103.537C834.247 101.887 832.75 100.39 830.672 99.0457C828.595 97.7012 825.967 96.4789 822.789 95.3789L820.314 94.5539C817.136 93.4539 814.905 92.3844 813.622 91.3455C812.338 90.2454 811.697 88.7176 811.697 86.762C811.697 84.8675 812.43 83.3397 813.897 82.1786C815.364 80.9563 817.594 80.3452 820.589 80.3452C822.422 80.3452 824.133 80.6202 825.722 81.1702C826.234 81.3218 826.737 81.497 827.231 81.6957L828.747 89.4204H833.881L834.156 79.3368C832.322 78.2979 830.275 77.4729 828.014 76.8617C825.753 76.1895 823.308 75.8534 820.68 75.8534C817.136 75.8534 814.111 76.4645 811.605 77.6868C809.1 78.8479 807.174 80.4063 805.83 82.3619C804.486 84.3175 803.813 86.487 803.813 88.8704C803.813 91.0705 804.333 92.9955 805.372 94.6456C806.411 96.2345 807.877 97.6095 809.772 98.7707C811.666 99.9318 813.927 100.971 816.555 101.887L819.947 103.079C823.003 104.057 825.233 105.157 826.639 106.379C828.044 107.54 828.747 109.099 828.747 111.054C828.747 112.399 828.381 113.652 827.647 114.813C826.914 115.913 825.783 116.799 824.255 117.471C822.789 118.082 820.864 118.388 818.48 118.388C816.158 118.388 814.019 118.113 812.064 117.563C811.503 117.388 810.96 117.195 810.435 116.985L808.58 108.671H803.263L803.63 119.488C805.769 120.466 808.03 121.26 810.413 121.871Z" fill="#181B1F"/>
<path fill-rule="evenodd" clip-rule="evenodd" d="M866.614 122.788C862.153 122.788 858.272 121.871 854.972 120.038C851.733 118.143 849.227 115.485 847.455 112.063C845.744 108.64 844.888 104.576 844.888 99.8707C844.888 95.165 845.805 91.0094 847.638 87.4037C849.533 83.798 852.1 80.9869 855.338 78.9701C858.577 76.8923 862.214 75.8534 866.247 75.8534C869.792 75.8534 872.908 76.5867 875.597 78.0534C878.286 79.459 880.395 81.5063 881.923 84.1953C883.45 86.8231 884.214 90.001 884.214 93.7289C884.214 94.8289 884.153 95.9289 884.031 97.029C883.909 98.0679 883.756 98.9234 883.573 99.5957H853.328C853.394 103.051 854.004 106.046 855.155 108.579C856.439 111.207 858.211 113.224 860.472 114.629C862.794 115.974 865.514 116.646 868.63 116.646C871.747 116.646 874.375 116.096 876.514 114.996C878.714 113.896 880.67 112.338 882.381 110.321L884.948 112.429C883.664 114.446 882.198 116.249 880.547 117.838C878.959 119.366 877.034 120.588 874.772 121.505C872.572 122.36 869.853 122.788 866.614 122.788ZM855.063 88.3204C854.226 90.259 853.691 92.6425 853.457 95.4706H872.297C874.008 95.165 875.108 94.615 875.597 93.8205C876.086 92.9649 876.331 91.9566 876.331 90.7954C876.331 88.5343 875.933 86.6398 875.139 85.112C874.345 83.5841 873.183 82.423 871.656 81.6285C870.128 80.8341 868.325 80.4368 866.247 80.4368C863.986 80.4368 861.847 81.0785 859.83 82.3619C857.875 83.6453 856.286 85.6314 855.063 88.3204Z" fill="#181B1F"/>
<path d="M900.292 121.871C902.676 122.482 905.303 122.788 908.176 122.788C912.148 122.788 915.479 122.177 918.168 120.955C920.918 119.732 922.996 118.113 924.401 116.096C925.807 114.018 926.51 111.727 926.51 109.221C926.51 107.082 926.021 105.188 925.043 103.537C924.126 101.887 922.629 100.39 920.551 99.0457C918.473 97.7012 915.845 96.4789 912.668 95.3789L910.192 94.5539C907.015 93.4539 904.784 92.3844 903.501 91.3455C902.217 90.2454 901.576 88.7176 901.576 86.762C901.576 84.8675 902.309 83.3397 903.776 82.1786C905.242 80.9563 907.473 80.3452 910.467 80.3452C912.301 80.3452 914.012 80.6202 915.601 81.1702C916.113 81.3218 916.616 81.497 917.11 81.6957L918.626 89.4204H923.759L924.034 79.3368C922.201 78.2979 920.154 77.4729 917.893 76.8617C915.631 76.1895 913.187 75.8534 910.559 75.8534C907.015 75.8534 903.989 76.4645 901.484 77.6868C898.978 78.8479 897.053 80.4063 895.709 82.3619C894.364 84.3175 893.692 86.487 893.692 88.8704C893.692 91.0705 894.211 92.9955 895.25 94.6456C896.289 96.2345 897.756 97.6095 899.65 98.7707C901.545 99.9318 903.806 100.971 906.434 101.887L909.826 103.079C912.881 104.057 915.112 105.157 916.518 106.379C917.923 107.54 918.626 109.099 918.626 111.054C918.626 112.399 918.259 113.652 917.526 114.813C916.793 115.913 915.662 116.799 914.134 117.471C912.668 118.082 910.742 118.388 908.359 118.388C906.037 118.388 903.898 118.113 901.942 117.563C901.382 117.388 900.839 117.195 900.314 116.985L898.459 108.671H893.142L893.509 119.488C895.648 120.466 897.909 121.26 900.292 121.871Z" fill="#181B1F"/>
</svg>
