<svg width="96" height="96" viewBox="0 0 96 96" fill="none" xmlns="http://www.w3.org/2000/svg">
<path d="M47 0.57735C47.6188 0.220084 48.3812 0.220085 49 0.57735L88.5692 23.4226C89.188 23.7799 89.5692 24.4402 89.5692 25.1547V70.8453C89.5692 71.5598 89.188 72.2201 88.5692 72.5774L49 95.4226C48.3812 95.7799 47.6188 95.7799 47 95.4226L7.43078 72.5774C6.81198 72.2201 6.43078 71.5598 6.43078 70.8453V25.1547C6.43078 24.4402 6.81198 23.7799 7.43078 23.4226L47 0.57735Z" fill="#ABAEB3" fill-opacity="0.1"/>
<path d="M55.5758 30.5758C55.5758 34.7597 52.184 38.1515 48 38.1515C43.816 38.1515 40.4242 34.7597 40.4242 30.5758C40.4242 26.3918 43.816 23 48 23C52.184 23 55.5758 26.3918 55.5758 30.5758Z" fill="url(#paint0_linear_3939_24367)"/>
<path d="M55.5758 65.4242C55.5758 69.6082 52.184 73 48 73C43.816 73 40.4242 69.6082 40.4242 65.4242C40.4242 61.2403 43.816 57.8485 48 57.8485C52.184 57.8485 55.5758 61.2403 55.5758 65.4242Z" fill="url(#paint1_linear_3939_24367)"/>
<path d="M30.5758 55.5758C34.7597 55.5758 38.1515 52.184 38.1515 48C38.1515 43.816 34.7597 40.4242 30.5758 40.4242C26.3918 40.4242 23 43.816 23 48C23 52.184 26.3918 55.5758 30.5758 55.5758Z" fill="url(#paint2_linear_3939_24367)"/>
<path d="M73 48C73 52.184 69.6082 55.5758 65.4242 55.5758C61.2403 55.5758 57.8485 52.184 57.8485 48C57.8485 43.816 61.2403 40.4242 65.4242 40.4242C69.6082 40.4242 73 43.816 73 48Z" fill="url(#paint3_linear_3939_24367)"/>
<path d="M42.4751 37.9296C42.623 38.0776 42.623 38.3174 42.4751 38.4653L38.4653 42.4751C38.3174 42.623 38.0776 42.623 37.9297 42.4751L36.8583 41.4037C36.7104 41.2558 36.7104 41.016 36.8583 40.868L40.868 36.8583C41.016 36.7103 41.2558 36.7103 41.4037 36.8583L42.4751 37.9296Z" fill="url(#paint4_linear_3939_24367)"/>
<path d="M55.9546 48.7576C55.9546 48.9668 55.785 49.1364 55.5758 49.1364H40.4243C40.2151 49.1364 40.0455 48.9668 40.0455 48.7576V47.2424C40.0455 47.0332 40.2151 46.8636 40.4243 46.8636H55.5758C55.785 46.8636 55.9546 47.0332 55.9546 47.2424V48.7576Z" fill="url(#paint5_linear_3939_24367)"/>
<path d="M55.132 59.1418C54.9841 59.2897 54.7442 59.2897 54.5963 59.1418L53.5249 58.0704C53.377 57.9225 53.377 57.6826 53.5249 57.5347L57.5347 53.5249C57.6826 53.377 57.9225 53.377 58.0704 53.5249L59.1418 54.5963C59.2897 54.7442 59.2897 54.9841 59.1418 55.132L55.132 59.1418Z" fill="url(#paint6_linear_3939_24367)"/>
<path d="M53.525 37.9296C53.377 38.0776 53.377 38.3174 53.525 38.4653L57.5347 42.4751C57.6827 42.623 57.9225 42.623 58.0704 42.4751L59.1418 41.4037C59.2897 41.2558 59.2897 41.016 59.1418 40.868L55.132 36.8583C54.9841 36.7103 54.7443 36.7103 54.5963 36.8583L53.525 37.9296Z" fill="url(#paint7_linear_3939_24367)"/>
<path d="M40.8681 59.1418C41.016 59.2897 41.2558 59.2897 41.4037 59.1418L42.4751 58.0704C42.623 57.9225 42.623 57.6826 42.4751 57.5347L38.4654 53.5249C38.3174 53.377 38.0776 53.377 37.9297 53.5249L36.8583 54.5963C36.7104 54.7442 36.7104 54.9841 36.8583 55.132L40.8681 59.1418Z" fill="url(#paint8_linear_3939_24367)"/>
<defs>
<linearGradient id="paint0_linear_3939_24367" x1="60.5" y1="7.5" x2="47.8503" y2="149.047" gradientUnits="userSpaceOnUse">
<stop offset="0.1975" stop-color="#FFB666"/>
<stop offset="0.95505" stop-color="#FF0E65"/>
</linearGradient>
<linearGradient id="paint1_linear_3939_24367" x1="60.5" y1="7.5" x2="47.8503" y2="149.047" gradientUnits="userSpaceOnUse">
<stop offset="0.1975" stop-color="#FFB666"/>
<stop offset="0.95505" stop-color="#FF0E65"/>
</linearGradient>
<linearGradient id="paint2_linear_3939_24367" x1="60.5" y1="7.5" x2="47.8503" y2="149.047" gradientUnits="userSpaceOnUse">
<stop offset="0.1975" stop-color="#FFB666"/>
<stop offset="0.95505" stop-color="#FF0E65"/>
</linearGradient>
<linearGradient id="paint3_linear_3939_24367" x1="60.5" y1="7.5" x2="47.8503" y2="149.047" gradientUnits="userSpaceOnUse">
<stop offset="0.1975" stop-color="#FFB666"/>
<stop offset="0.95505" stop-color="#FF0E65"/>
</linearGradient>
<linearGradient id="paint4_linear_3939_24367" x1="60.5" y1="7.5" x2="47.8503" y2="149.047" gradientUnits="userSpaceOnUse">
<stop offset="0.1975" stop-color="#FFB666"/>
<stop offset="0.95505" stop-color="#FF0E65"/>
</linearGradient>
<linearGradient id="paint5_linear_3939_24367" x1="60.5" y1="7.5" x2="47.8503" y2="149.047" gradientUnits="userSpaceOnUse">
<stop offset="0.1975" stop-color="#FFB666"/>
<stop offset="0.95505" stop-color="#FF0E65"/>
</linearGradient>
<linearGradient id="paint6_linear_3939_24367" x1="60.5" y1="7.5" x2="47.8503" y2="149.047" gradientUnits="userSpaceOnUse">
<stop offset="0.1975" stop-color="#FFB666"/>
<stop offset="0.95505" stop-color="#FF0E65"/>
</linearGradient>
<linearGradient id="paint7_linear_3939_24367" x1="60.5" y1="7.5" x2="47.8503" y2="149.047" gradientUnits="userSpaceOnUse">
<stop offset="0.1975" stop-color="#FFB666"/>
<stop offset="0.95505" stop-color="#FF0E65"/>
</linearGradient>
<linearGradient id="paint8_linear_3939_24367" x1="60.5" y1="7.5" x2="47.8503" y2="149.047" gradientUnits="userSpaceOnUse">
<stop offset="0.1975" stop-color="#FFB666"/>
<stop offset="0.95505" stop-color="#FF0E65"/>
</linearGradient>
</defs>
</svg>
