<svg width="96" height="96" viewBox="0 0 96 96" fill="none" xmlns="http://www.w3.org/2000/svg">
<path d="M47 0.57735C47.6188 0.220084 48.3812 0.220085 49 0.57735L88.5692 23.4226C89.188 23.7799 89.5692 24.4402 89.5692 25.1547V70.8453C89.5692 71.5598 89.188 72.2201 88.5692 72.5774L49 95.4226C48.3812 95.7799 47.6188 95.7799 47 95.4226L7.43078 72.5774C6.81198 72.2201 6.43078 71.5598 6.43078 70.8453V25.1547C6.43078 24.4402 6.81198 23.7799 7.43078 23.4226L47 0.57735Z" fill="#ABAEB3" fill-opacity="0.1"/>
<path d="M47 40C42.5817 40 39 43.5817 39 48C39 52.4183 42.5817 56 47 56C51.4183 56 55 52.4183 55 48C55 43.5817 51.4183 40 47 40Z" fill="url(#paint0_linear_3939_24379)"/>
<path fill-rule="evenodd" clip-rule="evenodd" d="M34 26C29.5817 26 26 29.5817 26 34V62C26 66.4183 29.5817 70 34 70H62C66.4183 70 70 66.4183 70 62V34C70 29.5817 66.4183 26 62 26H34ZM54.6464 40.0922C54.7764 40.218 55 40.1279 55 39.9469V39C55 38.4477 55.4477 38 56 38H57C57.5523 38 58 38.4477 58 39V57C58 57.5523 57.5523 58 57 58H56C55.4477 58 55 57.5523 55 57V56.0531C55 55.8721 54.7764 55.782 54.6464 55.9078C52.667 57.8221 49.9711 59 47 59C40.9249 59 36 54.0751 36 48C36 41.9249 40.9249 37 47 37C49.9711 37 52.667 38.1779 54.6464 40.0922Z" fill="url(#paint1_linear_3939_24379)"/>
<defs>
<linearGradient id="paint0_linear_3939_24379" x1="59.5" y1="10.74" x2="47.8622" y2="140.963" gradientUnits="userSpaceOnUse">
<stop offset="0.1975" stop-color="#FFB666"/>
<stop offset="0.95505" stop-color="#FF0E65"/>
</linearGradient>
<linearGradient id="paint1_linear_3939_24379" x1="59.5" y1="10.74" x2="47.8622" y2="140.963" gradientUnits="userSpaceOnUse">
<stop offset="0.1975" stop-color="#FFB666"/>
<stop offset="0.95505" stop-color="#FF0E65"/>
</linearGradient>
</defs>
</svg>
