<svg width="96" height="96" viewBox="0 0 96 96" fill="none" xmlns="http://www.w3.org/2000/svg">
<path d="M47 0.57735C47.6188 0.220084 48.3812 0.220085 49 0.57735L88.5692 23.4226C89.188 23.7799 89.5692 24.4402 89.5692 25.1547V70.8453C89.5692 71.5598 89.188 72.2201 88.5692 72.5774L49 95.4226C48.3812 95.7799 47.6188 95.7799 47 95.4226L7.43078 72.5774C6.81198 72.2201 6.43078 71.5598 6.43078 70.8453V25.1547C6.43078 24.4402 6.81198 23.7799 7.43078 23.4226L47 0.57735Z" fill="#ABAEB3" fill-opacity="0.1"/>
<path d="M55.9783 31.5015V27.9429C55.9783 27.502 55.7866 27.0848 55.4157 26.8545C54.3775 26.2101 52.0219 25 47.9801 25C43.9382 25 41.5835 26.077 40.5453 26.7214C40.1744 26.9516 39.9828 27.3689 39.9828 27.8098V31.3684C39.9828 32.196 40.6446 32.8669 41.461 32.8669L54.5 33C55.3164 33 55.9783 32.3291 55.9783 31.5015Z" fill="url(#paint0_linear_3939_24364)"/>
<path fill-rule="evenodd" clip-rule="evenodd" d="M38.0018 31.743V29.4954C38.0018 29.2885 37.8363 29.1207 37.6322 29.1207H34.6956C32.6546 29.1207 31 30.7979 31 32.8669V65.2539C31 67.3228 32.6554 69 34.6964 69H61.3036C63.3446 69 65 67.3228 65 65.2539V32.8669C65 30.7979 63.3454 29.1207 61.3044 29.1207H58.3279C58.1238 29.1207 57.9583 29.2885 57.9583 29.4954V31.743C57.9583 33.6051 56.5869 35 54.75 35H41.25C39.4131 35 38.0018 33.6051 38.0018 31.743ZM49.8478 47V49.2477H37.9211V47H49.8478ZM58.0791 53.743V55.9907H37.9211V53.743H58.0791Z" fill="url(#paint1_linear_3939_24364)"/>
<defs>
<linearGradient id="paint0_linear_3939_24364" x1="56.5" y1="11.36" x2="42.1708" y2="135.259" gradientUnits="userSpaceOnUse">
<stop offset="0.1975" stop-color="#FFB666"/>
<stop offset="0.95505" stop-color="#FF0E65"/>
</linearGradient>
<linearGradient id="paint1_linear_3939_24364" x1="56.5" y1="11.36" x2="42.1708" y2="135.259" gradientUnits="userSpaceOnUse">
<stop offset="0.1975" stop-color="#FFB666"/>
<stop offset="0.95505" stop-color="#FF0E65"/>
</linearGradient>
</defs>
</svg>
