<svg width="96" height="96" viewBox="0 0 96 96" fill="none" xmlns="http://www.w3.org/2000/svg">
<path d="M47 0.57735C47.6188 0.220084 48.3812 0.220085 49 0.57735L88.5692 23.4226C89.188 23.7799 89.5692 24.4402 89.5692 25.1547V70.8453C89.5692 71.5598 89.188 72.2201 88.5692 72.5774L49 95.4226C48.3812 95.7799 47.6188 95.7799 47 95.4226L7.43078 72.5774C6.81198 72.2201 6.43078 71.5598 6.43078 70.8453V25.1547C6.43078 24.4402 6.81198 23.7799 7.43078 23.4226L47 0.57735Z" fill="#ABAEB3" fill-opacity="0.1"/>
<path d="M46.0833 35.5417C46.0833 41.3637 41.3637 46.0833 35.5417 46.0833C29.7197 46.0833 25 41.3637 25 35.5417C25 33.0867 25.8392 30.8276 27.2464 29.0359L34.6554 36.4448C34.82 36.6095 35.087 36.6095 35.2517 36.4448L36.4444 35.2522C36.609 35.0875 36.609 34.8205 36.4444 34.6558L29.0354 27.2468C30.8272 25.8394 33.0864 25 35.5417 25C41.3637 25 46.0833 29.7197 46.0833 35.5417Z" fill="url(#paint0_linear_3939_24376)"/>
<path d="M71 35.5417C71 41.3637 66.2803 46.0833 60.4583 46.0833C54.6363 46.0833 49.9167 41.3637 49.9167 35.5417C49.9167 33.0474 50.7829 30.7555 52.2309 28.9504L59.7254 36.4448C59.89 36.6095 60.157 36.6095 60.3217 36.4448L61.5144 35.2522C61.679 35.0875 61.679 34.8205 61.5144 34.6558L54.0383 27.1798C55.8161 25.8128 58.0423 25 60.4583 25C66.2803 25 71 29.7197 71 35.5417Z" fill="url(#paint1_linear_3939_24376)"/>
<path d="M35.5417 71C41.3637 71 46.0833 66.2803 46.0833 60.4583C46.0833 58.0032 45.244 55.744 43.8366 53.9522L36.274 61.5148C36.1094 61.6795 35.8424 61.6795 35.6777 61.5148L34.4851 60.3222C34.3204 60.1575 34.3204 59.8905 34.4851 59.7258L42.0476 52.1632C40.2558 50.7559 37.9968 49.9167 35.5417 49.9167C29.7197 49.9167 25 54.6363 25 60.4583C25 66.2803 29.7197 71 35.5417 71Z" fill="url(#paint2_linear_3939_24376)"/>
<path d="M71 60.4583C71 66.2803 66.2803 71 60.4583 71C54.6363 71 49.9167 66.2803 49.9167 60.4583C49.9167 54.6363 54.6363 49.9167 60.4583 49.9167C62.9526 49.9167 65.2446 50.783 67.0498 52.2311L59.555 59.7258C59.3904 59.8905 59.3904 60.1575 59.555 60.3222L60.7477 61.5148C60.9124 61.6795 61.1793 61.6795 61.344 61.5148L68.8204 54.0385C70.1873 55.8163 71 58.0424 71 60.4583Z" fill="url(#paint3_linear_3939_24376)"/>
<defs>
<linearGradient id="paint0_linear_3939_24376" x1="59.5" y1="10.74" x2="47.8623" y2="140.963" gradientUnits="userSpaceOnUse">
<stop offset="0.1975" stop-color="#FFB666"/>
<stop offset="0.95505" stop-color="#FF0E65"/>
</linearGradient>
<linearGradient id="paint1_linear_3939_24376" x1="59.5" y1="10.74" x2="47.8623" y2="140.963" gradientUnits="userSpaceOnUse">
<stop offset="0.1975" stop-color="#FFB666"/>
<stop offset="0.95505" stop-color="#FF0E65"/>
</linearGradient>
<linearGradient id="paint2_linear_3939_24376" x1="59.5" y1="10.74" x2="47.8623" y2="140.963" gradientUnits="userSpaceOnUse">
<stop offset="0.1975" stop-color="#FFB666"/>
<stop offset="0.95505" stop-color="#FF0E65"/>
</linearGradient>
<linearGradient id="paint3_linear_3939_24376" x1="59.5" y1="10.74" x2="47.8623" y2="140.963" gradientUnits="userSpaceOnUse">
<stop offset="0.1975" stop-color="#FFB666"/>
<stop offset="0.95505" stop-color="#FF0E65"/>
</linearGradient>
</defs>
</svg>
