<svg width="96" height="96" viewBox="0 0 96 96" fill="none" xmlns="http://www.w3.org/2000/svg">
<path d="M47 0.57735C47.6188 0.220084 48.3812 0.220085 49 0.57735L88.5692 23.4226C89.188 23.7799 89.5692 24.4402 89.5692 25.1547V70.8453C89.5692 71.5598 89.188 72.2201 88.5692 72.5774L49 95.4226C48.3812 95.7799 47.6188 95.7799 47 95.4226L7.43078 72.5774C6.81198 72.2201 6.43078 71.5598 6.43078 70.8453V25.1547C6.43078 24.4402 6.81198 23.7799 7.43078 23.4226L47 0.57735Z" fill="#ABAEB3" fill-opacity="0.1"/>
<path d="M41.5295 31.3953C41.5295 31.177 41.705 31 41.9215 31H54.0785C54.2951 31 54.4706 31.177 54.4706 31.3953V40.7689C54.4706 40.9873 54.2951 41.1643 54.0785 41.1643H41.9215C41.705 41.1643 41.5295 40.9873 41.5295 40.7689V31.3953Z" fill="url(#paint0_linear_3939_24373)"/>
<path d="M38.5492 41.1643C38.7657 41.1643 38.9412 40.9873 38.9412 40.7689V31.3953C38.9412 31.177 38.7703 31 38.5538 31C36.9918 31 32.9879 31 29.9182 31C27.753 31 26 32.77 26 34.9535V40.7689C26 40.9873 26.1755 41.1643 26.392 41.1643H38.5492Z" fill="url(#paint1_linear_3939_24373)"/>
<path d="M26 44.1698C26 43.9514 26.1755 43.7744 26.392 43.7744H38.5492C38.7657 43.7744 38.9412 43.9514 38.9412 44.1698V64.6047C38.9412 64.823 38.7703 65 38.5538 65C36.9918 65 32.9879 65 29.9182 65C27.753 65 26 63.23 26 61.0465V44.1698Z" fill="url(#paint2_linear_3939_24373)"/>
<path d="M41.5295 44.1698C41.5295 43.9514 41.705 43.7744 41.9215 43.7744H54.0785C54.2951 43.7744 54.4706 43.9514 54.4706 44.1698V64.6047C54.4706 64.823 54.2951 65 54.0785 65H41.9215C41.705 65 41.5295 64.823 41.5295 64.6047V44.1698Z" fill="url(#paint3_linear_3939_24373)"/>
<path d="M57.451 43.7744C57.2344 43.7744 57.0589 43.9514 57.0589 44.1698V64.6047C57.0589 64.823 57.2344 65 57.451 65C60.3021 65 63.1531 65 66.0042 65C68.1626 65 69.915 63.2406 69.9245 61.0639L69.9983 44.1715C69.9992 43.9525 69.8234 43.7744 69.6062 43.7744H57.451Z" fill="url(#paint4_linear_3939_24373)"/>
<path d="M69.608 41.1643C69.8245 41.1643 70 40.9873 70 40.7689V34.9535C70 32.77 68.247 31 66.0818 31C63.0121 31 59.0083 31 57.4463 31C57.2298 31 57.0589 31.177 57.0589 31.3953V40.7689C57.0589 40.9873 57.2344 41.1643 57.451 41.1643H69.608Z" fill="url(#paint5_linear_3939_24373)"/>
<defs>
<linearGradient id="paint0_linear_3939_24373" x1="59" y1="20.46" x2="52.3319" y2="117.02" gradientUnits="userSpaceOnUse">
<stop offset="0.1975" stop-color="#FFB666"/>
<stop offset="0.95505" stop-color="#FF0E65"/>
</linearGradient>
<linearGradient id="paint1_linear_3939_24373" x1="59" y1="20.46" x2="52.3319" y2="117.02" gradientUnits="userSpaceOnUse">
<stop offset="0.1975" stop-color="#FFB666"/>
<stop offset="0.95505" stop-color="#FF0E65"/>
</linearGradient>
<linearGradient id="paint2_linear_3939_24373" x1="59" y1="20.46" x2="52.3319" y2="117.02" gradientUnits="userSpaceOnUse">
<stop offset="0.1975" stop-color="#FFB666"/>
<stop offset="0.95505" stop-color="#FF0E65"/>
</linearGradient>
<linearGradient id="paint3_linear_3939_24373" x1="59" y1="20.46" x2="52.3319" y2="117.02" gradientUnits="userSpaceOnUse">
<stop offset="0.1975" stop-color="#FFB666"/>
<stop offset="0.95505" stop-color="#FF0E65"/>
</linearGradient>
<linearGradient id="paint4_linear_3939_24373" x1="59" y1="20.46" x2="52.3319" y2="117.02" gradientUnits="userSpaceOnUse">
<stop offset="0.1975" stop-color="#FFB666"/>
<stop offset="0.95505" stop-color="#FF0E65"/>
</linearGradient>
<linearGradient id="paint5_linear_3939_24373" x1="59" y1="20.46" x2="52.3319" y2="117.02" gradientUnits="userSpaceOnUse">
<stop offset="0.1975" stop-color="#FFB666"/>
<stop offset="0.95505" stop-color="#FF0E65"/>
</linearGradient>
</defs>
</svg>
