<?xml version="1.0" encoding="UTF-8"?>
<svg width="93px" height="35px" viewBox="0 0 93 35" version="1.1" xmlns="http://www.w3.org/2000/svg" xmlns:xlink="http://www.w3.org/1999/xlink">
    <!-- Generator: Sketch 43.2 (39069) - http://www.bohemiancoding.com/sketch -->
    <title>W&amp;B Logo</title>
    <desc>Created with Sketch.</desc>
    <defs></defs>
    <g id="Page-1" stroke="none" stroke-width="1" fill="none" fill-rule="evenodd">
        <g id="logo-shape" fill="#000000">
            <path d="M4.56,8.416 C3.63199536,6.23998912 3.168,4.752004 3.168,3.952 L0.624,4.096 L0.624,0.4 L14.784,0.4 L14.784,3.568 C13.7599949,3.53599984 12.9840026,3.67199848 12.456,3.976 C11.9279974,4.28000152 11.664,4.81599616 11.664,5.584 C11.664,6.00000208 11.759999,6.5279968 11.952,7.168 L14.832,18.112 C14.8960003,18.3680013 15.0879984,19.1119938 15.408,20.344 C15.7280016,21.5760062 16.0639982,23.1039909 16.416,24.928 L16.464,24.928 L19.2,15.088 L23.664,0.4 L27.984,0.4 L33.456,18.064 C33.9040022,19.5360074 34.4799965,21.8399843 35.184,24.976 L35.232,24.976 L37.056,18.352 L39.744,8.32 C40.2560026,6.30398992 40.911996,4.84800448 41.712,3.952 L41.712,3.904 L39.216,4.048 L38.016,4.096 L38.016,0.4 L48.816,0.4 L48.816,3.568 C47.6959944,3.63200032 46.7200042,4.05599608 45.888,4.84 C45.0559958,5.62400392 44.336003,6.91199104 43.728,8.704 L35.904,34.288 L31.632,34.288 L25.968,17.104 C25.4559974,15.5999925 24.9440026,13.6320122 24.432,11.2 C24.3999998,10.9119986 24.3200006,10.5120026 24.192,10 L24.144,10 C23.8239984,12.0800104 23.360003,14.1759894 22.752,16.288 L17.28,34.288 L13.104,34.288 L4.56,8.416 Z" id="W"></path>
            <path d="M64.4,30.832 C65.2640043,30.7999998 65.9199978,30.6960009 66.368,30.52 C66.8160022,30.3439991 67.1679987,29.9680029 67.424,29.392 C67.6800013,28.8159971 67.808,27.9040062 67.808,26.656 L67.808,8.272 C67.808,6.47999104 67.8719994,5.04000544 68,3.952 L64.4,4.096 L64.4,0.4 L77.696,0.304 C81.5360192,0.27199984 84.5439891,0.95999296 86.72,2.368 C88.8960109,3.77600704 89.984,5.8399864 89.984,8.56 C89.984,10.1280078 89.4000058,11.5759934 88.232,12.904 C87.0639942,14.2320066 85.3440114,15.199997 83.072,15.808 L83.072,15.856 C86.1440154,16.3360024 88.4639922,17.3599922 90.032,18.928 C91.6000078,20.4960078 92.384,22.3359894 92.384,24.448 C92.384,27.4880152 91.3040108,29.8399917 89.144,31.504 C86.9839892,33.1680083 84.1760173,34 80.72,34 L64.4,34 L64.4,30.832 Z M77.264,15.088 C79.1520094,15.0559998 80.5199958,14.4560058 81.368,13.288 C82.2160042,12.1199942 82.64,10.5760096 82.64,8.656 C82.64,6.92799136 82.1600048,5.664004 81.2,4.864 C80.2399952,4.063996 79.0720069,3.664 77.696,3.664 C77.0239966,3.664 76.488002,3.7439992 76.088,3.904 C75.687998,4.0640008 75.3680012,4.43999704 75.128,5.032 C74.8879988,5.62400296 74.768,6.51199408 74.768,7.696 L74.768,15.136 L77.264,15.088 Z M74.576,30.592 C76.6880106,30.592 78.239995,30.5760002 79.232,30.544 C81.1200094,30.4479995 82.5279954,29.8480055 83.456,28.744 C84.3840046,27.6399945 84.848,26.1600093 84.848,24.304 C84.848,22.2559898 84.2560059,20.7760046 83.072,19.864 C81.8879941,18.9519954 80.4160088,18.496 78.656,18.496 C76.8959912,18.496 75.6000042,18.5119998 74.768,18.544 L74.768,26.368 C74.768,28.0960086 74.7040006,29.5039946 74.576,30.592 Z" id="B"></path>
            <path d="M64.8115234,23.4150391 C64.6943354,23.7666033 64.506349,24.1572244 64.2475586,24.5869141 C63.9887682,25.0166037 63.6372093,25.4218731 63.1928711,25.8027344 C62.7485329,26.1835957 62.1967806,26.5009753 61.5375977,26.7548828 C60.8784147,27.0087903 60.0898483,27.1357422 59.171875,27.1357422 C58.4980435,27.1357422 57.8608428,27.0478524 57.2602539,26.8720703 C56.659665,26.6962882 56.0957058,26.45215 55.5683594,26.1396484 C54.7187458,26.6376978 53.8227586,27.0429672 52.8803711,27.3554688 C51.9379836,27.6679703 50.9541067,27.8242188 49.9287109,27.8242188 C48.9521436,27.8242188 48.1123082,27.6899427 47.4091797,27.4213867 C46.7060512,27.1528307 46.1274437,26.7988303 45.6733398,26.359375 C45.219236,25.9199197 44.8847667,25.4218778 44.6699219,24.8652344 C44.4550771,24.308591 44.3476562,23.7421904 44.3476562,23.1660156 C44.3476562,22.287105 44.518553,21.5156283 44.8603516,20.8515625 C45.2021501,20.1874967 45.6513644,19.6040064 46.2080078,19.1010742 C46.7646512,18.598142 47.4018519,18.1538105 48.1196289,17.7680664 C48.8374059,17.3823223 49.5722619,17.0234392 50.3242188,16.6914062 C50.2460934,16.2324196 50.1899416,15.7783226 50.1557617,15.3291016 C50.1215819,14.8798806 50.1044922,14.4355491 50.1044922,13.9960938 C50.1044922,13.1074174 50.2216785,12.311527 50.4560547,11.6083984 C50.6904309,10.9052699 51.0151346,10.3095728 51.4301758,9.82128906 C51.8452169,9.33300537 52.338376,8.96191533 52.909668,8.70800781 C53.4809599,8.45410029 54.0986295,8.32714844 54.7626953,8.32714844 C55.2021506,8.32714844 55.5854476,8.40283127 55.9125977,8.55419922 C56.2397477,8.70556716 56.5107411,8.90331909 56.7255859,9.14746094 C56.9404308,9.39160278 57.101562,9.66259617 57.2089844,9.96044922 C57.3164068,10.2583023 57.3701172,10.5537095 57.3701172,10.8466797 C57.3701172,11.6279336 57.208986,12.3164033 56.8867188,12.9121094 C56.5644515,13.5078155 56.1420925,14.0375953 55.6196289,14.5014648 C55.0971654,14.9653344 54.5039096,15.3779279 53.8398438,15.7392578 C53.1757779,16.1005877 52.5019565,16.4374984 51.8183594,16.75 C51.9746102,17.5898479 52.184569,18.415035 52.4482422,19.2255859 C52.7119154,20.0361369 53.0268536,20.8027308 53.3930664,21.5253906 C53.7592792,22.2480505 54.1743141,22.9145477 54.6381836,23.5249023 C55.1020531,24.135257 55.6220674,24.6552713 56.1982422,25.0849609 C56.8232453,24.6357399 57.3945287,24.1425808 57.9121094,23.6054688 C58.4296901,23.0683567 58.8740216,22.5239285 59.2451172,21.972168 C59.6162128,21.4204074 59.9018545,20.8857448 60.1020508,20.3681641 C60.3022471,19.8505833 60.4023438,19.3867208 60.4023438,18.9765625 C60.4023438,18.6738266 60.3681644,18.4199229 60.2998047,18.2148438 C60.231445,18.0097646 60.1386725,17.8437506 60.0214844,17.7167969 C59.9042963,17.5898431 59.7675789,17.4970706 59.6113281,17.4384766 C59.4550773,17.3798825 59.2890634,17.3505859 59.1132812,17.3505859 C58.9667961,17.3505859 58.8154305,17.3798825 58.6591797,17.4384766 C58.5029289,17.4970706 58.3637701,17.582519 58.2416992,17.6948242 C58.1196283,17.8071295 58.0195316,17.9487296 57.9414062,18.1196289 C57.8632809,18.2905282 57.8242188,18.4931629 57.8242188,18.7275391 C57.8242188,18.9130869 57.8754878,19.1157216 57.9780273,19.3354492 C58.0805669,19.5551769 58.2685533,19.7236322 58.5419922,19.8408203 L58.2929688,20.3242188 C58.0976553,20.2363277 57.9365241,20.1313483 57.8095703,20.0092773 C57.6826166,19.8872064 57.5800785,19.7529304 57.5019531,19.6064453 C57.4238277,19.4599602 57.367676,19.3110359 57.3334961,19.159668 C57.2993162,19.0083 57.2822266,18.8642585 57.2822266,18.7275391 C57.2822266,18.4052718 57.3481439,18.1245129 57.4799805,17.8852539 C57.6118171,17.6459949 57.777831,17.4458016 57.9780273,17.284668 C58.1782237,17.1235344 58.3955066,17.0039066 58.6298828,16.9257812 C58.864259,16.8476559 59.0839833,16.8085938 59.2890625,16.8085938 C59.8750029,16.8085938 60.3461896,16.989256 60.7026367,17.3505859 C61.0590838,17.7119159 61.2373047,18.2294888 61.2373047,18.9033203 C61.2373047,19.33301 61.1274425,19.8212863 60.9077148,20.3681641 C60.6879872,20.9150418 60.3779317,21.4814424 59.9775391,22.0673828 C59.5771464,22.6533232 59.0937528,23.2392549 58.5273438,23.8251953 C57.9609347,24.4111357 57.3359409,24.9531225 56.6523438,25.4511719 C57.1503931,25.7636734 57.6752902,26.0078116 58.2270508,26.1835938 C58.7788114,26.3593759 59.3720671,26.4472656 60.0068359,26.4472656 C60.6318391,26.4472656 61.1860327,26.3398448 61.6694336,26.125 C62.1528344,25.9101552 62.5703107,25.6416032 62.921875,25.3193359 C63.2734393,24.9970687 63.5615223,24.6479511 63.7861328,24.2719727 C64.0107433,23.8959942 64.1718745,23.5468766 64.2695312,23.2246094 L64.8115234,23.4150391 Z M50.6757812,26.9746094 C51.4668008,26.9746094 52.228512,26.8720713 52.9609375,26.6669922 C53.693363,26.461913 54.3915982,26.17383 55.0556641,25.8027344 C54.4404266,25.3535134 53.8837916,24.8188508 53.3857422,24.1987305 C52.8876928,23.5786102 52.4458027,22.9023474 52.0600586,22.1699219 C51.6743145,21.4374963 51.3471693,20.6635783 51.0786133,19.8481445 C50.8100573,19.0327108 50.597657,18.2099651 50.4414062,17.3798828 C49.7773404,17.70215 49.1743191,18.0415021 48.6323242,18.3979492 C48.0903293,18.7543963 47.6289082,19.1499002 47.2480469,19.5844727 C46.8671856,20.0190451 46.5742198,20.5048801 46.3691406,21.0419922 C46.1640615,21.5791042 46.0615234,22.1894497 46.0615234,22.8730469 C46.0615234,23.5957067 46.2006822,24.2133763 46.4790039,24.7260742 C46.7573256,25.2387721 47.1162087,25.6635725 47.5556641,26.0004883 C47.9951194,26.337404 48.4882785,26.5839836 49.0351562,26.7402344 C49.582034,26.8964852 50.1289035,26.9746094 50.6757812,26.9746094 Z M51.4667969,13.0292969 C51.4667969,13.5273462 51.4838865,14.0327123 51.5180664,14.5454102 C51.5522463,15.058108 51.6132808,15.5732396 51.7011719,16.0908203 C52.355472,15.7978501 52.9902313,15.4877946 53.6054688,15.1606445 C54.2207062,14.8334945 54.7675757,14.4672872 55.2460938,14.0620117 C55.7246118,13.6567363 56.1079087,13.2026392 56.3959961,12.699707 C56.6840835,12.1967748 56.828125,11.6279329 56.828125,10.9931641 C56.828125,10.7294909 56.7866215,10.4707044 56.7036133,10.2167969 C56.6206051,9.96288936 56.4936532,9.73339946 56.3227539,9.52832031 C56.1518546,9.32324116 55.937013,9.15966858 55.6782227,9.03759766 C55.4194323,8.91552673 55.1142596,8.85449219 54.7626953,8.85449219 C54.293943,8.85449219 53.8569356,8.96191299 53.4516602,9.17675781 C53.0463847,9.39160264 52.6972671,9.68700984 52.4042969,10.0629883 C52.1113267,10.4389667 51.8818368,10.8808568 51.7158203,11.3886719 C51.5498039,11.8964869 51.4667969,12.4433564 51.4667969,13.0292969 Z" id="&amp;"></path>
        </g>
    </g>
</svg>