<?xml version="1.0" encoding="UTF-8"?>
<svg width="393px" height="51px" viewBox="0 0 393 51" version="1.1" xmlns="http://www.w3.org/2000/svg" xmlns:xlink="http://www.w3.org/1999/xlink">
    <!-- Generator: Sketch 43.2 (39069) - http://www.bohemiancoding.com/sketch -->
    <title>logo_full</title>
    <desc>Created with Sketch.</desc>
    <defs></defs>
    <g id="Page-1" stroke="none" stroke-width="1" fill="none" fill-rule="evenodd">
        <g id="logo_full" fill="#000000">
            <path d="M4.56,12.416 C3.63199536,10.2399891 3.168,8.752004 3.168,7.952 L0.624,8.096 L0.624,4.4 L14.784,4.4 L14.784,7.568 C13.7599949,7.53599984 12.9840026,7.67199848 12.456,7.976 C11.9279974,8.28000152 11.664,8.81599616 11.664,9.584 C11.664,10.0000021 11.759999,10.5279968 11.952,11.168 L14.832,22.112 C14.8960003,22.3680013 15.0879984,23.1119938 15.408,24.344 C15.7280016,25.5760062 16.0639982,27.1039909 16.416,28.928 L16.464,28.928 L19.2,19.088 L23.664,4.4 L27.984,4.4 L33.456,22.064 C33.9040022,23.5360074 34.4799965,25.8399843 35.184,28.976 L35.232,28.976 L37.056,22.352 L39.744,12.32 C40.2560026,10.3039899 40.911996,8.84800448 41.712,7.952 L41.712,7.904 L39.216,8.048 L38.016,8.096 L38.016,4.4 L48.816,4.4 L48.816,7.568 C47.6959944,7.63200032 46.7200042,8.05599608 45.888,8.84 C45.0559958,9.62400392 44.336003,10.911991 43.728,12.704 L35.904,38.288 L31.632,38.288 L25.968,21.104 C25.4559974,19.5999925 24.9440026,17.6320122 24.432,15.2 C24.3999998,14.9119986 24.3200006,14.5120026 24.192,14 L24.144,14 C23.8239984,16.0800104 23.360003,18.1759894 22.752,20.288 L17.28,38.288 L13.104,38.288 L4.56,12.416 Z M58.848,38.768 C56.5119883,38.768 54.448009,38.2480052 52.656,37.208 C50.863991,36.1679948 49.472005,34.6880096 48.48,32.768 C47.487995,30.8479904 46.992,28.6080128 46.992,26.048 C46.992,23.8079888 47.495995,21.7040098 48.504,19.736 C49.512005,17.7679902 50.9279909,16.1920059 52.752,15.008 C54.5760091,13.8239941 56.6559883,13.232 58.992,13.232 C62.0960155,13.232 64.6799897,14.1439909 66.744,15.968 C68.8080103,17.7920091 69.8240002,20.8319787 69.792,25.088 L54.048,25.376 C54.048,28.1920141 54.5839946,30.4159918 55.656,32.048 C56.7280054,33.6800082 58.4479882,34.496 60.816,34.496 C61.9360056,34.496 63.1359936,34.2080029 64.416,33.632 C65.6960064,33.0559971 66.8479949,32.1440062 67.872,30.896 L70.032,32.912 C67.3119864,36.8160195 63.5840237,38.768 58.848,38.768 Z M63.168,22.016 C63.0719995,18.3999819 61.7600126,16.592 59.232,16.592 C57.8559931,16.592 56.7600041,17.0799951 55.944,18.056 C55.1279959,19.0320049 54.5920013,20.3519917 54.336,22.016 L63.168,22.016 Z M80.064,9.248 C78.9759946,9.248 78.0800035,8.87200376 77.376,8.12 C76.6719965,7.36799624 76.32,6.44800544 76.32,5.36 C76.32,4.27199456 76.6879963,3.33600392 77.424,2.552 C78.1600037,1.76799608 79.023995,1.376 80.016,1.376 C81.0400051,1.376 81.8959966,1.75999616 82.584,2.528 C83.2720034,3.29600384 83.616,4.2399944 83.616,5.36 C83.616,6.4800056 83.2880033,7.40799632 82.632,8.144 C81.9759967,8.88000368 81.1200053,9.248 80.064,9.248 Z M73.296,34.88 C74.5120061,34.88 75.2879983,34.5440034 75.624,33.872 C75.9600017,33.1999966 76.128,32.1120075 76.128,30.608 L76.128,22.64 C76.128,21.1359925 76.1919994,19.7440064 76.32,18.464 L72.96,18.608 L72.96,14.96 C74.9760101,14.96 76.6079938,14.8160014 77.856,14.528 C79.1040062,14.2399986 79.9359979,13.9040019 80.352,13.52 L82.944,13.52 L82.944,30.272 C82.944,31.8080077 82.8800006,33.2159936 82.752,34.496 C83.7760051,34.3999995 84.8159947,34.352 85.872,34.352 L85.872,38 L73.296,38 L73.296,34.88 Z M99.312,51.008 C95.4399806,51.008 92.6480086,50.4160059 90.936,49.232 C89.2239914,48.0479941 88.368,46.5440091 88.368,44.72 C88.368,43.5999944 88.7279964,42.5520049 89.448,41.576 C90.1680036,40.5999951 91.327992,39.808003 92.928,39.2 C91.6799938,38.8479982 90.7760028,38.3040037 90.216,37.568 C89.6559972,36.8319963 89.376,35.968005 89.376,34.976 C89.376,34.0159952 89.7519962,33.040005 90.504,32.048 C91.2560038,31.055995 92.431992,30.3200024 94.032,29.84 L94.032,29.792 C92.5919928,29.2159971 91.4480042,28.3120062 90.6,27.08 C89.7519958,25.8479938 89.328,24.3840085 89.328,22.688 C89.328,20.895991 89.831995,19.2800072 90.84,17.84 C91.848005,16.3999928 93.1759918,15.2720041 94.824,14.456 C96.4720082,13.6399959 98.2079909,13.232 100.032,13.232 C100.992005,13.232 101.999995,13.3519988 103.056,13.592 C104.112005,13.8320012 105.007996,14.2079974 105.744,14.72 C106.352003,13.0559917 107.167995,11.6720055 108.192,10.568 C109.216005,9.46399448 110.431993,8.912 111.84,8.912 C112.896005,8.912 113.711997,9.18399728 114.288,9.728 C114.864003,10.2720027 115.152,11.0239952 115.152,11.984 C115.152,12.7200037 114.920002,13.391997 114.456,14 C113.991998,14.608003 113.264005,14.912 112.272,14.912 C111.759997,14.912 111.256002,14.7280018 110.76,14.36 C110.263998,13.9919982 109.968,13.5520026 109.872,13.04 C109.455998,13.1680006 109.040002,13.5759966 108.624,14.264 C108.207998,14.9520034 107.968,15.5839971 107.904,16.16 C108.800004,16.960004 109.495998,17.8879947 109.992,18.944 C110.488002,20.0000053 110.736,21.1359939 110.736,22.352 C110.736,24.144009 110.224005,25.7679927 109.2,27.224 C108.175995,28.6800073 106.832008,29.8159959 105.168,30.632 C103.503992,31.4480041 101.728009,31.856 99.84,31.856 L98.496,31.808 C97.7919965,31.7439997 97.2800016,31.712 96.96,31.712 C96.2559965,31.712 95.6640024,31.8399987 95.184,32.096 C94.7039976,32.3520013 94.464,32.7039978 94.464,33.152 C94.464,33.7280029 94.9039956,34.1359988 95.784,34.376 C96.6640044,34.6160012 98.2719883,34.7999994 100.608,34.928 C104.64002,35.1520011 107.69599,35.8239944 109.776,36.944 C111.85601,38.0640056 112.896,39.9359869 112.896,42.56 C112.896,44.2880086 112.232007,45.7919936 110.904,47.072 C109.575993,48.3520064 107.86401,49.3279966 105.768,50 C103.67199,50.6720034 101.520011,51.008 99.312,51.008 Z M100.032,28.64 C101.248006,28.64 102.215996,28.0960054 102.936,27.008 C103.656004,25.9199946 104.016,24.6560072 104.016,23.216 C104.016,21.3919909 103.664004,19.8080067 102.96,18.464 C102.255996,17.1199933 101.264006,16.448 99.984,16.448 C98.7679939,16.448 97.7920037,17.0079944 97.056,18.128 C96.3199963,19.2480056 95.952,20.5759923 95.952,22.112 C95.952,23.904009 96.3199963,25.4399936 97.056,26.72 C97.7920037,28.0000064 98.7839938,28.64 100.032,28.64 Z M100.704,47.696 C102.144007,47.696 103.383995,47.5040019 104.424,47.12 C105.464005,46.7359981 106.255997,46.248003 106.8,45.656 C107.344003,45.063997 107.616,44.464003 107.616,43.856 C107.616,42.863995 107.048006,42.1120026 105.912,41.6 C104.775994,41.0879974 103.040012,40.7840005 100.704,40.688 C100.447999,40.6559998 100.032003,40.64 99.456,40.64 C99.1359984,40.6079998 98.576004,40.5680002 97.776,40.52 C96.975996,40.4719998 96.3200026,40.4000005 95.808,40.304 C95.3279976,40.6880019 94.9520014,41.183997 94.68,41.792 C94.4079986,42.400003 94.272,43.007997 94.272,43.616 C94.272,44.8640062 94.8559942,45.8559963 96.024,46.592 C97.1920058,47.3280037 98.7519902,47.696 100.704,47.696 Z M114.672,34.88 C115.536004,34.88 116.167998,34.7120017 116.568,34.376 C116.968002,34.0399983 117.223999,33.5840029 117.336,33.008 C117.448001,32.4319971 117.504,31.6320051 117.504,30.608 L117.504,10.88 C117.504,9.34399232 117.567999,7.95200624 117.696,6.704 L114.336,6.848 L114.336,3.2 C116.35201,3.2 117.983994,3.05600144 119.232,2.768 C120.480006,2.47999856 121.311998,2.14400192 121.728,1.76 L124.32,1.76 L124.32,15.92 C125.248005,15.1839963 126.399993,14.5520026 127.776,14.024 C129.152007,13.4959974 130.335995,13.232 131.328,13.232 C134.208014,13.232 136.271994,14.0639917 137.52,15.728 C138.768006,17.3920083 139.408,20.0959813 139.44,23.84 L139.44,30.272 C139.44,31.8080077 139.376001,33.2159936 139.248,34.496 C140.272005,34.3999995 141.311995,34.352 142.368,34.352 L142.368,38 L129.744,38 L129.744,34.88 C130.960006,34.88 131.743998,34.5440034 132.096,33.872 C132.448002,33.1999966 132.624,32.1120075 132.624,30.608 L132.576,23.792 C132.576,21.6799894 132.264003,20.128005 131.64,19.136 C131.015997,18.143995 130.032007,17.648 128.688,17.648 C127.919996,17.648 127.136004,17.8159983 126.336,18.152 C125.535996,18.4880017 124.864003,18.9119974 124.32,19.424 L124.32,30.272 C124.32,31.8080077 124.256001,33.2159936 124.128,34.496 C125.184005,34.3999995 126.223995,34.352 127.248,34.352 L127.248,38 L114.672,38 L114.672,34.88 Z M154.464,38.768 C149.471975,38.768 146.976,35.6960307 146.976,29.552 L147.072,17.984 L143.808,17.984 L143.808,14 C144.832005,14 145.799995,13.6800032 146.712,13.04 C147.624005,12.3999968 148.399997,11.6160046 149.04,10.688 C149.680003,9.75999536 150.127999,8.86400432 150.384,8 L153.936,8 L153.888,14 L159.984,14 L159.984,17.696 L153.888,17.84 L153.84,29.648 C153.84,32.7520155 154.79999,34.304 156.72,34.304 C158.256008,34.304 159.711993,33.3440096 161.088,31.424 L163.392,33.584 C161.887992,35.792011 160.384008,37.2079969 158.88,37.832 C157.375992,38.4560031 155.904007,38.768 154.464,38.768 Z M175.824,38.768 C174.447993,38.768 173.104007,38.5920018 171.792,38.24 C170.479993,37.8879982 169.456004,37.4400027 168.72,36.896 L168.672,36.896 L168.816,38.336 L165.168,38.336 L164.976,30.08 L168.096,30.08 C168.256001,31.5520074 169.031993,32.791995 170.424,33.8 C171.816007,34.808005 173.51999,35.312 175.536,35.312 C176.432004,35.312 177.207997,35.1040021 177.864,34.688 C178.520003,34.2719979 178.848,33.6800038 178.848,32.912 C178.848,32.3359971 178.640002,31.8560019 178.224,31.472 C177.807998,31.0879981 177.312003,30.7680013 176.736,30.512 C176.159997,30.2559987 175.008009,29.7920034 173.28,29.12 C171.23199,28.319996 169.696005,27.6640026 168.672,27.152 C167.647995,26.6399974 166.728004,25.880005 165.912,24.872 C165.095996,23.863995 164.688,22.560008 164.688,20.96 C164.688,19.6479934 165.015997,18.4080058 165.672,17.24 C166.328003,16.0719942 167.335993,15.1120038 168.696,14.36 C170.056007,13.6079962 171.72799,13.232 173.712,13.232 C174.640005,13.232 175.647995,13.3759986 176.736,13.664 C177.824005,13.9520014 178.735996,14.3519974 179.472,14.864 L179.52,14.864 L179.472,13.472 L183.12,13.472 L183.12,21.968 L180,21.968 C179.711999,20.3039917 178.976006,18.9920048 177.792,18.032 C176.607994,17.0719952 175.152009,16.592 173.424,16.592 C172.527996,16.592 171.776003,16.7999979 171.168,17.216 C170.559997,17.6320021 170.256,18.2719957 170.256,19.136 C170.256,20.0320045 170.607996,20.6959978 171.312,21.128 C172.016004,21.5600022 173.199992,22.0479973 174.864,22.592 C175.056001,22.6240002 175.471997,22.7519989 176.112,22.976 C178.832014,23.9360048 180.919993,25.0559936 182.376,26.336 C183.832007,27.6160064 184.56,29.2959896 184.56,31.376 C184.56,32.976008 184.152004,34.3279945 183.336,35.432 C182.519996,36.5360055 181.448007,37.3679972 180.12,37.928 C178.791993,38.4880028 177.360008,38.768 175.824,38.768 Z M251.616,34.832 C252.480004,34.7999998 253.135998,34.6960009 253.584,34.52 C254.032002,34.3439991 254.383999,33.9680029 254.64,33.392 C254.896001,32.8159971 255.024,31.9040062 255.024,30.656 L255.024,12.272 C255.024,10.479991 255.087999,9.04000544 255.216,7.952 L251.616,8.096 L251.616,4.4 L264.912,4.304 C268.752019,4.27199984 271.759989,4.95999296 273.936,6.368 C276.112011,7.77600704 277.2,9.8399864 277.2,12.56 C277.2,14.1280078 276.616006,15.5759934 275.448,16.904 C274.279994,18.2320066 272.560011,19.199997 270.288,19.808 L270.288,19.856 C273.360015,20.3360024 275.679992,21.3599922 277.248,22.928 C278.816008,24.4960078 279.6,26.3359894 279.6,28.448 C279.6,31.4880152 278.520011,33.8399917 276.36,35.504 C274.199989,37.1680083 271.392017,38 267.936,38 L251.616,38 L251.616,34.832 Z M264.48,19.088 C266.368009,19.0559998 267.735996,18.4560058 268.584,17.288 C269.432004,16.1199942 269.856,14.5760096 269.856,12.656 C269.856,10.9279914 269.376005,9.664004 268.416,8.864 C267.455995,8.063996 266.288007,7.664 264.912,7.664 C264.239997,7.664 263.704002,7.7439992 263.304,7.904 C262.903998,8.0640008 262.584001,8.43999704 262.344,9.032 C262.103999,9.62400296 261.984,10.5119941 261.984,11.696 L261.984,19.136 L264.48,19.088 Z M261.792,34.592 C263.904011,34.592 265.455995,34.5760002 266.448,34.544 C268.336009,34.4479995 269.743995,33.8480055 270.672,32.744 C271.600005,31.6399945 272.064,30.1600093 272.064,28.304 C272.064,26.2559898 271.472006,24.7760046 270.288,23.864 C269.103994,22.9519954 267.632009,22.496 265.872,22.496 C264.111991,22.496 262.816004,22.5119998 261.984,22.544 L261.984,30.368 C261.984,32.0960086 261.920001,33.5039946 261.792,34.592 Z M289.104,9.248 C288.015995,9.248 287.120004,8.87200376 286.416,8.12 C285.711996,7.36799624 285.36,6.44800544 285.36,5.36 C285.36,4.27199456 285.727996,3.33600392 286.464,2.552 C287.200004,1.76799608 288.063995,1.376 289.056,1.376 C290.080005,1.376 290.935997,1.75999616 291.624,2.528 C292.312003,3.29600384 292.656,4.2399944 292.656,5.36 C292.656,6.4800056 292.328003,7.40799632 291.672,8.144 C291.015997,8.88000368 290.160005,9.248 289.104,9.248 Z M282.336,34.88 C283.552006,34.88 284.327998,34.5440034 284.664,33.872 C285.000002,33.1999966 285.168,32.1120075 285.168,30.608 L285.168,22.64 C285.168,21.1359925 285.231999,19.7440064 285.36,18.464 L282,18.608 L282,14.96 C284.01601,14.96 285.647994,14.8160014 286.896,14.528 C288.144006,14.2399986 288.975998,13.9040019 289.392,13.52 L291.984,13.52 L291.984,30.272 C291.984,31.8080077 291.920001,33.2159936 291.792,34.496 C292.816005,34.3999995 293.855995,34.352 294.912,34.352 L294.912,38 L282.336,38 L282.336,34.88 Z M304.032,38.768 C302.01599,38.768 300.424006,38.168006 299.256,36.968 C298.087994,35.767994 297.504,34.2400093 297.504,32.384 C297.504,29.5679859 298.815987,27.4320073 301.44,25.976 C304.064013,24.5199927 307.215982,23.7120008 310.896,23.552 L310.896,21.056 C310.896,18.1439854 309.808011,16.688 307.632,16.688 C306.223993,16.688 305.072004,17.1359955 304.176,18.032 C304.560002,18.4800022 304.752,19.0879962 304.752,19.856 C304.752,20.6240038 304.488003,21.311997 303.96,21.92 C303.431997,22.528003 302.656005,22.832 301.632,22.832 C300.671995,22.832 299.920003,22.5200031 299.376,21.896 C298.831997,21.2719969 298.56,20.4960046 298.56,19.568 C298.56,18.3199938 299.007996,17.2160048 299.904,16.256 C300.800004,15.2959952 302.023992,14.5520026 303.576,14.024 C305.128008,13.4959974 306.831991,13.232 308.688,13.232 C314.60803,13.232 317.568,16.2879694 317.568,22.4 L317.52,30.272 C317.52,31.8080077 317.456001,33.2159936 317.328,34.496 C318.384005,34.3999995 319.423995,34.352 320.448,34.352 L320.448,38 L311.376,38 C311.312,37.5839979 311.248,36.8480053 311.184,35.792 L311.136,35.792 C309.18399,37.7760099 306.816014,38.768 304.032,38.768 Z M307.056,34.064 C308.496007,34.064 309.759995,33.4880058 310.848,32.336 L310.848,26.96 C308.959991,27.152001 307.400006,27.6319962 306.168,28.4 C304.935994,29.1680038 304.32,30.2079934 304.32,31.52 C304.32,32.3840043 304.583997,33.0239979 305.112,33.44 C305.640003,33.8560021 306.287996,34.064 307.056,34.064 Z M334.224,38.768 C332.847993,38.768 331.504007,38.5920018 330.192,38.24 C328.879993,37.8879982 327.856004,37.4400027 327.12,36.896 L327.072,36.896 L327.216,38.336 L323.568,38.336 L323.376,30.08 L326.496,30.08 C326.656001,31.5520074 327.431993,32.791995 328.824,33.8 C330.216007,34.808005 331.91999,35.312 333.936,35.312 C334.832004,35.312 335.607997,35.1040021 336.264,34.688 C336.920003,34.2719979 337.248,33.6800038 337.248,32.912 C337.248,32.3359971 337.040002,31.8560019 336.624,31.472 C336.207998,31.0879981 335.712003,30.7680013 335.136,30.512 C334.559997,30.2559987 333.408009,29.7920034 331.68,29.12 C329.63199,28.319996 328.096005,27.6640026 327.072,27.152 C326.047995,26.6399974 325.128004,25.880005 324.312,24.872 C323.495996,23.863995 323.088,22.560008 323.088,20.96 C323.088,19.6479934 323.415997,18.4080058 324.072,17.24 C324.728003,16.0719942 325.735993,15.1120038 327.096,14.36 C328.456007,13.6079962 330.12799,13.232 332.112,13.232 C333.040005,13.232 334.047995,13.3759986 335.136,13.664 C336.224005,13.9520014 337.135996,14.3519974 337.872,14.864 L337.92,14.864 L337.872,13.472 L341.52,13.472 L341.52,21.968 L338.4,21.968 C338.111999,20.3039917 337.376006,18.9920048 336.192,18.032 C335.007994,17.0719952 333.552009,16.592 331.824,16.592 C330.927996,16.592 330.176003,16.7999979 329.568,17.216 C328.959997,17.6320021 328.656,18.2719957 328.656,19.136 C328.656,20.0320045 329.007996,20.6959978 329.712,21.128 C330.416004,21.5600022 331.599992,22.0479973 333.264,22.592 C333.456001,22.6240002 333.871997,22.7519989 334.512,22.976 C337.232014,23.9360048 339.319993,25.0559936 340.776,26.336 C342.232007,27.6160064 342.96,29.2959896 342.96,31.376 C342.96,32.976008 342.552004,34.3279945 341.736,35.432 C340.919996,36.5360055 339.848007,37.3679972 338.52,37.928 C337.191993,38.4880028 335.760008,38.768 334.224,38.768 Z M357.84,38.768 C355.503988,38.768 353.440009,38.2480052 351.648,37.208 C349.855991,36.1679948 348.464005,34.6880096 347.472,32.768 C346.479995,30.8479904 345.984,28.6080128 345.984,26.048 C345.984,23.8079888 346.487995,21.7040098 347.496,19.736 C348.504005,17.7679902 349.919991,16.1920059 351.744,15.008 C353.568009,13.8239941 355.647988,13.232 357.984,13.232 C361.088016,13.232 363.67199,14.1439909 365.736,15.968 C367.80001,17.7920091 368.816,20.8319787 368.784,25.088 L353.04,25.376 C353.04,28.1920141 353.575995,30.4159918 354.648,32.048 C355.720005,33.6800082 357.439988,34.496 359.808,34.496 C360.928006,34.496 362.127994,34.2080029 363.408,33.632 C364.688006,33.0559971 365.839995,32.1440062 366.864,30.896 L369.024,32.912 C366.303986,36.8160195 362.576024,38.768 357.84,38.768 Z M362.16,22.016 C362.064,18.3999819 360.752013,16.592 358.224,16.592 C356.847993,16.592 355.752004,17.0799951 354.936,18.056 C354.119996,19.0320049 353.584001,20.3519917 353.328,22.016 L362.16,22.016 Z M383.328,38.768 C381.951993,38.768 380.608007,38.5920018 379.296,38.24 C377.983993,37.8879982 376.960004,37.4400027 376.224,36.896 L376.176,36.896 L376.32,38.336 L372.672,38.336 L372.48,30.08 L375.6,30.08 C375.760001,31.5520074 376.535993,32.791995 377.928,33.8 C379.320007,34.808005 381.02399,35.312 383.04,35.312 C383.936004,35.312 384.711997,35.1040021 385.368,34.688 C386.024003,34.2719979 386.352,33.6800038 386.352,32.912 C386.352,32.3359971 386.144002,31.8560019 385.728,31.472 C385.311998,31.0879981 384.816003,30.7680013 384.24,30.512 C383.663997,30.2559987 382.512009,29.7920034 380.784,29.12 C378.73599,28.319996 377.200005,27.6640026 376.176,27.152 C375.151995,26.6399974 374.232004,25.880005 373.416,24.872 C372.599996,23.863995 372.192,22.560008 372.192,20.96 C372.192,19.6479934 372.519997,18.4080058 373.176,17.24 C373.832003,16.0719942 374.839993,15.1120038 376.2,14.36 C377.560007,13.6079962 379.23199,13.232 381.216,13.232 C382.144005,13.232 383.151995,13.3759986 384.24,13.664 C385.328005,13.9520014 386.239996,14.3519974 386.976,14.864 L387.024,14.864 L386.976,13.472 L390.624,13.472 L390.624,21.968 L387.504,21.968 C387.215999,20.3039917 386.480006,18.9920048 385.296,18.032 C384.111994,17.0719952 382.656009,16.592 380.928,16.592 C380.031996,16.592 379.280003,16.7999979 378.672,17.216 C378.063997,17.6320021 377.76,18.2719957 377.76,19.136 C377.76,20.0320045 378.111996,20.6959978 378.816,21.128 C379.520004,21.5600022 380.703992,22.0479973 382.368,22.592 C382.560001,22.6240002 382.975997,22.7519989 383.616,22.976 C386.336014,23.9360048 388.423993,25.0559936 389.88,26.336 C391.336007,27.6160064 392.064,29.2959896 392.064,31.376 C392.064,32.976008 391.656004,34.3279945 390.84,35.432 C390.023996,36.5360055 388.952007,37.3679972 387.624,37.928 C386.295993,38.4880028 384.864008,38.768 383.328,38.768 Z" id="Weights-Biases"></path>
            <path d="M242.439453,34.6074219 C242.173827,35.4043009 241.747724,36.2897087 241.161133,37.2636719 C240.574541,38.2376351 239.777674,39.1562457 238.770508,40.0195312 C237.763341,40.8828168 236.512703,41.6022107 235.018555,42.1777344 C233.524407,42.7532581 231.73699,43.0410156 229.65625,43.0410156 C228.128899,43.0410156 226.684577,42.8417989 225.323242,42.4433594 C223.961907,42.0449199 222.6836,41.49154 221.488281,40.7832031 C219.56249,41.912115 217.531586,42.8307256 215.395508,43.5390625 C213.259429,44.2473994 211.029308,44.6015625 208.705078,44.6015625 C206.491525,44.6015625 204.587899,44.2972036 202.994141,43.6884766 C201.400383,43.0797496 200.088872,42.2773487 199.05957,41.28125 C198.030268,40.2851513 197.272138,39.1562563 196.785156,37.8945312 C196.298175,36.6328062 196.054688,35.3489649 196.054688,34.0429688 C196.054688,32.0507713 196.442053,30.3020909 197.216797,28.796875 C197.99154,27.2916591 199.009759,25.9690812 200.271484,24.8291016 C201.533209,23.6891219 202.977531,22.6819705 204.604492,21.8076172 C206.231453,20.9332639 207.897127,20.1197954 209.601562,19.3671875 C209.424478,18.3268177 209.297201,17.2975311 209.219727,16.2792969 C209.142252,15.2610626 209.103516,14.2539112 209.103516,13.2578125 C209.103516,11.2434795 209.369138,9.43946109 209.900391,7.84570312 C210.431643,6.25194516 211.167639,4.90169824 212.108398,3.79492187 C213.049158,2.68814551 214.166986,1.84700809 215.461914,1.27148438 C216.756842,0.695960664 218.156894,0.408203125 219.662109,0.408203125 C220.658208,0.408203125 221.527015,0.579750889 222.268555,0.922851562 C223.010095,1.26595224 223.624347,1.71418994 224.111328,2.26757812 C224.59831,2.82096631 224.96354,3.43521798 225.207031,4.11035156 C225.450522,4.78548515 225.572266,5.4550748 225.572266,6.11914062 C225.572266,7.88998281 225.207035,9.45051408 224.476562,10.8007812 C223.74609,12.1510484 222.788743,13.3518828 221.604492,14.4033203 C220.420241,15.4547579 219.075528,16.3899699 217.570312,17.2089844 C216.065097,18.0279989 214.537768,18.7916631 212.988281,19.5 C213.34245,21.4036554 213.818356,23.2740794 214.416016,25.1113281 C215.013675,26.9485769 215.727535,28.6861897 216.557617,30.3242188 C217.387699,31.9622478 218.328445,33.4729749 219.379883,34.8564453 C220.43132,36.2399158 221.61002,37.4186149 222.916016,38.3925781 C224.332689,37.3743439 225.627598,36.2565165 226.800781,35.0390625 C227.973964,33.8216085 228.981116,32.5875714 229.822266,31.3369141 C230.663416,30.0862568 231.31087,28.8743548 231.764648,27.7011719 C232.218427,26.5279889 232.445312,25.4765671 232.445312,24.546875 C232.445312,23.8606737 232.367839,23.2851586 232.212891,22.8203125 C232.057942,22.3554664 231.847658,21.9791681 231.582031,21.6914062 C231.316405,21.4036444 231.006512,21.19336 230.652344,21.0605469 C230.298175,20.9277337 229.921877,20.8613281 229.523438,20.8613281 C229.191405,20.8613281 228.848309,20.9277337 228.494141,21.0605469 C228.139972,21.19336 227.824546,21.387043 227.547852,21.6416016 C227.271157,21.8961601 227.044272,22.2171205 226.867188,22.6044922 C226.690103,22.9918639 226.601562,23.4511692 226.601562,23.9824219 C226.601562,24.4029969 226.717772,24.8623022 226.950195,25.3603516 C227.182618,25.8584009 227.608721,26.240233 228.228516,26.5058594 L227.664062,27.6015625 C227.221352,27.4023428 226.856121,27.1643894 226.568359,26.8876953 C226.280598,26.6110012 226.048178,26.3066423 225.871094,25.9746094 C225.69401,25.6425765 225.566732,25.3050147 225.489258,24.9619141 C225.411783,24.6188134 225.373047,24.2923193 225.373047,23.9824219 C225.373047,23.2519495 225.522459,22.6155626 225.821289,22.0732422 C226.120119,21.5309218 226.496417,21.0771503 226.950195,20.7119141 C227.403974,20.3466779 227.896482,20.0755217 228.427734,19.8984375 C228.958987,19.7213533 229.457029,19.6328125 229.921875,19.6328125 C231.250007,19.6328125 232.31803,20.0423136 233.125977,20.8613281 C233.933923,21.6803426 234.337891,22.853508 234.337891,24.3808594 C234.337891,25.3548226 234.08887,26.4615823 233.59082,27.7011719 C233.092771,28.9407614 232.389978,30.2246027 231.482422,31.5527344 C230.574865,32.880866 229.479173,34.2089777 228.195312,35.5371094 C226.911452,36.865241 225.494799,38.0937444 223.945312,39.2226562 C225.074224,39.9309931 226.263991,40.484373 227.514648,40.8828125 C228.765306,41.281252 230.110019,41.4804688 231.548828,41.4804688 C232.965502,41.4804688 234.221674,41.2369816 235.317383,40.75 C236.413091,40.2630184 237.359371,39.6543005 238.15625,38.9238281 C238.953129,38.1933557 239.606117,37.4020225 240.115234,36.5498047 C240.624352,35.6975869 240.989582,34.9062537 241.210938,34.1757812 L242.439453,34.6074219 Z M210.398438,42.6757812 C212.191415,42.6757812 213.91796,42.4433617 215.578125,41.9785156 C217.23829,41.5136696 218.820956,40.8606813 220.326172,40.0195312 C218.931634,39.001297 217.669928,37.789395 216.541016,36.3837891 C215.412104,34.9781831 214.410486,33.4453208 213.536133,31.7851562 C212.661779,30.1249917 211.92025,28.3707775 211.311523,26.5224609 C210.702796,24.6741444 210.221356,22.8092542 209.867188,20.9277344 C208.361972,21.6582068 206.995123,22.4274048 205.766602,23.2353516 C204.53808,24.0432983 203.492192,24.9397737 202.628906,25.9248047 C201.765621,26.9098357 201.101565,28.0110616 200.636719,29.2285156 C200.171873,30.4459696 199.939453,31.8294193 199.939453,33.3789062 C199.939453,35.0169353 200.25488,36.4169864 200.885742,37.5791016 C201.516605,38.7412167 202.330073,39.7040977 203.326172,40.4677734 C204.322271,41.2314491 205.440098,41.7903628 206.679688,42.1445312 C207.919277,42.4986997 209.158848,42.6757812 210.398438,42.6757812 Z M212.191406,11.0664062 C212.191406,12.1953181 212.230143,13.3408145 212.307617,14.5029297 C212.385092,15.6650449 212.523437,16.8326764 212.722656,18.0058594 C214.205737,17.3417936 215.644524,16.6390011 217.039062,15.8974609 C218.433601,15.1559208 219.673172,14.3258509 220.757812,13.4072266 C221.842453,12.4886022 222.71126,11.4593156 223.364258,10.3193359 C224.017256,9.17935628 224.34375,7.88998115 224.34375,6.45117188 C224.34375,5.85351264 224.249675,5.26692996 224.061523,4.69140625 C223.873371,4.11588254 223.585614,3.59570545 223.198242,3.13085938 C222.81087,2.6660133 222.323896,2.29524878 221.737305,2.01855469 C221.150713,1.7418606 220.458988,1.60351562 219.662109,1.60351562 C218.599604,1.60351562 217.609054,1.84700277 216.69043,2.33398438 C215.771805,2.82096598 214.980472,3.49055563 214.316406,4.34277344 C213.65234,5.19499124 213.132163,6.19660883 212.755859,7.34765625 C212.379555,8.49870367 212.191406,9.73827461 212.191406,11.0664062 Z" id="&amp;"></path>
        </g>
    </g>
</svg>