<svg id="Layer_1" data-name="Layer 1" xmlns="http://www.w3.org/2000/svg" viewBox="0 0 744.69 132.69"><defs><style>.cls-1{fill:#5f6369;}.cls-2{fill:#f9c20a;}</style></defs><title>WandB-RGB-Brandmark-Artboard 5</title><path class="cls-1" d="M227.88,47.4c-3.68,0-5.12.58-6.12,4L210.45,89.82H201l-7.56-24.77h-.14L185,89.82h-9.58L163.56,49.56c-.43-1.44-1.29-2.16-5.18-2.16V42.07h20.81V47.4h-3c-1.59,0-2.24.94-2.24,1.88a12.14,12.14,0,0,0,.65,2.59l7,25.93h.14l8.36-24.35-1.23-3.38a3.44,3.44,0,0,0-3.6-2.67h-2.38V42.07H204.4V47.4h-3.17c-1.58,0-2.66.51-2.66,1.44a10.56,10.56,0,0,0,.57,2.45l7.71,26H207l7.2-25.49a8.11,8.11,0,0,0,.44-2.38c0-1.3-.87-2-3.39-2h-3.17V42.07h19.81Z"/><path class="cls-1" d="M232.26,73.84c-.21,5.61,1.52,11.66,8.21,11.66,5.19,0,7.78-2.66,8.72-7.63h6c-.94,8.21-5.91,13-15.49,13-11.16,0-17.07-6.26-17.07-17.93,0-10.51,6.77-17.93,16.71-17.93,11.81,0,16.78,10.58,16,18.8Zm13.4-4.76c.07-4.54-1.37-9-6.48-9-4.9,0-6.7,4.46-6.92,9Z"/><path class="cls-1" d="M256.5,89.82V85.07h3.31c2,0,2.88-.79,2.88-2.88V63.75c0-2.09-.86-2.88-2.88-2.88H256.5V56.12h14.69V82.19c0,2.09.86,2.88,2.88,2.88h3.53v4.75ZM266,41.21a5.19,5.19,0,1,1-5.18,5.18A5.21,5.21,0,0,1,266,41.21Z"/><path class="cls-1" d="M306.84,84.49c7.85,0,11.81,3.32,11.81,9.51,0,4.75-2.6,11.09-20.24,11.09-14.84,0-18.51-3.74-18.51-8,0-4,3.75-5.55,7.2-5.91v-.14c-3.89-.72-6.05-2.16-6.05-6.56a6.8,6.8,0,0,1,6.63-6.84v-.14c-3.89-2-5.4-5.4-5.4-9.73C282.28,59,290.05,55,298,55c4.75,0,9.5,1.44,12.24,3.53A9,9,0,0,1,317.71,55,7,7,0,0,1,325,62.09c0,3-1.45,5.12-4.61,5.12-2.38,0-4.4-1.23-4.4-3.82a4,4,0,0,1,3.32-4.18c.14-.28-.36-1.08-2.45-1.08S313.1,59.72,312,61.3c1.3,2.38,2,4.11,2,6.48C314,77,306.12,80.39,298,80.39a22.23,22.23,0,0,1-7.64-1.23,3.22,3.22,0,0,0-1.94,2.74c0,1.3,1.15,2.59,6.12,2.59Zm-12,7.28c-5,0-7.56,1.94-7.56,4.82,0,2.6,2.8,4.47,10.94,4.47,7.85,0,12.1-1.51,12.1-5.11a4.23,4.23,0,0,0-4.53-4.18Zm3.31-15.41c4.18,0,6.27-2.89,6.27-8.29,0-6.12-2.09-9-6.27-9s-6.19,2.88-6.19,8.64S294,76.36,298.12,76.36Z"/><path class="cls-1" d="M338.23,61.81h.15c2.95-3.89,6.91-6.77,12.53-6.77,6.34,0,10.23,4,10.23,10.08V82.19c0,2.09.86,2.88,2.88,2.88h4v4.75H347V85.07h2.74c2,0,2.88-.79,2.88-2.88V65.7c0-3.68-2.52-5.05-6.34-5.05s-8.07,4-8.07,10.3V82.19c0,2.09.87,2.88,2.88,2.88h2.81v4.75H322.75V85.07h4.1c2,0,2.88-.79,2.88-2.88V49.71c0-2.09-.86-2.88-2.88-2.88h-4.1V42.07h15.48Z"/><path class="cls-1" d="M365,60.87V56.33c7.35-.5,9.22-7,9.87-13.61h4.46v13.4h9.51v4.75h-9.29V82.12c0,1.44.79,2.37,2.73,2.37,2.24,0,3.1-1.22,3.1-4.1V74h4.75v6c0,7.56-4.17,10.87-9.86,10.87-5.4,0-9.22-2.23-9.22-8v-22Z"/><path class="cls-1" d="M399.44,76.64a11.49,11.49,0,0,0,4.25,7.06,12.74,12.74,0,0,0,7.92,2.38c2.53,0,5.62-1.37,5.62-4.32,0-7.06-22.68-3-22.68-15.92,0-7.13,6.84-10.8,13.17-10.8a19.18,19.18,0,0,1,10.59,3.53l1.44-2.45h4v12H419a11.51,11.51,0,0,0-3.89-5.9,10.52,10.52,0,0,0-6.77-2c-2.37,0-5.47,1-5.47,3.89,0,5.62,22.69,3,22.69,16.13,0,7.57-6.41,10.66-13.18,10.66-4.33,0-8.65-.72-12-3.67l-1.44,2.59h-4.76V76.64Z"/><path class="cls-1" d="M467.21,60.15h23.05v5.33h-1.59c-4.18,0-5.83.79-7.13,2.66l-9.29,13.11a6.4,6.4,0,0,0,5.4,2.74c6,0,7.2-5.76,7.2-10.44h5.48c0,10-2.23,17.71-14,17.71a18.24,18.24,0,0,1-11.31-3.74,27.25,27.25,0,0,1-13.47,3.74c-11.67,0-16.56-6.77-16.56-14.11,0-7.64,2.3-10.37,12.24-15.7-1.3-1.66-2.09-5.48-2.09-8.21,0-7.64,5-12.61,12.82-12.61,5.62,0,10.23,3.89,10.23,9.65s-4.54,10-9.29,12.75c1.44,3.46,6.7,11.09,9.43,13.54,1.66-1.65,5.4-6.41,5.4-8.5,0-1.73-.86-2.59-3.67-2.59h-2.88ZM453.45,84.49a13.48,13.48,0,0,0,7.06-1.65A110.64,110.64,0,0,1,450,67.21c-2.74,1.8-4.9,4-4.9,7.92C445.1,80.32,448.56,84.49,453.45,84.49Zm8.29-33.92c0-2.73-1.66-4.32-4.4-4.32s-4.46,1.94-4.46,4.75c0,2.38,1.44,4.76,2.66,6.7C458.5,56.55,461.74,54,461.74,50.57Z"/><path class="cls-1" d="M497.16,84.49h5.12c2.23,0,3-.72,3-2.59V50c0-1.88-.72-2.6-3-2.6h-5.12V42.07h26.72c14.12,0,18.66,4.4,18.66,11.81,0,6.34-4.25,9.58-10.09,10.52v.14c6,1.3,11.74,3.82,11.74,12,0,7.78-4.18,13.25-16.13,13.25h-30.9Zm18.15-22.11h6.92c5.69,0,10.22-1,10.22-7.34,0-6.63-4.53-7.64-10.22-7.64h-6.92Zm0,22.11h8.07c5.76,0,10.73-1.08,10.73-8.35s-5-8.43-10.73-8.43h-8.07Z"/><path class="cls-1" d="M546.61,89.82V85.07h3.31c2,0,2.88-.79,2.88-2.88V63.75c0-2.09-.86-2.88-2.88-2.88h-3.31V56.12H561.3V82.19c0,2.09.86,2.88,2.88,2.88h3.53v4.75Zm9.5-48.61a5.19,5.19,0,1,1-5.18,5.18A5.21,5.21,0,0,1,556.11,41.21Z"/><path class="cls-1" d="M607.84,77.29v2.16c0,8.07-3.24,11.45-9.29,11.45-3.6,0-6.7-1.51-7.27-5.33-2.67,4-7.28,5.33-11.81,5.33-5.62,0-10-2.66-10-9.14,0-14,21.6-7.21,21.6-17.36,0-4.61-3.89-5.47-7.7-5.47-2,0-5.41.64-6.7,2.37,2.66-.36,4.75.79,4.75,3.75,0,3.24-2.23,4.25-5,4.25A5.11,5.11,0,0,1,571.18,64c0-7.35,8.79-8.93,14.48-8.93,9.72,0,13.9,4.39,13.9,10.44V83.13c0,1.58.65,2.37,1.73,2.37s1.94-1,1.94-5.47V77.29ZM591.06,72l-7.63,3.46c-2.09.94-4.32,2.09-4.32,5.48,0,3,1.36,4.53,4.32,4.53,4.9,0,7.63-4.17,7.63-8.78Z"/><path class="cls-1" d="M614.47,76.64a11.49,11.49,0,0,0,4.25,7.06,12.72,12.72,0,0,0,7.92,2.38c2.52,0,5.62-1.37,5.62-4.32,0-7.06-22.69-3-22.69-15.92,0-7.13,6.84-10.8,13.18-10.8a19.23,19.23,0,0,1,10.59,3.53l1.44-2.45h4v12h-4.69a11.56,11.56,0,0,0-3.88-5.9,10.52,10.52,0,0,0-6.77-2c-2.38,0-5.48,1-5.48,3.89,0,5.62,22.69,3,22.69,16.13,0,7.57-6.41,10.66-13.18,10.66-4.32,0-8.64-.72-12-3.67L614,89.82h-4.75V76.64Z"/><path class="cls-1" d="M653.5,73.84c-.22,5.61,1.51,11.66,8.21,11.66,5.18,0,7.78-2.66,8.71-7.63h6c-.94,8.21-5.91,13-15.48,13-11.17,0-17.07-6.26-17.07-17.93,0-10.51,6.77-17.93,16.7-17.93,11.82,0,16.79,10.58,16,18.8Zm13.39-4.76c.08-4.54-1.37-9-6.48-9-4.9,0-6.7,4.46-6.91,9Z"/><path class="cls-1" d="M685.05,76.64a11.49,11.49,0,0,0,4.25,7.06,12.76,12.76,0,0,0,7.92,2.38c2.53,0,5.62-1.37,5.62-4.32,0-7.06-22.68-3-22.68-15.92,0-7.13,6.84-10.8,13.18-10.8a19.17,19.17,0,0,1,10.58,3.53l1.44-2.45h4v12h-4.68a11.51,11.51,0,0,0-3.89-5.9,10.5,10.5,0,0,0-6.77-2c-2.37,0-5.47,1-5.47,3.89,0,5.62,22.69,3,22.69,16.13,0,7.57-6.41,10.66-13.18,10.66-4.32,0-8.64-.72-12-3.67l-1.44,2.59H679.8V76.64Z"/><rect class="cls-2" width="132.69" height="132.69"/><path class="cls-1" d="M23.32,25a5.11,5.11,0,1,1-5.11,5.11A5.08,5.08,0,0,1,23.32,25Z"/><path class="cls-1" d="M23.32,37.06a5.11,5.11,0,1,1-5.11,5.11A5.09,5.09,0,0,1,23.32,37.06Z"/><path class="cls-1" d="M23.32,49.17a5.11,5.11,0,1,1-5.11,5.12A5.09,5.09,0,0,1,23.32,49.17Z"/><path class="cls-1" d="M23.32,85.51a5.11,5.11,0,1,1-5.11,5.11A5.08,5.08,0,0,1,23.32,85.51Z"/><path class="cls-1" d="M23.32,73.47a5.11,5.11,0,1,1-5.11,5.11A5.09,5.09,0,0,1,23.32,73.47Z"/><path class="cls-1" d="M23.32,97.62a5.11,5.11,0,1,1-5.11,5.11A5.09,5.09,0,0,1,23.32,97.62Z"/><path class="cls-1" d="M44.82,37.12a5.11,5.11,0,1,1-5.11,5.11A5.09,5.09,0,0,1,44.82,37.12Z"/><path class="cls-1" d="M44.82,49.17a5.11,5.11,0,1,1-5.11,5.12A5.1,5.1,0,0,1,44.82,49.17Z"/><path class="cls-1" d="M44.82,109.73a5.11,5.11,0,1,1-5.11,5.12A5.1,5.1,0,0,1,44.82,109.73Z"/><path class="cls-1" d="M66.33,25a5.11,5.11,0,1,1-5.11,5.11A5.09,5.09,0,0,1,66.33,25Z"/><path class="cls-1" d="M66.33,37.12a5.11,5.11,0,1,1-5.11,5.11A5.09,5.09,0,0,1,66.33,37.12Z"/><path class="cls-1" d="M66.33,61.35a5.1,5.1,0,1,1-5.11,5.11A5.08,5.08,0,0,1,66.33,61.35Z"/><path class="cls-1" d="M66.35,73.47a5.11,5.11,0,1,1-5.12,5.11A5.1,5.1,0,0,1,66.35,73.47Z"/><path class="cls-1" d="M66.33,85.59a5.1,5.1,0,1,1-5.11,5.11A5.08,5.08,0,0,1,66.33,85.59Z"/><path class="cls-1" d="M87.85,37.12a5.11,5.11,0,1,1-5.11,5.11A5.09,5.09,0,0,1,87.85,37.12Z"/><path class="cls-1" d="M87.85,49.23a5.11,5.11,0,1,1-5.11,5.12A5.09,5.09,0,0,1,87.85,49.23Z"/><path class="cls-1" d="M87.85,85.56a5.11,5.11,0,1,1-5.11,5.12A5.09,5.09,0,0,1,87.85,85.56Z"/><path class="cls-1" d="M109.35,25a5.11,5.11,0,1,1-5.11,5.11A5.1,5.1,0,0,1,109.35,25Z"/><path class="cls-1" d="M109.37,37.12a5.11,5.11,0,1,1-5.11,5.11A5.09,5.09,0,0,1,109.37,37.12Z"/><path class="cls-1" d="M109.35,85.59a5.1,5.1,0,1,1-5.11,5.11A5.09,5.09,0,0,1,109.35,85.59Z"/><path class="cls-1" d="M26.41,18a3,3,0,1,0-3,3A3,3,0,0,0,26.41,18Z"/><path class="cls-1" d="M26.35,66.34a3,3,0,1,0-3,3A3,3,0,0,0,26.35,66.34Z"/><path class="cls-1" d="M44.83,27.1a3,3,0,1,0,3,3A3,3,0,0,0,44.83,27.1Z"/><path class="cls-1" d="M44.83,63.34a3,3,0,1,0,3,3A3,3,0,0,0,44.83,63.34Z"/><path class="cls-1" d="M44.83,75.49a3,3,0,1,0,3,3A3,3,0,0,0,44.83,75.49Z"/><path class="cls-1" d="M44.77,87.61a3,3,0,1,0,3,3A3,3,0,0,0,44.77,87.61Z"/><path class="cls-1" d="M44.83,99.72a3,3,0,1,0,3,3A3,3,0,0,0,44.83,99.72Z"/><path class="cls-1" d="M66.34,15a3,3,0,1,0,3,3A3,3,0,0,0,66.34,15Z"/><path class="cls-1" d="M66.35,51.33a3,3,0,1,0,3,3A3,3,0,0,0,66.35,51.33Z"/><path class="cls-1" d="M66.34,99.79a3,3,0,1,0,3,3A3,3,0,0,0,66.34,99.79Z"/><path class="cls-1" d="M87.86,27.09a3,3,0,1,0,3,3A3,3,0,0,0,87.86,27.09Z"/><path class="cls-1" d="M87.86,63.43a3,3,0,1,0,3,3A3,3,0,0,0,87.86,63.43Z"/><path class="cls-1" d="M87.86,75.55a3,3,0,1,0,3,3A3,3,0,0,0,87.86,75.55Z"/><path class="cls-1" d="M87.86,99.79a3,3,0,1,0,3,3A3,3,0,0,0,87.86,99.79Z"/><path class="cls-1" d="M87.86,111.91a3,3,0,1,0,3,3A3,3,0,0,0,87.86,111.91Z"/><path class="cls-1" d="M109.36,15a3,3,0,1,0,3,3A3,3,0,0,0,109.36,15Z"/><path class="cls-1" d="M109.36,51.33a3,3,0,1,0,3,3A3,3,0,0,0,109.36,51.33Z"/><path class="cls-1" d="M109.36,63.43a3,3,0,1,0,3,3A3,3,0,0,0,109.36,63.43Z"/><path class="cls-1" d="M109.36,75.55a3,3,0,1,0,3,3A3,3,0,0,0,109.36,75.55Z"/><path class="cls-1" d="M109.36,99.79a3,3,0,1,0,3,3A3,3,0,0,0,109.36,99.79Z"/></svg>