<svg width="314" height="320" viewBox="0 0 314 320" fill="none" xmlns="http://www.w3.org/2000/svg">
<path d="M0.807617 19.0374C0.807617 8.87458 9.04623 0.635986 19.2091 0.635986H295.231C305.394 0.635986 313.632 8.8746 313.632 19.0374V301.193C313.632 311.356 305.394 319.595 295.231 319.595H19.2091C9.04621 319.595 0.807617 311.356 0.807617 301.193V19.0374Z" fill="#FAFAFA"/>
<rect x="102.123" y="37.439" width="110.195" height="110.195" rx="55.0975" fill="#15151F" fill-opacity="0.04"/>
<path d="M134.402 80.5238C133.398 81.1035 133.398 82.5527 134.402 83.1323L154.962 95.0022C156.359 95.8092 158.082 95.8092 159.48 95.0022L180.039 83.1323C181.043 82.5527 181.043 81.1035 180.039 80.5238L159.48 68.654C158.082 67.8469 156.359 67.8469 154.962 68.654L134.402 80.5238Z" fill="url(#paint0_linear_444_645)"/>
<path d="M139.099 88.5208L154.962 97.6793C156.359 98.4863 158.082 98.4863 159.48 97.6793L175.343 88.5208L180.039 91.2322C181.043 91.8119 181.043 93.261 180.039 93.8407L159.48 105.711C158.082 106.518 156.359 106.518 154.962 105.711L134.402 93.8407C133.398 93.261 133.398 91.8119 134.402 91.2322L139.099 88.5208Z" fill="url(#paint1_linear_444_645)"/>
<path d="M154.962 108.388L139.099 99.2292L134.402 101.941C133.398 102.52 133.398 103.969 134.402 104.549L154.962 116.419C156.359 117.226 158.082 117.226 159.48 116.419L180.039 104.549C181.043 103.969 181.043 102.52 180.039 101.941L175.343 99.2292L159.48 108.388C158.082 109.195 156.359 109.195 154.962 108.388Z" fill="url(#paint2_linear_444_645)"/>
<path d="M101.275 188.566L100.134 192.209H107.348L106.207 188.566C105.323 185.879 104.55 183.229 103.778 180.432H103.63C102.894 183.229 102.121 185.879 101.275 188.566ZM93.8776 202.035L102.011 177.893H105.544L113.678 202.035H110.402L108.12 194.712H99.3245L97.0059 202.035H93.8776ZM116.804 202.035V184.149H119.306L119.564 187.388H119.674C120.926 185.143 122.766 183.708 124.753 183.708C125.563 183.708 126.115 183.818 126.667 184.076L126.005 186.689C125.489 186.541 125.085 186.468 124.385 186.468C122.876 186.468 121.073 187.535 119.858 190.553V202.035H116.804ZM135.229 202.477C131.402 202.477 130.114 200.048 130.114 196.478V186.615H127.464V184.333L130.261 184.149L130.629 178.408H133.168V184.149H138.026V186.615H133.168V196.552C133.168 198.723 133.905 199.974 135.929 199.974C136.591 199.974 137.254 199.864 137.99 199.533L138.615 201.704C137.658 202.146 136.444 202.477 135.229 202.477ZM142.07 202.035V184.149H145.125V202.035H142.07ZM143.616 180.469C142.438 180.469 141.591 179.696 141.591 178.482C141.591 177.304 142.438 176.494 143.616 176.494C144.793 176.494 145.64 177.304 145.64 178.482C145.64 179.696 144.793 180.469 143.616 180.469ZM151.678 202.035V186.615H149.249V184.333L151.678 184.149V181.352C151.678 177.709 153.334 175.39 156.904 175.39C158.008 175.39 159.149 175.648 159.885 175.979L159.223 178.224C158.523 178.003 157.861 177.856 157.235 177.856C155.542 177.856 154.733 179.07 154.733 181.352V184.149H158.487V186.615H154.733V202.035H151.678ZM165.312 202.477C162.331 202.477 160.086 200.637 160.086 197.398C160.086 193.424 163.398 191.51 171.053 190.663C171.017 188.418 170.281 186.247 167.373 186.247C165.312 186.247 163.435 187.167 162.037 188.087L160.859 186.026C162.515 184.922 165.018 183.708 167.888 183.708C172.231 183.708 174.108 186.615 174.108 191.031V202.035H171.605L171.311 199.901H171.201C169.508 201.336 167.557 202.477 165.312 202.477ZM166.159 199.974C167.888 199.974 169.324 199.202 171.053 197.693V192.835C165.018 193.534 163.067 194.896 163.067 197.214C163.067 199.202 164.429 199.974 166.159 199.974ZM186.802 202.477C182.054 202.477 178.41 199.054 178.41 193.129C178.41 187.13 182.422 183.708 187.022 183.708C189.378 183.708 190.997 184.628 192.248 185.805L190.739 187.719C189.746 186.799 188.605 186.247 187.17 186.247C183.931 186.247 181.576 189.007 181.576 193.129C181.576 197.214 183.784 199.938 187.059 199.938C188.715 199.938 190.187 199.202 191.255 198.245L192.58 200.195C190.96 201.667 188.936 202.477 186.802 202.477ZM201.791 202.477C197.963 202.477 196.675 200.048 196.675 196.478V186.615H194.026V184.333L196.823 184.149L197.191 178.408H199.73V184.149H204.588V186.615H199.73V196.552C199.73 198.723 200.466 199.974 202.49 199.974C203.153 199.974 203.815 199.864 204.551 199.533L205.177 201.704C204.22 202.146 203.005 202.477 201.791 202.477ZM212.946 202.477C210.333 202.477 207.941 201.52 206.285 199.901L207.683 198.134C209.229 199.422 210.848 200.085 213.056 200.085C215.412 200.085 216.553 198.87 216.553 197.325C216.553 195.484 214.565 194.712 212.541 193.976C209.855 193.019 207.278 191.731 207.278 188.786C207.278 185.916 209.56 183.708 213.461 183.708C215.706 183.708 217.62 184.554 219.019 185.732L217.62 187.498C216.369 186.578 215.081 186.063 213.498 186.063C211.216 186.063 210.223 187.314 210.223 188.639C210.223 190.258 211.768 190.921 214.013 191.694C216.81 192.687 219.497 193.902 219.497 197.141C219.497 200.048 217.178 202.477 212.946 202.477Z" fill="#676D78"/>
<path d="M55.6597 246.44L50.6545 230.394H53.6723L55.9296 238.466C56.1913 239.366 56.4284 240.233 56.6411 241.067C56.8537 241.901 57.0909 242.776 57.3526 243.692H57.4507C57.7288 242.776 57.966 241.901 58.1623 241.067C58.3749 240.233 58.6039 239.366 58.8493 238.466L61.082 230.394H64.0017L59.021 246.44H55.6597ZM70.4429 246.735C69.3307 246.735 68.3247 246.49 67.4251 245.999C66.5255 245.492 65.814 244.772 65.2905 243.84C64.7671 242.891 64.5054 241.754 64.5054 240.429C64.5054 239.121 64.7671 237.992 65.2905 237.043C65.8303 236.095 66.5255 235.367 67.376 234.86C68.2266 234.353 69.118 234.099 70.0504 234.099C71.1463 234.099 72.0623 234.345 72.7983 234.835C73.5344 235.31 74.0905 235.98 74.4667 236.847C74.8429 237.698 75.031 238.687 75.031 239.816C75.031 240.405 74.9902 240.863 74.9084 241.19H67.2534C67.3842 242.253 67.7686 243.079 68.4065 243.668C69.0444 244.257 69.8459 244.551 70.811 244.551C71.3344 244.551 71.8169 244.478 72.2586 244.33C72.7166 244.167 73.1664 243.946 73.608 243.668L74.5649 245.434C73.9924 245.811 73.3545 246.121 72.6511 246.367C71.9478 246.612 71.2117 246.735 70.4429 246.735ZM67.2288 239.276H72.5775C72.5775 238.344 72.3731 237.616 71.9641 237.092C71.5552 236.553 70.9418 236.283 70.124 236.283C69.4206 236.283 68.7909 236.545 68.2348 237.068C67.695 237.575 67.3597 238.311 67.2288 239.276ZM77.7259 246.44V234.394H80.0568L80.253 236.528H80.3512C80.7765 235.743 81.2917 235.146 81.8969 234.737C82.5021 234.312 83.1237 234.099 83.7616 234.099C84.3341 234.099 84.7921 234.181 85.1356 234.345L84.6449 236.798C84.4322 236.733 84.2359 236.684 84.056 236.651C83.8761 236.618 83.6553 236.602 83.3936 236.602C82.9192 236.602 82.4203 236.79 81.8969 237.166C81.3735 237.526 80.9237 238.164 80.5475 239.08V246.44H77.7259ZM90.0963 246.735C89.2784 246.735 88.4606 246.579 87.6428 246.269C86.8249 245.942 86.1216 245.541 85.5327 245.066L86.8576 243.251C87.3974 243.66 87.9372 243.987 88.477 244.232C89.0167 244.478 89.5892 244.6 90.1944 244.6C90.8487 244.6 91.3312 244.461 91.642 244.183C91.9528 243.905 92.1082 243.562 92.1082 243.153C92.1082 242.809 91.9773 242.531 91.7156 242.319C91.4703 242.09 91.1513 241.893 90.7587 241.73C90.3662 241.55 89.9573 241.378 89.532 241.214C89.0086 241.018 88.4851 240.781 87.9617 240.503C87.4547 240.208 87.0376 239.84 86.7104 239.399C86.3833 238.941 86.2197 238.376 86.2197 237.706C86.2197 236.643 86.6123 235.776 87.3974 235.105C88.1825 234.434 89.2457 234.099 90.587 234.099C91.4375 234.099 92.1981 234.246 92.8688 234.541C93.5394 234.835 94.1201 235.171 94.6108 235.547L93.3104 237.264C92.8851 236.953 92.4517 236.708 92.01 236.528C91.5848 236.332 91.1349 236.234 90.6606 236.234C90.0554 236.234 89.6056 236.365 89.3112 236.626C89.0167 236.872 88.8695 237.182 88.8695 237.559C88.8695 238.033 89.1149 238.393 89.6056 238.638C90.0963 238.884 90.6688 239.121 91.323 239.35C91.8792 239.546 92.419 239.791 92.9424 240.086C93.4658 240.364 93.8993 240.732 94.2427 241.19C94.6026 241.648 94.7825 242.253 94.7825 243.005C94.7825 244.036 94.3818 244.919 93.5803 245.655C92.7788 246.375 91.6175 246.735 90.0963 246.735ZM97.3014 246.44V234.394H100.123V246.44H97.3014ZM98.7245 232.284C98.2174 232.284 97.8085 232.136 97.4977 231.842C97.1869 231.548 97.0315 231.155 97.0315 230.664C97.0315 230.19 97.1869 229.806 97.4977 229.511C97.8085 229.217 98.2174 229.069 98.7245 229.069C99.2315 229.069 99.6404 229.217 99.9512 229.511C100.262 229.806 100.417 230.19 100.417 230.664C100.417 231.155 100.262 231.548 99.9512 231.842C99.6404 232.136 99.2315 232.284 98.7245 232.284ZM108.654 246.735C107.657 246.735 106.724 246.49 105.857 245.999C104.99 245.492 104.287 244.772 103.747 243.84C103.208 242.891 102.938 241.754 102.938 240.429C102.938 239.088 103.208 237.951 103.747 237.019C104.287 236.07 104.99 235.35 105.857 234.86C106.724 234.353 107.657 234.099 108.654 234.099C109.668 234.099 110.609 234.353 111.476 234.86C112.343 235.35 113.046 236.07 113.586 237.019C114.126 237.951 114.396 239.088 114.396 240.429C114.396 241.754 114.126 242.891 113.586 243.84C113.046 244.772 112.343 245.492 111.476 245.999C110.609 246.49 109.668 246.735 108.654 246.735ZM108.654 244.429C109.538 244.429 110.233 244.061 110.74 243.324C111.247 242.588 111.5 241.623 111.5 240.429C111.5 239.219 111.247 238.246 110.74 237.51C110.233 236.774 109.538 236.405 108.654 236.405C107.771 236.405 107.076 236.774 106.569 237.51C106.078 238.246 105.833 239.219 105.833 240.429C105.833 241.623 106.078 242.588 106.569 243.324C107.076 244.061 107.771 244.429 108.654 244.429ZM117.188 246.44V234.394H119.519L119.716 236.013H119.814C120.353 235.49 120.942 235.04 121.58 234.663C122.218 234.287 122.946 234.099 123.764 234.099C125.056 234.099 125.997 234.516 126.585 235.35C127.174 236.185 127.469 237.362 127.469 238.884V246.44H124.647V239.252C124.647 238.254 124.5 237.55 124.205 237.142C123.911 236.733 123.429 236.528 122.758 236.528C122.234 236.528 121.768 236.659 121.359 236.921C120.967 237.166 120.517 237.534 120.01 238.025V246.44H117.188ZM138.749 246.735C137.702 246.735 136.844 246.408 136.173 245.753C135.519 245.099 135.192 244.249 135.192 243.202C135.192 241.91 135.756 240.912 136.884 240.208C138.013 239.489 139.812 238.998 142.282 238.736C142.266 238.098 142.094 237.55 141.767 237.092C141.456 236.618 140.892 236.381 140.074 236.381C139.485 236.381 138.905 236.495 138.332 236.724C137.776 236.953 137.228 237.232 136.688 237.559L135.658 235.669C136.328 235.244 137.081 234.876 137.915 234.565C138.766 234.255 139.665 234.099 140.614 234.099C142.119 234.099 143.239 234.549 143.975 235.449C144.728 236.332 145.104 237.616 145.104 239.301V246.44H142.773L142.577 245.116H142.479C141.939 245.574 141.358 245.958 140.737 246.269C140.131 246.579 139.469 246.735 138.749 246.735ZM139.657 244.527C140.148 244.527 140.589 244.412 140.982 244.183C141.391 243.938 141.824 243.611 142.282 243.202V240.503C140.647 240.716 139.51 241.034 138.872 241.46C138.234 241.869 137.915 242.376 137.915 242.981C137.915 243.521 138.079 243.913 138.406 244.159C138.733 244.404 139.15 244.527 139.657 244.527ZM148.48 246.44V234.394H150.811L151.008 236.013H151.106C151.646 235.49 152.234 235.04 152.872 234.663C153.51 234.287 154.238 234.099 155.056 234.099C156.348 234.099 157.289 234.516 157.877 235.35C158.466 236.185 158.761 237.362 158.761 238.884V246.44H155.939V239.252C155.939 238.254 155.792 237.55 155.498 237.142C155.203 236.733 154.721 236.528 154.05 236.528C153.527 236.528 153.06 236.659 152.651 236.921C152.259 237.166 151.809 237.534 151.302 238.025V246.44H148.48ZM166.43 246.735C164.925 246.735 163.723 246.179 162.823 245.066C161.923 243.954 161.474 242.408 161.474 240.429C161.474 239.121 161.711 237.992 162.185 237.043C162.676 236.095 163.314 235.367 164.099 234.86C164.884 234.353 165.71 234.099 166.577 234.099C167.264 234.099 167.845 234.222 168.319 234.467C168.81 234.696 169.284 235.015 169.742 235.424L169.644 233.486V229.119H172.465V246.44H170.135L169.938 245.14H169.84C169.399 245.582 168.883 245.958 168.294 246.269C167.706 246.579 167.084 246.735 166.43 246.735ZM167.117 244.404C168.016 244.404 168.859 243.954 169.644 243.055V237.436C169.235 237.06 168.826 236.798 168.417 236.651C168.008 236.504 167.599 236.43 167.19 236.43C166.422 236.43 165.759 236.782 165.203 237.485C164.663 238.172 164.393 239.145 164.393 240.405C164.393 241.697 164.63 242.687 165.105 243.374C165.579 244.061 166.25 244.404 167.117 244.404ZM180.971 246.44V234.394H183.301L183.498 236.037H183.596C184.103 235.498 184.651 235.04 185.24 234.663C185.845 234.287 186.524 234.099 187.276 234.099C188.159 234.099 188.863 234.295 189.386 234.688C189.926 235.064 190.335 235.588 190.613 236.258C191.185 235.637 191.782 235.121 192.404 234.713C193.042 234.304 193.737 234.099 194.489 234.099C195.765 234.099 196.706 234.516 197.311 235.35C197.916 236.185 198.219 237.362 198.219 238.884V246.44H195.373V239.252C195.373 238.254 195.217 237.55 194.907 237.142C194.612 236.733 194.154 236.528 193.533 236.528C192.78 236.528 191.938 237.027 191.005 238.025V246.44H188.184V239.252C188.184 238.254 188.029 237.55 187.718 237.142C187.423 236.733 186.957 236.528 186.319 236.528C185.567 236.528 184.724 237.027 183.792 238.025V246.44H180.971ZM204.568 246.735C203.521 246.735 202.662 246.408 201.992 245.753C201.337 245.099 201.01 244.249 201.01 243.202C201.01 241.91 201.575 240.912 202.703 240.208C203.832 239.489 205.631 238.998 208.101 238.736C208.085 238.098 207.913 237.55 207.586 237.092C207.275 236.618 206.711 236.381 205.893 236.381C205.304 236.381 204.723 236.495 204.151 236.724C203.595 236.953 203.047 237.232 202.507 237.559L201.477 235.669C202.147 235.244 202.9 234.876 203.734 234.565C204.584 234.255 205.484 234.099 206.433 234.099C207.937 234.099 209.058 234.549 209.794 235.449C210.546 236.332 210.923 237.616 210.923 239.301V246.44H208.592L208.395 245.116H208.297C207.758 245.574 207.177 245.958 206.555 246.269C205.95 246.579 205.288 246.735 204.568 246.735ZM205.476 244.527C205.966 244.527 206.408 244.412 206.801 244.183C207.21 243.938 207.643 243.611 208.101 243.202V240.503C206.465 240.716 205.329 241.034 204.691 241.46C204.053 241.869 203.734 242.376 203.734 242.981C203.734 243.521 203.897 243.913 204.224 244.159C204.552 244.404 204.969 244.527 205.476 244.527ZM214.299 246.44V234.394H216.63L216.826 236.013H216.925C217.464 235.49 218.053 235.04 218.691 234.663C219.329 234.287 220.057 234.099 220.875 234.099C222.167 234.099 223.107 234.516 223.696 235.35C224.285 236.185 224.58 237.362 224.58 238.884V246.44H221.758V239.252C221.758 238.254 221.611 237.55 221.316 237.142C221.022 236.733 220.539 236.528 219.869 236.528C219.345 236.528 218.879 236.659 218.47 236.921C218.078 237.166 217.628 237.534 217.121 238.025V246.44H214.299ZM230.948 246.735C229.901 246.735 229.043 246.408 228.372 245.753C227.718 245.099 227.391 244.249 227.391 243.202C227.391 241.91 227.955 240.912 229.083 240.208C230.212 239.489 232.011 238.998 234.481 238.736C234.465 238.098 234.293 237.55 233.966 237.092C233.655 236.618 233.091 236.381 232.273 236.381C231.684 236.381 231.104 236.495 230.531 236.724C229.975 236.953 229.427 237.232 228.887 237.559L227.857 235.669C228.527 235.244 229.28 234.876 230.114 234.565C230.965 234.255 231.864 234.099 232.813 234.099C234.318 234.099 235.438 234.549 236.174 235.449C236.927 236.332 237.303 237.616 237.303 239.301V246.44H234.972L234.776 245.116H234.678C234.138 245.574 233.557 245.958 232.936 246.269C232.33 246.579 231.668 246.735 230.948 246.735ZM231.856 244.527C232.347 244.527 232.788 244.412 233.181 244.183C233.59 243.938 234.023 243.611 234.481 243.202V240.503C232.846 240.716 231.709 241.034 231.071 241.46C230.433 241.869 230.114 242.376 230.114 242.981C230.114 243.521 230.278 243.913 230.605 244.159C230.932 244.404 231.349 244.527 231.856 244.527ZM244.875 251.765C243.926 251.765 243.068 251.65 242.299 251.421C241.546 251.192 240.949 250.84 240.508 250.366C240.082 249.908 239.87 249.327 239.87 248.624C239.87 247.626 240.442 246.768 241.587 246.048V245.95C241.276 245.753 241.015 245.492 240.802 245.165C240.606 244.837 240.508 244.429 240.508 243.938C240.508 243.463 240.639 243.038 240.9 242.662C241.178 242.269 241.489 241.95 241.833 241.705V241.607C241.424 241.296 241.056 240.863 240.729 240.307C240.418 239.75 240.262 239.121 240.262 238.417C240.262 237.485 240.483 236.7 240.925 236.062C241.366 235.424 241.947 234.942 242.667 234.614C243.403 234.271 244.188 234.099 245.022 234.099C245.349 234.099 245.66 234.132 245.955 234.197C246.265 234.246 246.543 234.312 246.789 234.394H251.107V236.479H248.899C249.095 236.708 249.259 237.003 249.389 237.362C249.52 237.706 249.586 238.09 249.586 238.516C249.586 239.399 249.381 240.151 248.972 240.773C248.563 241.378 248.016 241.836 247.329 242.147C246.642 242.458 245.873 242.613 245.022 242.613C244.761 242.613 244.491 242.588 244.213 242.539C243.934 242.49 243.656 242.408 243.378 242.294C243.198 242.458 243.051 242.621 242.937 242.785C242.839 242.948 242.79 243.169 242.79 243.447C242.79 243.791 242.929 244.061 243.207 244.257C243.501 244.453 244.016 244.551 244.752 244.551H246.887C248.343 244.551 249.439 244.788 250.175 245.263C250.927 245.721 251.303 246.473 251.303 247.52C251.303 248.305 251.042 249.017 250.518 249.655C249.995 250.309 249.25 250.824 248.285 251.2C247.32 251.576 246.184 251.765 244.875 251.765ZM245.022 240.846C245.595 240.846 246.085 240.634 246.494 240.208C246.903 239.783 247.108 239.186 247.108 238.417C247.108 237.665 246.903 237.084 246.494 236.675C246.102 236.25 245.611 236.037 245.022 236.037C244.433 236.037 243.934 236.242 243.526 236.651C243.117 237.06 242.912 237.649 242.912 238.417C242.912 239.186 243.117 239.783 243.526 240.208C243.934 240.634 244.433 240.846 245.022 240.846ZM245.317 249.924C246.282 249.924 247.067 249.728 247.672 249.336C248.277 248.943 248.58 248.493 248.58 247.986C248.58 247.512 248.392 247.193 248.016 247.029C247.656 246.866 247.132 246.784 246.445 246.784H244.801C244.147 246.784 243.599 246.727 243.158 246.612C242.536 247.087 242.225 247.618 242.225 248.207C242.225 248.747 242.503 249.164 243.059 249.458C243.616 249.769 244.368 249.924 245.317 249.924ZM258.195 246.735C257.083 246.735 256.077 246.49 255.178 245.999C254.278 245.492 253.566 244.772 253.043 243.84C252.52 242.891 252.258 241.754 252.258 240.429C252.258 239.121 252.52 237.992 253.043 237.043C253.583 236.095 254.278 235.367 255.128 234.86C255.979 234.353 256.87 234.099 257.803 234.099C258.899 234.099 259.815 234.345 260.551 234.835C261.287 235.31 261.843 235.98 262.219 236.847C262.595 237.698 262.783 238.687 262.783 239.816C262.783 240.405 262.743 240.863 262.661 241.19H255.006C255.137 242.253 255.521 243.079 256.159 243.668C256.797 244.257 257.598 244.551 258.563 244.551C259.087 244.551 259.569 244.478 260.011 244.33C260.469 244.167 260.919 243.946 261.36 243.668L262.317 245.434C261.745 245.811 261.107 246.121 260.404 246.367C259.7 246.612 258.964 246.735 258.195 246.735ZM254.981 239.276H260.33C260.33 238.344 260.125 237.616 259.717 237.092C259.308 236.553 258.694 236.283 257.876 236.283C257.173 236.283 256.543 236.545 255.987 237.068C255.447 237.575 255.112 238.311 254.981 239.276ZM67.2982 280.397C66.9711 280.397 66.6848 280.372 66.4395 280.323C66.1941 280.274 65.9569 280.217 65.728 280.151L66.2432 277.943C66.3577 277.976 66.4885 278.008 66.6358 278.041C66.7993 278.09 66.9547 278.115 67.1019 278.115C67.7398 278.115 68.2469 277.918 68.6231 277.526C69.0157 277.15 69.3101 276.659 69.5064 276.054L69.7272 275.293L64.9919 263.394H67.8625L69.948 269.307C70.1279 269.83 70.2997 270.386 70.4633 270.975C70.6432 271.547 70.8231 272.12 71.003 272.692H71.1012C71.2484 272.136 71.3956 271.572 71.5428 271C71.7064 270.411 71.8618 269.846 72.009 269.307L73.8246 263.394H76.548L72.1807 275.98C71.6737 277.338 71.0603 278.409 70.3406 279.194C69.6209 279.996 68.6068 280.397 67.2982 280.397ZM83.4242 275.735C82.4264 275.735 81.4941 275.49 80.6272 274.999C79.7603 274.492 79.0569 273.772 78.5172 272.84C77.9774 271.891 77.7075 270.754 77.7075 269.429C77.7075 268.088 77.9774 266.951 78.5172 266.019C79.0569 265.07 79.7603 264.35 80.6272 263.86C81.4941 263.353 82.4264 263.099 83.4242 263.099C84.4383 263.099 85.3789 263.353 86.2458 263.86C87.1127 264.35 87.816 265.07 88.3558 266.019C88.8956 266.951 89.1655 268.088 89.1655 269.429C89.1655 270.754 88.8956 271.891 88.3558 272.84C87.816 273.772 87.1127 274.492 86.2458 274.999C85.3789 275.49 84.4383 275.735 83.4242 275.735ZM83.4242 273.429C84.3075 273.429 85.0027 273.061 85.5097 272.324C86.0168 271.588 86.2703 270.623 86.2703 269.429C86.2703 268.219 86.0168 267.246 85.5097 266.51C85.0027 265.774 84.3075 265.405 83.4242 265.405C82.5409 265.405 81.8458 265.774 81.3387 266.51C80.848 267.246 80.6027 268.219 80.6027 269.429C80.6027 270.623 80.848 271.588 81.3387 272.324C81.8458 273.061 82.5409 273.429 83.4242 273.429ZM95.5404 275.735C94.2482 275.735 93.3077 275.318 92.7189 274.484C92.13 273.649 91.8356 272.472 91.8356 270.95V263.394H94.6572V270.582C94.6572 271.58 94.8044 272.284 95.0988 272.692C95.3932 273.101 95.8676 273.306 96.5218 273.306C97.0453 273.306 97.5033 273.175 97.8958 272.913C98.3047 272.652 98.7382 272.226 99.1962 271.637V263.394H102.018V275.44H99.7114L99.4906 273.674H99.417C98.8936 274.295 98.3211 274.794 97.6995 275.171C97.078 275.547 96.3583 275.735 95.5404 275.735ZM105.592 275.44V263.394H107.923L108.119 265.528H108.217C108.642 264.743 109.157 264.146 109.763 263.737C110.368 263.312 110.989 263.099 111.627 263.099C112.2 263.099 112.658 263.181 113.001 263.345L112.511 265.798C112.298 265.733 112.102 265.684 111.922 265.651C111.742 265.618 111.521 265.602 111.259 265.602C110.785 265.602 110.286 265.79 109.763 266.166C109.239 266.526 108.789 267.164 108.413 268.08V275.44H105.592ZM119.902 275.44V259.394H123.116L125.962 267.246C126.142 267.753 126.314 268.276 126.477 268.816C126.657 269.339 126.829 269.863 126.992 270.386H127.091C127.27 269.863 127.442 269.339 127.606 268.816C127.769 268.276 127.933 267.753 128.096 267.246L130.869 259.394H134.108V275.44H131.482V268.104C131.482 267.597 131.499 267.049 131.531 266.461C131.58 265.855 131.63 265.25 131.679 264.645C131.744 264.04 131.801 263.492 131.85 263.001H131.752L130.452 266.73L127.827 273.944H126.134L123.484 266.73L122.208 263.001H122.11C122.159 263.492 122.208 264.04 122.257 264.645C122.322 265.25 122.372 265.855 122.404 266.461C122.453 267.049 122.478 267.597 122.478 268.104V275.44H119.902ZM138.183 275.44V259.394H141.029V273.036H147.703V275.44H138.183ZM155.165 280.2V263.394H157.496L157.693 264.669H157.791C158.298 264.244 158.862 263.876 159.484 263.565C160.122 263.255 160.768 263.099 161.422 263.099C162.927 263.099 164.088 263.655 164.906 264.768C165.74 265.88 166.157 267.368 166.157 269.233C166.157 270.607 165.912 271.785 165.421 272.766C164.93 273.731 164.292 274.467 163.507 274.974C162.739 275.481 161.904 275.735 161.005 275.735C160.481 275.735 159.958 275.62 159.435 275.391C158.911 275.146 158.404 274.819 157.913 274.41L157.987 276.422V280.2H155.165ZM160.416 273.404C161.217 273.404 161.888 273.052 162.428 272.349C162.968 271.646 163.237 270.615 163.237 269.258C163.237 268.047 163.033 267.107 162.624 266.436C162.215 265.765 161.553 265.43 160.637 265.43C159.786 265.43 158.903 265.88 157.987 266.779V272.398C158.429 272.758 158.854 273.02 159.263 273.183C159.672 273.33 160.056 273.404 160.416 273.404ZM169.014 275.44V263.394H171.836V275.44H169.014ZM170.437 261.284C169.93 261.284 169.521 261.136 169.211 260.842C168.9 260.548 168.745 260.155 168.745 259.664C168.745 259.19 168.9 258.806 169.211 258.511C169.521 258.217 169.93 258.069 170.437 258.069C170.945 258.069 171.353 258.217 171.664 258.511C171.975 258.806 172.13 259.19 172.13 259.664C172.13 260.155 171.975 260.548 171.664 260.842C171.353 261.136 170.945 261.284 170.437 261.284ZM175.436 280.2V263.394H177.767L177.963 264.669H178.061C178.568 264.244 179.132 263.876 179.754 263.565C180.392 263.255 181.038 263.099 181.692 263.099C183.197 263.099 184.358 263.655 185.176 264.768C186.01 265.88 186.428 267.368 186.428 269.233C186.428 270.607 186.182 271.785 185.691 272.766C185.201 273.731 184.563 274.467 183.778 274.974C183.009 275.481 182.175 275.735 181.275 275.735C180.752 275.735 180.228 275.62 179.705 275.391C179.181 275.146 178.674 274.819 178.184 274.41L178.257 276.422V280.2H175.436ZM180.686 273.404C181.488 273.404 182.158 273.052 182.698 272.349C183.238 271.646 183.508 270.615 183.508 269.258C183.508 268.047 183.303 267.107 182.894 266.436C182.486 265.765 181.823 265.43 180.907 265.43C180.057 265.43 179.173 265.88 178.257 266.779V272.398C178.699 272.758 179.124 273.02 179.533 273.183C179.942 273.33 180.326 273.404 180.686 273.404ZM194.437 275.735C193.325 275.735 192.319 275.49 191.419 274.999C190.52 274.492 189.808 273.772 189.285 272.84C188.761 271.891 188.5 270.754 188.5 269.429C188.5 268.121 188.761 266.992 189.285 266.043C189.825 265.095 190.52 264.367 191.37 263.86C192.221 263.353 193.112 263.099 194.045 263.099C195.141 263.099 196.056 263.345 196.793 263.835C197.529 264.31 198.085 264.98 198.461 265.847C198.837 266.698 199.025 267.687 199.025 268.816C199.025 269.405 198.984 269.863 198.903 270.19H191.248C191.378 271.253 191.763 272.079 192.401 272.668C193.039 273.257 193.84 273.551 194.805 273.551C195.329 273.551 195.811 273.478 196.253 273.33C196.711 273.167 197.161 272.946 197.602 272.668L198.559 274.434C197.987 274.811 197.349 275.121 196.645 275.367C195.942 275.612 195.206 275.735 194.437 275.735ZM191.223 268.276H196.572C196.572 267.344 196.367 266.616 195.958 266.092C195.549 265.553 194.936 265.283 194.118 265.283C193.415 265.283 192.785 265.545 192.229 266.068C191.689 266.575 191.354 267.311 191.223 268.276ZM204.468 275.735C203.47 275.735 202.759 275.432 202.334 274.827C201.925 274.222 201.72 273.396 201.72 272.349V258.119H204.542V272.496C204.542 272.84 204.607 273.085 204.738 273.232C204.869 273.363 205.008 273.429 205.155 273.429C205.22 273.429 205.278 273.429 205.327 273.429C205.392 273.412 205.482 273.396 205.597 273.379L205.965 275.49C205.801 275.555 205.589 275.612 205.327 275.661C205.081 275.71 204.795 275.735 204.468 275.735ZM208.381 275.44V263.394H211.203V275.44H208.381ZM209.804 261.284C209.297 261.284 208.888 261.136 208.577 260.842C208.267 260.548 208.111 260.155 208.111 259.664C208.111 259.19 208.267 258.806 208.577 258.511C208.888 258.217 209.297 258.069 209.804 258.069C210.311 258.069 210.72 258.217 211.031 258.511C211.342 258.806 211.497 259.19 211.497 259.664C211.497 260.155 211.342 260.548 211.031 260.842C210.72 261.136 210.311 261.284 209.804 261.284ZM214.802 275.44V263.394H217.133L217.33 265.013H217.428C217.967 264.49 218.556 264.04 219.194 263.663C219.832 263.287 220.56 263.099 221.378 263.099C222.67 263.099 223.611 263.516 224.199 264.35C224.788 265.185 225.083 266.362 225.083 267.884V275.44H222.261V268.252C222.261 267.254 222.114 266.55 221.819 266.142C221.525 265.733 221.043 265.528 220.372 265.528C219.848 265.528 219.382 265.659 218.973 265.921C218.581 266.166 218.131 266.534 217.624 267.025V275.44H214.802ZM233.684 275.735C232.572 275.735 231.566 275.49 230.666 274.999C229.767 274.492 229.055 273.772 228.532 272.84C228.008 271.891 227.746 270.754 227.746 269.429C227.746 268.121 228.008 266.992 228.532 266.043C229.071 265.095 229.767 264.367 230.617 263.86C231.468 263.353 232.359 263.099 233.291 263.099C234.387 263.099 235.303 263.345 236.039 263.835C236.775 264.31 237.332 264.98 237.708 265.847C238.084 266.698 238.272 267.687 238.272 268.816C238.272 269.405 238.231 269.863 238.149 270.19H230.494C230.625 271.253 231.01 272.079 231.648 272.668C232.286 273.257 233.087 273.551 234.052 273.551C234.575 273.551 235.058 273.478 235.5 273.33C235.958 273.167 236.407 272.946 236.849 272.668L237.806 274.434C237.233 274.811 236.596 275.121 235.892 275.367C235.189 275.612 234.453 275.735 233.684 275.735ZM230.47 268.276H235.819C235.819 267.344 235.614 266.616 235.205 266.092C234.796 265.553 234.183 265.283 233.365 265.283C232.662 265.283 232.032 265.545 231.476 266.068C230.936 266.575 230.601 267.311 230.47 268.276ZM244.328 275.735C243.51 275.735 242.693 275.579 241.875 275.269C241.057 274.942 240.354 274.541 239.765 274.066L241.09 272.251C241.629 272.66 242.169 272.987 242.709 273.232C243.249 273.478 243.821 273.6 244.426 273.6C245.081 273.6 245.563 273.461 245.874 273.183C246.185 272.905 246.34 272.562 246.34 272.153C246.34 271.809 246.209 271.531 245.948 271.319C245.702 271.09 245.383 270.893 244.991 270.73C244.598 270.55 244.189 270.378 243.764 270.214C243.241 270.018 242.717 269.781 242.194 269.503C241.687 269.208 241.27 268.84 240.942 268.399C240.615 267.941 240.452 267.376 240.452 266.706C240.452 265.643 240.844 264.776 241.629 264.105C242.415 263.434 243.478 263.099 244.819 263.099C245.67 263.099 246.43 263.246 247.101 263.541C247.771 263.835 248.352 264.171 248.843 264.547L247.542 266.264C247.117 265.953 246.684 265.708 246.242 265.528C245.817 265.332 245.367 265.234 244.893 265.234C244.287 265.234 243.838 265.365 243.543 265.626C243.249 265.872 243.102 266.182 243.102 266.559C243.102 267.033 243.347 267.393 243.838 267.638C244.328 267.884 244.901 268.121 245.555 268.35C246.111 268.546 246.651 268.791 247.174 269.086C247.698 269.364 248.131 269.732 248.475 270.19C248.835 270.648 249.015 271.253 249.015 272.005C249.015 273.036 248.614 273.919 247.812 274.655C247.011 275.375 245.85 275.735 244.328 275.735Z" fill="#AEB3BD"/>
<defs>
<linearGradient id="paint0_linear_444_645" x1="156.74" y1="68.0487" x2="156.74" y2="123.461" gradientUnits="userSpaceOnUse">
<stop offset="0.385417" stop-color="#FFCC33"/>
<stop offset="0.71875" stop-color="#FFAD33"/>
</linearGradient>
<linearGradient id="paint1_linear_444_645" x1="156.74" y1="68.0487" x2="156.74" y2="123.461" gradientUnits="userSpaceOnUse">
<stop offset="0.385417" stop-color="#FFCC33"/>
<stop offset="0.71875" stop-color="#FFAD33"/>
</linearGradient>
<linearGradient id="paint2_linear_444_645" x1="156.74" y1="68.0487" x2="156.74" y2="123.461" gradientUnits="userSpaceOnUse">
<stop offset="0.385417" stop-color="#FFCC33"/>
<stop offset="0.71875" stop-color="#FFAD33"/>
</linearGradient>
</defs>
</svg>
