<svg width="314" height="320" viewBox="0 0 314 320" fill="none" xmlns="http://www.w3.org/2000/svg">
<path d="M0.864258 18.5167C0.864258 8.35383 9.10287 0.115234 19.2657 0.115234H295.288C305.451 0.115234 313.689 8.35385 313.689 18.5167V300.673C313.689 310.835 305.451 319.074 295.288 319.074H19.2657C9.10285 319.074 0.864258 310.835 0.864258 300.672V18.5167Z" fill="#FAFAFA"/>
<rect x="102.179" y="36.9182" width="110.195" height="110.195" rx="55.0975" fill="#15151F" fill-opacity="0.04"/>
<path d="M134.129 75.613C134.14 75.3396 134.441 75.1789 134.675 75.3214L136.169 76.2333C136.326 76.3296 136.531 76.2901 136.644 76.1438C141.403 69.975 148.875 65.9973 157.277 65.9973C171.315 65.9973 182.758 77.098 183.295 90.994C183.316 91.5571 182.857 92.0156 182.293 92.0156H181.272C180.708 92.0156 180.253 91.5577 180.229 90.9947C179.694 78.7894 169.623 69.0583 157.277 69.0583C150.012 69.0583 143.533 72.4274 139.322 77.692C139.188 77.8589 139.234 78.1043 139.416 78.2156L140.903 79.1232C141.137 79.2658 141.131 79.6071 140.893 79.742L134.355 83.4424C134.11 83.5811 133.808 83.3966 133.819 83.1152L134.129 75.613Z" fill="url(#paint0_linear_444_596)"/>
<path d="M134.325 93.0364C134.301 92.4735 133.846 92.0156 133.282 92.0156H132.261C131.697 92.0156 131.238 92.474 131.26 93.0371C131.796 106.933 143.239 118.034 157.277 118.034C165.703 118.034 173.192 114.034 177.95 107.836C178.062 107.689 178.268 107.649 178.426 107.746L179.955 108.679C180.189 108.822 180.489 108.661 180.501 108.387L180.811 100.885C180.822 100.604 180.52 100.419 180.275 100.558L173.737 104.259C173.499 104.393 173.493 104.735 173.727 104.877L175.179 105.764C175.361 105.875 175.407 106.12 175.274 106.287C171.064 111.581 164.566 114.973 157.277 114.973C144.931 114.973 134.86 105.242 134.325 93.0364Z" fill="url(#paint1_linear_444_596)"/>
<path d="M156.685 75.0746C157.18 74.3389 158.328 74.6887 158.328 75.575V87.1183C158.328 87.9113 158.971 88.5541 159.764 88.5541H168.834C169.983 88.5541 170.667 89.8366 170.026 90.7905L157.825 108.957C157.331 109.692 156.183 109.342 156.183 108.456V96.9128C156.183 96.1198 155.54 95.477 154.747 95.477H145.676C144.527 95.477 143.844 94.1945 144.484 93.2406L156.685 75.0746Z" fill="url(#paint2_linear_444_596)"/>
<path d="M66.1104 188.045L64.9695 191.688H72.1828L71.042 188.045C70.1587 185.358 69.3858 182.708 68.613 179.911H68.4657C67.7297 182.708 66.9568 185.358 66.1104 188.045ZM58.713 201.515L66.8464 177.372H70.3795L78.5129 201.515H75.2375L72.9557 194.191H64.1598L61.8412 201.515H58.713ZM86.6496 201.956C82.8589 201.956 81.1659 199.527 81.1659 194.964V183.628H84.2206V194.559C84.2206 197.871 85.251 199.306 87.6064 199.306C89.4098 199.306 90.6979 198.386 92.354 196.289V183.628H95.4087V201.515H92.9061L92.6484 198.718H92.538C90.8819 200.668 89.1154 201.956 86.6496 201.956ZM107.073 201.956C103.246 201.956 101.958 199.527 101.958 195.957V186.094H99.3077V183.812L102.105 183.628L102.473 177.887H105.012V183.628H109.87V186.094H105.012V196.031C105.012 198.202 105.748 199.454 107.772 199.454C108.435 199.454 109.097 199.343 109.833 199.012L110.459 201.183C109.502 201.625 108.288 201.956 107.073 201.956ZM120.366 201.956C115.987 201.956 112.086 198.534 112.086 192.608C112.086 186.609 115.987 183.187 120.366 183.187C124.746 183.187 128.684 186.609 128.684 192.608C128.684 198.534 124.746 201.956 120.366 201.956ZM120.366 199.417C123.458 199.417 125.519 196.693 125.519 192.608C125.519 188.486 123.458 185.726 120.366 185.726C117.312 185.726 115.251 188.486 115.251 192.608C115.251 196.693 117.312 199.417 120.366 199.417ZM133.357 201.515V183.628H135.86L136.118 186.205H136.228C137.811 184.512 139.651 183.187 141.785 183.187C144.545 183.187 146.018 184.475 146.754 186.573C148.594 184.585 150.471 183.187 152.642 183.187C156.322 183.187 158.089 185.616 158.089 190.179V201.515H155.034V190.584C155.034 187.235 153.967 185.837 151.722 185.837C150.324 185.837 148.888 186.72 147.232 188.56V201.515H144.177V190.584C144.177 187.235 143.147 185.837 140.865 185.837C139.54 185.837 138.068 186.72 136.412 188.56V201.515H133.357ZM167.993 201.956C165.012 201.956 162.767 200.116 162.767 196.877C162.767 192.903 166.079 190.989 173.734 190.143C173.697 187.898 172.961 185.726 170.054 185.726C167.993 185.726 166.116 186.646 164.717 187.566L163.539 185.505C165.196 184.401 167.698 183.187 170.569 183.187C174.912 183.187 176.789 186.094 176.789 190.511V201.515H174.286L173.992 199.38H173.881C172.188 200.815 170.238 201.956 167.993 201.956ZM168.839 199.454C170.569 199.454 172.004 198.681 173.734 197.172V192.314C167.698 193.013 165.748 194.375 165.748 196.693C165.748 198.681 167.109 199.454 168.839 199.454ZM187.544 201.956C183.716 201.956 182.428 199.527 182.428 195.957V186.094H179.778V183.812L182.575 183.628L182.943 177.887H185.483V183.628H190.341V186.094H185.483V196.031C185.483 198.202 186.219 199.454 188.243 199.454C188.905 199.454 189.568 199.343 190.304 199.012L190.929 201.183C189.973 201.625 188.758 201.956 187.544 201.956ZM194.384 201.515V183.628H197.439V201.515H194.384ZM195.93 179.948C194.752 179.948 193.906 179.175 193.906 177.961C193.906 176.783 194.752 175.973 195.93 175.973C197.107 175.973 197.954 176.783 197.954 177.961C197.954 179.175 197.107 179.948 195.93 179.948ZM210.433 201.956C206.053 201.956 202.152 198.534 202.152 192.608C202.152 186.609 206.053 183.187 210.433 183.187C214.812 183.187 218.75 186.609 218.75 192.608C218.75 198.534 214.812 201.956 210.433 201.956ZM210.433 199.417C213.524 199.417 215.585 196.693 215.585 192.608C215.585 188.486 213.524 185.726 210.433 185.726C207.378 185.726 205.317 188.486 205.317 192.608C205.317 196.693 207.378 199.417 210.433 199.417ZM223.424 201.515V183.628H225.926L226.184 186.205H226.295C227.987 184.512 229.828 183.187 232.293 183.187C236.084 183.187 237.777 185.616 237.777 190.179V201.515H234.722V190.584C234.722 187.235 233.692 185.837 231.337 185.837C229.533 185.837 228.245 186.757 226.479 188.56V201.515H223.424ZM248.224 201.956C245.611 201.956 243.219 200.999 241.563 199.38L242.962 197.614C244.507 198.902 246.127 199.564 248.335 199.564C250.69 199.564 251.831 198.35 251.831 196.804C251.831 194.964 249.844 194.191 247.82 193.455C245.133 192.498 242.557 191.21 242.557 188.266C242.557 185.395 244.839 183.187 248.74 183.187C250.985 183.187 252.898 184.033 254.297 185.211L252.898 186.977C251.647 186.057 250.359 185.542 248.777 185.542C246.495 185.542 245.501 186.793 245.501 188.118C245.501 189.738 247.047 190.4 249.292 191.173C252.089 192.167 254.775 193.381 254.775 196.62C254.775 199.527 252.457 201.956 248.224 201.956Z" fill="#676D78"/>
<path d="M67.6334 245.92V232.278H62.9962V229.874H75.1167V232.278H70.4795V245.92H67.6334ZM76.465 245.92V233.873H78.7958L78.9921 236.008H79.0902C79.5155 235.223 80.0308 234.626 80.636 234.217C81.2412 233.791 81.8627 233.579 82.5006 233.579C83.0731 233.579 83.5311 233.66 83.8746 233.824L83.3839 236.278C83.1713 236.212 82.975 236.163 82.7951 236.13C82.6151 236.098 82.3943 236.081 82.1326 236.081C81.6583 236.081 81.1594 236.269 80.636 236.646C80.1125 237.005 79.6627 237.643 79.2865 238.559V245.92H76.465ZM85.6178 245.92V233.873H88.4393V245.92H85.6178ZM87.0408 231.763C86.5338 231.763 86.1248 231.616 85.8141 231.321C85.5033 231.027 85.3479 230.634 85.3479 230.144C85.3479 229.669 85.5033 229.285 85.8141 228.991C86.1248 228.696 86.5338 228.549 87.0408 228.549C87.5479 228.549 87.9568 228.696 88.2676 228.991C88.5784 229.285 88.7338 229.669 88.7338 230.144C88.7338 230.634 88.5784 231.027 88.2676 231.321C87.9568 231.616 87.5479 231.763 87.0408 231.763ZM96.2347 251.244C95.286 251.244 94.4272 251.13 93.6585 250.901C92.906 250.672 92.309 250.32 91.8674 249.846C91.4421 249.388 91.2295 248.807 91.2295 248.104C91.2295 247.106 91.8019 246.247 92.9469 245.527V245.429C92.6361 245.233 92.3744 244.971 92.1618 244.644C91.9655 244.317 91.8674 243.908 91.8674 243.417C91.8674 242.943 91.9982 242.518 92.2599 242.141C92.538 241.749 92.8488 241.43 93.1923 241.185V241.086C92.7834 240.776 92.4153 240.342 92.0882 239.786C91.7774 239.23 91.622 238.6 91.622 237.897C91.622 236.965 91.8428 236.179 92.2845 235.541C92.7261 234.904 93.3068 234.421 94.0265 234.094C94.7625 233.75 95.5477 233.579 96.3819 233.579C96.709 233.579 97.0198 233.611 97.3142 233.677C97.625 233.726 97.9031 233.791 98.1484 233.873H102.467V235.959H100.258C100.455 236.188 100.618 236.482 100.749 236.842C100.88 237.185 100.945 237.57 100.945 237.995C100.945 238.878 100.741 239.631 100.332 240.252C99.9231 240.857 99.3752 241.315 98.6882 241.626C98.0012 241.937 97.2324 242.092 96.3819 242.092C96.1202 242.092 95.8503 242.068 95.5722 242.019C95.2941 241.97 95.0161 241.888 94.738 241.773C94.5581 241.937 94.4109 242.101 94.2964 242.264C94.1982 242.428 94.1492 242.649 94.1492 242.927C94.1492 243.27 94.2882 243.54 94.5663 243.736C94.8607 243.933 95.3759 244.031 96.112 244.031H98.2465C99.7023 244.031 100.798 244.268 101.534 244.742C102.287 245.2 102.663 245.953 102.663 246.999C102.663 247.785 102.401 248.496 101.878 249.134C101.354 249.788 100.61 250.304 99.6451 250.68C98.68 251.056 97.5432 251.244 96.2347 251.244ZM96.3819 240.326C96.9544 240.326 97.4451 240.113 97.854 239.688C98.2629 239.263 98.4674 238.666 98.4674 237.897C98.4674 237.144 98.2629 236.564 97.854 236.155C97.4614 235.73 96.9707 235.517 96.3819 235.517C95.793 235.517 95.2941 235.721 94.8852 236.13C94.4763 236.539 94.2718 237.128 94.2718 237.897C94.2718 238.666 94.4763 239.263 94.8852 239.688C95.2941 240.113 95.793 240.326 96.3819 240.326ZM96.6763 249.404C97.6413 249.404 98.4265 249.208 99.0317 248.815C99.6369 248.423 99.9395 247.973 99.9395 247.466C99.9395 246.991 99.7514 246.672 99.3752 246.509C99.0153 246.345 98.4919 246.263 97.8049 246.263H96.1611C95.5068 246.263 94.9588 246.206 94.5172 246.092C93.8956 246.566 93.5848 247.098 93.5848 247.686C93.5848 248.226 93.8629 248.643 94.419 248.938C94.9752 249.249 95.7276 249.404 96.6763 249.404ZM108.981 251.244C108.033 251.244 107.174 251.13 106.405 250.901C105.653 250.672 105.056 250.32 104.614 249.846C104.189 249.388 103.976 248.807 103.976 248.104C103.976 247.106 104.549 246.247 105.694 245.527V245.429C105.383 245.233 105.121 244.971 104.909 244.644C104.712 244.317 104.614 243.908 104.614 243.417C104.614 242.943 104.745 242.518 105.007 242.141C105.285 241.749 105.596 241.43 105.939 241.185V241.086C105.53 240.776 105.162 240.342 104.835 239.786C104.524 239.23 104.369 238.6 104.369 237.897C104.369 236.965 104.59 236.179 105.031 235.541C105.473 234.904 106.054 234.421 106.773 234.094C107.509 233.75 108.295 233.579 109.129 233.579C109.456 233.579 109.767 233.611 110.061 233.677C110.372 233.726 110.65 233.791 110.895 233.873H115.213V235.959H113.005C113.202 236.188 113.365 236.482 113.496 236.842C113.627 237.185 113.692 237.57 113.692 237.995C113.692 238.878 113.488 239.631 113.079 240.252C112.67 240.857 112.122 241.315 111.435 241.626C110.748 241.937 109.979 242.092 109.129 242.092C108.867 242.092 108.597 242.068 108.319 242.019C108.041 241.97 107.763 241.888 107.485 241.773C107.305 241.937 107.158 242.101 107.043 242.264C106.945 242.428 106.896 242.649 106.896 242.927C106.896 243.27 107.035 243.54 107.313 243.736C107.608 243.933 108.123 244.031 108.859 244.031H110.993C112.449 244.031 113.545 244.268 114.281 244.742C115.034 245.2 115.41 245.953 115.41 246.999C115.41 247.785 115.148 248.496 114.625 249.134C114.101 249.788 113.357 250.304 112.392 250.68C111.427 251.056 110.29 251.244 108.981 251.244ZM109.129 240.326C109.701 240.326 110.192 240.113 110.601 239.688C111.01 239.263 111.214 238.666 111.214 237.897C111.214 237.144 111.01 236.564 110.601 236.155C110.208 235.73 109.718 235.517 109.129 235.517C108.54 235.517 108.041 235.721 107.632 236.13C107.223 236.539 107.019 237.128 107.019 237.897C107.019 238.666 107.223 239.263 107.632 239.688C108.041 240.113 108.54 240.326 109.129 240.326ZM109.423 249.404C110.388 249.404 111.173 249.208 111.779 248.815C112.384 248.423 112.686 247.973 112.686 247.466C112.686 246.991 112.498 246.672 112.122 246.509C111.762 246.345 111.239 246.263 110.552 246.263H108.908C108.254 246.263 107.706 246.206 107.264 246.092C106.642 246.566 106.332 247.098 106.332 247.686C106.332 248.226 106.61 248.643 107.166 248.938C107.722 249.249 108.474 249.404 109.423 249.404ZM122.302 246.214C121.19 246.214 120.184 245.969 119.284 245.478C118.384 244.971 117.673 244.252 117.149 243.319C116.626 242.37 116.364 241.234 116.364 239.909C116.364 238.6 116.626 237.472 117.149 236.523C117.689 235.574 118.384 234.846 119.235 234.339C120.085 233.832 120.977 233.579 121.909 233.579C123.005 233.579 123.921 233.824 124.657 234.315C125.393 234.789 125.949 235.46 126.326 236.327C126.702 237.177 126.89 238.167 126.89 239.295C126.89 239.884 126.849 240.342 126.767 240.669H119.112C119.243 241.733 119.628 242.559 120.265 243.147C120.903 243.736 121.705 244.031 122.67 244.031C123.193 244.031 123.676 243.957 124.117 243.81C124.575 243.646 125.025 243.426 125.467 243.147L126.424 244.914C125.851 245.29 125.213 245.601 124.51 245.846C123.807 246.092 123.071 246.214 122.302 246.214ZM119.088 238.756H124.436C124.436 237.823 124.232 237.095 123.823 236.572C123.414 236.032 122.801 235.762 121.983 235.762C121.28 235.762 120.65 236.024 120.094 236.547C119.554 237.055 119.219 237.791 119.088 238.756ZM129.585 245.92V233.873H131.916L132.112 236.008H132.21C132.635 235.223 133.151 234.626 133.756 234.217C134.361 233.791 134.983 233.579 135.62 233.579C136.193 233.579 136.651 233.66 136.994 233.824L136.504 236.278C136.291 236.212 136.095 236.163 135.915 236.13C135.735 236.098 135.514 236.081 135.252 236.081C134.778 236.081 134.279 236.269 133.756 236.646C133.232 237.005 132.783 237.643 132.406 238.559V245.92H129.585ZM145.637 245.92L142.447 233.873H145.293L146.741 240.13C146.872 240.702 146.978 241.275 147.06 241.847C147.158 242.42 147.264 243 147.379 243.589H147.477C147.591 243 147.706 242.42 147.82 241.847C147.951 241.258 148.09 240.686 148.238 240.13L149.808 233.873H152.384L153.979 240.13C154.126 240.702 154.265 241.275 154.396 241.847C154.527 242.42 154.658 243 154.788 243.589H154.887C155.001 243 155.107 242.42 155.206 241.847C155.304 241.275 155.41 240.702 155.525 240.13L156.972 233.873H159.622L156.555 245.92H153.194L151.795 240.301C151.664 239.729 151.542 239.165 151.427 238.608C151.313 238.036 151.19 237.431 151.059 236.793H150.961C150.846 237.431 150.732 238.036 150.617 238.608C150.503 239.181 150.38 239.753 150.249 240.326L148.875 245.92H145.637ZM166.791 246.214C165.793 246.214 164.861 245.969 163.994 245.478C163.127 244.971 162.424 244.252 161.884 243.319C161.344 242.37 161.074 241.234 161.074 239.909C161.074 238.568 161.344 237.431 161.884 236.498C162.424 235.55 163.127 234.83 163.994 234.339C164.861 233.832 165.793 233.579 166.791 233.579C167.805 233.579 168.745 233.832 169.612 234.339C170.479 234.83 171.183 235.55 171.722 236.498C172.262 237.431 172.532 238.568 172.532 239.909C172.532 241.234 172.262 242.37 171.722 243.319C171.183 244.252 170.479 244.971 169.612 245.478C168.745 245.969 167.805 246.214 166.791 246.214ZM166.791 243.908C167.674 243.908 168.369 243.54 168.876 242.804C169.383 242.068 169.637 241.103 169.637 239.909C169.637 238.698 169.383 237.725 168.876 236.989C168.369 236.253 167.674 235.885 166.791 235.885C165.908 235.885 165.212 236.253 164.705 236.989C164.215 237.725 163.969 238.698 163.969 239.909C163.969 241.103 164.215 242.068 164.705 242.804C165.212 243.54 165.908 243.908 166.791 243.908ZM175.325 245.92V233.873H177.656L177.852 236.008H177.95C178.375 235.223 178.891 234.626 179.496 234.217C180.101 233.791 180.723 233.579 181.361 233.579C181.933 233.579 182.391 233.66 182.735 233.824L182.244 236.278C182.031 236.212 181.835 236.163 181.655 236.13C181.475 236.098 181.254 236.081 180.993 236.081C180.518 236.081 180.019 236.269 179.496 236.646C178.972 237.005 178.523 237.643 178.146 238.559V245.92H175.325ZM184.478 245.92V228.598H187.25V239.418H187.324L191.789 233.873H194.881L190.759 238.78L195.298 245.92H192.231L189.139 240.694L187.25 242.853V245.92H184.478ZM197.787 245.92V236.106H196.168V233.996L197.787 233.873V232.622C197.787 231.362 198.098 230.332 198.719 229.53C199.341 228.713 200.363 228.304 201.786 228.304C202.212 228.304 202.621 228.344 203.013 228.426C203.406 228.508 203.733 228.606 203.995 228.721L203.455 230.831C203.013 230.634 202.572 230.536 202.13 230.536C201.116 230.536 200.609 231.215 200.609 232.573V233.873H202.964V236.106H200.609V245.92H197.787ZM207.831 246.214C206.834 246.214 206.122 245.912 205.697 245.307C205.288 244.701 205.084 243.875 205.084 242.828V228.598H207.905V242.976C207.905 243.319 207.971 243.565 208.101 243.712C208.232 243.843 208.371 243.908 208.518 243.908C208.584 243.908 208.641 243.908 208.69 243.908C208.756 243.892 208.846 243.875 208.96 243.859L209.328 245.969C209.165 246.034 208.952 246.092 208.69 246.141C208.445 246.19 208.159 246.214 207.831 246.214ZM216.676 246.214C215.678 246.214 214.746 245.969 213.879 245.478C213.012 244.971 212.309 244.252 211.769 243.319C211.229 242.37 210.959 241.234 210.959 239.909C210.959 238.568 211.229 237.431 211.769 236.498C212.309 235.55 213.012 234.83 213.879 234.339C214.746 233.832 215.678 233.579 216.676 233.579C217.69 233.579 218.631 233.832 219.498 234.339C220.365 234.83 221.068 235.55 221.608 236.498C222.147 237.431 222.417 238.568 222.417 239.909C222.417 241.234 222.147 242.37 221.608 243.319C221.068 244.252 220.365 244.971 219.498 245.478C218.631 245.969 217.69 246.214 216.676 246.214ZM216.676 243.908C217.559 243.908 218.255 243.54 218.762 242.804C219.269 242.068 219.522 241.103 219.522 239.909C219.522 238.698 219.269 237.725 218.762 236.989C218.255 236.253 217.559 235.885 216.676 235.885C215.793 235.885 215.098 236.253 214.591 236.989C214.1 237.725 213.855 238.698 213.855 239.909C213.855 241.103 214.1 242.068 214.591 242.804C215.098 243.54 215.793 243.908 216.676 243.908ZM227.054 245.92L223.864 233.873H226.71L228.158 240.13C228.289 240.702 228.395 241.275 228.477 241.847C228.575 242.42 228.681 243 228.796 243.589H228.894C229.008 243 229.123 242.42 229.237 241.847C229.368 241.258 229.507 240.686 229.654 240.13L231.225 233.873H233.801L235.396 240.13C235.543 240.702 235.682 241.275 235.813 241.847C235.944 242.42 236.075 243 236.205 243.589H236.304C236.418 243 236.524 242.42 236.622 241.847C236.721 241.275 236.827 240.702 236.941 240.13L238.389 233.873H241.039L237.972 245.92H234.611L233.212 240.301C233.081 239.729 232.959 239.165 232.844 238.608C232.73 238.036 232.607 237.431 232.476 236.793H232.378C232.263 237.431 232.149 238.036 232.034 238.608C231.92 239.181 231.797 239.753 231.666 240.326L230.292 245.92H227.054ZM246.781 246.214C245.963 246.214 245.146 246.059 244.328 245.748C243.51 245.421 242.807 245.02 242.218 244.546L243.543 242.73C244.082 243.139 244.622 243.466 245.162 243.712C245.702 243.957 246.274 244.08 246.879 244.08C247.534 244.08 248.016 243.941 248.327 243.663C248.638 243.385 248.793 243.041 248.793 242.632C248.793 242.289 248.662 242.011 248.401 241.798C248.155 241.569 247.836 241.373 247.444 241.209C247.051 241.029 246.642 240.857 246.217 240.694C245.693 240.498 245.17 240.26 244.647 239.982C244.14 239.688 243.722 239.32 243.395 238.878C243.068 238.42 242.905 237.856 242.905 237.185C242.905 236.122 243.297 235.255 244.082 234.585C244.867 233.914 245.931 233.579 247.272 233.579C248.122 233.579 248.883 233.726 249.554 234.02C250.224 234.315 250.805 234.65 251.296 235.026L249.995 236.744C249.57 236.433 249.137 236.188 248.695 236.008C248.27 235.811 247.82 235.713 247.346 235.713C246.74 235.713 246.291 235.844 245.996 236.106C245.702 236.351 245.554 236.662 245.554 237.038C245.554 237.512 245.8 237.872 246.291 238.118C246.781 238.363 247.354 238.6 248.008 238.829C248.564 239.026 249.104 239.271 249.627 239.565C250.151 239.843 250.584 240.211 250.928 240.669C251.288 241.127 251.467 241.733 251.467 242.485C251.467 243.515 251.067 244.399 250.265 245.135C249.464 245.854 248.302 246.214 246.781 246.214ZM89.1485 275.214C88.1016 275.214 87.2429 274.887 86.5723 274.233C85.918 273.579 85.5908 272.728 85.5908 271.681C85.5908 270.389 86.1552 269.391 87.2838 268.688C88.4124 267.968 90.2117 267.478 92.6815 267.216C92.6652 266.578 92.4934 266.03 92.1663 265.572C91.8555 265.098 91.2912 264.86 90.4734 264.86C89.8845 264.86 89.3039 264.975 88.7314 265.204C88.1752 265.433 87.6273 265.711 87.0875 266.038L86.057 264.149C86.7277 263.724 87.4801 263.356 88.3143 263.045C89.1648 262.734 90.0644 262.579 91.0131 262.579C92.518 262.579 93.6384 263.028 94.3745 263.928C95.1269 264.811 95.5031 266.095 95.5031 267.78V274.92H93.1723L92.976 273.595H92.8778C92.3381 274.053 91.7574 274.437 91.1358 274.748C90.5306 275.059 89.8682 275.214 89.1485 275.214ZM90.0563 273.006C90.547 273.006 90.9886 272.892 91.3812 272.663C91.7901 272.417 92.2236 272.09 92.6815 271.681V268.982C91.0459 269.195 89.9091 269.514 89.2711 269.939C88.6332 270.348 88.3143 270.855 88.3143 271.46C88.3143 272 88.4778 272.393 88.805 272.638C89.1321 272.883 89.5492 273.006 90.0563 273.006ZM102.462 275.214C101.17 275.214 100.229 274.797 99.6404 273.963C99.0515 273.129 98.7571 271.951 98.7571 270.43V262.873H101.579V270.062C101.579 271.06 101.726 271.763 102.02 272.172C102.315 272.581 102.789 272.785 103.443 272.785C103.967 272.785 104.425 272.654 104.817 272.393C105.226 272.131 105.66 271.706 106.118 271.117V262.873H108.939V274.92H106.633L106.412 273.153H106.339C105.815 273.775 105.243 274.274 104.621 274.65C103.999 275.026 103.28 275.214 102.462 275.214ZM116.758 275.214C115.367 275.214 114.378 274.814 113.789 274.012C113.216 273.194 112.93 272.139 112.93 270.847V265.106H111.213V262.996L113.077 262.873L113.421 259.585H115.776V262.873H118.843V265.106H115.776V270.847C115.776 272.254 116.341 272.957 117.469 272.957C117.682 272.957 117.903 272.933 118.132 272.883C118.361 272.818 118.557 272.753 118.721 272.687L119.211 274.773C118.884 274.887 118.508 274.985 118.083 275.067C117.674 275.165 117.232 275.214 116.758 275.214ZM125.927 275.214C124.929 275.214 123.997 274.969 123.13 274.478C122.263 273.971 121.559 273.252 121.02 272.319C120.48 271.37 120.21 270.234 120.21 268.909C120.21 267.568 120.48 266.431 121.02 265.498C121.559 264.55 122.263 263.83 123.13 263.339C123.997 262.832 124.929 262.579 125.927 262.579C126.941 262.579 127.881 262.832 128.748 263.339C129.615 263.83 130.318 264.55 130.858 265.498C131.398 266.431 131.668 267.568 131.668 268.909C131.668 270.234 131.398 271.37 130.858 272.319C130.318 273.252 129.615 273.971 128.748 274.478C127.881 274.969 126.941 275.214 125.927 275.214ZM125.927 272.908C126.81 272.908 127.505 272.54 128.012 271.804C128.519 271.068 128.773 270.103 128.773 268.909C128.773 267.698 128.519 266.725 128.012 265.989C127.505 265.253 126.81 264.885 125.927 264.885C125.043 264.885 124.348 265.253 123.841 265.989C123.35 266.725 123.105 267.698 123.105 268.909C123.105 270.103 123.35 271.068 123.841 271.804C124.348 272.54 125.043 272.908 125.927 272.908ZM134.461 274.92V262.873H136.792L136.988 264.517H137.086C137.593 263.977 138.141 263.519 138.73 263.143C139.335 262.767 140.014 262.579 140.766 262.579C141.65 262.579 142.353 262.775 142.876 263.168C143.416 263.544 143.825 264.067 144.103 264.738C144.676 264.116 145.273 263.601 145.894 263.192C146.532 262.783 147.227 262.579 147.98 262.579C149.255 262.579 150.196 262.996 150.801 263.83C151.406 264.664 151.709 265.842 151.709 267.363V274.92H148.863V267.731C148.863 266.733 148.708 266.03 148.397 265.621C148.102 265.212 147.644 265.008 147.023 265.008C146.27 265.008 145.428 265.507 144.496 266.504V274.92H141.674V267.731C141.674 266.733 141.519 266.03 141.208 265.621C140.914 265.212 140.447 265.008 139.809 265.008C139.057 265.008 138.215 265.507 137.282 266.504V274.92H134.461ZM158.058 275.214C157.011 275.214 156.153 274.887 155.482 274.233C154.828 273.579 154.5 272.728 154.5 271.681C154.5 270.389 155.065 269.391 156.193 268.688C157.322 267.968 159.121 267.478 161.591 267.216C161.575 266.578 161.403 266.03 161.076 265.572C160.765 265.098 160.201 264.86 159.383 264.86C158.794 264.86 158.213 264.975 157.641 265.204C157.085 265.433 156.537 265.711 155.997 266.038L154.967 264.149C155.637 263.724 156.39 263.356 157.224 263.045C158.074 262.734 158.974 262.579 159.923 262.579C161.428 262.579 162.548 263.028 163.284 263.928C164.037 264.811 164.413 266.095 164.413 267.78V274.92H162.082L161.886 273.595H161.787C161.248 274.053 160.667 274.437 160.045 274.748C159.44 275.059 158.778 275.214 158.058 275.214ZM158.966 273.006C159.457 273.006 159.898 272.892 160.291 272.663C160.7 272.417 161.133 272.09 161.591 271.681V268.982C159.955 269.195 158.819 269.514 158.181 269.939C157.543 270.348 157.224 270.855 157.224 271.46C157.224 272 157.387 272.393 157.715 272.638C158.042 272.883 158.459 273.006 158.966 273.006ZM171.651 275.214C170.26 275.214 169.271 274.814 168.682 274.012C168.109 273.194 167.823 272.139 167.823 270.847V265.106H166.106V262.996L167.97 262.873L168.314 259.585H170.669V262.873H173.736V265.106H170.669V270.847C170.669 272.254 171.234 272.957 172.362 272.957C172.575 272.957 172.796 272.933 173.025 272.883C173.254 272.818 173.45 272.753 173.613 272.687L174.104 274.773C173.777 274.887 173.401 274.985 172.976 275.067C172.567 275.165 172.125 275.214 171.651 275.214ZM176.271 274.92V262.873H179.093V274.92H176.271ZM177.694 260.763C177.187 260.763 176.778 260.616 176.468 260.321C176.157 260.027 176.001 259.634 176.001 259.144C176.001 258.669 176.157 258.285 176.468 257.991C176.778 257.696 177.187 257.549 177.694 257.549C178.201 257.549 178.61 257.696 178.921 257.991C179.232 258.285 179.387 258.669 179.387 259.144C179.387 259.634 179.232 260.027 178.921 260.321C178.61 260.616 178.201 260.763 177.694 260.763ZM187.722 275.214C186.627 275.214 185.637 274.969 184.754 274.478C183.887 273.971 183.192 273.252 182.668 272.319C182.161 271.37 181.908 270.234 181.908 268.909C181.908 267.568 182.186 266.431 182.742 265.498C183.298 264.55 184.034 263.83 184.95 263.339C185.882 262.832 186.88 262.579 187.943 262.579C188.712 262.579 189.383 262.71 189.955 262.971C190.528 263.233 191.035 263.552 191.476 263.928L190.102 265.768C189.792 265.49 189.473 265.278 189.145 265.13C188.818 264.967 188.467 264.885 188.09 264.885C187.125 264.885 186.332 265.253 185.711 265.989C185.105 266.725 184.803 267.698 184.803 268.909C184.803 270.103 185.097 271.068 185.686 271.804C186.291 272.54 187.068 272.908 188.017 272.908C188.491 272.908 188.933 272.81 189.342 272.614C189.767 272.401 190.151 272.156 190.495 271.878L191.648 273.742C191.092 274.233 190.47 274.601 189.783 274.846C189.096 275.092 188.409 275.214 187.722 275.214ZM196.706 275.214C195.659 275.214 194.8 274.887 194.13 274.233C193.475 273.579 193.148 272.728 193.148 271.681C193.148 270.389 193.713 269.391 194.841 268.688C195.97 267.968 197.769 267.478 200.239 267.216C200.223 266.578 200.051 266.03 199.724 265.572C199.413 265.098 198.849 264.86 198.031 264.86C197.442 264.86 196.861 264.975 196.289 265.204C195.733 265.433 195.185 265.711 194.645 266.038L193.615 264.149C194.285 263.724 195.038 263.356 195.872 263.045C196.722 262.734 197.622 262.579 198.571 262.579C200.075 262.579 201.196 263.028 201.932 263.928C202.684 264.811 203.061 266.095 203.061 267.78V274.92H200.73L200.533 273.595H200.435C199.896 274.053 199.315 274.437 198.693 274.748C198.088 275.059 197.426 275.214 196.706 275.214ZM197.614 273.006C198.104 273.006 198.546 272.892 198.939 272.663C199.348 272.417 199.781 272.09 200.239 271.681V268.982C198.603 269.195 197.467 269.514 196.829 269.939C196.191 270.348 195.872 270.855 195.872 271.46C195.872 272 196.035 272.393 196.362 272.638C196.69 272.883 197.107 273.006 197.614 273.006ZM209.185 275.214C208.187 275.214 207.476 274.912 207.051 274.307C206.642 273.701 206.437 272.875 206.437 271.828V257.598H209.259V271.976C209.259 272.319 209.324 272.565 209.455 272.712C209.586 272.843 209.725 272.908 209.872 272.908C209.938 272.908 209.995 272.908 210.044 272.908C210.109 272.892 210.199 272.875 210.314 272.859L210.682 274.969C210.518 275.034 210.306 275.092 210.044 275.141C209.799 275.19 209.512 275.214 209.185 275.214ZM215.846 275.214C214.848 275.214 214.137 274.912 213.712 274.307C213.303 273.701 213.098 272.875 213.098 271.828V257.598H215.92V271.976C215.92 272.319 215.985 272.565 216.116 272.712C216.247 272.843 216.386 272.908 216.533 272.908C216.599 272.908 216.656 272.908 216.705 272.908C216.77 272.892 216.86 272.875 216.975 272.859L217.343 274.969C217.179 275.034 216.967 275.092 216.705 275.141C216.46 275.19 216.173 275.214 215.846 275.214ZM220.569 279.876C220.242 279.876 219.955 279.852 219.71 279.802C219.465 279.753 219.228 279.696 218.999 279.631L219.514 277.423C219.628 277.455 219.759 277.488 219.906 277.521C220.07 277.57 220.225 277.594 220.373 277.594C221.01 277.594 221.518 277.398 221.894 277.005C222.286 276.629 222.581 276.139 222.777 275.533L222.998 274.773L218.263 262.873H221.133L223.219 268.786C223.399 269.31 223.57 269.866 223.734 270.455C223.914 271.027 224.094 271.599 224.274 272.172H224.372C224.519 271.616 224.666 271.052 224.813 270.479C224.977 269.89 225.132 269.326 225.28 268.786L227.095 262.873H229.819L225.451 275.46C224.944 276.817 224.331 277.889 223.611 278.674C222.891 279.475 221.877 279.876 220.569 279.876Z" fill="#AEB3BD"/>
<defs>
<linearGradient id="paint0_linear_444_596" x1="156.746" y1="65.9973" x2="156.746" y2="124.873" gradientUnits="userSpaceOnUse">
<stop offset="0.385417" stop-color="#FFCC33"/>
<stop offset="0.71875" stop-color="#FFAD33"/>
</linearGradient>
<linearGradient id="paint1_linear_444_596" x1="156.746" y1="65.9973" x2="156.746" y2="124.873" gradientUnits="userSpaceOnUse">
<stop offset="0.385417" stop-color="#FFCC33"/>
<stop offset="0.71875" stop-color="#FFAD33"/>
</linearGradient>
<linearGradient id="paint2_linear_444_596" x1="156.746" y1="65.9973" x2="156.746" y2="124.873" gradientUnits="userSpaceOnUse">
<stop offset="0.385417" stop-color="#FFCC33"/>
<stop offset="0.71875" stop-color="#FFAD33"/>
</linearGradient>
</defs>
</svg>
