<svg width="313" height="319" viewBox="0 0 313 319" fill="none" xmlns="http://www.w3.org/2000/svg">
<path d="M0.339355 18.4924C0.339355 8.33924 8.57009 0.108521 18.7232 0.108521H294.481C304.634 0.108521 312.865 8.33926 312.865 18.4924V300.378C312.865 310.532 304.634 318.762 294.481 318.762H18.7233C8.57013 318.762 0.339355 310.532 0.339355 300.378V18.4924Z" fill="#FAFAFA"/>
<rect x="101.505" y="36.8762" width="110.195" height="110.195" rx="55.0975" fill="#15151F" fill-opacity="0.04"/>
<path d="M169.229 73.6079C167.2 73.6079 165.556 75.2524 165.556 77.2811V109.421C165.556 109.928 165.967 110.34 166.474 110.34H174.279C176.308 110.34 177.952 108.695 177.952 106.666V77.2811C177.952 75.2524 176.308 73.6079 174.279 73.6079H169.229Z" fill="url(#paint0_linear_444_630)"/>
<path d="M150.404 87.3823C150.404 85.3536 152.048 83.7091 154.077 83.7091H159.128C161.156 83.7091 162.801 85.3536 162.801 87.3823V109.421C162.801 109.928 162.39 110.34 161.882 110.34H151.322C150.815 110.34 150.404 109.928 150.404 109.421V87.3823Z" fill="url(#paint1_linear_444_630)"/>
<path d="M135.252 95.6469C135.252 93.6183 136.896 91.9737 138.925 91.9737H143.976C146.004 91.9737 147.649 93.6183 147.649 95.6469V109.421C147.649 109.928 147.238 110.34 146.731 110.34H138.925C136.896 110.34 135.252 108.695 135.252 106.666V95.6469Z" fill="url(#paint2_linear_444_630)"/>
<path d="M70.7028 201.455V177.335H84.601V179.946H73.7913V187.483H82.9097V190.094H73.7913V198.844H84.9687V201.455H70.7028ZM93.2995 201.455L86.8651 183.586H90.0271L93.373 193.697C93.9245 195.462 94.476 197.263 95.0275 198.992H95.1746C95.6894 197.263 96.2776 195.462 96.8292 193.697L100.175 183.586H103.19L96.8659 201.455H93.2995ZM110.038 201.896C107.059 201.896 104.817 200.058 104.817 196.822C104.817 192.851 108.126 190.939 115.773 190.094C115.737 187.851 115.001 185.682 112.097 185.682C110.038 185.682 108.163 186.601 106.765 187.52L105.589 185.461C107.243 184.358 109.744 183.145 112.611 183.145C116.95 183.145 118.825 186.049 118.825 190.461V201.455H116.325L116.031 199.322H115.921C114.229 200.756 112.281 201.896 110.038 201.896ZM110.883 199.396C112.611 199.396 114.045 198.624 115.773 197.116V192.263C109.744 192.962 107.795 194.322 107.795 196.638C107.795 198.624 109.155 199.396 110.883 199.396ZM127.646 201.896C125.366 201.896 124.447 200.425 124.447 197.852V175.276H127.499V198.072C127.499 199.028 127.903 199.359 128.381 199.359C128.565 199.359 128.712 199.359 129.006 199.286L129.411 201.565C128.97 201.786 128.418 201.896 127.646 201.896ZM139.04 201.896C135.253 201.896 133.561 199.469 133.561 194.91V183.586H136.613V194.506C136.613 197.815 137.643 199.249 139.996 199.249C141.797 199.249 143.084 198.33 144.739 196.234V183.586H147.79V201.455H145.29L145.033 198.661H144.923C143.268 200.609 141.503 201.896 139.04 201.896ZM157.936 201.896C154.958 201.896 152.715 200.058 152.715 196.822C152.715 192.851 156.024 190.939 163.672 190.094C163.635 187.851 162.9 185.682 159.995 185.682C157.936 185.682 156.061 186.601 154.664 187.52L153.487 185.461C155.142 184.358 157.642 183.145 160.51 183.145C164.849 183.145 166.724 186.049 166.724 190.461V201.455H164.224L163.929 199.322H163.819C162.128 200.756 160.179 201.896 157.936 201.896ZM158.782 199.396C160.51 199.396 161.944 198.624 163.672 197.116V192.263C157.642 192.962 155.693 194.322 155.693 196.638C155.693 198.624 157.054 199.396 158.782 199.396ZM177.469 201.896C173.645 201.896 172.358 199.469 172.358 195.903V186.049H169.711V183.77L172.505 183.586L172.873 177.85H175.41V183.586H180.263V186.049H175.41V195.977C175.41 198.146 176.145 199.396 178.167 199.396C178.829 199.396 179.491 199.286 180.226 198.955L180.851 201.124C179.895 201.565 178.682 201.896 177.469 201.896ZM184.302 201.455V183.586H187.354V201.455H184.302ZM185.847 179.909C184.67 179.909 183.825 179.137 183.825 177.924C183.825 176.747 184.67 175.938 185.847 175.938C187.023 175.938 187.869 176.747 187.869 177.924C187.869 179.137 187.023 179.909 185.847 179.909ZM200.336 201.896C195.96 201.896 192.063 198.477 192.063 192.557C192.063 186.564 195.96 183.145 200.336 183.145C204.711 183.145 208.645 186.564 208.645 192.557C208.645 198.477 204.711 201.896 200.336 201.896ZM200.336 199.359C203.424 199.359 205.483 196.638 205.483 192.557C205.483 188.439 203.424 185.682 200.336 185.682C197.284 185.682 195.225 188.439 195.225 192.557C195.225 196.638 197.284 199.359 200.336 199.359ZM213.315 201.455V183.586H215.815L216.072 186.16H216.182C217.874 184.468 219.712 183.145 222.176 183.145C225.963 183.145 227.654 185.571 227.654 190.13V201.455H224.602V190.535C224.602 187.189 223.573 185.792 221.22 185.792C219.418 185.792 218.131 186.711 216.366 188.513V201.455H213.315ZM238.091 201.896C235.481 201.896 233.091 200.94 231.436 199.322L232.834 197.558C234.378 198.844 235.996 199.506 238.202 199.506C240.555 199.506 241.695 198.293 241.695 196.749C241.695 194.91 239.709 194.138 237.687 193.403C235.003 192.447 232.429 191.16 232.429 188.219C232.429 185.351 234.709 183.145 238.606 183.145C240.849 183.145 242.761 183.99 244.158 185.167L242.761 186.932C241.511 186.013 240.224 185.498 238.643 185.498C236.363 185.498 235.371 186.748 235.371 188.071C235.371 189.689 236.915 190.351 239.158 191.123C241.952 192.116 244.636 193.329 244.636 196.565C244.636 199.469 242.32 201.896 238.091 201.896Z" fill="#676D78"/>
<path d="M35.4072 245.798V229.768H40.8244C41.9356 229.768 42.9324 229.915 43.8148 230.209C44.7136 230.503 45.4162 231.001 45.9228 231.704C46.4457 232.39 46.7072 233.33 46.7072 234.523C46.7072 235.749 46.4131 236.737 45.8248 237.489C45.2528 238.241 44.4848 238.78 43.5207 239.107L47.3445 245.798H44.158L40.7018 239.523H38.2506V245.798H35.4072ZM38.2506 237.268H40.5302C41.6251 237.268 42.4585 237.04 43.0304 236.582C43.6187 236.108 43.9129 235.422 43.9129 234.523C43.9129 233.608 43.6187 232.971 43.0304 232.611C42.4585 232.235 41.6251 232.047 40.5302 232.047H38.2506V237.268ZM49.6682 245.798V233.763H52.487V245.798H49.6682ZM51.0898 231.655C50.5833 231.655 50.1747 231.508 49.8642 231.214C49.5538 230.92 49.3985 230.528 49.3985 230.037C49.3985 229.563 49.5538 229.179 49.8642 228.885C50.1747 228.591 50.5833 228.444 51.0898 228.444C51.5964 228.444 52.0049 228.591 52.3154 228.885C52.6259 229.179 52.7812 229.563 52.7812 230.037C52.7812 230.528 52.6259 230.92 52.3154 231.214C52.0049 231.508 51.5964 231.655 51.0898 231.655ZM60.2749 251.118C59.3271 251.118 58.4692 251.003 57.7011 250.774C56.9494 250.546 56.353 250.194 55.9118 249.72C55.4869 249.263 55.2745 248.683 55.2745 247.98C55.2745 246.983 55.8464 246.125 56.9903 245.406V245.308C56.6798 245.112 56.4184 244.851 56.2059 244.524C56.0098 244.197 55.9118 243.788 55.9118 243.298C55.9118 242.824 56.0425 242.399 56.304 242.024C56.5818 241.631 56.8922 241.313 57.2354 241.068V240.97C56.8269 240.659 56.4592 240.226 56.1324 239.671C55.8219 239.115 55.6667 238.486 55.6667 237.783C55.6667 236.852 55.8873 236.067 56.3285 235.43C56.7697 234.793 57.3498 234.311 58.0688 233.984C58.8042 233.641 59.5886 233.469 60.422 233.469C60.7488 233.469 61.0593 233.502 61.3534 233.567C61.6639 233.616 61.9417 233.681 62.1868 233.763H66.5009V235.847H64.2948C64.4909 236.075 64.6543 236.37 64.7851 236.729C64.9158 237.072 64.9812 237.456 64.9812 237.881C64.9812 238.764 64.7769 239.515 64.3684 240.136C63.9598 240.741 63.4124 241.198 62.7261 241.509C62.0397 241.819 61.2717 241.975 60.422 241.975C60.1605 241.975 59.8909 241.95 59.6131 241.901C59.3353 241.852 59.0575 241.77 58.7797 241.656C58.5999 241.819 58.4528 241.983 58.3384 242.146C58.2404 242.31 58.1914 242.53 58.1914 242.808C58.1914 243.151 58.3303 243.421 58.6081 243.617C58.9022 243.813 59.417 243.911 60.1523 243.911H62.2849C63.7392 243.911 64.8341 244.148 65.5694 244.622C66.3211 245.079 66.697 245.831 66.697 246.877C66.697 247.661 66.4355 248.372 65.9126 249.01C65.3897 249.663 64.6462 250.178 63.682 250.554C62.7179 250.93 61.5822 251.118 60.2749 251.118ZM60.422 240.21C60.9939 240.21 61.4841 239.997 61.8927 239.572C62.3012 239.148 62.5055 238.551 62.5055 237.783C62.5055 237.031 62.3012 236.451 61.8927 236.043C61.5005 235.618 61.0102 235.405 60.422 235.405C59.8337 235.405 59.3353 235.61 58.9267 236.018C58.5182 236.427 58.3139 237.015 58.3139 237.783C58.3139 238.551 58.5182 239.148 58.9267 239.572C59.3353 239.997 59.8337 240.21 60.422 240.21ZM60.7161 249.279C61.6802 249.279 62.4646 249.083 63.0692 248.691C63.6739 248.299 63.9762 247.849 63.9762 247.343C63.9762 246.869 63.7882 246.55 63.4124 246.387C63.0529 246.223 62.53 246.142 61.8436 246.142H60.2013C59.5477 246.142 59.0003 246.084 58.5591 245.97C57.9381 246.444 57.6276 246.975 57.6276 247.563C57.6276 248.103 57.9054 248.519 58.461 248.813C59.0166 249.124 59.7683 249.279 60.7161 249.279ZM73.3619 246.093C72.3651 246.093 71.4336 245.847 70.5675 245.357C69.7015 244.851 68.9988 244.132 68.4595 243.2C67.9203 242.252 67.6506 241.117 67.6506 239.793C67.6506 238.453 67.9203 237.317 68.4595 236.386C68.9988 235.438 69.7015 234.719 70.5675 234.229C71.4336 233.722 72.3651 233.469 73.3619 233.469C74.3751 233.469 75.3147 233.722 76.1808 234.229C77.0468 234.719 77.7495 235.438 78.2888 236.386C78.828 237.317 79.0977 238.453 79.0977 239.793C79.0977 241.117 78.828 242.252 78.2888 243.2C77.7495 244.132 77.0468 244.851 76.1808 245.357C75.3147 245.847 74.3751 246.093 73.3619 246.093ZM73.3619 243.788C74.2443 243.788 74.9388 243.421 75.4454 242.685C75.952 241.95 76.2053 240.986 76.2053 239.793C76.2053 238.584 75.952 237.612 75.4454 236.876C74.9388 236.141 74.2443 235.773 73.3619 235.773C72.4795 235.773 71.785 236.141 71.2784 236.876C70.7882 237.612 70.543 238.584 70.543 239.793C70.543 240.986 70.7882 241.95 71.2784 242.685C71.785 243.421 72.4795 243.788 73.3619 243.788ZM81.8878 245.798V233.763H84.2164L84.4125 235.896H84.5106C84.9354 235.111 85.4502 234.515 86.0548 234.106C86.6594 233.681 87.2804 233.469 87.9177 233.469C88.4897 233.469 88.9472 233.551 89.2904 233.714L88.8001 236.165C88.5877 236.1 88.3916 236.051 88.2119 236.018C88.0321 235.986 87.8115 235.969 87.55 235.969C87.0761 235.969 86.5777 236.157 86.0548 236.533C85.5319 236.892 85.0825 237.53 84.7067 238.445V245.798H81.8878ZM95.7194 246.093C94.7226 246.093 93.7911 245.847 92.925 245.357C92.0589 244.851 91.3563 244.132 90.817 243.2C90.2777 242.252 90.0081 241.117 90.0081 239.793C90.0081 238.453 90.2777 237.317 90.817 236.386C91.3563 235.438 92.0589 234.719 92.925 234.229C93.7911 233.722 94.7226 233.469 95.7194 233.469C96.7325 233.469 97.6721 233.722 98.5382 234.229C99.4043 234.719 100.107 235.438 100.646 236.386C101.186 237.317 101.455 238.453 101.455 239.793C101.455 241.117 101.186 242.252 100.646 243.2C100.107 244.132 99.4043 244.851 98.5382 245.357C97.6721 245.847 96.7325 246.093 95.7194 246.093ZM95.7194 243.788C96.6018 243.788 97.2963 243.421 97.8029 242.685C98.3095 241.95 98.5627 240.986 98.5627 239.793C98.5627 238.584 98.3095 237.612 97.8029 236.876C97.2963 236.141 96.6018 235.773 95.7194 235.773C94.8369 235.773 94.1424 236.141 93.6359 236.876C93.1456 237.612 92.9005 238.584 92.9005 239.793C92.9005 240.986 93.1456 241.95 93.6359 242.685C94.1424 243.421 94.8369 243.788 95.7194 243.788ZM107.824 246.093C106.533 246.093 105.593 245.676 105.005 244.843C104.417 244.009 104.123 242.833 104.123 241.313V233.763H106.942V240.945C106.942 241.942 107.089 242.645 107.383 243.053C107.677 243.462 108.151 243.666 108.804 243.666C109.327 243.666 109.785 243.535 110.177 243.274C110.586 243.012 111.019 242.587 111.476 241.999V233.763H114.295V245.798H111.991L111.77 244.034H111.697C111.174 244.655 110.602 245.153 109.981 245.529C109.36 245.905 108.641 246.093 107.824 246.093ZM121.224 246.093C120.407 246.093 119.59 245.937 118.773 245.627C117.955 245.3 117.253 244.9 116.665 244.426L117.988 242.612C118.527 243.02 119.067 243.347 119.606 243.592C120.145 243.838 120.717 243.96 121.322 243.96C121.975 243.96 122.457 243.821 122.768 243.543C123.078 243.266 123.234 242.922 123.234 242.514C123.234 242.171 123.103 241.893 122.842 241.68C122.596 241.452 122.278 241.256 121.886 241.092C121.493 240.912 121.085 240.741 120.66 240.577C120.137 240.381 119.614 240.144 119.091 239.867C118.585 239.572 118.168 239.205 117.841 238.764C117.514 238.306 117.351 237.742 117.351 237.072C117.351 236.01 117.743 235.144 118.527 234.474C119.312 233.804 120.374 233.469 121.714 233.469C122.564 233.469 123.324 233.616 123.994 233.91C124.664 234.204 125.244 234.539 125.734 234.915L124.435 236.631C124.01 236.321 123.577 236.075 123.136 235.896C122.711 235.7 122.261 235.602 121.788 235.602C121.183 235.602 120.733 235.732 120.439 235.994C120.145 236.239 119.998 236.549 119.998 236.925C119.998 237.399 120.243 237.759 120.733 238.004C121.224 238.249 121.796 238.486 122.449 238.715C123.005 238.911 123.544 239.156 124.067 239.45C124.59 239.728 125.023 240.095 125.366 240.553C125.726 241.01 125.905 241.615 125.905 242.367C125.905 243.396 125.505 244.279 124.704 245.014C123.904 245.733 122.743 246.093 121.224 246.093ZM138.477 246.093C137.365 246.093 136.36 245.847 135.462 245.357C134.563 244.851 133.852 244.132 133.329 243.2C132.806 242.252 132.545 241.117 132.545 239.793C132.545 238.486 132.806 237.358 133.329 236.41C133.868 235.463 134.563 234.735 135.413 234.229C136.262 233.722 137.153 233.469 138.084 233.469C139.179 233.469 140.094 233.714 140.83 234.204C141.565 234.678 142.121 235.348 142.497 236.214C142.872 237.064 143.06 238.053 143.06 239.18C143.06 239.769 143.019 240.226 142.938 240.553H135.29C135.421 241.615 135.805 242.44 136.442 243.029C137.079 243.617 137.88 243.911 138.844 243.911C139.367 243.911 139.849 243.838 140.29 243.69C140.748 243.527 141.197 243.306 141.639 243.029L142.595 244.793C142.023 245.169 141.385 245.48 140.683 245.725C139.98 245.97 139.245 246.093 138.477 246.093ZM135.266 238.641H140.609C140.609 237.71 140.405 236.982 139.996 236.459C139.588 235.92 138.975 235.651 138.158 235.651C137.455 235.651 136.826 235.912 136.271 236.435C135.731 236.942 135.396 237.677 135.266 238.641ZM148.449 245.798L144.257 233.763H147.125L149.037 240.014C149.201 240.602 149.364 241.198 149.527 241.803C149.707 242.408 149.879 243.02 150.042 243.641H150.14C150.32 243.02 150.492 242.408 150.655 241.803C150.835 241.198 151.006 240.602 151.17 240.014L153.082 233.763H155.802L151.709 245.798H148.449ZM160.327 246.093C159.281 246.093 158.423 245.766 157.753 245.112C157.1 244.458 156.773 243.609 156.773 242.563C156.773 241.272 157.337 240.275 158.464 239.572C159.592 238.853 161.389 238.363 163.857 238.102C163.84 237.464 163.669 236.917 163.342 236.459C163.031 235.986 162.468 235.749 161.651 235.749C161.062 235.749 160.482 235.863 159.91 236.092C159.355 236.321 158.807 236.598 158.268 236.925L157.239 235.038C157.908 234.613 158.66 234.245 159.494 233.935C160.343 233.624 161.242 233.469 162.19 233.469C163.693 233.469 164.813 233.918 165.548 234.817C166.3 235.7 166.676 236.982 166.676 238.666V245.798H164.347L164.151 244.475H164.053C163.514 244.932 162.933 245.316 162.312 245.627C161.708 245.937 161.046 246.093 160.327 246.093ZM161.234 243.887C161.724 243.887 162.165 243.772 162.558 243.543C162.966 243.298 163.399 242.971 163.857 242.563V239.867C162.223 240.079 161.087 240.398 160.45 240.823C159.812 241.231 159.494 241.738 159.494 242.342C159.494 242.882 159.657 243.274 159.984 243.519C160.311 243.764 160.727 243.887 161.234 243.887ZM172.794 246.093C171.798 246.093 171.087 245.79 170.662 245.186C170.253 244.581 170.049 243.756 170.049 242.71V228.493H172.868V242.857C172.868 243.2 172.933 243.445 173.064 243.592C173.195 243.723 173.334 243.788 173.481 243.788C173.546 243.788 173.603 243.788 173.652 243.788C173.718 243.772 173.807 243.756 173.922 243.739L174.29 245.847C174.126 245.913 173.914 245.97 173.652 246.019C173.407 246.068 173.121 246.093 172.794 246.093ZM180.282 246.093C178.991 246.093 178.052 245.676 177.463 244.843C176.875 244.009 176.581 242.833 176.581 241.313V233.763H179.4V240.945C179.4 241.942 179.547 242.645 179.841 243.053C180.135 243.462 180.609 243.666 181.263 243.666C181.786 243.666 182.243 243.535 182.635 243.274C183.044 243.012 183.477 242.587 183.935 241.999V233.763H186.753V245.798H184.449L184.229 244.034H184.155C183.632 244.655 183.06 245.153 182.439 245.529C181.818 245.905 181.099 246.093 180.282 246.093ZM193.241 246.093C192.195 246.093 191.337 245.766 190.667 245.112C190.013 244.458 189.687 243.609 189.687 242.563C189.687 241.272 190.25 240.275 191.378 239.572C192.505 238.853 194.303 238.363 196.771 238.102C196.754 237.464 196.583 236.917 196.256 236.459C195.945 235.986 195.382 235.749 194.564 235.749C193.976 235.749 193.396 235.863 192.824 236.092C192.269 236.321 191.721 236.598 191.182 236.925L190.152 235.038C190.822 234.613 191.574 234.245 192.407 233.935C193.257 233.624 194.156 233.469 195.104 233.469C196.607 233.469 197.726 233.918 198.462 234.817C199.214 235.7 199.589 236.982 199.589 238.666V245.798H197.261L197.065 244.475H196.967C196.427 244.932 195.847 245.316 195.226 245.627C194.622 245.937 193.96 246.093 193.241 246.093ZM194.148 243.887C194.638 243.887 195.079 243.772 195.471 243.543C195.88 243.298 196.313 242.971 196.771 242.563V239.867C195.136 240.079 194.001 240.398 193.363 240.823C192.726 241.231 192.407 241.738 192.407 242.342C192.407 242.882 192.571 243.274 192.898 243.519C193.224 243.764 193.641 243.887 194.148 243.887ZM206.82 246.093C205.431 246.093 204.443 245.692 203.854 244.892C203.283 244.074 202.997 243.02 202.997 241.729V235.994H201.281V233.886L203.144 233.763L203.487 230.479H205.84V233.763H208.904V235.994H205.84V241.729C205.84 243.135 206.404 243.838 207.531 243.838C207.744 243.838 207.964 243.813 208.193 243.764C208.422 243.699 208.618 243.633 208.781 243.568L209.272 245.651C208.945 245.766 208.569 245.864 208.144 245.946C207.735 246.044 207.294 246.093 206.82 246.093ZM211.437 245.798V233.763H214.256V245.798H211.437ZM212.858 231.655C212.352 231.655 211.943 231.508 211.633 231.214C211.322 230.92 211.167 230.528 211.167 230.037C211.167 229.563 211.322 229.179 211.633 228.885C211.943 228.591 212.352 228.444 212.858 228.444C213.365 228.444 213.773 228.591 214.084 228.885C214.394 229.179 214.55 229.563 214.55 230.037C214.55 230.528 214.394 230.92 214.084 231.214C213.773 231.508 213.365 231.655 212.858 231.655ZM222.779 246.093C221.782 246.093 220.85 245.847 219.984 245.357C219.118 244.851 218.416 244.132 217.876 243.2C217.337 242.252 217.067 241.117 217.067 239.793C217.067 238.453 217.337 237.317 217.876 236.386C218.416 235.438 219.118 234.719 219.984 234.229C220.85 233.722 221.782 233.469 222.779 233.469C223.792 233.469 224.732 233.722 225.598 234.229C226.464 234.719 227.166 235.438 227.706 236.386C228.245 237.317 228.515 238.453 228.515 239.793C228.515 241.117 228.245 242.252 227.706 243.2C227.166 244.132 226.464 244.851 225.598 245.357C224.732 245.847 223.792 246.093 222.779 246.093ZM222.779 243.788C223.661 243.788 224.356 243.421 224.862 242.685C225.369 241.95 225.622 240.986 225.622 239.793C225.622 238.584 225.369 237.612 224.862 236.876C224.356 236.141 223.661 235.773 222.779 235.773C221.896 235.773 221.202 236.141 220.695 236.876C220.205 237.612 219.96 238.584 219.96 239.793C219.96 240.986 220.205 241.95 220.695 242.685C221.202 243.421 221.896 243.788 222.779 243.788ZM231.305 245.798V233.763H233.633L233.829 235.381H233.927C234.467 234.858 235.055 234.409 235.692 234.033C236.33 233.657 237.057 233.469 237.874 233.469C239.165 233.469 240.104 233.886 240.693 234.719C241.281 235.553 241.575 236.729 241.575 238.249V245.798H238.756V238.616C238.756 237.62 238.609 236.917 238.315 236.508C238.021 236.1 237.539 235.896 236.869 235.896C236.346 235.896 235.88 236.026 235.472 236.288C235.079 236.533 234.63 236.901 234.124 237.391V245.798H231.305ZM248.379 246.093C247.562 246.093 246.745 245.937 245.928 245.627C245.111 245.3 244.408 244.9 243.82 244.426L245.143 242.612C245.683 243.02 246.222 243.347 246.761 243.592C247.3 243.838 247.872 243.96 248.477 243.96C249.131 243.96 249.613 243.821 249.923 243.543C250.234 243.266 250.389 242.922 250.389 242.514C250.389 242.171 250.258 241.893 249.997 241.68C249.752 241.452 249.433 241.256 249.041 241.092C248.648 240.912 248.24 240.741 247.815 240.577C247.292 240.381 246.769 240.144 246.246 239.867C245.74 239.572 245.323 239.205 244.996 238.764C244.669 238.306 244.506 237.742 244.506 237.072C244.506 236.01 244.898 235.144 245.683 234.474C246.467 233.804 247.529 233.469 248.869 233.469C249.719 233.469 250.479 233.616 251.149 233.91C251.819 234.204 252.399 234.539 252.889 234.915L251.59 236.631C251.165 236.321 250.732 236.075 250.291 235.896C249.866 235.7 249.417 235.602 248.943 235.602C248.338 235.602 247.889 235.732 247.594 235.994C247.3 236.239 247.153 236.549 247.153 236.925C247.153 237.399 247.398 237.759 247.889 238.004C248.379 238.249 248.951 238.486 249.604 238.715C250.16 238.911 250.699 239.156 251.222 239.45C251.745 239.728 252.178 240.095 252.521 240.553C252.881 241.01 253.061 241.615 253.061 242.367C253.061 243.396 252.66 244.279 251.86 245.014C251.059 245.733 249.899 246.093 248.379 246.093ZM265.411 246.093C264.414 246.093 263.483 245.847 262.617 245.357C261.751 244.851 261.048 244.132 260.509 243.2C259.97 242.252 259.7 241.117 259.7 239.793C259.7 238.453 259.97 237.317 260.509 236.386C261.048 235.438 261.751 234.719 262.617 234.229C263.483 233.722 264.414 233.469 265.411 233.469C266.424 233.469 267.364 233.722 268.23 234.229C269.096 234.719 269.799 235.438 270.338 236.386C270.877 237.317 271.147 238.453 271.147 239.793C271.147 241.117 270.877 242.252 270.338 243.2C269.799 244.132 269.096 244.851 268.23 245.357C267.364 245.847 266.424 246.093 265.411 246.093ZM265.411 243.788C266.294 243.788 266.988 243.421 267.495 242.685C268.001 241.95 268.254 240.986 268.254 239.793C268.254 238.584 268.001 237.612 267.495 236.876C266.988 236.141 266.294 235.773 265.411 235.773C264.529 235.773 263.834 236.141 263.328 236.876C262.837 237.612 262.592 238.584 262.592 239.793C262.592 240.986 262.837 241.95 263.328 242.685C263.834 243.421 264.529 243.788 265.411 243.788ZM274.332 245.798V235.994H272.714V233.886L274.332 233.763V232.513C274.332 231.255 274.642 230.225 275.263 229.425C275.884 228.607 276.905 228.199 278.327 228.199C278.752 228.199 279.16 228.24 279.553 228.322C279.945 228.403 280.272 228.501 280.533 228.616L279.994 230.724C279.553 230.528 279.111 230.43 278.67 230.43C277.657 230.43 277.15 231.108 277.15 232.464V233.763H279.504V235.994H277.15V245.798H274.332ZM66.9824 275.093C65.5444 275.093 64.2534 274.774 63.1095 274.137C61.9657 273.499 61.0669 272.568 60.4132 271.342C59.7596 270.1 59.4328 268.597 59.4328 266.832C59.4328 265.084 59.7678 263.588 60.4378 262.346C61.1077 261.088 62.0147 260.132 63.1586 259.479C64.3025 258.809 65.5852 258.474 67.0069 258.474C68.1508 258.474 69.1149 258.686 69.8993 259.111C70.7 259.519 71.3537 259.985 71.8603 260.508L70.3405 262.346C69.932 261.954 69.4744 261.627 68.9679 261.366C68.4776 261.088 67.8567 260.949 67.105 260.949C65.6833 260.949 64.5312 261.472 63.6488 262.518C62.7827 263.548 62.3497 264.961 62.3497 266.759C62.3497 268.589 62.7664 270.027 63.5998 271.073C64.4332 272.102 65.6506 272.617 67.252 272.617C67.7096 272.617 68.1426 272.56 68.5512 272.445C68.9597 272.315 69.2947 272.135 69.5562 271.906V268.45H66.5167V266.121H72.1054V273.181C71.5661 273.72 70.8471 274.177 69.9483 274.553C69.0659 274.913 68.0773 275.093 66.9824 275.093ZM80.5602 275.093C79.449 275.093 78.4441 274.847 77.5453 274.357C76.6465 273.851 75.9357 273.132 75.4128 272.2C74.8898 271.252 74.6284 270.117 74.6284 268.793C74.6284 267.486 74.8898 266.358 75.4128 265.41C75.952 264.463 76.6465 263.735 77.4963 263.229C78.346 262.722 79.2366 262.469 80.1681 262.469C81.2629 262.469 82.178 262.714 82.9134 263.204C83.6487 263.678 84.2043 264.348 84.5802 265.214C84.956 266.064 85.144 267.053 85.144 268.18C85.144 268.769 85.1031 269.226 85.0214 269.553H77.3737C77.5044 270.615 77.8885 271.44 78.5258 272.029C79.1631 272.617 79.9638 272.911 80.9279 272.911C81.4508 272.911 81.9329 272.838 82.3741 272.69C82.8317 272.527 83.2811 272.306 83.7223 272.029L84.6782 273.793C84.1063 274.169 83.469 274.48 82.7663 274.725C82.0636 274.97 81.3283 275.093 80.5602 275.093ZM77.3492 267.641H82.6928C82.6928 266.71 82.4885 265.982 82.08 265.459C81.6714 264.92 81.0586 264.651 80.2416 264.651C79.5389 264.651 78.9098 264.912 78.3542 265.435C77.8149 265.942 77.4799 266.677 77.3492 267.641ZM87.8362 274.798V262.763H90.1649L90.361 264.381H90.459C90.9983 263.858 91.5865 263.409 92.2239 263.033C92.8612 262.657 93.5883 262.469 94.4054 262.469C95.6964 262.469 96.636 262.886 97.2243 263.719C97.8125 264.553 98.1067 265.729 98.1067 267.249V274.798H95.2878V267.616C95.2878 266.62 95.1408 265.917 94.8466 265.508C94.5525 265.1 94.0704 264.896 93.4004 264.896C92.8775 264.896 92.4118 265.026 92.0032 265.288C91.6111 265.533 91.1617 265.901 90.6551 266.391V274.798H87.8362ZM105.082 266.268L104.518 268.229H108.612L108.048 266.268C107.787 265.419 107.533 264.544 107.288 263.646C107.059 262.747 106.831 261.856 106.602 260.974H106.504C106.291 261.873 106.063 262.771 105.817 263.67C105.589 264.553 105.343 265.419 105.082 266.268ZM99.7139 274.798L104.935 258.768H108.269L113.49 274.798H110.499L109.249 270.46H103.856L102.606 274.798H99.7139ZM115.466 274.798V258.768H118.309V274.798H115.466ZM129.962 275.093C128.917 275.093 128.059 274.766 127.389 274.112C126.735 273.458 126.408 272.609 126.408 271.563C126.408 270.272 126.972 269.275 128.1 268.572C129.227 267.853 131.025 267.363 133.492 267.102C133.476 266.464 133.304 265.917 132.977 265.459C132.667 264.986 132.103 264.749 131.286 264.749C130.698 264.749 130.118 264.863 129.546 265.092C128.99 265.321 128.443 265.598 127.904 265.925L126.874 264.038C127.544 263.613 128.296 263.245 129.129 262.935C129.979 262.624 130.878 262.469 131.825 262.469C133.329 262.469 134.448 262.918 135.184 263.817C135.935 264.7 136.311 265.982 136.311 267.666V274.798H133.982L133.786 273.475H133.688C133.149 273.932 132.569 274.316 131.948 274.627C131.343 274.937 130.682 275.093 129.962 275.093ZM130.869 272.887C131.36 272.887 131.801 272.772 132.193 272.543C132.602 272.298 133.035 271.971 133.492 271.563V268.867C131.858 269.079 130.722 269.398 130.085 269.823C129.448 270.231 129.129 270.738 129.129 271.342C129.129 271.882 129.293 272.274 129.619 272.519C129.946 272.764 130.363 272.887 130.869 272.887ZM139.684 279.554V262.763H142.013L142.209 264.038H142.307C142.814 263.613 143.378 263.245 143.999 262.935C144.636 262.624 145.281 262.469 145.935 262.469C147.438 262.469 148.599 263.025 149.416 264.136C150.249 265.247 150.666 266.734 150.666 268.597C150.666 269.97 150.421 271.146 149.93 272.127C149.44 273.091 148.803 273.826 148.019 274.333C147.25 274.839 146.417 275.093 145.518 275.093C144.995 275.093 144.472 274.978 143.95 274.749C143.427 274.504 142.92 274.177 142.43 273.769L142.503 275.779V279.554H139.684ZM144.93 272.764C145.731 272.764 146.401 272.413 146.94 271.71C147.479 271.007 147.749 269.978 147.749 268.621C147.749 267.412 147.545 266.473 147.136 265.803C146.728 265.133 146.066 264.798 145.151 264.798C144.301 264.798 143.418 265.247 142.503 266.146V271.759C142.945 272.119 143.369 272.38 143.778 272.543C144.187 272.69 144.571 272.764 144.93 272.764ZM153.52 279.554V262.763H155.849L156.045 264.038H156.143C156.65 263.613 157.213 263.245 157.834 262.935C158.472 262.624 159.117 262.469 159.771 262.469C161.274 262.469 162.434 263.025 163.251 264.136C164.085 265.247 164.502 266.734 164.502 268.597C164.502 269.97 164.256 271.146 163.766 272.127C163.276 273.091 162.639 273.826 161.854 274.333C161.086 274.839 160.253 275.093 159.354 275.093C158.831 275.093 158.308 274.978 157.785 274.749C157.262 274.504 156.756 274.177 156.266 273.769L156.339 275.779V279.554H153.52ZM158.766 272.764C159.567 272.764 160.237 272.413 160.776 271.71C161.315 271.007 161.585 269.978 161.585 268.621C161.585 267.412 161.38 266.473 160.972 265.803C160.563 265.133 159.902 264.798 158.986 264.798C158.137 264.798 157.254 265.247 156.339 266.146V271.759C156.78 272.119 157.205 272.38 157.614 272.543C158.022 272.69 158.406 272.764 158.766 272.764ZM170.101 275.093C169.105 275.093 168.394 274.79 167.969 274.186C167.56 273.581 167.356 272.756 167.356 271.71V257.493H170.175V271.857C170.175 272.2 170.24 272.445 170.371 272.592C170.502 272.723 170.641 272.788 170.788 272.788C170.853 272.788 170.91 272.788 170.959 272.788C171.025 272.772 171.115 272.756 171.229 272.739L171.597 274.847C171.433 274.913 171.221 274.97 170.959 275.019C170.714 275.068 170.428 275.093 170.101 275.093ZM174.011 274.798V262.763H176.829V274.798H174.011ZM175.432 260.655C174.926 260.655 174.517 260.508 174.207 260.214C173.896 259.92 173.741 259.528 173.741 259.037C173.741 258.563 173.896 258.179 174.207 257.885C174.517 257.591 174.926 257.444 175.432 257.444C175.939 257.444 176.347 257.591 176.658 257.885C176.968 258.179 177.124 258.563 177.124 259.037C177.124 259.528 176.968 259.92 176.658 260.214C176.347 260.508 175.939 260.655 175.432 260.655ZM185.451 275.093C184.356 275.093 183.367 274.847 182.485 274.357C181.619 273.851 180.924 273.132 180.401 272.2C179.895 271.252 179.641 270.117 179.641 268.793C179.641 267.453 179.919 266.317 180.475 265.386C181.03 264.438 181.766 263.719 182.681 263.229C183.612 262.722 184.609 262.469 185.671 262.469C186.439 262.469 187.109 262.6 187.681 262.861C188.253 263.123 188.76 263.441 189.201 263.817L187.828 265.656C187.518 265.378 187.199 265.165 186.872 265.018C186.546 264.855 186.194 264.773 185.818 264.773C184.854 264.773 184.062 265.141 183.441 265.876C182.836 266.612 182.534 267.584 182.534 268.793C182.534 269.986 182.828 270.95 183.416 271.685C184.021 272.421 184.797 272.788 185.745 272.788C186.219 272.788 186.66 272.69 187.069 272.494C187.493 272.282 187.877 272.037 188.221 271.759L189.373 273.622C188.817 274.112 188.196 274.48 187.51 274.725C186.823 274.97 186.137 275.093 185.451 275.093ZM194.426 275.093C193.38 275.093 192.522 274.766 191.852 274.112C191.198 273.458 190.872 272.609 190.872 271.563C190.872 270.272 191.435 269.275 192.563 268.572C193.69 267.853 195.488 267.363 197.955 267.102C197.939 266.464 197.768 265.917 197.441 265.459C197.13 264.986 196.566 264.749 195.749 264.749C195.161 264.749 194.581 264.863 194.009 265.092C193.453 265.321 192.906 265.598 192.367 265.925L191.337 264.038C192.007 263.613 192.759 263.245 193.592 262.935C194.442 262.624 195.341 262.469 196.289 262.469C197.792 262.469 198.911 262.918 199.647 263.817C200.398 264.7 200.774 265.982 200.774 267.666V274.798H198.446L198.25 273.475H198.152C197.612 273.932 197.032 274.316 196.411 274.627C195.807 274.937 195.145 275.093 194.426 275.093ZM195.333 272.887C195.823 272.887 196.264 272.772 196.656 272.543C197.065 272.298 197.498 271.971 197.955 271.563V268.867C196.321 269.079 195.186 269.398 194.548 269.823C193.911 270.231 193.592 270.738 193.592 271.342C193.592 271.882 193.756 272.274 194.083 272.519C194.409 272.764 194.826 272.887 195.333 272.887ZM208.005 275.093C206.616 275.093 205.628 274.692 205.039 273.892C204.467 273.074 204.181 272.02 204.181 270.729V264.994H202.466V262.886L204.329 262.763L204.672 259.479H207.025V262.763H210.089V264.994H207.025V270.729C207.025 272.135 207.589 272.838 208.716 272.838C208.929 272.838 209.149 272.813 209.378 272.764C209.607 272.699 209.803 272.633 209.966 272.568L210.456 274.651C210.13 274.766 209.754 274.864 209.329 274.946C208.92 275.044 208.479 275.093 208.005 275.093ZM212.622 274.798V262.763H215.44V274.798H212.622ZM214.043 260.655C213.537 260.655 213.128 260.508 212.818 260.214C212.507 259.92 212.352 259.528 212.352 259.037C212.352 258.563 212.507 258.179 212.818 257.885C213.128 257.591 213.537 257.444 214.043 257.444C214.55 257.444 214.958 257.591 215.269 257.885C215.579 258.179 215.735 258.563 215.735 259.037C215.735 259.528 215.579 259.92 215.269 260.214C214.958 260.508 214.55 260.655 214.043 260.655ZM223.964 275.093C222.967 275.093 222.035 274.847 221.169 274.357C220.303 273.851 219.601 273.132 219.061 272.2C218.522 271.252 218.252 270.117 218.252 268.793C218.252 267.453 218.522 266.317 219.061 265.386C219.601 264.438 220.303 263.719 221.169 263.229C222.035 262.722 222.967 262.469 223.964 262.469C224.977 262.469 225.916 262.722 226.782 263.229C227.649 263.719 228.351 264.438 228.891 265.386C229.43 266.317 229.699 267.453 229.699 268.793C229.699 270.117 229.43 271.252 228.891 272.2C228.351 273.132 227.649 273.851 226.782 274.357C225.916 274.847 224.977 275.093 223.964 275.093ZM223.964 272.788C224.846 272.788 225.541 272.421 226.047 271.685C226.554 270.95 226.807 269.986 226.807 268.793C226.807 267.584 226.554 266.612 226.047 265.876C225.541 265.141 224.846 264.773 223.964 264.773C223.081 264.773 222.387 265.141 221.88 265.876C221.39 266.612 221.145 267.584 221.145 268.793C221.145 269.986 221.39 270.95 221.88 271.685C222.387 272.421 223.081 272.788 223.964 272.788ZM232.49 274.798V262.763H234.818L235.014 264.381H235.112C235.652 263.858 236.24 263.409 236.877 263.033C237.514 262.657 238.242 262.469 239.059 262.469C240.35 262.469 241.289 262.886 241.878 263.719C242.466 264.553 242.76 265.729 242.76 267.249V274.798H239.941V267.616C239.941 266.62 239.794 265.917 239.5 265.508C239.206 265.1 238.724 264.896 238.054 264.896C237.531 264.896 237.065 265.026 236.657 265.288C236.264 265.533 235.815 265.901 235.308 266.391V274.798H232.49ZM249.564 275.093C248.747 275.093 247.93 274.937 247.113 274.627C246.296 274.3 245.593 273.9 245.005 273.426L246.328 271.612C246.867 272.02 247.407 272.347 247.946 272.592C248.485 272.838 249.057 272.96 249.662 272.96C250.315 272.96 250.798 272.821 251.108 272.543C251.418 272.266 251.574 271.922 251.574 271.514C251.574 271.171 251.443 270.893 251.182 270.68C250.936 270.452 250.618 270.256 250.226 270.092C249.833 269.912 249.425 269.741 249 269.577C248.477 269.381 247.954 269.144 247.431 268.867C246.925 268.572 246.508 268.205 246.181 267.764C245.854 267.306 245.691 266.742 245.691 266.072C245.691 265.01 246.083 264.144 246.867 263.474C247.652 262.804 248.714 262.469 250.054 262.469C250.904 262.469 251.664 262.616 252.334 262.91C253.004 263.204 253.584 263.539 254.074 263.915L252.775 265.631C252.35 265.321 251.917 265.075 251.476 264.896C251.051 264.7 250.601 264.602 250.128 264.602C249.523 264.602 249.074 264.732 248.779 264.994C248.485 265.239 248.338 265.549 248.338 265.925C248.338 266.399 248.583 266.759 249.074 267.004C249.564 267.249 250.136 267.486 250.789 267.715C251.345 267.911 251.884 268.156 252.407 268.45C252.93 268.728 253.363 269.095 253.706 269.553C254.066 270.01 254.246 270.615 254.246 271.367C254.246 272.396 253.845 273.279 253.044 274.014C252.244 274.733 251.083 275.093 249.564 275.093Z" fill="#AEB3BD"/>
<defs>
<linearGradient id="paint0_linear_444_630" x1="156.166" y1="73.6079" x2="156.166" y2="115.167" gradientUnits="userSpaceOnUse">
<stop offset="0.385417" stop-color="#FFCC33"/>
<stop offset="0.71875" stop-color="#FFAD33"/>
</linearGradient>
<linearGradient id="paint1_linear_444_630" x1="156.166" y1="73.6079" x2="156.166" y2="115.167" gradientUnits="userSpaceOnUse">
<stop offset="0.385417" stop-color="#FFCC33"/>
<stop offset="0.71875" stop-color="#FFAD33"/>
</linearGradient>
<linearGradient id="paint2_linear_444_630" x1="156.166" y1="73.6079" x2="156.166" y2="115.167" gradientUnits="userSpaceOnUse">
<stop offset="0.385417" stop-color="#FFCC33"/>
<stop offset="0.71875" stop-color="#FFAD33"/>
</linearGradient>
</defs>
</svg>
