<svg width="314" height="319" viewBox="0 0 314 319" fill="none" xmlns="http://www.w3.org/2000/svg">
<path d="M0.509277 19.2833C0.509277 9.12047 8.74789 0.881836 18.9107 0.881836H294.933C305.096 0.881836 313.334 9.12045 313.334 19.2833V299.906C313.334 310.068 305.096 318.307 294.933 318.307H18.9107C8.74787 318.307 0.509277 310.068 0.509277 299.906V19.2833Z" fill="#FAFAFA"/>
<rect x="101.824" y="37.6848" width="110.195" height="110.195" rx="55.0975" fill="#15151F" fill-opacity="0.04"/>
<path fill-rule="evenodd" clip-rule="evenodd" d="M165.092 90.9869C164.507 89.9509 164.2 88.7843 164.2 87.5979V71.5937C164.2 71.3536 164.397 71.1589 164.64 71.1589H164.943C165.655 71.1589 166.231 70.5822 166.231 69.8709V69.5825C166.231 68.8711 165.655 68.2944 164.943 68.2944H148.901C148.189 68.2944 147.613 68.871 147.613 69.5823C147.613 69.6778 147.613 69.7746 147.613 69.8709C147.613 70.5823 148.189 71.1589 148.901 71.1589H149.204C149.447 71.1589 149.644 71.3536 149.644 71.5937V87.5979C149.644 88.7843 149.337 89.9509 148.752 90.9869C145.589 96.5888 142.16 102.274 138.893 107.979C136.492 112.171 139.559 117.27 144.39 117.27H169.454C174.285 117.27 177.352 112.171 174.951 107.979C171.684 102.274 168.255 96.5888 165.092 90.9869ZM152.405 71.5937C152.405 71.3536 152.603 71.1589 152.846 71.1589H160.998C161.241 71.1589 161.439 71.3536 161.439 71.5937V87.4763C161.439 87.9566 161.484 88.3459 160.998 88.3459H152.846C152.36 88.3459 152.405 87.9566 152.405 87.4763V71.5937Z" fill="url(#paint0_linear_444_566)"/>
<path d="M64.3812 202.281V178.139H78.2927V180.752H67.4726V188.296H76.5997V190.909H67.4726V199.668H78.6607V202.281H64.3812ZM79.8418 202.281L85.6935 192.933L80.2835 184.395H83.5957L85.9879 188.296C86.54 189.29 87.1288 190.283 87.7177 191.277H87.8649C88.4169 190.283 88.9322 189.29 89.4842 188.296L91.6556 184.395H94.8574L89.4474 193.265L95.2623 202.281H91.95L89.337 198.123C88.7113 197.055 88.0489 195.951 87.3864 194.921H87.2392C86.6504 195.951 86.0615 197.055 85.4359 198.123L83.0437 202.281H79.8418ZM98.8051 209.826V184.395H101.308L101.565 186.456H101.676C103.295 185.094 105.319 183.953 107.38 183.953C111.981 183.953 114.483 187.523 114.483 193.081C114.483 199.153 110.803 202.723 106.718 202.723C105.098 202.723 103.405 201.95 101.786 200.662L101.86 203.79V209.826H98.8051ZM106.203 200.147C109.147 200.147 111.318 197.497 111.318 193.081C111.318 189.143 109.956 186.53 106.607 186.53C105.098 186.53 103.589 187.339 101.86 188.959V198.307C103.479 199.668 105.025 200.147 106.203 200.147ZM126.433 202.723C121.648 202.723 117.894 199.263 117.894 193.338C117.894 187.523 121.832 183.953 125.917 183.953C130.481 183.953 133.094 187.192 133.094 192.344C133.094 193.007 133.057 193.559 132.947 194.148H120.912C121.17 197.828 123.415 200.257 126.801 200.257C128.53 200.257 130.039 199.779 131.291 198.932L132.358 200.883C130.812 201.987 128.898 202.723 126.433 202.723ZM120.912 191.792H130.371C130.371 188.259 128.714 186.382 125.991 186.382C123.488 186.382 121.28 188.37 120.912 191.792ZM137.477 202.281V184.395H139.98L140.237 187.634H140.348C141.599 185.389 143.439 183.953 145.426 183.953C146.236 183.953 146.788 184.064 147.34 184.321L146.678 186.934C146.162 186.787 145.758 186.714 145.058 186.714C143.549 186.714 141.746 187.781 140.532 190.799V202.281H137.477ZM150.272 202.281V184.395H153.326V202.281H150.272ZM151.817 180.715C150.64 180.715 149.793 179.942 149.793 178.727C149.793 177.55 150.64 176.74 151.817 176.74C152.995 176.74 153.842 177.55 153.842 178.727C153.842 179.942 152.995 180.715 151.817 180.715ZM159.365 202.281V184.395H161.867L162.125 186.971H162.235C163.818 185.278 165.658 183.953 167.792 183.953C170.553 183.953 172.025 185.241 172.761 187.339C174.601 185.352 176.478 183.953 178.649 183.953C182.33 183.953 184.096 186.382 184.096 190.946V202.281H181.042V191.351C181.042 188.002 179.974 186.603 177.729 186.603C176.331 186.603 174.895 187.486 173.239 189.327V202.281H170.185V191.351C170.185 188.002 169.154 186.603 166.872 186.603C165.548 186.603 164.075 187.486 162.419 189.327V202.281H159.365ZM197.091 202.723C192.307 202.723 188.553 199.263 188.553 193.338C188.553 187.523 192.491 183.953 196.576 183.953C201.14 183.953 203.753 187.192 203.753 192.344C203.753 193.007 203.716 193.559 203.605 194.148H191.571C191.829 197.828 194.074 200.257 197.459 200.257C199.189 200.257 200.698 199.779 201.949 198.932L203.017 200.883C201.471 201.987 199.557 202.723 197.091 202.723ZM191.571 191.792H201.029C201.029 188.259 199.373 186.382 196.65 186.382C194.147 186.382 191.939 188.37 191.571 191.792ZM208.136 202.281V184.395H210.638L210.896 186.971H211.006C212.699 185.278 214.539 183.953 217.005 183.953C220.796 183.953 222.489 186.382 222.489 190.946V202.281H219.434V191.351C219.434 188.002 218.404 186.603 216.048 186.603C214.245 186.603 212.957 187.523 211.19 189.327V202.281H208.136ZM233.893 202.723C230.066 202.723 228.778 200.294 228.778 196.724V186.861H226.128V184.579L228.925 184.395L229.293 178.654H231.832V184.395H236.69V186.861H231.832V196.798C231.832 198.969 232.568 200.22 234.592 200.22C235.255 200.22 235.917 200.11 236.653 199.779L237.279 201.95C236.322 202.392 235.108 202.723 233.893 202.723ZM245.048 202.723C242.435 202.723 240.043 201.766 238.387 200.147L239.785 198.38C241.331 199.668 242.95 200.331 245.159 200.331C247.514 200.331 248.655 199.116 248.655 197.57C248.655 195.73 246.667 194.957 244.643 194.221C241.957 193.265 239.38 191.976 239.38 189.032C239.38 186.162 241.662 183.953 245.563 183.953C247.808 183.953 249.722 184.8 251.121 185.978L249.722 187.744C248.471 186.824 247.183 186.309 245.6 186.309C243.318 186.309 242.325 187.56 242.325 188.885C242.325 190.504 243.87 191.167 246.115 191.94C248.912 192.933 251.599 194.148 251.599 197.386C251.599 200.294 249.28 202.723 245.048 202.723Z" fill="#676D78"/>
<path d="M33.5304 246.687V233.045H28.8933V230.64H41.0137V233.045H36.3765V246.687H33.5304ZM42.362 246.687V234.64H44.6928L44.8891 236.774H44.9873C45.4125 235.989 45.9278 235.392 46.533 234.983C47.1382 234.558 47.7598 234.345 48.3977 234.345C48.9702 234.345 49.4282 234.427 49.7716 234.591L49.2809 237.044C49.0683 236.979 48.872 236.93 48.6921 236.897C48.5122 236.864 48.2914 236.848 48.0296 236.848C47.5553 236.848 47.0564 237.036 46.533 237.412C46.0096 237.772 45.5598 238.41 45.1836 239.326V246.687H42.362ZM53.7876 246.981C52.7407 246.981 51.882 246.654 51.2114 246C50.5571 245.345 50.23 244.495 50.23 243.448C50.23 242.156 50.7943 241.158 51.9229 240.455C53.0515 239.735 54.8508 239.244 57.3207 238.982C57.3043 238.345 57.1326 237.797 56.8054 237.339C56.4946 236.864 55.9303 236.627 55.1125 236.627C54.5236 236.627 53.943 236.742 53.3705 236.971C52.8143 237.2 52.2664 237.478 51.7266 237.805L50.6961 235.916C51.3668 235.49 52.1192 235.122 52.9534 234.811C53.8039 234.501 54.7036 234.345 55.6523 234.345C57.1571 234.345 58.2775 234.795 59.0136 235.695C59.766 236.578 60.1422 237.862 60.1422 239.547V246.687H57.8114L57.6151 245.362H57.5169C56.9772 245.82 56.3965 246.204 55.7749 246.515C55.1697 246.826 54.5073 246.981 53.7876 246.981ZM54.6954 244.773C55.1861 244.773 55.6277 244.658 56.0203 244.429C56.4292 244.184 56.8627 243.857 57.3207 243.448V240.749C55.685 240.962 54.5482 241.281 53.9103 241.706C53.2723 242.115 52.9534 242.622 52.9534 243.227C52.9534 243.767 53.1169 244.159 53.4441 244.405C53.7712 244.65 54.1883 244.773 54.6954 244.773ZM68.5486 246.981C67.4527 246.981 66.4631 246.736 65.5798 246.245C64.7129 245.738 64.0178 245.018 63.4943 244.086C62.9873 243.137 62.7338 242 62.7338 240.675C62.7338 239.334 63.0118 238.197 63.568 237.265C64.1241 236.316 64.8601 235.597 65.7761 235.106C66.7085 234.599 67.7062 234.345 68.7694 234.345C69.5382 234.345 70.2088 234.476 70.7813 234.738C71.3538 235 71.8609 235.319 72.3025 235.695L70.9285 237.535C70.6178 237.257 70.2988 237.044 69.9717 236.897C69.6445 236.733 69.2929 236.652 68.9166 236.652C67.9516 236.652 67.1583 237.02 66.5367 237.756C65.9315 238.492 65.6289 239.465 65.6289 240.675C65.6289 241.869 65.9233 242.834 66.5122 243.571C67.1174 244.307 67.8943 244.675 68.843 244.675C69.3174 244.675 69.759 244.576 70.1679 244.38C70.5932 244.168 70.9776 243.922 71.3211 243.644L72.4743 245.509C71.9181 246 71.2966 246.368 70.6096 246.613C69.9226 246.858 69.2356 246.981 68.5486 246.981ZM74.8521 246.687V229.365H77.6246V240.185H77.6982L82.1636 234.64H85.255L81.1331 239.547L85.6721 246.687H82.6052L79.5138 241.461L77.6246 243.62V246.687H74.8521ZM95.5023 246.981C94.4555 246.981 93.5968 246.654 92.9261 246C92.2719 245.345 91.9447 244.495 91.9447 243.448C91.9447 242.156 92.509 241.158 93.6377 240.455C94.7663 239.735 96.5655 239.244 99.0354 238.982C99.0191 238.345 98.8473 237.797 98.5202 237.339C98.2094 236.864 97.6451 236.627 96.8273 236.627C96.2384 236.627 95.6577 236.742 95.0852 236.971C94.5291 237.2 93.9812 237.478 93.4414 237.805L92.4109 235.916C93.0815 235.49 93.8339 235.122 94.6681 234.811C95.5187 234.501 96.4183 234.345 97.367 234.345C98.8719 234.345 99.9923 234.795 100.728 235.695C101.481 236.578 101.857 237.862 101.857 239.547V246.687H99.5261L99.3299 245.362H99.2317C98.6919 245.82 98.1113 246.204 97.4897 246.515C96.8845 246.826 96.222 246.981 95.5023 246.981ZM96.4102 244.773C96.9009 244.773 97.3425 244.658 97.7351 244.429C98.144 244.184 98.5774 243.857 99.0354 243.448V240.749C97.3997 240.962 96.2629 241.281 95.625 241.706C94.9871 242.115 94.6681 242.622 94.6681 243.227C94.6681 243.767 94.8317 244.159 95.1589 244.405C95.486 244.65 95.9031 244.773 96.4102 244.773ZM105.234 246.687V234.64H107.565L107.761 236.259H107.859C108.399 235.736 108.988 235.286 109.625 234.91C110.263 234.533 110.991 234.345 111.809 234.345C113.101 234.345 114.042 234.762 114.631 235.597C115.22 236.431 115.514 237.608 115.514 239.13V246.687H112.692V239.498C112.692 238.5 112.545 237.797 112.251 237.388C111.956 236.979 111.474 236.774 110.803 236.774C110.28 236.774 109.814 236.905 109.405 237.167C109.012 237.412 108.562 237.78 108.055 238.271V246.687H105.234ZM123.183 246.981C121.678 246.981 120.476 246.425 119.576 245.313C118.677 244.2 118.227 242.655 118.227 240.675C118.227 239.367 118.464 238.238 118.938 237.29C119.429 236.341 120.067 235.613 120.852 235.106C121.637 234.599 122.463 234.345 123.33 234.345C124.017 234.345 124.598 234.468 125.072 234.713C125.563 234.942 126.037 235.261 126.495 235.67L126.397 233.732V229.365H129.219V246.687H126.888L126.691 245.386H126.593C126.152 245.828 125.636 246.204 125.048 246.515C124.459 246.826 123.837 246.981 123.183 246.981ZM123.87 244.65C124.77 244.65 125.612 244.2 126.397 243.301V237.682C125.988 237.306 125.579 237.044 125.17 236.897C124.761 236.75 124.352 236.676 123.944 236.676C123.175 236.676 122.512 237.028 121.956 237.731C121.416 238.418 121.147 239.391 121.147 240.651C121.147 241.943 121.384 242.933 121.858 243.62C122.332 244.307 123.003 244.65 123.87 244.65ZM140.423 246.687L136.227 234.64H139.098L141.011 240.896C141.175 241.485 141.339 242.082 141.502 242.687C141.682 243.292 141.854 243.906 142.017 244.527H142.116C142.295 243.906 142.467 243.292 142.631 242.687C142.811 242.082 142.982 241.485 143.146 240.896L145.06 234.64H147.783L143.686 246.687H140.423ZM149.872 246.687V234.64H152.693V246.687H149.872ZM151.295 232.53C150.788 232.53 150.379 232.382 150.068 232.088C149.757 231.794 149.602 231.401 149.602 230.91C149.602 230.436 149.757 230.052 150.068 229.757C150.379 229.463 150.788 229.316 151.295 229.316C151.802 229.316 152.211 229.463 152.521 229.757C152.832 230.052 152.988 230.436 152.988 230.91C152.988 231.401 152.832 231.794 152.521 232.088C152.211 232.382 151.802 232.53 151.295 232.53ZM159.654 246.981C158.836 246.981 158.019 246.826 157.201 246.515C156.383 246.188 155.68 245.787 155.091 245.313L156.416 243.497C156.955 243.906 157.495 244.233 158.035 244.478C158.575 244.724 159.147 244.846 159.752 244.846C160.407 244.846 160.889 244.707 161.2 244.429C161.511 244.151 161.666 243.808 161.666 243.399C161.666 243.055 161.535 242.777 161.274 242.565C161.028 242.336 160.709 242.139 160.317 241.976C159.924 241.796 159.515 241.624 159.09 241.461C158.567 241.264 158.043 241.027 157.52 240.749C157.013 240.455 156.596 240.087 156.268 239.645C155.941 239.187 155.778 238.623 155.778 237.952C155.778 236.889 156.17 236.022 156.955 235.351C157.74 234.681 158.804 234.345 160.145 234.345C160.996 234.345 161.756 234.492 162.427 234.787C163.097 235.081 163.678 235.417 164.169 235.793L162.868 237.51C162.443 237.2 162.01 236.954 161.568 236.774C161.143 236.578 160.693 236.48 160.219 236.48C159.613 236.48 159.164 236.611 158.869 236.872C158.575 237.118 158.427 237.429 158.427 237.805C158.427 238.279 158.673 238.639 159.164 238.884C159.654 239.13 160.227 239.367 160.881 239.596C161.437 239.792 161.977 240.037 162.5 240.332C163.024 240.61 163.457 240.978 163.801 241.436C164.161 241.894 164.34 242.499 164.34 243.252C164.34 244.282 163.94 245.165 163.138 245.901C162.337 246.621 161.175 246.981 159.654 246.981ZM170.442 246.981C169.149 246.981 168.209 246.564 167.62 245.73C167.031 244.895 166.737 243.718 166.737 242.197V234.64H169.558V241.829C169.558 242.826 169.705 243.53 170 243.939C170.294 244.347 170.769 244.552 171.423 244.552C171.946 244.552 172.404 244.421 172.797 244.159C173.206 243.898 173.639 243.472 174.097 242.884V234.64H176.919V246.687H174.613L174.392 244.92H174.318C173.795 245.542 173.222 246.04 172.601 246.417C171.979 246.793 171.259 246.981 170.442 246.981ZM183.412 246.981C182.366 246.981 181.507 246.654 180.836 246C180.182 245.345 179.855 244.495 179.855 243.448C179.855 242.156 180.419 241.158 181.548 240.455C182.676 239.735 184.476 239.244 186.946 238.982C186.929 238.345 186.757 237.797 186.43 237.339C186.12 236.864 185.555 236.627 184.737 236.627C184.149 236.627 183.568 236.742 182.995 236.971C182.439 237.2 181.891 237.478 181.351 237.805L180.321 235.916C180.992 235.49 181.744 235.122 182.578 234.811C183.429 234.501 184.328 234.345 185.277 234.345C186.782 234.345 187.902 234.795 188.638 235.695C189.391 236.578 189.767 237.862 189.767 239.547V246.687H187.436L187.24 245.362H187.142C186.602 245.82 186.021 246.204 185.4 246.515C184.795 246.826 184.132 246.981 183.412 246.981ZM184.32 244.773C184.811 244.773 185.253 244.658 185.645 244.429C186.054 244.184 186.488 243.857 186.946 243.448V240.749C185.31 240.962 184.173 241.281 183.535 241.706C182.897 242.115 182.578 242.622 182.578 243.227C182.578 243.767 182.742 244.159 183.069 244.405C183.396 244.65 183.813 244.773 184.32 244.773ZM195.892 246.981C194.894 246.981 194.182 246.678 193.757 246.073C193.348 245.468 193.144 244.642 193.144 243.595V229.365H195.965V243.742C195.965 244.086 196.031 244.331 196.162 244.478C196.292 244.609 196.431 244.675 196.579 244.675C196.644 244.675 196.701 244.675 196.75 244.675C196.816 244.658 196.906 244.642 197.02 244.626L197.388 246.736C197.225 246.801 197.012 246.858 196.75 246.907C196.505 246.956 196.219 246.981 195.892 246.981ZM199.805 246.687V234.64H202.626V246.687H199.805ZM201.228 232.53C200.721 232.53 200.312 232.382 200.001 232.088C199.69 231.794 199.535 231.401 199.535 230.91C199.535 230.436 199.69 230.052 200.001 229.757C200.312 229.463 200.721 229.316 201.228 229.316C201.735 229.316 202.144 229.463 202.455 229.757C202.765 230.052 202.921 230.436 202.921 230.91C202.921 231.401 202.765 231.794 202.455 232.088C202.144 232.382 201.735 232.53 201.228 232.53ZM205.269 246.687V245.165L210.961 236.872H205.907V234.64H214.494V236.136L208.827 244.429H214.691V246.687H205.269ZM222.017 246.981C220.905 246.981 219.899 246.736 218.999 246.245C218.099 245.738 217.388 245.018 216.864 244.086C216.341 243.137 216.079 242 216.079 240.675C216.079 239.367 216.341 238.238 216.864 237.29C217.404 236.341 218.099 235.613 218.95 235.106C219.8 234.599 220.692 234.345 221.624 234.345C222.72 234.345 223.636 234.591 224.372 235.081C225.108 235.556 225.664 236.226 226.041 237.093C226.417 237.944 226.605 238.933 226.605 240.062C226.605 240.651 226.564 241.109 226.482 241.436H218.827C218.958 242.499 219.342 243.325 219.98 243.914C220.618 244.503 221.42 244.797 222.385 244.797C222.908 244.797 223.391 244.724 223.832 244.576C224.29 244.413 224.74 244.192 225.182 243.914L226.139 245.681C225.566 246.057 224.928 246.368 224.225 246.613C223.522 246.858 222.786 246.981 222.017 246.981ZM218.803 239.522H224.151C224.151 238.59 223.947 237.862 223.538 237.339C223.129 236.799 222.516 236.529 221.698 236.529C220.995 236.529 220.365 236.791 219.809 237.314C219.269 237.821 218.934 238.557 218.803 239.522ZM235.021 251.643C234.694 251.643 234.408 251.618 234.163 251.569C233.917 251.52 233.68 251.463 233.451 251.397L233.966 249.189C234.081 249.222 234.212 249.255 234.359 249.287C234.522 249.336 234.678 249.361 234.825 249.361C235.463 249.361 235.97 249.165 236.346 248.772C236.739 248.396 237.033 247.905 237.229 247.3L237.45 246.539L232.715 234.64H235.586L237.671 240.553C237.851 241.076 238.023 241.632 238.186 242.221C238.366 242.794 238.546 243.366 238.726 243.939H238.824C238.971 243.382 239.119 242.818 239.266 242.246C239.429 241.657 239.585 241.092 239.732 240.553L241.548 234.64H244.271L239.904 247.226C239.397 248.584 238.783 249.655 238.064 250.44C237.344 251.242 236.33 251.643 235.021 251.643ZM251.147 246.981C250.15 246.981 249.217 246.736 248.35 246.245C247.483 245.738 246.78 245.018 246.24 244.086C245.7 243.137 245.431 242 245.431 240.675C245.431 239.334 245.7 238.197 246.24 237.265C246.78 236.316 247.483 235.597 248.35 235.106C249.217 234.599 250.15 234.345 251.147 234.345C252.161 234.345 253.102 234.599 253.969 235.106C254.836 235.597 255.539 236.316 256.079 237.265C256.619 238.197 256.889 239.334 256.889 240.675C256.889 242 256.619 243.137 256.079 244.086C255.539 245.018 254.836 245.738 253.969 246.245C253.102 246.736 252.161 246.981 251.147 246.981ZM251.147 244.675C252.031 244.675 252.726 244.307 253.233 243.571C253.74 242.834 253.993 241.869 253.993 240.675C253.993 239.465 253.74 238.492 253.233 237.756C252.726 237.02 252.031 236.652 251.147 236.652C250.264 236.652 249.569 237.02 249.062 237.756C248.571 238.492 248.326 239.465 248.326 240.675C248.326 241.869 248.571 242.834 249.062 243.571C249.569 244.307 250.264 244.675 251.147 244.675ZM263.263 246.981C261.971 246.981 261.031 246.564 260.442 245.73C259.853 244.895 259.559 243.718 259.559 242.197V234.64H262.38V241.829C262.38 242.826 262.527 243.53 262.822 243.939C263.116 244.347 263.591 244.552 264.245 244.552C264.768 244.552 265.226 244.421 265.619 244.159C266.028 243.898 266.461 243.472 266.919 242.884V234.64H269.741V246.687H267.434L267.214 244.92H267.14C266.617 245.542 266.044 246.04 265.423 246.417C264.801 246.793 264.081 246.981 263.263 246.981ZM273.315 246.687V234.64H275.646L275.842 236.774H275.94C276.365 235.989 276.881 235.392 277.486 234.983C278.091 234.558 278.712 234.345 279.35 234.345C279.923 234.345 280.381 234.427 280.724 234.591L280.234 237.044C280.021 236.979 279.825 236.93 279.645 236.897C279.465 236.864 279.244 236.848 278.982 236.848C278.508 236.848 278.009 237.036 277.486 237.412C276.962 237.772 276.512 238.41 276.136 239.326V246.687H273.315ZM75.2771 275.687V259.64H78.4913L81.3373 267.492C81.5173 267.999 81.689 268.522 81.8526 269.062C82.0325 269.585 82.2043 270.109 82.3678 270.632H82.466C82.6459 270.109 82.8176 269.585 82.9812 269.062C83.1448 268.522 83.3083 267.999 83.4719 267.492L86.2444 259.64H89.4831V275.687H86.8578V268.35C86.8578 267.843 86.8741 267.295 86.9069 266.707C86.9559 266.101 87.005 265.496 87.0541 264.891C87.1195 264.286 87.1767 263.738 87.2258 263.247H87.1277L85.8273 266.976L83.202 274.19H81.5091L78.8593 266.976L77.5834 263.247H77.4853C77.5344 263.738 77.5834 264.286 77.6325 264.891C77.6979 265.496 77.747 266.101 77.7797 266.707C77.8288 267.295 77.8533 267.843 77.8533 268.35V275.687H75.2771ZM93.5588 275.687V259.64H96.4049V273.282H103.078V275.687H93.5588ZM115.693 275.981C114.581 275.981 113.575 275.736 112.675 275.245C111.776 274.738 111.064 274.018 110.541 273.086C110.017 272.137 109.756 271 109.756 269.675C109.756 268.367 110.017 267.238 110.541 266.29C111.081 265.341 111.776 264.613 112.626 264.106C113.477 263.599 114.368 263.345 115.301 263.345C116.397 263.345 117.313 263.591 118.049 264.081C118.785 264.556 119.341 265.226 119.717 266.093C120.093 266.944 120.281 267.933 120.281 269.062C120.281 269.651 120.24 270.109 120.159 270.436H112.504C112.635 271.499 113.019 272.325 113.657 272.914C114.295 273.503 115.096 273.797 116.061 273.797C116.585 273.797 117.067 273.724 117.509 273.576C117.967 273.413 118.417 273.192 118.858 272.914L119.815 274.681C119.243 275.057 118.605 275.368 117.901 275.613C117.198 275.858 116.462 275.981 115.693 275.981ZM112.479 268.522H117.828C117.828 267.59 117.623 266.862 117.214 266.339C116.806 265.799 116.192 265.529 115.374 265.529C114.671 265.529 114.041 265.791 113.485 266.314C112.945 266.821 112.61 267.557 112.479 268.522ZM121.241 275.687L125.069 269.405L121.486 263.64H124.529L125.878 265.921C126.058 266.249 126.238 266.592 126.418 266.952C126.614 267.295 126.802 267.631 126.982 267.958H127.081C127.228 267.631 127.383 267.295 127.547 266.952C127.71 266.592 127.866 266.249 128.013 265.921L129.166 263.64H132.086L128.528 269.724L132.356 275.687H129.313L127.841 273.307C127.645 272.947 127.44 272.587 127.228 272.227C127.031 271.867 126.827 271.516 126.614 271.172H126.516C126.353 271.516 126.181 271.867 126.001 272.227C125.821 272.571 125.641 272.93 125.461 273.307L124.185 275.687H121.241ZM134.501 280.446V263.64H136.832L137.028 264.916H137.126C137.633 264.49 138.198 264.122 138.819 263.811C139.457 263.501 140.103 263.345 140.758 263.345C142.262 263.345 143.424 263.901 144.242 265.014C145.076 266.126 145.493 267.614 145.493 269.479C145.493 270.853 145.248 272.031 144.757 273.012C144.266 273.977 143.628 274.713 142.843 275.22C142.074 275.727 141.24 275.981 140.34 275.981C139.817 275.981 139.294 275.866 138.77 275.637C138.247 275.392 137.74 275.065 137.249 274.656L137.323 276.668V280.446H134.501ZM139.752 273.65C140.553 273.65 141.224 273.298 141.764 272.595C142.303 271.892 142.573 270.861 142.573 269.504C142.573 268.293 142.369 267.353 141.96 266.682C141.551 266.011 140.888 265.676 139.972 265.676C139.122 265.676 138.239 266.126 137.323 267.026V272.644C137.764 273.004 138.19 273.266 138.598 273.429C139.007 273.576 139.392 273.65 139.752 273.65ZM153.503 275.981C152.39 275.981 151.384 275.736 150.485 275.245C149.585 274.738 148.874 274.018 148.35 273.086C147.827 272.137 147.565 271 147.565 269.675C147.565 268.367 147.827 267.238 148.35 266.29C148.89 265.341 149.585 264.613 150.436 264.106C151.286 263.599 152.178 263.345 153.11 263.345C154.206 263.345 155.122 263.591 155.858 264.081C156.594 264.556 157.15 265.226 157.526 266.093C157.903 266.944 158.091 267.933 158.091 269.062C158.091 269.651 158.05 270.109 157.968 270.436H150.313C150.444 271.499 150.828 272.325 151.466 272.914C152.104 273.503 152.905 273.797 153.871 273.797C154.394 273.797 154.876 273.724 155.318 273.576C155.776 273.413 156.226 273.192 156.668 272.914L157.624 274.681C157.052 275.057 156.414 275.368 155.711 275.613C155.007 275.858 154.271 275.981 153.503 275.981ZM150.288 268.522H155.637C155.637 267.59 155.433 266.862 155.024 266.339C154.615 265.799 154.001 265.529 153.184 265.529C152.48 265.529 151.85 265.791 151.294 266.314C150.755 266.821 150.419 267.557 150.288 268.522ZM160.785 275.687V263.64H163.116L163.313 265.774H163.411C163.836 264.989 164.351 264.392 164.956 263.983C165.562 263.558 166.183 263.345 166.821 263.345C167.394 263.345 167.852 263.427 168.195 263.591L167.704 266.044C167.492 265.979 167.295 265.93 167.116 265.897C166.936 265.864 166.715 265.848 166.453 265.848C165.979 265.848 165.48 266.036 164.956 266.412C164.433 266.772 163.983 267.41 163.607 268.326V275.687H160.785ZM169.938 275.687V263.64H172.76V275.687H169.938ZM171.361 261.53C170.854 261.53 170.445 261.382 170.135 261.088C169.824 260.794 169.668 260.401 169.668 259.91C169.668 259.436 169.824 259.052 170.135 258.757C170.445 258.463 170.854 258.316 171.361 258.316C171.868 258.316 172.277 258.463 172.588 258.757C172.899 259.052 173.054 259.436 173.054 259.91C173.054 260.401 172.899 260.794 172.588 261.088C172.277 261.382 171.868 261.53 171.361 261.53ZM176.36 275.687V263.64H178.69L178.887 265.284H178.985C179.492 264.744 180.04 264.286 180.629 263.91C181.234 263.533 181.913 263.345 182.665 263.345C183.548 263.345 184.252 263.542 184.775 263.934C185.315 264.31 185.724 264.834 186.002 265.504C186.574 264.883 187.172 264.368 187.793 263.959C188.431 263.55 189.126 263.345 189.879 263.345C191.154 263.345 192.095 263.762 192.7 264.597C193.305 265.431 193.608 266.608 193.608 268.13V275.687H190.762V268.498C190.762 267.5 190.606 266.797 190.296 266.388C190.001 265.979 189.543 265.774 188.922 265.774C188.169 265.774 187.327 266.273 186.395 267.271V275.687H183.573V268.498C183.573 267.5 183.418 266.797 183.107 266.388C182.812 265.979 182.346 265.774 181.708 265.774C180.956 265.774 180.114 266.273 179.181 267.271V275.687H176.36ZM202.19 275.981C201.077 275.981 200.071 275.736 199.172 275.245C198.272 274.738 197.561 274.018 197.037 273.086C196.514 272.137 196.252 271 196.252 269.675C196.252 268.367 196.514 267.238 197.037 266.29C197.577 265.341 198.272 264.613 199.123 264.106C199.973 263.599 200.865 263.345 201.797 263.345C202.893 263.345 203.809 263.591 204.545 264.081C205.281 264.556 205.837 265.226 206.213 266.093C206.59 266.944 206.778 267.933 206.778 269.062C206.778 269.651 206.737 270.109 206.655 270.436H199C199.131 271.499 199.515 272.325 200.153 272.914C200.791 273.503 201.593 273.797 202.558 273.797C203.081 273.797 203.564 273.724 204.005 273.576C204.463 273.413 204.913 273.192 205.355 272.914L206.312 274.681C205.739 275.057 205.101 275.368 204.398 275.613C203.695 275.858 202.958 275.981 202.19 275.981ZM198.976 268.522H204.324C204.324 267.59 204.12 266.862 203.711 266.339C203.302 265.799 202.689 265.529 201.871 265.529C201.167 265.529 200.538 265.791 199.982 266.314C199.442 266.821 199.106 267.557 198.976 268.522ZM209.473 275.687V263.64H211.804L212 265.259H212.098C212.638 264.736 213.227 264.286 213.864 263.91C214.502 263.533 215.23 263.345 216.048 263.345C217.34 263.345 218.281 263.762 218.87 264.597C219.459 265.431 219.753 266.608 219.753 268.13V275.687H216.931V268.498C216.931 267.5 216.784 266.797 216.49 266.388C216.195 265.979 215.713 265.774 215.042 265.774C214.519 265.774 214.053 265.905 213.644 266.167C213.251 266.412 212.801 266.78 212.294 267.271V275.687H209.473ZM227.446 275.981C226.056 275.981 225.067 275.58 224.478 274.779C223.905 273.961 223.619 272.906 223.619 271.614V265.872H221.902V263.762L223.766 263.64L224.11 260.352H226.465V263.64H229.532V265.872H226.465V271.614C226.465 273.02 227.029 273.724 228.158 273.724C228.371 273.724 228.591 273.699 228.82 273.65C229.049 273.585 229.246 273.519 229.409 273.454L229.9 275.539C229.573 275.654 229.197 275.752 228.771 275.834C228.362 275.932 227.921 275.981 227.446 275.981ZM235.189 275.981C234.371 275.981 233.553 275.826 232.735 275.515C231.918 275.188 231.214 274.787 230.625 274.313L231.95 272.497C232.49 272.906 233.03 273.233 233.57 273.478C234.109 273.724 234.682 273.846 235.287 273.846C235.941 273.846 236.424 273.707 236.735 273.429C237.045 273.151 237.201 272.808 237.201 272.399C237.201 272.055 237.07 271.777 236.808 271.565C236.563 271.336 236.244 271.139 235.851 270.976C235.459 270.796 235.05 270.624 234.625 270.461C234.101 270.264 233.578 270.027 233.054 269.749C232.547 269.455 232.13 269.087 231.803 268.645C231.476 268.187 231.312 267.623 231.312 266.952C231.312 265.889 231.705 265.022 232.49 264.351C233.275 263.681 234.338 263.345 235.68 263.345C236.53 263.345 237.291 263.492 237.961 263.787C238.632 264.081 239.213 264.417 239.703 264.793L238.403 266.51C237.978 266.2 237.544 265.954 237.103 265.774C236.677 265.578 236.228 265.48 235.753 265.48C235.148 265.48 234.698 265.611 234.404 265.872C234.109 266.118 233.962 266.429 233.962 266.805C233.962 267.279 234.207 267.639 234.698 267.884C235.189 268.13 235.761 268.367 236.416 268.596C236.972 268.792 237.512 269.037 238.035 269.332C238.558 269.61 238.992 269.978 239.335 270.436C239.695 270.894 239.875 271.499 239.875 272.252C239.875 273.282 239.474 274.165 238.673 274.901C237.871 275.621 236.71 275.981 235.189 275.981Z" fill="#AEB3BD"/>
<defs>
<linearGradient id="paint0_linear_444_566" x1="156.45" y1="68.2944" x2="156.45" y2="123.707" gradientUnits="userSpaceOnUse">
<stop offset="0.385417" stop-color="#FFCC33"/>
<stop offset="0.71875" stop-color="#FFAD33"/>
</linearGradient>
</defs>
</svg>
