<svg width="314" height="320" viewBox="0 0 314 320" fill="none" xmlns="http://www.w3.org/2000/svg">
<path d="M0.982422 18.5167C0.982422 8.35383 9.22104 0.115234 19.3839 0.115234H295.406C305.569 0.115234 313.807 8.35385 313.807 18.5167V300.673C313.807 310.835 305.569 319.074 295.406 319.074H19.3839C9.22102 319.074 0.982422 310.835 0.982422 300.672V18.5167Z" fill="#FAFAFA"/>
<rect x="102.297" y="36.918" width="110.195" height="110.195" rx="55.0975" fill="#15151F" fill-opacity="0.04"/>
<path fill-rule="evenodd" clip-rule="evenodd" d="M149.191 81.528C141.981 88.7308 139.834 96.0096 139.538 98.7063C139.059 103.067 146.344 110.325 150.708 109.866C153.394 109.583 160.757 107.489 167.916 100.235C180.541 87.3355 178.482 77.7766 175.075 74.3746C171.669 70.9726 161.958 68.7731 149.191 81.528ZM169.265 86.1828C167.606 87.8403 164.916 87.8403 163.257 86.1828C161.598 84.5253 161.598 81.8379 163.257 80.1804C164.916 78.5229 167.605 78.5223 169.264 80.1798C170.923 81.8373 170.924 84.5253 169.265 86.1828Z" fill="url(#paint0_linear_444_606)"/>
<path d="M166.206 104.213C161.687 108.146 157.445 110.039 154.367 110.949L159.398 119.119C159.793 119.761 160.757 119.658 161.008 118.947L166.206 104.213Z" fill="url(#paint1_linear_444_606)"/>
<path d="M138.507 95.0786C139.436 92.0179 141.342 87.7874 145.251 83.2376L130.471 88.4273C129.758 88.6776 129.654 89.6433 130.298 90.0387L138.507 95.0786Z" fill="url(#paint2_linear_444_606)"/>
<path d="M104.011 201.514V177.372H107.103V198.901H117.628V201.514H104.011ZM125.737 201.956C122.756 201.956 120.511 200.116 120.511 196.877C120.511 192.903 123.823 190.989 131.478 190.142C131.441 187.897 130.705 185.726 127.798 185.726C125.737 185.726 123.86 186.646 122.461 187.566L121.284 185.505C122.94 184.401 125.442 183.187 128.313 183.187C132.656 183.187 134.533 186.094 134.533 190.51V201.514H132.03L131.736 199.38H131.625C129.932 200.815 127.982 201.956 125.737 201.956ZM126.583 199.453C128.313 199.453 129.748 198.681 131.478 197.172V192.314C125.442 193.013 123.492 194.375 123.492 196.693C123.492 198.681 124.854 199.453 126.583 199.453ZM145.386 201.956C141.595 201.956 139.903 199.527 139.903 194.963V183.628H142.957V194.559C142.957 197.871 143.988 199.306 146.343 199.306C148.146 199.306 149.435 198.386 151.091 196.288V183.628H154.145V201.514H151.643L151.385 198.717H151.275C149.619 200.668 147.852 201.956 145.386 201.956ZM160.179 201.514V183.628H162.682L162.939 186.204H163.05C164.743 184.511 166.583 183.187 169.048 183.187C172.839 183.187 174.532 185.616 174.532 190.179V201.514H171.477V190.584C171.477 187.235 170.447 185.836 168.092 185.836C166.288 185.836 165 186.756 163.234 188.56V201.514H160.179ZM187.372 201.956C182.624 201.956 178.981 198.533 178.981 192.608C178.981 186.609 182.992 183.187 187.593 183.187C189.948 183.187 191.567 184.107 192.819 185.284L191.31 187.198C190.316 186.278 189.175 185.726 187.74 185.726C184.501 185.726 182.146 188.486 182.146 192.608C182.146 196.693 184.354 199.417 187.629 199.417C189.285 199.417 190.758 198.681 191.825 197.724L193.15 199.674C191.53 201.146 189.506 201.956 187.372 201.956ZM197.09 201.514V175.311H200.144V182.45L200.034 186.131C201.69 184.511 203.493 183.187 205.959 183.187C209.75 183.187 211.443 185.616 211.443 190.179V201.514H208.388V190.584C208.388 187.235 207.358 185.836 205.002 185.836C203.199 185.836 201.911 186.756 200.144 188.56V201.514H197.09Z" fill="#676D78"/>
<path d="M43.4277 245.92V229.874H48.4819C49.676 229.874 50.7392 230.029 51.6715 230.34C52.6039 230.651 53.3399 231.166 53.8797 231.885C54.4195 232.605 54.6894 233.587 54.6894 234.83C54.6894 236.007 54.4195 236.981 53.8797 237.749C53.3399 238.518 52.612 239.091 51.6961 239.467C50.7801 239.843 49.7414 240.031 48.5801 240.031H46.2738V245.92H43.4277ZM46.2738 237.749H48.3593C50.7147 237.749 51.8923 236.776 51.8923 234.83C51.8923 233.816 51.5816 233.12 50.96 232.744C50.3548 232.352 49.4552 232.155 48.2611 232.155H46.2738V237.749ZM59.4479 246.214C58.401 246.214 57.5423 245.887 56.8717 245.233C56.2174 244.578 55.8903 243.728 55.8903 242.681C55.8903 241.389 56.4546 240.391 57.5832 239.688C58.7118 238.968 60.5111 238.477 62.981 238.216C62.9646 237.578 62.7928 237.03 62.4657 236.572C62.1549 236.097 61.5906 235.86 60.7728 235.86C60.1839 235.86 59.6033 235.975 59.0308 236.204C58.4746 236.433 57.9267 236.711 57.3869 237.038L56.3564 235.149C57.0271 234.723 57.7795 234.355 58.6137 234.045C59.4642 233.734 60.3639 233.578 61.3126 233.578C62.8174 233.578 63.9378 234.028 64.6739 234.928C65.4263 235.811 65.8025 237.095 65.8025 238.78V245.92H63.4717L63.2754 244.595H63.1772C62.6375 245.053 62.0568 245.437 61.4352 245.748C60.83 246.059 60.1676 246.214 59.4479 246.214ZM60.3557 244.006C60.8464 244.006 61.288 243.891 61.6806 243.662C62.0895 243.417 62.523 243.09 62.981 242.681V239.982C61.3453 240.195 60.2085 240.514 59.5705 240.939C58.9326 241.348 58.6137 241.855 58.6137 242.46C58.6137 243 58.7772 243.393 59.1044 243.638C59.4315 243.883 59.8486 244.006 60.3557 244.006ZM74.2089 246.214C73.113 246.214 72.1234 245.969 71.2401 245.478C70.3732 244.971 69.6781 244.251 69.1546 243.319C68.6476 242.37 68.394 241.233 68.394 239.909C68.394 238.567 68.6721 237.43 69.2282 236.498C69.7844 235.549 70.5204 234.83 71.4364 234.339C72.3688 233.832 73.3665 233.578 74.4297 233.578C75.1985 233.578 75.8691 233.709 76.4416 233.971C77.0141 234.233 77.5212 234.552 77.9628 234.928L76.5888 236.768C76.2781 236.49 75.9591 236.277 75.632 236.13C75.3048 235.967 74.9531 235.885 74.5769 235.885C73.6119 235.885 72.8186 236.253 72.197 236.989C71.5918 237.725 71.2892 238.698 71.2892 239.909C71.2892 241.103 71.5836 242.068 72.1725 242.804C72.7777 243.54 73.5546 243.908 74.5033 243.908C74.9777 243.908 75.4193 243.81 75.8282 243.613C76.2535 243.401 76.6379 243.155 76.9814 242.877L78.1346 244.742C77.5784 245.233 76.9569 245.601 76.2699 245.846C75.5829 246.091 74.8959 246.214 74.2089 246.214ZM80.5124 245.92V228.598H83.2849V239.418H83.3585L87.8239 233.873H90.9153L86.7934 238.78L91.3324 245.92H88.2655L85.1741 240.694L83.2849 242.853V245.92H80.5124ZM96.0112 246.214C94.9644 246.214 94.1056 245.887 93.435 245.233C92.7807 244.578 92.4536 243.728 92.4536 242.681C92.4536 241.389 93.0179 240.391 94.1465 239.688C95.2751 238.968 97.0744 238.477 99.5443 238.216C99.5279 237.578 99.3562 237.03 99.029 236.572C98.7182 236.097 98.1539 235.86 97.3361 235.86C96.7472 235.86 96.1666 235.975 95.5941 236.204C95.038 236.433 94.49 236.711 93.9502 237.038L92.9197 235.149C93.5904 234.723 94.3428 234.355 95.177 234.045C96.0275 233.734 96.9272 233.578 97.8759 233.578C99.3807 233.578 100.501 234.028 101.237 234.928C101.99 235.811 102.366 237.095 102.366 238.78V245.92H100.035L99.8387 244.595H99.7406C99.2008 245.053 98.6201 245.437 97.9985 245.748C97.3933 246.059 96.7309 246.214 96.0112 246.214ZM96.919 244.006C97.4097 244.006 97.8513 243.891 98.2439 243.662C98.6528 243.417 99.0863 243.09 99.5443 242.681V239.982C97.9086 240.195 96.7718 240.514 96.1339 240.939C95.4959 241.348 95.177 241.855 95.177 242.46C95.177 243 95.3406 243.393 95.6677 243.638C95.9948 243.883 96.4119 244.006 96.919 244.006ZM109.938 251.244C108.989 251.244 108.131 251.129 107.362 250.9C106.609 250.671 106.012 250.32 105.571 249.845C105.145 249.387 104.933 248.807 104.933 248.103C104.933 247.106 105.505 246.247 106.65 245.527V245.429C106.34 245.233 106.078 244.971 105.865 244.644C105.669 244.317 105.571 243.908 105.571 243.417C105.571 242.943 105.702 242.517 105.963 242.141C106.241 241.749 106.552 241.43 106.896 241.184V241.086C106.487 240.775 106.119 240.342 105.792 239.786C105.481 239.23 105.325 238.6 105.325 237.897C105.325 236.964 105.546 236.179 105.988 235.541C106.429 234.903 107.01 234.421 107.73 234.094C108.466 233.75 109.251 233.578 110.085 233.578C110.412 233.578 110.723 233.611 111.018 233.677C111.328 233.726 111.606 233.791 111.852 233.873H116.17V235.958H113.962C114.158 236.187 114.322 236.482 114.453 236.842C114.583 237.185 114.649 237.57 114.649 237.995C114.649 238.878 114.444 239.63 114.035 240.252C113.626 240.857 113.079 241.315 112.392 241.626C111.705 241.937 110.936 242.092 110.085 242.092C109.824 242.092 109.554 242.068 109.276 242.019C108.998 241.969 108.719 241.888 108.441 241.773C108.261 241.937 108.114 242.1 108 242.264C107.902 242.427 107.853 242.648 107.853 242.926C107.853 243.27 107.992 243.54 108.27 243.736C108.564 243.932 109.079 244.03 109.815 244.03H111.95C113.406 244.03 114.502 244.268 115.238 244.742C115.99 245.2 116.366 245.952 116.366 246.999C116.366 247.784 116.105 248.496 115.581 249.134C115.058 249.788 114.313 250.303 113.348 250.68C112.383 251.056 111.247 251.244 109.938 251.244ZM110.085 240.326C110.658 240.326 111.148 240.113 111.557 239.688C111.966 239.262 112.171 238.665 112.171 237.897C112.171 237.144 111.966 236.564 111.557 236.155C111.165 235.729 110.674 235.517 110.085 235.517C109.496 235.517 108.998 235.721 108.589 236.13C108.18 236.539 107.975 237.128 107.975 237.897C107.975 238.665 108.18 239.262 108.589 239.688C108.998 240.113 109.496 240.326 110.085 240.326ZM110.38 249.404C111.345 249.404 112.13 249.207 112.735 248.815C113.34 248.422 113.643 247.972 113.643 247.465C113.643 246.991 113.455 246.672 113.079 246.509C112.719 246.345 112.195 246.263 111.508 246.263H109.864C109.21 246.263 108.662 246.206 108.221 246.091C107.599 246.566 107.288 247.097 107.288 247.686C107.288 248.226 107.566 248.643 108.122 248.938C108.679 249.248 109.431 249.404 110.38 249.404ZM123.258 246.214C122.146 246.214 121.14 245.969 120.241 245.478C119.341 244.971 118.629 244.251 118.106 243.319C117.583 242.37 117.321 241.233 117.321 239.909C117.321 238.6 117.583 237.471 118.106 236.523C118.646 235.574 119.341 234.846 120.191 234.339C121.042 233.832 121.933 233.578 122.866 233.578C123.962 233.578 124.878 233.824 125.614 234.314C126.35 234.789 126.906 235.459 127.282 236.326C127.658 237.177 127.846 238.167 127.846 239.295C127.846 239.884 127.806 240.342 127.724 240.669H120.069C120.2 241.732 120.584 242.558 121.222 243.147C121.86 243.736 122.661 244.03 123.626 244.03C124.15 244.03 124.632 243.957 125.074 243.81C125.532 243.646 125.982 243.425 126.423 243.147L127.38 244.914C126.808 245.29 126.17 245.601 125.467 245.846C124.763 246.091 124.027 246.214 123.258 246.214ZM120.044 238.755H125.393C125.393 237.823 125.188 237.095 124.78 236.572C124.371 236.032 123.757 235.762 122.939 235.762C122.236 235.762 121.606 236.024 121.05 236.547C120.51 237.054 120.175 237.79 120.044 238.755ZM138.373 246.214C137.326 246.214 136.467 245.887 135.797 245.233C135.142 244.578 134.815 243.728 134.815 242.681C134.815 241.389 135.38 240.391 136.508 239.688C137.637 238.968 139.436 238.477 141.906 238.216C141.89 237.578 141.718 237.03 141.391 236.572C141.08 236.097 140.516 235.86 139.698 235.86C139.109 235.86 138.528 235.975 137.956 236.204C137.4 236.433 136.852 236.711 136.312 237.038L135.281 235.149C135.952 234.723 136.704 234.355 137.539 234.045C138.389 233.734 139.289 233.578 140.238 233.578C141.742 233.578 142.863 234.028 143.599 234.928C144.351 235.811 144.728 237.095 144.728 238.78V245.92H142.397L142.2 244.595H142.102C141.562 245.053 140.982 245.437 140.36 245.748C139.755 246.059 139.093 246.214 138.373 246.214ZM139.281 244.006C139.771 244.006 140.213 243.891 140.606 243.662C141.015 243.417 141.448 243.09 141.906 242.681V239.982C140.27 240.195 139.133 240.514 138.496 240.939C137.858 241.348 137.539 241.855 137.539 242.46C137.539 243 137.702 243.393 138.029 243.638C138.357 243.883 138.774 244.006 139.281 244.006ZM148.104 245.92V233.873H150.435L150.631 235.492H150.729C151.269 234.969 151.858 234.519 152.496 234.143C153.134 233.767 153.862 233.578 154.68 233.578C155.972 233.578 156.912 233.996 157.501 234.83C158.09 235.664 158.384 236.842 158.384 238.363V245.92H155.563V238.731C155.563 237.733 155.416 237.03 155.121 236.621C154.827 236.212 154.344 236.007 153.674 236.007C153.15 236.007 152.684 236.138 152.275 236.4C151.883 236.645 151.433 237.013 150.926 237.504V245.92H148.104ZM166.053 246.214C164.549 246.214 163.346 245.658 162.447 244.546C161.547 243.433 161.097 241.888 161.097 239.909C161.097 238.6 161.335 237.471 161.809 236.523C162.3 235.574 162.937 234.846 163.723 234.339C164.508 233.832 165.334 233.578 166.201 233.578C166.888 233.578 167.468 233.701 167.943 233.946C168.433 234.175 168.908 234.494 169.366 234.903L169.268 232.965V228.598H172.089V245.92H169.758L169.562 244.619H169.464C169.022 245.061 168.507 245.437 167.918 245.748C167.329 246.059 166.708 246.214 166.053 246.214ZM166.74 243.883C167.64 243.883 168.482 243.433 169.268 242.534V236.915C168.859 236.539 168.45 236.277 168.041 236.13C167.632 235.983 167.223 235.909 166.814 235.909C166.045 235.909 165.383 236.261 164.827 236.964C164.287 237.651 164.017 238.625 164.017 239.884C164.017 241.176 164.254 242.166 164.729 242.853C165.203 243.54 165.874 243.883 166.74 243.883ZM180.594 245.92V233.873H182.925L183.121 236.007H183.22C183.645 235.222 184.16 234.625 184.765 234.216C185.37 233.791 185.992 233.578 186.63 233.578C187.202 233.578 187.66 233.66 188.004 233.824L187.513 236.277C187.301 236.212 187.104 236.163 186.924 236.13C186.744 236.097 186.524 236.081 186.262 236.081C185.788 236.081 185.289 236.269 184.765 236.645C184.242 237.005 183.792 237.643 183.416 238.559V245.92H180.594ZM193.329 246.214C192.037 246.214 191.097 245.797 190.508 244.963C189.919 244.129 189.624 242.951 189.624 241.43V233.873H192.446V241.062C192.446 242.059 192.593 242.763 192.888 243.172C193.182 243.581 193.656 243.785 194.311 243.785C194.834 243.785 195.292 243.654 195.685 243.393C196.094 243.131 196.527 242.706 196.985 242.117V233.873H199.807V245.92H197.5L197.279 244.153H197.206C196.682 244.775 196.11 245.274 195.488 245.65C194.867 246.026 194.147 246.214 193.329 246.214ZM203.38 245.92V233.873H205.711L205.908 235.492H206.006C206.546 234.969 207.134 234.519 207.772 234.143C208.41 233.767 209.138 233.578 209.956 233.578C211.248 233.578 212.189 233.996 212.777 234.83C213.366 235.664 213.661 236.842 213.661 238.363V245.92H210.839V238.731C210.839 237.733 210.692 237.03 210.398 236.621C210.103 236.212 209.621 236.007 208.95 236.007C208.427 236.007 207.96 236.138 207.551 236.4C207.159 236.645 206.709 237.013 206.202 237.504V245.92H203.38ZM222.831 250.876C222.504 250.876 222.218 250.851 221.972 250.802C221.727 250.753 221.49 250.696 221.261 250.63L221.776 248.422C221.891 248.455 222.022 248.488 222.169 248.52C222.332 248.569 222.488 248.594 222.635 248.594C223.273 248.594 223.78 248.398 224.156 248.005C224.549 247.629 224.843 247.138 225.039 246.533L225.26 245.772L220.525 233.873H223.395L225.481 239.786C225.661 240.309 225.833 240.865 225.996 241.454C226.176 242.027 226.356 242.599 226.536 243.172H226.634C226.781 242.616 226.929 242.051 227.076 241.479C227.239 240.89 227.395 240.326 227.542 239.786L229.358 233.873H232.081L227.714 246.459C227.207 247.817 226.593 248.888 225.874 249.674C225.154 250.475 224.14 250.876 222.831 250.876ZM238.957 246.214C237.959 246.214 237.027 245.969 236.16 245.478C235.293 244.971 234.59 244.251 234.05 243.319C233.51 242.37 233.24 241.233 233.24 239.909C233.24 238.567 233.51 237.43 234.05 236.498C234.59 235.549 235.293 234.83 236.16 234.339C237.027 233.832 237.959 233.578 238.957 233.578C239.971 233.578 240.912 233.832 241.779 234.339C242.646 234.83 243.349 235.549 243.889 236.498C244.429 237.43 244.698 238.567 244.698 239.909C244.698 241.233 244.429 242.37 243.889 243.319C243.349 244.251 242.646 244.971 241.779 245.478C240.912 245.969 239.971 246.214 238.957 246.214ZM238.957 243.908C239.84 243.908 240.536 243.54 241.043 242.804C241.55 242.068 241.803 241.103 241.803 239.909C241.803 238.698 241.55 237.725 241.043 236.989C240.536 236.253 239.84 235.885 238.957 235.885C238.074 235.885 237.379 236.253 236.872 236.989C236.381 237.725 236.136 238.698 236.136 239.909C236.136 241.103 236.381 242.068 236.872 242.804C237.379 243.54 238.074 243.908 238.957 243.908ZM251.073 246.214C249.781 246.214 248.841 245.797 248.252 244.963C247.663 244.129 247.369 242.951 247.369 241.43V233.873H250.19V241.062C250.19 242.059 250.337 242.763 250.632 243.172C250.926 243.581 251.401 243.785 252.055 243.785C252.578 243.785 253.036 243.654 253.429 243.393C253.838 243.131 254.271 242.706 254.729 242.117V233.873H257.551V245.92H255.244L255.024 244.153H254.95C254.427 244.775 253.854 245.274 253.233 245.65C252.611 246.026 251.891 246.214 251.073 246.214ZM261.125 245.92V233.873H263.455L263.652 236.007H263.75C264.175 235.222 264.69 234.625 265.296 234.216C265.901 233.791 266.522 233.578 267.16 233.578C267.733 233.578 268.191 233.66 268.534 233.824L268.044 236.277C267.831 236.212 267.635 236.163 267.455 236.13C267.275 236.097 267.054 236.081 266.792 236.081C266.318 236.081 265.819 236.269 265.296 236.645C264.772 237.005 264.322 237.643 263.946 238.559V245.92H261.125ZM67.2322 274.92V258.874H70.4463L73.2924 266.725C73.4723 267.232 73.6441 267.755 73.8076 268.295C73.9875 268.819 74.1593 269.342 74.3229 269.865H74.421C74.6009 269.342 74.7727 268.819 74.9362 268.295C75.0998 267.755 75.2634 267.232 75.427 266.725L78.1994 258.874H81.4381V274.92H78.8128V267.584C78.8128 267.077 78.8292 266.529 78.8619 265.94C78.911 265.335 78.96 264.729 79.0091 264.124C79.0745 263.519 79.1318 262.971 79.1809 262.48H79.0827L77.7823 266.21L75.1571 273.423H73.4641L70.8143 266.21L69.5385 262.48H69.4403C69.4894 262.971 69.5385 263.519 69.5876 264.124C69.653 264.729 69.7021 265.335 69.7348 265.94C69.7838 266.529 69.8084 267.077 69.8084 267.584V274.92H67.2322ZM85.5138 274.92V258.874H88.3599V272.515H95.0335V274.92H85.5138ZM104.483 274.92L101.294 262.873H104.14L105.587 269.129C105.718 269.702 105.825 270.274 105.906 270.847C106.004 271.419 106.111 272 106.225 272.589H106.323C106.438 272 106.552 271.419 106.667 270.847C106.798 270.258 106.937 269.685 107.084 269.129L108.654 262.873H111.23L112.825 269.129C112.972 269.702 113.111 270.274 113.242 270.847C113.373 271.419 113.504 272 113.635 272.589H113.733C113.848 272 113.954 271.419 114.052 270.847C114.15 270.274 114.256 269.702 114.371 269.129L115.819 262.873H118.468L115.401 274.92H112.04L110.642 269.301C110.511 268.729 110.388 268.164 110.274 267.608C110.159 267.036 110.036 266.43 109.906 265.793H109.807C109.693 266.43 109.578 267.036 109.464 267.608C109.349 268.181 109.227 268.753 109.096 269.326L107.722 274.92H104.483ZM125.637 275.214C124.639 275.214 123.707 274.969 122.84 274.478C121.973 273.971 121.27 273.251 120.73 272.319C120.19 271.37 119.921 270.233 119.921 268.909C119.921 267.567 120.19 266.43 120.73 265.498C121.27 264.549 121.973 263.83 122.84 263.339C123.707 262.832 124.639 262.578 125.637 262.578C126.651 262.578 127.592 262.832 128.459 263.339C129.326 263.83 130.029 264.549 130.569 265.498C131.109 266.43 131.379 267.567 131.379 268.909C131.379 270.233 131.109 271.37 130.569 272.319C130.029 273.251 129.326 273.971 128.459 274.478C127.592 274.969 126.651 275.214 125.637 275.214ZM125.637 272.908C126.521 272.908 127.216 272.54 127.723 271.804C128.23 271.068 128.483 270.103 128.483 268.909C128.483 267.698 128.23 266.725 127.723 265.989C127.216 265.253 126.521 264.885 125.637 264.885C124.754 264.885 124.059 265.253 123.552 265.989C123.061 266.725 122.816 267.698 122.816 268.909C122.816 270.103 123.061 271.068 123.552 271.804C124.059 272.54 124.754 272.908 125.637 272.908ZM134.171 274.92V262.873H136.502L136.698 265.007H136.797C137.222 264.222 137.737 263.625 138.342 263.216C138.948 262.791 139.569 262.578 140.207 262.578C140.779 262.578 141.237 262.66 141.581 262.824L141.09 265.277C140.878 265.212 140.681 265.163 140.501 265.13C140.321 265.097 140.101 265.081 139.839 265.081C139.365 265.081 138.866 265.269 138.342 265.645C137.819 266.005 137.369 266.643 136.993 267.559V274.92H134.171ZM143.324 274.92V257.598H146.097V268.418H146.17L150.636 262.873H153.727L149.605 267.78L154.144 274.92H151.077L147.986 269.694L146.097 271.853V274.92H143.324ZM156.634 274.92V265.106H155.014V262.996L156.634 262.873V261.622C156.634 260.362 156.944 259.332 157.566 258.53C158.187 257.712 159.21 257.303 160.633 257.303C161.058 257.303 161.467 257.344 161.86 257.426C162.252 257.508 162.579 257.606 162.841 257.72L162.301 259.83C161.86 259.634 161.418 259.536 160.976 259.536C159.962 259.536 159.455 260.215 159.455 261.572V262.873H161.811V265.106H159.455V274.92H156.634ZM166.678 275.214C165.68 275.214 164.969 274.911 164.543 274.306C164.134 273.701 163.93 272.875 163.93 271.828V257.598H166.751V271.975C166.751 272.319 166.817 272.564 166.948 272.712C167.079 272.842 167.218 272.908 167.365 272.908C167.43 272.908 167.488 272.908 167.537 272.908C167.602 272.891 167.692 272.875 167.807 272.859L168.175 274.969C168.011 275.034 167.798 275.091 167.537 275.14C167.291 275.19 167.005 275.214 166.678 275.214ZM175.522 275.214C174.525 275.214 173.592 274.969 172.725 274.478C171.859 273.971 171.155 273.251 170.615 272.319C170.076 271.37 169.806 270.233 169.806 268.909C169.806 267.567 170.076 266.43 170.615 265.498C171.155 264.549 171.859 263.83 172.725 263.339C173.592 262.832 174.525 262.578 175.522 262.578C176.537 262.578 177.477 262.832 178.344 263.339C179.211 263.83 179.914 264.549 180.454 265.498C180.994 266.43 181.264 267.567 181.264 268.909C181.264 270.233 180.994 271.37 180.454 272.319C179.914 273.251 179.211 273.971 178.344 274.478C177.477 274.969 176.537 275.214 175.522 275.214ZM175.522 272.908C176.406 272.908 177.101 272.54 177.608 271.804C178.115 271.068 178.369 270.103 178.369 268.909C178.369 267.698 178.115 266.725 177.608 265.989C177.101 265.253 176.406 264.885 175.522 264.885C174.639 264.885 173.944 265.253 173.437 265.989C172.946 266.725 172.701 267.698 172.701 268.909C172.701 270.103 172.946 271.068 173.437 271.804C173.944 272.54 174.639 272.908 175.522 272.908ZM185.9 274.92L182.711 262.873H185.557L187.004 269.129C187.135 269.702 187.241 270.274 187.323 270.847C187.421 271.419 187.528 272 187.642 272.589H187.74C187.855 272 187.969 271.419 188.084 270.847C188.215 270.258 188.354 269.685 188.501 269.129L190.071 262.873H192.647L194.242 269.129C194.389 269.702 194.528 270.274 194.659 270.847C194.79 271.419 194.921 272 195.052 272.589H195.15C195.264 272 195.371 271.419 195.469 270.847C195.567 270.274 195.673 269.702 195.788 269.129L197.235 262.873H199.885L196.818 274.92H193.457L192.058 269.301C191.928 268.729 191.805 268.164 191.69 267.608C191.576 267.036 191.453 266.43 191.322 265.793H191.224C191.11 266.43 190.995 267.036 190.881 267.608C190.766 268.181 190.644 268.753 190.513 269.326L189.139 274.92H185.9ZM206.221 279.974C205.78 279.974 205.403 279.941 205.093 279.876C204.766 279.81 204.487 279.737 204.258 279.655L204.798 277.545C204.962 277.594 205.134 277.635 205.313 277.668C205.477 277.717 205.649 277.741 205.829 277.741C206.368 277.741 206.728 277.553 206.908 277.177C207.105 276.817 207.203 276.285 207.203 275.582V262.873H210.049V275.533C210.049 276.384 209.926 277.144 209.681 277.815C209.435 278.485 209.035 279.009 208.479 279.385C207.922 279.778 207.17 279.974 206.221 279.974ZM208.626 260.763C208.119 260.763 207.71 260.616 207.399 260.321C207.088 260.027 206.933 259.634 206.933 259.143C206.933 258.669 207.088 258.285 207.399 257.99C207.71 257.696 208.119 257.549 208.626 257.549C209.133 257.549 209.542 257.696 209.853 257.99C210.163 258.285 210.319 258.669 210.319 259.143C210.319 259.634 210.163 260.027 209.853 260.321C209.542 260.616 209.133 260.763 208.626 260.763ZM218.555 275.214C217.557 275.214 216.625 274.969 215.758 274.478C214.891 273.971 214.188 273.251 213.648 272.319C213.108 271.37 212.838 270.233 212.838 268.909C212.838 267.567 213.108 266.43 213.648 265.498C214.188 264.549 214.891 263.83 215.758 263.339C216.625 262.832 217.557 262.578 218.555 262.578C219.569 262.578 220.51 262.832 221.377 263.339C222.244 263.83 222.947 264.549 223.487 265.498C224.026 266.43 224.296 267.567 224.296 268.909C224.296 270.233 224.026 271.37 223.487 272.319C222.947 273.251 222.244 273.971 221.377 274.478C220.51 274.969 219.569 275.214 218.555 275.214ZM218.555 272.908C219.438 272.908 220.133 272.54 220.641 271.804C221.148 271.068 221.401 270.103 221.401 268.909C221.401 267.698 221.148 266.725 220.641 265.989C220.133 265.253 219.438 264.885 218.555 264.885C217.672 264.885 216.977 265.253 216.47 265.989C215.979 266.725 215.733 267.698 215.733 268.909C215.733 270.103 215.979 271.068 216.47 271.804C216.977 272.54 217.672 272.908 218.555 272.908ZM232.929 275.214C231.784 275.214 230.688 274.691 229.641 273.644H229.567L229.322 274.92H227.089V257.598H229.911V262.063L229.837 264.075C230.344 263.633 230.9 263.274 231.505 262.996C232.111 262.717 232.716 262.578 233.321 262.578C234.826 262.578 235.995 263.135 236.83 264.247C237.664 265.359 238.081 266.839 238.081 268.688C238.081 270.062 237.836 271.239 237.345 272.221C236.854 273.186 236.216 273.93 235.431 274.454C234.662 274.961 233.828 275.214 232.929 275.214ZM232.34 272.883C233.141 272.883 233.812 272.532 234.352 271.828C234.891 271.125 235.161 270.094 235.161 268.737C235.161 267.526 234.957 266.586 234.548 265.915C234.139 265.245 233.476 264.909 232.56 264.909C231.71 264.909 230.827 265.359 229.911 266.259V271.877C230.336 272.237 230.753 272.499 231.162 272.662C231.587 272.81 231.98 272.883 232.34 272.883ZM244.18 275.214C243.362 275.214 242.544 275.059 241.726 274.748C240.908 274.421 240.205 274.02 239.616 273.546L240.941 271.73C241.481 272.139 242.021 272.466 242.56 272.712C243.1 272.957 243.673 273.08 244.278 273.08C244.932 273.08 245.415 272.94 245.725 272.662C246.036 272.384 246.192 272.041 246.192 271.632C246.192 271.288 246.061 271.01 245.799 270.798C245.554 270.569 245.235 270.372 244.842 270.209C244.45 270.029 244.041 269.857 243.615 269.694C243.092 269.497 242.569 269.26 242.045 268.982C241.538 268.688 241.121 268.32 240.794 267.878C240.467 267.42 240.303 266.856 240.303 266.185C240.303 265.122 240.696 264.255 241.481 263.584C242.266 262.914 243.329 262.578 244.67 262.578C245.521 262.578 246.282 262.726 246.952 263.02C247.623 263.314 248.203 263.65 248.694 264.026L247.394 265.743C246.969 265.433 246.535 265.187 246.093 265.007C245.668 264.811 245.218 264.713 244.744 264.713C244.139 264.713 243.689 264.844 243.395 265.106C243.1 265.351 242.953 265.662 242.953 266.038C242.953 266.512 243.198 266.872 243.689 267.117C244.18 267.363 244.752 267.6 245.406 267.829C245.963 268.025 246.502 268.271 247.026 268.565C247.549 268.843 247.983 269.211 248.326 269.669C248.686 270.127 248.866 270.732 248.866 271.485C248.866 272.515 248.465 273.398 247.664 274.135C246.862 274.854 245.701 275.214 244.18 275.214Z" fill="#AEB3BD"/>
<defs>
<linearGradient id="paint0_linear_444_606" x1="152.679" y1="71.7432" x2="152.679" y2="127.155" gradientUnits="userSpaceOnUse">
<stop offset="0.385417" stop-color="#FFCC33"/>
<stop offset="0.71875" stop-color="#FFAD33"/>
</linearGradient>
<linearGradient id="paint1_linear_444_606" x1="152.679" y1="71.7432" x2="152.679" y2="127.155" gradientUnits="userSpaceOnUse">
<stop offset="0.385417" stop-color="#FFCC33"/>
<stop offset="0.71875" stop-color="#FFAD33"/>
</linearGradient>
<linearGradient id="paint2_linear_444_606" x1="152.679" y1="71.7432" x2="152.679" y2="127.155" gradientUnits="userSpaceOnUse">
<stop offset="0.385417" stop-color="#FFCC33"/>
<stop offset="0.71875" stop-color="#FFAD33"/>
</linearGradient>
</defs>
</svg>
