<svg width="314" height="320" viewBox="0 0 314 320" fill="none" xmlns="http://www.w3.org/2000/svg">
<path d="M0.746094 18.5167C0.746094 8.35383 8.98471 0.115234 19.1476 0.115234H295.17C305.332 0.115234 313.571 8.35385 313.571 18.5167V300.673C313.571 310.835 305.332 319.074 295.169 319.074H19.1475C8.98469 319.074 0.746094 310.835 0.746094 300.672V18.5167Z" fill="#FAFAFA"/>
<rect x="102.061" y="36.9182" width="110.195" height="110.195" rx="55.0975" fill="#15151F" fill-opacity="0.04"/>
<path d="M165.507 72.8151C165.507 77.4257 161.769 81.1632 157.159 81.1632C152.548 81.1632 148.811 77.4257 148.811 72.8151C148.811 68.2046 152.548 64.467 157.159 64.467C161.769 64.467 165.507 68.2046 165.507 72.8151Z" fill="url(#paint0_linear_444_586)"/>
<path d="M165.507 111.216C165.507 115.827 161.769 119.564 157.159 119.564C152.548 119.564 148.811 115.827 148.811 111.216C148.811 106.606 152.548 102.868 157.159 102.868C161.769 102.868 165.507 106.606 165.507 111.216Z" fill="url(#paint1_linear_444_586)"/>
<path d="M137.958 100.364C142.569 100.364 146.306 96.6263 146.306 92.0158C146.306 87.4052 142.569 83.6677 137.958 83.6677C133.348 83.6677 129.61 87.4052 129.61 92.0158C129.61 96.6263 133.348 100.364 137.958 100.364Z" fill="url(#paint2_linear_444_586)"/>
<path d="M184.708 92.0158C184.708 96.6263 180.97 100.364 176.359 100.364C171.749 100.364 168.011 96.6263 168.011 92.0158C168.011 87.4052 171.749 83.6677 176.359 83.6677C180.97 83.6677 184.708 87.4052 184.708 92.0158Z" fill="url(#paint3_linear_444_586)"/>
<path d="M151.071 80.9187C151.234 81.0817 151.234 81.346 151.071 81.509L146.652 85.9276C146.489 86.0906 146.225 86.0906 146.062 85.9276L144.881 84.747C144.718 84.584 144.718 84.3197 144.881 84.1567L149.3 79.7381C149.463 79.5751 149.727 79.5751 149.89 79.7381L151.071 80.9187Z" fill="url(#paint4_linear_444_586)"/>
<path d="M165.924 92.8506C165.924 93.0811 165.738 93.268 165.507 93.268H148.811C148.58 93.268 148.393 93.0811 148.393 92.8506V91.181C148.393 90.9504 148.58 90.7636 148.811 90.7636H165.507C165.738 90.7636 165.924 90.9504 165.924 91.181V92.8506Z" fill="url(#paint5_linear_444_586)"/>
<path d="M165.018 104.293C164.855 104.456 164.591 104.456 164.428 104.293L163.247 103.113C163.084 102.95 163.084 102.686 163.247 102.523L167.666 98.104C167.829 97.9409 168.093 97.9409 168.256 98.104L169.437 99.2846C169.6 99.4476 169.6 99.7118 169.437 99.8749L165.018 104.293Z" fill="url(#paint6_linear_444_586)"/>
<path d="M163.247 80.9187C163.084 81.0817 163.084 81.346 163.247 81.509L167.666 85.9276C167.829 86.0906 168.093 86.0906 168.256 85.9276L169.437 84.747C169.6 84.584 169.6 84.3197 169.437 84.1567L165.018 79.7381C164.855 79.5751 164.591 79.5751 164.428 79.7381L163.247 80.9187Z" fill="url(#paint7_linear_444_586)"/>
<path d="M149.3 104.293C149.463 104.456 149.727 104.456 149.89 104.293L151.071 103.113C151.234 102.95 151.234 102.686 151.071 102.523L146.652 98.104C146.489 97.9409 146.225 97.9409 146.062 98.104L144.881 99.2846C144.718 99.4476 144.718 99.7118 144.881 99.8749L149.3 104.293Z" fill="url(#paint8_linear_444_586)"/>
<path d="M47.222 201.515V177.372H51.0863L55.6499 190.29C56.2387 191.983 56.7539 193.528 57.2692 195.332H57.4164C57.9684 193.528 58.4101 191.983 58.9989 190.29L63.5625 177.372H67.4268V201.515H64.5194V188.192C64.5194 186.057 64.777 183.076 64.961 180.979H64.8138L62.9368 186.609L58.4101 199.086H56.1651L51.6751 186.609L49.7614 180.979H49.6142C49.7982 183.076 50.0558 186.057 50.0558 188.192V201.515H47.222ZM80.6597 201.956C76.2802 201.956 72.3791 198.534 72.3791 192.608C72.3791 186.609 76.2802 183.187 80.6597 183.187C85.0393 183.187 88.9772 186.609 88.9772 192.608C88.9772 198.534 85.0393 201.956 80.6597 201.956ZM80.6597 199.417C83.7512 199.417 85.8122 196.693 85.8122 192.608C85.8122 188.486 83.7512 185.726 80.6597 185.726C77.6051 185.726 75.5441 188.486 75.5441 192.608C75.5441 196.693 77.6051 199.417 80.6597 199.417ZM99.7602 201.956C95.2702 201.956 92.3628 198.57 92.3628 192.608C92.3628 186.793 96.0431 183.187 100.128 183.187C102.189 183.187 103.551 183.96 105.133 185.248L104.986 182.193V175.311H108.041V201.515H105.538L105.281 199.417H105.17C103.772 200.779 101.858 201.956 99.7602 201.956ZM100.423 199.38C102.079 199.38 103.514 198.57 104.986 196.951V187.603C103.477 186.241 102.116 185.763 100.643 185.763C97.8096 185.763 95.5278 188.486 95.5278 192.572C95.5278 196.841 97.2944 199.38 100.423 199.38ZM121.278 201.956C116.494 201.956 112.74 198.497 112.74 192.572C112.74 186.757 116.678 183.187 120.763 183.187C125.327 183.187 127.94 186.425 127.94 191.578C127.94 192.24 127.903 192.792 127.793 193.381H115.758C116.016 197.061 118.261 199.49 121.646 199.49C123.376 199.49 124.885 199.012 126.136 198.166L127.204 200.116C125.658 201.22 123.744 201.956 121.278 201.956ZM115.758 191.026H125.216C125.216 187.493 123.56 185.616 120.837 185.616C118.334 185.616 116.126 187.603 115.758 191.026ZM135.525 201.956C133.243 201.956 132.323 200.484 132.323 197.908V175.311H135.377V198.129C135.377 199.086 135.782 199.417 136.261 199.417C136.445 199.417 136.592 199.417 136.886 199.343L137.291 201.625C136.849 201.846 136.297 201.956 135.525 201.956ZM149.365 201.515V177.372H156.91C161.842 177.372 165.375 179.138 165.375 184.18C165.375 187.934 163.24 190.143 159.965 190.989L166.111 201.515H162.614L156.8 191.32H152.457V201.515H149.365ZM152.457 188.818H156.468C160.222 188.818 162.283 187.272 162.283 184.18C162.283 181.015 160.222 179.875 156.468 179.875H152.457V188.818ZM176.914 201.956C172.13 201.956 168.376 198.497 168.376 192.572C168.376 186.757 172.314 183.187 176.399 183.187C180.962 183.187 183.575 186.425 183.575 191.578C183.575 192.24 183.539 192.792 183.428 193.381H171.394C171.651 197.061 173.896 199.49 177.282 199.49C179.012 199.49 180.521 199.012 181.772 198.166L182.839 200.116C181.294 201.22 179.38 201.956 176.914 201.956ZM171.394 191.026H180.852C180.852 187.493 179.196 185.616 176.472 185.616C173.97 185.616 171.762 187.603 171.394 191.026ZM193.635 209.759C189.255 209.759 186.237 208.029 186.237 204.937C186.237 203.428 187.231 201.993 188.85 200.889V200.742C187.967 200.19 187.268 199.233 187.268 197.834C187.268 196.325 188.298 195.148 189.218 194.522V194.375C188.041 193.418 186.9 191.688 186.9 189.554C186.9 185.653 189.991 183.187 193.635 183.187C194.628 183.187 195.512 183.371 196.174 183.628H202.394V185.984H198.75C199.597 186.793 200.186 188.118 200.186 189.627C200.186 193.455 197.278 195.847 193.635 195.847C192.751 195.847 191.795 195.626 190.985 195.221C190.322 195.773 189.844 196.362 189.844 197.356C189.844 198.46 190.58 199.27 192.972 199.27H196.432C200.59 199.27 202.688 200.595 202.688 203.539C202.688 206.888 199.192 209.759 193.635 209.759ZM193.635 193.786C195.696 193.786 197.425 192.167 197.425 189.554C197.425 186.977 195.732 185.395 193.635 185.395C191.537 185.395 189.844 186.941 189.844 189.554C189.844 192.167 191.574 193.786 193.635 193.786ZM194.076 207.624C197.462 207.624 199.707 205.857 199.707 204.017C199.707 202.361 198.456 201.809 196.1 201.809H193.046C192.347 201.809 191.5 201.735 190.727 201.515C189.439 202.435 188.887 203.502 188.887 204.532C188.887 206.446 190.838 207.624 194.076 207.624ZM206.18 201.515V183.628H209.235V201.515H206.18ZM207.726 179.948C206.548 179.948 205.702 179.175 205.702 177.961C205.702 176.783 206.548 175.973 207.726 175.973C208.904 175.973 209.75 176.783 209.75 177.961C209.75 179.175 208.904 179.948 207.726 179.948ZM219.947 201.956C217.334 201.956 214.942 200.999 213.286 199.38L214.684 197.614C216.23 198.902 217.849 199.564 220.057 199.564C222.413 199.564 223.554 198.35 223.554 196.804C223.554 194.964 221.566 194.191 219.542 193.455C216.856 192.498 214.279 191.21 214.279 188.266C214.279 185.395 216.561 183.187 220.462 183.187C222.707 183.187 224.621 184.033 226.02 185.211L224.621 186.977C223.37 186.057 222.082 185.542 220.499 185.542C218.217 185.542 217.224 186.793 217.224 188.118C217.224 189.738 218.769 190.4 221.014 191.173C223.811 192.167 226.498 193.381 226.498 196.62C226.498 199.527 224.179 201.956 219.947 201.956ZM235.604 201.956C231.776 201.956 230.488 199.527 230.488 195.957V186.094H227.838V183.812L230.635 183.628L231.003 177.887H233.543V183.628H238.401V186.094H233.543V196.031C233.543 198.202 234.279 199.454 236.303 199.454C236.965 199.454 237.628 199.343 238.364 199.012L238.989 201.183C238.033 201.625 236.818 201.956 235.604 201.956ZM242.444 201.515V183.628H244.947L245.204 186.867H245.315C246.566 184.622 248.406 183.187 250.393 183.187C251.203 183.187 251.755 183.297 252.307 183.555L251.645 186.168C251.129 186.021 250.725 185.947 250.025 185.947C248.516 185.947 246.713 187.014 245.499 190.032V201.515H242.444ZM256.504 209.206C255.658 209.206 254.959 209.059 254.37 208.838L255.032 206.446C255.474 206.593 255.916 206.667 256.357 206.667C258.345 206.667 259.633 205.085 260.369 202.876L260.774 201.551L253.597 183.628H256.762L260.369 193.492C260.958 195.037 261.546 196.877 262.135 198.534H262.282C262.761 196.914 263.276 195.074 263.755 193.492L266.956 183.628H269.937L263.203 202.987C261.951 206.52 260.074 209.206 256.504 209.206Z" fill="#676D78"/>
<path d="M49.0139 245.92V229.874H54.4362C55.5485 229.874 56.5463 230.021 57.4295 230.315C58.3292 230.61 59.0325 231.109 59.5396 231.812C60.063 232.499 60.3247 233.44 60.3247 234.634C60.3247 235.86 60.0303 236.85 59.4414 237.602C58.8689 238.355 58.1002 238.895 57.1351 239.222L60.9626 245.92H57.773L54.3135 239.639H51.86V245.92H49.0139ZM51.86 237.382H54.1418C55.2377 237.382 56.0719 237.153 56.6444 236.695C57.2332 236.22 57.5277 235.533 57.5277 234.634C57.5277 233.718 57.2332 233.08 56.6444 232.72C56.0719 232.344 55.2377 232.156 54.1418 232.156H51.86V237.382ZM68.2013 246.214C67.089 246.214 66.0831 245.969 65.1834 245.478C64.2838 244.971 63.5723 244.252 63.0489 243.319C62.5254 242.37 62.2637 241.234 62.2637 239.909C62.2637 238.6 62.5254 237.472 63.0489 236.523C63.5886 235.574 64.2838 234.846 65.1344 234.339C65.9849 233.832 66.8764 233.579 67.8087 233.579C68.9046 233.579 69.8206 233.824 70.5567 234.315C71.2927 234.789 71.8489 235.46 72.2251 236.327C72.6013 237.177 72.7894 238.167 72.7894 239.295C72.7894 239.884 72.7485 240.342 72.6667 240.669H65.0117C65.1425 241.733 65.5269 242.559 66.1648 243.147C66.8028 243.736 67.6043 244.031 68.5693 244.031C69.0927 244.031 69.5753 243.957 70.0169 243.81C70.4749 243.646 70.9247 243.426 71.3663 243.147L72.3232 244.914C71.7507 245.29 71.1128 245.601 70.4095 245.846C69.7061 246.092 68.9701 246.214 68.2013 246.214ZM64.9872 238.756H70.3358C70.3358 237.823 70.1314 237.095 69.7225 236.572C69.3135 236.032 68.7002 235.762 67.8823 235.762C67.179 235.762 66.5492 236.024 65.9931 236.547C65.4533 237.055 65.118 237.791 64.9872 238.756ZM79.4402 251.244C78.4915 251.244 77.6327 251.13 76.864 250.901C76.1115 250.672 75.5145 250.32 75.0729 249.846C74.6476 249.388 74.435 248.807 74.435 248.104C74.435 247.106 75.0075 246.247 76.1524 245.527V245.429C75.8417 245.233 75.5799 244.971 75.3673 244.644C75.171 244.317 75.0729 243.908 75.0729 243.417C75.0729 242.943 75.2037 242.518 75.4654 242.141C75.7435 241.749 76.0543 241.43 76.3978 241.185V241.086C75.9889 240.776 75.6208 240.342 75.2937 239.786C74.9829 239.23 74.8275 238.6 74.8275 237.897C74.8275 236.965 75.0483 236.179 75.49 235.541C75.9316 234.904 76.5123 234.421 77.232 234.094C77.968 233.75 78.7532 233.579 79.5874 233.579C79.9145 233.579 80.2253 233.611 80.5197 233.677C80.8305 233.726 81.1086 233.791 81.3539 233.873H85.6721V235.959H83.464C83.6602 236.188 83.8238 236.482 83.9547 236.842C84.0855 237.185 84.1509 237.57 84.1509 237.995C84.1509 238.878 83.9465 239.631 83.5376 240.252C83.1286 240.857 82.5807 241.315 81.8937 241.626C81.2067 241.937 80.4379 242.092 79.5874 242.092C79.3257 242.092 79.0558 242.068 78.7777 242.019C78.4996 241.97 78.2216 241.888 77.9435 241.773C77.7636 241.937 77.6164 242.101 77.5019 242.264C77.4037 242.428 77.3547 242.649 77.3547 242.927C77.3547 243.27 77.4937 243.54 77.7718 243.736C78.0662 243.933 78.5814 244.031 79.3175 244.031H81.4521C82.9078 244.031 84.0037 244.268 84.7398 244.742C85.4922 245.2 85.8684 245.953 85.8684 246.999C85.8684 247.785 85.6067 248.496 85.0833 249.134C84.5599 249.788 83.8156 250.304 82.8506 250.68C81.8855 251.056 80.7487 251.244 79.4402 251.244ZM79.5874 240.326C80.1599 240.326 80.6506 240.113 81.0595 239.688C81.4684 239.263 81.6729 238.666 81.6729 237.897C81.6729 237.144 81.4684 236.564 81.0595 236.155C80.6669 235.73 80.1762 235.517 79.5874 235.517C78.9985 235.517 78.4996 235.721 78.0907 236.13C77.6818 236.539 77.4773 237.128 77.4773 237.897C77.4773 238.666 77.6818 239.263 78.0907 239.688C78.4996 240.113 78.9985 240.326 79.5874 240.326ZM79.8818 249.404C80.8469 249.404 81.632 249.208 82.2372 248.815C82.8424 248.423 83.145 247.973 83.145 247.466C83.145 246.991 82.9569 246.672 82.5807 246.509C82.2208 246.345 81.6974 246.263 81.0104 246.263H79.3666C78.7123 246.263 78.1643 246.206 77.7227 246.092C77.1011 246.566 76.7904 247.098 76.7904 247.686C76.7904 248.226 77.0684 248.643 77.6246 248.938C78.1807 249.249 78.9331 249.404 79.8818 249.404ZM87.9915 245.92V233.873H90.813V245.92H87.9915ZM89.4145 231.763C88.9075 231.763 88.4985 231.616 88.1878 231.321C87.877 231.027 87.7216 230.634 87.7216 230.144C87.7216 229.669 87.877 229.285 88.1878 228.991C88.4985 228.696 88.9075 228.549 89.4145 228.549C89.9216 228.549 90.3305 228.696 90.6413 228.991C90.9521 229.285 91.1075 229.669 91.1075 230.144C91.1075 230.634 90.9521 231.027 90.6413 231.321C90.3305 231.616 89.9216 231.763 89.4145 231.763ZM97.7742 246.214C96.9563 246.214 96.1385 246.059 95.3206 245.748C94.5028 245.421 93.7994 245.02 93.2106 244.546L94.5355 242.73C95.0753 243.139 95.6151 243.466 96.1548 243.712C96.6946 243.957 97.2671 244.08 97.8723 244.08C98.5266 244.08 99.0091 243.941 99.3199 243.663C99.6307 243.385 99.7861 243.041 99.7861 242.632C99.7861 242.289 99.6552 242.011 99.3935 241.798C99.1481 241.569 98.8292 241.373 98.4366 241.209C98.044 241.029 97.6351 240.857 97.2098 240.694C96.6864 240.498 96.163 240.26 95.6396 239.982C95.1325 239.688 94.7154 239.32 94.3883 238.878C94.0612 238.42 93.8976 237.856 93.8976 237.185C93.8976 236.122 94.2901 235.255 95.0753 234.585C95.8604 233.914 96.9236 233.579 98.2649 233.579C99.1154 233.579 99.876 233.726 100.547 234.02C101.217 234.315 101.798 234.65 102.289 235.026L100.988 236.744C100.563 236.433 100.13 236.188 99.6879 236.008C99.2626 235.811 98.8128 235.713 98.3385 235.713C97.7333 235.713 97.2835 235.844 96.989 236.106C96.6946 236.351 96.5474 236.662 96.5474 237.038C96.5474 237.512 96.7927 237.872 97.2835 238.118C97.7742 238.363 98.3466 238.6 99.0009 238.829C99.5571 239.026 100.097 239.271 100.62 239.565C101.144 239.843 101.577 240.211 101.921 240.669C102.28 241.127 102.46 241.733 102.46 242.485C102.46 243.515 102.06 244.399 101.258 245.135C100.457 245.854 99.2953 246.214 97.7742 246.214ZM108.745 246.214C107.354 246.214 106.365 245.814 105.776 245.012C105.203 244.194 104.917 243.139 104.917 241.847V236.106H103.2V233.996L105.064 233.873L105.408 230.585H107.763V233.873H110.83V236.106H107.763V241.847C107.763 243.254 108.328 243.957 109.456 243.957C109.669 243.957 109.89 243.933 110.119 243.883C110.348 243.818 110.544 243.753 110.708 243.687L111.198 245.773C110.871 245.887 110.495 245.985 110.07 246.067C109.661 246.165 109.219 246.214 108.745 246.214ZM118.134 246.214C117.022 246.214 116.016 245.969 115.117 245.478C114.217 244.971 113.505 244.252 112.982 243.319C112.459 242.37 112.197 241.234 112.197 239.909C112.197 238.6 112.459 237.472 112.982 236.523C113.522 235.574 114.217 234.846 115.068 234.339C115.918 233.832 116.81 233.579 117.742 233.579C118.838 233.579 119.754 233.824 120.49 234.315C121.226 234.789 121.782 235.46 122.158 236.327C122.534 237.177 122.723 238.167 122.723 239.295C122.723 239.884 122.682 240.342 122.6 240.669H114.945C115.076 241.733 115.46 242.559 116.098 243.147C116.736 243.736 117.537 244.031 118.502 244.031C119.026 244.031 119.508 243.957 119.95 243.81C120.408 243.646 120.858 243.426 121.299 243.147L122.256 244.914C121.684 245.29 121.046 245.601 120.343 245.846C119.639 246.092 118.903 246.214 118.134 246.214ZM114.92 238.756H120.269C120.269 237.823 120.065 237.095 119.656 236.572C119.247 236.032 118.633 235.762 117.815 235.762C117.112 235.762 116.482 236.024 115.926 236.547C115.386 237.055 115.051 237.791 114.92 238.756ZM125.417 245.92V233.873H127.748L127.944 236.008H128.043C128.468 235.223 128.983 234.626 129.588 234.217C130.194 233.791 130.815 233.579 131.453 233.579C132.026 233.579 132.484 233.66 132.827 233.824L132.336 236.278C132.124 236.212 131.927 236.163 131.747 236.13C131.568 236.098 131.347 236.081 131.085 236.081C130.611 236.081 130.112 236.269 129.588 236.646C129.065 237.005 128.615 237.643 128.239 238.559V245.92H125.417ZM142.402 246.214C141.355 246.214 140.496 245.887 139.826 245.233C139.171 244.579 138.844 243.728 138.844 242.681C138.844 241.389 139.408 240.391 140.537 239.688C141.666 238.968 143.465 238.478 145.935 238.216C145.918 237.578 145.747 237.03 145.42 236.572C145.109 236.098 144.544 235.86 143.727 235.86C143.138 235.86 142.557 235.975 141.985 236.204C141.428 236.433 140.881 236.711 140.341 237.038L139.31 235.149C139.981 234.724 140.733 234.356 141.568 234.045C142.418 233.734 143.318 233.579 144.266 233.579C145.771 233.579 146.892 234.028 147.628 234.928C148.38 235.811 148.756 237.095 148.756 238.78V245.92H146.426L146.229 244.595H146.131C145.591 245.053 145.011 245.437 144.389 245.748C143.784 246.059 143.121 246.214 142.402 246.214ZM143.31 244.006C143.8 244.006 144.242 243.892 144.634 243.663C145.043 243.417 145.477 243.09 145.935 242.681V239.982C144.299 240.195 143.162 240.514 142.524 240.939C141.886 241.348 141.568 241.855 141.568 242.46C141.568 243 141.731 243.393 142.058 243.638C142.385 243.883 142.802 244.006 143.31 244.006ZM152.133 245.92V233.873H154.464L154.66 235.492H154.758C155.298 234.969 155.887 234.519 156.525 234.143C157.163 233.767 157.891 233.579 158.708 233.579C160.001 233.579 160.941 233.996 161.53 234.83C162.119 235.664 162.413 236.842 162.413 238.363V245.92H159.592V238.731C159.592 237.733 159.445 237.03 159.15 236.621C158.856 236.212 158.373 236.008 157.703 236.008C157.179 236.008 156.713 236.139 156.304 236.4C155.911 236.646 155.462 237.014 154.955 237.504V245.92H152.133ZM170.082 246.214C168.577 246.214 167.375 245.658 166.476 244.546C165.576 243.434 165.126 241.888 165.126 239.909C165.126 238.6 165.363 237.472 165.838 236.523C166.328 235.574 166.966 234.846 167.751 234.339C168.537 233.832 169.363 233.579 170.23 233.579C170.917 233.579 171.497 233.701 171.972 233.947C172.462 234.176 172.937 234.495 173.395 234.904L173.296 232.965V228.598H176.118V245.92H173.787L173.591 244.62H173.493C173.051 245.061 172.536 245.437 171.947 245.748C171.358 246.059 170.737 246.214 170.082 246.214ZM170.769 243.883C171.669 243.883 172.511 243.434 173.296 242.534V236.915C172.888 236.539 172.479 236.278 172.07 236.13C171.661 235.983 171.252 235.91 170.843 235.91C170.074 235.91 169.412 236.261 168.856 236.965C168.316 237.652 168.046 238.625 168.046 239.884C168.046 241.176 168.283 242.166 168.757 242.853C169.232 243.54 169.902 243.883 170.769 243.883ZM184.623 245.92V233.873H186.954L187.15 235.517H187.248C187.755 234.977 188.303 234.519 188.892 234.143C189.497 233.767 190.176 233.579 190.929 233.579C191.812 233.579 192.515 233.775 193.039 234.168C193.578 234.544 193.987 235.067 194.265 235.738C194.838 235.116 195.435 234.601 196.057 234.192C196.694 233.783 197.39 233.579 198.142 233.579C199.418 233.579 200.358 233.996 200.964 234.83C201.569 235.664 201.871 236.842 201.871 238.363V245.92H199.025V238.731C199.025 237.733 198.87 237.03 198.559 236.621C198.265 236.212 197.807 236.008 197.185 236.008C196.433 236.008 195.59 236.507 194.658 237.504V245.92H191.836V238.731C191.836 237.733 191.681 237.03 191.37 236.621C191.076 236.212 190.61 236.008 189.972 236.008C189.219 236.008 188.377 236.507 187.445 237.504V245.92H184.623ZM208.22 246.214C207.174 246.214 206.315 245.887 205.644 245.233C204.99 244.579 204.663 243.728 204.663 242.681C204.663 241.389 205.227 240.391 206.356 239.688C207.484 238.968 209.284 238.478 211.754 238.216C211.737 237.578 211.565 237.03 211.238 236.572C210.928 236.098 210.363 235.86 209.545 235.86C208.957 235.86 208.376 235.975 207.803 236.204C207.247 236.433 206.699 236.711 206.16 237.038L205.129 235.149C205.8 234.724 206.552 234.356 207.386 234.045C208.237 233.734 209.136 233.579 210.085 233.579C211.59 233.579 212.71 234.028 213.447 234.928C214.199 235.811 214.575 237.095 214.575 238.78V245.92H212.244L212.048 244.595H211.95C211.41 245.053 210.829 245.437 210.208 245.748C209.603 246.059 208.94 246.214 208.22 246.214ZM209.128 244.006C209.619 244.006 210.061 243.892 210.453 243.663C210.862 243.417 211.296 243.09 211.754 242.681V239.982C210.118 240.195 208.981 240.514 208.343 240.939C207.705 241.348 207.386 241.855 207.386 242.46C207.386 243 207.55 243.393 207.877 243.638C208.204 243.883 208.621 244.006 209.128 244.006ZM217.952 245.92V233.873H220.283L220.479 235.492H220.577C221.117 234.969 221.706 234.519 222.344 234.143C222.982 233.767 223.709 233.579 224.527 233.579C225.819 233.579 226.76 233.996 227.349 234.83C227.938 235.664 228.232 236.842 228.232 238.363V245.92H225.411V238.731C225.411 237.733 225.263 237.03 224.969 236.621C224.674 236.212 224.192 236.008 223.521 236.008C222.998 236.008 222.532 236.139 222.123 236.4C221.73 236.646 221.28 237.014 220.773 237.504V245.92H217.952ZM234.601 246.214C233.554 246.214 232.695 245.887 232.025 245.233C231.37 244.579 231.043 243.728 231.043 242.681C231.043 241.389 231.607 240.391 232.736 239.688C233.865 238.968 235.664 238.478 238.134 238.216C238.117 237.578 237.946 237.03 237.619 236.572C237.308 236.098 236.743 235.86 235.926 235.86C235.337 235.86 234.756 235.975 234.184 236.204C233.627 236.433 233.08 236.711 232.54 237.038L231.509 235.149C232.18 234.724 232.932 234.356 233.767 234.045C234.617 233.734 235.517 233.579 236.465 233.579C237.97 233.579 239.091 234.028 239.827 234.928C240.579 235.811 240.955 237.095 240.955 238.78V245.92H238.624L238.428 244.595H238.33C237.79 245.053 237.21 245.437 236.588 245.748C235.983 246.059 235.32 246.214 234.601 246.214ZM235.509 244.006C235.999 244.006 236.441 243.892 236.833 243.663C237.242 243.417 237.676 243.09 238.134 242.681V239.982C236.498 240.195 235.361 240.514 234.723 240.939C234.085 241.348 233.767 241.855 233.767 242.46C233.767 243 233.93 243.393 234.257 243.638C234.584 243.883 235.001 244.006 235.509 244.006ZM248.528 251.244C247.579 251.244 246.72 251.13 245.951 250.901C245.199 250.672 244.602 250.32 244.16 249.846C243.735 249.388 243.522 248.807 243.522 248.104C243.522 247.106 244.095 246.247 245.24 245.527V245.429C244.929 245.233 244.667 244.971 244.455 244.644C244.258 244.317 244.16 243.908 244.16 243.417C244.16 242.943 244.291 242.518 244.553 242.141C244.831 241.749 245.142 241.43 245.485 241.185V241.086C245.076 240.776 244.708 240.342 244.381 239.786C244.07 239.23 243.915 238.6 243.915 237.897C243.915 236.965 244.136 236.179 244.577 235.541C245.019 234.904 245.6 234.421 246.319 234.094C247.055 233.75 247.841 233.579 248.675 233.579C249.002 233.579 249.313 233.611 249.607 233.677C249.918 233.726 250.196 233.791 250.441 233.873H254.76V235.959H252.551C252.748 236.188 252.911 236.482 253.042 236.842C253.173 237.185 253.238 237.57 253.238 237.995C253.238 238.878 253.034 239.631 252.625 240.252C252.216 240.857 251.668 241.315 250.981 241.626C250.294 241.937 249.525 242.092 248.675 242.092C248.413 242.092 248.143 242.068 247.865 242.019C247.587 241.97 247.309 241.888 247.031 241.773C246.851 241.937 246.704 242.101 246.589 242.264C246.491 242.428 246.442 242.649 246.442 242.927C246.442 243.27 246.581 243.54 246.859 243.736C247.154 243.933 247.669 244.031 248.405 244.031H250.539C251.995 244.031 253.091 244.268 253.827 244.742C254.58 245.2 254.956 245.953 254.956 246.999C254.956 247.785 254.694 248.496 254.171 249.134C253.647 249.788 252.903 250.304 251.938 250.68C250.973 251.056 249.836 251.244 248.528 251.244ZM248.675 240.326C249.247 240.326 249.738 240.113 250.147 239.688C250.556 239.263 250.76 238.666 250.76 237.897C250.76 237.144 250.556 236.564 250.147 236.155C249.754 235.73 249.264 235.517 248.675 235.517C248.086 235.517 247.587 235.721 247.178 236.13C246.769 236.539 246.565 237.128 246.565 237.897C246.565 238.666 246.769 239.263 247.178 239.688C247.587 240.113 248.086 240.326 248.675 240.326ZM248.969 249.404C249.934 249.404 250.719 249.208 251.325 248.815C251.93 248.423 252.232 247.973 252.232 247.466C252.232 246.991 252.044 246.672 251.668 246.509C251.308 246.345 250.785 246.263 250.098 246.263H248.454C247.8 246.263 247.252 246.206 246.81 246.092C246.189 246.566 245.878 247.098 245.878 247.686C245.878 248.226 246.156 248.643 246.712 248.938C247.268 249.249 248.02 249.404 248.969 249.404ZM261.848 246.214C260.736 246.214 259.73 245.969 258.83 245.478C257.93 244.971 257.219 244.252 256.696 243.319C256.172 242.37 255.91 241.234 255.91 239.909C255.91 238.6 256.172 237.472 256.696 236.523C257.235 235.574 257.93 234.846 258.781 234.339C259.632 233.832 260.523 233.579 261.455 233.579C262.551 233.579 263.467 233.824 264.203 234.315C264.939 234.789 265.495 235.46 265.872 236.327C266.248 237.177 266.436 238.167 266.436 239.295C266.436 239.884 266.395 240.342 266.313 240.669H258.658C258.789 241.733 259.174 242.559 259.811 243.147C260.449 243.736 261.251 244.031 262.216 244.031C262.739 244.031 263.222 243.957 263.664 243.81C264.122 243.646 264.571 243.426 265.013 243.147L265.97 244.914C265.397 245.29 264.759 245.601 264.056 245.846C263.353 246.092 262.617 246.214 261.848 246.214ZM258.634 238.756H263.982C263.982 237.823 263.778 237.095 263.369 236.572C262.96 236.032 262.347 235.762 261.529 235.762C260.826 235.762 260.196 236.024 259.64 236.547C259.1 237.055 258.765 237.791 258.634 238.756ZM76.5934 279.876C76.2663 279.876 75.98 279.852 75.7347 279.802C75.4893 279.753 75.2521 279.696 75.0232 279.631L75.5384 277.423C75.6529 277.455 75.7837 277.488 75.931 277.521C76.0945 277.57 76.2499 277.594 76.3971 277.594C77.035 277.594 77.5421 277.398 77.9183 277.005C78.3109 276.629 78.6053 276.139 78.8016 275.533L79.0224 274.773L74.2871 262.873H77.1577L79.2432 268.786C79.4231 269.31 79.5949 269.866 79.7585 270.455C79.9384 271.027 80.1183 271.599 80.2982 272.172H80.3964C80.5436 271.616 80.6908 271.052 80.838 270.479C81.0016 269.89 81.157 269.326 81.3042 268.786L83.1198 262.873H85.8432L81.4759 275.46C80.9689 276.817 80.3555 277.889 79.6358 278.674C78.9161 279.475 77.902 279.876 76.5934 279.876ZM92.7194 275.214C91.7216 275.214 90.7893 274.969 89.9224 274.478C89.0555 273.971 88.3521 273.252 87.8124 272.319C87.2726 271.37 87.0027 270.234 87.0027 268.909C87.0027 267.568 87.2726 266.431 87.8124 265.498C88.3521 264.55 89.0555 263.83 89.9224 263.339C90.7893 262.832 91.7216 262.579 92.7194 262.579C93.7335 262.579 94.6741 262.832 95.541 263.339C96.4079 263.83 97.1112 264.55 97.651 265.498C98.1908 266.431 98.4607 267.568 98.4607 268.909C98.4607 270.234 98.1908 271.37 97.651 272.319C97.1112 273.252 96.4079 273.971 95.541 274.478C94.6741 274.969 93.7335 275.214 92.7194 275.214ZM92.7194 272.908C93.6027 272.908 94.2979 272.54 94.8049 271.804C95.312 271.068 95.5655 270.103 95.5655 268.909C95.5655 267.698 95.312 266.725 94.8049 265.989C94.2979 265.253 93.6027 264.885 92.7194 264.885C91.8361 264.885 91.141 265.253 90.6339 265.989C90.1432 266.725 89.8979 267.698 89.8979 268.909C89.8979 270.103 90.1432 271.068 90.6339 271.804C91.141 272.54 91.8361 272.908 92.7194 272.908ZM104.836 275.214C103.543 275.214 102.603 274.797 102.014 273.963C101.425 273.129 101.131 271.951 101.131 270.43V262.873H103.952V270.062C103.952 271.06 104.1 271.763 104.394 272.172C104.688 272.581 105.163 272.785 105.817 272.785C106.34 272.785 106.798 272.654 107.191 272.393C107.6 272.131 108.033 271.706 108.491 271.117V262.873H111.313V274.92H109.007L108.786 273.153H108.712C108.189 273.775 107.616 274.274 106.995 274.65C106.373 275.026 105.653 275.214 104.836 275.214ZM114.887 274.92V262.873H117.218L117.414 265.008H117.512C117.937 264.223 118.453 263.626 119.058 263.217C119.663 262.791 120.285 262.579 120.923 262.579C121.495 262.579 121.953 262.66 122.297 262.824L121.806 265.278C121.593 265.212 121.397 265.163 121.217 265.13C121.037 265.098 120.816 265.081 120.554 265.081C120.08 265.081 119.581 265.269 119.058 265.646C118.534 266.005 118.085 266.643 117.708 267.559V274.92H114.887ZM129.197 274.92V258.874H132.411L135.257 266.725C135.437 267.232 135.609 267.756 135.772 268.295C135.952 268.819 136.124 269.342 136.288 269.866H136.386C136.566 269.342 136.737 268.819 136.901 268.295C137.065 267.756 137.228 267.232 137.392 266.725L140.164 258.874H143.403V274.92H140.778V267.584C140.778 267.077 140.794 266.529 140.827 265.94C140.876 265.335 140.925 264.73 140.974 264.124C141.039 263.519 141.096 262.971 141.146 262.481H141.047L139.747 266.21L137.122 273.423H135.429L132.779 266.21L131.503 262.481H131.405C131.454 262.971 131.503 263.519 131.552 264.124C131.618 264.73 131.667 265.335 131.699 265.94C131.749 266.529 131.773 267.077 131.773 267.584V274.92H129.197ZM147.479 274.92V258.874H150.325V272.515H156.998V274.92H147.479ZM164.461 274.92V262.873H166.791L166.988 264.517H167.086C167.593 263.977 168.141 263.519 168.73 263.143C169.335 262.767 170.014 262.579 170.766 262.579C171.649 262.579 172.353 262.775 172.876 263.168C173.416 263.544 173.825 264.067 174.103 264.738C174.675 264.116 175.272 263.601 175.894 263.192C176.532 262.783 177.227 262.579 177.98 262.579C179.255 262.579 180.196 262.996 180.801 263.83C181.406 264.664 181.709 265.842 181.709 267.363V274.92H178.863V267.731C178.863 266.733 178.707 266.03 178.397 265.621C178.102 265.212 177.644 265.008 177.023 265.008C176.27 265.008 175.428 265.507 174.496 266.504V274.92H171.674V267.731C171.674 266.733 171.519 266.03 171.208 265.621C170.913 265.212 170.447 265.008 169.809 265.008C169.057 265.008 168.214 265.507 167.282 266.504V274.92H164.461ZM190.07 275.214C189.072 275.214 188.14 274.969 187.273 274.478C186.406 273.971 185.703 273.252 185.163 272.319C184.623 271.37 184.353 270.234 184.353 268.909C184.353 267.568 184.623 266.431 185.163 265.498C185.703 264.55 186.406 263.83 187.273 263.339C188.14 262.832 189.072 262.579 190.07 262.579C191.084 262.579 192.025 262.832 192.891 263.339C193.758 263.83 194.462 264.55 195.001 265.498C195.541 266.431 195.811 267.568 195.811 268.909C195.811 270.234 195.541 271.37 195.001 272.319C194.462 273.252 193.758 273.971 192.891 274.478C192.025 274.969 191.084 275.214 190.07 275.214ZM190.07 272.908C190.953 272.908 191.648 272.54 192.155 271.804C192.662 271.068 192.916 270.103 192.916 268.909C192.916 267.698 192.662 266.725 192.155 265.989C191.648 265.253 190.953 264.885 190.07 264.885C189.187 264.885 188.491 265.253 187.984 265.989C187.494 266.725 187.248 267.698 187.248 268.909C187.248 270.103 187.494 271.068 187.984 271.804C188.491 272.54 189.187 272.908 190.07 272.908ZM202.824 275.214C201.319 275.214 200.117 274.658 199.217 273.546C198.318 272.434 197.868 270.888 197.868 268.909C197.868 267.6 198.105 266.472 198.579 265.523C199.07 264.574 199.708 263.846 200.493 263.339C201.278 262.832 202.104 262.579 202.971 262.579C203.658 262.579 204.239 262.701 204.713 262.947C205.204 263.176 205.678 263.495 206.136 263.904L206.038 261.965V257.598H208.86V274.92H206.529L206.333 273.62H206.234C205.793 274.061 205.278 274.437 204.689 274.748C204.1 275.059 203.478 275.214 202.824 275.214ZM203.511 272.883C204.411 272.883 205.253 272.434 206.038 271.534V265.915C205.629 265.539 205.22 265.278 204.811 265.13C204.402 264.983 203.993 264.91 203.585 264.91C202.816 264.91 202.153 265.261 201.597 265.965C201.057 266.652 200.788 267.625 200.788 268.884C200.788 270.176 201.025 271.166 201.499 271.853C201.973 272.54 202.644 272.883 203.511 272.883ZM217.605 275.214C216.493 275.214 215.487 274.969 214.588 274.478C213.688 273.971 212.976 273.252 212.453 272.319C211.93 271.37 211.668 270.234 211.668 268.909C211.668 267.6 211.93 266.472 212.453 265.523C212.993 264.574 213.688 263.846 214.538 263.339C215.389 262.832 216.28 262.579 217.213 262.579C218.309 262.579 219.225 262.824 219.961 263.315C220.697 263.789 221.253 264.46 221.629 265.327C222.005 266.177 222.193 267.167 222.193 268.295C222.193 268.884 222.153 269.342 222.071 269.669H214.416C214.547 270.733 214.931 271.559 215.569 272.147C216.207 272.736 217.008 273.031 217.973 273.031C218.497 273.031 218.979 272.957 219.421 272.81C219.879 272.646 220.329 272.426 220.77 272.147L221.727 273.914C221.155 274.29 220.517 274.601 219.814 274.846C219.11 275.092 218.374 275.214 217.605 275.214ZM214.391 267.756H219.74C219.74 266.823 219.535 266.095 219.127 265.572C218.718 265.032 218.104 264.762 217.286 264.762C216.583 264.762 215.953 265.024 215.397 265.547C214.857 266.055 214.522 266.791 214.391 267.756ZM227.636 275.214C226.638 275.214 225.927 274.912 225.502 274.307C225.093 273.701 224.888 272.875 224.888 271.828V257.598H227.71V271.976C227.71 272.319 227.775 272.565 227.906 272.712C228.037 272.843 228.176 272.908 228.323 272.908C228.389 272.908 228.446 272.908 228.495 272.908C228.56 272.892 228.65 272.875 228.765 272.859L229.133 274.969C228.969 275.034 228.757 275.092 228.495 275.141C228.25 275.19 227.963 275.214 227.636 275.214ZM234.911 275.214C234.093 275.214 233.275 275.059 232.457 274.748C231.639 274.421 230.936 274.02 230.347 273.546L231.672 271.73C232.212 272.139 232.751 272.466 233.291 272.712C233.831 272.957 234.404 273.08 235.009 273.08C235.663 273.08 236.146 272.941 236.456 272.663C236.767 272.385 236.922 272.041 236.922 271.632C236.922 271.289 236.792 271.011 236.53 270.798C236.285 270.569 235.966 270.373 235.573 270.209C235.18 270.029 234.772 269.857 234.346 269.694C233.823 269.498 233.299 269.26 232.776 268.982C232.269 268.688 231.852 268.32 231.525 267.878C231.198 267.42 231.034 266.856 231.034 266.185C231.034 265.122 231.427 264.255 232.212 263.585C232.997 262.914 234.06 262.579 235.401 262.579C236.252 262.579 237.012 262.726 237.683 263.02C238.354 263.315 238.934 263.65 239.425 264.026L238.125 265.744C237.699 265.433 237.266 265.188 236.824 265.008C236.399 264.811 235.949 264.713 235.475 264.713C234.87 264.713 234.42 264.844 234.125 265.106C233.831 265.351 233.684 265.662 233.684 266.038C233.684 266.512 233.929 266.872 234.42 267.118C234.911 267.363 235.483 267.6 236.137 267.829C236.693 268.026 237.233 268.271 237.757 268.565C238.28 268.843 238.714 269.211 239.057 269.669C239.417 270.127 239.597 270.733 239.597 271.485C239.597 272.515 239.196 273.399 238.395 274.135C237.593 274.854 236.432 275.214 234.911 275.214Z" fill="#AEB3BD"/>
<defs>
<linearGradient id="paint0_linear_444_586" x1="156.597" y1="64.467" x2="156.597" y2="126.806" gradientUnits="userSpaceOnUse">
<stop offset="0.385417" stop-color="#FFCC33"/>
<stop offset="0.71875" stop-color="#FFAD33"/>
</linearGradient>
<linearGradient id="paint1_linear_444_586" x1="156.597" y1="64.467" x2="156.597" y2="126.806" gradientUnits="userSpaceOnUse">
<stop offset="0.385417" stop-color="#FFCC33"/>
<stop offset="0.71875" stop-color="#FFAD33"/>
</linearGradient>
<linearGradient id="paint2_linear_444_586" x1="156.597" y1="64.467" x2="156.597" y2="126.806" gradientUnits="userSpaceOnUse">
<stop offset="0.385417" stop-color="#FFCC33"/>
<stop offset="0.71875" stop-color="#FFAD33"/>
</linearGradient>
<linearGradient id="paint3_linear_444_586" x1="156.597" y1="64.467" x2="156.597" y2="126.806" gradientUnits="userSpaceOnUse">
<stop offset="0.385417" stop-color="#FFCC33"/>
<stop offset="0.71875" stop-color="#FFAD33"/>
</linearGradient>
<linearGradient id="paint4_linear_444_586" x1="156.597" y1="64.467" x2="156.597" y2="126.806" gradientUnits="userSpaceOnUse">
<stop offset="0.385417" stop-color="#FFCC33"/>
<stop offset="0.71875" stop-color="#FFAD33"/>
</linearGradient>
<linearGradient id="paint5_linear_444_586" x1="156.597" y1="64.467" x2="156.597" y2="126.806" gradientUnits="userSpaceOnUse">
<stop offset="0.385417" stop-color="#FFCC33"/>
<stop offset="0.71875" stop-color="#FFAD33"/>
</linearGradient>
<linearGradient id="paint6_linear_444_586" x1="156.597" y1="64.467" x2="156.597" y2="126.806" gradientUnits="userSpaceOnUse">
<stop offset="0.385417" stop-color="#FFCC33"/>
<stop offset="0.71875" stop-color="#FFAD33"/>
</linearGradient>
<linearGradient id="paint7_linear_444_586" x1="156.597" y1="64.467" x2="156.597" y2="126.806" gradientUnits="userSpaceOnUse">
<stop offset="0.385417" stop-color="#FFCC33"/>
<stop offset="0.71875" stop-color="#FFAD33"/>
</linearGradient>
<linearGradient id="paint8_linear_444_586" x1="156.597" y1="64.467" x2="156.597" y2="126.806" gradientUnits="userSpaceOnUse">
<stop offset="0.385417" stop-color="#FFCC33"/>
<stop offset="0.71875" stop-color="#FFAD33"/>
</linearGradient>
</defs>
</svg>
