<svg width="313" height="320" viewBox="0 0 313 320" fill="none" xmlns="http://www.w3.org/2000/svg">
<path d="M0.0444336 19.0374C0.0444336 8.87458 8.28305 0.635986 18.4459 0.635986H294.468C304.631 0.635986 312.869 8.8746 312.869 19.0374V301.193C312.869 311.356 304.631 319.595 294.468 319.595H18.4459C8.28303 319.595 0.0444336 311.356 0.0444336 301.193V19.0374Z" fill="#FAFAFA"/>
<rect x="101.359" y="37.439" width="110.195" height="110.195" rx="55.0975" fill="#15151F" fill-opacity="0.04"/>
<path d="M164.854 76.8823V72.5853C164.854 71.7703 164.193 71.1096 163.378 71.1096H149.494C148.679 71.1096 148.019 71.7703 148.019 72.5853V76.8823C148.019 77.706 148.704 78.3737 149.549 78.3737H163.324C164.169 78.3737 164.854 77.706 164.854 76.8823Z" fill="url(#paint0_linear_444_665)"/>
<path fill-rule="evenodd" clip-rule="evenodd" d="M146.106 76.8823V74.4043C146.106 74.1984 145.934 74.0315 145.723 74.0315H142.683C140.569 74.0315 138.856 75.7007 138.856 77.7599V110.235C138.856 112.294 140.57 113.963 142.683 113.963H170.231C172.344 113.963 174.058 112.294 174.058 110.235V77.7599C174.058 75.7007 172.345 74.0315 170.231 74.0315H167.15C166.938 74.0315 166.767 74.1984 166.767 74.4043V76.8823C166.767 78.7356 165.225 80.2379 163.324 80.2379H149.549C147.647 80.2379 146.106 78.7356 146.106 76.8823ZM158.37 92.0672V94.3042H146.022V92.0672H158.37ZM166.892 97.7831V100.02H146.022V97.7831H166.892Z" fill="url(#paint1_linear_444_665)"/>
<path d="M99.9822 202.035V177.893H107.527C112.458 177.893 115.991 179.659 115.991 184.701C115.991 188.455 113.857 190.663 110.581 191.51L116.728 202.035H113.231L107.416 191.841H103.074V202.035H99.9822ZM103.074 189.338H107.085C110.839 189.338 112.9 187.793 112.9 184.701C112.9 181.536 110.839 180.395 107.085 180.395H103.074V189.338ZM127.531 202.477C122.747 202.477 118.993 199.018 118.993 193.092C118.993 187.277 122.931 183.708 127.016 183.708C131.579 183.708 134.192 186.946 134.192 192.099C134.192 192.761 134.155 193.313 134.045 193.902H122.011C122.268 197.582 124.513 200.011 127.899 200.011C129.629 200.011 131.138 199.533 132.389 198.686L133.456 200.637C131.91 201.741 129.997 202.477 127.531 202.477ZM122.011 191.547H131.469C131.469 188.013 129.813 186.137 127.089 186.137C124.587 186.137 122.379 188.124 122.011 191.547ZM138.575 209.58V184.149H141.078L141.335 186.21H141.446C143.065 184.848 145.089 183.708 147.15 183.708C151.751 183.708 154.253 187.277 154.253 192.835C154.253 198.907 150.573 202.477 146.488 202.477C144.869 202.477 143.176 201.704 141.556 200.416L141.63 203.544V209.58H138.575ZM145.973 199.901C148.917 199.901 151.088 197.251 151.088 192.835C151.088 188.897 149.727 186.284 146.377 186.284C144.869 186.284 143.36 187.093 141.63 188.713V198.061C143.249 199.422 144.795 199.901 145.973 199.901ZM165.945 202.477C161.566 202.477 157.664 199.054 157.664 193.129C157.664 187.13 161.566 183.708 165.945 183.708C170.325 183.708 174.263 187.13 174.263 193.129C174.263 199.054 170.325 202.477 165.945 202.477ZM165.945 199.938C169.037 199.938 171.098 197.214 171.098 193.129C171.098 189.007 169.037 186.247 165.945 186.247C162.891 186.247 160.83 189.007 160.83 193.129C160.83 197.214 162.891 199.938 165.945 199.938ZM178.936 202.035V184.149H181.439L181.697 187.388H181.807C183.058 185.143 184.898 183.708 186.886 183.708C187.695 183.708 188.247 183.818 188.799 184.076L188.137 186.689C187.622 186.541 187.217 186.468 186.518 186.468C185.009 186.468 183.205 187.535 181.991 190.553V202.035H178.936ZM197.362 202.477C193.534 202.477 192.246 200.048 192.246 196.478V186.615H189.596V184.333L192.394 184.149L192.762 178.408H195.301V184.149H200.159V186.615H195.301V196.552C195.301 198.723 196.037 199.974 198.061 199.974C198.724 199.974 199.386 199.864 200.122 199.533L200.748 201.704C199.791 202.146 198.576 202.477 197.362 202.477ZM208.517 202.477C205.904 202.477 203.512 201.52 201.856 199.901L203.254 198.134C204.8 199.422 206.419 200.085 208.627 200.085C210.983 200.085 212.124 198.87 212.124 197.325C212.124 195.484 210.136 194.712 208.112 193.976C205.425 193.019 202.849 191.731 202.849 188.786C202.849 185.916 205.131 183.708 209.032 183.708C211.277 183.708 213.191 184.554 214.589 185.732L213.191 187.498C211.94 186.578 210.651 186.063 209.069 186.063C206.787 186.063 205.793 187.314 205.793 188.639C205.793 190.258 207.339 190.921 209.584 191.694C212.381 192.687 215.068 193.902 215.068 197.141C215.068 200.048 212.749 202.477 208.517 202.477Z" fill="#676D78"/>
<path d="M49.6059 246.44V230.394H53.8995C56.3531 230.394 58.2668 231.057 59.6408 232.382C61.0148 233.707 61.7018 235.694 61.7018 238.344C61.7018 241.01 61.023 243.03 59.6653 244.404C58.3077 245.762 56.4349 246.44 54.0468 246.44H49.6059ZM52.452 244.134H53.7033C55.3226 244.134 56.5739 243.668 57.4572 242.736C58.3404 241.787 58.7821 240.323 58.7821 238.344C58.7821 236.381 58.3404 234.95 57.4572 234.05C56.5739 233.15 55.3226 232.701 53.7033 232.701H52.452V244.134ZM69.6267 246.735C68.6289 246.735 67.6966 246.49 66.8296 245.999C65.9627 245.492 65.2594 244.772 64.7196 243.84C64.1798 242.891 63.9099 241.754 63.9099 240.429C63.9099 239.088 64.1798 237.951 64.7196 237.019C65.2594 236.07 65.9627 235.35 66.8296 234.86C67.6966 234.353 68.6289 234.099 69.6267 234.099C70.6408 234.099 71.5813 234.353 72.4482 234.86C73.3151 235.35 74.0185 236.07 74.5583 237.019C75.098 237.951 75.3679 239.088 75.3679 240.429C75.3679 241.754 75.098 242.891 74.5583 243.84C74.0185 244.772 73.3151 245.492 72.4482 245.999C71.5813 246.49 70.6408 246.735 69.6267 246.735ZM69.6267 244.429C70.5099 244.429 71.2051 244.061 71.7122 243.324C72.2192 242.588 72.4728 241.623 72.4728 240.429C72.4728 239.219 72.2192 238.246 71.7122 237.51C71.2051 236.774 70.5099 236.405 69.6267 236.405C68.7434 236.405 68.0482 236.774 67.5412 237.51C67.0505 238.246 66.8051 239.219 66.8051 240.429C66.8051 241.623 67.0505 242.588 67.5412 243.324C68.0482 244.061 68.7434 244.429 69.6267 244.429ZM83.1905 246.735C82.0945 246.735 81.105 246.49 80.2217 245.999C79.3548 245.492 78.6596 244.772 78.1362 243.84C77.6291 242.891 77.3756 241.754 77.3756 240.429C77.3756 239.088 77.6537 237.951 78.2098 237.019C78.7659 236.07 79.502 235.35 80.418 234.86C81.3503 234.353 82.3481 234.099 83.4113 234.099C84.18 234.099 84.8507 234.23 85.4232 234.492C85.9957 234.753 86.5027 235.072 86.9444 235.449L85.5704 237.289C85.2596 237.011 84.9406 236.798 84.6135 236.651C84.2864 236.487 83.9347 236.405 83.5585 236.405C82.5934 236.405 81.8001 236.774 81.1786 237.51C80.5734 238.246 80.2708 239.219 80.2708 240.429C80.2708 241.623 80.5652 242.588 81.154 243.324C81.7592 244.061 82.5362 244.429 83.4849 244.429C83.9592 244.429 84.4009 244.33 84.8098 244.134C85.2351 243.921 85.6194 243.676 85.9629 243.398L87.1161 245.263C86.56 245.753 85.9384 246.121 85.2514 246.367C84.5644 246.612 83.8774 246.735 83.1905 246.735ZM93.0761 246.735C91.7839 246.735 90.8434 246.318 90.2545 245.484C89.6657 244.649 89.3712 243.472 89.3712 241.95V234.394H92.1928V241.582C92.1928 242.58 92.34 243.284 92.6344 243.692C92.9289 244.101 93.4032 244.306 94.0575 244.306C94.5809 244.306 95.0389 244.175 95.4315 243.913C95.8404 243.652 96.2738 243.226 96.7318 242.637V234.394H99.5534V246.44H97.2471L97.0262 244.674H96.9526C96.4292 245.295 95.8567 245.794 95.2352 246.171C94.6136 246.547 93.8939 246.735 93.0761 246.735ZM103.127 246.44V234.394H105.458L105.654 236.037H105.753C106.26 235.498 106.808 235.04 107.396 234.663C108.002 234.287 108.68 234.099 109.433 234.099C110.316 234.099 111.019 234.295 111.543 234.688C112.083 235.064 112.492 235.588 112.77 236.258C113.342 235.637 113.939 235.121 114.561 234.713C115.199 234.304 115.894 234.099 116.646 234.099C117.922 234.099 118.863 234.516 119.468 235.35C120.073 236.185 120.376 237.362 120.376 238.884V246.44H117.529V239.252C117.529 238.254 117.374 237.55 117.063 237.142C116.769 236.733 116.311 236.528 115.689 236.528C114.937 236.528 114.095 237.027 113.162 238.025V246.44H110.341V239.252C110.341 238.254 110.185 237.55 109.874 237.142C109.58 236.733 109.114 236.528 108.476 236.528C107.724 236.528 106.881 237.027 105.949 238.025V246.44H103.127ZM128.957 246.735C127.845 246.735 126.839 246.49 125.94 245.999C125.04 245.492 124.328 244.772 123.805 243.84C123.282 242.891 123.02 241.754 123.02 240.429C123.02 239.121 123.282 237.992 123.805 237.043C124.345 236.095 125.04 235.367 125.89 234.86C126.741 234.353 127.632 234.099 128.565 234.099C129.661 234.099 130.577 234.345 131.313 234.835C132.049 235.31 132.605 235.98 132.981 236.847C133.357 237.698 133.545 238.687 133.545 239.816C133.545 240.405 133.505 240.863 133.423 241.19H125.768C125.899 242.253 126.283 243.079 126.921 243.668C127.559 244.257 128.36 244.551 129.325 244.551C129.849 244.551 130.331 244.478 130.773 244.33C131.231 244.167 131.681 243.946 132.122 243.668L133.079 245.434C132.507 245.811 131.869 246.121 131.166 246.367C130.462 246.612 129.726 246.735 128.957 246.735ZM125.743 239.276H131.092C131.092 238.344 130.887 237.616 130.479 237.092C130.07 236.553 129.456 236.283 128.638 236.283C127.935 236.283 127.305 236.545 126.749 237.068C126.209 237.575 125.874 238.311 125.743 239.276ZM136.24 246.44V234.394H138.571L138.767 236.013H138.866C139.405 235.49 139.994 235.04 140.632 234.663C141.27 234.287 141.998 234.099 142.816 234.099C144.108 234.099 145.048 234.516 145.637 235.35C146.226 236.185 146.521 237.362 146.521 238.884V246.44H143.699V239.252C143.699 238.254 143.552 237.55 143.257 237.142C142.963 236.733 142.48 236.528 141.81 236.528C141.286 236.528 140.82 236.659 140.411 236.921C140.019 237.166 139.569 237.534 139.062 238.025V246.44H136.24ZM154.214 246.735C152.824 246.735 151.834 246.334 151.245 245.533C150.673 244.715 150.387 243.66 150.387 242.368V236.626H148.669V234.516L150.534 234.394L150.877 231.106H153.233V234.394H156.3V236.626H153.233V242.368C153.233 243.774 153.797 244.478 154.926 244.478C155.138 244.478 155.359 244.453 155.588 244.404C155.817 244.339 156.013 244.273 156.177 244.208L156.668 246.293C156.341 246.408 155.964 246.506 155.539 246.588C155.13 246.686 154.689 246.735 154.214 246.735ZM166.666 246.735C165.62 246.735 164.761 246.408 164.09 245.753C163.436 245.099 163.109 244.249 163.109 243.202C163.109 241.91 163.673 240.912 164.802 240.208C165.93 239.489 167.73 238.998 170.199 238.736C170.183 238.098 170.011 237.55 169.684 237.092C169.373 236.618 168.809 236.381 167.991 236.381C167.402 236.381 166.822 236.495 166.249 236.724C165.693 236.953 165.145 237.232 164.605 237.559L163.575 235.669C164.246 235.244 164.998 234.876 165.832 234.565C166.683 234.255 167.582 234.099 168.531 234.099C170.036 234.099 171.156 234.549 171.892 235.449C172.645 236.332 173.021 237.616 173.021 239.301V246.44H170.69L170.494 245.116H170.396C169.856 245.574 169.275 245.958 168.654 246.269C168.049 246.579 167.386 246.735 166.666 246.735ZM167.574 244.527C168.065 244.527 168.507 244.412 168.899 244.183C169.308 243.938 169.741 243.611 170.199 243.202V240.503C168.564 240.716 167.427 241.034 166.789 241.46C166.151 241.869 165.832 242.376 165.832 242.981C165.832 243.521 165.996 243.913 166.323 244.159C166.65 244.404 167.067 244.527 167.574 244.527ZM176.398 246.44V234.394H178.729L178.925 236.013H179.023C179.563 235.49 180.152 235.04 180.79 234.663C181.427 234.287 182.155 234.099 182.973 234.099C184.265 234.099 185.206 234.516 185.795 235.35C186.384 236.185 186.678 237.362 186.678 238.884V246.44H183.856V239.252C183.856 238.254 183.709 237.55 183.415 237.142C183.12 236.733 182.638 236.528 181.967 236.528C181.444 236.528 180.978 236.659 180.569 236.921C180.176 237.166 179.726 237.534 179.219 238.025V246.44H176.398ZM194.347 246.735C192.842 246.735 191.64 246.179 190.74 245.066C189.841 243.954 189.391 242.408 189.391 240.429C189.391 239.121 189.628 237.992 190.102 237.043C190.593 236.095 191.231 235.367 192.016 234.86C192.801 234.353 193.627 234.099 194.494 234.099C195.181 234.099 195.762 234.222 196.236 234.467C196.727 234.696 197.201 235.015 197.659 235.424L197.561 233.486V229.119H200.383V246.44H198.052L197.856 245.14H197.757C197.316 245.582 196.801 245.958 196.212 246.269C195.623 246.579 195.001 246.735 194.347 246.735ZM195.034 244.404C195.934 244.404 196.776 243.954 197.561 243.055V237.436C197.152 237.06 196.743 236.798 196.334 236.651C195.925 236.504 195.516 236.43 195.108 236.43C194.339 236.43 193.676 236.782 193.12 237.485C192.58 238.172 192.311 239.145 192.311 240.405C192.311 241.697 192.548 242.687 193.022 243.374C193.496 244.061 194.167 244.404 195.034 244.404ZM212.249 246.735C211.431 246.735 210.613 246.579 209.796 246.269C208.978 245.942 208.274 245.541 207.686 245.066L209.01 243.251C209.55 243.66 210.09 243.987 210.63 244.232C211.17 244.478 211.742 244.6 212.347 244.6C213.002 244.6 213.484 244.461 213.795 244.183C214.106 243.905 214.261 243.562 214.261 243.153C214.261 242.809 214.13 242.531 213.868 242.319C213.623 242.09 213.304 241.893 212.912 241.73C212.519 241.55 212.11 241.378 211.685 241.214C211.161 241.018 210.638 240.781 210.115 240.503C209.607 240.208 209.19 239.84 208.863 239.399C208.536 238.941 208.373 238.376 208.373 237.706C208.373 236.643 208.765 235.776 209.55 235.105C210.335 234.434 211.399 234.099 212.74 234.099C213.59 234.099 214.351 234.246 215.022 234.541C215.692 234.835 216.273 235.171 216.764 235.547L215.463 237.264C215.038 236.953 214.604 236.708 214.163 236.528C213.738 236.332 213.288 236.234 212.813 236.234C212.208 236.234 211.758 236.365 211.464 236.626C211.17 236.872 211.022 237.182 211.022 237.559C211.022 238.033 211.268 238.393 211.758 238.638C212.249 238.884 212.822 239.121 213.476 239.35C214.032 239.546 214.572 239.791 215.095 240.086C215.619 240.364 216.052 240.732 216.396 241.19C216.755 241.648 216.935 242.253 216.935 243.005C216.935 244.036 216.535 244.919 215.733 245.655C214.932 246.375 213.77 246.735 212.249 246.735ZM219.454 246.44V229.119H222.276V233.584L222.178 235.915C222.685 235.44 223.249 235.023 223.871 234.663C224.492 234.287 225.212 234.099 226.03 234.099C227.322 234.099 228.262 234.516 228.851 235.35C229.44 236.185 229.735 237.362 229.735 238.884V246.44H226.913V239.252C226.913 238.254 226.766 237.55 226.471 237.142C226.177 236.733 225.694 236.528 225.024 236.528C224.5 236.528 224.034 236.659 223.625 236.921C223.233 237.166 222.783 237.534 222.276 238.025V246.44H219.454ZM236.055 246.735C235.008 246.735 234.15 246.408 233.479 245.753C232.825 245.099 232.498 244.249 232.498 243.202C232.498 241.91 233.062 240.912 234.191 240.208C235.319 239.489 237.118 238.998 239.588 238.736C239.572 238.098 239.4 237.55 239.073 237.092C238.762 236.618 238.198 236.381 237.38 236.381C236.791 236.381 236.211 236.495 235.638 236.724C235.082 236.953 234.534 237.232 233.994 237.559L232.964 235.669C233.634 235.244 234.387 234.876 235.221 234.565C236.072 234.255 236.971 234.099 237.92 234.099C239.425 234.099 240.545 234.549 241.281 235.449C242.034 236.332 242.41 237.616 242.41 239.301V246.44H240.079L239.883 245.116H239.785C239.245 245.574 238.664 245.958 238.043 246.269C237.437 246.579 236.775 246.735 236.055 246.735ZM236.963 244.527C237.454 244.527 237.895 244.412 238.288 244.183C238.697 243.938 239.13 243.611 239.588 243.202V240.503C237.953 240.716 236.816 241.034 236.178 241.46C235.54 241.869 235.221 242.376 235.221 242.981C235.221 243.521 235.385 243.913 235.712 244.159C236.039 244.404 236.456 244.527 236.963 244.527ZM245.787 246.44V234.394H248.117L248.314 236.528H248.412C248.837 235.743 249.352 235.146 249.958 234.737C250.563 234.312 251.184 234.099 251.822 234.099C252.395 234.099 252.853 234.181 253.196 234.345L252.705 236.798C252.493 236.733 252.297 236.684 252.117 236.651C251.937 236.618 251.716 236.602 251.454 236.602C250.98 236.602 250.481 236.79 249.958 237.166C249.434 237.526 248.984 238.164 248.608 239.08V246.44H245.787ZM259.852 246.735C258.74 246.735 257.734 246.49 256.834 245.999C255.935 245.492 255.223 244.772 254.7 243.84C254.176 242.891 253.915 241.754 253.915 240.429C253.915 239.121 254.176 237.992 254.7 237.043C255.24 236.095 255.935 235.367 256.785 234.86C257.636 234.353 258.527 234.099 259.46 234.099C260.556 234.099 261.471 234.345 262.208 234.835C262.944 235.31 263.5 235.98 263.876 236.847C264.252 237.698 264.44 238.687 264.44 239.816C264.44 240.405 264.399 240.863 264.318 241.19H256.663C256.793 242.253 257.178 243.079 257.816 243.668C258.454 244.257 259.255 244.551 260.22 244.551C260.744 244.551 261.226 244.478 261.668 244.33C262.126 244.167 262.576 243.946 263.017 243.668L263.974 245.434C263.402 245.811 262.764 246.121 262.06 246.367C261.357 246.612 260.621 246.735 259.852 246.735ZM256.638 239.276H261.987C261.987 238.344 261.782 237.616 261.373 237.092C260.964 236.553 260.351 236.283 259.533 236.283C258.83 236.283 258.2 236.545 257.644 237.068C257.104 237.575 256.769 238.311 256.638 239.276ZM73.3397 280.397C73.0126 280.397 72.7264 280.372 72.481 280.323C72.2357 280.274 71.9985 280.217 71.7695 280.151L72.2847 277.943C72.3992 277.976 72.5301 278.008 72.6773 278.041C72.8409 278.09 72.9962 278.115 73.1435 278.115C73.7814 278.115 74.2884 277.918 74.6646 277.526C75.0572 277.15 75.3516 276.659 75.5479 276.054L75.7687 275.293L71.0334 263.394H73.9041L75.9895 269.307C76.1695 269.83 76.3412 270.386 76.5048 270.975C76.6847 271.547 76.8646 272.12 77.0446 272.692H77.1427C77.2899 272.136 77.4371 271.572 77.5843 271C77.7479 270.411 77.9033 269.846 78.0505 269.307L79.8661 263.394H82.5895L78.2223 275.98C77.7152 277.338 77.1018 278.409 76.3821 279.194C75.6624 279.996 74.6483 280.397 73.3397 280.397ZM89.4657 275.735C88.468 275.735 87.5356 275.49 86.6687 274.999C85.8018 274.492 85.0985 273.772 84.5587 272.84C84.0189 271.891 83.749 270.754 83.749 269.429C83.749 268.088 84.0189 266.951 84.5587 266.019C85.0985 265.07 85.8018 264.35 86.6687 263.86C87.5356 263.353 88.468 263.099 89.4657 263.099C90.4799 263.099 91.4204 263.353 92.2873 263.86C93.1542 264.35 93.8576 265.07 94.3973 266.019C94.9371 266.951 95.207 268.088 95.207 269.429C95.207 270.754 94.9371 271.891 94.3973 272.84C93.8576 273.772 93.1542 274.492 92.2873 274.999C91.4204 275.49 90.4799 275.735 89.4657 275.735ZM89.4657 273.429C90.349 273.429 91.0442 273.061 91.5512 272.324C92.0583 271.588 92.3118 270.623 92.3118 269.429C92.3118 268.219 92.0583 267.246 91.5512 266.51C91.0442 265.774 90.349 265.405 89.4657 265.405C88.5825 265.405 87.8873 265.774 87.3802 266.51C86.8895 267.246 86.6442 268.219 86.6442 269.429C86.6442 270.623 86.8895 271.588 87.3802 272.324C87.8873 273.061 88.5825 273.429 89.4657 273.429ZM101.582 275.735C100.29 275.735 99.3492 275.318 98.7604 274.484C98.1715 273.649 97.8771 272.472 97.8771 270.95V263.394H100.699V270.582C100.699 271.58 100.846 272.284 101.14 272.692C101.435 273.101 101.909 273.306 102.563 273.306C103.087 273.306 103.545 273.175 103.937 272.913C104.346 272.652 104.78 272.226 105.238 271.637V263.394H108.059V275.44H105.753L105.532 273.674H105.459C104.935 274.295 104.363 274.794 103.741 275.171C103.119 275.547 102.4 275.735 101.582 275.735ZM111.633 275.44V263.394H113.964L114.16 265.528H114.258C114.684 264.743 115.199 264.146 115.804 263.737C116.409 263.312 117.031 263.099 117.669 263.099C118.241 263.099 118.699 263.181 119.043 263.345L118.552 265.798C118.339 265.733 118.143 265.684 117.963 265.651C117.783 265.618 117.563 265.602 117.301 265.602C116.826 265.602 116.328 265.79 115.804 266.166C115.281 266.526 114.831 267.164 114.455 268.08V275.44H111.633ZM125.943 275.44V259.394H129.157L132.003 267.246C132.183 267.753 132.355 268.276 132.519 268.816C132.699 269.339 132.87 269.863 133.034 270.386H133.132C133.312 269.863 133.484 269.339 133.647 268.816C133.811 268.276 133.974 267.753 134.138 267.246L136.91 259.394H140.149V275.44H137.524V268.104C137.524 267.597 137.54 267.049 137.573 266.461C137.622 265.855 137.671 265.25 137.72 264.645C137.786 264.04 137.843 263.492 137.892 263.001H137.794L136.493 266.73L133.868 273.944H132.175L129.525 266.73L128.25 263.001H128.151C128.2 263.492 128.25 264.04 128.299 264.645C128.364 265.25 128.413 265.855 128.446 266.461C128.495 267.049 128.519 267.597 128.519 268.104V275.44H125.943ZM144.225 275.44V259.394H147.071V273.036H153.745V275.44H144.225ZM161.207 275.44V263.394H164.028V275.44H161.207ZM162.63 261.284C162.123 261.284 161.714 261.136 161.403 260.842C161.092 260.548 160.937 260.155 160.937 259.664C160.937 259.19 161.092 258.806 161.403 258.511C161.714 258.217 162.123 258.069 162.63 258.069C163.137 258.069 163.546 258.217 163.857 258.511C164.167 258.806 164.323 259.19 164.323 259.664C164.323 260.155 164.167 260.548 163.857 260.842C163.546 261.136 163.137 261.284 162.63 261.284ZM167.628 275.44V263.394H169.959L170.155 265.013H170.254C170.793 264.49 171.382 264.04 172.02 263.663C172.658 263.287 173.386 263.099 174.204 263.099C175.496 263.099 176.436 263.516 177.025 264.35C177.614 265.185 177.909 266.362 177.909 267.884V275.44H175.087V268.252C175.087 267.254 174.94 266.55 174.645 266.142C174.351 265.733 173.868 265.528 173.198 265.528C172.674 265.528 172.208 265.659 171.799 265.921C171.407 266.166 170.957 266.534 170.45 267.025V275.44H167.628ZM184.719 275.735C183.901 275.735 183.083 275.579 182.265 275.269C181.447 274.942 180.744 274.541 180.155 274.066L181.48 272.251C182.02 272.66 182.56 272.987 183.099 273.232C183.639 273.478 184.212 273.6 184.817 273.6C185.471 273.6 185.954 273.461 186.265 273.183C186.575 272.905 186.731 272.562 186.731 272.153C186.731 271.809 186.6 271.531 186.338 271.319C186.093 271.09 185.774 270.893 185.381 270.73C184.989 270.55 184.58 270.378 184.154 270.214C183.631 270.018 183.108 269.781 182.584 269.503C182.077 269.208 181.66 268.84 181.333 268.399C181.006 267.941 180.842 267.376 180.842 266.706C180.842 265.643 181.235 264.776 182.02 264.105C182.805 263.434 183.868 263.099 185.21 263.099C186.06 263.099 186.821 263.246 187.491 263.541C188.162 263.835 188.743 264.171 189.233 264.547L187.933 266.264C187.508 265.953 187.074 265.708 186.633 265.528C186.207 265.332 185.757 265.234 185.283 265.234C184.678 265.234 184.228 265.365 183.934 265.626C183.639 265.872 183.492 266.182 183.492 266.559C183.492 267.033 183.737 267.393 184.228 267.638C184.719 267.884 185.291 268.121 185.946 268.35C186.502 268.546 187.041 268.791 187.565 269.086C188.088 269.364 188.522 269.732 188.865 270.19C189.225 270.648 189.405 271.253 189.405 272.005C189.405 273.036 189.004 273.919 188.203 274.655C187.401 275.375 186.24 275.735 184.719 275.735ZM191.924 275.44V263.394H194.745V275.44H191.924ZM193.347 261.284C192.84 261.284 192.431 261.136 192.12 260.842C191.809 260.548 191.654 260.155 191.654 259.664C191.654 259.19 191.809 258.806 192.12 258.511C192.431 258.217 192.84 258.069 193.347 258.069C193.854 258.069 194.263 258.217 194.574 258.511C194.885 258.806 195.04 259.19 195.04 259.664C195.04 260.155 194.885 260.548 194.574 260.842C194.263 261.136 193.854 261.284 193.347 261.284ZM202.541 280.765C201.592 280.765 200.733 280.65 199.965 280.421C199.212 280.192 198.615 279.84 198.174 279.366C197.748 278.908 197.536 278.327 197.536 277.624C197.536 276.626 198.108 275.768 199.253 275.048V274.95C198.942 274.753 198.681 274.492 198.468 274.165C198.272 273.837 198.174 273.429 198.174 272.938C198.174 272.463 198.304 272.038 198.566 271.662C198.844 271.269 199.155 270.95 199.498 270.705V270.607C199.09 270.296 198.721 269.863 198.394 269.307C198.084 268.75 197.928 268.121 197.928 267.417C197.928 266.485 198.149 265.7 198.591 265.062C199.032 264.424 199.613 263.942 200.333 263.614C201.069 263.271 201.854 263.099 202.688 263.099C203.015 263.099 203.326 263.132 203.62 263.197C203.931 263.246 204.209 263.312 204.455 263.394H208.773V265.479H206.565C206.761 265.708 206.924 266.003 207.055 266.362C207.186 266.706 207.252 267.09 207.252 267.516C207.252 268.399 207.047 269.151 206.638 269.773C206.229 270.378 205.681 270.836 204.994 271.147C204.307 271.458 203.539 271.613 202.688 271.613C202.426 271.613 202.156 271.588 201.878 271.539C201.6 271.49 201.322 271.408 201.044 271.294C200.864 271.458 200.717 271.621 200.603 271.785C200.504 271.948 200.455 272.169 200.455 272.447C200.455 272.791 200.594 273.061 200.872 273.257C201.167 273.453 201.682 273.551 202.418 273.551H204.553C206.008 273.551 207.104 273.788 207.84 274.263C208.593 274.721 208.969 275.473 208.969 276.52C208.969 277.305 208.707 278.017 208.184 278.655C207.661 279.309 206.916 279.824 205.951 280.2C204.986 280.576 203.849 280.765 202.541 280.765ZM202.688 269.846C203.261 269.846 203.751 269.634 204.16 269.208C204.569 268.783 204.774 268.186 204.774 267.417C204.774 266.665 204.569 266.084 204.16 265.675C203.768 265.25 203.277 265.037 202.688 265.037C202.099 265.037 201.6 265.242 201.191 265.651C200.782 266.06 200.578 266.649 200.578 267.417C200.578 268.186 200.782 268.783 201.191 269.208C201.6 269.634 202.099 269.846 202.688 269.846ZM202.982 278.924C203.947 278.924 204.733 278.728 205.338 278.336C205.943 277.943 206.246 277.493 206.246 276.986C206.246 276.512 206.058 276.193 205.681 276.029C205.321 275.866 204.798 275.784 204.111 275.784H202.467C201.813 275.784 201.265 275.727 200.823 275.612C200.202 276.087 199.891 276.618 199.891 277.207C199.891 277.747 200.169 278.164 200.725 278.458C201.281 278.769 202.034 278.924 202.982 278.924ZM211.092 275.44V258.119H213.914V262.584L213.816 264.915C214.323 264.44 214.887 264.023 215.508 263.663C216.13 263.287 216.85 263.099 217.668 263.099C218.96 263.099 219.9 263.516 220.489 264.35C221.078 265.185 221.372 266.362 221.372 267.884V275.44H218.551V268.252C218.551 267.254 218.404 266.55 218.109 266.142C217.815 265.733 217.332 265.528 216.662 265.528C216.138 265.528 215.672 265.659 215.263 265.921C214.871 266.166 214.421 266.534 213.914 267.025V275.44H211.092ZM229.018 275.735C227.628 275.735 226.638 275.334 226.049 274.533C225.477 273.715 225.191 272.66 225.191 271.368V265.626H223.473V263.516L225.338 263.394L225.681 260.106H228.037V263.394H231.104V265.626H228.037V271.368C228.037 272.774 228.601 273.478 229.73 273.478C229.942 273.478 230.163 273.453 230.392 273.404C230.621 273.339 230.817 273.273 230.981 273.208L231.472 275.293C231.144 275.408 230.768 275.506 230.343 275.588C229.934 275.686 229.492 275.735 229.018 275.735ZM236.76 275.735C235.943 275.735 235.125 275.579 234.307 275.269C233.489 274.942 232.786 274.541 232.197 274.066L233.522 272.251C234.062 272.66 234.601 272.987 235.141 273.232C235.681 273.478 236.253 273.6 236.859 273.6C237.513 273.6 237.995 273.461 238.306 273.183C238.617 272.905 238.772 272.562 238.772 272.153C238.772 271.809 238.641 271.531 238.38 271.319C238.134 271.09 237.815 270.893 237.423 270.73C237.03 270.55 236.621 270.378 236.196 270.214C235.673 270.018 235.149 269.781 234.626 269.503C234.119 269.208 233.702 268.84 233.375 268.399C233.047 267.941 232.884 267.376 232.884 266.706C232.884 265.643 233.276 264.776 234.062 264.105C234.847 263.434 235.91 263.099 237.251 263.099C238.102 263.099 238.862 263.246 239.533 263.541C240.204 263.835 240.784 264.171 241.275 264.547L239.975 266.264C239.549 265.953 239.116 265.708 238.674 265.528C238.249 265.332 237.799 265.234 237.325 265.234C236.72 265.234 236.27 265.365 235.975 265.626C235.681 265.872 235.534 266.182 235.534 266.559C235.534 267.033 235.779 267.393 236.27 267.638C236.76 267.884 237.333 268.121 237.987 268.35C238.543 268.546 239.083 268.791 239.607 269.086C240.13 269.364 240.563 269.732 240.907 270.19C241.267 270.648 241.447 271.253 241.447 272.005C241.447 273.036 241.046 273.919 240.244 274.655C239.443 275.375 238.282 275.735 236.76 275.735Z" fill="#AEB3BD"/>
<defs>
<linearGradient id="paint0_linear_444_665" x1="156.098" y1="71.1096" x2="156.098" y2="119.595" gradientUnits="userSpaceOnUse">
<stop offset="0.385417" stop-color="#FFCC33"/>
<stop offset="0.71875" stop-color="#FFAD33"/>
</linearGradient>
<linearGradient id="paint1_linear_444_665" x1="156.098" y1="71.1096" x2="156.098" y2="119.595" gradientUnits="userSpaceOnUse">
<stop offset="0.385417" stop-color="#FFCC33"/>
<stop offset="0.71875" stop-color="#FFAD33"/>
</linearGradient>
</defs>
</svg>
