<svg width="314" height="320" viewBox="0 0 314 320" fill="none" xmlns="http://www.w3.org/2000/svg">
<path d="M0.627686 18.5164C0.627686 8.35358 8.8663 0.11499 19.0291 0.11499H295.051C305.214 0.11499 313.453 8.35361 313.453 18.5165V300.672C313.453 310.835 305.214 319.074 295.051 319.074H19.0291C8.86628 319.074 0.627686 310.835 0.627686 300.672V18.5164Z" fill="#FAFAFA"/>
<rect x="101.943" y="36.918" width="110.195" height="110.195" rx="55.0975" fill="#15151F" fill-opacity="0.04"/>
<path d="M155.127 79.5802C155.127 85.3914 150.416 90.1023 144.605 90.1023C138.794 90.1023 134.083 85.3914 134.083 79.5802C134.083 77.275 134.824 75.143 136.081 73.4095C136.208 73.2352 136.459 73.2205 136.611 73.3726L143.72 80.4817C143.885 80.646 144.151 80.646 144.316 80.4817L145.506 79.2912C145.67 79.1269 145.67 78.8604 145.506 78.696L138.397 71.5869C138.245 71.4347 138.26 71.1833 138.434 71.057C140.167 69.7995 142.3 69.0581 144.605 69.0581C150.416 69.0581 155.127 73.769 155.127 79.5802Z" fill="url(#paint0_linear_444_576)"/>
<path d="M179.998 79.5802C179.998 85.3914 175.287 90.1023 169.475 90.1023C163.664 90.1023 158.953 85.3914 158.953 79.5802C158.953 77.2344 159.721 75.068 161.019 73.3183C161.146 73.1466 161.395 73.1332 161.547 73.2844L168.744 80.4817C168.908 80.646 169.175 80.646 169.339 80.4817L170.53 79.2912C170.694 79.1269 170.694 78.8604 170.53 78.696L163.356 71.523C163.203 71.3697 163.219 71.1163 163.396 70.9909C165.113 69.7736 167.211 69.0581 169.475 69.0581C175.287 69.0581 179.998 73.769 179.998 79.5802Z" fill="url(#paint1_linear_444_576)"/>
<path d="M144.605 114.973C150.416 114.973 155.127 110.262 155.127 104.451C155.127 102.145 154.386 100.013 153.128 98.2795C153.002 98.1053 152.751 98.0905 152.599 98.2427L145.336 105.505C145.172 105.669 144.905 105.669 144.741 105.505L143.55 104.315C143.386 104.15 143.386 103.884 143.55 103.719L150.813 96.457C150.965 96.3048 150.95 96.0534 150.776 95.9271C149.042 94.6698 146.91 93.9285 144.605 93.9285C138.794 93.9285 134.083 98.6394 134.083 104.451C134.083 110.262 138.794 114.973 144.605 114.973Z" fill="url(#paint2_linear_444_576)"/>
<path d="M179.998 104.451C179.998 110.262 175.287 114.973 169.475 114.973C163.664 114.973 158.953 110.262 158.953 104.451C158.953 98.6394 163.664 93.9285 169.475 93.9285C171.821 93.9285 173.988 94.6962 175.738 95.994C175.909 96.1213 175.923 96.3707 175.771 96.5218L168.574 103.719C168.409 103.884 168.409 104.15 168.574 104.315L169.764 105.505C169.929 105.669 170.195 105.669 170.36 105.505L177.533 98.3318C177.686 98.1785 177.94 98.1948 178.065 98.3715C179.282 100.088 179.998 102.186 179.998 104.451Z" fill="url(#paint3_linear_444_576)"/>
<path d="M107.911 201.956C104.451 201.956 101.544 200.594 99.4461 198.349L101.176 196.325C102.942 198.129 105.408 199.233 107.948 199.233C111.113 199.233 112.99 197.65 112.99 195.332C112.99 192.866 111.223 192.093 108.978 191.099L105.482 189.553C103.237 188.597 100.624 186.904 100.624 183.334C100.624 179.653 103.826 176.93 108.205 176.93C111.149 176.93 113.652 178.145 115.345 179.837L113.652 181.898C112.18 180.5 110.303 179.653 108.205 179.653C105.519 179.653 103.752 181.015 103.752 183.15C103.752 185.468 105.85 186.352 107.727 187.124L111.186 188.633C113.983 189.811 116.155 191.504 116.155 195.074C116.155 198.901 112.99 201.956 107.911 201.956ZM123.448 201.514L118.443 183.628H121.571L124.184 194.007C124.589 195.626 124.957 197.172 125.252 199.085H125.399C125.767 197.172 126.098 195.626 126.503 194.007L129.189 183.628H132.465L135.188 194.007C135.593 195.626 135.998 197.172 136.366 199.085H136.513C136.881 197.172 137.176 195.626 137.581 194.007L140.194 183.628H143.101L138.28 201.514H134.415L131.987 191.909C131.545 190.253 131.214 188.707 130.809 186.609H130.662C130.33 188.707 129.999 190.29 129.521 191.909L127.129 201.514H123.448ZM154.063 201.956C149.279 201.956 145.525 198.497 145.525 192.571C145.525 186.756 149.463 183.187 153.548 183.187C158.112 183.187 160.725 186.425 160.725 191.578C160.725 192.24 160.688 192.792 160.577 193.381H148.543C148.801 197.061 151.046 199.49 154.431 199.49C156.161 199.49 157.67 199.012 158.921 198.165L159.989 200.116C158.443 201.22 156.529 201.956 154.063 201.956ZM148.543 191.026H158.001C158.001 187.492 156.345 185.616 153.622 185.616C151.119 185.616 148.911 187.603 148.543 191.026ZM172.321 201.956C167.537 201.956 163.783 198.497 163.783 192.571C163.783 186.756 167.721 183.187 171.806 183.187C176.369 183.187 178.982 186.425 178.982 191.578C178.982 192.24 178.946 192.792 178.835 193.381H166.801C167.058 197.061 169.303 199.49 172.689 199.49C174.419 199.49 175.928 199.012 177.179 198.165L178.246 200.116C176.701 201.22 174.787 201.956 172.321 201.956ZM166.801 191.026H176.259C176.259 187.492 174.603 185.616 171.879 185.616C169.377 185.616 167.169 187.603 166.801 191.026ZM183.365 209.059V183.628H185.868L186.126 185.689H186.236C187.855 184.327 189.88 183.187 191.94 183.187C196.541 183.187 199.043 186.756 199.043 192.314C199.043 198.386 195.363 201.956 191.278 201.956C189.659 201.956 187.966 201.183 186.346 199.895L186.42 203.023V209.059H183.365ZM190.763 199.38C193.707 199.38 195.878 196.73 195.878 192.314C195.878 188.376 194.517 185.763 191.168 185.763C189.659 185.763 188.15 186.572 186.42 188.192V197.54C188.039 198.901 189.585 199.38 190.763 199.38ZM208.453 201.956C205.84 201.956 203.448 200.999 201.792 199.38L203.191 197.613C204.736 198.901 206.356 199.564 208.564 199.564C210.919 199.564 212.06 198.349 212.06 196.804C212.06 194.963 210.073 194.191 208.049 193.455C205.362 192.498 202.786 191.21 202.786 188.265C202.786 185.395 205.068 183.187 208.969 183.187C211.214 183.187 213.127 184.033 214.526 185.211L213.127 186.977C211.876 186.057 210.588 185.542 209.006 185.542C206.724 185.542 205.73 186.793 205.73 188.118C205.73 189.737 207.276 190.4 209.521 191.173C212.318 192.166 215.004 193.381 215.004 196.62C215.004 199.527 212.686 201.956 208.453 201.956Z" fill="#676D78"/>
<path d="M88.6241 246.214C87.2338 246.214 86.007 245.879 84.9438 245.208C83.8806 244.521 83.0464 243.556 82.4412 242.313C81.8524 241.053 81.558 239.557 81.558 237.823C81.558 236.089 81.8524 234.609 82.4412 233.382C83.0464 232.155 83.8806 231.215 84.9438 230.56C86.007 229.906 87.2338 229.579 88.6241 229.579C90.0308 229.579 91.2658 229.906 92.329 230.56C93.3922 231.215 94.2182 232.155 94.807 233.382C95.4122 234.609 95.7148 236.089 95.7148 237.823C95.7148 239.557 95.4122 241.053 94.807 242.313C94.2182 243.556 93.3922 244.521 92.329 245.208C91.2658 245.879 90.0308 246.214 88.6241 246.214ZM88.6241 243.736C89.8836 243.736 90.8896 243.204 91.642 242.141C92.3944 241.061 92.7706 239.622 92.7706 237.823C92.7706 236.024 92.3944 234.617 91.642 233.603C90.8896 232.572 89.8836 232.057 88.6241 232.057C87.3647 232.057 86.3587 232.572 85.6063 233.603C84.8539 234.617 84.4777 236.024 84.4777 237.823C84.4777 239.622 84.8539 241.061 85.6063 242.141C86.3587 243.204 87.3647 243.736 88.6241 243.736ZM98.6794 250.679V233.873H101.01L101.207 235.148H101.305C101.812 234.723 102.376 234.355 102.998 234.044C103.636 233.734 104.282 233.578 104.936 233.578C106.441 233.578 107.602 234.134 108.42 235.247C109.254 236.359 109.671 237.847 109.671 239.712C109.671 241.086 109.426 242.264 108.935 243.245C108.444 244.21 107.807 244.946 107.021 245.453C106.253 245.96 105.418 246.214 104.519 246.214C103.995 246.214 103.472 246.099 102.949 245.87C102.425 245.625 101.918 245.298 101.427 244.889L101.501 246.901V250.679H98.6794ZM103.93 243.883C104.731 243.883 105.402 243.531 105.942 242.828C106.482 242.125 106.751 241.094 106.751 239.737C106.751 238.526 106.547 237.586 106.138 236.915C105.729 236.244 105.067 235.909 104.151 235.909C103.3 235.909 102.417 236.359 101.501 237.258V242.877C101.943 243.237 102.368 243.499 102.777 243.662C103.186 243.809 103.57 243.883 103.93 243.883ZM116.222 246.214C114.832 246.214 113.842 245.813 113.253 245.012C112.681 244.194 112.394 243.139 112.394 241.847V236.105H110.677V233.995L112.542 233.873L112.885 230.585H115.241V233.873H118.307V236.105H115.241V241.847C115.241 243.253 115.805 243.957 116.933 243.957C117.146 243.957 117.367 243.932 117.596 243.883C117.825 243.818 118.021 243.752 118.185 243.687L118.675 245.772C118.348 245.887 117.972 245.985 117.547 246.067C117.138 246.165 116.696 246.214 116.222 246.214ZM120.843 245.919V233.873H123.664V245.919H120.843ZM122.266 231.763C121.759 231.763 121.35 231.615 121.039 231.321C120.728 231.027 120.573 230.634 120.573 230.143C120.573 229.669 120.728 229.285 121.039 228.99C121.35 228.696 121.759 228.548 122.266 228.548C122.773 228.548 123.182 228.696 123.492 228.99C123.803 229.285 123.959 229.669 123.959 230.143C123.959 230.634 123.803 231.027 123.492 231.321C123.182 231.615 122.773 231.763 122.266 231.763ZM127.264 245.919V233.873H129.595L129.791 235.516H129.889C130.396 234.977 130.944 234.519 131.533 234.142C132.138 233.766 132.817 233.578 133.57 233.578C134.453 233.578 135.156 233.774 135.68 234.167C136.219 234.543 136.628 235.067 136.906 235.737C137.479 235.116 138.076 234.6 138.697 234.192C139.335 233.783 140.03 233.578 140.783 233.578C142.059 233.578 142.999 233.995 143.604 234.829C144.21 235.664 144.512 236.841 144.512 238.363V245.919H141.666V238.731C141.666 237.733 141.511 237.029 141.2 236.621C140.906 236.212 140.448 236.007 139.826 236.007C139.074 236.007 138.231 236.506 137.299 237.504V245.919H134.477V238.731C134.477 237.733 134.322 237.029 134.011 236.621C133.717 236.212 133.251 236.007 132.613 236.007C131.86 236.007 131.018 236.506 130.086 237.504V245.919H127.264ZM147.942 245.919V233.873H150.763V245.919H147.942ZM149.365 231.763C148.858 231.763 148.449 231.615 148.138 231.321C147.827 231.027 147.672 230.634 147.672 230.143C147.672 229.669 147.827 229.285 148.138 228.99C148.449 228.696 148.858 228.548 149.365 228.548C149.872 228.548 150.281 228.696 150.591 228.99C150.902 229.285 151.058 229.669 151.058 230.143C151.058 230.634 150.902 231.027 150.591 231.321C150.281 231.615 149.872 231.763 149.365 231.763ZM153.406 245.919V244.398L159.098 236.105H154.044V233.873H162.631V235.369L156.964 243.662H162.828V245.919H153.406ZM170.154 246.214C169.041 246.214 168.036 245.969 167.136 245.478C166.236 244.971 165.525 244.251 165.001 243.319C164.478 242.37 164.216 241.233 164.216 239.908C164.216 238.6 164.478 237.471 165.001 236.522C165.541 235.574 166.236 234.846 167.087 234.339C167.937 233.832 168.829 233.578 169.761 233.578C170.857 233.578 171.773 233.824 172.509 234.314C173.245 234.789 173.801 235.459 174.178 236.326C174.554 237.177 174.742 238.166 174.742 239.295C174.742 239.884 174.701 240.342 174.619 240.669H166.964C167.095 241.732 167.479 242.558 168.117 243.147C168.755 243.736 169.557 244.03 170.522 244.03C171.045 244.03 171.528 243.957 171.969 243.809C172.427 243.646 172.877 243.425 173.319 243.147L174.276 244.913C173.703 245.29 173.065 245.6 172.362 245.846C171.659 246.091 170.922 246.214 170.154 246.214ZM166.94 238.755H172.288C172.288 237.823 172.084 237.095 171.675 236.571C171.266 236.032 170.653 235.762 169.835 235.762C169.131 235.762 168.502 236.024 167.946 236.547C167.406 237.054 167.07 237.79 166.94 238.755ZM183.158 250.876C182.831 250.876 182.545 250.851 182.299 250.802C182.054 250.753 181.817 250.696 181.588 250.63L182.103 248.422C182.218 248.455 182.349 248.487 182.496 248.52C182.659 248.569 182.815 248.594 182.962 248.594C183.6 248.594 184.107 248.397 184.483 248.005C184.876 247.629 185.17 247.138 185.366 246.533L185.587 245.772L180.852 233.873H183.723L185.808 239.786C185.988 240.309 186.16 240.865 186.323 241.454C186.503 242.027 186.683 242.599 186.863 243.171H186.961C187.108 242.615 187.256 242.051 187.403 241.479C187.566 240.89 187.722 240.325 187.869 239.786L189.685 233.873H192.408L188.041 246.459C187.534 247.817 186.92 248.888 186.201 249.673C185.481 250.475 184.467 250.876 183.158 250.876ZM199.284 246.214C198.286 246.214 197.354 245.969 196.487 245.478C195.62 244.971 194.917 244.251 194.377 243.319C193.837 242.37 193.567 241.233 193.567 239.908C193.567 238.567 193.837 237.43 194.377 236.498C194.917 235.549 195.62 234.829 196.487 234.339C197.354 233.832 198.286 233.578 199.284 233.578C200.298 233.578 201.239 233.832 202.106 234.339C202.973 234.829 203.676 235.549 204.216 236.498C204.756 237.43 205.025 238.567 205.025 239.908C205.025 241.233 204.756 242.37 204.216 243.319C203.676 244.251 202.973 244.971 202.106 245.478C201.239 245.969 200.298 246.214 199.284 246.214ZM199.284 243.908C200.167 243.908 200.863 243.54 201.37 242.803C201.877 242.067 202.13 241.102 202.13 239.908C202.13 238.698 201.877 237.725 201.37 236.989C200.863 236.253 200.167 235.885 199.284 235.885C198.401 235.885 197.706 236.253 197.199 236.989C196.708 237.725 196.463 238.698 196.463 239.908C196.463 241.102 196.708 242.067 197.199 242.803C197.706 243.54 198.401 243.908 199.284 243.908ZM211.4 246.214C210.108 246.214 209.168 245.797 208.579 244.963C207.99 244.128 207.696 242.951 207.696 241.429V233.873H210.517V241.061C210.517 242.059 210.664 242.763 210.959 243.171C211.253 243.58 211.728 243.785 212.382 243.785C212.905 243.785 213.363 243.654 213.756 243.392C214.165 243.131 214.598 242.705 215.056 242.116V233.873H217.878V245.919H215.571L215.351 244.153H215.277C214.754 244.774 214.181 245.273 213.56 245.65C212.938 246.026 212.218 246.214 211.4 246.214ZM221.452 245.919V233.873H223.782L223.979 236.007H224.077C224.502 235.222 225.017 234.625 225.623 234.216C226.228 233.791 226.849 233.578 227.487 233.578C228.06 233.578 228.518 233.66 228.861 233.824L228.371 236.277C228.158 236.212 227.962 236.163 227.782 236.13C227.602 236.097 227.381 236.081 227.119 236.081C226.645 236.081 226.146 236.269 225.623 236.645C225.099 237.005 224.649 237.643 224.273 238.559V245.919H221.452ZM67.8306 274.919V257.598H70.6521V262.063L70.554 264.394C71.0611 263.919 71.6254 263.502 72.2469 263.142C72.8685 262.766 73.5882 262.578 74.406 262.578C75.6982 262.578 76.6387 262.995 77.2276 263.829C77.8164 264.664 78.1109 265.841 78.1109 267.363V274.919H75.2893V267.731C75.2893 266.733 75.1421 266.029 74.8477 265.621C74.5532 265.212 74.0707 265.007 73.4001 265.007C72.8767 265.007 72.4105 265.138 72.0016 265.4C71.609 265.645 71.1592 266.013 70.6521 266.504V274.919H67.8306ZM82.3215 279.876C81.9944 279.876 81.7082 279.851 81.4628 279.802C81.2175 279.753 80.9803 279.696 80.7513 279.63L81.2665 277.422C81.381 277.455 81.5119 277.487 81.6591 277.52C81.8227 277.569 81.978 277.594 82.1253 277.594C82.7632 277.594 83.2702 277.397 83.6464 277.005C84.039 276.629 84.3334 276.138 84.5297 275.533L84.7505 274.772L80.0152 262.873H82.8859L84.9714 268.786C85.1513 269.309 85.323 269.865 85.4866 270.454C85.6665 271.027 85.8464 271.599 86.0264 272.171H86.1245C86.2717 271.615 86.4189 271.051 86.5661 270.479C86.7297 269.89 86.8851 269.325 87.0323 268.786L88.8479 262.873H91.5713L87.2041 275.459C86.697 276.817 86.0836 277.888 85.3639 278.673C84.6442 279.475 83.6301 279.876 82.3215 279.876ZM93.6597 279.679V262.873H95.9906L96.1868 264.148H96.285C96.7921 263.723 97.3564 263.355 97.9779 263.044C98.6158 262.734 99.2619 262.578 99.9162 262.578C101.421 262.578 102.582 263.134 103.4 264.247C104.234 265.359 104.652 266.847 104.652 268.712C104.652 270.086 104.406 271.264 103.915 272.245C103.425 273.21 102.787 273.946 102.002 274.453C101.233 274.96 100.399 275.214 99.4991 275.214C98.9757 275.214 98.4523 275.099 97.9289 274.87C97.4054 274.625 96.8984 274.298 96.4077 273.889L96.4813 275.901V279.679H93.6597ZM98.9103 272.883C99.7117 272.883 100.382 272.531 100.922 271.828C101.462 271.125 101.732 270.094 101.732 268.737C101.732 267.526 101.527 266.586 101.118 265.915C100.71 265.244 100.047 264.909 99.1311 264.909C98.2805 264.909 97.3973 265.359 96.4813 266.258V271.877C96.9229 272.237 97.3482 272.499 97.7571 272.662C98.166 272.809 98.5504 272.883 98.9103 272.883ZM112.661 275.214C111.549 275.214 110.543 274.969 109.643 274.478C108.744 273.971 108.032 273.251 107.509 272.319C106.985 271.37 106.724 270.233 106.724 268.908C106.724 267.6 106.985 266.471 107.509 265.522C108.049 264.574 108.744 263.846 109.594 263.339C110.445 262.832 111.336 262.578 112.269 262.578C113.364 262.578 114.28 262.824 115.017 263.314C115.753 263.789 116.309 264.459 116.685 265.326C117.061 266.177 117.249 267.166 117.249 268.295C117.249 268.884 117.208 269.342 117.127 269.669H109.472C109.602 270.732 109.987 271.558 110.625 272.147C111.263 272.736 112.064 273.03 113.029 273.03C113.553 273.03 114.035 272.957 114.477 272.809C114.935 272.646 115.385 272.425 115.826 272.147L116.783 273.913C116.211 274.29 115.573 274.6 114.869 274.846C114.166 275.091 113.43 275.214 112.661 275.214ZM109.447 267.755H114.796C114.796 266.823 114.591 266.095 114.182 265.571C113.773 265.032 113.16 264.762 112.342 264.762C111.639 264.762 111.009 265.024 110.453 265.547C109.913 266.054 109.578 266.79 109.447 267.755ZM119.944 274.919V262.873H122.275L122.471 265.007H122.569C122.995 264.222 123.51 263.625 124.115 263.216C124.72 262.791 125.342 262.578 125.98 262.578C126.552 262.578 127.01 262.66 127.354 262.824L126.863 265.277C126.65 265.212 126.454 265.163 126.274 265.13C126.094 265.097 125.873 265.081 125.612 265.081C125.137 265.081 124.639 265.269 124.115 265.645C123.592 266.005 123.142 266.643 122.766 267.559V274.919H119.944ZM129.097 279.679V262.873H131.428L131.624 264.148H131.722C132.229 263.723 132.794 263.355 133.415 263.044C134.053 262.734 134.699 262.578 135.353 262.578C136.858 262.578 138.02 263.134 138.837 264.247C139.672 265.359 140.089 266.847 140.089 268.712C140.089 270.086 139.843 271.264 139.353 272.245C138.862 273.21 138.224 273.946 137.439 274.453C136.67 274.96 135.836 275.214 134.936 275.214C134.413 275.214 133.889 275.099 133.366 274.87C132.843 274.625 132.336 274.298 131.845 273.889L131.918 275.901V279.679H129.097ZM134.347 272.883C135.149 272.883 135.82 272.531 136.359 271.828C136.899 271.125 137.169 270.094 137.169 268.737C137.169 267.526 136.965 266.586 136.556 265.915C136.147 265.244 135.484 264.909 134.568 264.909C133.718 264.909 132.834 265.359 131.918 266.258V271.877C132.36 272.237 132.785 272.499 133.194 272.662C133.603 272.809 133.988 272.883 134.347 272.883ZM145.578 275.214C144.531 275.214 143.673 274.887 143.002 274.232C142.348 273.578 142.02 272.728 142.02 271.681C142.02 270.389 142.585 269.391 143.713 268.687C144.842 267.968 146.641 267.477 149.111 267.215C149.095 266.577 148.923 266.029 148.596 265.571C148.285 265.097 147.721 264.86 146.903 264.86C146.314 264.86 145.733 264.974 145.161 265.203C144.605 265.432 144.057 265.711 143.517 266.038L142.487 264.148C143.157 263.723 143.91 263.355 144.744 263.044C145.594 262.734 146.494 262.578 147.443 262.578C148.948 262.578 150.068 263.028 150.804 263.928C151.557 264.811 151.933 266.095 151.933 267.78V274.919H149.602L149.406 273.595H149.307C148.768 274.053 148.187 274.437 147.565 274.748C146.96 275.058 146.298 275.214 145.578 275.214ZM146.486 273.006C146.977 273.006 147.418 272.891 147.811 272.662C148.22 272.417 148.653 272.09 149.111 271.681V268.982C147.475 269.195 146.339 269.513 145.701 269.939C145.063 270.348 144.744 270.855 144.744 271.46C144.744 272 144.907 272.392 145.235 272.638C145.562 272.883 145.979 273.006 146.486 273.006ZM155.309 274.919V262.873H157.64L157.837 265.007H157.935C158.36 264.222 158.875 263.625 159.48 263.216C160.086 262.791 160.707 262.578 161.345 262.578C161.918 262.578 162.376 262.66 162.719 262.824L162.228 265.277C162.016 265.212 161.819 265.163 161.64 265.13C161.46 265.097 161.239 265.081 160.977 265.081C160.503 265.081 160.004 265.269 159.48 265.645C158.957 266.005 158.507 266.643 158.131 267.559V274.919H155.309ZM166.735 275.214C165.688 275.214 164.829 274.887 164.159 274.232C163.505 273.578 163.177 272.728 163.177 271.681C163.177 270.389 163.742 269.391 164.87 268.687C165.999 267.968 167.798 267.477 170.268 267.215C170.252 266.577 170.08 266.029 169.753 265.571C169.442 265.097 168.878 264.86 168.06 264.86C167.471 264.86 166.89 264.974 166.318 265.203C165.762 265.432 165.214 265.711 164.674 266.038L163.644 264.148C164.314 263.723 165.067 263.355 165.901 263.044C166.751 262.734 167.651 262.578 168.6 262.578C170.105 262.578 171.225 263.028 171.961 263.928C172.713 264.811 173.09 266.095 173.09 267.78V274.919H170.759L170.562 273.595H170.464C169.925 274.053 169.344 274.437 168.722 274.748C168.117 275.058 167.455 275.214 166.735 275.214ZM167.643 273.006C168.134 273.006 168.575 272.891 168.968 272.662C169.377 272.417 169.81 272.09 170.268 271.681V268.982C168.632 269.195 167.496 269.513 166.858 269.939C166.22 270.348 165.901 270.855 165.901 271.46C165.901 272 166.064 272.392 166.391 272.638C166.719 272.883 167.136 273.006 167.643 273.006ZM176.466 274.919V262.873H178.797L178.993 264.516H179.092C179.599 263.977 180.147 263.519 180.735 263.142C181.341 262.766 182.019 262.578 182.772 262.578C183.655 262.578 184.358 262.774 184.882 263.167C185.422 263.543 185.831 264.067 186.109 264.737C186.681 264.116 187.278 263.6 187.9 263.192C188.538 262.783 189.233 262.578 189.985 262.578C191.261 262.578 192.202 262.995 192.807 263.829C193.412 264.664 193.715 265.841 193.715 267.363V274.919H190.869V267.731C190.869 266.733 190.713 266.029 190.402 265.621C190.108 265.212 189.65 265.007 189.028 265.007C188.276 265.007 187.434 265.506 186.501 266.504V274.919H183.68V267.731C183.68 266.733 183.524 266.029 183.213 265.621C182.919 265.212 182.453 265.007 181.815 265.007C181.063 265.007 180.22 265.506 179.288 266.504V274.919H176.466ZM202.296 275.214C201.184 275.214 200.178 274.969 199.279 274.478C198.379 273.971 197.667 273.251 197.144 272.319C196.621 271.37 196.359 270.233 196.359 268.908C196.359 267.6 196.621 266.471 197.144 265.522C197.684 264.574 198.379 263.846 199.229 263.339C200.08 262.832 200.971 262.578 201.904 262.578C203 262.578 203.916 262.824 204.652 263.314C205.388 263.789 205.944 264.459 206.32 265.326C206.696 266.177 206.884 267.166 206.884 268.295C206.884 268.884 206.844 269.342 206.762 269.669H199.107C199.238 270.732 199.622 271.558 200.26 272.147C200.898 272.736 201.699 273.03 202.664 273.03C203.188 273.03 203.67 272.957 204.112 272.809C204.57 272.646 205.02 272.425 205.461 272.147L206.418 273.913C205.846 274.29 205.208 274.6 204.505 274.846C203.801 275.091 203.065 275.214 202.296 275.214ZM199.082 267.755H204.431C204.431 266.823 204.226 266.095 203.818 265.571C203.409 265.032 202.795 264.762 201.977 264.762C201.274 264.762 200.644 265.024 200.088 265.547C199.548 266.054 199.213 266.79 199.082 267.755ZM213.584 275.214C212.194 275.214 211.204 274.813 210.616 274.012C210.043 273.194 209.757 272.139 209.757 270.847V265.105H208.039V262.995L209.904 262.873L210.248 259.585H212.603V262.873H215.67V265.105H212.603V270.847C212.603 272.253 213.167 272.957 214.296 272.957C214.509 272.957 214.729 272.932 214.958 272.883C215.187 272.818 215.384 272.752 215.547 272.687L216.038 274.772C215.711 274.887 215.335 274.985 214.909 275.067C214.5 275.165 214.059 275.214 213.584 275.214ZM222.974 275.214C221.862 275.214 220.856 274.969 219.956 274.478C219.057 273.971 218.345 273.251 217.822 272.319C217.298 271.37 217.037 270.233 217.037 268.908C217.037 267.6 217.298 266.471 217.822 265.522C218.361 264.574 219.057 263.846 219.907 263.339C220.758 262.832 221.649 262.578 222.582 262.578C223.677 262.578 224.593 262.824 225.329 263.314C226.066 263.789 226.622 264.459 226.998 265.326C227.374 266.177 227.562 267.166 227.562 268.295C227.562 268.884 227.521 269.342 227.44 269.669H219.784C219.915 270.732 220.3 271.558 220.938 272.147C221.576 272.736 222.377 273.03 223.342 273.03C223.866 273.03 224.348 272.957 224.79 272.809C225.248 272.646 225.697 272.425 226.139 272.147L227.096 273.913C226.524 274.29 225.886 274.6 225.182 274.846C224.479 275.091 223.743 275.214 222.974 275.214ZM219.76 267.755H225.109C225.109 266.823 224.904 266.095 224.495 265.571C224.086 265.032 223.473 264.762 222.655 264.762C221.952 264.762 221.322 265.024 220.766 265.547C220.226 266.054 219.891 266.79 219.76 267.755ZM230.257 274.919V262.873H232.588L232.784 265.007H232.882C233.308 264.222 233.823 263.625 234.428 263.216C235.033 262.791 235.655 262.578 236.293 262.578C236.865 262.578 237.323 262.66 237.667 262.824L237.176 265.277C236.963 265.212 236.767 265.163 236.587 265.13C236.407 265.097 236.186 265.081 235.925 265.081C235.45 265.081 234.951 265.269 234.428 265.645C233.905 266.005 233.455 266.643 233.079 267.559V274.919H230.257ZM242.627 275.214C241.81 275.214 240.992 275.058 240.174 274.748C239.356 274.421 238.653 274.02 238.064 273.545L239.389 271.73C239.929 272.139 240.468 272.466 241.008 272.711C241.548 272.957 242.12 273.079 242.726 273.079C243.38 273.079 243.862 272.94 244.173 272.662C244.484 272.384 244.639 272.041 244.639 271.632C244.639 271.288 244.508 271.01 244.247 270.798C244.001 270.569 243.682 270.372 243.29 270.209C242.897 270.029 242.488 269.857 242.063 269.693C241.54 269.497 241.016 269.26 240.493 268.982C239.986 268.687 239.569 268.319 239.242 267.878C238.914 267.42 238.751 266.856 238.751 266.185C238.751 265.122 239.143 264.255 239.929 263.584C240.714 262.914 241.777 262.578 243.118 262.578C243.969 262.578 244.729 262.725 245.4 263.02C246.071 263.314 246.651 263.65 247.142 264.026L245.842 265.743C245.416 265.432 244.983 265.187 244.541 265.007C244.116 264.811 243.666 264.713 243.192 264.713C242.587 264.713 242.137 264.844 241.842 265.105C241.548 265.351 241.401 265.661 241.401 266.038C241.401 266.512 241.646 266.872 242.137 267.117C242.627 267.363 243.2 267.6 243.854 267.829C244.41 268.025 244.95 268.27 245.473 268.565C245.997 268.843 246.43 269.211 246.774 269.669C247.134 270.127 247.314 270.732 247.314 271.484C247.314 272.515 246.913 273.398 246.111 274.134C245.31 274.854 244.149 275.214 242.627 275.214Z" fill="#AEB3BD"/>
<defs>
<linearGradient id="paint0_linear_444_576" x1="156.572" y1="69.0581" x2="156.572" y2="121.007" gradientUnits="userSpaceOnUse">
<stop offset="0.385417" stop-color="#FFCC33"/>
<stop offset="0.71875" stop-color="#FFAD33"/>
</linearGradient>
<linearGradient id="paint1_linear_444_576" x1="156.572" y1="69.0581" x2="156.572" y2="121.007" gradientUnits="userSpaceOnUse">
<stop offset="0.385417" stop-color="#FFCC33"/>
<stop offset="0.71875" stop-color="#FFAD33"/>
</linearGradient>
<linearGradient id="paint2_linear_444_576" x1="156.572" y1="69.0581" x2="156.572" y2="121.007" gradientUnits="userSpaceOnUse">
<stop offset="0.385417" stop-color="#FFCC33"/>
<stop offset="0.71875" stop-color="#FFAD33"/>
</linearGradient>
<linearGradient id="paint3_linear_444_576" x1="156.572" y1="69.0581" x2="156.572" y2="121.007" gradientUnits="userSpaceOnUse">
<stop offset="0.385417" stop-color="#FFCC33"/>
<stop offset="0.71875" stop-color="#FFAD33"/>
</linearGradient>
</defs>
</svg>
