<svg width="314" height="320" viewBox="0 0 314 320" fill="none" xmlns="http://www.w3.org/2000/svg">
<path d="M0.92627 19.0374C0.92627 8.87458 9.16489 0.635986 19.3277 0.635986H295.35C305.513 0.635986 313.751 8.8746 313.751 19.0374V301.193C313.751 311.356 305.513 319.595 295.35 319.595H19.3277C9.16487 319.595 0.92627 311.356 0.92627 301.193V19.0374Z" fill="#FAFAFA"/>
<rect x="102.242" y="37.439" width="110.195" height="110.195" rx="55.0975" fill="#15151F" fill-opacity="0.04"/>
<path d="M150.394 74.5978C150.394 74.3619 150.582 74.1707 150.814 74.1707H163.864C164.097 74.1707 164.285 74.3619 164.285 74.5978V84.7245C164.285 84.9603 164.097 85.1516 163.864 85.1516H150.814C150.582 85.1516 150.394 84.9603 150.394 84.7245V74.5978Z" fill="url(#paint0_linear_444_655)"/>
<path d="M147.194 85.1516C147.427 85.1516 147.615 84.9603 147.615 84.7245V74.5978C147.615 74.3619 147.432 74.1707 147.199 74.1707C145.523 74.1707 141.225 74.1707 137.93 74.1707C135.605 74.1707 133.724 76.0829 133.724 78.4418V84.7245C133.724 84.9603 133.912 85.1516 134.144 85.1516H147.194Z" fill="url(#paint1_linear_444_655)"/>
<path d="M133.724 88.3985C133.724 88.1626 133.912 87.9714 134.144 87.9714H147.194C147.427 87.9714 147.615 88.1626 147.615 88.3985V110.475C147.615 110.711 147.432 110.902 147.199 110.902C145.523 110.902 141.225 110.902 137.93 110.902C135.605 110.902 133.724 108.99 133.724 106.631V88.3985Z" fill="url(#paint2_linear_444_655)"/>
<path d="M150.394 88.3985C150.394 88.1626 150.582 87.9714 150.814 87.9714H163.864C164.097 87.9714 164.285 88.1626 164.285 88.3985V110.475C164.285 110.711 164.097 110.902 163.864 110.902H150.814C150.582 110.902 150.394 110.711 150.394 110.475V88.3985Z" fill="url(#paint3_linear_444_655)"/>
<path d="M167.484 87.9714C167.252 87.9714 167.063 88.1626 167.063 88.3985V110.475C167.063 110.711 167.252 110.902 167.484 110.902C170.545 110.902 173.605 110.902 176.666 110.902C178.983 110.902 180.864 109.001 180.874 106.65L180.953 88.4004C180.954 88.1638 180.765 87.9714 180.532 87.9714H167.484Z" fill="url(#paint4_linear_444_655)"/>
<path d="M180.534 85.1516C180.766 85.1516 180.955 84.9603 180.955 84.7245V78.4418C180.955 76.0829 179.073 74.1707 176.749 74.1707C173.454 74.1707 169.156 74.1707 167.479 74.1707C167.247 74.1707 167.063 74.3619 167.063 74.5978V84.7245C167.063 84.9603 167.252 85.1516 167.484 85.1516H180.534Z" fill="url(#paint5_linear_444_655)"/>
<path d="M116.149 202.035V180.506H108.862V177.893H126.564V180.506H119.24V202.035H116.149ZM132.007 202.477C129.026 202.477 126.781 200.637 126.781 197.398C126.781 193.424 130.093 191.51 137.748 190.663C137.711 188.418 136.975 186.247 134.068 186.247C132.007 186.247 130.13 187.167 128.731 188.087L127.554 186.026C129.21 184.922 131.712 183.708 134.583 183.708C138.926 183.708 140.803 186.615 140.803 191.031V202.035H138.3L138.006 199.901H137.895C136.202 201.336 134.252 202.477 132.007 202.477ZM132.853 199.974C134.583 199.974 136.018 199.202 137.748 197.693V192.835C131.712 193.534 129.762 194.896 129.762 197.214C129.762 199.202 131.123 199.974 132.853 199.974ZM154.343 202.477C152.687 202.477 150.846 201.631 149.264 200.195H149.153L148.859 202.035H146.43V175.832H149.485V182.971L149.374 186.173C151.03 184.775 153.018 183.708 155.005 183.708C159.605 183.708 162.108 187.277 162.108 192.798C162.108 198.907 158.428 202.477 154.343 202.477ZM153.827 199.901C156.772 199.901 158.943 197.251 158.943 192.835C158.943 188.897 157.581 186.284 154.232 186.284C152.723 186.284 151.178 187.093 149.485 188.713V198.061C151.03 199.422 152.65 199.901 153.827 199.901ZM170.01 202.477C167.728 202.477 166.808 201.005 166.808 198.429V175.832H169.863V198.65C169.863 199.606 170.268 199.938 170.746 199.938C170.93 199.938 171.077 199.938 171.372 199.864L171.777 202.146C171.335 202.367 170.783 202.477 170.01 202.477ZM183.402 202.477C178.618 202.477 174.864 199.018 174.864 193.092C174.864 187.277 178.802 183.708 182.887 183.708C187.45 183.708 190.063 186.946 190.063 192.099C190.063 192.761 190.027 193.313 189.916 193.902H177.882C178.139 197.582 180.384 200.011 183.77 200.011C185.5 200.011 187.009 199.533 188.26 198.686L189.327 200.637C187.782 201.741 185.868 202.477 183.402 202.477ZM177.882 191.547H187.34C187.34 188.013 185.684 186.137 182.96 186.137C180.458 186.137 178.25 188.124 177.882 191.547ZM199.12 202.477C196.507 202.477 194.115 201.52 192.459 199.901L193.857 198.134C195.403 199.422 197.023 200.085 199.231 200.085C201.586 200.085 202.727 198.87 202.727 197.325C202.727 195.484 200.74 194.712 198.715 193.976C196.029 193.019 193.453 191.731 193.453 188.786C193.453 185.916 195.734 183.708 199.636 183.708C201.881 183.708 203.794 184.554 205.193 185.732L203.794 187.498C202.543 186.578 201.255 186.063 199.672 186.063C197.391 186.063 196.397 187.314 196.397 188.639C196.397 190.258 197.943 190.921 200.188 191.694C202.985 192.687 205.671 193.902 205.671 197.141C205.671 200.048 203.353 202.477 199.12 202.477Z" fill="#676D78"/>
<path d="M51.2863 246.44L46.2811 230.394H49.2989L51.5562 238.466C51.8179 239.366 52.055 240.233 52.2677 241.067C52.4803 241.901 52.7175 242.776 52.9792 243.692H53.0773C53.3554 242.776 53.5926 241.901 53.7889 241.067C54.0015 240.233 54.2305 239.366 54.4759 238.466L56.7086 230.394H59.6283L54.6476 246.44H51.2863ZM61.3245 246.44V234.394H64.146V246.44H61.3245ZM62.7475 232.284C62.2404 232.284 61.8315 232.136 61.5207 231.842C61.21 231.548 61.0546 231.155 61.0546 230.664C61.0546 230.19 61.21 229.806 61.5207 229.511C61.8315 229.217 62.2404 229.069 62.7475 229.069C63.2546 229.069 63.6635 229.217 63.9743 229.511C64.285 229.806 64.4404 230.19 64.4404 230.664C64.4404 231.155 64.285 231.548 63.9743 231.842C63.6635 232.136 63.2546 232.284 62.7475 232.284ZM71.1071 246.735C70.2893 246.735 69.4715 246.579 68.6536 246.269C67.8358 245.942 67.1324 245.541 66.5436 245.066L67.8685 243.251C68.4083 243.66 68.948 243.987 69.4878 244.232C70.0276 244.478 70.6001 244.6 71.2053 244.6C71.8596 244.6 72.3421 244.461 72.6529 244.183C72.9636 243.905 73.119 243.562 73.119 243.153C73.119 242.809 72.9882 242.531 72.7265 242.319C72.4811 242.09 72.1622 241.893 71.7696 241.73C71.377 241.55 70.9681 241.378 70.5428 241.214C70.0194 241.018 69.496 240.781 68.9726 240.503C68.4655 240.208 68.0484 239.84 67.7213 239.399C67.3941 238.941 67.2306 238.376 67.2306 237.706C67.2306 236.643 67.6231 235.776 68.4083 235.105C69.1934 234.434 70.2566 234.099 71.5978 234.099C72.4484 234.099 73.209 234.246 73.8796 234.541C74.5503 234.835 75.1309 235.171 75.6216 235.547L74.3213 237.264C73.896 236.953 73.4625 236.708 73.0209 236.528C72.5956 236.332 72.1458 236.234 71.6714 236.234C71.0662 236.234 70.6164 236.365 70.322 236.626C70.0276 236.872 69.8804 237.182 69.8804 237.559C69.8804 238.033 70.1257 238.393 70.6164 238.638C71.1071 238.884 71.6796 239.121 72.3339 239.35C72.89 239.546 73.4298 239.791 73.9532 240.086C74.4766 240.364 74.9101 240.732 75.2536 241.19C75.6135 241.648 75.7934 242.253 75.7934 243.005C75.7934 244.036 75.3926 244.919 74.5911 245.655C73.7897 246.375 72.6283 246.735 71.1071 246.735ZM81.8944 246.735C80.6022 246.735 79.6617 246.318 79.0729 245.484C78.484 244.649 78.1896 243.472 78.1896 241.95V234.394H81.0111V241.582C81.0111 242.58 81.1584 243.284 81.4528 243.692C81.7472 244.101 82.2216 244.306 82.8758 244.306C83.3992 244.306 83.8572 244.175 84.2498 243.913C84.6587 243.652 85.0922 243.226 85.5502 242.637V234.394H88.3717V246.44H86.0654L85.8446 244.674H85.771C85.2476 245.295 84.6751 245.794 84.0535 246.171C83.432 246.547 82.7123 246.735 81.8944 246.735ZM94.8653 246.735C93.8185 246.735 92.9598 246.408 92.2891 245.753C91.6349 245.099 91.3077 244.249 91.3077 243.202C91.3077 241.91 91.872 240.912 93.0007 240.208C94.1293 239.489 95.9285 238.998 98.3984 238.736C98.3821 238.098 98.2103 237.55 97.8832 237.092C97.5724 236.618 97.0081 236.381 96.1902 236.381C95.6014 236.381 95.0207 236.495 94.4482 236.724C93.8921 236.953 93.3442 237.232 92.8044 237.559L91.7739 235.669C92.4445 235.244 93.1969 234.876 94.0311 234.565C94.8817 234.255 95.7813 234.099 96.73 234.099C98.2349 234.099 99.3553 234.549 100.091 235.449C100.844 236.332 101.22 237.616 101.22 239.301V246.44H98.8891L98.6928 245.116H98.5947C98.0549 245.574 97.4743 245.958 96.8527 246.269C96.2475 246.579 95.585 246.735 94.8653 246.735ZM95.7731 244.527C96.2638 244.527 96.7055 244.412 97.098 244.183C97.507 243.938 97.9404 243.611 98.3984 243.202V240.503C96.7627 240.716 95.6259 241.034 94.988 241.46C94.3501 241.869 94.0311 242.376 94.0311 242.981C94.0311 243.521 94.1947 243.913 94.5218 244.159C94.849 244.404 95.2661 244.527 95.7731 244.527ZM107.345 246.735C106.347 246.735 105.635 246.432 105.21 245.827C104.801 245.222 104.597 244.396 104.597 243.349V229.119H107.418V243.496C107.418 243.84 107.484 244.085 107.614 244.232C107.745 244.363 107.884 244.429 108.032 244.429C108.097 244.429 108.154 244.429 108.203 244.429C108.269 244.412 108.359 244.396 108.473 244.379L108.841 246.49C108.678 246.555 108.465 246.612 108.203 246.661C107.958 246.71 107.672 246.735 107.345 246.735ZM111.258 246.44V234.394H114.079V246.44H111.258ZM112.681 232.284C112.174 232.284 111.765 232.136 111.454 231.842C111.143 231.548 110.988 231.155 110.988 230.664C110.988 230.19 111.143 229.806 111.454 229.511C111.765 229.217 112.174 229.069 112.681 229.069C113.188 229.069 113.597 229.217 113.907 229.511C114.218 229.806 114.374 230.19 114.374 230.664C114.374 231.155 114.218 231.548 113.907 231.842C113.597 232.136 113.188 232.284 112.681 232.284ZM116.722 246.44V244.919L122.414 236.626H117.36V234.394H125.947V235.89L120.28 244.183H126.144V246.44H116.722ZM133.47 246.735C132.357 246.735 131.351 246.49 130.452 245.999C129.552 245.492 128.841 244.772 128.317 243.84C127.794 242.891 127.532 241.754 127.532 240.429C127.532 239.121 127.794 237.992 128.317 237.043C128.857 236.095 129.552 235.367 130.403 234.86C131.253 234.353 132.145 234.099 133.077 234.099C134.173 234.099 135.089 234.345 135.825 234.835C136.561 235.31 137.117 235.98 137.493 236.847C137.87 237.698 138.058 238.687 138.058 239.816C138.058 240.405 138.017 240.863 137.935 241.19H130.28C130.411 242.253 130.795 243.079 131.433 243.668C132.071 244.257 132.873 244.551 133.838 244.551C134.361 244.551 134.844 244.478 135.285 244.33C135.743 244.167 136.193 243.946 136.635 243.668L137.592 245.434C137.019 245.811 136.381 246.121 135.678 246.367C134.975 246.612 134.238 246.735 133.47 246.735ZM130.256 239.276H135.604C135.604 238.344 135.4 237.616 134.991 237.092C134.582 236.553 133.969 236.283 133.151 236.283C132.447 236.283 131.818 236.545 131.262 237.068C130.722 237.575 130.386 238.311 130.256 239.276ZM148.584 246.735C147.537 246.735 146.679 246.408 146.008 245.753C145.354 245.099 145.027 244.249 145.027 243.202C145.027 241.91 145.591 240.912 146.72 240.208C147.848 239.489 149.647 238.998 152.117 238.736C152.101 238.098 151.929 237.55 151.602 237.092C151.291 236.618 150.727 236.381 149.909 236.381C149.32 236.381 148.74 236.495 148.167 236.724C147.611 236.953 147.063 237.232 146.523 237.559L145.493 235.669C146.163 235.244 146.916 234.876 147.75 234.565C148.601 234.255 149.5 234.099 150.449 234.099C151.954 234.099 153.074 234.549 153.81 235.449C154.563 236.332 154.939 237.616 154.939 239.301V246.44H152.608L152.412 245.116H152.314C151.774 245.574 151.193 245.958 150.572 246.269C149.966 246.579 149.304 246.735 148.584 246.735ZM149.492 244.527C149.983 244.527 150.424 244.412 150.817 244.183C151.226 243.938 151.659 243.611 152.117 243.202V240.503C150.482 240.716 149.345 241.034 148.707 241.46C148.069 241.869 147.75 242.376 147.75 242.981C147.75 243.521 147.914 243.913 148.241 244.159C148.568 244.404 148.985 244.527 149.492 244.527ZM158.315 246.44V234.394H160.646L160.843 236.013H160.941C161.481 235.49 162.069 235.04 162.707 234.663C163.345 234.287 164.073 234.099 164.891 234.099C166.183 234.099 167.124 234.516 167.713 235.35C168.301 236.185 168.596 237.362 168.596 238.884V246.44H165.774V239.252C165.774 238.254 165.627 237.55 165.333 237.142C165.038 236.733 164.556 236.528 163.885 236.528C163.362 236.528 162.895 236.659 162.486 236.921C162.094 237.166 161.644 237.534 161.137 238.025V246.44H158.315ZM176.265 246.735C174.76 246.735 173.558 246.179 172.658 245.066C171.758 243.954 171.309 242.408 171.309 240.429C171.309 239.121 171.546 237.992 172.02 237.043C172.511 236.095 173.149 235.367 173.934 234.86C174.719 234.353 175.545 234.099 176.412 234.099C177.099 234.099 177.68 234.222 178.154 234.467C178.645 234.696 179.119 235.015 179.577 235.424L179.479 233.486V229.119H182.3V246.44H179.97L179.773 245.14H179.675C179.234 245.582 178.718 245.958 178.129 246.269C177.541 246.579 176.919 246.735 176.265 246.735ZM176.952 244.404C177.851 244.404 178.694 243.954 179.479 243.055V237.436C179.07 237.06 178.661 236.798 178.252 236.651C177.843 236.504 177.434 236.43 177.025 236.43C176.257 236.43 175.594 236.782 175.038 237.485C174.498 238.172 174.228 239.145 174.228 240.405C174.228 241.697 174.466 242.687 174.94 243.374C175.414 244.061 176.085 244.404 176.952 244.404ZM195.958 246.735C194.846 246.735 193.84 246.49 192.94 245.999C192.041 245.492 191.329 244.772 190.806 243.84C190.282 242.891 190.02 241.754 190.02 240.429C190.02 239.121 190.282 237.992 190.806 237.043C191.345 236.095 192.041 235.367 192.891 234.86C193.742 234.353 194.633 234.099 195.565 234.099C196.661 234.099 197.577 234.345 198.313 234.835C199.049 235.31 199.606 235.98 199.982 236.847C200.358 237.698 200.546 238.687 200.546 239.816C200.546 240.405 200.505 240.863 200.423 241.19H192.768C192.899 242.253 193.284 243.079 193.922 243.668C194.559 244.257 195.361 244.551 196.326 244.551C196.849 244.551 197.332 244.478 197.774 244.33C198.232 244.167 198.681 243.946 199.123 243.668L200.08 245.434C199.507 245.811 198.87 246.121 198.166 246.367C197.463 246.612 196.727 246.735 195.958 246.735ZM192.744 239.276H198.093C198.093 238.344 197.888 237.616 197.479 237.092C197.07 236.553 196.457 236.283 195.639 236.283C194.936 236.283 194.306 236.545 193.75 237.068C193.21 237.575 192.875 238.311 192.744 239.276ZM201.506 246.44L205.333 240.159L201.751 234.394H204.794L206.143 236.675C206.323 237.003 206.503 237.346 206.683 237.706C206.879 238.049 207.067 238.385 207.247 238.712H207.345C207.492 238.385 207.648 238.049 207.811 237.706C207.975 237.346 208.13 237.003 208.278 236.675L209.431 234.394H212.35L208.793 240.478L212.62 246.44H209.578L208.106 244.061C207.91 243.701 207.705 243.341 207.492 242.981C207.296 242.621 207.092 242.269 206.879 241.926H206.781C206.617 242.269 206.446 242.621 206.266 242.981C206.086 243.324 205.906 243.684 205.726 244.061L204.45 246.44H201.506ZM214.766 251.2V234.394H217.097L217.293 235.669H217.391C217.898 235.244 218.462 234.876 219.084 234.565C219.722 234.255 220.368 234.099 221.022 234.099C222.527 234.099 223.688 234.655 224.506 235.768C225.341 236.88 225.758 238.368 225.758 240.233C225.758 241.607 225.512 242.785 225.022 243.766C224.531 244.731 223.893 245.467 223.108 245.974C222.339 246.481 221.505 246.735 220.605 246.735C220.082 246.735 219.558 246.62 219.035 246.391C218.512 246.146 218.004 245.819 217.514 245.41L217.587 247.422V251.2H214.766ZM220.016 244.404C220.818 244.404 221.488 244.052 222.028 243.349C222.568 242.646 222.838 241.615 222.838 240.258C222.838 239.047 222.633 238.107 222.225 237.436C221.816 236.765 221.153 236.43 220.237 236.43C219.387 236.43 218.503 236.88 217.587 237.779V243.398C218.029 243.758 218.454 244.02 218.863 244.183C219.272 244.33 219.657 244.404 220.016 244.404ZM231.363 246.735C230.365 246.735 229.653 246.432 229.228 245.827C228.819 245.222 228.615 244.396 228.615 243.349V229.119H231.436V243.496C231.436 243.84 231.502 244.085 231.633 244.232C231.764 244.363 231.903 244.429 232.05 244.429C232.115 244.429 232.172 244.429 232.222 244.429C232.287 244.412 232.377 244.396 232.491 244.379L232.859 246.49C232.696 246.555 232.483 246.612 232.222 246.661C231.976 246.71 231.69 246.735 231.363 246.735ZM240.207 246.735C239.21 246.735 238.277 246.49 237.41 245.999C236.543 245.492 235.84 244.772 235.3 243.84C234.761 242.891 234.491 241.754 234.491 240.429C234.491 239.088 234.761 237.951 235.3 237.019C235.84 236.07 236.543 235.35 237.41 234.86C238.277 234.353 239.21 234.099 240.207 234.099C241.221 234.099 242.162 234.353 243.029 234.86C243.896 235.35 244.599 236.07 245.139 237.019C245.679 237.951 245.949 239.088 245.949 240.429C245.949 241.754 245.679 242.891 245.139 243.84C244.599 244.772 243.896 245.492 243.029 245.999C242.162 246.49 241.221 246.735 240.207 246.735ZM240.207 244.429C241.091 244.429 241.786 244.061 242.293 243.324C242.8 242.588 243.053 241.623 243.053 240.429C243.053 239.219 242.8 238.246 242.293 237.51C241.786 236.774 241.091 236.405 240.207 236.405C239.324 236.405 238.629 236.774 238.122 237.51C237.631 238.246 237.386 239.219 237.386 240.429C237.386 241.623 237.631 242.588 238.122 243.324C238.629 244.061 239.324 244.429 240.207 244.429ZM248.741 246.44V234.394H251.072L251.269 236.528H251.367C251.792 235.743 252.307 235.146 252.912 234.737C253.518 234.312 254.139 234.099 254.777 234.099C255.35 234.099 255.808 234.181 256.151 234.345L255.66 236.798C255.448 236.733 255.251 236.684 255.072 236.651C254.892 236.618 254.671 236.602 254.409 236.602C253.935 236.602 253.436 236.79 252.912 237.166C252.389 237.526 251.939 238.164 251.563 239.08V246.44H248.741ZM262.807 246.735C261.695 246.735 260.689 246.49 259.789 245.999C258.89 245.492 258.178 244.772 257.655 243.84C257.131 242.891 256.87 241.754 256.87 240.429C256.87 239.121 257.131 237.992 257.655 237.043C258.194 236.095 258.89 235.367 259.74 234.86C260.591 234.353 261.482 234.099 262.414 234.099C263.51 234.099 264.426 234.345 265.162 234.835C265.898 235.31 266.455 235.98 266.831 236.847C267.207 237.698 267.395 238.687 267.395 239.816C267.395 240.405 267.354 240.863 267.272 241.19H259.617C259.748 242.253 260.133 243.079 260.771 243.668C261.409 244.257 262.21 244.551 263.175 244.551C263.698 244.551 264.181 244.478 264.623 244.33C265.081 244.167 265.53 243.946 265.972 243.668L266.929 245.434C266.356 245.811 265.719 246.121 265.015 246.367C264.312 246.612 263.576 246.735 262.807 246.735ZM259.593 239.276H264.942C264.942 238.344 264.737 237.616 264.328 237.092C263.919 236.553 263.306 236.283 262.488 236.283C261.785 236.283 261.155 236.545 260.599 237.068C260.059 237.575 259.724 238.311 259.593 239.276ZM92.0485 280.397C91.7213 280.397 91.4351 280.372 91.1897 280.323C90.9444 280.274 90.7072 280.217 90.4782 280.151L90.9935 277.943C91.108 277.976 91.2388 278.008 91.386 278.041C91.5496 278.09 91.705 278.115 91.8522 278.115C92.4901 278.115 92.9972 277.918 93.3734 277.526C93.7659 277.15 94.0604 276.659 94.2567 276.054L94.4775 275.293L89.7422 263.394H92.6128L94.6983 269.307C94.8782 269.83 95.05 270.386 95.2135 270.975C95.3935 271.547 95.5734 272.12 95.7533 272.692H95.8514C95.9987 272.136 96.1459 271.572 96.2931 271C96.4567 270.411 96.612 269.846 96.7593 269.307L98.5749 263.394H101.298L96.931 275.98C96.4239 277.338 95.8106 278.409 95.0909 279.194C94.3712 279.996 93.357 280.397 92.0485 280.397ZM108.174 275.735C107.177 275.735 106.244 275.49 105.377 274.999C104.511 274.492 103.807 273.772 103.267 272.84C102.728 271.891 102.458 270.754 102.458 269.429C102.458 268.088 102.728 266.951 103.267 266.019C103.807 265.07 104.511 264.35 105.377 263.86C106.244 263.353 107.177 263.099 108.174 263.099C109.189 263.099 110.129 263.353 110.996 263.86C111.863 264.35 112.566 265.07 113.106 266.019C113.646 266.951 113.916 268.088 113.916 269.429C113.916 270.754 113.646 271.891 113.106 272.84C112.566 273.772 111.863 274.492 110.996 274.999C110.129 275.49 109.189 275.735 108.174 275.735ZM108.174 273.429C109.058 273.429 109.753 273.061 110.26 272.324C110.767 271.588 111.021 270.623 111.021 269.429C111.021 268.219 110.767 267.246 110.26 266.51C109.753 265.774 109.058 265.405 108.174 265.405C107.291 265.405 106.596 265.774 106.089 266.51C105.598 267.246 105.353 268.219 105.353 269.429C105.353 270.623 105.598 271.588 106.089 272.324C106.596 273.061 107.291 273.429 108.174 273.429ZM120.291 275.735C118.999 275.735 118.058 275.318 117.469 274.484C116.88 273.649 116.586 272.472 116.586 270.95V263.394H119.407V270.582C119.407 271.58 119.555 272.284 119.849 272.692C120.143 273.101 120.618 273.306 121.272 273.306C121.796 273.306 122.254 273.175 122.646 272.913C123.055 272.652 123.488 272.226 123.946 271.637V263.394H126.768V275.44H124.462L124.241 273.674H124.167C123.644 274.295 123.071 274.794 122.45 275.171C121.828 275.547 121.109 275.735 120.291 275.735ZM130.342 275.44V263.394H132.673L132.869 265.528H132.967C133.392 264.743 133.908 264.146 134.513 263.737C135.118 263.312 135.74 263.099 136.378 263.099C136.95 263.099 137.408 263.181 137.752 263.345L137.261 265.798C137.048 265.733 136.852 265.684 136.672 265.651C136.492 265.618 136.271 265.602 136.01 265.602C135.535 265.602 135.036 265.79 134.513 266.166C133.989 266.526 133.54 267.164 133.163 268.08V275.44H130.342ZM144.652 275.44V259.394H147.866L150.712 267.246C150.892 267.753 151.064 268.276 151.227 268.816C151.407 269.339 151.579 269.863 151.743 270.386H151.841C152.021 269.863 152.192 269.339 152.356 268.816C152.52 268.276 152.683 267.753 152.847 267.246L155.619 259.394H158.858V275.44H156.233V268.104C156.233 267.597 156.249 267.049 156.282 266.461C156.331 265.855 156.38 265.25 156.429 264.645C156.494 264.04 156.552 263.492 156.601 263.001H156.502L155.202 266.73L152.577 273.944H150.884L148.234 266.73L146.958 263.001H146.86C146.909 263.492 146.958 264.04 147.007 264.645C147.073 265.25 147.122 265.855 147.155 266.461C147.204 267.049 147.228 267.597 147.228 268.104V275.44H144.652ZM162.934 275.44V259.394H165.78V273.036H172.453V275.44H162.934ZM184.136 275.735C182.631 275.735 181.429 275.179 180.529 274.066C179.629 272.954 179.18 271.408 179.18 269.429C179.18 268.121 179.417 266.992 179.891 266.043C180.382 265.095 181.02 264.367 181.805 263.86C182.59 263.353 183.416 263.099 184.283 263.099C184.97 263.099 185.551 263.222 186.025 263.467C186.516 263.696 186.99 264.015 187.448 264.424L187.35 262.486V258.119H190.171V275.44H187.841L187.644 274.14H187.546C187.104 274.582 186.589 274.958 186 275.269C185.412 275.579 184.79 275.735 184.136 275.735ZM184.823 273.404C185.722 273.404 186.565 272.954 187.35 272.055V266.436C186.941 266.06 186.532 265.798 186.123 265.651C185.714 265.504 185.305 265.43 184.896 265.43C184.128 265.43 183.465 265.782 182.909 266.485C182.369 267.172 182.099 268.145 182.099 269.405C182.099 270.697 182.336 271.687 182.811 272.374C183.285 273.061 183.956 273.404 184.823 273.404ZM196.684 275.735C195.638 275.735 194.779 275.408 194.108 274.753C193.454 274.099 193.127 273.249 193.127 272.202C193.127 270.91 193.691 269.912 194.82 269.208C195.948 268.489 197.748 267.998 200.217 267.736C200.201 267.098 200.029 266.55 199.702 266.092C199.391 265.618 198.827 265.381 198.009 265.381C197.42 265.381 196.84 265.495 196.267 265.724C195.711 265.953 195.163 266.232 194.623 266.559L193.593 264.669C194.264 264.244 195.016 263.876 195.85 263.565C196.701 263.255 197.6 263.099 198.549 263.099C200.054 263.099 201.174 263.549 201.91 264.449C202.663 265.332 203.039 266.616 203.039 268.301V275.44H200.708L200.512 274.116H200.414C199.874 274.574 199.293 274.958 198.672 275.269C198.067 275.579 197.404 275.735 196.684 275.735ZM197.592 273.527C198.083 273.527 198.525 273.412 198.917 273.183C199.326 272.938 199.759 272.611 200.217 272.202V269.503C198.582 269.716 197.445 270.034 196.807 270.46C196.169 270.869 195.85 271.376 195.85 271.981C195.85 272.521 196.014 272.913 196.341 273.159C196.668 273.404 197.085 273.527 197.592 273.527ZM210.277 275.735C208.887 275.735 207.897 275.334 207.308 274.533C206.736 273.715 206.449 272.66 206.449 271.368V265.626H204.732V263.516L206.597 263.394L206.94 260.106H209.296V263.394H212.362V265.626H209.296V271.368C209.296 272.774 209.86 273.478 210.988 273.478C211.201 273.478 211.422 273.453 211.651 273.404C211.88 273.339 212.076 273.273 212.24 273.208L212.73 275.293C212.403 275.408 212.027 275.506 211.602 275.588C211.193 275.686 210.751 275.735 210.277 275.735ZM217.29 275.735C216.243 275.735 215.385 275.408 214.714 274.753C214.06 274.099 213.733 273.249 213.733 272.202C213.733 270.91 214.297 269.912 215.425 269.208C216.554 268.489 218.353 267.998 220.823 267.736C220.807 267.098 220.635 266.55 220.308 266.092C219.997 265.618 219.433 265.381 218.615 265.381C218.026 265.381 217.446 265.495 216.873 265.724C216.317 265.953 215.769 266.232 215.229 266.559L214.199 264.669C214.869 264.244 215.622 263.876 216.456 263.565C217.307 263.255 218.206 263.099 219.155 263.099C220.66 263.099 221.78 263.549 222.516 264.449C223.269 265.332 223.645 266.616 223.645 268.301V275.44H221.314L221.118 274.116H221.02C220.48 274.574 219.899 274.958 219.278 275.269C218.672 275.579 218.01 275.735 217.29 275.735ZM218.198 273.527C218.689 273.527 219.13 273.412 219.523 273.183C219.932 272.938 220.365 272.611 220.823 272.202V269.503C219.188 269.716 218.051 270.034 217.413 270.46C216.775 270.869 216.456 271.376 216.456 271.981C216.456 272.521 216.62 272.913 216.947 273.159C217.274 273.404 217.691 273.527 218.198 273.527Z" fill="#AEB3BD"/>
<defs>
<linearGradient id="paint0_linear_444_655" x1="156.857" y1="74.1707" x2="156.857" y2="115.73" gradientUnits="userSpaceOnUse">
<stop offset="0.385417" stop-color="#FFCC33"/>
<stop offset="0.71875" stop-color="#FFAD33"/>
</linearGradient>
<linearGradient id="paint1_linear_444_655" x1="156.857" y1="74.1707" x2="156.857" y2="115.73" gradientUnits="userSpaceOnUse">
<stop offset="0.385417" stop-color="#FFCC33"/>
<stop offset="0.71875" stop-color="#FFAD33"/>
</linearGradient>
<linearGradient id="paint2_linear_444_655" x1="156.857" y1="74.1707" x2="156.857" y2="115.73" gradientUnits="userSpaceOnUse">
<stop offset="0.385417" stop-color="#FFCC33"/>
<stop offset="0.71875" stop-color="#FFAD33"/>
</linearGradient>
<linearGradient id="paint3_linear_444_655" x1="156.857" y1="74.1707" x2="156.857" y2="115.73" gradientUnits="userSpaceOnUse">
<stop offset="0.385417" stop-color="#FFCC33"/>
<stop offset="0.71875" stop-color="#FFAD33"/>
</linearGradient>
<linearGradient id="paint4_linear_444_655" x1="156.857" y1="74.1707" x2="156.857" y2="115.73" gradientUnits="userSpaceOnUse">
<stop offset="0.385417" stop-color="#FFCC33"/>
<stop offset="0.71875" stop-color="#FFAD33"/>
</linearGradient>
<linearGradient id="paint5_linear_444_655" x1="156.857" y1="74.1707" x2="156.857" y2="115.73" gradientUnits="userSpaceOnUse">
<stop offset="0.385417" stop-color="#FFCC33"/>
<stop offset="0.71875" stop-color="#FFAD33"/>
</linearGradient>
</defs>
</svg>
