<svg width="314" height="320" viewBox="0 0 314 320" fill="none" xmlns="http://www.w3.org/2000/svg">
<path d="M0.965332 19.205C0.965332 9.04218 9.20395 0.803589 19.3668 0.803589H295.389C305.552 0.803589 313.79 9.0422 313.79 19.2051V301.361C313.79 311.524 305.552 319.762 295.389 319.762H19.3668C9.20393 319.762 0.965332 311.524 0.965332 301.361V19.205Z" fill="#FAFAFA"/>
<rect x="102.28" y="37.6066" width="110.195" height="110.195" rx="55.0975" fill="#15151F" fill-opacity="0.04"/>
<path fill-rule="evenodd" clip-rule="evenodd" d="M139.517 71.2772C136.528 71.2772 134.104 73.7005 134.104 76.6897V102.67C134.104 105.659 136.528 108.082 139.517 108.082H171.281C172.429 108.082 173.53 108.538 174.343 109.35L178.804 113.812C179.486 114.494 180.652 114.011 180.652 113.046V76.6897C180.652 73.7005 178.229 71.2772 175.239 71.2772H139.517ZM151.424 89.1384C151.424 90.633 150.213 91.8446 148.718 91.8446C147.224 91.8446 146.012 90.633 146.012 89.1384C146.012 87.6438 147.224 86.4321 148.718 86.4321C150.213 86.4321 151.424 87.6438 151.424 89.1384ZM160.084 89.1384C160.084 90.633 158.873 91.8446 157.378 91.8446C155.884 91.8446 154.672 90.633 154.672 89.1384C154.672 87.6438 155.884 86.4321 157.378 86.4321C158.873 86.4321 160.084 87.6438 160.084 89.1384ZM168.744 89.1384C168.744 90.633 167.533 91.8446 166.038 91.8446C164.543 91.8446 163.332 90.633 163.332 89.1384C163.332 87.6438 164.543 86.4321 166.038 86.4321C167.533 86.4321 168.744 87.6438 168.744 89.1384Z" fill="url(#paint0_linear_444_620)"/>
<path d="M116.619 202.203V180.673H109.332V178.06H127.034V180.673H119.71V202.203H116.619ZM129.361 202.203V184.317H131.864L132.121 187.555H132.232C133.483 185.31 135.323 183.875 137.31 183.875C138.12 183.875 138.672 183.985 139.224 184.243L138.562 186.856C138.046 186.709 137.642 186.635 136.942 186.635C135.433 186.635 133.63 187.703 132.416 190.72V202.203H129.361ZM145.379 202.645C142.398 202.645 140.153 200.804 140.153 197.566C140.153 193.591 143.465 191.677 151.12 190.831C151.084 188.586 150.348 186.414 147.44 186.414C145.379 186.414 143.502 187.334 142.104 188.255L140.926 186.194C142.582 185.09 145.085 183.875 147.955 183.875C152.298 183.875 154.175 186.782 154.175 191.199V202.203H151.672L151.378 200.068H151.268C149.575 201.504 147.624 202.645 145.379 202.645ZM146.226 200.142C147.955 200.142 149.391 199.369 151.12 197.86V193.002C145.085 193.701 143.134 195.063 143.134 197.382C143.134 199.369 144.496 200.142 146.226 200.142ZM166.869 202.645C162.121 202.645 158.478 199.222 158.478 193.297C158.478 187.298 162.489 183.875 167.089 183.875C169.445 183.875 171.064 184.795 172.315 185.973L170.807 187.887C169.813 186.966 168.672 186.414 167.237 186.414C163.998 186.414 161.643 189.175 161.643 193.297C161.643 197.382 163.851 200.105 167.126 200.105C168.782 200.105 170.254 199.369 171.322 198.412L172.647 200.363C171.027 201.835 169.003 202.645 166.869 202.645ZM183.009 202.645C178.225 202.645 174.471 199.185 174.471 193.26C174.471 187.445 178.409 183.875 182.494 183.875C187.058 183.875 189.671 187.114 189.671 192.266C189.671 192.929 189.634 193.481 189.523 194.069H177.489C177.746 197.75 179.991 200.179 183.377 200.179C185.107 200.179 186.616 199.7 187.867 198.854L188.935 200.804C187.389 201.908 185.475 202.645 183.009 202.645ZM177.489 191.714H186.947C186.947 188.181 185.291 186.304 182.568 186.304C180.065 186.304 177.857 188.291 177.489 191.714ZM198.728 202.645C196.115 202.645 193.722 201.688 192.066 200.068L193.465 198.302C195.011 199.59 196.63 200.252 198.838 200.252C201.193 200.252 202.334 199.038 202.334 197.492C202.334 195.652 200.347 194.879 198.323 194.143C195.636 193.186 193.06 191.898 193.06 188.954C193.06 186.083 195.342 183.875 199.243 183.875C201.488 183.875 203.402 184.721 204.8 185.899L203.402 187.666C202.15 186.746 200.862 186.23 199.28 186.23C196.998 186.23 196.004 187.482 196.004 188.807C196.004 190.426 197.55 191.088 199.795 191.861C202.592 192.855 205.279 194.069 205.279 197.308C205.279 200.216 202.96 202.645 198.728 202.645Z" fill="#676D78"/>
<path d="M57.1877 246.608V230.562H60.4018L63.2479 238.413C63.4279 238.92 63.5996 239.444 63.7632 239.984C63.9431 240.507 64.1148 241.03 64.2784 241.554H64.3766C64.5565 241.03 64.7282 240.507 64.8918 239.984C65.0554 239.444 65.2189 238.92 65.3825 238.413L68.155 230.562H71.3936V246.608H68.7684V239.272C68.7684 238.765 68.7847 238.217 68.8174 237.628C68.8665 237.023 68.9156 236.418 68.9647 235.813C69.0301 235.207 69.0873 234.659 69.1364 234.169H69.0383L67.7379 237.898L65.1126 245.111H63.4197L60.7699 237.898L59.494 234.169H59.3959C59.445 234.659 59.494 235.207 59.5431 235.813C59.6085 236.418 59.6576 237.023 59.6903 237.628C59.7394 238.217 59.7639 238.765 59.7639 239.272V246.608H57.1877ZM80.1556 246.902C79.1579 246.902 78.2255 246.657 77.3586 246.166C76.4917 245.659 75.7883 244.94 75.2486 244.007C74.7088 243.059 74.4389 241.922 74.4389 240.597C74.4389 239.256 74.7088 238.119 75.2486 237.186C75.7883 236.238 76.4917 235.518 77.3586 235.027C78.2255 234.52 79.1579 234.267 80.1556 234.267C81.1697 234.267 82.1103 234.52 82.9772 235.027C83.8441 235.518 84.5474 236.238 85.0872 237.186C85.627 238.119 85.8969 239.256 85.8969 240.597C85.8969 241.922 85.627 243.059 85.0872 244.007C84.5474 244.94 83.8441 245.659 82.9772 246.166C82.1103 246.657 81.1697 246.902 80.1556 246.902ZM80.1556 244.596C81.0389 244.596 81.7341 244.228 82.2411 243.492C82.7482 242.756 83.0017 241.791 83.0017 240.597C83.0017 239.386 82.7482 238.413 82.2411 237.677C81.7341 236.941 81.0389 236.573 80.1556 236.573C79.2724 236.573 78.5772 236.941 78.0701 237.677C77.5794 238.413 77.3341 239.386 77.3341 240.597C77.3341 241.791 77.5794 242.756 78.0701 243.492C78.5772 244.228 79.2724 244.596 80.1556 244.596ZM88.6897 246.608V234.561H91.0205L91.2168 236.181H91.315C91.8547 235.657 92.4436 235.207 93.0815 234.831C93.7194 234.455 94.4473 234.267 95.2651 234.267C96.5573 234.267 97.4978 234.684 98.0867 235.518C98.6755 236.352 98.97 237.53 98.97 239.051V246.608H96.1484V239.419C96.1484 238.421 96.0012 237.718 95.7068 237.309C95.4123 236.9 94.9298 236.696 94.2592 236.696C93.7358 236.696 93.2696 236.827 92.8607 237.088C92.4681 237.334 92.0183 237.702 91.5112 238.192V246.608H88.6897ZM102.419 246.608V234.561H105.24V246.608H102.419ZM103.842 232.451C103.335 232.451 102.926 232.304 102.615 232.01C102.304 231.715 102.149 231.323 102.149 230.832C102.149 230.357 102.304 229.973 102.615 229.679C102.926 229.384 103.335 229.237 103.842 229.237C104.349 229.237 104.758 229.384 105.069 229.679C105.379 229.973 105.535 230.357 105.535 230.832C105.535 231.323 105.379 231.715 105.069 232.01C104.758 232.304 104.349 232.451 103.842 232.451ZM113.085 246.902C111.695 246.902 110.705 246.502 110.116 245.7C109.544 244.882 109.257 243.827 109.257 242.535V236.794H107.54V234.684L109.405 234.561L109.748 231.273H112.103V234.561H115.17V236.794H112.103V242.535C112.103 243.942 112.668 244.645 113.796 244.645C114.009 244.645 114.23 244.621 114.459 244.572C114.688 244.506 114.884 244.441 115.048 244.375L115.538 246.461C115.211 246.575 114.835 246.673 114.41 246.755C114.001 246.853 113.559 246.902 113.085 246.902ZM122.254 246.902C121.256 246.902 120.324 246.657 119.457 246.166C118.59 245.659 117.886 244.94 117.347 244.007C116.807 243.059 116.537 241.922 116.537 240.597C116.537 239.256 116.807 238.119 117.347 237.186C117.886 236.238 118.59 235.518 119.457 235.027C120.324 234.52 121.256 234.267 122.254 234.267C123.268 234.267 124.208 234.52 125.075 235.027C125.942 235.518 126.646 236.238 127.185 237.186C127.725 238.119 127.995 239.256 127.995 240.597C127.995 241.922 127.725 243.059 127.185 244.007C126.646 244.94 125.942 245.659 125.075 246.166C124.208 246.657 123.268 246.902 122.254 246.902ZM122.254 244.596C123.137 244.596 123.832 244.228 124.339 243.492C124.846 242.756 125.1 241.791 125.1 240.597C125.1 239.386 124.846 238.413 124.339 237.677C123.832 236.941 123.137 236.573 122.254 236.573C121.37 236.573 120.675 236.941 120.168 237.677C119.678 238.413 119.432 239.386 119.432 240.597C119.432 241.791 119.678 242.756 120.168 243.492C120.675 244.228 121.37 244.596 122.254 244.596ZM130.788 246.608V234.561H133.119L133.315 236.696H133.413C133.838 235.911 134.354 235.314 134.959 234.905C135.564 234.479 136.186 234.267 136.823 234.267C137.396 234.267 137.854 234.349 138.197 234.512L137.707 236.966C137.494 236.9 137.298 236.851 137.118 236.818C136.938 236.786 136.717 236.769 136.455 236.769C135.981 236.769 135.482 236.957 134.959 237.334C134.435 237.694 133.986 238.331 133.609 239.247V246.608H130.788ZM147.772 246.902C146.725 246.902 145.867 246.575 145.196 245.921C144.542 245.267 144.215 244.416 144.215 243.369C144.215 242.077 144.779 241.079 145.907 240.376C147.036 239.656 148.835 239.166 151.305 238.904C151.289 238.266 151.117 237.718 150.79 237.26C150.479 236.786 149.915 236.549 149.097 236.549C148.508 236.549 147.928 236.663 147.355 236.892C146.799 237.121 146.251 237.399 145.711 237.726L144.681 235.837C145.351 235.412 146.104 235.044 146.938 234.733C147.789 234.422 148.688 234.267 149.637 234.267C151.142 234.267 152.262 234.717 152.998 235.616C153.751 236.499 154.127 237.784 154.127 239.468V246.608H151.796L151.6 245.283H151.502C150.962 245.741 150.381 246.126 149.76 246.436C149.154 246.747 148.492 246.902 147.772 246.902ZM148.68 244.694C149.171 244.694 149.612 244.58 150.005 244.351C150.414 244.105 150.847 243.778 151.305 243.369V240.67C149.67 240.883 148.533 241.202 147.895 241.627C147.257 242.036 146.938 242.543 146.938 243.149C146.938 243.688 147.102 244.081 147.429 244.326C147.756 244.572 148.173 244.694 148.68 244.694ZM157.503 246.608V234.561H159.834L160.031 236.181H160.129C160.669 235.657 161.257 235.207 161.895 234.831C162.533 234.455 163.261 234.267 164.079 234.267C165.371 234.267 166.312 234.684 166.9 235.518C167.489 236.352 167.784 237.53 167.784 239.051V246.608H164.962V239.419C164.962 238.421 164.815 237.718 164.521 237.309C164.226 236.9 163.744 236.696 163.073 236.696C162.55 236.696 162.083 236.827 161.674 237.088C161.282 237.334 160.832 237.702 160.325 238.192V246.608H157.503ZM175.453 246.902C173.948 246.902 172.746 246.346 171.846 245.234C170.946 244.122 170.497 242.576 170.497 240.597C170.497 239.288 170.734 238.16 171.208 237.211C171.699 236.262 172.337 235.534 173.122 235.027C173.907 234.52 174.733 234.267 175.6 234.267C176.287 234.267 176.868 234.389 177.342 234.635C177.833 234.864 178.307 235.183 178.765 235.592L178.667 233.653V229.286H181.488V246.608H179.158L178.961 245.308H178.863C178.422 245.749 177.906 246.126 177.317 246.436C176.729 246.747 176.107 246.902 175.453 246.902ZM176.14 244.572C177.039 244.572 177.882 244.122 178.667 243.222V237.604C178.258 237.227 177.849 236.966 177.44 236.818C177.031 236.671 176.622 236.598 176.213 236.598C175.445 236.598 174.782 236.949 174.226 237.653C173.686 238.34 173.416 239.313 173.416 240.572C173.416 241.865 173.654 242.854 174.128 243.541C174.602 244.228 175.273 244.572 176.14 244.572ZM194.214 246.902C192.709 246.902 191.507 246.346 190.607 245.234C189.707 244.122 189.258 242.576 189.258 240.597C189.258 239.288 189.495 238.16 189.969 237.211C190.46 236.262 191.098 235.534 191.883 235.027C192.668 234.52 193.494 234.267 194.361 234.267C195.048 234.267 195.628 234.389 196.103 234.635C196.594 234.864 197.068 235.183 197.526 235.592L197.428 233.653V229.286H200.249V246.608H197.918L197.722 245.308H197.624C197.182 245.749 196.667 246.126 196.078 246.436C195.489 246.747 194.868 246.902 194.214 246.902ZM194.901 244.572C195.8 244.572 196.643 244.122 197.428 243.222V237.604C197.019 237.227 196.61 236.966 196.201 236.818C195.792 236.671 195.383 236.598 194.974 236.598C194.205 236.598 193.543 236.949 192.987 237.653C192.447 238.34 192.177 239.313 192.177 240.572C192.177 241.865 192.414 242.854 192.889 243.541C193.363 244.228 194.034 244.572 194.901 244.572ZM208.995 246.902C207.883 246.902 206.877 246.657 205.977 246.166C205.078 245.659 204.366 244.94 203.843 244.007C203.319 243.059 203.057 241.922 203.057 240.597C203.057 239.288 203.319 238.16 203.843 237.211C204.382 236.262 205.078 235.534 205.928 235.027C206.779 234.52 207.67 234.267 208.602 234.267C209.698 234.267 210.614 234.512 211.35 235.003C212.086 235.477 212.643 236.148 213.019 237.015C213.395 237.865 213.583 238.855 213.583 239.984C213.583 240.572 213.542 241.03 213.46 241.357H205.805C205.936 242.421 206.321 243.247 206.959 243.836C207.596 244.424 208.398 244.719 209.363 244.719C209.886 244.719 210.369 244.645 210.811 244.498C211.269 244.334 211.718 244.114 212.16 243.836L213.117 245.602C212.544 245.978 211.907 246.289 211.203 246.534C210.5 246.78 209.764 246.902 208.995 246.902ZM205.781 239.444H211.13C211.13 238.511 210.925 237.784 210.516 237.26C210.107 236.72 209.494 236.45 208.676 236.45C207.973 236.45 207.343 236.712 206.787 237.236C206.247 237.743 205.912 238.479 205.781 239.444ZM222.117 246.902C220.972 246.902 219.876 246.379 218.83 245.332H218.756L218.511 246.608H216.278V229.286H219.099V233.752L219.026 235.763C219.533 235.322 220.089 234.962 220.694 234.684C221.299 234.406 221.905 234.267 222.51 234.267C224.015 234.267 225.184 234.823 226.018 235.935C226.853 237.047 227.27 238.528 227.27 240.376C227.27 241.75 227.024 242.928 226.534 243.909C226.043 244.874 225.405 245.618 224.62 246.142C223.851 246.649 223.017 246.902 222.117 246.902ZM221.528 244.572C222.33 244.572 223.001 244.22 223.54 243.517C224.08 242.813 224.35 241.783 224.35 240.425C224.35 239.215 224.146 238.274 223.737 237.604C223.328 236.933 222.665 236.598 221.749 236.598C220.899 236.598 220.015 237.047 219.099 237.947V243.566C219.525 243.926 219.942 244.187 220.351 244.351C220.776 244.498 221.169 244.572 221.528 244.572ZM233.685 246.902C232.393 246.902 231.452 246.485 230.864 245.651C230.275 244.817 229.98 243.639 229.98 242.118V234.561H232.802V241.75C232.802 242.748 232.949 243.451 233.244 243.86C233.538 244.269 234.012 244.473 234.667 244.473C235.19 244.473 235.648 244.343 236.041 244.081C236.449 243.819 236.883 243.394 237.341 242.805V234.561H240.162V246.608H237.856L237.635 244.841H237.562C237.038 245.463 236.466 245.962 235.844 246.338C235.223 246.714 234.503 246.902 233.685 246.902ZM247.932 251.932C246.983 251.932 246.124 251.818 245.356 251.589C244.603 251.36 244.006 251.008 243.565 250.534C243.139 250.076 242.927 249.495 242.927 248.792C242.927 247.794 243.499 246.935 244.644 246.215V246.117C244.333 245.921 244.072 245.659 243.859 245.332C243.663 245.005 243.565 244.596 243.565 244.105C243.565 243.631 243.695 243.206 243.957 242.83C244.235 242.437 244.546 242.118 244.89 241.873V241.775C244.481 241.464 244.113 241.03 243.785 240.474C243.475 239.918 243.319 239.288 243.319 238.585C243.319 237.653 243.54 236.868 243.982 236.23C244.423 235.592 245.004 235.109 245.724 234.782C246.46 234.439 247.245 234.267 248.079 234.267C248.406 234.267 248.717 234.299 249.011 234.365C249.322 234.414 249.6 234.479 249.846 234.561H254.164V236.647H251.956C252.152 236.876 252.316 237.17 252.446 237.53C252.577 237.873 252.643 238.258 252.643 238.683C252.643 239.566 252.438 240.319 252.029 240.94C251.62 241.546 251.072 242.004 250.385 242.314C249.698 242.625 248.93 242.781 248.079 242.781C247.817 242.781 247.548 242.756 247.269 242.707C246.991 242.658 246.713 242.576 246.435 242.462C246.255 242.625 246.108 242.789 245.994 242.952C245.895 243.116 245.846 243.337 245.846 243.615C245.846 243.958 245.985 244.228 246.264 244.424C246.558 244.621 247.073 244.719 247.809 244.719H249.944C251.4 244.719 252.495 244.956 253.232 245.43C253.984 245.888 254.36 246.641 254.36 247.688C254.36 248.473 254.098 249.184 253.575 249.822C253.052 250.476 252.307 250.992 251.342 251.368C250.377 251.744 249.24 251.932 247.932 251.932ZM248.079 241.014C248.652 241.014 249.142 240.801 249.551 240.376C249.96 239.951 250.165 239.354 250.165 238.585C250.165 237.833 249.96 237.252 249.551 236.843C249.159 236.418 248.668 236.205 248.079 236.205C247.49 236.205 246.991 236.41 246.582 236.818C246.174 237.227 245.969 237.816 245.969 238.585C245.969 239.354 246.174 239.951 246.582 240.376C246.991 240.801 247.49 241.014 248.079 241.014ZM248.374 250.092C249.339 250.092 250.124 249.896 250.729 249.503C251.334 249.111 251.637 248.661 251.637 248.154C251.637 247.679 251.449 247.36 251.072 247.197C250.713 247.033 250.189 246.952 249.502 246.952H247.858C247.204 246.952 246.656 246.894 246.214 246.78C245.593 247.254 245.282 247.786 245.282 248.375C245.282 248.914 245.56 249.331 246.116 249.626C246.672 249.937 247.425 250.092 248.374 250.092ZM62.9502 275.608V259.562H65.7962V273.204H72.4698V275.608H62.9502ZM75.2657 275.608V259.562H78.1118V273.204H84.7854V275.608H75.2657ZM87.5813 275.608V259.562H90.7954L93.6415 267.413C93.8214 267.92 93.9932 268.444 94.1567 268.984C94.3367 269.507 94.5084 270.03 94.672 270.554H94.7701C94.95 270.03 95.1218 269.507 95.2854 268.984C95.4489 268.444 95.6125 267.92 95.7761 267.413L98.5485 259.562H101.787V275.608H99.1619V268.272C99.1619 267.765 99.1783 267.217 99.211 266.628C99.2601 266.023 99.3091 265.418 99.3582 264.813C99.4236 264.207 99.4809 263.659 99.53 263.169H99.4318L98.1314 266.898L95.5062 274.111H93.8132L91.1634 266.898L89.8876 263.169H89.7895C89.8385 263.659 89.8876 264.207 89.9367 264.813C90.0021 265.418 90.0512 266.023 90.0839 266.628C90.1329 267.217 90.1575 267.765 90.1575 268.272V275.608H87.5813ZM108.979 275.902C108.161 275.902 107.343 275.747 106.525 275.436C105.708 275.109 105.004 274.708 104.415 274.234L105.74 272.418C106.28 272.827 106.82 273.155 107.36 273.4C107.899 273.645 108.472 273.768 109.077 273.768C109.731 273.768 110.214 273.629 110.525 273.351C110.835 273.073 110.991 272.729 110.991 272.32C110.991 271.977 110.86 271.699 110.598 271.486C110.353 271.257 110.034 271.061 109.641 270.897C109.249 270.717 108.84 270.546 108.415 270.382C107.891 270.186 107.368 269.949 106.844 269.67C106.337 269.376 105.92 269.008 105.593 268.566C105.266 268.108 105.102 267.544 105.102 266.873C105.102 265.81 105.495 264.943 106.28 264.273C107.065 263.602 108.128 263.267 109.47 263.267C110.32 263.267 111.081 263.414 111.751 263.708C112.422 264.003 113.003 264.338 113.493 264.714L112.193 266.432C111.768 266.121 111.334 265.876 110.893 265.696C110.467 265.499 110.018 265.401 109.543 265.401C108.938 265.401 108.488 265.532 108.194 265.794C107.899 266.039 107.752 266.35 107.752 266.726C107.752 267.201 107.998 267.56 108.488 267.806C108.979 268.051 109.551 268.288 110.206 268.517C110.762 268.714 111.302 268.959 111.825 269.253C112.348 269.531 112.782 269.899 113.125 270.357C113.485 270.815 113.665 271.421 113.665 272.173C113.665 273.204 113.264 274.087 112.463 274.823C111.661 275.543 110.5 275.902 108.979 275.902ZM124.016 275.902C122.969 275.902 122.11 275.575 121.439 274.921C120.785 274.267 120.458 273.416 120.458 272.369C120.458 271.077 121.022 270.079 122.151 269.376C123.28 268.656 125.079 268.166 127.549 267.904C127.532 267.266 127.361 266.718 127.033 266.26C126.723 265.786 126.158 265.549 125.341 265.549C124.752 265.549 124.171 265.663 123.598 265.892C123.042 266.121 122.494 266.399 121.955 266.726L120.924 264.837C121.595 264.412 122.347 264.044 123.181 263.733C124.032 263.422 124.932 263.267 125.88 263.267C127.385 263.267 128.506 263.717 129.242 264.616C129.994 265.499 130.37 266.784 130.37 268.468V275.608H128.039L127.843 274.283H127.745C127.205 274.741 126.625 275.126 126.003 275.436C125.398 275.747 124.735 275.902 124.016 275.902ZM124.923 273.694C125.414 273.694 125.856 273.58 126.248 273.351C126.657 273.105 127.091 272.778 127.549 272.369V269.67C125.913 269.883 124.776 270.202 124.138 270.627C123.5 271.036 123.181 271.543 123.181 272.149C123.181 272.688 123.345 273.081 123.672 273.326C123.999 273.572 124.416 273.694 124.923 273.694ZM133.747 275.608V263.561H136.078L136.274 265.181H136.372C136.912 264.657 137.501 264.207 138.139 263.831C138.777 263.455 139.505 263.267 140.322 263.267C141.615 263.267 142.555 263.684 143.144 264.518C143.733 265.352 144.027 266.53 144.027 268.051V275.608H141.206V268.419C141.206 267.421 141.058 266.718 140.764 266.309C140.47 265.9 139.987 265.696 139.316 265.696C138.793 265.696 138.327 265.827 137.918 266.088C137.525 266.334 137.076 266.702 136.568 267.192V275.608H133.747ZM151.696 275.902C150.191 275.902 148.989 275.346 148.09 274.234C147.19 273.122 146.74 271.576 146.74 269.597C146.74 268.288 146.977 267.16 147.452 266.211C147.942 265.262 148.58 264.534 149.365 264.027C150.15 263.52 150.976 263.267 151.843 263.267C152.53 263.267 153.111 263.389 153.585 263.635C154.076 263.864 154.55 264.183 155.008 264.592L154.91 262.653V258.286H157.732V275.608H155.401L155.205 274.308H155.107C154.665 274.749 154.15 275.126 153.561 275.436C152.972 275.747 152.35 275.902 151.696 275.902ZM152.383 273.572C153.283 273.572 154.125 273.122 154.91 272.222V266.604C154.501 266.227 154.092 265.966 153.684 265.818C153.275 265.671 152.866 265.598 152.457 265.598C151.688 265.598 151.026 265.949 150.469 266.653C149.93 267.34 149.66 268.313 149.66 269.572C149.66 270.865 149.897 271.854 150.371 272.541C150.846 273.228 151.516 273.572 152.383 273.572ZM166.237 280.368V263.561H168.568L168.764 264.837H168.862C169.369 264.412 169.934 264.044 170.555 263.733C171.193 263.422 171.839 263.267 172.493 263.267C173.998 263.267 175.16 263.823 175.977 264.935C176.812 266.047 177.229 267.536 177.229 269.401C177.229 270.775 176.983 271.952 176.493 272.934C176.002 273.899 175.364 274.635 174.579 275.142C173.81 275.649 172.976 275.902 172.076 275.902C171.553 275.902 171.03 275.788 170.506 275.559C169.983 275.314 169.476 274.986 168.985 274.578L169.059 276.589V280.368H166.237ZM171.488 273.572C172.289 273.572 172.96 273.22 173.499 272.517C174.039 271.813 174.309 270.783 174.309 269.425C174.309 268.215 174.105 267.274 173.696 266.604C173.287 265.933 172.624 265.598 171.708 265.598C170.858 265.598 169.975 266.047 169.059 266.947V272.566C169.5 272.926 169.925 273.187 170.334 273.351C170.743 273.498 171.128 273.572 171.488 273.572ZM180.086 275.608V263.561H182.417L182.613 265.696H182.711C183.137 264.911 183.652 264.314 184.257 263.905C184.862 263.479 185.484 263.267 186.122 263.267C186.694 263.267 187.152 263.349 187.496 263.512L187.005 265.966C186.792 265.9 186.596 265.851 186.416 265.818C186.236 265.786 186.015 265.769 185.754 265.769C185.279 265.769 184.78 265.957 184.257 266.334C183.734 266.694 183.284 267.331 182.908 268.247V275.608H180.086ZM193.931 275.902C192.933 275.902 192.001 275.657 191.134 275.166C190.267 274.659 189.564 273.94 189.024 273.007C188.484 272.059 188.214 270.922 188.214 269.597C188.214 268.256 188.484 267.119 189.024 266.186C189.564 265.238 190.267 264.518 191.134 264.027C192.001 263.52 192.933 263.267 193.931 263.267C194.945 263.267 195.885 263.52 196.752 264.027C197.619 264.518 198.323 265.238 198.862 266.186C199.402 267.119 199.672 268.256 199.672 269.597C199.672 270.922 199.402 272.059 198.862 273.007C198.323 273.94 197.619 274.659 196.752 275.166C195.885 275.657 194.945 275.902 193.931 275.902ZM193.931 273.596C194.814 273.596 195.509 273.228 196.016 272.492C196.523 271.756 196.777 270.791 196.777 269.597C196.777 268.386 196.523 267.413 196.016 266.677C195.509 265.941 194.814 265.573 193.931 265.573C193.048 265.573 192.352 265.941 191.845 266.677C191.355 267.413 191.109 268.386 191.109 269.597C191.109 270.791 191.355 271.756 191.845 272.492C192.352 273.228 193.048 273.596 193.931 273.596ZM202.465 275.608V263.561H204.796L204.992 265.205H205.09C205.597 264.665 206.145 264.207 206.734 263.831C207.339 263.455 208.018 263.267 208.77 263.267C209.654 263.267 210.357 263.463 210.88 263.856C211.42 264.232 211.829 264.755 212.107 265.426C212.68 264.804 213.277 264.289 213.898 263.88C214.536 263.471 215.231 263.267 215.984 263.267C217.26 263.267 218.2 263.684 218.805 264.518C219.411 265.352 219.713 266.53 219.713 268.051V275.608H216.867V268.419C216.867 267.421 216.712 266.718 216.401 266.309C216.106 265.9 215.648 265.696 215.027 265.696C214.275 265.696 213.432 266.195 212.5 267.192V275.608H209.678V268.419C209.678 267.421 209.523 266.718 209.212 266.309C208.918 265.9 208.451 265.696 207.814 265.696C207.061 265.696 206.219 266.195 205.286 267.192V275.608H202.465ZM223.143 280.368V263.561H225.473L225.67 264.837H225.768C226.275 264.412 226.839 264.044 227.461 263.733C228.099 263.422 228.745 263.267 229.399 263.267C230.904 263.267 232.065 263.823 232.883 264.935C233.717 266.047 234.134 267.536 234.134 269.401C234.134 270.775 233.889 271.952 233.398 272.934C232.908 273.899 232.27 274.635 231.485 275.142C230.716 275.649 229.882 275.902 228.982 275.902C228.459 275.902 227.935 275.788 227.412 275.559C226.888 275.314 226.381 274.986 225.89 274.578L225.964 276.589V280.368H223.143ZM228.393 273.572C229.195 273.572 229.865 273.22 230.405 272.517C230.945 271.813 231.215 270.783 231.215 269.425C231.215 268.215 231.01 267.274 230.601 266.604C230.192 265.933 229.53 265.598 228.614 265.598C227.763 265.598 226.88 266.047 225.964 266.947V272.566C226.406 272.926 226.831 273.187 227.24 273.351C227.649 273.498 228.033 273.572 228.393 273.572ZM240.685 275.902C239.295 275.902 238.305 275.502 237.716 274.7C237.144 273.882 236.858 272.827 236.858 271.535V265.794H235.14V263.684L237.005 263.561L237.348 260.273H239.704V263.561H242.771V265.794H239.704V271.535C239.704 272.942 240.268 273.645 241.397 273.645C241.609 273.645 241.83 273.621 242.059 273.572C242.288 273.506 242.484 273.441 242.648 273.375L243.139 275.461C242.811 275.575 242.435 275.673 242.01 275.755C241.601 275.853 241.159 275.902 240.685 275.902ZM248.427 275.902C247.61 275.902 246.792 275.747 245.974 275.436C245.156 275.109 244.453 274.708 243.864 274.234L245.189 272.418C245.729 272.827 246.268 273.155 246.808 273.4C247.348 273.645 247.92 273.768 248.526 273.768C249.18 273.768 249.662 273.629 249.973 273.351C250.284 273.073 250.439 272.729 250.439 272.32C250.439 271.977 250.309 271.699 250.047 271.486C249.801 271.257 249.483 271.061 249.09 270.897C248.697 270.717 248.288 270.546 247.863 270.382C247.34 270.186 246.816 269.949 246.293 269.67C245.786 269.376 245.369 269.008 245.042 268.566C244.714 268.108 244.551 267.544 244.551 266.873C244.551 265.81 244.943 264.943 245.729 264.273C246.514 263.602 247.577 263.267 248.918 263.267C249.769 263.267 250.529 263.414 251.2 263.708C251.871 264.003 252.451 264.338 252.942 264.714L251.642 266.432C251.216 266.121 250.783 265.876 250.341 265.696C249.916 265.499 249.466 265.401 248.992 265.401C248.387 265.401 247.937 265.532 247.642 265.794C247.348 266.039 247.201 266.35 247.201 266.726C247.201 267.201 247.446 267.56 247.937 267.806C248.427 268.051 249 268.288 249.654 268.517C250.21 268.714 250.75 268.959 251.274 269.253C251.797 269.531 252.23 269.899 252.574 270.357C252.934 270.815 253.114 271.421 253.114 272.173C253.114 273.204 252.713 274.087 251.912 274.823C251.11 275.543 249.949 275.902 248.427 275.902Z" fill="#AEB3BD"/>
<defs>
<linearGradient id="paint0_linear_444_620" x1="156.903" y1="71.2772" x2="156.903" y2="119.763" gradientUnits="userSpaceOnUse">
<stop offset="0.385417" stop-color="#FFCC33"/>
<stop offset="0.71875" stop-color="#FFAD33"/>
</linearGradient>
</defs>
</svg>
