<svg width="314" height="320" viewBox="0 0 314 320" fill="none" xmlns="http://www.w3.org/2000/svg">
<path d="M19.0449 1.74549H295.067C304.806 1.74549 312.702 9.64083 312.702 19.3802V301.536C312.702 311.275 304.806 319.171 295.067 319.171H19.0449C9.30548 319.171 1.41016 311.275 1.41016 301.536V19.3802C1.41016 9.64081 9.3055 1.74549 19.0449 1.74549Z" fill="#20242B"/>
<path d="M19.0449 1.74549H295.067C304.806 1.74549 312.702 9.64083 312.702 19.3802V301.536C312.702 311.275 304.806 319.171 295.067 319.171H19.0449C9.30548 319.171 1.41016 311.275 1.41016 301.536V19.3802C1.41016 9.64081 9.3055 1.74549 19.0449 1.74549Z" stroke="#4B535C" stroke-width="1.53346"/>
<rect x="101.958" y="37.7817" width="110.195" height="110.195" rx="55.0975" fill="#EDE8FF" fill-opacity="0.12"/>
<path d="M134.238 80.8665C133.234 81.4462 133.234 82.8953 134.238 83.475L154.797 95.3448C156.195 96.1519 157.917 96.1519 159.315 95.3448L179.874 83.475C180.878 82.8953 180.878 81.4462 179.874 80.8665L159.315 68.9967C157.917 68.1896 156.195 68.1896 154.797 68.9967L134.238 80.8665Z" fill="url(#paint0_linear_444_780)"/>
<path d="M138.934 88.8635L154.797 98.0219C156.195 98.829 157.917 98.829 159.315 98.0219L175.178 88.8635L179.874 91.5749C180.878 92.1545 180.878 93.6037 179.874 94.1834L159.315 106.053C157.917 106.86 156.195 106.86 154.797 106.053L134.238 94.1834C133.234 93.6037 133.234 92.1545 134.238 91.5749L138.934 88.8635Z" fill="url(#paint1_linear_444_780)"/>
<path d="M154.797 108.73L138.934 99.5718L134.238 102.283C133.234 102.863 133.234 104.312 134.238 104.892L154.797 116.762C156.195 117.569 157.917 117.569 159.315 116.762L179.874 104.892C180.878 104.312 180.878 102.863 179.874 102.283L175.178 99.5718L159.315 108.73C157.917 109.537 156.195 109.537 154.797 108.73Z" fill="url(#paint2_linear_444_780)"/>
<path d="M101.111 188.908L99.97 192.552H107.183L106.042 188.908C105.159 186.222 104.386 183.572 103.613 180.775H103.466C102.73 183.572 101.957 186.222 101.111 188.908ZM93.7135 202.378L101.847 178.235H105.38L113.513 202.378H110.238L107.956 195.054H99.1603L96.8418 202.378H93.7135ZM116.64 202.378V184.492H119.142L119.4 187.731H119.51C120.762 185.486 122.602 184.05 124.589 184.05C125.399 184.05 125.951 184.161 126.503 184.418L125.84 187.031C125.325 186.884 124.92 186.811 124.221 186.811C122.712 186.811 120.909 187.878 119.694 190.896V202.378H116.64ZM135.065 202.82C131.238 202.82 129.95 200.391 129.95 196.821V186.958H127.3V184.676L130.097 184.492L130.465 178.751H133.004V184.492H137.862V186.958H133.004V196.895C133.004 199.066 133.74 200.317 135.765 200.317C136.427 200.317 137.089 200.207 137.826 199.876L138.451 202.047C137.494 202.489 136.28 202.82 135.065 202.82ZM141.906 202.378V184.492H144.96V202.378H141.906ZM143.452 180.812C142.274 180.812 141.427 180.039 141.427 178.824C141.427 177.647 142.274 176.837 143.452 176.837C144.629 176.837 145.476 177.647 145.476 178.824C145.476 180.039 144.629 180.812 143.452 180.812ZM151.514 202.378V186.958H149.085V184.676L151.514 184.492V181.695C151.514 178.051 153.17 175.733 156.74 175.733C157.844 175.733 158.985 175.99 159.721 176.322L159.059 178.567C158.359 178.346 157.697 178.199 157.071 178.199C155.378 178.199 154.569 179.413 154.569 181.695V184.492H158.322V186.958H154.569V202.378H151.514ZM165.148 202.82C162.167 202.82 159.922 200.98 159.922 197.741C159.922 193.766 163.234 191.853 170.889 191.006C170.852 188.761 170.116 186.59 167.209 186.59C165.148 186.59 163.271 187.51 161.873 188.43L160.695 186.369C162.351 185.265 164.854 184.05 167.724 184.05C172.067 184.05 173.944 186.958 173.944 191.374V202.378H171.441L171.147 200.244H171.036C169.344 201.679 167.393 202.82 165.148 202.82ZM165.994 200.317C167.724 200.317 169.16 199.544 170.889 198.035V193.177C164.854 193.877 162.903 195.238 162.903 197.557C162.903 199.544 164.265 200.317 165.994 200.317ZM186.637 202.82C181.89 202.82 178.246 199.397 178.246 193.472C178.246 187.473 182.258 184.05 186.858 184.05C189.214 184.05 190.833 184.97 192.084 186.148L190.575 188.062C189.582 187.142 188.441 186.59 187.005 186.59C183.767 186.59 181.411 189.35 181.411 193.472C181.411 197.557 183.62 200.28 186.895 200.28C188.551 200.28 190.023 199.544 191.091 198.587L192.415 200.538C190.796 202.01 188.772 202.82 186.637 202.82ZM201.627 202.82C197.799 202.82 196.511 200.391 196.511 196.821V186.958H193.861V184.676L196.658 184.492L197.027 178.751H199.566V184.492H204.424V186.958H199.566V196.895C199.566 199.066 200.302 200.317 202.326 200.317C202.989 200.317 203.651 200.207 204.387 199.876L205.013 202.047C204.056 202.489 202.841 202.82 201.627 202.82ZM212.782 202.82C210.169 202.82 207.777 201.863 206.121 200.244L207.519 198.477C209.065 199.765 210.684 200.428 212.892 200.428C215.248 200.428 216.389 199.213 216.389 197.667C216.389 195.827 214.401 195.054 212.377 194.318C209.69 193.361 207.114 192.073 207.114 189.129C207.114 186.258 209.396 184.05 213.297 184.05C215.542 184.05 217.456 184.897 218.854 186.074L217.456 187.841C216.205 186.921 214.916 186.406 213.334 186.406C211.052 186.406 210.058 187.657 210.058 188.982C210.058 190.601 211.604 191.264 213.849 192.037C216.646 193.03 219.333 194.245 219.333 197.483C219.333 200.391 217.014 202.82 212.782 202.82Z" fill="white"/>
<path d="M55.4955 246.783L50.4904 230.737H53.5082L55.7654 238.809C56.0271 239.709 56.2643 240.576 56.477 241.41C56.6896 242.244 56.9268 243.119 57.1885 244.035H57.2866C57.5647 243.119 57.8019 242.244 57.9981 241.41C58.2108 240.576 58.4398 239.709 58.6851 238.809L60.9178 230.737H63.8375L58.8569 246.783H55.4955ZM70.2788 247.078C69.1666 247.078 68.1606 246.832 67.261 246.342C66.3614 245.835 65.6498 245.115 65.1264 244.182C64.603 243.234 64.3413 242.097 64.3413 240.772C64.3413 239.464 64.603 238.335 65.1264 237.386C65.6662 236.437 66.3614 235.71 67.2119 235.203C68.0625 234.695 68.9539 234.442 69.8863 234.442C70.9822 234.442 71.8982 234.687 72.6342 235.178C73.3703 235.652 73.9264 236.323 74.3026 237.19C74.6788 238.04 74.8669 239.03 74.8669 240.159C74.8669 240.748 74.826 241.206 74.7442 241.533H67.0892C67.2201 242.596 67.6045 243.422 68.2424 244.011C68.8803 244.6 69.6818 244.894 70.6469 244.894C71.1703 244.894 71.6528 244.82 72.0944 244.673C72.5524 244.51 73.0022 244.289 73.4439 244.011L74.4008 245.777C73.8283 246.153 73.1903 246.464 72.487 246.71C71.7837 246.955 71.0476 247.078 70.2788 247.078ZM67.0647 239.619H72.4134C72.4134 238.687 72.2089 237.959 71.8 237.435C71.3911 236.895 70.7777 236.626 69.9599 236.626C69.2565 236.626 68.6268 236.887 68.0706 237.411C67.5309 237.918 67.1956 238.654 67.0647 239.619ZM77.5618 246.783V234.736H79.8926L80.0889 236.871H80.1871C80.6123 236.086 81.1276 235.489 81.7328 235.08C82.338 234.655 82.9595 234.442 83.5975 234.442C84.1699 234.442 84.6279 234.524 84.9714 234.687L84.4807 237.141C84.2681 237.075 84.0718 237.026 83.8919 236.994C83.712 236.961 83.4911 236.945 83.2294 236.945C82.7551 236.945 82.2562 237.133 81.7328 237.509C81.2094 237.869 80.7595 238.507 80.3833 239.423V246.783H77.5618ZM89.9322 247.078C89.1143 247.078 88.2965 246.922 87.4786 246.611C86.6608 246.284 85.9574 245.884 85.3686 245.409L86.6935 243.594C87.2333 244.003 87.7731 244.33 88.3128 244.575C88.8526 244.82 89.4251 244.943 90.0303 244.943C90.6846 244.943 91.1671 244.804 91.4779 244.526C91.7887 244.248 91.9441 243.904 91.9441 243.495C91.9441 243.152 91.8132 242.874 91.5515 242.661C91.3061 242.432 90.9872 242.236 90.5946 242.072C90.202 241.893 89.7931 241.721 89.3678 241.557C88.8444 241.361 88.321 241.124 87.7976 240.846C87.2905 240.551 86.8734 240.183 86.5463 239.742C86.2192 239.284 86.0556 238.719 86.0556 238.049C86.0556 236.985 86.4482 236.119 87.2333 235.448C88.0184 234.777 89.0816 234.442 90.4229 234.442C91.2734 234.442 92.034 234.589 92.7046 234.884C93.3753 235.178 93.9559 235.513 94.4467 235.89L93.1463 237.607C92.721 237.296 92.2875 237.051 91.8459 236.871C91.4206 236.675 90.9708 236.577 90.4965 236.577C89.8913 236.577 89.4415 236.707 89.147 236.969C88.8526 237.214 88.7054 237.525 88.7054 237.901C88.7054 238.376 88.9507 238.736 89.4415 238.981C89.9322 239.226 90.5047 239.464 91.1589 239.693C91.7151 239.889 92.2548 240.134 92.7783 240.429C93.3017 240.707 93.7351 241.075 94.0786 241.533C94.4385 241.991 94.6184 242.596 94.6184 243.348C94.6184 244.379 94.2177 245.262 93.4162 245.998C92.6147 246.718 91.4533 247.078 89.9322 247.078ZM97.1373 246.783V234.736H99.9588V246.783H97.1373ZM98.5603 232.626C98.0533 232.626 97.6444 232.479 97.3336 232.185C97.0228 231.89 96.8674 231.498 96.8674 231.007C96.8674 230.533 97.0228 230.148 97.3336 229.854C97.6444 229.559 98.0533 229.412 98.5603 229.412C99.0674 229.412 99.4763 229.559 99.7871 229.854C100.098 230.148 100.253 230.533 100.253 231.007C100.253 231.498 100.098 231.89 99.7871 232.185C99.4763 232.479 99.0674 232.626 98.5603 232.626ZM108.49 247.078C107.492 247.078 106.56 246.832 105.693 246.342C104.826 245.835 104.123 245.115 103.583 244.182C103.043 243.234 102.774 242.097 102.774 240.772C102.774 239.431 103.043 238.294 103.583 237.362C104.123 236.413 104.826 235.693 105.693 235.203C106.56 234.695 107.492 234.442 108.49 234.442C109.504 234.442 110.445 234.695 111.312 235.203C112.179 235.693 112.882 236.413 113.422 237.362C113.962 238.294 114.231 239.431 114.231 240.772C114.231 242.097 113.962 243.234 113.422 244.182C112.882 245.115 112.179 245.835 111.312 246.342C110.445 246.832 109.504 247.078 108.49 247.078ZM108.49 244.771C109.374 244.771 110.069 244.403 110.576 243.667C111.083 242.931 111.336 241.966 111.336 240.772C111.336 239.562 111.083 238.588 110.576 237.852C110.069 237.116 109.374 236.748 108.49 236.748C107.607 236.748 106.912 237.116 106.405 237.852C105.914 238.588 105.669 239.562 105.669 240.772C105.669 241.966 105.914 242.931 106.405 243.667C106.912 244.403 107.607 244.771 108.49 244.771ZM117.024 246.783V234.736H119.355L119.551 236.356H119.65C120.189 235.832 120.778 235.382 121.416 235.006C122.054 234.63 122.782 234.442 123.6 234.442C124.892 234.442 125.832 234.859 126.421 235.693C127.01 236.527 127.305 237.705 127.305 239.226V246.783H124.483V239.594C124.483 238.597 124.336 237.893 124.041 237.484C123.747 237.075 123.264 236.871 122.594 236.871C122.07 236.871 121.604 237.002 121.195 237.264C120.803 237.509 120.353 237.877 119.846 238.368V246.783H117.024ZM138.585 247.078C137.538 247.078 136.679 246.75 136.009 246.096C135.355 245.442 135.027 244.591 135.027 243.545C135.027 242.252 135.592 241.255 136.72 240.551C137.849 239.832 139.648 239.341 142.118 239.079C142.102 238.441 141.93 237.893 141.603 237.435C141.292 236.961 140.728 236.724 139.91 236.724C139.321 236.724 138.74 236.838 138.168 237.067C137.612 237.296 137.064 237.574 136.524 237.901L135.494 236.012C136.164 235.587 136.917 235.219 137.751 234.908C138.601 234.597 139.501 234.442 140.45 234.442C141.955 234.442 143.075 234.892 143.811 235.791C144.563 236.675 144.94 237.959 144.94 239.643V246.783H142.609L142.413 245.458H142.314C141.775 245.916 141.194 246.301 140.572 246.611C139.967 246.922 139.305 247.078 138.585 247.078ZM139.493 244.869C139.984 244.869 140.425 244.755 140.818 244.526C141.227 244.281 141.66 243.953 142.118 243.545V240.846C140.482 241.058 139.346 241.377 138.708 241.803C138.07 242.211 137.751 242.719 137.751 243.324C137.751 243.864 137.914 244.256 138.242 244.501C138.569 244.747 138.986 244.869 139.493 244.869ZM148.316 246.783V234.736H150.647L150.843 236.356H150.942C151.481 235.832 152.07 235.382 152.708 235.006C153.346 234.63 154.074 234.442 154.892 234.442C156.184 234.442 157.125 234.859 157.713 235.693C158.302 236.527 158.597 237.705 158.597 239.226V246.783H155.775V239.594C155.775 238.597 155.628 237.893 155.333 237.484C155.039 237.075 154.556 236.871 153.886 236.871C153.362 236.871 152.896 237.002 152.487 237.264C152.095 237.509 151.645 237.877 151.138 238.368V246.783H148.316ZM166.266 247.078C164.761 247.078 163.559 246.521 162.659 245.409C161.759 244.297 161.31 242.751 161.31 240.772C161.31 239.464 161.547 238.335 162.021 237.386C162.512 236.437 163.15 235.71 163.935 235.203C164.72 234.695 165.546 234.442 166.413 234.442C167.1 234.442 167.68 234.565 168.155 234.81C168.646 235.039 169.12 235.358 169.578 235.767L169.48 233.829V229.461H172.301V246.783H169.97L169.774 245.483H169.676C169.234 245.924 168.719 246.301 168.13 246.611C167.541 246.922 166.92 247.078 166.266 247.078ZM166.953 244.747C167.852 244.747 168.695 244.297 169.48 243.397V237.779C169.071 237.403 168.662 237.141 168.253 236.994C167.844 236.846 167.435 236.773 167.026 236.773C166.257 236.773 165.595 237.124 165.039 237.828C164.499 238.515 164.229 239.488 164.229 240.748C164.229 242.04 164.466 243.029 164.941 243.716C165.415 244.403 166.086 244.747 166.953 244.747ZM180.806 246.783V234.736H183.137L183.334 236.38H183.432C183.939 235.84 184.487 235.382 185.076 235.006C185.681 234.63 186.36 234.442 187.112 234.442C187.995 234.442 188.699 234.638 189.222 235.031C189.762 235.407 190.171 235.93 190.449 236.601C191.021 235.98 191.618 235.464 192.24 235.055C192.878 234.646 193.573 234.442 194.325 234.442C195.601 234.442 196.542 234.859 197.147 235.693C197.752 236.527 198.055 237.705 198.055 239.226V246.783H195.209V239.594C195.209 238.597 195.053 237.893 194.742 237.484C194.448 237.075 193.99 236.871 193.368 236.871C192.616 236.871 191.774 237.37 190.841 238.368V246.783H188.02V239.594C188.02 238.597 187.864 237.893 187.554 237.484C187.259 237.075 186.793 236.871 186.155 236.871C185.403 236.871 184.56 237.37 183.628 238.368V246.783H180.806ZM204.404 247.078C203.357 247.078 202.498 246.75 201.828 246.096C201.173 245.442 200.846 244.591 200.846 243.545C200.846 242.252 201.411 241.255 202.539 240.551C203.668 239.832 205.467 239.341 207.937 239.079C207.921 238.441 207.749 237.893 207.422 237.435C207.111 236.961 206.547 236.724 205.729 236.724C205.14 236.724 204.559 236.838 203.987 237.067C203.431 237.296 202.883 237.574 202.343 237.901L201.312 236.012C201.983 235.587 202.735 235.219 203.57 234.908C204.42 234.597 205.32 234.442 206.269 234.442C207.773 234.442 208.894 234.892 209.63 235.791C210.382 236.675 210.758 237.959 210.758 239.643V246.783H208.428L208.231 245.458H208.133C207.593 245.916 207.013 246.301 206.391 246.611C205.786 246.922 205.124 247.078 204.404 247.078ZM205.312 244.869C205.802 244.869 206.244 244.755 206.637 244.526C207.045 244.281 207.479 243.953 207.937 243.545V240.846C206.301 241.058 205.164 241.377 204.527 241.803C203.889 242.211 203.57 242.719 203.57 243.324C203.57 243.864 203.733 244.256 204.06 244.501C204.387 244.747 204.805 244.869 205.312 244.869ZM214.135 246.783V234.736H216.466L216.662 236.356H216.76C217.3 235.832 217.889 235.382 218.527 235.006C219.165 234.63 219.893 234.442 220.711 234.442C222.003 234.442 222.943 234.859 223.532 235.693C224.121 236.527 224.415 237.705 224.415 239.226V246.783H221.594V239.594C221.594 238.597 221.447 237.893 221.152 237.484C220.858 237.075 220.375 236.871 219.705 236.871C219.181 236.871 218.715 237.002 218.306 237.264C217.914 237.509 217.464 237.877 216.957 238.368V246.783H214.135ZM230.784 247.078C229.737 247.078 228.878 246.75 228.208 246.096C227.554 245.442 227.226 244.591 227.226 243.545C227.226 242.252 227.791 241.255 228.919 240.551C230.048 239.832 231.847 239.341 234.317 239.079C234.301 238.441 234.129 237.893 233.802 237.435C233.491 236.961 232.927 236.724 232.109 236.724C231.52 236.724 230.939 236.838 230.367 237.067C229.811 237.296 229.263 237.574 228.723 237.901L227.693 236.012C228.363 235.587 229.116 235.219 229.95 234.908C230.8 234.597 231.7 234.442 232.649 234.442C234.154 234.442 235.274 234.892 236.01 235.791C236.762 236.675 237.139 237.959 237.139 239.643V246.783H234.808L234.612 245.458H234.513C233.974 245.916 233.393 246.301 232.771 246.611C232.166 246.922 231.504 247.078 230.784 247.078ZM231.692 244.869C232.183 244.869 232.624 244.755 233.017 244.526C233.426 244.281 233.859 243.953 234.317 243.545V240.846C232.681 241.058 231.545 241.377 230.907 241.803C230.269 242.211 229.95 242.719 229.95 243.324C229.95 243.864 230.113 244.256 230.441 244.501C230.768 244.747 231.185 244.869 231.692 244.869ZM244.711 252.107C243.762 252.107 242.903 251.993 242.135 251.764C241.382 251.535 240.785 251.183 240.344 250.709C239.918 250.251 239.706 249.67 239.706 248.967C239.706 247.969 240.278 247.11 241.423 246.391V246.292C241.112 246.096 240.851 245.835 240.638 245.507C240.442 245.18 240.344 244.771 240.344 244.281C240.344 243.806 240.474 243.381 240.736 243.005C241.014 242.612 241.325 242.293 241.669 242.048V241.95C241.26 241.639 240.892 241.206 240.564 240.649C240.254 240.093 240.098 239.464 240.098 238.76C240.098 237.828 240.319 237.043 240.761 236.405C241.202 235.767 241.783 235.284 242.503 234.957C243.239 234.614 244.024 234.442 244.858 234.442C245.185 234.442 245.496 234.475 245.79 234.54C246.101 234.589 246.379 234.655 246.625 234.736H250.943V236.822H248.735C248.931 237.051 249.095 237.345 249.225 237.705C249.356 238.049 249.422 238.433 249.422 238.858C249.422 239.742 249.217 240.494 248.808 241.116C248.399 241.721 247.851 242.179 247.164 242.49C246.477 242.8 245.709 242.956 244.858 242.956C244.596 242.956 244.326 242.931 244.048 242.882C243.77 242.833 243.492 242.751 243.214 242.637C243.034 242.8 242.887 242.964 242.773 243.127C242.674 243.291 242.625 243.512 242.625 243.79C242.625 244.133 242.764 244.403 243.042 244.6C243.337 244.796 243.852 244.894 244.588 244.894H246.723C248.179 244.894 249.274 245.131 250.011 245.606C250.763 246.064 251.139 246.816 251.139 247.863C251.139 248.648 250.877 249.359 250.354 249.997C249.831 250.652 249.086 251.167 248.121 251.543C247.156 251.919 246.019 252.107 244.711 252.107ZM244.858 241.189C245.431 241.189 245.921 240.977 246.33 240.551C246.739 240.126 246.944 239.529 246.944 238.76C246.944 238.008 246.739 237.427 246.33 237.018C245.938 236.593 245.447 236.38 244.858 236.38C244.269 236.38 243.77 236.585 243.361 236.994C242.953 237.403 242.748 237.991 242.748 238.76C242.748 239.529 242.953 240.126 243.361 240.551C243.77 240.977 244.269 241.189 244.858 241.189ZM245.153 250.267C246.118 250.267 246.903 250.071 247.508 249.678C248.113 249.286 248.416 248.836 248.416 248.329C248.416 247.855 248.228 247.536 247.851 247.372C247.492 247.208 246.968 247.127 246.281 247.127H244.637C243.983 247.127 243.435 247.069 242.993 246.955C242.372 247.429 242.061 247.961 242.061 248.55C242.061 249.09 242.339 249.507 242.895 249.801C243.451 250.112 244.204 250.267 245.153 250.267ZM258.031 247.078C256.919 247.078 255.913 246.832 255.013 246.342C254.114 245.835 253.402 245.115 252.879 244.182C252.355 243.234 252.094 242.097 252.094 240.772C252.094 239.464 252.355 238.335 252.879 237.386C253.419 236.437 254.114 235.71 254.964 235.203C255.815 234.695 256.706 234.442 257.639 234.442C258.735 234.442 259.651 234.687 260.387 235.178C261.123 235.652 261.679 236.323 262.055 237.19C262.431 238.04 262.619 239.03 262.619 240.159C262.619 240.748 262.578 241.206 262.497 241.533H254.842C254.973 242.596 255.357 243.422 255.995 244.011C256.633 244.6 257.434 244.894 258.399 244.894C258.923 244.894 259.405 244.82 259.847 244.673C260.305 244.51 260.755 244.289 261.196 244.011L262.153 245.777C261.581 246.153 260.943 246.464 260.239 246.71C259.536 246.955 258.8 247.078 258.031 247.078ZM254.817 239.619H260.166C260.166 238.687 259.961 237.959 259.552 237.435C259.144 236.895 258.53 236.626 257.712 236.626C257.009 236.626 256.379 236.887 255.823 237.411C255.283 237.918 254.948 238.654 254.817 239.619ZM67.1341 280.739C66.807 280.739 66.5207 280.715 66.2754 280.666C66.03 280.617 65.7928 280.559 65.5638 280.494L66.0791 278.286C66.1936 278.319 66.3244 278.351 66.4716 278.384C66.6352 278.433 66.7906 278.458 66.9378 278.458C67.5757 278.458 68.0828 278.261 68.459 277.869C68.8516 277.492 69.146 277.002 69.3423 276.397L69.5631 275.636L64.8278 263.736H67.6984L69.7839 269.649C69.9638 270.173 70.1356 270.729 70.2991 271.318C70.4791 271.89 70.659 272.463 70.8389 273.035H70.9371C71.0843 272.479 71.2315 271.915 71.3787 271.342C71.5423 270.753 71.6977 270.189 71.8449 269.649L73.6605 263.736H76.3839L72.0166 276.323C71.5095 277.681 70.8962 278.752 70.1765 279.537C69.4568 280.339 68.4426 280.739 67.1341 280.739ZM83.2601 276.078C82.2623 276.078 81.33 275.832 80.4631 275.342C79.5962 274.835 78.8928 274.115 78.353 273.182C77.8133 272.234 77.5434 271.097 77.5434 269.772C77.5434 268.431 77.8133 267.294 78.353 266.362C78.8928 265.413 79.5962 264.693 80.4631 264.203C81.33 263.695 82.2623 263.442 83.2601 263.442C84.2742 263.442 85.2147 263.695 86.0817 264.203C86.9486 264.693 87.6519 265.413 88.1917 266.362C88.7315 267.294 89.0013 268.431 89.0013 269.772C89.0013 271.097 88.7315 272.234 88.1917 273.182C87.6519 274.115 86.9486 274.835 86.0817 275.342C85.2147 275.832 84.2742 276.078 83.2601 276.078ZM83.2601 273.771C84.1434 273.771 84.8385 273.403 85.3456 272.667C85.8527 271.931 86.1062 270.966 86.1062 269.772C86.1062 268.562 85.8527 267.588 85.3456 266.852C84.8385 266.116 84.1434 265.748 83.2601 265.748C82.3768 265.748 81.6817 266.116 81.1746 266.852C80.6839 267.588 80.4385 268.562 80.4385 269.772C80.4385 270.966 80.6839 271.931 81.1746 272.667C81.6817 273.403 82.3768 273.771 83.2601 273.771ZM95.3763 276.078C94.0841 276.078 93.1436 275.661 92.5548 274.826C91.9659 273.992 91.6715 272.814 91.6715 271.293V263.736H94.493V270.925C94.493 271.923 94.6403 272.626 94.9347 273.035C95.2291 273.444 95.7034 273.649 96.3577 273.649C96.8811 273.649 97.3391 273.518 97.7317 273.256C98.1406 272.994 98.5741 272.569 99.0321 271.98V263.736H101.854V275.783H99.5473L99.3265 274.017H99.2529C98.7295 274.638 98.157 275.137 97.5354 275.513C96.9139 275.89 96.1942 276.078 95.3763 276.078ZM105.428 275.783V263.736H107.758L107.955 265.871H108.053C108.478 265.086 108.993 264.489 109.599 264.08C110.204 263.655 110.825 263.442 111.463 263.442C112.036 263.442 112.494 263.524 112.837 263.687L112.346 266.141C112.134 266.075 111.938 266.026 111.758 265.994C111.578 265.961 111.357 265.945 111.095 265.945C110.621 265.945 110.122 266.133 109.599 266.509C109.075 266.869 108.625 267.507 108.249 268.423V275.783H105.428ZM119.738 275.783V259.737H122.952L125.798 267.588C125.978 268.095 126.149 268.619 126.313 269.159C126.493 269.682 126.665 270.206 126.828 270.729H126.926C127.106 270.206 127.278 269.682 127.442 269.159C127.605 268.619 127.769 268.095 127.932 267.588L130.705 259.737H133.943V275.783H131.318V268.447C131.318 267.94 131.335 267.392 131.367 266.803C131.416 266.198 131.465 265.593 131.514 264.988C131.58 264.382 131.637 263.835 131.686 263.344H131.588L130.288 267.073L127.662 274.287H125.97L123.32 267.073L122.044 263.344H121.946C121.995 263.835 122.044 264.382 122.093 264.988C122.158 265.593 122.207 266.198 122.24 266.803C122.289 267.392 122.314 267.94 122.314 268.447V275.783H119.738ZM138.019 275.783V259.737H140.865V273.379H147.539V275.783H138.019ZM155.001 280.543V263.736H157.332L157.528 265.012H157.627C158.134 264.587 158.698 264.219 159.319 263.908C159.957 263.597 160.603 263.442 161.258 263.442C162.763 263.442 163.924 263.998 164.742 265.11C165.576 266.223 165.993 267.711 165.993 269.576C165.993 270.95 165.748 272.127 165.257 273.109C164.766 274.074 164.128 274.81 163.343 275.317C162.574 275.824 161.74 276.078 160.841 276.078C160.317 276.078 159.794 275.963 159.27 275.734C158.747 275.489 158.24 275.162 157.749 274.753L157.823 276.765V280.543H155.001ZM160.252 273.747C161.053 273.747 161.724 273.395 162.264 272.692C162.803 271.988 163.073 270.958 163.073 269.6C163.073 268.39 162.869 267.449 162.46 266.779C162.051 266.108 161.389 265.773 160.473 265.773C159.622 265.773 158.739 266.223 157.823 267.122V272.741C158.264 273.101 158.69 273.362 159.099 273.526C159.508 273.673 159.892 273.747 160.252 273.747ZM168.85 275.783V263.736H171.672V275.783H168.85ZM170.273 261.626C169.766 261.626 169.357 261.479 169.047 261.185C168.736 260.89 168.58 260.498 168.58 260.007C168.58 259.533 168.736 259.148 169.047 258.854C169.357 258.559 169.766 258.412 170.273 258.412C170.78 258.412 171.189 258.559 171.5 258.854C171.811 259.148 171.966 259.533 171.966 260.007C171.966 260.498 171.811 260.89 171.5 261.185C171.189 261.479 170.78 261.626 170.273 261.626ZM175.272 280.543V263.736H177.602L177.799 265.012H177.897C178.404 264.587 178.968 264.219 179.59 263.908C180.228 263.597 180.874 263.442 181.528 263.442C183.033 263.442 184.194 263.998 185.012 265.11C185.846 266.223 186.263 267.711 186.263 269.576C186.263 270.95 186.018 272.127 185.527 273.109C185.037 274.074 184.399 274.81 183.614 275.317C182.845 275.824 182.011 276.078 181.111 276.078C180.588 276.078 180.064 275.963 179.541 275.734C179.017 275.489 178.51 275.162 178.02 274.753L178.093 276.765V280.543H175.272ZM180.522 273.747C181.324 273.747 181.994 273.395 182.534 272.692C183.074 271.988 183.344 270.958 183.344 269.6C183.344 268.39 183.139 267.449 182.73 266.779C182.321 266.108 181.659 265.773 180.743 265.773C179.892 265.773 179.009 266.223 178.093 267.122V272.741C178.535 273.101 178.96 273.362 179.369 273.526C179.778 273.673 180.162 273.747 180.522 273.747ZM194.273 276.078C193.161 276.078 192.155 275.832 191.255 275.342C190.356 274.835 189.644 274.115 189.121 273.182C188.597 272.234 188.336 271.097 188.336 269.772C188.336 268.464 188.597 267.335 189.121 266.386C189.66 265.437 190.356 264.71 191.206 264.203C192.057 263.695 192.948 263.442 193.88 263.442C194.976 263.442 195.892 263.687 196.628 264.178C197.364 264.652 197.921 265.323 198.297 266.19C198.673 267.04 198.861 268.03 198.861 269.159C198.861 269.748 198.82 270.206 198.738 270.533H191.083C191.214 271.596 191.599 272.422 192.237 273.011C192.875 273.6 193.676 273.894 194.641 273.894C195.164 273.894 195.647 273.82 196.089 273.673C196.547 273.51 196.996 273.289 197.438 273.011L198.395 274.777C197.822 275.153 197.185 275.464 196.481 275.71C195.778 275.955 195.042 276.078 194.273 276.078ZM191.059 268.619H196.408C196.408 267.687 196.203 266.959 195.794 266.435C195.385 265.895 194.772 265.626 193.954 265.626C193.251 265.626 192.621 265.887 192.065 266.411C191.525 266.918 191.19 267.654 191.059 268.619ZM204.304 276.078C203.306 276.078 202.595 275.775 202.169 275.17C201.76 274.565 201.556 273.739 201.556 272.692V258.461H204.378V272.839C204.378 273.182 204.443 273.428 204.574 273.575C204.705 273.706 204.844 273.771 204.991 273.771C205.056 273.771 205.114 273.771 205.163 273.771C205.228 273.755 205.318 273.739 205.433 273.722L205.801 275.832C205.637 275.898 205.424 275.955 205.163 276.004C204.917 276.053 204.631 276.078 204.304 276.078ZM208.217 275.783V263.736H211.039V275.783H208.217ZM209.64 261.626C209.133 261.626 208.724 261.479 208.413 261.185C208.102 260.89 207.947 260.498 207.947 260.007C207.947 259.533 208.102 259.148 208.413 258.854C208.724 258.559 209.133 258.412 209.64 258.412C210.147 258.412 210.556 258.559 210.867 258.854C211.178 259.148 211.333 259.533 211.333 260.007C211.333 260.498 211.178 260.89 210.867 261.185C210.556 261.479 210.147 261.626 209.64 261.626ZM214.638 275.783V263.736H216.969L217.165 265.356H217.264C217.803 264.832 218.392 264.382 219.03 264.006C219.668 263.63 220.396 263.442 221.214 263.442C222.506 263.442 223.446 263.859 224.035 264.693C224.624 265.527 224.919 266.705 224.919 268.226V275.783H222.097V268.594C222.097 267.597 221.95 266.893 221.655 266.484C221.361 266.075 220.878 265.871 220.208 265.871C219.684 265.871 219.218 266.002 218.809 266.264C218.417 266.509 217.967 266.877 217.46 267.368V275.783H214.638ZM233.52 276.078C232.408 276.078 231.402 275.832 230.502 275.342C229.602 274.835 228.891 274.115 228.367 273.182C227.844 272.234 227.582 271.097 227.582 269.772C227.582 268.464 227.844 267.335 228.367 266.386C228.907 265.437 229.602 264.71 230.453 264.203C231.304 263.695 232.195 263.442 233.127 263.442C234.223 263.442 235.139 263.687 235.875 264.178C236.611 264.652 237.167 265.323 237.544 266.19C237.92 267.04 238.108 268.03 238.108 269.159C238.108 269.748 238.067 270.206 237.985 270.533H230.33C230.461 271.596 230.846 272.422 231.483 273.011C232.121 273.6 232.923 273.894 233.888 273.894C234.411 273.894 234.894 273.82 235.336 273.673C235.794 273.51 236.243 273.289 236.685 273.011L237.642 274.777C237.069 275.153 236.431 275.464 235.728 275.71C235.025 275.955 234.289 276.078 233.52 276.078ZM230.306 268.619H235.654C235.654 267.687 235.45 266.959 235.041 266.435C234.632 265.895 234.019 265.626 233.201 265.626C232.498 265.626 231.868 265.887 231.312 266.411C230.772 266.918 230.437 267.654 230.306 268.619ZM244.164 276.078C243.346 276.078 242.529 275.922 241.711 275.611C240.893 275.284 240.189 274.884 239.601 274.409L240.926 272.594C241.465 273.003 242.005 273.33 242.545 273.575C243.085 273.82 243.657 273.943 244.262 273.943C244.917 273.943 245.399 273.804 245.71 273.526C246.021 273.248 246.176 272.904 246.176 272.495C246.176 272.152 246.045 271.874 245.784 271.661C245.538 271.432 245.219 271.236 244.827 271.072C244.434 270.893 244.025 270.721 243.6 270.557C243.076 270.361 242.553 270.124 242.03 269.846C241.523 269.551 241.105 269.183 240.778 268.742C240.451 268.284 240.288 267.719 240.288 267.049C240.288 265.985 240.68 265.119 241.465 264.448C242.25 263.777 243.314 263.442 244.655 263.442C245.505 263.442 246.266 263.589 246.937 263.884C247.607 264.178 248.188 264.513 248.679 264.89L247.378 266.607C246.953 266.296 246.52 266.051 246.078 265.871C245.653 265.675 245.203 265.577 244.729 265.577C244.123 265.577 243.673 265.707 243.379 265.969C243.085 266.214 242.937 266.525 242.937 266.901C242.937 267.376 243.183 267.736 243.673 267.981C244.164 268.226 244.737 268.464 245.391 268.693C245.947 268.889 246.487 269.134 247.01 269.429C247.534 269.707 247.967 270.075 248.311 270.533C248.671 270.991 248.85 271.596 248.85 272.348C248.85 273.379 248.45 274.262 247.648 274.998C246.847 275.718 245.685 276.078 244.164 276.078Z" fill="#AEB3BD"/>
<defs>
<linearGradient id="paint0_linear_444_780" x1="156.575" y1="68.3914" x2="156.575" y2="123.804" gradientUnits="userSpaceOnUse">
<stop offset="0.385417" stop-color="#FFCC33"/>
<stop offset="0.71875" stop-color="#FFAD33"/>
</linearGradient>
<linearGradient id="paint1_linear_444_780" x1="156.575" y1="68.3914" x2="156.575" y2="123.804" gradientUnits="userSpaceOnUse">
<stop offset="0.385417" stop-color="#FFCC33"/>
<stop offset="0.71875" stop-color="#FFAD33"/>
</linearGradient>
<linearGradient id="paint2_linear_444_780" x1="156.575" y1="68.3914" x2="156.575" y2="123.804" gradientUnits="userSpaceOnUse">
<stop offset="0.385417" stop-color="#FFCC33"/>
<stop offset="0.71875" stop-color="#FFAD33"/>
</linearGradient>
</defs>
</svg>
