<svg width="314" height="320" viewBox="0 0 314 320" fill="none" xmlns="http://www.w3.org/2000/svg">
<path d="M18.6324 1.23328H294.654C304.394 1.23328 312.289 9.12862 312.289 18.868V301.024C312.289 310.763 304.394 318.659 294.654 318.659H18.6323C8.89294 318.659 0.997624 310.763 0.997624 301.024V18.868C0.997624 9.1286 8.89296 1.23328 18.6324 1.23328Z" fill="#20242B"/>
<path d="M18.6324 1.23328H294.654C304.394 1.23328 312.289 9.12862 312.289 18.868V301.024C312.289 310.763 304.394 318.659 294.654 318.659H18.6323C8.89294 318.659 0.997624 310.763 0.997624 301.024V18.868C0.997624 9.1286 8.89296 1.23328 18.6324 1.23328Z" stroke="#4B535C" stroke-width="1.53346"/>
<rect x="101.546" y="37.2695" width="110.195" height="110.195" rx="55.0975" fill="#EDE8FF" fill-opacity="0.12"/>
<path d="M133.495 75.9645C133.507 75.691 133.807 75.5303 134.041 75.6729L135.535 76.5847C135.693 76.681 135.898 76.6416 136.01 76.4952C140.77 70.3264 148.241 66.3488 156.643 66.3488C170.681 66.3488 182.124 77.4495 182.661 91.3455C182.683 91.9086 182.223 92.367 181.659 92.367H180.638C180.074 92.367 179.62 91.9091 179.595 91.3461C179.06 79.1409 168.989 69.4097 156.643 69.4097C149.378 69.4097 142.899 72.7788 138.688 78.0435C138.555 78.2104 138.6 78.4557 138.782 78.5671L140.269 79.4746C140.503 79.6173 140.497 79.9585 140.259 80.0934L133.721 83.7939C133.476 83.9326 133.174 83.748 133.185 83.4667L133.495 75.9645Z" fill="url(#paint0_linear_444_731)"/>
<path d="M133.692 93.3879C133.667 92.8249 133.212 92.367 132.648 92.367H131.627C131.063 92.367 130.604 92.8254 130.626 93.3885C131.163 107.285 142.606 118.385 156.643 118.385C165.069 118.385 172.558 114.385 177.316 108.187C177.428 108.04 177.634 108.001 177.792 108.097L179.321 109.03C179.555 109.173 179.856 109.012 179.867 108.739L180.177 101.237C180.188 100.955 179.886 100.771 179.641 100.91L173.103 104.61C172.865 104.745 172.859 105.086 173.093 105.229L174.545 106.115C174.727 106.226 174.773 106.471 174.64 106.638C170.43 111.933 163.932 115.324 156.643 115.324C144.297 115.324 134.226 105.593 133.692 93.3879Z" fill="url(#paint1_linear_444_731)"/>
<path d="M156.052 75.4261C156.546 74.6903 157.694 75.0401 157.694 75.9264V87.4698C157.694 88.2627 158.337 88.9056 159.13 88.9056H168.2C169.349 88.9056 170.033 90.1881 169.392 91.1419L157.191 109.308C156.697 110.044 155.549 109.694 155.549 108.808V97.2642C155.549 96.4713 154.906 95.8284 154.113 95.8284H145.042C143.893 95.8284 143.21 94.5459 143.85 93.5921L156.052 75.4261Z" fill="url(#paint2_linear_444_731)"/>
<path d="M65.4768 188.396L64.3359 192.04H71.5493L70.4084 188.396C69.5251 185.709 68.7523 183.06 67.9794 180.263H67.8322C67.0961 183.06 66.3233 185.709 65.4768 188.396ZM58.0794 201.866L66.2129 177.723H69.746L77.8794 201.866H74.6039L72.3222 194.542H63.5263L61.2077 201.866H58.0794ZM86.016 202.308C82.2253 202.308 80.5324 199.879 80.5324 195.315V183.98H83.587V194.91C83.587 198.222 84.6175 199.658 86.9729 199.658C88.7762 199.658 90.0643 198.738 91.7205 196.64V183.98H94.7751V201.866H92.2725L92.0149 199.069H91.9045C90.2483 201.019 88.4818 202.308 86.016 202.308ZM106.44 202.308C102.612 202.308 101.324 199.879 101.324 196.309V186.446H98.6742V184.164L101.471 183.98L101.839 178.238H104.379V183.98H109.237V186.446H104.379V196.382C104.379 198.554 105.115 199.805 107.139 199.805C107.801 199.805 108.464 199.695 109.2 199.363L109.825 201.535C108.869 201.976 107.654 202.308 106.44 202.308ZM119.733 202.308C115.353 202.308 111.452 198.885 111.452 192.96C111.452 186.961 115.353 183.538 119.733 183.538C124.112 183.538 128.05 186.961 128.05 192.96C128.05 198.885 124.112 202.308 119.733 202.308ZM119.733 199.768C122.824 199.768 124.885 197.045 124.885 192.96C124.885 188.838 122.824 186.078 119.733 186.078C116.678 186.078 114.617 188.838 114.617 192.96C114.617 197.045 116.678 199.768 119.733 199.768ZM132.724 201.866V183.98H135.226L135.484 186.556H135.594C137.177 184.863 139.017 183.538 141.152 183.538C143.912 183.538 145.384 184.826 146.12 186.924C147.96 184.937 149.837 183.538 152.009 183.538C155.689 183.538 157.455 185.967 157.455 190.531V201.866H154.401V190.935C154.401 187.586 153.333 186.188 151.088 186.188C149.69 186.188 148.255 187.071 146.599 188.911V201.866H143.544V190.935C143.544 187.586 142.513 186.188 140.232 186.188C138.907 186.188 137.435 187.071 135.778 188.911V201.866H132.724ZM167.359 202.308C164.378 202.308 162.133 200.467 162.133 197.229C162.133 193.254 165.445 191.34 173.1 190.494C173.064 188.249 172.327 186.078 169.42 186.078C167.359 186.078 165.482 186.998 164.084 187.918L162.906 185.857C164.562 184.753 167.065 183.538 169.935 183.538C174.278 183.538 176.155 186.446 176.155 190.862V201.866H173.652L173.358 199.731H173.248C171.555 201.167 169.604 202.308 167.359 202.308ZM168.206 199.805C169.935 199.805 171.371 199.032 173.1 197.523V192.665C167.065 193.364 165.114 194.726 165.114 197.045C165.114 199.032 166.476 199.805 168.206 199.805ZM186.91 202.308C183.083 202.308 181.794 199.879 181.794 196.309V186.446H179.145V184.164L181.942 183.98L182.31 178.238H184.849V183.98H189.707V186.446H184.849V196.382C184.849 198.554 185.585 199.805 187.609 199.805C188.272 199.805 188.934 199.695 189.67 199.363L190.296 201.535C189.339 201.976 188.125 202.308 186.91 202.308ZM193.751 201.866V183.98H196.805V201.866H193.751ZM195.296 180.299C194.119 180.299 193.272 179.527 193.272 178.312C193.272 177.134 194.119 176.325 195.296 176.325C196.474 176.325 197.32 177.134 197.32 178.312C197.32 179.527 196.474 180.299 195.296 180.299ZM209.799 202.308C205.42 202.308 201.519 198.885 201.519 192.96C201.519 186.961 205.42 183.538 209.799 183.538C214.179 183.538 218.117 186.961 218.117 192.96C218.117 198.885 214.179 202.308 209.799 202.308ZM209.799 199.768C212.891 199.768 214.952 197.045 214.952 192.96C214.952 188.838 212.891 186.078 209.799 186.078C206.745 186.078 204.684 188.838 204.684 192.96C204.684 197.045 206.745 199.768 209.799 199.768ZM222.79 201.866V183.98H225.293L225.551 186.556H225.661C227.354 184.863 229.194 183.538 231.66 183.538C235.451 183.538 237.143 185.967 237.143 190.531V201.866H234.089V190.935C234.089 187.586 233.058 186.188 230.703 186.188C228.9 186.188 227.612 187.108 225.845 188.911V201.866H222.79ZM247.591 202.308C244.978 202.308 242.586 201.351 240.93 199.731L242.328 197.965C243.874 199.253 245.493 199.915 247.701 199.915C250.057 199.915 251.198 198.701 251.198 197.155C251.198 195.315 249.21 194.542 247.186 193.806C244.499 192.849 241.923 191.561 241.923 188.617C241.923 185.746 244.205 183.538 248.106 183.538C250.351 183.538 252.265 184.385 253.663 185.562L252.265 187.329C251.014 186.409 249.725 185.893 248.143 185.893C245.861 185.893 244.868 187.145 244.868 188.47C244.868 190.089 246.413 190.751 248.658 191.524C251.455 192.518 254.142 193.733 254.142 196.971C254.142 199.879 251.823 202.308 247.591 202.308Z" fill="white"/>
<path d="M66.9999 246.271V232.629H62.3627V230.225H74.4831V232.629H69.846V246.271H66.9999ZM75.8314 246.271V234.224H78.1623L78.3586 236.359H78.4567C78.882 235.574 79.3972 234.977 80.0024 234.568C80.6076 234.143 81.2292 233.93 81.8671 233.93C82.4396 233.93 82.8976 234.012 83.2411 234.175L82.7504 236.629C82.5377 236.563 82.3414 236.514 82.1615 236.482C81.9816 236.449 81.7608 236.432 81.4991 236.432C81.0247 236.432 80.5258 236.621 80.0024 236.997C79.479 237.357 79.0292 237.995 78.653 238.911V246.271H75.8314ZM84.9842 246.271V234.224H87.8058V246.271H84.9842ZM86.4073 232.114C85.9002 232.114 85.4913 231.967 85.1805 231.673C84.8697 231.378 84.7143 230.986 84.7143 230.495C84.7143 230.021 84.8697 229.636 85.1805 229.342C85.4913 229.047 85.9002 228.9 86.4073 228.9C86.9143 228.9 87.3233 229.047 87.634 229.342C87.9448 229.636 88.1002 230.021 88.1002 230.495C88.1002 230.986 87.9448 231.378 87.634 231.673C87.3233 231.967 86.9143 232.114 86.4073 232.114ZM95.6011 251.595C94.6524 251.595 93.7937 251.481 93.0249 251.252C92.2725 251.023 91.6755 250.671 91.2338 250.197C90.8086 249.739 90.5959 249.158 90.5959 248.455C90.5959 247.457 91.1684 246.598 92.3134 245.879V245.78C92.0026 245.584 91.7409 245.322 91.5283 244.995C91.332 244.668 91.2338 244.259 91.2338 243.769C91.2338 243.294 91.3647 242.869 91.6264 242.493C91.9045 242.1 92.2152 241.781 92.5587 241.536V241.438C92.1498 241.127 91.7818 240.693 91.4546 240.137C91.1439 239.581 90.9885 238.951 90.9885 238.248C90.9885 237.316 91.2093 236.531 91.6509 235.893C92.0926 235.255 92.6732 234.772 93.3929 234.445C94.129 234.102 94.9141 233.93 95.7483 233.93C96.0755 233.93 96.3862 233.963 96.6807 234.028C96.9914 234.077 97.2695 234.143 97.5149 234.224H101.833V236.31H99.6249C99.8212 236.539 99.9847 236.833 100.116 237.193C100.246 237.537 100.312 237.921 100.312 238.346C100.312 239.229 100.107 239.982 99.6985 240.603C99.2896 241.209 98.7416 241.667 98.0546 241.977C97.3677 242.288 96.5989 242.444 95.7483 242.444C95.4866 242.444 95.2167 242.419 94.9387 242.37C94.6606 242.321 94.3825 242.239 94.1045 242.125C93.9245 242.288 93.7773 242.452 93.6628 242.615C93.5647 242.779 93.5156 243 93.5156 243.278C93.5156 243.621 93.6546 243.891 93.9327 244.087C94.2271 244.284 94.7424 244.382 95.4784 244.382H97.613C99.0688 244.382 100.165 244.619 100.901 245.093C101.653 245.551 102.029 246.304 102.029 247.351C102.029 248.136 101.768 248.847 101.244 249.485C100.721 250.14 99.9766 250.655 99.0115 251.031C98.0465 251.407 96.9097 251.595 95.6011 251.595ZM95.7483 240.677C96.3208 240.677 96.8115 240.464 97.2204 240.039C97.6294 239.614 97.8338 239.017 97.8338 238.248C97.8338 237.496 97.6294 236.915 97.2204 236.506C96.8279 236.081 96.3372 235.868 95.7483 235.868C95.1595 235.868 94.6606 236.073 94.2517 236.482C93.8427 236.89 93.6383 237.479 93.6383 238.248C93.6383 239.017 93.8427 239.614 94.2517 240.039C94.6606 240.464 95.1595 240.677 95.7483 240.677ZM96.0427 249.755C97.0078 249.755 97.7929 249.559 98.3981 249.166C99.0033 248.774 99.3059 248.324 99.3059 247.817C99.3059 247.342 99.1178 247.024 98.7416 246.86C98.3818 246.696 97.8584 246.615 97.1714 246.615H95.5275C94.8732 246.615 94.3253 246.557 93.8836 246.443C93.2621 246.917 92.9513 247.449 92.9513 248.038C92.9513 248.577 93.2294 248.995 93.7855 249.289C94.3416 249.6 95.094 249.755 96.0427 249.755ZM108.348 251.595C107.399 251.595 106.541 251.481 105.772 251.252C105.019 251.023 104.422 250.671 103.981 250.197C103.555 249.739 103.343 249.158 103.343 248.455C103.343 247.457 103.915 246.598 105.06 245.879V245.78C104.749 245.584 104.488 245.322 104.275 244.995C104.079 244.668 103.981 244.259 103.981 243.769C103.981 243.294 104.112 242.869 104.373 242.493C104.651 242.1 104.962 241.781 105.306 241.536V241.438C104.897 241.127 104.529 240.693 104.201 240.137C103.891 239.581 103.735 238.951 103.735 238.248C103.735 237.316 103.956 236.531 104.398 235.893C104.839 235.255 105.42 234.772 106.14 234.445C106.876 234.102 107.661 233.93 108.495 233.93C108.822 233.93 109.133 233.963 109.428 234.028C109.738 234.077 110.016 234.143 110.262 234.224H114.58V236.31H112.372C112.568 236.539 112.732 236.833 112.862 237.193C112.993 237.537 113.059 237.921 113.059 238.346C113.059 239.229 112.854 239.982 112.445 240.603C112.036 241.209 111.488 241.667 110.801 241.977C110.114 242.288 109.346 242.444 108.495 242.444C108.233 242.444 107.964 242.419 107.685 242.37C107.407 242.321 107.129 242.239 106.851 242.125C106.671 242.288 106.524 242.452 106.41 242.615C106.312 242.779 106.262 243 106.262 243.278C106.262 243.621 106.401 243.891 106.68 244.087C106.974 244.284 107.489 244.382 108.225 244.382H110.36C111.816 244.382 112.912 244.619 113.648 245.093C114.4 245.551 114.776 246.304 114.776 247.351C114.776 248.136 114.514 248.847 113.991 249.485C113.468 250.14 112.723 250.655 111.758 251.031C110.793 251.407 109.657 251.595 108.348 251.595ZM108.495 240.677C109.068 240.677 109.558 240.464 109.967 240.039C110.376 239.614 110.581 239.017 110.581 238.248C110.581 237.496 110.376 236.915 109.967 236.506C109.575 236.081 109.084 235.868 108.495 235.868C107.906 235.868 107.407 236.073 106.999 236.482C106.59 236.89 106.385 237.479 106.385 238.248C106.385 239.017 106.59 239.614 106.999 240.039C107.407 240.464 107.906 240.677 108.495 240.677ZM108.79 249.755C109.755 249.755 110.54 249.559 111.145 249.166C111.75 248.774 112.053 248.324 112.053 247.817C112.053 247.342 111.865 247.024 111.488 246.86C111.129 246.696 110.605 246.615 109.918 246.615H108.274C107.62 246.615 107.072 246.557 106.63 246.443C106.009 246.917 105.698 247.449 105.698 248.038C105.698 248.577 105.976 248.995 106.532 249.289C107.088 249.6 107.841 249.755 108.79 249.755ZM121.668 246.566C120.556 246.566 119.55 246.32 118.65 245.829C117.751 245.322 117.039 244.603 116.516 243.67C115.992 242.722 115.731 241.585 115.731 240.26C115.731 238.951 115.992 237.823 116.516 236.874C117.056 235.925 117.751 235.198 118.601 234.69C119.452 234.183 120.343 233.93 121.276 233.93C122.372 233.93 123.288 234.175 124.024 234.666C124.76 235.14 125.316 235.811 125.692 236.678C126.068 237.528 126.256 238.518 126.256 239.647C126.256 240.235 126.216 240.693 126.134 241.021H118.479C118.61 242.084 118.994 242.91 119.632 243.499C120.27 244.087 121.071 244.382 122.036 244.382C122.56 244.382 123.042 244.308 123.484 244.161C123.942 243.998 124.392 243.777 124.833 243.499L125.79 245.265C125.218 245.641 124.58 245.952 123.876 246.198C123.173 246.443 122.437 246.566 121.668 246.566ZM118.454 239.107H123.803C123.803 238.174 123.598 237.447 123.189 236.923C122.781 236.383 122.167 236.114 121.349 236.114C120.646 236.114 120.016 236.375 119.46 236.899C118.92 237.406 118.585 238.142 118.454 239.107ZM128.951 246.271V234.224H131.282L131.478 236.359H131.577C132.002 235.574 132.517 234.977 133.122 234.568C133.727 234.143 134.349 233.93 134.987 233.93C135.559 233.93 136.017 234.012 136.361 234.175L135.87 236.629C135.658 236.563 135.461 236.514 135.281 236.482C135.101 236.449 134.881 236.432 134.619 236.432C134.145 236.432 133.646 236.621 133.122 236.997C132.599 237.357 132.149 237.995 131.773 238.911V246.271H128.951ZM145.003 246.271L141.814 234.224H144.66L146.107 240.481C146.238 241.053 146.345 241.626 146.426 242.198C146.524 242.771 146.631 243.351 146.745 243.94H146.843C146.958 243.351 147.072 242.771 147.187 242.198C147.318 241.609 147.457 241.037 147.604 240.481L149.174 234.224H151.75L153.345 240.481C153.492 241.053 153.632 241.626 153.762 242.198C153.893 242.771 154.024 243.351 154.155 243.94H154.253C154.368 243.351 154.474 242.771 154.572 242.198C154.67 241.626 154.777 241.053 154.891 240.481L156.339 234.224H158.988L155.921 246.271H152.56L151.162 240.653C151.031 240.08 150.908 239.516 150.794 238.96C150.679 238.387 150.556 237.782 150.426 237.144H150.327C150.213 237.782 150.098 238.387 149.984 238.96C149.869 239.532 149.747 240.105 149.616 240.677L148.242 246.271H145.003ZM166.157 246.566C165.16 246.566 164.227 246.32 163.36 245.829C162.493 245.322 161.79 244.603 161.25 243.67C160.71 242.722 160.441 241.585 160.441 240.26C160.441 238.919 160.71 237.782 161.25 236.85C161.79 235.901 162.493 235.181 163.36 234.69C164.227 234.183 165.16 233.93 166.157 233.93C167.171 233.93 168.112 234.183 168.979 234.69C169.846 235.181 170.549 235.901 171.089 236.85C171.629 237.782 171.899 238.919 171.899 240.26C171.899 241.585 171.629 242.722 171.089 243.67C170.549 244.603 169.846 245.322 168.979 245.829C168.112 246.32 167.171 246.566 166.157 246.566ZM166.157 244.259C167.041 244.259 167.736 243.891 168.243 243.155C168.75 242.419 169.003 241.454 169.003 240.26C169.003 239.05 168.75 238.076 168.243 237.34C167.736 236.604 167.041 236.236 166.157 236.236C165.274 236.236 164.579 236.604 164.072 237.34C163.581 238.076 163.336 239.05 163.336 240.26C163.336 241.454 163.581 242.419 164.072 243.155C164.579 243.891 165.274 244.259 166.157 244.259ZM174.691 246.271V234.224H177.022L177.218 236.359H177.317C177.742 235.574 178.257 234.977 178.862 234.568C179.468 234.143 180.089 233.93 180.727 233.93C181.3 233.93 181.758 234.012 182.101 234.175L181.61 236.629C181.398 236.563 181.201 236.514 181.021 236.482C180.842 236.449 180.621 236.432 180.359 236.432C179.885 236.432 179.386 236.621 178.862 236.997C178.339 237.357 177.889 237.995 177.513 238.911V246.271H174.691ZM183.844 246.271V228.949H186.617V239.769H186.69L191.156 234.224H194.247L190.125 239.131L194.664 246.271H191.597L188.506 241.045L186.617 243.204V246.271H183.844ZM197.154 246.271V236.457H195.534V234.347L197.154 234.224V232.973C197.154 231.714 197.464 230.683 198.086 229.882C198.708 229.064 199.73 228.655 201.153 228.655C201.578 228.655 201.987 228.696 202.38 228.777C202.772 228.859 203.099 228.957 203.361 229.072L202.821 231.182C202.38 230.986 201.938 230.887 201.496 230.887C200.482 230.887 199.975 231.566 199.975 232.924V234.224H202.331V236.457H199.975V246.271H197.154ZM207.198 246.566C206.2 246.566 205.489 246.263 205.063 245.658C204.654 245.053 204.45 244.227 204.45 243.18V228.949H207.272V243.327C207.272 243.67 207.337 243.916 207.468 244.063C207.599 244.194 207.738 244.259 207.885 244.259C207.95 244.259 208.008 244.259 208.057 244.259C208.122 244.243 208.212 244.227 208.327 244.21L208.695 246.32C208.531 246.386 208.318 246.443 208.057 246.492C207.811 246.541 207.525 246.566 207.198 246.566ZM216.043 246.566C215.045 246.566 214.112 246.32 213.246 245.829C212.379 245.322 211.675 244.603 211.135 243.67C210.596 242.722 210.326 241.585 210.326 240.26C210.326 238.919 210.596 237.782 211.135 236.85C211.675 235.901 212.379 235.181 213.246 234.69C214.112 234.183 215.045 233.93 216.043 233.93C217.057 233.93 217.997 234.183 218.864 234.69C219.731 235.181 220.434 235.901 220.974 236.85C221.514 237.782 221.784 238.919 221.784 240.26C221.784 241.585 221.514 242.722 220.974 243.67C220.434 244.603 219.731 245.322 218.864 245.829C217.997 246.32 217.057 246.566 216.043 246.566ZM216.043 244.259C216.926 244.259 217.621 243.891 218.128 243.155C218.635 242.419 218.889 241.454 218.889 240.26C218.889 239.05 218.635 238.076 218.128 237.34C217.621 236.604 216.926 236.236 216.043 236.236C215.159 236.236 214.464 236.604 213.957 237.34C213.466 238.076 213.221 239.05 213.221 240.26C213.221 241.454 213.466 242.419 213.957 243.155C214.464 243.891 215.159 244.259 216.043 244.259ZM226.42 246.271L223.231 234.224H226.077L227.524 240.481C227.655 241.053 227.761 241.626 227.843 242.198C227.941 242.771 228.048 243.351 228.162 243.94H228.26C228.375 243.351 228.489 242.771 228.604 242.198C228.735 241.609 228.874 241.037 229.021 240.481L230.591 234.224H233.167L234.762 240.481C234.909 241.053 235.048 241.626 235.179 242.198C235.31 242.771 235.441 243.351 235.572 243.94H235.67C235.784 243.351 235.891 242.771 235.989 242.198C236.087 241.626 236.193 241.053 236.308 240.481L237.755 234.224H240.405L237.338 246.271H233.977L232.579 240.653C232.448 240.08 232.325 239.516 232.21 238.96C232.096 238.387 231.973 237.782 231.842 237.144H231.744C231.63 237.782 231.515 238.387 231.401 238.96C231.286 239.532 231.164 240.105 231.033 240.677L229.659 246.271H226.42ZM246.148 246.566C245.33 246.566 244.512 246.41 243.694 246.099C242.876 245.772 242.173 245.371 241.584 244.897L242.909 243.082C243.449 243.49 243.989 243.818 244.528 244.063C245.068 244.308 245.641 244.431 246.246 244.431C246.9 244.431 247.383 244.292 247.693 244.014C248.004 243.736 248.16 243.392 248.16 242.983C248.16 242.64 248.029 242.362 247.767 242.149C247.522 241.92 247.203 241.724 246.81 241.56C246.418 241.38 246.009 241.209 245.583 241.045C245.06 240.849 244.537 240.612 244.013 240.334C243.506 240.039 243.089 239.671 242.762 239.229C242.435 238.771 242.271 238.207 242.271 237.537C242.271 236.473 242.664 235.606 243.449 234.936C244.234 234.265 245.297 233.93 246.638 233.93C247.489 233.93 248.25 234.077 248.92 234.372C249.591 234.666 250.171 235.001 250.662 235.377L249.362 237.095C248.937 236.784 248.503 236.539 248.061 236.359C247.636 236.163 247.186 236.064 246.712 236.064C246.107 236.064 245.657 236.195 245.363 236.457C245.068 236.702 244.921 237.013 244.921 237.389C244.921 237.864 245.166 238.224 245.657 238.469C246.148 238.714 246.72 238.951 247.374 239.18C247.931 239.377 248.47 239.622 248.994 239.916C249.517 240.195 249.951 240.563 250.294 241.021C250.654 241.479 250.834 242.084 250.834 242.836C250.834 243.867 250.433 244.75 249.632 245.486C248.83 246.206 247.669 246.566 246.148 246.566ZM88.5149 275.566C87.4681 275.566 86.6093 275.238 85.9387 274.584C85.2844 273.93 84.9573 273.079 84.9573 272.032C84.9573 270.74 85.5216 269.743 86.6502 269.039C87.7789 268.319 89.5781 267.829 92.048 267.567C92.0316 266.929 91.8599 266.381 91.5328 265.923C91.222 265.449 90.6577 265.212 89.8398 265.212C89.251 265.212 88.6703 265.326 88.0978 265.555C87.5417 265.784 86.9937 266.062 86.454 266.389L85.4235 264.5C86.0941 264.075 86.8465 263.707 87.6807 263.396C88.5313 263.085 89.4309 262.93 90.3796 262.93C91.8844 262.93 93.0049 263.38 93.7409 264.279C94.4934 265.163 94.8696 266.447 94.8696 268.131V275.271H92.5387L92.3424 273.946H92.2443C91.7045 274.404 91.1238 274.789 90.5023 275.099C89.8971 275.41 89.2346 275.566 88.5149 275.566ZM89.4227 273.357C89.9134 273.357 90.3551 273.243 90.7476 273.014C91.1566 272.769 91.59 272.441 92.048 272.032V269.334C90.4123 269.546 89.2755 269.865 88.6376 270.29C87.9997 270.699 87.6807 271.206 87.6807 271.812C87.6807 272.351 87.8443 272.744 88.1714 272.989C88.4986 273.235 88.9157 273.357 89.4227 273.357ZM101.828 275.566C100.536 275.566 99.5957 275.148 99.0068 274.314C98.418 273.48 98.1236 272.302 98.1236 270.781V263.224H100.945V270.413C100.945 271.411 101.092 272.114 101.387 272.523C101.681 272.932 102.156 273.137 102.81 273.137C103.333 273.137 103.791 273.006 104.184 272.744C104.593 272.482 105.026 272.057 105.484 271.468V263.224H108.306V275.271H105.999L105.779 273.505H105.705C105.182 274.126 104.609 274.625 103.987 275.001C103.366 275.377 102.646 275.566 101.828 275.566ZM116.124 275.566C114.734 275.566 113.744 275.165 113.155 274.363C112.583 273.545 112.297 272.49 112.297 271.198V265.457H110.579V263.347L112.444 263.224L112.787 259.937H115.143V263.224H118.21V265.457H115.143V271.198C115.143 272.605 115.707 273.308 116.836 273.308C117.048 273.308 117.269 273.284 117.498 273.235C117.727 273.169 117.923 273.104 118.087 273.038L118.578 275.124C118.251 275.238 117.874 275.337 117.449 275.418C117.04 275.516 116.599 275.566 116.124 275.566ZM125.293 275.566C124.295 275.566 123.363 275.32 122.496 274.829C121.629 274.322 120.926 273.603 120.386 272.67C119.846 271.722 119.576 270.585 119.576 269.26C119.576 267.919 119.846 266.782 120.386 265.85C120.926 264.901 121.629 264.181 122.496 263.69C123.363 263.183 124.295 262.93 125.293 262.93C126.307 262.93 127.248 263.183 128.115 263.69C128.982 264.181 129.685 264.901 130.225 265.85C130.764 266.782 131.034 267.919 131.034 269.26C131.034 270.585 130.764 271.722 130.225 272.67C129.685 273.603 128.982 274.322 128.115 274.829C127.248 275.32 126.307 275.566 125.293 275.566ZM125.293 273.259C126.176 273.259 126.872 272.891 127.379 272.155C127.886 271.419 128.139 270.454 128.139 269.26C128.139 268.05 127.886 267.076 127.379 266.34C126.872 265.604 126.176 265.236 125.293 265.236C124.41 265.236 123.715 265.604 123.208 266.34C122.717 267.076 122.472 268.05 122.472 269.26C122.472 270.454 122.717 271.419 123.208 272.155C123.715 272.891 124.41 273.259 125.293 273.259ZM133.827 275.271V263.224H136.158L136.354 264.868H136.452C136.96 264.328 137.507 263.87 138.096 263.494C138.702 263.118 139.38 262.93 140.133 262.93C141.016 262.93 141.719 263.126 142.243 263.519C142.783 263.895 143.191 264.418 143.47 265.089C144.042 264.467 144.639 263.952 145.261 263.543C145.899 263.134 146.594 262.93 147.346 262.93C148.622 262.93 149.562 263.347 150.168 264.181C150.773 265.015 151.075 266.193 151.075 267.714V275.271H148.229V268.082C148.229 267.085 148.074 266.381 147.763 265.972C147.469 265.563 147.011 265.359 146.389 265.359C145.637 265.359 144.794 265.858 143.862 266.856V275.271H141.041V268.082C141.041 267.085 140.885 266.381 140.574 265.972C140.28 265.563 139.814 265.359 139.176 265.359C138.423 265.359 137.581 265.858 136.649 266.856V275.271H133.827ZM157.425 275.566C156.378 275.566 155.519 275.238 154.848 274.584C154.194 273.93 153.867 273.079 153.867 272.032C153.867 270.74 154.431 269.743 155.56 269.039C156.688 268.319 158.488 267.829 160.958 267.567C160.941 266.929 160.77 266.381 160.442 265.923C160.132 265.449 159.567 265.212 158.749 265.212C158.161 265.212 157.58 265.326 157.007 265.555C156.451 265.784 155.903 266.062 155.364 266.389L154.333 264.5C155.004 264.075 155.756 263.707 156.59 263.396C157.441 263.085 158.341 262.93 159.289 262.93C160.794 262.93 161.915 263.38 162.651 264.279C163.403 265.163 163.779 266.447 163.779 268.131V275.271H161.448L161.252 273.946H161.154C160.614 274.404 160.033 274.789 159.412 275.099C158.807 275.41 158.144 275.566 157.425 275.566ZM158.332 273.357C158.823 273.357 159.265 273.243 159.657 273.014C160.066 272.769 160.5 272.441 160.958 272.032V269.334C159.322 269.546 158.185 269.865 157.547 270.29C156.909 270.699 156.59 271.206 156.59 271.812C156.59 272.351 156.754 272.744 157.081 272.989C157.408 273.235 157.825 273.357 158.332 273.357ZM171.017 275.566C169.627 275.566 168.637 275.165 168.048 274.363C167.476 273.545 167.19 272.49 167.19 271.198V265.457H165.472V263.347L167.337 263.224L167.68 259.937H170.036V263.224H173.103V265.457H170.036V271.198C170.036 272.605 170.6 273.308 171.729 273.308C171.941 273.308 172.162 273.284 172.391 273.235C172.62 273.169 172.816 273.104 172.98 273.038L173.471 275.124C173.144 275.238 172.767 275.337 172.342 275.418C171.933 275.516 171.491 275.566 171.017 275.566ZM175.638 275.271V263.224H178.459V275.271H175.638ZM177.061 261.114C176.554 261.114 176.145 260.967 175.834 260.673C175.523 260.378 175.368 259.986 175.368 259.495C175.368 259.021 175.523 258.636 175.834 258.342C176.145 258.047 176.554 257.9 177.061 257.9C177.568 257.9 177.977 258.047 178.288 258.342C178.598 258.636 178.754 259.021 178.754 259.495C178.754 259.986 178.598 260.378 178.288 260.673C177.977 260.967 177.568 261.114 177.061 261.114ZM187.089 275.566C185.993 275.566 185.003 275.32 184.12 274.829C183.253 274.322 182.558 273.603 182.035 272.67C181.528 271.722 181.274 270.585 181.274 269.26C181.274 267.919 181.552 266.782 182.108 265.85C182.664 264.901 183.4 264.181 184.316 263.69C185.249 263.183 186.246 262.93 187.31 262.93C188.078 262.93 188.749 263.061 189.322 263.322C189.894 263.584 190.401 263.903 190.843 264.279L189.469 266.119C189.158 265.841 188.839 265.629 188.512 265.482C188.185 265.318 187.833 265.236 187.457 265.236C186.492 265.236 185.699 265.604 185.077 266.34C184.472 267.076 184.169 268.05 184.169 269.26C184.169 270.454 184.464 271.419 185.052 272.155C185.658 272.891 186.435 273.259 187.383 273.259C187.858 273.259 188.299 273.161 188.708 272.965C189.133 272.752 189.518 272.507 189.861 272.229L191.015 274.093C190.458 274.584 189.837 274.952 189.15 275.198C188.463 275.443 187.776 275.566 187.089 275.566ZM196.072 275.566C195.026 275.566 194.167 275.238 193.496 274.584C192.842 273.93 192.515 273.079 192.515 272.032C192.515 270.74 193.079 269.743 194.208 269.039C195.336 268.319 197.136 267.829 199.606 267.567C199.589 266.929 199.417 266.381 199.09 265.923C198.779 265.449 198.215 265.212 197.397 265.212C196.808 265.212 196.228 265.326 195.655 265.555C195.099 265.784 194.551 266.062 194.011 266.389L192.981 264.5C193.652 264.075 194.404 263.707 195.238 263.396C196.089 263.085 196.988 262.93 197.937 262.93C199.442 262.93 200.562 263.38 201.298 264.279C202.051 265.163 202.427 266.447 202.427 268.131V275.271H200.096L199.9 273.946H199.802C199.262 274.404 198.681 274.789 198.06 275.099C197.455 275.41 196.792 275.566 196.072 275.566ZM196.98 273.357C197.471 273.357 197.913 273.243 198.305 273.014C198.714 272.769 199.148 272.441 199.606 272.032V269.334C197.97 269.546 196.833 269.865 196.195 270.29C195.557 270.699 195.238 271.206 195.238 271.812C195.238 272.351 195.402 272.744 195.729 272.989C196.056 273.235 196.473 273.357 196.98 273.357ZM208.552 275.566C207.554 275.566 206.842 275.263 206.417 274.658C206.008 274.053 205.804 273.227 205.804 272.18V257.949H208.625V272.327C208.625 272.67 208.691 272.916 208.822 273.063C208.952 273.194 209.091 273.259 209.239 273.259C209.304 273.259 209.361 273.259 209.41 273.259C209.476 273.243 209.566 273.227 209.68 273.21L210.048 275.32C209.885 275.386 209.672 275.443 209.41 275.492C209.165 275.541 208.879 275.566 208.552 275.566ZM215.213 275.566C214.215 275.566 213.503 275.263 213.078 274.658C212.669 274.053 212.465 273.227 212.465 272.18V257.949H215.286V272.327C215.286 272.67 215.352 272.916 215.483 273.063C215.613 273.194 215.752 273.259 215.9 273.259C215.965 273.259 216.022 273.259 216.071 273.259C216.137 273.243 216.227 273.227 216.341 273.21L216.709 275.32C216.546 275.386 216.333 275.443 216.071 275.492C215.826 275.541 215.54 275.566 215.213 275.566ZM219.935 280.227C219.608 280.227 219.322 280.203 219.077 280.154C218.831 280.105 218.594 280.047 218.365 279.982L218.88 277.774C218.995 277.806 219.126 277.839 219.273 277.872C219.436 277.921 219.592 277.945 219.739 277.945C220.377 277.945 220.884 277.749 221.26 277.357C221.653 276.98 221.947 276.49 222.143 275.885L222.364 275.124L217.629 263.224H220.5L222.585 269.137C222.765 269.661 222.937 270.217 223.1 270.806C223.28 271.378 223.46 271.951 223.64 272.523H223.738C223.885 271.967 224.033 271.403 224.18 270.83C224.343 270.241 224.499 269.677 224.646 269.137L226.462 263.224H229.185L224.818 275.811C224.311 277.169 223.697 278.24 222.978 279.025C222.258 279.827 221.244 280.227 219.935 280.227Z" fill="#AEB3BD"/>
<defs>
<linearGradient id="paint0_linear_444_731" x1="156.112" y1="66.3488" x2="156.112" y2="125.224" gradientUnits="userSpaceOnUse">
<stop offset="0.385417" stop-color="#FFCC33"/>
<stop offset="0.71875" stop-color="#FFAD33"/>
</linearGradient>
<linearGradient id="paint1_linear_444_731" x1="156.112" y1="66.3488" x2="156.112" y2="125.224" gradientUnits="userSpaceOnUse">
<stop offset="0.385417" stop-color="#FFCC33"/>
<stop offset="0.71875" stop-color="#FFAD33"/>
</linearGradient>
<linearGradient id="paint2_linear_444_731" x1="156.112" y1="66.3488" x2="156.112" y2="125.224" gradientUnits="userSpaceOnUse">
<stop offset="0.385417" stop-color="#FFCC33"/>
<stop offset="0.71875" stop-color="#FFAD33"/>
</linearGradient>
</defs>
</svg>
