<svg width="314" height="320" viewBox="0 0 314 320" fill="none" xmlns="http://www.w3.org/2000/svg">
<path d="M18.9063 1.21741H294.664C304.394 1.21741 312.282 9.10521 312.282 18.8353V300.721C312.282 310.451 304.395 318.339 294.664 318.339H18.9064C9.17628 318.339 1.28846 310.451 1.28846 300.721V18.8353C1.28846 9.10518 9.17625 1.21741 18.9063 1.21741Z" fill="#20242B"/>
<path d="M18.9063 1.21741H294.664C304.394 1.21741 312.282 9.10521 312.282 18.8353V300.721C312.282 310.451 304.395 318.339 294.664 318.339H18.9064C9.17628 318.339 1.28846 310.451 1.28846 300.721V18.8353C1.28846 9.10518 9.17625 1.21741 18.9063 1.21741Z" stroke="#4B535C" stroke-width="1.53199"/>
<rect x="101.688" y="37.219" width="110.195" height="110.195" rx="55.0975" fill="#EDE8FF" fill-opacity="0.12"/>
<path d="M169.412 73.9507C167.383 73.9507 165.739 75.5952 165.739 77.6238V109.764C165.739 110.271 166.15 110.682 166.657 110.682H174.462C176.491 110.682 178.136 109.038 178.136 107.009V77.6238C178.136 75.5952 176.491 73.9507 174.462 73.9507H169.412Z" fill="url(#paint0_linear_444_765)"/>
<path d="M150.587 87.725C150.587 85.6964 152.231 84.0519 154.26 84.0519H159.311C161.339 84.0519 162.984 85.6964 162.984 87.725V109.764C162.984 110.271 162.573 110.682 162.066 110.682H151.505C150.998 110.682 150.587 110.271 150.587 109.764V87.725Z" fill="url(#paint1_linear_444_765)"/>
<path d="M135.435 95.9897C135.435 93.961 137.08 92.3165 139.108 92.3165H144.159C146.187 92.3165 147.832 93.961 147.832 95.9897V109.764C147.832 110.271 147.421 110.682 146.914 110.682H139.108C137.08 110.682 135.435 109.038 135.435 107.009V95.9897Z" fill="url(#paint2_linear_444_765)"/>
<path d="M70.8859 201.798V177.678H84.7841V180.289H73.9744V187.826H83.0928V190.437H73.9744V199.187H85.1518V201.798H70.8859ZM93.4826 201.798L87.0482 183.929H90.2102L93.5561 194.04C94.1076 195.805 94.6591 197.606 95.2106 199.334H95.3577C95.8725 197.606 96.4607 195.805 97.0123 194.04L100.358 183.929H103.373L97.049 201.798H93.4826ZM110.221 202.239C107.243 202.239 105 200.401 105 197.165C105 193.194 108.309 191.282 115.957 190.437C115.92 188.194 115.184 186.024 112.28 186.024C110.221 186.024 108.346 186.944 106.948 187.863L105.772 185.804C107.426 184.701 109.927 183.488 112.795 183.488C117.133 183.488 119.008 186.392 119.008 190.804V201.798H116.508L116.214 199.665H116.104C114.412 201.099 112.464 202.239 110.221 202.239ZM111.066 199.739C112.795 199.739 114.228 198.967 115.957 197.459V192.606C109.927 193.305 107.978 194.665 107.978 196.981C107.978 198.967 109.338 199.739 111.066 199.739ZM127.829 202.239C125.549 202.239 124.63 200.768 124.63 198.195V175.619H127.682V198.415C127.682 199.371 128.086 199.702 128.564 199.702C128.748 199.702 128.895 199.702 129.189 199.629L129.594 201.908C129.153 202.129 128.601 202.239 127.829 202.239ZM139.223 202.239C135.436 202.239 133.744 199.812 133.744 195.253V183.929H136.796V194.849C136.796 198.158 137.826 199.592 140.179 199.592C141.98 199.592 143.267 198.673 144.922 196.577V183.929H147.974V201.798H145.473L145.216 199.004H145.106C143.451 200.952 141.686 202.239 139.223 202.239ZM158.119 202.239C155.141 202.239 152.898 200.401 152.898 197.165C152.898 193.194 156.207 191.282 163.855 190.437C163.818 188.194 163.083 186.024 160.178 186.024C158.119 186.024 156.244 186.944 154.847 187.863L153.67 185.804C155.325 184.701 157.825 183.488 160.693 183.488C165.032 183.488 166.907 186.392 166.907 190.804V201.798H164.407L164.113 199.665H164.002C162.311 201.099 160.362 202.239 158.119 202.239ZM158.965 199.739C160.693 199.739 162.127 198.967 163.855 197.459V192.606C157.825 193.305 155.877 194.665 155.877 196.981C155.877 198.967 157.237 199.739 158.965 199.739ZM177.652 202.239C173.828 202.239 172.541 199.812 172.541 196.246V186.392H169.894V184.113L172.688 183.929L173.056 178.193H175.593V183.929H180.446V186.392H175.593V196.319C175.593 198.489 176.328 199.739 178.35 199.739C179.012 199.739 179.674 199.629 180.409 199.298L181.034 201.467C180.078 201.908 178.865 202.239 177.652 202.239ZM184.486 201.798V183.929H187.537V201.798H184.486ZM186.03 180.252C184.853 180.252 184.008 179.48 184.008 178.266C184.008 177.09 184.853 176.281 186.03 176.281C187.206 176.281 188.052 177.09 188.052 178.266C188.052 179.48 187.206 180.252 186.03 180.252ZM200.519 202.239C196.144 202.239 192.246 198.82 192.246 192.9C192.246 186.907 196.144 183.488 200.519 183.488C204.894 183.488 208.828 186.907 208.828 192.9C208.828 198.82 204.894 202.239 200.519 202.239ZM200.519 199.702C203.607 199.702 205.666 196.981 205.666 192.9C205.666 188.782 203.607 186.024 200.519 186.024C197.467 186.024 195.408 188.782 195.408 192.9C195.408 196.981 197.467 199.702 200.519 199.702ZM213.498 201.798V183.929H215.998L216.255 186.502H216.366C218.057 184.811 219.895 183.488 222.359 183.488C226.146 183.488 227.837 185.914 227.837 190.473V201.798H224.785V190.878C224.785 187.532 223.756 186.135 221.403 186.135C219.601 186.135 218.314 187.054 216.549 188.856V201.798H213.498ZM238.275 202.239C235.664 202.239 233.274 201.283 231.62 199.665L233.017 197.9C234.561 199.187 236.179 199.849 238.385 199.849C240.738 199.849 241.878 198.636 241.878 197.092C241.878 195.253 239.892 194.481 237.87 193.746C235.186 192.79 232.612 191.503 232.612 188.561C232.612 185.694 234.892 183.488 238.789 183.488C241.032 183.488 242.944 184.333 244.341 185.51L242.944 187.275C241.694 186.355 240.407 185.841 238.826 185.841C236.546 185.841 235.554 187.091 235.554 188.414C235.554 190.032 237.098 190.694 239.341 191.466C242.135 192.459 244.819 193.672 244.819 196.908C244.819 199.812 242.503 202.239 238.275 202.239Z" fill="white"/>
<path d="M35.5904 246.141V230.111H41.0075C42.1187 230.111 43.1155 230.258 43.9979 230.552C44.8967 230.846 45.5993 231.344 46.1059 232.047C46.6288 232.733 46.8903 233.673 46.8903 234.866C46.8903 236.092 46.5962 237.08 46.0079 237.832C45.4359 238.584 44.6679 239.123 43.7038 239.45L47.5276 246.141H44.3411L40.8849 239.866H38.4337V246.141H35.5904ZM38.4337 237.611H40.7133C41.8082 237.611 42.6416 237.382 43.2135 236.925C43.8018 236.451 44.096 235.765 44.096 234.866C44.096 233.951 43.8018 233.313 43.2135 232.954C42.6416 232.578 41.8082 232.39 40.7133 232.39H38.4337V237.611ZM49.8513 246.141V234.106H52.6701V246.141H49.8513ZM51.2729 231.998C50.7664 231.998 50.3578 231.851 50.0474 231.557C49.7369 231.263 49.5816 230.87 49.5816 230.38C49.5816 229.906 49.7369 229.522 50.0474 229.228C50.3578 228.934 50.7664 228.787 51.2729 228.787C51.7795 228.787 52.1881 228.934 52.4985 229.228C52.809 229.522 52.9643 229.906 52.9643 230.38C52.9643 230.87 52.809 231.263 52.4985 231.557C52.1881 231.851 51.7795 231.998 51.2729 231.998ZM60.458 251.46C59.5102 251.46 58.6523 251.346 57.8842 251.117C57.1325 250.888 56.5361 250.537 56.0949 250.063C55.67 249.606 55.4576 249.026 55.4576 248.323C55.4576 247.326 56.0295 246.468 57.1734 245.749V245.651C56.8629 245.455 56.6015 245.194 56.389 244.867C56.1929 244.54 56.0949 244.131 56.0949 243.641C56.0949 243.167 56.2256 242.742 56.4871 242.367C56.7649 241.974 57.0754 241.656 57.4185 241.411V241.313C57.01 241.002 56.6423 240.569 56.3155 240.013C56.005 239.458 55.8498 238.829 55.8498 238.126C55.8498 237.195 56.0704 236.41 56.5116 235.773C56.9528 235.136 57.5329 234.653 58.2519 234.327C58.9873 233.983 59.7717 233.812 60.6051 233.812C60.9319 233.812 61.2424 233.845 61.5365 233.91C61.847 233.959 62.1248 234.024 62.3699 234.106H66.684V236.19H64.4779C64.674 236.418 64.8374 236.712 64.9682 237.072C65.0989 237.415 65.1643 237.799 65.1643 238.224C65.1643 239.106 64.96 239.858 64.5515 240.479C64.1429 241.084 63.5955 241.541 62.9092 241.852C62.2228 242.162 61.4548 242.318 60.6051 242.318C60.3436 242.318 60.074 242.293 59.7962 242.244C59.5184 242.195 59.2406 242.113 58.9628 241.999C58.783 242.162 58.6359 242.326 58.5216 242.489C58.4235 242.653 58.3745 242.873 58.3745 243.151C58.3745 243.494 58.5134 243.764 58.7912 243.96C59.0853 244.156 59.6001 244.254 60.3354 244.254H62.468C63.9223 244.254 65.0172 244.491 65.7525 244.965C66.5042 245.422 66.8801 246.174 66.8801 247.22C66.8801 248.004 66.6186 248.715 66.0957 249.352C65.5728 250.006 64.8293 250.521 63.8651 250.897C62.901 251.273 61.7653 251.46 60.458 251.46ZM60.6051 240.553C61.177 240.553 61.6672 240.34 62.0758 239.915C62.4843 239.49 62.6886 238.894 62.6886 238.126C62.6886 237.374 62.4843 236.794 62.0758 236.386C61.6836 235.961 61.1933 235.748 60.6051 235.748C60.0168 235.748 59.5184 235.953 59.1098 236.361C58.7013 236.77 58.497 237.358 58.497 238.126C58.497 238.894 58.7013 239.49 59.1098 239.915C59.5184 240.34 60.0168 240.553 60.6051 240.553ZM60.8992 249.622C61.8633 249.622 62.6477 249.426 63.2523 249.034C63.857 248.642 64.1593 248.192 64.1593 247.686C64.1593 247.212 63.9713 246.893 63.5955 246.73C63.236 246.566 62.7131 246.485 62.0267 246.485H60.3845C59.7308 246.485 59.1834 246.427 58.7422 246.313C58.1212 246.787 57.8107 247.318 57.8107 247.906C57.8107 248.445 58.0885 248.862 58.6441 249.156C59.1997 249.467 59.9514 249.622 60.8992 249.622ZM73.545 246.435C72.5482 246.435 71.6167 246.19 70.7507 245.7C69.8846 245.194 69.1819 244.475 68.6426 243.543C68.1034 242.595 67.8337 241.46 67.8337 240.136C67.8337 238.796 68.1034 237.66 68.6426 236.729C69.1819 235.781 69.8846 235.062 70.7507 234.572C71.6167 234.065 72.5482 233.812 73.545 233.812C74.5582 233.812 75.4978 234.065 76.3639 234.572C77.2299 235.062 77.9326 235.781 78.4719 236.729C79.0111 237.66 79.2808 238.796 79.2808 240.136C79.2808 241.46 79.0111 242.595 78.4719 243.543C77.9326 244.475 77.2299 245.194 76.3639 245.7C75.4978 246.19 74.5582 246.435 73.545 246.435ZM73.545 244.131C74.4274 244.131 75.1219 243.764 75.6285 243.028C76.1351 242.293 76.3884 241.329 76.3884 240.136C76.3884 238.927 76.1351 237.954 75.6285 237.219C75.1219 236.484 74.4274 236.116 73.545 236.116C72.6626 236.116 71.9681 236.484 71.4615 237.219C70.9713 237.954 70.7261 238.927 70.7261 240.136C70.7261 241.329 70.9713 242.293 71.4615 243.028C71.9681 243.764 72.6626 244.131 73.545 244.131ZM82.0709 246.141V234.106H84.3995L84.5956 236.239H84.6937C85.1185 235.454 85.6333 234.858 86.2379 234.449C86.8425 234.024 87.4635 233.812 88.1008 233.812C88.6728 233.812 89.1303 233.894 89.4735 234.057L88.9832 236.508C88.7708 236.443 88.5747 236.394 88.395 236.361C88.2152 236.328 87.9946 236.312 87.7331 236.312C87.2592 236.312 86.7608 236.5 86.2379 236.876C85.715 237.235 85.2656 237.873 84.8898 238.788V246.141H82.0709ZM95.9025 246.435C94.9057 246.435 93.9742 246.19 93.1081 245.7C92.242 245.194 91.5394 244.475 91.0001 243.543C90.4608 242.595 90.1912 241.46 90.1912 240.136C90.1912 238.796 90.4608 237.66 91.0001 236.729C91.5394 235.781 92.242 235.062 93.1081 234.572C93.9742 234.065 94.9057 233.812 95.9025 233.812C96.9156 233.812 97.8553 234.065 98.7213 234.572C99.5874 235.062 100.29 235.781 100.829 236.729C101.369 237.66 101.638 238.796 101.638 240.136C101.638 241.46 101.369 242.595 100.829 243.543C100.29 244.475 99.5874 245.194 98.7213 245.7C97.8553 246.19 96.9156 246.435 95.9025 246.435ZM95.9025 244.131C96.7849 244.131 97.4794 243.764 97.986 243.028C98.4926 242.293 98.7458 241.329 98.7458 240.136C98.7458 238.927 98.4926 237.954 97.986 237.219C97.4794 236.484 96.7849 236.116 95.9025 236.116C95.02 236.116 94.3255 236.484 93.819 237.219C93.3287 237.954 93.0836 238.927 93.0836 240.136C93.0836 241.329 93.3287 242.293 93.819 243.028C94.3255 243.764 95.02 244.131 95.9025 244.131ZM108.007 246.435C106.716 246.435 105.777 246.019 105.188 245.185C104.6 244.352 104.306 243.175 104.306 241.656V234.106H107.125V241.288C107.125 242.285 107.272 242.988 107.566 243.396C107.86 243.805 108.334 244.009 108.988 244.009C109.51 244.009 109.968 243.878 110.36 243.617C110.769 243.355 111.202 242.93 111.659 242.342V234.106H114.478V246.141H112.174L111.954 244.377H111.88C111.357 244.997 110.785 245.496 110.164 245.872C109.543 246.248 108.824 246.435 108.007 246.435ZM121.407 246.435C120.59 246.435 119.773 246.28 118.956 245.97C118.139 245.643 117.436 245.243 116.848 244.769L118.171 242.955C118.711 243.363 119.25 243.69 119.789 243.935C120.328 244.18 120.9 244.303 121.505 244.303C122.159 244.303 122.641 244.164 122.951 243.886C123.262 243.608 123.417 243.265 123.417 242.857C123.417 242.514 123.286 242.236 123.025 242.023C122.78 241.795 122.461 241.598 122.069 241.435C121.676 241.255 121.268 241.084 120.843 240.92C120.32 240.724 119.797 240.487 119.274 240.209C118.768 239.915 118.351 239.548 118.024 239.106C117.697 238.649 117.534 238.085 117.534 237.415C117.534 236.353 117.926 235.487 118.711 234.817C119.495 234.147 120.557 233.812 121.897 233.812C122.747 233.812 123.507 233.959 124.177 234.253C124.847 234.547 125.427 234.882 125.917 235.258L124.618 236.974C124.193 236.663 123.76 236.418 123.319 236.239C122.894 236.042 122.445 235.944 121.971 235.944C121.366 235.944 120.917 236.075 120.622 236.337C120.328 236.582 120.181 236.892 120.181 237.268C120.181 237.742 120.426 238.101 120.917 238.347C121.407 238.592 121.979 238.829 122.632 239.057C123.188 239.254 123.727 239.499 124.25 239.793C124.773 240.071 125.206 240.438 125.549 240.896C125.909 241.353 126.089 241.958 126.089 242.71C126.089 243.739 125.688 244.622 124.888 245.357C124.087 246.076 122.927 246.435 121.407 246.435ZM138.66 246.435C137.549 246.435 136.544 246.19 135.645 245.7C134.746 245.194 134.035 244.475 133.512 243.543C132.989 242.595 132.728 241.46 132.728 240.136C132.728 238.829 132.989 237.701 133.512 236.753C134.052 235.806 134.746 235.078 135.596 234.572C136.445 234.065 137.336 233.812 138.268 233.812C139.362 233.812 140.278 234.057 141.013 234.547C141.748 235.021 142.304 235.691 142.68 236.557C143.056 237.407 143.243 238.396 143.243 239.523C143.243 240.111 143.203 240.569 143.121 240.896H135.473C135.604 241.958 135.988 242.783 136.625 243.372C137.263 243.96 138.063 244.254 139.027 244.254C139.55 244.254 140.032 244.18 140.474 244.033C140.931 243.87 141.381 243.649 141.822 243.372L142.778 245.136C142.206 245.512 141.568 245.823 140.866 246.068C140.163 246.313 139.428 246.435 138.66 246.435ZM135.449 238.984H140.792C140.792 238.052 140.588 237.325 140.179 236.802C139.771 236.263 139.158 235.993 138.341 235.993C137.638 235.993 137.009 236.255 136.454 236.778C135.914 237.284 135.579 238.02 135.449 238.984ZM148.632 246.141L144.44 234.106H147.308L149.22 240.357C149.384 240.945 149.547 241.541 149.711 242.146C149.89 242.751 150.062 243.363 150.225 243.984H150.323C150.503 243.363 150.675 242.751 150.838 242.146C151.018 241.541 151.189 240.945 151.353 240.357L153.265 234.106H155.986L151.892 246.141H148.632ZM160.51 246.435C159.464 246.435 158.606 246.109 157.936 245.455C157.283 244.801 156.956 243.952 156.956 242.906C156.956 241.615 157.52 240.618 158.647 239.915C159.775 239.196 161.572 238.706 164.04 238.445C164.023 237.807 163.852 237.26 163.525 236.802C163.215 236.328 162.651 236.092 161.834 236.092C161.245 236.092 160.665 236.206 160.093 236.435C159.538 236.663 158.99 236.941 158.451 237.268L157.422 235.381C158.092 234.956 158.843 234.588 159.677 234.278C160.526 233.967 161.425 233.812 162.373 233.812C163.876 233.812 164.996 234.261 165.731 235.16C166.483 236.042 166.859 237.325 166.859 239.008V246.141H164.53L164.334 244.818H164.236C163.697 245.275 163.117 245.659 162.496 245.97C161.891 246.28 161.229 246.435 160.51 246.435ZM161.417 244.229C161.907 244.229 162.348 244.115 162.741 243.886C163.149 243.641 163.582 243.314 164.04 242.906V240.209C162.406 240.422 161.27 240.741 160.633 241.165C159.995 241.574 159.677 242.081 159.677 242.685C159.677 243.224 159.84 243.617 160.167 243.862C160.494 244.107 160.91 244.229 161.417 244.229ZM172.977 246.435C171.981 246.435 171.27 246.133 170.845 245.529C170.436 244.924 170.232 244.099 170.232 243.053V228.836H173.051V243.2C173.051 243.543 173.116 243.788 173.247 243.935C173.378 244.066 173.517 244.131 173.664 244.131C173.729 244.131 173.786 244.131 173.835 244.131C173.901 244.115 173.991 244.099 174.105 244.082L174.473 246.19C174.309 246.256 174.097 246.313 173.835 246.362C173.59 246.411 173.304 246.435 172.977 246.435ZM180.465 246.435C179.174 246.435 178.235 246.019 177.647 245.185C177.058 244.352 176.764 243.175 176.764 241.656V234.106H179.583V241.288C179.583 242.285 179.73 242.988 180.024 243.396C180.318 243.805 180.792 244.009 181.446 244.009C181.969 244.009 182.426 243.878 182.819 243.617C183.227 243.355 183.66 242.93 184.118 242.342V234.106H186.937V246.141H184.632L184.412 244.377H184.338C183.815 244.997 183.243 245.496 182.622 245.872C182.001 246.248 181.282 246.435 180.465 246.435ZM193.424 246.435C192.378 246.435 191.52 246.109 190.85 245.455C190.197 244.801 189.87 243.952 189.87 242.906C189.87 241.615 190.433 240.618 191.561 239.915C192.689 239.196 194.486 238.706 196.954 238.445C196.937 237.807 196.766 237.26 196.439 236.802C196.128 236.328 195.565 236.092 194.748 236.092C194.159 236.092 193.579 236.206 193.007 236.435C192.452 236.663 191.904 236.941 191.365 237.268L190.335 235.381C191.005 234.956 191.757 234.588 192.591 234.278C193.44 233.967 194.339 233.812 195.287 233.812C196.79 233.812 197.91 234.261 198.645 235.16C199.397 236.042 199.772 237.325 199.772 239.008V246.141H197.444L197.248 244.818H197.15C196.61 245.275 196.03 245.659 195.409 245.97C194.805 246.28 194.143 246.435 193.424 246.435ZM194.331 244.229C194.821 244.229 195.262 244.115 195.654 243.886C196.063 243.641 196.496 243.314 196.954 242.906V240.209C195.32 240.422 194.184 240.741 193.546 241.165C192.909 241.574 192.591 242.081 192.591 242.685C192.591 243.224 192.754 243.617 193.081 243.862C193.408 244.107 193.824 244.229 194.331 244.229ZM207.003 246.435C205.614 246.435 204.626 246.035 204.038 245.234C203.466 244.417 203.18 243.363 203.18 242.072V236.337H201.464V234.229L203.327 234.106L203.67 230.821H206.023V234.106H209.087V236.337H206.023V242.072C206.023 243.478 206.587 244.18 207.714 244.18C207.927 244.18 208.147 244.156 208.376 244.107C208.605 244.042 208.801 243.976 208.964 243.911L209.455 245.994C209.128 246.109 208.752 246.207 208.327 246.288C207.919 246.386 207.477 246.435 207.003 246.435ZM211.62 246.141V234.106H214.439V246.141H211.62ZM213.041 231.998C212.535 231.998 212.126 231.851 211.816 231.557C211.505 231.263 211.35 230.87 211.35 230.38C211.35 229.906 211.505 229.522 211.816 229.228C212.126 228.934 212.535 228.787 213.041 228.787C213.548 228.787 213.957 228.934 214.267 229.228C214.578 229.522 214.733 229.906 214.733 230.38C214.733 230.87 214.578 231.263 214.267 231.557C213.957 231.851 213.548 231.998 213.041 231.998ZM222.962 246.435C221.965 246.435 221.034 246.19 220.167 245.7C219.301 245.194 218.599 244.475 218.059 243.543C217.52 242.595 217.251 241.46 217.251 240.136C217.251 238.796 217.52 237.66 218.059 236.729C218.599 235.781 219.301 235.062 220.167 234.572C221.034 234.065 221.965 233.812 222.962 233.812C223.975 233.812 224.915 234.065 225.781 234.572C226.647 235.062 227.349 235.781 227.889 236.729C228.428 237.66 228.698 238.796 228.698 240.136C228.698 241.46 228.428 242.595 227.889 243.543C227.349 244.475 226.647 245.194 225.781 245.7C224.915 246.19 223.975 246.435 222.962 246.435ZM222.962 244.131C223.844 244.131 224.539 243.764 225.045 243.028C225.552 242.293 225.805 241.329 225.805 240.136C225.805 238.927 225.552 237.954 225.045 237.219C224.539 236.484 223.844 236.116 222.962 236.116C222.079 236.116 221.385 236.484 220.878 237.219C220.388 237.954 220.143 238.927 220.143 240.136C220.143 241.329 220.388 242.293 220.878 243.028C221.385 243.764 222.079 244.131 222.962 244.131ZM231.488 246.141V234.106H233.816L234.012 235.724H234.111C234.65 235.201 235.238 234.752 235.875 234.376C236.513 234 237.24 233.812 238.057 233.812C239.348 233.812 240.288 234.229 240.876 235.062C241.464 235.895 241.758 237.072 241.758 238.592V246.141H238.939V238.959C238.939 237.963 238.792 237.26 238.498 236.851C238.204 236.443 237.722 236.239 237.052 236.239C236.529 236.239 236.063 236.369 235.655 236.631C235.263 236.876 234.813 237.244 234.307 237.734V246.141H231.488ZM248.562 246.435C247.745 246.435 246.928 246.28 246.111 245.97C245.294 245.643 244.591 245.243 244.003 244.769L245.326 242.955C245.866 243.363 246.405 243.69 246.944 243.935C247.483 244.18 248.055 244.303 248.66 244.303C249.314 244.303 249.796 244.164 250.106 243.886C250.417 243.608 250.572 243.265 250.572 242.857C250.572 242.514 250.441 242.236 250.18 242.023C249.935 241.795 249.616 241.598 249.224 241.435C248.832 241.255 248.423 241.084 247.998 240.92C247.475 240.724 246.952 240.487 246.429 240.209C245.923 239.915 245.506 239.548 245.179 239.106C244.852 238.649 244.689 238.085 244.689 237.415C244.689 236.353 245.081 235.487 245.866 234.817C246.65 234.147 247.712 233.812 249.052 233.812C249.902 233.812 250.662 233.959 251.332 234.253C252.002 234.547 252.582 234.882 253.072 235.258L251.773 236.974C251.348 236.663 250.915 236.418 250.474 236.239C250.049 236.042 249.6 235.944 249.126 235.944C248.521 235.944 248.072 236.075 247.778 236.337C247.483 236.582 247.336 236.892 247.336 237.268C247.336 237.742 247.581 238.101 248.072 238.347C248.562 238.592 249.134 238.829 249.788 239.057C250.343 239.254 250.882 239.499 251.405 239.793C251.928 240.071 252.361 240.438 252.704 240.896C253.064 241.353 253.244 241.958 253.244 242.71C253.244 243.739 252.843 244.622 252.043 245.357C251.242 246.076 250.082 246.435 248.562 246.435ZM265.594 246.435C264.597 246.435 263.666 246.19 262.8 245.7C261.934 245.194 261.231 244.475 260.692 243.543C260.153 242.595 259.883 241.46 259.883 240.136C259.883 238.796 260.153 237.66 260.692 236.729C261.231 235.781 261.934 235.062 262.8 234.572C263.666 234.065 264.597 233.812 265.594 233.812C266.607 233.812 267.547 234.065 268.413 234.572C269.279 235.062 269.982 235.781 270.521 236.729C271.06 237.66 271.33 238.796 271.33 240.136C271.33 241.46 271.06 242.595 270.521 243.543C269.982 244.475 269.279 245.194 268.413 245.7C267.547 246.19 266.607 246.435 265.594 246.435ZM265.594 244.131C266.477 244.131 267.171 243.764 267.678 243.028C268.184 242.293 268.438 241.329 268.438 240.136C268.438 238.927 268.184 237.954 267.678 237.219C267.171 236.484 266.477 236.116 265.594 236.116C264.712 236.116 264.017 236.484 263.511 237.219C263.02 237.954 262.775 238.927 262.775 240.136C262.775 241.329 263.02 242.293 263.511 243.028C264.017 243.764 264.712 244.131 265.594 244.131ZM274.515 246.141V236.337H272.897V234.229L274.515 234.106V232.856C274.515 231.598 274.825 230.568 275.446 229.767C276.067 228.95 277.088 228.542 278.51 228.542C278.935 228.542 279.343 228.583 279.736 228.664C280.128 228.746 280.455 228.844 280.716 228.959L280.177 231.067C279.736 230.87 279.294 230.772 278.853 230.772C277.84 230.772 277.333 231.451 277.333 232.807V234.106H279.687V236.337H277.333V246.141H274.515ZM67.1655 275.435C65.7275 275.435 64.4365 275.117 63.2926 274.48C62.1488 273.842 61.25 272.911 60.5963 271.685C59.9427 270.443 59.6159 268.94 59.6159 267.175C59.6159 265.427 59.9509 263.931 60.6209 262.689C61.2908 261.431 62.1978 260.475 63.3417 259.821C64.4856 259.151 65.7683 258.816 67.19 258.816C68.3339 258.816 69.298 259.029 70.0824 259.454C70.8831 259.862 71.5368 260.328 72.0434 260.851L70.5236 262.689C70.1151 262.297 69.6576 261.97 69.151 261.709C68.6607 261.431 68.0398 261.292 67.2881 261.292C65.8664 261.292 64.7143 261.815 63.8319 262.861C62.9658 263.89 62.5328 265.304 62.5328 267.101C62.5328 268.932 62.9495 270.37 63.7829 271.416C64.6163 272.445 65.8337 272.96 67.4351 272.96C67.8927 272.96 68.3257 272.903 68.7343 272.788C69.1428 272.657 69.4778 272.478 69.7393 272.249V268.793H66.6998V266.464H72.2885V273.524C71.7492 274.063 71.0302 274.52 70.1314 274.896C69.249 275.256 68.2604 275.435 67.1655 275.435ZM80.7433 275.435C79.6321 275.435 78.6272 275.19 77.7284 274.7C76.8296 274.194 76.1188 273.475 75.5959 272.543C75.0729 271.595 74.8115 270.46 74.8115 269.136C74.8115 267.829 75.0729 266.701 75.5959 265.753C76.1351 264.806 76.8296 264.078 77.6794 263.572C78.5291 263.065 79.4197 262.812 80.3512 262.812C81.446 262.812 82.3611 263.057 83.0965 263.547C83.8318 264.021 84.3874 264.691 84.7633 265.557C85.1391 266.407 85.3271 267.396 85.3271 268.523C85.3271 269.111 85.2862 269.569 85.2045 269.896H77.5568C77.6875 270.958 78.0716 271.783 78.7089 272.372C79.3462 272.96 80.1469 273.254 81.111 273.254C81.6339 273.254 82.116 273.18 82.5572 273.033C83.0148 272.87 83.4642 272.649 83.9054 272.372L84.8613 274.136C84.2894 274.512 83.6521 274.823 82.9494 275.068C82.2467 275.313 81.5114 275.435 80.7433 275.435ZM77.5323 267.984H82.8759C82.8759 267.052 82.6716 266.325 82.2631 265.802C81.8546 265.263 81.2418 264.993 80.4247 264.993C79.722 264.993 79.0929 265.255 78.5373 265.778C77.998 266.284 77.663 267.02 77.5323 267.984ZM88.0193 275.141V263.106H90.348L90.5441 264.724H90.6421C91.1814 264.201 91.7697 263.752 92.407 263.376C93.0443 263 93.7714 262.812 94.5885 262.812C95.8795 262.812 96.8191 263.229 97.4074 264.062C97.9957 264.895 98.2898 266.072 98.2898 267.592V275.141H95.4709V267.959C95.4709 266.963 95.3239 266.26 95.0297 265.851C94.7356 265.443 94.2535 265.239 93.5835 265.239C93.0606 265.239 92.5949 265.369 92.1864 265.631C91.7942 265.876 91.3448 266.244 90.8382 266.734V275.141H88.0193ZM105.265 266.611L104.701 268.572H108.795L108.231 266.611C107.97 265.761 107.716 264.887 107.471 263.988C107.242 263.09 107.014 262.199 106.785 261.317H106.687C106.474 262.215 106.246 263.114 106 264.013C105.772 264.895 105.527 265.761 105.265 266.611ZM99.897 275.141L105.118 259.111H108.452L113.673 275.141H110.682L109.432 270.803H104.04L102.789 275.141H99.897ZM115.649 275.141V259.111H118.492V275.141H115.649ZM130.146 275.435C129.1 275.435 128.242 275.109 127.572 274.455C126.918 273.801 126.591 272.952 126.591 271.906C126.591 270.615 127.155 269.618 128.283 268.915C129.41 268.196 131.208 267.706 133.675 267.445C133.659 266.807 133.487 266.26 133.161 265.802C132.85 265.328 132.286 265.092 131.469 265.092C130.881 265.092 130.301 265.206 129.729 265.435C129.173 265.663 128.626 265.941 128.087 266.268L127.057 264.381C127.727 263.956 128.479 263.588 129.312 263.278C130.162 262.967 131.061 262.812 132.009 262.812C133.512 262.812 134.631 263.261 135.367 264.16C136.118 265.042 136.494 266.325 136.494 268.008V275.141H134.166L133.969 273.818H133.871C133.332 274.275 132.752 274.659 132.131 274.97C131.526 275.28 130.865 275.435 130.146 275.435ZM131.053 273.229C131.543 273.229 131.984 273.115 132.376 272.886C132.785 272.641 133.218 272.314 133.675 271.906V269.209C132.041 269.422 130.905 269.741 130.268 270.165C129.631 270.574 129.312 271.081 129.312 271.685C129.312 272.224 129.476 272.617 129.802 272.862C130.129 273.107 130.546 273.229 131.053 273.229ZM139.868 279.897V263.106H142.196L142.392 264.381H142.49C142.997 263.956 143.561 263.588 144.182 263.278C144.819 262.967 145.464 262.812 146.118 262.812C147.622 262.812 148.782 263.368 149.599 264.479C150.432 265.59 150.849 267.077 150.849 268.94C150.849 270.313 150.604 271.489 150.114 272.47C149.623 273.434 148.986 274.169 148.202 274.676C147.434 275.182 146.6 275.435 145.701 275.435C145.178 275.435 144.656 275.321 144.133 275.092C143.61 274.847 143.103 274.52 142.613 274.112L142.686 276.122V279.897H139.868ZM145.113 273.107C145.914 273.107 146.584 272.756 147.123 272.053C147.662 271.35 147.932 270.321 147.932 268.964C147.932 267.755 147.728 266.816 147.319 266.146C146.911 265.476 146.249 265.141 145.334 265.141C144.484 265.141 143.602 265.59 142.686 266.489V272.102C143.128 272.461 143.553 272.723 143.961 272.886C144.37 273.033 144.754 273.107 145.113 273.107ZM153.703 279.897V263.106H156.032L156.228 264.381H156.326C156.833 263.956 157.396 263.588 158.017 263.278C158.655 262.967 159.3 262.812 159.954 262.812C161.457 262.812 162.618 263.368 163.435 264.479C164.268 265.59 164.685 267.077 164.685 268.94C164.685 270.313 164.44 271.489 163.949 272.47C163.459 273.434 162.822 274.169 162.037 274.676C161.269 275.182 160.436 275.435 159.537 275.435C159.014 275.435 158.491 275.321 157.968 275.092C157.446 274.847 156.939 274.52 156.449 274.112L156.522 276.122V279.897H153.703ZM158.949 273.107C159.75 273.107 160.42 272.756 160.959 272.053C161.498 271.35 161.768 270.321 161.768 268.964C161.768 267.755 161.564 266.816 161.155 266.146C160.746 265.476 160.085 265.141 159.17 265.141C158.32 265.141 157.437 265.59 156.522 266.489V272.102C156.963 272.461 157.388 272.723 157.797 272.886C158.205 273.033 158.589 273.107 158.949 273.107ZM170.284 275.435C169.288 275.435 168.577 275.133 168.152 274.529C167.743 273.924 167.539 273.099 167.539 272.053V257.836H170.358V272.2C170.358 272.543 170.423 272.788 170.554 272.935C170.685 273.066 170.824 273.131 170.971 273.131C171.036 273.131 171.093 273.131 171.142 273.131C171.208 273.115 171.298 273.099 171.412 273.082L171.78 275.19C171.616 275.256 171.404 275.313 171.142 275.362C170.897 275.411 170.611 275.435 170.284 275.435ZM174.194 275.141V263.106H177.013V275.141H174.194ZM175.615 260.998C175.109 260.998 174.7 260.851 174.39 260.557C174.079 260.263 173.924 259.87 173.924 259.38C173.924 258.906 174.079 258.522 174.39 258.228C174.7 257.934 175.109 257.787 175.615 257.787C176.122 257.787 176.531 257.934 176.841 258.228C177.151 258.522 177.307 258.906 177.307 259.38C177.307 259.87 177.151 260.263 176.841 260.557C176.531 260.851 176.122 260.998 175.615 260.998ZM185.634 275.435C184.539 275.435 183.55 275.19 182.668 274.7C181.802 274.194 181.107 273.475 180.584 272.543C180.078 271.595 179.825 270.46 179.825 269.136C179.825 267.796 180.102 266.66 180.658 265.729C181.214 264.781 181.949 264.062 182.864 263.572C183.795 263.065 184.792 262.812 185.854 262.812C186.623 262.812 187.293 262.943 187.864 263.204C188.436 263.466 188.943 263.784 189.384 264.16L188.012 265.998C187.701 265.721 187.382 265.508 187.056 265.361C186.729 265.198 186.377 265.116 186.002 265.116C185.037 265.116 184.245 265.484 183.624 266.219C183.019 266.954 182.717 267.927 182.717 269.136C182.717 270.329 183.011 271.293 183.599 272.028C184.204 272.764 184.98 273.131 185.928 273.131C186.402 273.131 186.843 273.033 187.252 272.837C187.677 272.625 188.061 272.38 188.404 272.102L189.556 273.965C189 274.455 188.379 274.823 187.693 275.068C187.007 275.313 186.32 275.435 185.634 275.435ZM194.609 275.435C193.563 275.435 192.705 275.109 192.035 274.455C191.381 273.801 191.055 272.952 191.055 271.906C191.055 270.615 191.618 269.618 192.746 268.915C193.873 268.196 195.671 267.706 198.139 267.445C198.122 266.807 197.951 266.26 197.624 265.802C197.313 265.328 196.75 265.092 195.932 265.092C195.344 265.092 194.764 265.206 194.192 265.435C193.637 265.663 193.089 265.941 192.55 266.268L191.52 264.381C192.19 263.956 192.942 263.588 193.775 263.278C194.625 262.967 195.524 262.812 196.472 262.812C197.975 262.812 199.095 263.261 199.83 264.16C200.582 265.042 200.957 266.325 200.957 268.008V275.141H198.629L198.433 273.818H198.335C197.795 274.275 197.215 274.659 196.594 274.97C195.99 275.28 195.328 275.435 194.609 275.435ZM195.516 273.229C196.006 273.229 196.447 273.115 196.839 272.886C197.248 272.641 197.681 272.314 198.139 271.906V269.209C196.504 269.422 195.369 269.741 194.731 270.165C194.094 270.574 193.775 271.081 193.775 271.685C193.775 272.224 193.939 272.617 194.266 272.862C194.593 273.107 195.009 273.229 195.516 273.229ZM208.188 275.435C206.799 275.435 205.811 275.035 205.222 274.234C204.651 273.417 204.365 272.363 204.365 271.072V265.337H202.649V263.229L204.512 263.106L204.855 259.821H207.208V263.106H210.272V265.337H207.208V271.072C207.208 272.478 207.772 273.18 208.899 273.18C209.112 273.18 209.332 273.156 209.561 273.107C209.79 273.042 209.986 272.976 210.149 272.911L210.64 274.994C210.313 275.109 209.937 275.207 209.512 275.288C209.103 275.386 208.662 275.435 208.188 275.435ZM212.805 275.141V263.106H215.624V275.141H212.805ZM214.226 260.998C213.72 260.998 213.311 260.851 213.001 260.557C212.69 260.263 212.535 259.87 212.535 259.38C212.535 258.906 212.69 258.522 213.001 258.228C213.311 257.934 213.72 257.787 214.226 257.787C214.733 257.787 215.141 257.934 215.452 258.228C215.762 258.522 215.918 258.906 215.918 259.38C215.918 259.87 215.762 260.263 215.452 260.557C215.141 260.851 214.733 260.998 214.226 260.998ZM224.147 275.435C223.15 275.435 222.218 275.19 221.352 274.7C220.486 274.194 219.784 273.475 219.244 272.543C218.705 271.595 218.435 270.46 218.435 269.136C218.435 267.796 218.705 266.66 219.244 265.729C219.784 264.781 220.486 264.062 221.352 263.572C222.218 263.065 223.15 262.812 224.147 262.812C225.16 262.812 226.1 263.065 226.966 263.572C227.832 264.062 228.534 264.781 229.074 265.729C229.613 266.66 229.883 267.796 229.883 269.136C229.883 270.46 229.613 271.595 229.074 272.543C228.534 273.475 227.832 274.194 226.966 274.7C226.1 275.19 225.16 275.435 224.147 275.435ZM224.147 273.131C225.029 273.131 225.724 272.764 226.23 272.028C226.737 271.293 226.99 270.329 226.99 269.136C226.99 267.927 226.737 266.954 226.23 266.219C225.724 265.484 225.029 265.116 224.147 265.116C223.264 265.116 222.57 265.484 222.063 266.219C221.573 266.954 221.328 267.927 221.328 269.136C221.328 270.329 221.573 271.293 222.063 272.028C222.57 272.764 223.264 273.131 224.147 273.131ZM232.673 275.141V263.106H235.001L235.197 264.724H235.295C235.835 264.201 236.423 263.752 237.06 263.376C237.698 263 238.425 262.812 239.242 262.812C240.533 262.812 241.472 263.229 242.061 264.062C242.649 264.895 242.943 266.072 242.943 267.592V275.141H240.124V267.959C240.124 266.963 239.977 266.26 239.683 265.851C239.389 265.443 238.907 265.239 238.237 265.239C237.714 265.239 237.248 265.369 236.84 265.631C236.447 265.876 235.998 266.244 235.492 266.734V275.141H232.673ZM249.747 275.435C248.93 275.435 248.113 275.28 247.296 274.97C246.479 274.643 245.776 274.243 245.188 273.769L246.511 271.955C247.051 272.363 247.59 272.69 248.129 272.935C248.668 273.18 249.24 273.303 249.845 273.303C250.499 273.303 250.981 273.164 251.291 272.886C251.602 272.608 251.757 272.265 251.757 271.857C251.757 271.514 251.626 271.236 251.365 271.023C251.12 270.795 250.801 270.598 250.409 270.435C250.016 270.255 249.608 270.084 249.183 269.92C248.66 269.724 248.137 269.487 247.614 269.209C247.108 268.915 246.691 268.548 246.364 268.106C246.037 267.649 245.874 267.085 245.874 266.415C245.874 265.353 246.266 264.487 247.051 263.817C247.835 263.147 248.897 262.812 250.237 262.812C251.087 262.812 251.847 262.959 252.517 263.253C253.187 263.547 253.767 263.882 254.257 264.258L252.958 265.974C252.533 265.663 252.1 265.418 251.659 265.239C251.234 265.042 250.785 264.944 250.311 264.944C249.706 264.944 249.257 265.075 248.962 265.337C248.668 265.582 248.521 265.892 248.521 266.268C248.521 266.742 248.766 267.101 249.257 267.347C249.747 267.592 250.319 267.829 250.972 268.057C251.528 268.254 252.067 268.499 252.59 268.793C253.113 269.071 253.546 269.438 253.889 269.896C254.249 270.353 254.429 270.958 254.429 271.71C254.429 272.739 254.028 273.622 253.228 274.357C252.427 275.076 251.267 275.435 249.747 275.435Z" fill="#AEB3BD"/>
<defs>
<linearGradient id="paint0_linear_444_765" x1="156.35" y1="73.9507" x2="156.35" y2="115.51" gradientUnits="userSpaceOnUse">
<stop offset="0.385417" stop-color="#FFCC33"/>
<stop offset="0.71875" stop-color="#FFAD33"/>
</linearGradient>
<linearGradient id="paint1_linear_444_765" x1="156.35" y1="73.9507" x2="156.35" y2="115.51" gradientUnits="userSpaceOnUse">
<stop offset="0.385417" stop-color="#FFCC33"/>
<stop offset="0.71875" stop-color="#FFAD33"/>
</linearGradient>
<linearGradient id="paint2_linear_444_765" x1="156.35" y1="73.9507" x2="156.35" y2="115.51" gradientUnits="userSpaceOnUse">
<stop offset="0.385417" stop-color="#FFCC33"/>
<stop offset="0.71875" stop-color="#FFAD33"/>
</linearGradient>
</defs>
</svg>
