<svg width="313" height="319" viewBox="0 0 313 319" fill="none" xmlns="http://www.w3.org/2000/svg">
<path d="M18.4015 1.53345H294.423C304.163 1.53345 312.058 9.42879 312.058 19.1682V299.79C312.058 309.53 304.163 317.425 294.423 317.425H18.4014C8.66205 317.425 0.766731 309.53 0.766731 299.79V19.1682C0.766731 9.42881 8.66207 1.53345 18.4015 1.53345Z" fill="#20242B"/>
<path d="M18.4015 1.53345H294.423C304.163 1.53345 312.058 9.42879 312.058 19.1682V299.79C312.058 309.53 304.163 317.425 294.423 317.425H18.4014C8.66205 317.425 0.766731 309.53 0.766731 299.79V19.1682C0.766731 9.42881 8.66207 1.53345 18.4015 1.53345Z" stroke="#4B535C" stroke-width="1.53346"/>
<rect x="101.315" y="37.5698" width="110.195" height="110.195" rx="55.0975" fill="#EDE8FF" fill-opacity="0.12"/>
<path fill-rule="evenodd" clip-rule="evenodd" d="M164.583 90.872C163.998 89.836 163.691 88.6694 163.691 87.4831V71.4788C163.691 71.2387 163.888 71.0441 164.131 71.0441H164.434C165.145 71.0441 165.722 70.4674 165.722 69.756V69.4676C165.722 68.7562 165.145 68.1796 164.434 68.1796H148.391C147.68 68.1796 147.103 68.7561 147.103 69.4675C147.103 69.563 147.103 69.6597 147.103 69.756C147.103 70.4674 147.68 71.0441 148.391 71.0441H148.694C148.937 71.0441 149.134 71.2387 149.134 71.4788V87.4831C149.134 88.6694 148.827 89.836 148.242 90.872C145.079 96.474 141.65 102.159 138.383 107.864C135.982 112.056 139.049 117.155 143.88 117.155H168.944C173.775 117.155 176.842 112.056 174.442 107.864C171.175 102.159 167.746 96.474 164.583 90.872ZM151.896 71.4788C151.896 71.2387 152.093 71.0441 152.336 71.0441H160.488C160.731 71.0441 160.929 71.2387 160.929 71.4788V87.3614C160.929 87.8417 160.974 88.231 160.488 88.231H152.336C151.85 88.231 151.896 87.8417 151.896 87.3614V71.4788Z" fill="url(#paint0_linear_444_698)"/>
<path d="M63.8717 202.166V178.024H77.7832V180.637H66.9631V188.181H76.0903V190.794H66.9631V199.553H78.1512V202.166H63.8717ZM79.3324 202.166L85.184 192.818L79.774 184.28H83.0863L85.4785 188.181C86.0305 189.175 86.6194 190.169 87.2082 191.162H87.3554C87.9075 190.169 88.4227 189.175 88.9747 188.181L91.1461 184.28H94.348L88.9379 193.15L94.7528 202.166H91.4405L88.8275 198.008C88.2019 196.94 87.5394 195.836 86.877 194.806H86.7298C86.1409 195.836 85.5521 196.94 84.9264 198.008L82.5342 202.166H79.3324ZM98.2957 209.711V184.28H100.798L101.056 186.341H101.166C102.786 184.979 104.81 183.838 106.871 183.838C111.471 183.838 113.974 187.408 113.974 192.966C113.974 199.038 110.293 202.608 106.208 202.608C104.589 202.608 102.896 201.835 101.277 200.547L101.35 203.675V209.711H98.2957ZM105.693 200.032C108.637 200.032 110.809 197.382 110.809 192.966C110.809 189.028 109.447 186.415 106.098 186.415C104.589 186.415 103.08 187.224 101.35 188.844V198.192C102.97 199.553 104.515 200.032 105.693 200.032ZM125.923 202.608C121.139 202.608 117.385 199.148 117.385 193.223C117.385 187.408 121.323 183.838 125.408 183.838C129.971 183.838 132.584 187.077 132.584 192.229C132.584 192.892 132.548 193.444 132.437 194.033H120.403C120.66 197.713 122.905 200.142 126.291 200.142C128.021 200.142 129.53 199.664 130.781 198.817L131.848 200.768C130.303 201.872 128.389 202.608 125.923 202.608ZM120.403 191.677H129.861C129.861 188.144 128.205 186.267 125.482 186.267C122.979 186.267 120.771 188.255 120.403 191.677ZM136.967 202.166V184.28H139.47L139.728 187.519H139.838C141.089 185.274 142.93 183.838 144.917 183.838C145.727 183.838 146.279 183.949 146.831 184.206L146.168 186.819C145.653 186.672 145.248 186.599 144.549 186.599C143.04 186.599 141.237 187.666 140.022 190.684V202.166H136.967ZM149.762 202.166V184.28H152.817V202.166H149.762ZM151.308 180.6C150.13 180.6 149.284 179.827 149.284 178.612C149.284 177.435 150.13 176.625 151.308 176.625C152.486 176.625 153.332 177.435 153.332 178.612C153.332 179.827 152.486 180.6 151.308 180.6ZM158.855 202.166V184.28H161.358L161.615 186.856H161.726C163.308 185.163 165.148 183.838 167.283 183.838C170.043 183.838 171.515 185.127 172.251 187.224C174.092 185.237 175.969 183.838 178.14 183.838C181.82 183.838 183.587 186.267 183.587 190.831V202.166H180.532V191.236C180.532 187.887 179.465 186.488 177.22 186.488C175.821 186.488 174.386 187.371 172.73 189.212V202.166H169.675V191.236C169.675 187.887 168.645 186.488 166.363 186.488C165.038 186.488 163.566 187.371 161.91 189.212V202.166H158.855ZM196.582 202.608C191.798 202.608 188.044 199.148 188.044 193.223C188.044 187.408 191.982 183.838 196.067 183.838C200.63 183.838 203.243 187.077 203.243 192.229C203.243 192.892 203.206 193.444 203.096 194.033H191.061C191.319 197.713 193.564 200.142 196.95 200.142C198.68 200.142 200.189 199.664 201.44 198.817L202.507 200.768C200.961 201.872 199.048 202.608 196.582 202.608ZM191.061 191.677H200.52C200.52 188.144 198.864 186.267 196.14 186.267C193.638 186.267 191.429 188.255 191.061 191.677ZM207.626 202.166V184.28H210.129L210.386 186.856H210.497C212.19 185.163 214.03 183.838 216.496 183.838C220.286 183.838 221.979 186.267 221.979 190.831V202.166H218.925V191.236C218.925 187.887 217.894 186.488 215.539 186.488C213.736 186.488 212.447 187.408 210.681 189.212V202.166H207.626ZM233.384 202.608C229.556 202.608 228.268 200.179 228.268 196.609V186.746H225.618V184.464L228.415 184.28L228.783 178.539H231.323V184.28H236.181V186.746H231.323V196.683C231.323 198.854 232.059 200.105 234.083 200.105C234.745 200.105 235.408 199.995 236.144 199.664L236.77 201.835C235.813 202.277 234.598 202.608 233.384 202.608ZM244.539 202.608C241.926 202.608 239.533 201.651 237.877 200.032L239.276 198.265C240.822 199.553 242.441 200.216 244.649 200.216C247.004 200.216 248.145 199.001 248.145 197.455C248.145 195.615 246.158 194.842 244.134 194.106C241.447 193.15 238.871 191.861 238.871 188.917C238.871 186.047 241.153 183.838 245.054 183.838C247.299 183.838 249.213 184.685 250.611 185.863L249.213 187.629C247.961 186.709 246.673 186.194 245.091 186.194C242.809 186.194 241.815 187.445 241.815 188.77C241.815 190.389 243.361 191.052 245.606 191.825C248.403 192.818 251.09 194.033 251.09 197.271C251.09 200.179 248.771 202.608 244.539 202.608Z" fill="white"/>
<path d="M33.021 246.571V232.93H28.3838V230.525H40.5042V232.93H35.8671V246.571H33.021ZM41.8525 246.571V234.525H44.1834L44.3797 236.659H44.4778C44.9031 235.874 45.4183 235.277 46.0235 234.868C46.6287 234.443 47.2503 234.23 47.8882 234.23C48.4607 234.23 48.9187 234.312 49.2622 234.476L48.7715 236.929C48.5588 236.864 48.3626 236.815 48.1826 236.782C48.0027 236.749 47.7819 236.733 47.5202 236.733C47.0458 236.733 46.547 236.921 46.0235 237.297C45.5001 237.657 45.0503 238.295 44.6741 239.211V246.571H41.8525ZM53.2781 246.866C52.2313 246.866 51.3725 246.539 50.7019 245.884C50.0476 245.23 49.7205 244.38 49.7205 243.333C49.7205 242.041 50.2848 241.043 51.4134 240.339C52.5421 239.62 54.3413 239.129 56.8112 238.867C56.7948 238.229 56.6231 237.681 56.296 237.223C55.9852 236.749 55.4209 236.512 54.603 236.512C54.0142 236.512 53.4335 236.626 52.861 236.855C52.3049 237.084 51.7569 237.363 51.2172 237.69L50.1867 235.8C50.8573 235.375 51.6097 235.007 52.4439 234.696C53.2945 234.386 54.1941 234.23 55.1428 234.23C56.6476 234.23 57.7681 234.68 58.5041 235.58C59.2565 236.463 59.6328 237.747 59.6328 239.432V246.571H57.3019L57.1056 245.247H57.0075C56.4677 245.704 55.887 246.089 55.2655 246.4C54.6603 246.71 53.9978 246.866 53.2781 246.866ZM54.1859 244.658C54.6766 244.658 55.1183 244.543 55.5108 244.314C55.9197 244.069 56.3532 243.742 56.8112 243.333V240.634C55.1755 240.847 54.0387 241.165 53.4008 241.591C52.7629 242 52.4439 242.507 52.4439 243.112C52.4439 243.652 52.6075 244.044 52.9346 244.29C53.2618 244.535 53.6789 244.658 54.1859 244.658ZM68.0392 246.866C66.9432 246.866 65.9537 246.62 65.0704 246.13C64.2035 245.623 63.5083 244.903 62.9849 243.971C62.4778 243.022 62.2243 241.885 62.2243 240.56C62.2243 239.219 62.5024 238.082 63.0585 237.15C63.6146 236.201 64.3507 235.481 65.2667 234.991C66.199 234.484 67.1968 234.23 68.26 234.23C69.0287 234.23 69.6994 234.361 70.2719 234.623C70.8444 234.884 71.3514 235.203 71.7931 235.58L70.4191 237.42C70.1083 237.142 69.7893 236.929 69.4622 236.782C69.1351 236.618 68.7834 236.536 68.4072 236.536C67.4421 236.536 66.6488 236.905 66.0273 237.641C65.4221 238.377 65.1195 239.35 65.1195 240.56C65.1195 241.754 65.4139 242.719 66.0027 243.455C66.6079 244.191 67.3849 244.56 68.3336 244.56C68.8079 244.56 69.2496 244.461 69.6585 244.265C70.0838 244.052 70.4681 243.807 70.8116 243.529L71.9648 245.394C71.4087 245.884 70.7871 246.252 70.1001 246.498C69.4131 246.743 68.7261 246.866 68.0392 246.866ZM74.3426 246.571V229.25H77.1151V240.07H77.1887L81.6541 234.525H84.7456L80.6236 239.432L85.1627 246.571H82.0958L79.0043 241.345L77.1151 243.505V246.571H74.3426ZM94.9929 246.866C93.946 246.866 93.0873 246.539 92.4167 245.884C91.7624 245.23 91.4353 244.38 91.4353 243.333C91.4353 242.041 91.9996 241.043 93.1282 240.339C94.2568 239.62 96.0561 239.129 98.526 238.867C98.5096 238.229 98.3379 237.681 98.0107 237.223C97.6999 236.749 97.1356 236.512 96.3178 236.512C95.7289 236.512 95.1483 236.626 94.5758 236.855C94.0197 237.084 93.4717 237.363 92.9319 237.69L91.9014 235.8C92.5721 235.375 93.3245 235.007 94.1587 234.696C95.0092 234.386 95.9089 234.23 96.8576 234.23C98.3624 234.23 99.4828 234.68 100.219 235.58C100.971 236.463 101.348 237.747 101.348 239.432V246.571H99.0167L98.8204 245.247H98.7223C98.1825 245.704 97.6018 246.089 96.9802 246.4C96.375 246.71 95.7126 246.866 94.9929 246.866ZM95.9007 244.658C96.3914 244.658 96.833 244.543 97.2256 244.314C97.6345 244.069 98.068 243.742 98.526 243.333V240.634C96.8903 240.847 95.7535 241.165 95.1156 241.591C94.4776 242 94.1587 242.507 94.1587 243.112C94.1587 243.652 94.3223 244.044 94.6494 244.29C94.9765 244.535 95.3936 244.658 95.9007 244.658ZM104.724 246.571V234.525H107.055L107.251 236.144H107.349C107.889 235.62 108.478 235.171 109.116 234.794C109.754 234.418 110.482 234.23 111.3 234.23C112.592 234.23 113.532 234.647 114.121 235.481C114.71 236.316 115.004 237.493 115.004 239.015V246.571H112.183V239.383C112.183 238.385 112.036 237.681 111.741 237.273C111.447 236.864 110.964 236.659 110.294 236.659C109.77 236.659 109.304 236.79 108.895 237.052C108.503 237.297 108.053 237.665 107.546 238.156V246.571H104.724ZM122.673 246.866C121.169 246.866 119.966 246.31 119.067 245.197C118.167 244.085 117.717 242.539 117.717 240.56C117.717 239.252 117.955 238.123 118.429 237.174C118.92 236.226 119.557 235.498 120.343 234.991C121.128 234.484 121.954 234.23 122.821 234.23C123.508 234.23 124.088 234.353 124.563 234.598C125.053 234.827 125.528 235.146 125.986 235.555L125.888 233.617V229.25H128.709V246.571H126.378L126.182 245.271H126.084C125.642 245.713 125.127 246.089 124.538 246.4C123.949 246.71 123.328 246.866 122.673 246.866ZM123.36 244.535C124.26 244.535 125.102 244.085 125.888 243.186V237.567C125.479 237.191 125.07 236.929 124.661 236.782C124.252 236.635 123.843 236.561 123.434 236.561C122.665 236.561 122.003 236.913 121.447 237.616C120.907 238.303 120.637 239.276 120.637 240.536C120.637 241.828 120.874 242.818 121.349 243.505C121.823 244.191 122.494 244.535 123.36 244.535ZM139.913 246.571L135.718 234.525H138.588L140.502 240.781C140.666 241.37 140.829 241.967 140.993 242.572C141.173 243.177 141.344 243.791 141.508 244.412H141.606C141.786 243.791 141.958 243.177 142.121 242.572C142.301 241.967 142.473 241.37 142.637 240.781L144.55 234.525H147.274L143.176 246.571H139.913ZM149.362 246.571V234.525H152.184V246.571H149.362ZM150.785 232.415C150.278 232.415 149.869 232.267 149.558 231.973C149.248 231.678 149.092 231.286 149.092 230.795C149.092 230.321 149.248 229.936 149.558 229.642C149.869 229.348 150.278 229.2 150.785 229.2C151.292 229.2 151.701 229.348 152.012 229.642C152.323 229.936 152.478 230.321 152.478 230.795C152.478 231.286 152.323 231.678 152.012 231.973C151.701 232.267 151.292 232.415 150.785 232.415ZM159.145 246.866C158.327 246.866 157.509 246.71 156.691 246.4C155.873 246.073 155.17 245.672 154.581 245.197L155.906 243.382C156.446 243.791 156.986 244.118 157.525 244.363C158.065 244.609 158.638 244.731 159.243 244.731C159.897 244.731 160.38 244.592 160.691 244.314C161.001 244.036 161.157 243.693 161.157 243.284C161.157 242.94 161.026 242.662 160.764 242.449C160.519 242.22 160.2 242.024 159.807 241.861C159.415 241.681 159.006 241.509 158.58 241.345C158.057 241.149 157.534 240.912 157.01 240.634C156.503 240.339 156.086 239.971 155.759 239.53C155.432 239.072 155.268 238.507 155.268 237.837C155.268 236.774 155.661 235.907 156.446 235.236C157.231 234.565 158.294 234.23 159.635 234.23C160.486 234.23 161.247 234.377 161.917 234.672C162.588 234.966 163.169 235.302 163.659 235.678L162.359 237.395C161.934 237.084 161.5 236.839 161.059 236.659C160.633 236.463 160.183 236.365 159.709 236.365C159.104 236.365 158.654 236.496 158.36 236.757C158.065 237.003 157.918 237.313 157.918 237.69C157.918 238.164 158.163 238.524 158.654 238.769C159.145 239.015 159.717 239.252 160.372 239.481C160.928 239.677 161.467 239.922 161.991 240.217C162.514 240.495 162.948 240.863 163.291 241.321C163.651 241.779 163.831 242.384 163.831 243.136C163.831 244.167 163.43 245.05 162.629 245.786C161.827 246.506 160.666 246.866 159.145 246.866ZM169.932 246.866C168.64 246.866 167.699 246.449 167.111 245.615C166.522 244.78 166.227 243.603 166.227 242.081V234.525H169.049V241.713C169.049 242.711 169.196 243.415 169.49 243.823C169.785 244.232 170.259 244.437 170.913 244.437C171.437 244.437 171.895 244.306 172.287 244.044C172.696 243.783 173.13 243.357 173.588 242.768V234.525H176.409V246.571H174.103L173.882 244.805H173.809C173.285 245.426 172.713 245.925 172.091 246.302C171.47 246.678 170.75 246.866 169.932 246.866ZM182.903 246.866C181.856 246.866 180.997 246.539 180.327 245.884C179.673 245.23 179.345 244.38 179.345 243.333C179.345 242.041 179.91 241.043 181.038 240.339C182.167 239.62 183.966 239.129 186.436 238.867C186.42 238.229 186.248 237.681 185.921 237.223C185.61 236.749 185.046 236.512 184.228 236.512C183.639 236.512 183.058 236.626 182.486 236.855C181.93 237.084 181.382 237.363 180.842 237.69L179.812 235.8C180.482 235.375 181.235 235.007 182.069 234.696C182.919 234.386 183.819 234.23 184.768 234.23C186.273 234.23 187.393 234.68 188.129 235.58C188.881 236.463 189.258 237.747 189.258 239.432V246.571H186.927L186.73 245.247H186.632C186.093 245.704 185.512 246.089 184.89 246.4C184.285 246.71 183.623 246.866 182.903 246.866ZM183.811 244.658C184.302 244.658 184.743 244.543 185.136 244.314C185.545 244.069 185.978 243.742 186.436 243.333V240.634C184.8 240.847 183.664 241.165 183.026 241.591C182.388 242 182.069 242.507 182.069 243.112C182.069 243.652 182.232 244.044 182.559 244.29C182.887 244.535 183.304 244.658 183.811 244.658ZM195.382 246.866C194.384 246.866 193.673 246.563 193.248 245.958C192.839 245.353 192.634 244.527 192.634 243.48V229.25H195.456V243.627C195.456 243.971 195.521 244.216 195.652 244.363C195.783 244.494 195.922 244.56 196.069 244.56C196.135 244.56 196.192 244.56 196.241 244.56C196.306 244.543 196.396 244.527 196.511 244.51L196.879 246.62C196.715 246.686 196.503 246.743 196.241 246.792C195.996 246.841 195.709 246.866 195.382 246.866ZM199.295 246.571V234.525H202.117V246.571H199.295ZM200.718 232.415C200.211 232.415 199.802 232.267 199.492 231.973C199.181 231.678 199.025 231.286 199.025 230.795C199.025 230.321 199.181 229.936 199.492 229.642C199.802 229.348 200.211 229.2 200.718 229.2C201.225 229.2 201.634 229.348 201.945 229.642C202.256 229.936 202.411 230.321 202.411 230.795C202.411 231.286 202.256 231.678 201.945 231.973C201.634 232.267 201.225 232.415 200.718 232.415ZM204.76 246.571V245.05L210.452 236.757H205.398V234.525H213.985V236.021L208.317 244.314H214.181V246.571H204.76ZM221.507 246.866C220.395 246.866 219.389 246.62 218.49 246.13C217.59 245.623 216.878 244.903 216.355 243.971C215.832 243.022 215.57 241.885 215.57 240.56C215.57 239.252 215.832 238.123 216.355 237.174C216.895 236.226 217.59 235.498 218.44 234.991C219.291 234.484 220.182 234.23 221.115 234.23C222.211 234.23 223.127 234.476 223.863 234.966C224.599 235.441 225.155 236.111 225.531 236.978C225.907 237.829 226.095 238.818 226.095 239.947C226.095 240.536 226.055 240.994 225.973 241.321H218.318C218.449 242.384 218.833 243.21 219.471 243.799C220.109 244.388 220.91 244.682 221.875 244.682C222.399 244.682 222.881 244.609 223.323 244.461C223.781 244.298 224.231 244.077 224.672 243.799L225.629 245.565C225.057 245.942 224.419 246.252 223.716 246.498C223.012 246.743 222.276 246.866 221.507 246.866ZM218.293 239.407H223.642C223.642 238.475 223.437 237.747 223.029 237.223C222.62 236.684 222.006 236.414 221.188 236.414C220.485 236.414 219.855 236.676 219.299 237.199C218.759 237.706 218.424 238.442 218.293 239.407ZM234.512 251.528C234.185 251.528 233.898 251.503 233.653 251.454C233.408 251.405 233.171 251.348 232.942 251.282L233.457 249.074C233.571 249.107 233.702 249.139 233.849 249.172C234.013 249.221 234.168 249.246 234.316 249.246C234.953 249.246 235.461 249.049 235.837 248.657C236.229 248.281 236.524 247.79 236.72 247.185L236.941 246.424L232.205 234.525H235.076L237.162 240.438C237.342 240.961 237.513 241.517 237.677 242.106C237.857 242.678 238.037 243.251 238.217 243.823H238.315C238.462 243.267 238.609 242.703 238.756 242.131C238.92 241.542 239.075 240.977 239.223 240.438L241.038 234.525H243.762L239.394 247.111C238.887 248.469 238.274 249.54 237.554 250.325C236.834 251.127 235.82 251.528 234.512 251.528ZM250.638 246.866C249.64 246.866 248.708 246.62 247.841 246.13C246.974 245.623 246.271 244.903 245.731 243.971C245.191 243.022 244.921 241.885 244.921 240.56C244.921 239.219 245.191 238.082 245.731 237.15C246.271 236.201 246.974 235.481 247.841 234.991C248.708 234.484 249.64 234.23 250.638 234.23C251.652 234.23 252.592 234.484 253.459 234.991C254.326 235.481 255.03 236.201 255.569 237.15C256.109 238.082 256.379 239.219 256.379 240.56C256.379 241.885 256.109 243.022 255.569 243.971C255.03 244.903 254.326 245.623 253.459 246.13C252.592 246.62 251.652 246.866 250.638 246.866ZM250.638 244.56C251.521 244.56 252.216 244.191 252.723 243.455C253.23 242.719 253.484 241.754 253.484 240.56C253.484 239.35 253.23 238.377 252.723 237.641C252.216 236.905 251.521 236.536 250.638 236.536C249.755 236.536 249.059 236.905 248.552 237.641C248.062 238.377 247.816 239.35 247.816 240.56C247.816 241.754 248.062 242.719 248.552 243.455C249.059 244.191 249.755 244.56 250.638 244.56ZM262.754 246.866C261.462 246.866 260.521 246.449 259.932 245.615C259.344 244.78 259.049 243.603 259.049 242.081V234.525H261.871V241.713C261.871 242.711 262.018 243.415 262.312 243.823C262.607 244.232 263.081 244.437 263.735 244.437C264.259 244.437 264.717 244.306 265.109 244.044C265.518 243.783 265.952 243.357 266.41 242.768V234.525H269.231V246.571H266.925L266.704 244.805H266.631C266.107 245.426 265.535 245.925 264.913 246.302C264.292 246.678 263.572 246.866 262.754 246.866ZM272.805 246.571V234.525H275.136L275.332 236.659H275.431C275.856 235.874 276.371 235.277 276.976 234.868C277.581 234.443 278.203 234.23 278.841 234.23C279.413 234.23 279.871 234.312 280.215 234.476L279.724 236.929C279.512 236.864 279.315 236.815 279.135 236.782C278.955 236.749 278.735 236.733 278.473 236.733C277.999 236.733 277.5 236.921 276.976 237.297C276.453 237.657 276.003 238.295 275.627 239.211V246.571H272.805ZM74.7677 275.571V259.525H77.9818L80.8279 267.377C81.0078 267.884 81.1796 268.407 81.3431 268.947C81.5231 269.47 81.6948 269.994 81.8584 270.517H81.9565C82.1364 269.994 82.3082 269.47 82.4717 268.947C82.6353 268.407 82.7989 267.884 82.9625 267.377L85.7349 259.525H88.9736V275.571H86.3483V268.235C86.3483 267.728 86.3647 267.18 86.3974 266.591C86.4465 265.986 86.4955 265.381 86.5446 264.776C86.61 264.171 86.6673 263.623 86.7164 263.132H86.6182L85.3178 266.861L82.6926 274.075H80.9996L78.3498 266.861L77.074 263.132H76.9758C77.0249 263.623 77.074 264.171 77.1231 264.776C77.1885 265.381 77.2376 265.986 77.2703 266.591C77.3193 267.18 77.3439 267.728 77.3439 268.235V275.571H74.7677ZM93.0493 275.571V259.525H95.8954V273.167H102.569V275.571H93.0493ZM115.184 275.866C114.072 275.866 113.066 275.62 112.166 275.13C111.266 274.623 110.555 273.903 110.031 272.971C109.508 272.022 109.246 270.885 109.246 269.56C109.246 268.252 109.508 267.123 110.031 266.174C110.571 265.226 111.266 264.498 112.117 263.991C112.967 263.484 113.859 263.23 114.791 263.23C115.887 263.23 116.803 263.476 117.539 263.966C118.275 264.441 118.831 265.111 119.208 265.978C119.584 266.829 119.772 267.818 119.772 268.947C119.772 269.536 119.731 269.994 119.649 270.321H111.994C112.125 271.384 112.509 272.21 113.147 272.799C113.785 273.388 114.587 273.682 115.552 273.682C116.075 273.682 116.558 273.609 116.999 273.461C117.457 273.298 117.907 273.077 118.349 272.799L119.306 274.565C118.733 274.942 118.095 275.252 117.392 275.498C116.689 275.743 115.953 275.866 115.184 275.866ZM111.97 268.407H117.318C117.318 267.475 117.114 266.747 116.705 266.223C116.296 265.684 115.683 265.414 114.865 265.414C114.161 265.414 113.532 265.676 112.976 266.199C112.436 266.706 112.101 267.442 111.97 268.407ZM120.732 275.571L124.559 269.29L120.977 263.525H124.019L125.369 265.806C125.549 266.134 125.729 266.477 125.909 266.837C126.105 267.18 126.293 267.516 126.473 267.843H126.571C126.718 267.516 126.874 267.18 127.037 266.837C127.201 266.477 127.356 266.134 127.503 265.806L128.657 263.525H131.576L128.019 269.609L131.846 275.571H128.804L127.332 273.191C127.135 272.832 126.931 272.472 126.718 272.112C126.522 271.752 126.318 271.4 126.105 271.057H126.007C125.843 271.4 125.671 271.752 125.491 272.112C125.312 272.455 125.132 272.815 124.952 273.191L123.676 275.571H120.732ZM133.992 280.331V263.525H136.322L136.519 264.8H136.617C137.124 264.375 137.688 264.007 138.31 263.696C138.948 263.386 139.594 263.23 140.248 263.23C141.753 263.23 142.914 263.786 143.732 264.899C144.566 266.011 144.983 267.499 144.983 269.364C144.983 270.738 144.738 271.916 144.247 272.897C143.757 273.862 143.119 274.598 142.334 275.105C141.565 275.612 140.731 275.866 139.831 275.866C139.308 275.866 138.784 275.751 138.261 275.522C137.737 275.277 137.23 274.95 136.74 274.541L136.813 276.553V280.331H133.992ZM139.242 273.535C140.044 273.535 140.714 273.183 141.254 272.48C141.794 271.777 142.064 270.746 142.064 269.389C142.064 268.178 141.859 267.238 141.45 266.567C141.041 265.896 140.379 265.561 139.463 265.561C138.612 265.561 137.729 266.011 136.813 266.91V272.529C137.255 272.889 137.68 273.151 138.089 273.314C138.498 273.461 138.882 273.535 139.242 273.535ZM152.993 275.866C151.881 275.866 150.875 275.62 149.975 275.13C149.076 274.623 148.364 273.903 147.841 272.971C147.317 272.022 147.056 270.885 147.056 269.56C147.056 268.252 147.317 267.123 147.841 266.174C148.38 265.226 149.076 264.498 149.926 263.991C150.777 263.484 151.668 263.23 152.6 263.23C153.696 263.23 154.612 263.476 155.348 263.966C156.084 264.441 156.641 265.111 157.017 265.978C157.393 266.829 157.581 267.818 157.581 268.947C157.581 269.536 157.54 269.994 157.458 270.321H149.803C149.934 271.384 150.319 272.21 150.957 272.799C151.595 273.388 152.396 273.682 153.361 273.682C153.884 273.682 154.367 273.609 154.809 273.461C155.267 273.298 155.716 273.077 156.158 272.799L157.115 274.565C156.542 274.942 155.905 275.252 155.201 275.498C154.498 275.743 153.762 275.866 152.993 275.866ZM149.779 268.407H155.128C155.128 267.475 154.923 266.747 154.514 266.223C154.105 265.684 153.492 265.414 152.674 265.414C151.971 265.414 151.341 265.676 150.785 266.199C150.245 266.706 149.91 267.442 149.779 268.407ZM160.276 275.571V263.525H162.607L162.803 265.659H162.901C163.327 264.874 163.842 264.277 164.447 263.868C165.052 263.443 165.674 263.23 166.312 263.23C166.884 263.23 167.342 263.312 167.686 263.476L167.195 265.929C166.982 265.864 166.786 265.815 166.606 265.782C166.426 265.749 166.205 265.733 165.944 265.733C165.469 265.733 164.97 265.921 164.447 266.297C163.924 266.657 163.474 267.295 163.098 268.211V275.571H160.276ZM169.429 275.571V263.525H172.25V275.571H169.429ZM170.852 261.415C170.345 261.415 169.936 261.267 169.625 260.973C169.314 260.678 169.159 260.286 169.159 259.795C169.159 259.321 169.314 258.936 169.625 258.642C169.936 258.348 170.345 258.2 170.852 258.2C171.359 258.2 171.768 258.348 172.079 258.642C172.389 258.936 172.545 259.321 172.545 259.795C172.545 260.286 172.389 260.678 172.079 260.973C171.768 261.267 171.359 261.415 170.852 261.415ZM175.85 275.571V263.525H178.181L178.377 265.168H178.475C178.982 264.629 179.53 264.171 180.119 263.794C180.725 263.418 181.403 263.23 182.156 263.23C183.039 263.23 183.742 263.426 184.266 263.819C184.806 264.195 185.214 264.719 185.493 265.389C186.065 264.768 186.662 264.252 187.284 263.844C187.922 263.435 188.617 263.23 189.369 263.23C190.645 263.23 191.585 263.647 192.191 264.481C192.796 265.316 193.098 266.493 193.098 268.015V275.571H190.252V268.383C190.252 267.385 190.097 266.681 189.786 266.273C189.492 265.864 189.034 265.659 188.412 265.659C187.66 265.659 186.817 266.158 185.885 267.156V275.571H183.064V268.383C183.064 267.385 182.908 266.681 182.597 266.273C182.303 265.864 181.837 265.659 181.199 265.659C180.446 265.659 179.604 266.158 178.672 267.156V275.571H175.85ZM201.68 275.866C200.568 275.866 199.562 275.62 198.662 275.13C197.763 274.623 197.051 273.903 196.528 272.971C196.004 272.022 195.743 270.885 195.743 269.56C195.743 268.252 196.004 267.123 196.528 266.174C197.068 265.226 197.763 264.498 198.613 263.991C199.464 263.484 200.355 263.23 201.288 263.23C202.384 263.23 203.3 263.476 204.036 263.966C204.772 264.441 205.328 265.111 205.704 265.978C206.08 266.829 206.268 267.818 206.268 268.947C206.268 269.536 206.227 269.994 206.146 270.321H198.491C198.622 271.384 199.006 272.21 199.644 272.799C200.282 273.388 201.083 273.682 202.048 273.682C202.572 273.682 203.054 273.609 203.496 273.461C203.954 273.298 204.404 273.077 204.845 272.799L205.802 274.565C205.23 274.942 204.592 275.252 203.888 275.498C203.185 275.743 202.449 275.866 201.68 275.866ZM198.466 268.407H203.815C203.815 267.475 203.61 266.747 203.201 266.223C202.793 265.684 202.179 265.414 201.361 265.414C200.658 265.414 200.028 265.676 199.472 266.199C198.932 266.706 198.597 267.442 198.466 268.407ZM208.963 275.571V263.525H211.294L211.49 265.144H211.588C212.128 264.62 212.717 264.171 213.355 263.794C213.993 263.418 214.721 263.23 215.539 263.23C216.831 263.23 217.771 263.647 218.36 264.481C218.949 265.316 219.243 266.493 219.243 268.015V275.571H216.422V268.383C216.422 267.385 216.275 266.681 215.98 266.273C215.686 265.864 215.203 265.659 214.533 265.659C214.009 265.659 213.543 265.79 213.134 266.052C212.742 266.297 212.292 266.665 211.785 267.156V275.571H208.963ZM226.937 275.866C225.547 275.866 224.557 275.465 223.968 274.664C223.396 273.846 223.11 272.791 223.11 271.499V265.757H221.392V263.647L223.257 263.525L223.6 260.237H225.956V263.525H229.023V265.757H225.956V271.499C225.956 272.905 226.52 273.609 227.649 273.609C227.861 273.609 228.082 273.584 228.311 273.535C228.54 273.47 228.736 273.404 228.9 273.339L229.391 275.424C229.063 275.539 228.687 275.637 228.262 275.719C227.853 275.817 227.411 275.866 226.937 275.866ZM234.679 275.866C233.862 275.866 233.044 275.71 232.226 275.4C231.408 275.073 230.705 274.672 230.116 274.197L231.441 272.382C231.981 272.791 232.52 273.118 233.06 273.363C233.6 273.609 234.172 273.731 234.778 273.731C235.432 273.731 235.914 273.592 236.225 273.314C236.536 273.036 236.691 272.693 236.691 272.284C236.691 271.94 236.56 271.662 236.299 271.449C236.053 271.22 235.734 271.024 235.342 270.861C234.949 270.681 234.54 270.509 234.115 270.345C233.592 270.149 233.068 269.912 232.545 269.634C232.038 269.339 231.621 268.971 231.294 268.53C230.966 268.072 230.803 267.507 230.803 266.837C230.803 265.774 231.195 264.907 231.981 264.236C232.766 263.565 233.829 263.23 235.17 263.23C236.021 263.23 236.781 263.377 237.452 263.672C238.123 263.966 238.703 264.302 239.194 264.678L237.894 266.395C237.468 266.084 237.035 265.839 236.593 265.659C236.168 265.463 235.718 265.365 235.244 265.365C234.639 265.365 234.189 265.496 233.894 265.757C233.6 266.003 233.453 266.313 233.453 266.69C233.453 267.164 233.698 267.524 234.189 267.769C234.679 268.015 235.252 268.252 235.906 268.481C236.462 268.677 237.002 268.922 237.526 269.217C238.049 269.495 238.482 269.863 238.826 270.321C239.186 270.779 239.366 271.384 239.366 272.136C239.366 273.167 238.965 274.05 238.163 274.786C237.362 275.506 236.201 275.866 234.679 275.866Z" fill="#AEB3BD"/>
<defs>
<linearGradient id="paint0_linear_444_698" x1="155.94" y1="68.1796" x2="155.94" y2="123.592" gradientUnits="userSpaceOnUse">
<stop offset="0.385417" stop-color="#FFCC33"/>
<stop offset="0.71875" stop-color="#FFAD33"/>
</linearGradient>
</defs>
</svg>
