<svg width="313" height="320" viewBox="0 0 313 320" fill="none" xmlns="http://www.w3.org/2000/svg">
<path d="M18.4015 1.38538H294.423C304.163 1.38538 312.058 9.28072 312.058 19.0201V301.176C312.058 310.915 304.163 318.811 294.423 318.811H18.4014C8.66205 318.811 0.766728 310.915 0.766728 301.176V19.0201C0.766728 9.2807 8.66207 1.38538 18.4015 1.38538Z" fill="#20242B"/>
<path d="M18.4015 1.38538H294.423C304.163 1.38538 312.058 9.28072 312.058 19.0201V301.176C312.058 310.915 304.163 318.811 294.423 318.811H18.4014C8.66205 318.811 0.766728 310.915 0.766728 301.176V19.0201C0.766728 9.2807 8.66207 1.38538 18.4015 1.38538Z" stroke="#4B535C" stroke-width="1.53346"/>
<rect x="101.315" y="37.4215" width="110.195" height="110.195" rx="55.0975" fill="#EDE8FF" fill-opacity="0.12"/>
<path fill-rule="evenodd" clip-rule="evenodd" d="M148.209 82.0317C140.999 89.2345 138.852 96.5133 138.556 99.21C138.077 103.571 145.362 110.829 149.726 110.369C152.412 110.086 159.775 107.992 166.934 100.739C179.559 87.8391 177.5 78.2803 174.093 74.8782C170.686 71.4762 160.976 69.2768 148.209 82.0317ZM168.283 86.6864C166.624 88.3439 163.934 88.3439 162.275 86.6864C160.616 85.0289 160.616 82.3416 162.275 80.6841C163.934 79.0266 166.623 79.0259 168.282 80.6834C169.941 82.3409 169.942 85.0289 168.283 86.6864Z" fill="url(#paint0_linear_444_741)"/>
<path d="M165.224 104.716C160.705 108.65 156.463 110.543 153.385 111.453L158.416 119.622C158.811 120.265 159.775 120.162 160.026 119.45L165.224 104.716Z" fill="url(#paint1_linear_444_741)"/>
<path d="M137.525 95.5823C138.454 92.5215 140.36 88.2911 144.269 83.7412L129.489 88.9309C128.776 89.1813 128.672 90.147 129.316 90.5424L137.525 95.5823Z" fill="url(#paint2_linear_444_741)"/>
<path d="M103.029 202.018V177.875H106.12V199.405H116.646V202.018H103.029ZM124.755 202.459C121.774 202.459 119.529 200.619 119.529 197.381C119.529 193.406 122.841 191.492 130.496 190.646C130.459 188.401 129.723 186.229 126.816 186.229C124.755 186.229 122.878 187.149 121.479 188.07L120.302 186.009C121.958 184.904 124.46 183.69 127.331 183.69C131.674 183.69 133.551 186.597 133.551 191.014V202.018H131.048L130.754 199.883H130.643C128.95 201.319 127 202.459 124.755 202.459ZM125.601 199.957C127.331 199.957 128.766 199.184 130.496 197.675V192.817C124.46 193.516 122.51 194.878 122.51 197.197C122.51 199.184 123.872 199.957 125.601 199.957ZM144.404 202.459C140.613 202.459 138.921 200.03 138.921 195.467V184.132H141.975V195.062C141.975 198.374 143.006 199.81 145.361 199.81C147.164 199.81 148.452 198.89 150.109 196.792V184.132H153.163V202.018H150.661L150.403 199.221H150.293C148.636 201.171 146.87 202.459 144.404 202.459ZM159.197 202.018V184.132H161.7L161.957 186.708H162.068C163.76 185.015 165.601 183.69 168.066 183.69C171.857 183.69 173.55 186.119 173.55 190.683V202.018H170.495V191.087C170.495 187.738 169.465 186.34 167.11 186.34C165.306 186.34 164.018 187.26 162.252 189.063V202.018H159.197ZM186.39 202.459C181.642 202.459 177.999 199.037 177.999 193.112C177.999 187.113 182.01 183.69 186.61 183.69C188.966 183.69 190.585 184.61 191.836 185.788L190.328 187.701C189.334 186.781 188.193 186.229 186.758 186.229C183.519 186.229 181.164 188.99 181.164 193.112C181.164 197.197 183.372 199.92 186.647 199.92C188.303 199.92 189.776 199.184 190.843 198.227L192.168 200.178C190.548 201.65 188.524 202.459 186.39 202.459ZM196.108 202.018V175.814H199.162V182.954L199.052 186.634C200.708 185.015 202.511 183.69 204.977 183.69C208.768 183.69 210.461 186.119 210.461 190.683V202.018H207.406V191.087C207.406 187.738 206.376 186.34 204.02 186.34C202.217 186.34 200.929 187.26 199.162 189.063V202.018H196.108Z" fill="white"/>
<path d="M42.4456 246.423V230.377H47.4999C48.6939 230.377 49.7571 230.532 50.6895 230.843C51.6218 231.154 52.3579 231.669 52.8976 232.389C53.4374 233.108 53.7073 234.09 53.7073 235.333C53.7073 236.511 53.4374 237.484 52.8976 238.253C52.3579 239.021 51.63 239.594 50.714 239.97C49.798 240.346 48.7594 240.535 47.598 240.535H45.2917V246.423H42.4456ZM45.2917 238.253H47.3772C49.7326 238.253 50.9103 237.279 50.9103 235.333C50.9103 234.319 50.5995 233.624 49.9779 233.248C49.3727 232.855 48.4731 232.659 47.2791 232.659H45.2917V238.253ZM58.4658 246.717C57.419 246.717 56.5602 246.39 55.8896 245.736C55.2353 245.082 54.9082 244.231 54.9082 243.184C54.9082 241.892 55.4725 240.894 56.6011 240.191C57.7298 239.471 59.529 238.981 61.9989 238.719C61.9825 238.081 61.8108 237.533 61.4837 237.075C61.1729 236.601 60.6086 236.364 59.7907 236.364C59.2019 236.364 58.6212 236.478 58.0487 236.707C57.4926 236.936 56.9446 237.214 56.4048 237.541L55.3744 235.652C56.045 235.227 56.7974 234.859 57.6316 234.548C58.4822 234.237 59.3818 234.082 60.3305 234.082C61.8353 234.082 62.9558 234.532 63.6918 235.431C64.4442 236.314 64.8205 237.598 64.8205 239.283V246.423H62.4896L62.2933 245.098H62.1952C61.6554 245.556 61.0747 245.94 60.4532 246.251C59.848 246.562 59.1855 246.717 58.4658 246.717ZM59.3736 244.509C59.8643 244.509 60.306 244.395 60.6985 244.166C61.1074 243.92 61.5409 243.593 61.9989 243.184V240.485C60.3632 240.698 59.2264 241.017 58.5885 241.442C57.9506 241.851 57.6316 242.358 57.6316 242.963C57.6316 243.503 57.7952 243.896 58.1223 244.141C58.4495 244.387 58.8666 244.509 59.3736 244.509ZM73.2269 246.717C72.1309 246.717 71.1414 246.472 70.2581 245.981C69.3912 245.474 68.696 244.755 68.1726 243.822C67.6655 242.874 67.412 241.737 67.412 240.412C67.412 239.071 67.6901 237.934 68.2462 237.001C68.8023 236.053 69.5384 235.333 70.4544 234.842C71.3867 234.335 72.3845 234.082 73.4477 234.082C74.2164 234.082 74.8871 234.213 75.4596 234.474C76.0321 234.736 76.5391 235.055 76.9808 235.431L75.6068 237.271C75.296 236.993 74.977 236.781 74.6499 236.633C74.3228 236.47 73.9711 236.388 73.5949 236.388C72.6298 236.388 71.8365 236.756 71.215 237.492C70.6098 238.228 70.3072 239.201 70.3072 240.412C70.3072 241.606 70.6016 242.571 71.1904 243.307C71.7956 244.043 72.5726 244.411 73.5213 244.411C73.9956 244.411 74.4373 244.313 74.8462 244.117C75.2715 243.904 75.6558 243.659 75.9993 243.381L77.1525 245.245C76.5964 245.736 75.9748 246.104 75.2878 246.349C74.6008 246.595 73.9138 246.717 73.2269 246.717ZM79.5303 246.423V229.101H82.3028V239.921H82.3764L86.8418 234.376H89.9333L85.8113 239.283L90.3504 246.423H87.2835L84.192 241.197L82.3028 243.356V246.423H79.5303ZM95.0291 246.717C93.9823 246.717 93.1236 246.39 92.4529 245.736C91.7987 245.082 91.4715 244.231 91.4715 243.184C91.4715 241.892 92.0358 240.894 93.1645 240.191C94.2931 239.471 96.0923 238.981 98.5622 238.719C98.5459 238.081 98.3741 237.533 98.047 237.075C97.7362 236.601 97.1719 236.364 96.354 236.364C95.7652 236.364 95.1845 236.478 94.612 236.707C94.0559 236.936 93.5079 237.214 92.9682 237.541L91.9377 235.652C92.6083 235.227 93.3607 234.859 94.1949 234.548C95.0455 234.237 95.9451 234.082 96.8938 234.082C98.3986 234.082 99.5191 234.532 100.255 235.431C101.008 236.314 101.384 237.598 101.384 239.283V246.423H99.0529L98.8566 245.098H98.7585C98.2187 245.556 97.6381 245.94 97.0165 246.251C96.4113 246.562 95.7488 246.717 95.0291 246.717ZM95.9369 244.509C96.4276 244.509 96.8693 244.395 97.2618 244.166C97.6708 243.92 98.1042 243.593 98.5622 243.184V240.485C96.9265 240.698 95.7897 241.017 95.1518 241.442C94.5139 241.851 94.1949 242.358 94.1949 242.963C94.1949 243.503 94.3585 243.896 94.6856 244.141C95.0128 244.387 95.4299 244.509 95.9369 244.509ZM108.956 251.747C108.007 251.747 107.149 251.633 106.38 251.404C105.627 251.175 105.03 250.823 104.589 250.349C104.163 249.891 103.951 249.31 103.951 248.607C103.951 247.609 104.523 246.75 105.668 246.03V245.932C105.357 245.736 105.096 245.474 104.883 245.147C104.687 244.82 104.589 244.411 104.589 243.92C104.589 243.446 104.72 243.021 104.981 242.645C105.259 242.252 105.57 241.933 105.914 241.688V241.59C105.505 241.279 105.137 240.845 104.81 240.289C104.499 239.733 104.343 239.103 104.343 238.4C104.343 237.468 104.564 236.682 105.006 236.045C105.447 235.407 106.028 234.924 106.748 234.597C107.484 234.253 108.269 234.082 109.103 234.082C109.43 234.082 109.741 234.114 110.036 234.18C110.346 234.229 110.624 234.294 110.87 234.376H115.188V236.462H112.98C113.176 236.691 113.34 236.985 113.47 237.345C113.601 237.688 113.667 238.073 113.667 238.498C113.667 239.381 113.462 240.134 113.053 240.755C112.644 241.361 112.096 241.819 111.409 242.129C110.723 242.44 109.954 242.595 109.103 242.595C108.841 242.595 108.572 242.571 108.294 242.522C108.015 242.473 107.737 242.391 107.459 242.277C107.279 242.44 107.132 242.604 107.018 242.767C106.92 242.931 106.87 243.152 106.87 243.43C106.87 243.773 107.01 244.043 107.288 244.239C107.582 244.436 108.097 244.534 108.833 244.534H110.968C112.424 244.534 113.52 244.771 114.256 245.245C115.008 245.703 115.384 246.456 115.384 247.503C115.384 248.288 115.123 248.999 114.599 249.637C114.076 250.291 113.331 250.807 112.366 251.183C111.401 251.559 110.265 251.747 108.956 251.747ZM109.103 240.829C109.676 240.829 110.166 240.616 110.575 240.191C110.984 239.766 111.189 239.169 111.189 238.4C111.189 237.648 110.984 237.067 110.575 236.658C110.183 236.233 109.692 236.02 109.103 236.02C108.514 236.02 108.015 236.224 107.607 236.633C107.198 237.042 106.993 237.631 106.993 238.4C106.993 239.169 107.198 239.766 107.607 240.191C108.015 240.616 108.514 240.829 109.103 240.829ZM109.398 249.907C110.363 249.907 111.148 249.711 111.753 249.318C112.358 248.926 112.661 248.476 112.661 247.969C112.661 247.494 112.473 247.175 112.096 247.012C111.737 246.848 111.213 246.766 110.526 246.766H108.882C108.228 246.766 107.68 246.709 107.238 246.595C106.617 247.069 106.306 247.601 106.306 248.19C106.306 248.729 106.584 249.146 107.14 249.441C107.696 249.752 108.449 249.907 109.398 249.907ZM122.276 246.717C121.164 246.717 120.158 246.472 119.258 245.981C118.359 245.474 117.647 244.755 117.124 243.822C116.601 242.874 116.339 241.737 116.339 240.412C116.339 239.103 116.601 237.975 117.124 237.026C117.664 236.077 118.359 235.349 119.209 234.842C120.06 234.335 120.951 234.082 121.884 234.082C122.98 234.082 123.896 234.327 124.632 234.818C125.368 235.292 125.924 235.963 126.3 236.83C126.676 237.68 126.864 238.67 126.864 239.798C126.864 240.387 126.824 240.845 126.742 241.172H119.087C119.218 242.236 119.602 243.062 120.24 243.65C120.878 244.239 121.679 244.534 122.644 244.534C123.168 244.534 123.65 244.46 124.092 244.313C124.55 244.149 125 243.929 125.441 243.65L126.398 245.417C125.826 245.793 125.188 246.104 124.485 246.349C123.781 246.595 123.045 246.717 122.276 246.717ZM119.062 239.259H124.411C124.411 238.326 124.206 237.598 123.798 237.075C123.389 236.535 122.775 236.265 121.957 236.265C121.254 236.265 120.624 236.527 120.068 237.05C119.528 237.558 119.193 238.294 119.062 239.259ZM137.391 246.717C136.344 246.717 135.485 246.39 134.815 245.736C134.16 245.082 133.833 244.231 133.833 243.184C133.833 241.892 134.398 240.894 135.526 240.191C136.655 239.471 138.454 238.981 140.924 238.719C140.908 238.081 140.736 237.533 140.409 237.075C140.098 236.601 139.534 236.364 138.716 236.364C138.127 236.364 137.546 236.478 136.974 236.707C136.418 236.936 135.87 237.214 135.33 237.541L134.299 235.652C134.97 235.227 135.722 234.859 136.557 234.548C137.407 234.237 138.307 234.082 139.256 234.082C140.76 234.082 141.881 234.532 142.617 235.431C143.369 236.314 143.745 237.598 143.745 239.283V246.423H141.415L141.218 245.098H141.12C140.58 245.556 140 245.94 139.378 246.251C138.773 246.562 138.111 246.717 137.391 246.717ZM138.299 244.509C138.789 244.509 139.231 244.395 139.624 244.166C140.032 243.92 140.466 243.593 140.924 243.184V240.485C139.288 240.698 138.151 241.017 137.514 241.442C136.876 241.851 136.557 242.358 136.557 242.963C136.557 243.503 136.72 243.896 137.047 244.141C137.374 244.387 137.792 244.509 138.299 244.509ZM147.122 246.423V234.376H149.453L149.649 235.995H149.747C150.287 235.472 150.876 235.022 151.514 234.646C152.152 234.27 152.88 234.082 153.698 234.082C154.99 234.082 155.93 234.499 156.519 235.333C157.108 236.167 157.402 237.345 157.402 238.866V246.423H154.581V239.234C154.581 238.236 154.434 237.533 154.139 237.124C153.845 236.715 153.362 236.511 152.692 236.511C152.168 236.511 151.702 236.642 151.293 236.903C150.901 237.149 150.451 237.517 149.944 238.007V246.423H147.122ZM165.071 246.717C163.567 246.717 162.364 246.161 161.465 245.049C160.565 243.937 160.115 242.391 160.115 240.412C160.115 239.103 160.352 237.975 160.827 237.026C161.318 236.077 161.955 235.349 162.741 234.842C163.526 234.335 164.352 234.082 165.219 234.082C165.906 234.082 166.486 234.204 166.961 234.45C167.451 234.679 167.926 234.998 168.384 235.407L168.286 233.468V229.101H171.107V246.423H168.776L168.58 245.123H168.482C168.04 245.564 167.525 245.94 166.936 246.251C166.347 246.562 165.726 246.717 165.071 246.717ZM165.758 244.387C166.658 244.387 167.5 243.937 168.286 243.037V237.419C167.877 237.042 167.468 236.781 167.059 236.633C166.65 236.486 166.241 236.413 165.832 236.413C165.063 236.413 164.401 236.764 163.845 237.468C163.305 238.155 163.035 239.128 163.035 240.387C163.035 241.679 163.272 242.669 163.747 243.356C164.221 244.043 164.891 244.387 165.758 244.387ZM179.612 246.423V234.376H181.943L182.139 236.511H182.237C182.663 235.726 183.178 235.129 183.783 234.72C184.388 234.294 185.01 234.082 185.648 234.082C186.22 234.082 186.678 234.164 187.022 234.327L186.531 236.781C186.319 236.715 186.122 236.666 185.942 236.633C185.762 236.601 185.542 236.584 185.28 236.584C184.806 236.584 184.307 236.772 183.783 237.149C183.26 237.508 182.81 238.146 182.434 239.062V246.423H179.612ZM192.347 246.717C191.055 246.717 190.114 246.3 189.526 245.466C188.937 244.632 188.642 243.454 188.642 241.933V234.376H191.464V241.565C191.464 242.563 191.611 243.266 191.906 243.675C192.2 244.084 192.674 244.288 193.329 244.288C193.852 244.288 194.31 244.158 194.703 243.896C195.112 243.634 195.545 243.209 196.003 242.62V234.376H198.825V246.423H196.518L196.297 244.656H196.224C195.7 245.278 195.128 245.777 194.506 246.153C193.885 246.529 193.165 246.717 192.347 246.717ZM202.398 246.423V234.376H204.729L204.926 235.995H205.024C205.563 235.472 206.152 235.022 206.79 234.646C207.428 234.27 208.156 234.082 208.974 234.082C210.266 234.082 211.207 234.499 211.795 235.333C212.384 236.167 212.679 237.345 212.679 238.866V246.423H209.857V239.234C209.857 238.236 209.71 237.533 209.415 237.124C209.121 236.715 208.639 236.511 207.968 236.511C207.444 236.511 206.978 236.642 206.569 236.903C206.177 237.149 205.727 237.517 205.22 238.007V246.423H202.398ZM221.849 251.379C221.522 251.379 221.236 251.355 220.99 251.305C220.745 251.256 220.508 251.199 220.279 251.134L220.794 248.926C220.909 248.958 221.039 248.991 221.187 249.024C221.35 249.073 221.506 249.097 221.653 249.097C222.291 249.097 222.798 248.901 223.174 248.508C223.567 248.132 223.861 247.642 224.057 247.036L224.278 246.276L219.543 234.376H222.413L224.499 240.289C224.679 240.813 224.851 241.369 225.014 241.958C225.194 242.53 225.374 243.103 225.554 243.675H225.652C225.799 243.119 225.947 242.555 226.094 241.982C226.257 241.393 226.413 240.829 226.56 240.289L228.376 234.376H231.099L226.732 246.963C226.225 248.32 225.611 249.392 224.891 250.177C224.172 250.978 223.158 251.379 221.849 251.379ZM237.975 246.717C236.977 246.717 236.045 246.472 235.178 245.981C234.311 245.474 233.608 244.755 233.068 243.822C232.528 242.874 232.258 241.737 232.258 240.412C232.258 239.071 232.528 237.934 233.068 237.001C233.608 236.053 234.311 235.333 235.178 234.842C236.045 234.335 236.977 234.082 237.975 234.082C238.989 234.082 239.93 234.335 240.797 234.842C241.664 235.333 242.367 236.053 242.907 237.001C243.447 237.934 243.716 239.071 243.716 240.412C243.716 241.737 243.447 242.874 242.907 243.822C242.367 244.755 241.664 245.474 240.797 245.981C239.93 246.472 238.989 246.717 237.975 246.717ZM237.975 244.411C238.858 244.411 239.554 244.043 240.061 243.307C240.568 242.571 240.821 241.606 240.821 240.412C240.821 239.201 240.568 238.228 240.061 237.492C239.554 236.756 238.858 236.388 237.975 236.388C237.092 236.388 236.397 236.756 235.89 237.492C235.399 238.228 235.154 239.201 235.154 240.412C235.154 241.606 235.399 242.571 235.89 243.307C236.397 244.043 237.092 244.411 237.975 244.411ZM250.091 246.717C248.799 246.717 247.859 246.3 247.27 245.466C246.681 244.632 246.387 243.454 246.387 241.933V234.376H249.208V241.565C249.208 242.563 249.355 243.266 249.65 243.675C249.944 244.084 250.419 244.288 251.073 244.288C251.596 244.288 252.054 244.158 252.447 243.896C252.856 243.634 253.289 243.209 253.747 242.62V234.376H256.569V246.423H254.262L254.042 244.656H253.968C253.445 245.278 252.872 245.777 252.25 246.153C251.629 246.529 250.909 246.717 250.091 246.717ZM260.143 246.423V234.376H262.473L262.67 236.511H262.768C263.193 235.726 263.708 235.129 264.314 234.72C264.919 234.294 265.54 234.082 266.178 234.082C266.751 234.082 267.209 234.164 267.552 234.327L267.062 236.781C266.849 236.715 266.653 236.666 266.473 236.633C266.293 236.601 266.072 236.584 265.81 236.584C265.336 236.584 264.837 236.772 264.314 237.149C263.79 237.508 263.34 238.146 262.964 239.062V246.423H260.143ZM66.2501 275.423V259.377H69.4642L72.3103 267.228C72.4903 267.735 72.662 268.259 72.8256 268.798C73.0055 269.322 73.1772 269.845 73.3408 270.369H73.439C73.6189 269.845 73.7906 269.322 73.9542 268.798C74.1178 268.259 74.2813 267.735 74.4449 267.228L77.2174 259.377H80.456V275.423H77.8308V268.087C77.8308 267.58 77.8471 267.032 77.8798 266.443C77.9289 265.838 77.978 265.233 78.027 264.627C78.0925 264.022 78.1497 263.474 78.1988 262.984H78.1007L76.8003 266.713L74.175 273.926H72.4821L69.8323 266.713L68.5564 262.984H68.4583C68.5074 263.474 68.5564 264.022 68.6055 264.627C68.6709 265.233 68.72 265.838 68.7527 266.443C68.8018 267.032 68.8263 267.58 68.8263 268.087V275.423H66.2501ZM84.5318 275.423V259.377H87.3779V273.019H94.0515V275.423H84.5318ZM103.501 275.423L100.312 263.376H103.158L104.605 269.633C104.736 270.205 104.842 270.778 104.924 271.35C105.022 271.923 105.129 272.503 105.243 273.092H105.341C105.456 272.503 105.57 271.923 105.685 271.35C105.816 270.761 105.955 270.189 106.102 269.633L107.672 263.376H110.248L111.843 269.633C111.99 270.205 112.129 270.778 112.26 271.35C112.391 271.923 112.522 272.503 112.653 273.092H112.751C112.865 272.503 112.972 271.923 113.07 271.35C113.168 270.778 113.274 270.205 113.389 269.633L114.836 263.376H117.486L114.419 275.423H111.058L109.66 269.804C109.529 269.232 109.406 268.668 109.292 268.111C109.177 267.539 109.054 266.934 108.923 266.296H108.825C108.711 266.934 108.596 267.539 108.482 268.111C108.367 268.684 108.245 269.256 108.114 269.829L106.74 275.423H103.501ZM124.655 275.717C123.657 275.717 122.725 275.472 121.858 274.981C120.991 274.474 120.288 273.755 119.748 272.822C119.208 271.874 118.938 270.737 118.938 269.412C118.938 268.071 119.208 266.934 119.748 266.001C120.288 265.053 120.991 264.333 121.858 263.842C122.725 263.335 123.657 263.082 124.655 263.082C125.669 263.082 126.61 263.335 127.477 263.842C128.344 264.333 129.047 265.053 129.587 266.001C130.127 266.934 130.396 268.071 130.396 269.412C130.396 270.737 130.127 271.874 129.587 272.822C129.047 273.755 128.344 274.474 127.477 274.981C126.61 275.472 125.669 275.717 124.655 275.717ZM124.655 273.411C125.538 273.411 126.234 273.043 126.741 272.307C127.248 271.571 127.501 270.606 127.501 269.412C127.501 268.201 127.248 267.228 126.741 266.492C126.234 265.756 125.538 265.388 124.655 265.388C123.772 265.388 123.077 265.756 122.57 266.492C122.079 267.228 121.834 268.201 121.834 269.412C121.834 270.606 122.079 271.571 122.57 272.307C123.077 273.043 123.772 273.411 124.655 273.411ZM133.189 275.423V263.376H135.52L135.716 265.511H135.815C136.24 264.726 136.755 264.129 137.36 263.72C137.965 263.294 138.587 263.082 139.225 263.082C139.797 263.082 140.255 263.164 140.599 263.327L140.108 265.781C139.896 265.715 139.699 265.666 139.519 265.633C139.339 265.601 139.119 265.584 138.857 265.584C138.383 265.584 137.884 265.772 137.36 266.149C136.837 266.508 136.387 267.146 136.011 268.062V275.423H133.189ZM142.342 275.423V258.101H145.115V268.921H145.188L149.654 263.376H152.745L148.623 268.283L153.162 275.423H150.095L147.004 270.197L145.115 272.356V275.423H142.342ZM155.652 275.423V265.609H154.032V263.499L155.652 263.376V262.125C155.652 260.865 155.962 259.835 156.584 259.033C157.205 258.216 158.228 257.807 159.651 257.807C160.076 257.807 160.485 257.848 160.878 257.929C161.27 258.011 161.597 258.109 161.859 258.224L161.319 260.334C160.878 260.137 160.436 260.039 159.994 260.039C158.98 260.039 158.473 260.718 158.473 262.076V263.376H160.828V265.609H158.473V275.423H155.652ZM165.696 275.717C164.698 275.717 163.987 275.415 163.561 274.81C163.152 274.204 162.948 273.378 162.948 272.332V258.101H165.769V272.479C165.769 272.822 165.835 273.068 165.966 273.215C166.097 273.346 166.236 273.411 166.383 273.411C166.448 273.411 166.505 273.411 166.555 273.411C166.62 273.395 166.71 273.378 166.824 273.362L167.192 275.472C167.029 275.537 166.816 275.595 166.555 275.644C166.309 275.693 166.023 275.717 165.696 275.717ZM174.54 275.717C173.543 275.717 172.61 275.472 171.743 274.981C170.876 274.474 170.173 273.755 169.633 272.822C169.094 271.874 168.824 270.737 168.824 269.412C168.824 268.071 169.094 266.934 169.633 266.001C170.173 265.053 170.876 264.333 171.743 263.842C172.61 263.335 173.543 263.082 174.54 263.082C175.555 263.082 176.495 263.335 177.362 263.842C178.229 264.333 178.932 265.053 179.472 266.001C180.012 266.934 180.282 268.071 180.282 269.412C180.282 270.737 180.012 271.874 179.472 272.822C178.932 273.755 178.229 274.474 177.362 274.981C176.495 275.472 175.555 275.717 174.54 275.717ZM174.54 273.411C175.424 273.411 176.119 273.043 176.626 272.307C177.133 271.571 177.387 270.606 177.387 269.412C177.387 268.201 177.133 267.228 176.626 266.492C176.119 265.756 175.424 265.388 174.54 265.388C173.657 265.388 172.962 265.756 172.455 266.492C171.964 267.228 171.719 268.201 171.719 269.412C171.719 270.606 171.964 271.571 172.455 272.307C172.962 273.043 173.657 273.411 174.54 273.411ZM184.918 275.423L181.728 263.376H184.575L186.022 269.633C186.153 270.205 186.259 270.778 186.341 271.35C186.439 271.923 186.546 272.503 186.66 273.092H186.758C186.873 272.503 186.987 271.923 187.102 271.35C187.233 270.761 187.372 270.189 187.519 269.633L189.089 263.376H191.665L193.26 269.633C193.407 270.205 193.546 270.778 193.677 271.35C193.808 271.923 193.939 272.503 194.07 273.092H194.168C194.282 272.503 194.389 271.923 194.487 271.35C194.585 270.778 194.691 270.205 194.806 269.633L196.253 263.376H198.903L195.836 275.423H192.475L191.076 269.804C190.946 269.232 190.823 268.668 190.708 268.111C190.594 267.539 190.471 266.934 190.34 266.296H190.242C190.128 266.934 190.013 267.539 189.899 268.111C189.784 268.684 189.662 269.256 189.531 269.829L188.157 275.423H184.918ZM205.239 280.477C204.798 280.477 204.421 280.445 204.111 280.379C203.783 280.314 203.505 280.24 203.276 280.158L203.816 278.048C203.98 278.097 204.151 278.138 204.331 278.171C204.495 278.22 204.667 278.245 204.847 278.245C205.386 278.245 205.746 278.056 205.926 277.68C206.122 277.32 206.221 276.789 206.221 276.085V263.376H209.067V276.036C209.067 276.887 208.944 277.648 208.699 278.318C208.453 278.989 208.053 279.512 207.496 279.888C206.94 280.281 206.188 280.477 205.239 280.477ZM207.644 261.266C207.137 261.266 206.728 261.119 206.417 260.824C206.106 260.53 205.951 260.137 205.951 259.647C205.951 259.172 206.106 258.788 206.417 258.494C206.728 258.199 207.137 258.052 207.644 258.052C208.151 258.052 208.56 258.199 208.87 258.494C209.181 258.788 209.337 259.172 209.337 259.647C209.337 260.137 209.181 260.53 208.87 260.824C208.56 261.119 208.151 261.266 207.644 261.266ZM217.573 275.717C216.575 275.717 215.643 275.472 214.776 274.981C213.909 274.474 213.206 273.755 212.666 272.822C212.126 271.874 211.856 270.737 211.856 269.412C211.856 268.071 212.126 266.934 212.666 266.001C213.206 265.053 213.909 264.333 214.776 263.842C215.643 263.335 216.575 263.082 217.573 263.082C218.587 263.082 219.528 263.335 220.395 263.842C221.261 264.333 221.965 265.053 222.505 266.001C223.044 266.934 223.314 268.071 223.314 269.412C223.314 270.737 223.044 271.874 222.505 272.822C221.965 273.755 221.261 274.474 220.395 274.981C219.528 275.472 218.587 275.717 217.573 275.717ZM217.573 273.411C218.456 273.411 219.151 273.043 219.658 272.307C220.166 271.571 220.419 270.606 220.419 269.412C220.419 268.201 220.166 267.228 219.658 266.492C219.151 265.756 218.456 265.388 217.573 265.388C216.69 265.388 215.995 265.756 215.487 266.492C214.997 267.228 214.751 268.201 214.751 269.412C214.751 270.606 214.997 271.571 215.487 272.307C215.995 273.043 216.69 273.411 217.573 273.411ZM231.946 275.717C230.801 275.717 229.706 275.194 228.659 274.147H228.585L228.34 275.423H226.107V258.101H228.929V262.566L228.855 264.578C229.362 264.137 229.918 263.777 230.523 263.499C231.129 263.221 231.734 263.082 232.339 263.082C233.844 263.082 235.013 263.638 235.848 264.75C236.682 265.862 237.099 267.343 237.099 269.191C237.099 270.565 236.854 271.743 236.363 272.724C235.872 273.689 235.234 274.433 234.449 274.957C233.68 275.464 232.846 275.717 231.946 275.717ZM231.358 273.387C232.159 273.387 232.83 273.035 233.369 272.332C233.909 271.628 234.179 270.598 234.179 269.24C234.179 268.03 233.975 267.089 233.566 266.419C233.157 265.748 232.494 265.413 231.578 265.413C230.728 265.413 229.845 265.862 228.929 266.762V272.381C229.354 272.74 229.771 273.002 230.18 273.166C230.605 273.313 230.998 273.387 231.358 273.387ZM243.198 275.717C242.38 275.717 241.562 275.562 240.744 275.251C239.926 274.924 239.223 274.523 238.634 274.049L239.959 272.233C240.499 272.642 241.039 272.969 241.578 273.215C242.118 273.46 242.691 273.583 243.296 273.583C243.95 273.583 244.433 273.444 244.743 273.166C245.054 272.888 245.209 272.544 245.209 272.135C245.209 271.792 245.079 271.514 244.817 271.301C244.572 271.072 244.253 270.876 243.86 270.712C243.467 270.532 243.059 270.361 242.633 270.197C242.11 270.001 241.586 269.764 241.063 269.485C240.556 269.191 240.139 268.823 239.812 268.381C239.485 267.923 239.321 267.359 239.321 266.688C239.321 265.625 239.714 264.758 240.499 264.088C241.284 263.417 242.347 263.082 243.688 263.082C244.539 263.082 245.299 263.229 245.97 263.523C246.641 263.818 247.221 264.153 247.712 264.529L246.412 266.247C245.986 265.936 245.553 265.691 245.111 265.511C244.686 265.314 244.236 265.216 243.762 265.216C243.157 265.216 242.707 265.347 242.412 265.609C242.118 265.854 241.971 266.165 241.971 266.541C241.971 267.016 242.216 267.375 242.707 267.621C243.198 267.866 243.77 268.103 244.424 268.332C244.981 268.529 245.52 268.774 246.044 269.068C246.567 269.346 247.001 269.714 247.344 270.172C247.704 270.63 247.884 271.236 247.884 271.988C247.884 273.019 247.483 273.902 246.682 274.638C245.88 275.358 244.719 275.717 243.198 275.717Z" fill="#AEB3BD"/>
<defs>
<linearGradient id="paint0_linear_444_741" x1="151.697" y1="72.2468" x2="151.697" y2="127.659" gradientUnits="userSpaceOnUse">
<stop offset="0.385417" stop-color="#FFCC33"/>
<stop offset="0.71875" stop-color="#FFAD33"/>
</linearGradient>
<linearGradient id="paint1_linear_444_741" x1="151.697" y1="72.2468" x2="151.697" y2="127.659" gradientUnits="userSpaceOnUse">
<stop offset="0.385417" stop-color="#FFCC33"/>
<stop offset="0.71875" stop-color="#FFAD33"/>
</linearGradient>
<linearGradient id="paint2_linear_444_741" x1="151.697" y1="72.2468" x2="151.697" y2="127.659" gradientUnits="userSpaceOnUse">
<stop offset="0.385417" stop-color="#FFCC33"/>
<stop offset="0.71875" stop-color="#FFAD33"/>
</linearGradient>
</defs>
</svg>
