<svg width="314" height="320" viewBox="0 0 314 320" fill="none" xmlns="http://www.w3.org/2000/svg">
<path d="M18.6325 0.94727H294.654C304.394 0.94727 312.289 8.84261 312.289 18.582V300.738C312.289 310.477 304.394 318.373 294.654 318.373H18.6325C8.89307 318.373 0.997746 310.477 0.997746 300.738V18.582C0.997746 8.84259 8.89308 0.94727 18.6325 0.94727Z" fill="#20242B"/>
<path d="M18.6325 0.94727H294.654C304.394 0.94727 312.289 8.84261 312.289 18.582V300.738C312.289 310.477 304.394 318.373 294.654 318.373H18.6325C8.89307 318.373 0.997746 310.477 0.997746 300.738V18.582C0.997746 8.84259 8.89308 0.94727 18.6325 0.94727Z" stroke="#4B535C" stroke-width="1.53346"/>
<rect x="101.841" y="36.9834" width="109.605" height="109.605" rx="54.8025" fill="white" fill-opacity="0.12"/>
<path d="M166.863 68.281C166.863 73.9251 162.288 78.5006 156.643 78.5006C150.999 78.5006 146.424 73.9251 146.424 68.281C146.424 62.6369 150.999 58.0614 156.643 58.0614C162.288 58.0614 166.863 62.6369 166.863 68.281Z" fill="url(#paint0_linear_444_719)"/>
<path d="M166.863 115.291C166.863 120.935 162.288 125.511 156.643 125.511C150.999 125.511 146.424 120.935 146.424 115.291C146.424 109.647 150.999 105.072 156.643 105.072C162.288 105.072 166.863 109.647 166.863 115.291Z" fill="url(#paint1_linear_444_719)"/>
<path d="M133.138 102.006C138.782 102.006 143.358 97.4302 143.358 91.786C143.358 86.1419 138.782 81.5665 133.138 81.5665C127.494 81.5665 122.919 86.1419 122.919 91.786C122.919 97.4302 127.494 102.006 133.138 102.006Z" fill="url(#paint2_linear_444_719)"/>
<path d="M190.368 91.786C190.368 97.4302 185.793 102.006 180.148 102.006C174.504 102.006 169.929 97.4302 169.929 91.786C169.929 86.1419 174.504 81.5665 180.148 81.5665C185.793 81.5665 190.368 86.1419 190.368 91.786Z" fill="url(#paint3_linear_444_719)"/>
<path d="M149.19 78.2013C149.39 78.4008 149.39 78.7243 149.19 78.9239L143.781 84.333C143.582 84.5326 143.258 84.5326 143.059 84.333L141.613 82.8877C141.414 82.6882 141.414 82.3647 141.613 82.1651L147.023 76.756C147.222 76.5564 147.546 76.5564 147.745 76.756L149.19 78.2013Z" fill="url(#paint4_linear_444_719)"/>
<path d="M167.374 92.808C167.374 93.0902 167.145 93.319 166.863 93.319H146.424C146.142 93.319 145.913 93.0902 145.913 92.808V90.7641C145.913 90.4819 146.142 90.2531 146.424 90.2531H166.863C167.145 90.2531 167.374 90.4819 167.374 90.7641V92.808Z" fill="url(#paint5_linear_444_719)"/>
<path d="M166.264 106.816C166.065 107.016 165.741 107.016 165.542 106.816L164.096 105.371C163.897 105.171 163.897 104.848 164.096 104.648L169.506 99.2391C169.705 99.0395 170.029 99.0395 170.228 99.2391L171.674 100.684C171.873 100.884 171.873 101.207 171.674 101.407L166.264 106.816Z" fill="url(#paint6_linear_444_719)"/>
<path d="M164.097 78.2013C163.897 78.4008 163.897 78.7243 164.097 78.9239L169.506 84.333C169.705 84.5326 170.029 84.5326 170.228 84.333L171.674 82.8877C171.873 82.6882 171.873 82.3647 171.674 82.1651L166.264 76.756C166.065 76.5564 165.741 76.5564 165.542 76.756L164.097 78.2013Z" fill="url(#paint7_linear_444_719)"/>
<path d="M147.023 106.816C147.222 107.016 147.546 107.016 147.745 106.816L149.19 105.371C149.39 105.171 149.39 104.848 149.19 104.648L143.781 99.2391C143.582 99.0395 143.258 99.0395 143.059 99.2391L141.613 100.684C141.414 100.884 141.414 101.207 141.613 101.407L147.023 106.816Z" fill="url(#paint8_linear_444_719)"/>
<path d="M46.7068 200.99V176.847H50.5711L55.1347 189.765C55.7235 191.458 56.2387 193.004 56.754 194.807H56.9012C57.4532 193.004 57.8949 191.458 58.4837 189.765L63.0473 176.847H66.9116V200.99H64.0042V187.667C64.0042 185.533 64.2618 182.552 64.4458 180.454H64.2986L62.4216 186.085L57.8949 198.561H55.6499L51.1599 186.085L49.2462 180.454H49.099C49.283 182.552 49.5406 185.533 49.5406 187.667V200.99H46.7068ZM80.1445 201.432C75.765 201.432 71.8639 198.009 71.8639 192.084C71.8639 186.085 75.765 182.662 80.1445 182.662C84.5241 182.662 88.462 186.085 88.462 192.084C88.462 198.009 84.5241 201.432 80.1445 201.432ZM80.1445 198.892C83.236 198.892 85.297 196.169 85.297 192.084C85.297 187.962 83.236 185.202 80.1445 185.202C77.0899 185.202 75.0289 187.962 75.0289 192.084C75.0289 196.169 77.0899 198.892 80.1445 198.892ZM99.245 201.432C94.755 201.432 91.8476 198.046 91.8476 192.084C91.8476 186.269 95.5279 182.662 99.613 182.662C101.674 182.662 103.036 183.435 104.618 184.723L104.471 181.668V174.786H107.526V200.99H105.023L104.765 198.892H104.655C103.256 200.254 101.343 201.432 99.245 201.432ZM99.9074 198.855C101.564 198.855 102.999 198.046 104.471 196.426V187.078C102.962 185.717 101.6 185.238 100.128 185.238C97.2944 185.238 95.0126 187.962 95.0126 192.047C95.0126 196.316 96.7792 198.855 99.9074 198.855ZM120.763 201.432C115.979 201.432 112.225 197.972 112.225 192.047C112.225 186.232 116.163 182.662 120.248 182.662C124.812 182.662 127.425 185.901 127.425 191.053C127.425 191.716 127.388 192.268 127.277 192.857H115.243C115.5 196.537 117.745 198.966 121.131 198.966C122.861 198.966 124.37 198.487 125.621 197.641L126.688 199.591C125.143 200.696 123.229 201.432 120.763 201.432ZM115.243 190.501H124.701C124.701 186.968 123.045 185.091 120.322 185.091C117.819 185.091 115.611 187.078 115.243 190.501ZM135.009 201.432C132.728 201.432 131.808 199.96 131.808 197.383V174.786H134.862V197.604C134.862 198.561 135.267 198.892 135.745 198.892C135.929 198.892 136.077 198.892 136.371 198.819L136.776 201.1C136.334 201.321 135.782 201.432 135.009 201.432ZM148.85 200.99V176.847H156.395C161.326 176.847 164.859 178.614 164.859 183.656C164.859 187.41 162.725 189.618 159.449 190.464L165.595 200.99H162.099L156.284 190.796H151.942V200.99H148.85ZM151.942 188.293H155.953C159.707 188.293 161.768 186.747 161.768 183.656C161.768 180.491 159.707 179.35 155.953 179.35H151.942V188.293ZM176.399 201.432C171.614 201.432 167.861 197.972 167.861 192.047C167.861 186.232 171.798 182.662 175.884 182.662C180.447 182.662 183.06 185.901 183.06 191.053C183.06 191.716 183.023 192.268 182.913 192.857H170.878C171.136 196.537 173.381 198.966 176.767 198.966C178.497 198.966 180.006 198.487 181.257 197.641L182.324 199.591C180.778 200.696 178.865 201.432 176.399 201.432ZM170.878 190.501H180.337C180.337 186.968 178.681 185.091 175.957 185.091C173.455 185.091 171.246 187.078 170.878 190.501ZM193.119 209.234C188.74 209.234 185.722 207.504 185.722 204.413C185.722 202.904 186.716 201.468 188.335 200.364V200.217C187.452 199.665 186.753 198.708 186.753 197.31C186.753 195.801 187.783 194.623 188.703 193.997V193.85C187.525 192.893 186.385 191.164 186.385 189.029C186.385 185.128 189.476 182.662 193.119 182.662C194.113 182.662 194.996 182.846 195.659 183.104H201.879V185.459H198.235C199.082 186.269 199.67 187.594 199.67 189.103C199.67 192.93 196.763 195.322 193.119 195.322C192.236 195.322 191.279 195.102 190.47 194.697C189.807 195.249 189.329 195.838 189.329 196.831C189.329 197.935 190.065 198.745 192.457 198.745H195.916C200.075 198.745 202.173 200.07 202.173 203.014C202.173 206.363 198.677 209.234 193.119 209.234ZM193.119 193.261C195.18 193.261 196.91 191.642 196.91 189.029C196.91 186.453 195.217 184.87 193.119 184.87C191.022 184.87 189.329 186.416 189.329 189.029C189.329 191.642 191.059 193.261 193.119 193.261ZM193.561 207.099C196.947 207.099 199.192 205.333 199.192 203.493C199.192 201.836 197.941 201.284 195.585 201.284H192.531C191.831 201.284 190.985 201.211 190.212 200.99C188.924 201.91 188.372 202.977 188.372 204.008C188.372 205.922 190.322 207.099 193.561 207.099ZM205.665 200.99V183.104H208.72V200.99H205.665ZM207.211 179.423C206.033 179.423 205.186 178.651 205.186 177.436C205.186 176.258 206.033 175.449 207.211 175.449C208.388 175.449 209.235 176.258 209.235 177.436C209.235 178.651 208.388 179.423 207.211 179.423ZM219.432 201.432C216.819 201.432 214.427 200.475 212.771 198.855L214.169 197.089C215.715 198.377 217.334 199.039 219.542 199.039C221.898 199.039 223.039 197.825 223.039 196.279C223.039 194.439 221.051 193.666 219.027 192.93C216.34 191.973 213.764 190.685 213.764 187.741C213.764 184.87 216.046 182.662 219.947 182.662C222.192 182.662 224.106 183.509 225.504 184.686L224.106 186.453C222.855 185.533 221.566 185.018 219.984 185.018C217.702 185.018 216.708 186.269 216.708 187.594C216.708 189.213 218.254 189.876 220.499 190.648C223.296 191.642 225.983 192.857 225.983 196.095C225.983 199.003 223.664 201.432 219.432 201.432ZM235.088 201.432C231.261 201.432 229.973 199.003 229.973 195.433V185.57H227.323V183.288L230.12 183.104L230.488 177.363H233.027V183.104H237.885V185.57H233.027V195.506C233.027 197.678 233.763 198.929 235.788 198.929C236.45 198.929 237.112 198.819 237.849 198.487L238.474 200.659C237.517 201.1 236.303 201.432 235.088 201.432ZM241.929 200.99V183.104H244.431L244.689 186.342H244.799C246.051 184.097 247.891 182.662 249.878 182.662C250.688 182.662 251.24 182.773 251.792 183.03L251.129 185.643C250.614 185.496 250.209 185.422 249.51 185.422C248.001 185.422 246.198 186.49 244.983 189.507V200.99H241.929ZM255.989 208.682C255.143 208.682 254.443 208.535 253.855 208.314L254.517 205.922C254.959 206.069 255.4 206.142 255.842 206.142C257.829 206.142 259.117 204.56 259.854 202.352L260.258 201.027L253.082 183.104H256.247L259.854 192.967C260.442 194.513 261.031 196.353 261.62 198.009H261.767C262.246 196.39 262.761 194.549 263.239 192.967L266.441 183.104H269.422L262.687 202.462C261.436 205.995 259.559 208.682 255.989 208.682Z" fill="white"/>
<path d="M48.4987 245.395V229.349H53.921C55.0333 229.349 56.0311 229.496 56.9143 229.791C57.814 230.085 58.5173 230.584 59.0244 231.287C59.5478 231.974 59.8095 232.915 59.8095 234.109C59.8095 235.336 59.5151 236.325 58.9262 237.078C58.3537 237.83 57.585 238.37 56.6199 238.697L60.4474 245.395H57.2578L53.7983 239.114H51.3448V245.395H48.4987ZM51.3448 236.857H53.6266C54.7225 236.857 55.5567 236.628 56.1292 236.17C56.718 235.696 57.0125 235.009 57.0125 234.109C57.0125 233.193 56.718 232.555 56.1292 232.195C55.5567 231.819 54.7225 231.631 53.6266 231.631H51.3448V236.857ZM67.6861 245.69C66.5738 245.69 65.5679 245.444 64.6682 244.954C63.7686 244.446 63.0571 243.727 62.5337 242.794C62.0103 241.846 61.7485 240.709 61.7485 239.384C61.7485 238.075 62.0103 236.947 62.5337 235.998C63.0734 235.049 63.7686 234.322 64.6192 233.814C65.4697 233.307 66.3612 233.054 67.2935 233.054C68.3894 233.054 69.3054 233.299 70.0415 233.79C70.7775 234.264 71.3337 234.935 71.7099 235.802C72.0861 236.652 72.2742 237.642 72.2742 238.771C72.2742 239.359 72.2333 239.817 72.1515 240.145H64.4965C64.6273 241.208 65.0117 242.034 65.6497 242.623C66.2876 243.212 67.0891 243.506 68.0541 243.506C68.5775 243.506 69.0601 243.432 69.5017 243.285C69.9597 243.122 70.4095 242.901 70.8511 242.623L71.808 244.389C71.2355 244.765 70.5976 245.076 69.8943 245.322C69.1909 245.567 68.4549 245.69 67.6861 245.69ZM64.472 238.231H69.8207C69.8207 237.298 69.6162 236.571 69.2073 236.047C68.7983 235.507 68.185 235.238 67.3671 235.238C66.6638 235.238 66.034 235.499 65.4779 236.023C64.9381 236.53 64.6028 237.266 64.472 238.231ZM78.925 250.719C77.9763 250.719 77.1175 250.605 76.3488 250.376C75.5963 250.147 74.9993 249.795 74.5577 249.321C74.1324 248.863 73.9198 248.282 73.9198 247.579C73.9198 246.581 74.4923 245.722 75.6372 245.003V244.904C75.3265 244.708 75.0647 244.446 74.8521 244.119C74.6558 243.792 74.5577 243.383 74.5577 242.893C74.5577 242.418 74.6885 241.993 74.9503 241.617C75.2283 241.224 75.5391 240.905 75.8826 240.66V240.562C75.4737 240.251 75.1056 239.817 74.7785 239.261C74.4677 238.705 74.3123 238.075 74.3123 237.372C74.3123 236.44 74.5332 235.655 74.9748 235.017C75.4164 234.379 75.9971 233.896 76.7168 233.569C77.4529 233.226 78.238 233.054 79.0722 233.054C79.3993 233.054 79.7101 233.087 80.0045 233.152C80.3153 233.201 80.5934 233.267 80.8387 233.348H85.1569V235.434H82.9488C83.145 235.663 83.3086 235.957 83.4395 236.317C83.5703 236.661 83.6357 237.045 83.6357 237.47C83.6357 238.354 83.4313 239.106 83.0224 239.727C82.6134 240.333 82.0655 240.791 81.3785 241.101C80.6915 241.412 79.9227 241.568 79.0722 241.568C78.8105 241.568 78.5406 241.543 78.2625 241.494C77.9844 241.445 77.7064 241.363 77.4283 241.249C77.2484 241.412 77.1012 241.576 76.9867 241.739C76.8885 241.903 76.8395 242.124 76.8395 242.402C76.8395 242.745 76.9785 243.015 77.2566 243.212C77.551 243.408 78.0662 243.506 78.8023 243.506H80.9369C82.3926 243.506 83.4885 243.743 84.2246 244.217C84.977 244.675 85.3532 245.428 85.3532 246.475C85.3532 247.26 85.0915 247.971 84.5681 248.609C84.0447 249.264 83.3004 249.779 82.3354 250.155C81.3703 250.531 80.2335 250.719 78.925 250.719ZM79.0722 239.801C79.6447 239.801 80.1354 239.588 80.5443 239.163C80.9532 238.738 81.1577 238.141 81.1577 237.372C81.1577 236.62 80.9532 236.039 80.5443 235.63C80.1517 235.205 79.661 234.992 79.0722 234.992C78.4833 234.992 77.9844 235.197 77.5755 235.606C77.1666 236.014 76.9621 236.603 76.9621 237.372C76.9621 238.141 77.1666 238.738 77.5755 239.163C77.9844 239.588 78.4833 239.801 79.0722 239.801ZM79.3666 248.879C80.3317 248.879 81.1168 248.683 81.722 248.29C82.3272 247.898 82.6298 247.448 82.6298 246.941C82.6298 246.467 82.4417 246.148 82.0655 245.984C81.7056 245.82 81.1822 245.739 80.4952 245.739H78.8514C78.1971 245.739 77.6491 245.681 77.2075 245.567C76.5859 246.041 76.2752 246.573 76.2752 247.162C76.2752 247.701 76.5532 248.119 77.1094 248.413C77.6655 248.724 78.4179 248.879 79.3666 248.879ZM87.4763 245.395V233.348H90.2978V245.395H87.4763ZM88.8993 231.238C88.3923 231.238 87.9833 231.091 87.6726 230.797C87.3618 230.502 87.2064 230.11 87.2064 229.619C87.2064 229.145 87.3618 228.76 87.6726 228.466C87.9833 228.171 88.3923 228.024 88.8993 228.024C89.4064 228.024 89.8153 228.171 90.1261 228.466C90.4369 228.76 90.5923 229.145 90.5923 229.619C90.5923 230.11 90.4369 230.502 90.1261 230.797C89.8153 231.091 89.4064 231.238 88.8993 231.238ZM97.259 245.69C96.4411 245.69 95.6233 245.534 94.8054 245.223C93.9876 244.896 93.2842 244.496 92.6954 244.021L94.0203 242.206C94.5601 242.614 95.0999 242.942 95.6396 243.187C96.1794 243.432 96.7519 243.555 97.3571 243.555C98.0114 243.555 98.4939 243.416 98.8047 243.138C99.1155 242.86 99.2709 242.516 99.2709 242.107C99.2709 241.764 99.14 241.486 98.8783 241.273C98.6329 241.044 98.314 240.848 97.9214 240.684C97.5288 240.504 97.1199 240.333 96.6947 240.169C96.1712 239.973 95.6478 239.736 95.1244 239.458C94.6173 239.163 94.2002 238.795 93.8731 238.354C93.546 237.896 93.3824 237.331 93.3824 236.661C93.3824 235.597 93.775 234.73 94.5601 234.06C95.3452 233.389 96.4084 233.054 97.7497 233.054C98.6002 233.054 99.3608 233.201 100.031 233.496C100.702 233.79 101.283 234.125 101.773 234.501L100.473 236.219C100.048 235.908 99.6143 235.663 99.1727 235.483C98.7474 235.287 98.2976 235.188 97.8233 235.188C97.2181 235.188 96.7683 235.319 96.4738 235.581C96.1794 235.826 96.0322 236.137 96.0322 236.513C96.0322 236.988 96.2776 237.348 96.7683 237.593C97.259 237.838 97.8315 238.075 98.4857 238.304C99.0419 238.501 99.5816 238.746 100.105 239.041C100.628 239.319 101.062 239.687 101.405 240.145C101.765 240.603 101.945 241.208 101.945 241.96C101.945 242.991 101.544 243.874 100.743 244.61C99.9415 245.33 98.7801 245.69 97.259 245.69ZM108.229 245.69C106.839 245.69 105.85 245.289 105.261 244.487C104.688 243.669 104.402 242.614 104.402 241.322V235.581H102.685V233.471L104.549 233.348L104.893 230.061H107.248V233.348H110.315V235.581H107.248V241.322C107.248 242.729 107.812 243.432 108.941 243.432C109.154 243.432 109.374 243.408 109.603 243.359C109.832 243.293 110.029 243.228 110.192 243.162L110.683 245.248C110.356 245.362 109.98 245.461 109.554 245.542C109.145 245.64 108.704 245.69 108.229 245.69ZM117.619 245.69C116.507 245.69 115.501 245.444 114.601 244.954C113.702 244.446 112.99 243.727 112.467 242.794C111.943 241.846 111.682 240.709 111.682 239.384C111.682 238.075 111.943 236.947 112.467 235.998C113.007 235.049 113.702 234.322 114.552 233.814C115.403 233.307 116.294 233.054 117.227 233.054C118.323 233.054 119.239 233.299 119.975 233.79C120.711 234.264 121.267 234.935 121.643 235.802C122.019 236.652 122.207 237.642 122.207 238.771C122.207 239.359 122.166 239.817 122.085 240.145H114.43C114.56 241.208 114.945 242.034 115.583 242.623C116.221 243.212 117.022 243.506 117.987 243.506C118.511 243.506 118.993 243.432 119.435 243.285C119.893 243.122 120.343 242.901 120.784 242.623L121.741 244.389C121.169 244.765 120.531 245.076 119.827 245.322C119.124 245.567 118.388 245.69 117.619 245.69ZM114.405 238.231H119.754C119.754 237.298 119.549 236.571 119.14 236.047C118.731 235.507 118.118 235.238 117.3 235.238C116.597 235.238 115.967 235.499 115.411 236.023C114.871 236.53 114.536 237.266 114.405 238.231ZM124.902 245.395V233.348H127.233L127.429 235.483H127.527C127.953 234.698 128.468 234.101 129.073 233.692C129.678 233.267 130.3 233.054 130.938 233.054C131.51 233.054 131.968 233.136 132.312 233.299L131.821 235.753C131.608 235.687 131.412 235.638 131.232 235.606C131.052 235.573 130.832 235.556 130.57 235.556C130.095 235.556 129.597 235.745 129.073 236.121C128.55 236.481 128.1 237.119 127.724 238.035V245.395H124.902ZM141.887 245.69C140.84 245.69 139.981 245.362 139.31 244.708C138.656 244.054 138.329 243.203 138.329 242.156C138.329 240.864 138.893 239.867 140.022 239.163C141.15 238.443 142.95 237.953 145.42 237.691C145.403 237.053 145.232 236.505 144.904 236.047C144.594 235.573 144.029 235.336 143.211 235.336C142.623 235.336 142.042 235.45 141.469 235.679C140.913 235.908 140.365 236.186 139.826 236.513L138.795 234.624C139.466 234.199 140.218 233.831 141.052 233.52C141.903 233.209 142.803 233.054 143.751 233.054C145.256 233.054 146.376 233.504 147.113 234.403C147.865 235.287 148.241 236.571 148.241 238.255V245.395H145.91L145.714 244.07H145.616C145.076 244.528 144.495 244.913 143.874 245.223C143.269 245.534 142.606 245.69 141.887 245.69ZM142.794 243.481C143.285 243.481 143.727 243.367 144.119 243.138C144.528 242.893 144.962 242.565 145.42 242.156V239.458C143.784 239.67 142.647 239.989 142.009 240.414C141.371 240.823 141.052 241.33 141.052 241.936C141.052 242.475 141.216 242.868 141.543 243.113C141.87 243.359 142.287 243.481 142.794 243.481ZM151.618 245.395V233.348H153.949L154.145 234.968H154.243C154.783 234.444 155.372 233.994 156.01 233.618C156.648 233.242 157.375 233.054 158.193 233.054C159.485 233.054 160.426 233.471 161.015 234.305C161.604 235.139 161.898 236.317 161.898 237.838V245.395H159.077V238.206C159.077 237.209 158.929 236.505 158.635 236.096C158.341 235.687 157.858 235.483 157.187 235.483C156.664 235.483 156.198 235.614 155.789 235.875C155.396 236.121 154.946 236.489 154.439 236.98V245.395H151.618ZM169.567 245.69C168.062 245.69 166.86 245.133 165.96 244.021C165.061 242.909 164.611 241.363 164.611 239.384C164.611 238.075 164.848 236.947 165.323 235.998C165.813 235.049 166.451 234.322 167.236 233.814C168.021 233.307 168.847 233.054 169.714 233.054C170.401 233.054 170.982 233.177 171.456 233.422C171.947 233.651 172.421 233.97 172.879 234.379L172.781 232.441V228.073H175.603V245.395H173.272L173.076 244.095H172.978C172.536 244.536 172.021 244.913 171.432 245.223C170.843 245.534 170.221 245.69 169.567 245.69ZM170.254 243.359C171.154 243.359 171.996 242.909 172.781 242.009V236.391C172.372 236.014 171.963 235.753 171.554 235.606C171.146 235.458 170.737 235.385 170.328 235.385C169.559 235.385 168.896 235.736 168.34 236.44C167.801 237.127 167.531 238.1 167.531 239.359C167.531 240.652 167.768 241.641 168.242 242.328C168.717 243.015 169.387 243.359 170.254 243.359ZM184.108 245.395V233.348H186.439L186.635 234.992H186.733C187.24 234.452 187.788 233.994 188.377 233.618C188.982 233.242 189.661 233.054 190.413 233.054C191.297 233.054 192 233.25 192.524 233.643C193.063 234.019 193.472 234.542 193.75 235.213C194.323 234.591 194.92 234.076 195.541 233.667C196.179 233.258 196.874 233.054 197.627 233.054C198.903 233.054 199.843 233.471 200.448 234.305C201.054 235.139 201.356 236.317 201.356 237.838V245.395H198.51V238.206C198.51 237.209 198.355 236.505 198.044 236.096C197.75 235.687 197.292 235.483 196.67 235.483C195.918 235.483 195.075 235.982 194.143 236.98V245.395H191.321V238.206C191.321 237.209 191.166 236.505 190.855 236.096C190.561 235.687 190.095 235.483 189.457 235.483C188.704 235.483 187.862 235.982 186.929 236.98V245.395H184.108ZM207.705 245.69C206.658 245.69 205.8 245.362 205.129 244.708C204.475 244.054 204.148 243.203 204.148 242.156C204.148 240.864 204.712 239.867 205.841 239.163C206.969 238.443 208.768 237.953 211.238 237.691C211.222 237.053 211.05 236.505 210.723 236.047C210.412 235.573 209.848 235.336 209.03 235.336C208.441 235.336 207.861 235.45 207.288 235.679C206.732 235.908 206.184 236.186 205.644 236.513L204.614 234.624C205.284 234.199 206.037 233.831 206.871 233.52C207.722 233.209 208.621 233.054 209.57 233.054C211.075 233.054 212.195 233.504 212.931 234.403C213.684 235.287 214.06 236.571 214.06 238.255V245.395H211.729L211.533 244.07H211.435C210.895 244.528 210.314 244.913 209.693 245.223C209.087 245.534 208.425 245.69 207.705 245.69ZM208.613 243.481C209.104 243.481 209.545 243.367 209.938 243.138C210.347 242.893 210.78 242.565 211.238 242.156V239.458C209.603 239.67 208.466 239.989 207.828 240.414C207.19 240.823 206.871 241.33 206.871 241.936C206.871 242.475 207.035 242.868 207.362 243.113C207.689 243.359 208.106 243.481 208.613 243.481ZM217.437 245.395V233.348H219.767L219.964 234.968H220.062C220.602 234.444 221.19 233.994 221.828 233.618C222.466 233.242 223.194 233.054 224.012 233.054C225.304 233.054 226.245 233.471 226.834 234.305C227.422 235.139 227.717 236.317 227.717 237.838V245.395H224.895V238.206C224.895 237.209 224.748 236.505 224.454 236.096C224.159 235.687 223.677 235.483 223.006 235.483C222.483 235.483 222.017 235.614 221.608 235.875C221.215 236.121 220.765 236.489 220.258 236.98V245.395H217.437ZM234.086 245.69C233.039 245.69 232.18 245.362 231.509 244.708C230.855 244.054 230.528 243.203 230.528 242.156C230.528 240.864 231.092 239.867 232.221 239.163C233.349 238.443 235.149 237.953 237.619 237.691C237.602 237.053 237.43 236.505 237.103 236.047C236.793 235.573 236.228 235.336 235.41 235.336C234.822 235.336 234.241 235.45 233.668 235.679C233.112 235.908 232.564 236.186 232.025 236.513L230.994 234.624C231.665 234.199 232.417 233.831 233.251 233.52C234.102 233.209 235.001 233.054 235.95 233.054C237.455 233.054 238.575 233.504 239.312 234.403C240.064 235.287 240.44 236.571 240.44 238.255V245.395H238.109L237.913 244.07H237.815C237.275 244.528 236.694 244.913 236.073 245.223C235.468 245.534 234.805 245.69 234.086 245.69ZM234.993 243.481C235.484 243.481 235.926 243.367 236.318 243.138C236.727 242.893 237.161 242.565 237.619 242.156V239.458C235.983 239.67 234.846 239.989 234.208 240.414C233.57 240.823 233.251 241.33 233.251 241.936C233.251 242.475 233.415 242.868 233.742 243.113C234.069 243.359 234.486 243.481 234.993 243.481ZM248.012 250.719C247.064 250.719 246.205 250.605 245.436 250.376C244.684 250.147 244.087 249.795 243.645 249.321C243.22 248.863 243.007 248.282 243.007 247.579C243.007 246.581 243.58 245.722 244.725 245.003V244.904C244.414 244.708 244.152 244.446 243.939 244.119C243.743 243.792 243.645 243.383 243.645 242.893C243.645 242.418 243.776 241.993 244.038 241.617C244.316 241.224 244.626 240.905 244.97 240.66V240.562C244.561 240.251 244.193 239.817 243.866 239.261C243.555 238.705 243.4 238.075 243.4 237.372C243.4 236.44 243.621 235.655 244.062 235.017C244.504 234.379 245.084 233.896 245.804 233.569C246.54 233.226 247.325 233.054 248.16 233.054C248.487 233.054 248.797 233.087 249.092 233.152C249.403 233.201 249.681 233.267 249.926 233.348H254.244V235.434H252.036C252.232 235.663 252.396 235.957 252.527 236.317C252.658 236.661 252.723 237.045 252.723 237.47C252.723 238.354 252.519 239.106 252.11 239.727C251.701 240.333 251.153 240.791 250.466 241.101C249.779 241.412 249.01 241.568 248.16 241.568C247.898 241.568 247.628 241.543 247.35 241.494C247.072 241.445 246.794 241.363 246.516 241.249C246.336 241.412 246.189 241.576 246.074 241.739C245.976 241.903 245.927 242.124 245.927 242.402C245.927 242.745 246.066 243.015 246.344 243.212C246.638 243.408 247.154 243.506 247.89 243.506H250.024C251.48 243.506 252.576 243.743 253.312 244.217C254.064 244.675 254.441 245.428 254.441 246.475C254.441 247.26 254.179 247.971 253.655 248.609C253.132 249.264 252.388 249.779 251.423 250.155C250.458 250.531 249.321 250.719 248.012 250.719ZM248.16 239.801C248.732 239.801 249.223 239.588 249.632 239.163C250.041 238.738 250.245 238.141 250.245 237.372C250.245 236.62 250.041 236.039 249.632 235.63C249.239 235.205 248.748 234.992 248.16 234.992C247.571 234.992 247.072 235.197 246.663 235.606C246.254 236.014 246.05 236.603 246.05 237.372C246.05 238.141 246.254 238.738 246.663 239.163C247.072 239.588 247.571 239.801 248.16 239.801ZM248.454 248.879C249.419 248.879 250.204 248.683 250.809 248.29C251.415 247.898 251.717 247.448 251.717 246.941C251.717 246.467 251.529 246.148 251.153 245.984C250.793 245.82 250.27 245.739 249.583 245.739H247.939C247.284 245.739 246.737 245.681 246.295 245.567C245.673 246.041 245.363 246.573 245.363 247.162C245.363 247.701 245.641 248.119 246.197 248.413C246.753 248.724 247.505 248.879 248.454 248.879ZM261.333 245.69C260.22 245.69 259.215 245.444 258.315 244.954C257.415 244.446 256.704 243.727 256.18 242.794C255.657 241.846 255.395 240.709 255.395 239.384C255.395 238.075 255.657 236.947 256.18 235.998C256.72 235.049 257.415 234.322 258.266 233.814C259.116 233.307 260.008 233.054 260.94 233.054C262.036 233.054 262.952 233.299 263.688 233.79C264.424 234.264 264.98 234.935 265.357 235.802C265.733 236.652 265.921 237.642 265.921 238.771C265.921 239.359 265.88 239.817 265.798 240.145H258.143C258.274 241.208 258.658 242.034 259.296 242.623C259.934 243.212 260.736 243.506 261.701 243.506C262.224 243.506 262.707 243.432 263.148 243.285C263.606 243.122 264.056 242.901 264.498 242.623L265.455 244.389C264.882 244.765 264.244 245.076 263.541 245.322C262.838 245.567 262.101 245.69 261.333 245.69ZM258.119 238.231H263.467C263.467 237.298 263.263 236.571 262.854 236.047C262.445 235.507 261.832 235.238 261.014 235.238C260.31 235.238 259.681 235.499 259.125 236.023C258.585 236.53 258.249 237.266 258.119 238.231ZM76.0782 279.351C75.7511 279.351 75.4648 279.327 75.2195 279.278C74.9741 279.229 74.7369 279.171 74.508 279.106L75.0232 276.898C75.1377 276.93 75.2685 276.963 75.4158 276.996C75.5793 277.045 75.7347 277.069 75.8819 277.069C76.5198 277.069 77.0269 276.873 77.4031 276.481C77.7957 276.104 78.0901 275.614 78.2864 275.009L78.5072 274.248L73.7719 262.348H76.6425L78.728 268.261C78.9079 268.785 79.0797 269.341 79.2433 269.93C79.4232 270.502 79.6031 271.075 79.783 271.647H79.8812C80.0284 271.091 80.1756 270.527 80.3228 269.954C80.4864 269.365 80.6418 268.801 80.789 268.261L82.6046 262.348H85.328L80.9607 274.935C80.4537 276.293 79.8403 277.364 79.1206 278.149C78.4009 278.951 77.3868 279.351 76.0782 279.351ZM92.2042 274.69C91.2064 274.69 90.2741 274.444 89.4072 273.954C88.5403 273.446 87.8369 272.727 87.2972 271.794C86.7574 270.846 86.4875 269.709 86.4875 268.384C86.4875 267.043 86.7574 265.906 87.2972 264.974C87.8369 264.025 88.5403 263.305 89.4072 262.814C90.2741 262.307 91.2064 262.054 92.2042 262.054C93.2183 262.054 94.1589 262.307 95.0258 262.814C95.8927 263.305 96.596 264.025 97.1358 264.974C97.6756 265.906 97.9455 267.043 97.9455 268.384C97.9455 269.709 97.6756 270.846 97.1358 271.794C96.596 272.727 95.8927 273.446 95.0258 273.954C94.1589 274.444 93.2183 274.69 92.2042 274.69ZM92.2042 272.383C93.0875 272.383 93.7827 272.015 94.2897 271.279C94.7968 270.543 95.0503 269.578 95.0503 268.384C95.0503 267.174 94.7968 266.2 94.2897 265.464C93.7827 264.728 93.0875 264.36 92.2042 264.36C91.3209 264.36 90.6258 264.728 90.1187 265.464C89.628 266.2 89.3827 267.174 89.3827 268.384C89.3827 269.578 89.628 270.543 90.1187 271.279C90.6258 272.015 91.3209 272.383 92.2042 272.383ZM104.32 274.69C103.028 274.69 102.088 274.272 101.499 273.438C100.91 272.604 100.616 271.426 100.616 269.905V262.348H103.437V269.537C103.437 270.535 103.584 271.238 103.879 271.647C104.173 272.056 104.648 272.261 105.302 272.261C105.825 272.261 106.283 272.13 106.676 271.868C107.085 271.606 107.518 271.181 107.976 270.592V262.348H110.798V274.395H108.491L108.271 272.629H108.197C107.674 273.25 107.101 273.749 106.48 274.125C105.858 274.501 105.138 274.69 104.32 274.69ZM114.372 274.395V262.348H116.703L116.899 264.483H116.997C117.422 263.698 117.937 263.101 118.543 262.692C119.148 262.267 119.769 262.054 120.407 262.054C120.98 262.054 121.438 262.136 121.781 262.299L121.291 264.753C121.078 264.687 120.882 264.638 120.702 264.606C120.522 264.573 120.301 264.556 120.039 264.556C119.565 264.556 119.066 264.745 118.543 265.121C118.019 265.481 117.569 266.119 117.193 267.035V274.395H114.372ZM128.682 274.395V258.349H131.896L134.742 266.2C134.922 266.707 135.094 267.231 135.257 267.771C135.437 268.294 135.609 268.817 135.772 269.341H135.87C136.05 268.817 136.222 268.294 136.386 267.771C136.549 267.231 136.713 266.707 136.876 266.2L139.649 258.349H142.888V274.395H140.262V267.059C140.262 266.552 140.279 266.004 140.311 265.415C140.36 264.81 140.41 264.205 140.459 263.6C140.524 262.994 140.581 262.446 140.63 261.956H140.532L139.232 265.685L136.607 272.898H134.914L132.264 265.685L130.988 261.956H130.89C130.939 262.446 130.988 262.994 131.037 263.6C131.102 264.205 131.152 264.81 131.184 265.415C131.233 266.004 131.258 266.552 131.258 267.059V274.395H128.682ZM146.963 274.395V258.349H149.809V271.991H156.483V274.395H146.963ZM163.945 274.395V262.348H166.276L166.473 263.992H166.571C167.078 263.452 167.626 262.994 168.215 262.618C168.82 262.242 169.499 262.054 170.251 262.054C171.134 262.054 171.838 262.25 172.361 262.643C172.901 263.019 173.31 263.542 173.588 264.213C174.16 263.591 174.757 263.076 175.379 262.667C176.017 262.258 176.712 262.054 177.464 262.054C178.74 262.054 179.681 262.471 180.286 263.305C180.891 264.139 181.194 265.317 181.194 266.838V274.395H178.348V267.206C178.348 266.209 178.192 265.505 177.881 265.096C177.587 264.687 177.129 264.483 176.507 264.483C175.755 264.483 174.913 264.982 173.98 265.98V274.395H171.159V267.206C171.159 266.209 171.003 265.505 170.693 265.096C170.398 264.687 169.932 264.483 169.294 264.483C168.542 264.483 167.699 264.982 166.767 265.98V274.395H163.945ZM189.555 274.69C188.557 274.69 187.625 274.444 186.758 273.954C185.891 273.446 185.187 272.727 184.648 271.794C184.108 270.846 183.838 269.709 183.838 268.384C183.838 267.043 184.108 265.906 184.648 264.974C185.187 264.025 185.891 263.305 186.758 262.814C187.625 262.307 188.557 262.054 189.555 262.054C190.569 262.054 191.509 262.307 192.376 262.814C193.243 263.305 193.946 264.025 194.486 264.974C195.026 265.906 195.296 267.043 195.296 268.384C195.296 269.709 195.026 270.846 194.486 271.794C193.946 272.727 193.243 273.446 192.376 273.954C191.509 274.444 190.569 274.69 189.555 274.69ZM189.555 272.383C190.438 272.383 191.133 272.015 191.64 271.279C192.147 270.543 192.401 269.578 192.401 268.384C192.401 267.174 192.147 266.2 191.64 265.464C191.133 264.728 190.438 264.36 189.555 264.36C188.671 264.36 187.976 264.728 187.469 265.464C186.978 266.2 186.733 267.174 186.733 268.384C186.733 269.578 186.978 270.543 187.469 271.279C187.976 272.015 188.671 272.383 189.555 272.383ZM202.309 274.69C200.804 274.69 199.602 274.133 198.702 273.021C197.802 271.909 197.353 270.363 197.353 268.384C197.353 267.075 197.59 265.947 198.064 264.998C198.555 264.049 199.193 263.322 199.978 262.814C200.763 262.307 201.589 262.054 202.456 262.054C203.143 262.054 203.724 262.177 204.198 262.422C204.689 262.651 205.163 262.97 205.621 263.379L205.523 261.441V257.073H208.344V274.395H206.014L205.817 273.095H205.719C205.278 273.536 204.762 273.913 204.173 274.223C203.585 274.534 202.963 274.69 202.309 274.69ZM202.996 272.359C203.895 272.359 204.738 271.909 205.523 271.009V265.391C205.114 265.014 204.705 264.753 204.296 264.606C203.887 264.458 203.478 264.385 203.069 264.385C202.301 264.385 201.638 264.736 201.082 265.44C200.542 266.127 200.272 267.1 200.272 268.359C200.272 269.652 200.51 270.641 200.984 271.328C201.458 272.015 202.129 272.359 202.996 272.359ZM217.09 274.69C215.978 274.69 214.972 274.444 214.072 273.954C213.173 273.446 212.461 272.727 211.938 271.794C211.414 270.846 211.153 269.709 211.153 268.384C211.153 267.075 211.414 265.947 211.938 264.998C212.478 264.049 213.173 263.322 214.023 262.814C214.874 262.307 215.765 262.054 216.698 262.054C217.793 262.054 218.709 262.299 219.446 262.79C220.182 263.264 220.738 263.935 221.114 264.802C221.49 265.652 221.678 266.642 221.678 267.771C221.678 268.359 221.637 268.817 221.556 269.145H213.901C214.031 270.208 214.416 271.034 215.054 271.623C215.692 272.212 216.493 272.506 217.458 272.506C217.982 272.506 218.464 272.432 218.906 272.285C219.364 272.122 219.814 271.901 220.255 271.623L221.212 273.389C220.64 273.765 220.002 274.076 219.298 274.322C218.595 274.567 217.859 274.69 217.09 274.69ZM213.876 267.231H219.225C219.225 266.298 219.02 265.571 218.611 265.047C218.202 264.507 217.589 264.238 216.771 264.238C216.068 264.238 215.438 264.499 214.882 265.023C214.342 265.53 214.007 266.266 213.876 267.231ZM227.121 274.69C226.123 274.69 225.412 274.387 224.986 273.782C224.578 273.177 224.373 272.351 224.373 271.304V257.073H227.195V271.451C227.195 271.794 227.26 272.04 227.391 272.187C227.522 272.318 227.661 272.383 227.808 272.383C227.873 272.383 227.931 272.383 227.98 272.383C228.045 272.367 228.135 272.351 228.25 272.334L228.618 274.444C228.454 274.51 228.242 274.567 227.98 274.616C227.734 274.665 227.448 274.69 227.121 274.69ZM234.395 274.69C233.578 274.69 232.76 274.534 231.942 274.223C231.124 273.896 230.421 273.496 229.832 273.021L231.157 271.206C231.697 271.614 232.236 271.942 232.776 272.187C233.316 272.432 233.888 272.555 234.494 272.555C235.148 272.555 235.63 272.416 235.941 272.138C236.252 271.86 236.407 271.516 236.407 271.107C236.407 270.764 236.276 270.486 236.015 270.273C235.769 270.044 235.45 269.848 235.058 269.684C234.665 269.504 234.256 269.333 233.831 269.169C233.308 268.973 232.784 268.736 232.261 268.458C231.754 268.163 231.337 267.795 231.01 267.354C230.682 266.896 230.519 266.331 230.519 265.661C230.519 264.597 230.911 263.73 231.697 263.06C232.482 262.389 233.545 262.054 234.886 262.054C235.737 262.054 236.497 262.201 237.168 262.496C237.839 262.79 238.419 263.125 238.91 263.501L237.61 265.219C237.184 264.908 236.751 264.663 236.309 264.483C235.884 264.287 235.434 264.188 234.96 264.188C234.354 264.188 233.905 264.319 233.61 264.581C233.316 264.826 233.169 265.137 233.169 265.513C233.169 265.988 233.414 266.348 233.905 266.593C234.395 266.838 234.968 267.075 235.622 267.304C236.178 267.501 236.718 267.746 237.241 268.041C237.765 268.319 238.198 268.687 238.542 269.145C238.902 269.603 239.082 270.208 239.082 270.96C239.082 271.991 238.681 272.874 237.879 273.61C237.078 274.33 235.917 274.69 234.395 274.69Z" fill="#AEB3BD"/>
<defs>
<linearGradient id="paint0_linear_444_719" x1="155.955" y1="58.0614" x2="155.955" y2="134.375" gradientUnits="userSpaceOnUse">
<stop offset="0.385417" stop-color="#FFCC33"/>
<stop offset="0.71875" stop-color="#FFAD33"/>
</linearGradient>
<linearGradient id="paint1_linear_444_719" x1="155.955" y1="58.0614" x2="155.955" y2="134.375" gradientUnits="userSpaceOnUse">
<stop offset="0.385417" stop-color="#FFCC33"/>
<stop offset="0.71875" stop-color="#FFAD33"/>
</linearGradient>
<linearGradient id="paint2_linear_444_719" x1="155.955" y1="58.0614" x2="155.955" y2="134.375" gradientUnits="userSpaceOnUse">
<stop offset="0.385417" stop-color="#FFCC33"/>
<stop offset="0.71875" stop-color="#FFAD33"/>
</linearGradient>
<linearGradient id="paint3_linear_444_719" x1="155.955" y1="58.0614" x2="155.955" y2="134.375" gradientUnits="userSpaceOnUse">
<stop offset="0.385417" stop-color="#FFCC33"/>
<stop offset="0.71875" stop-color="#FFAD33"/>
</linearGradient>
<linearGradient id="paint4_linear_444_719" x1="155.955" y1="58.0614" x2="155.955" y2="134.375" gradientUnits="userSpaceOnUse">
<stop offset="0.385417" stop-color="#FFCC33"/>
<stop offset="0.71875" stop-color="#FFAD33"/>
</linearGradient>
<linearGradient id="paint5_linear_444_719" x1="155.955" y1="58.0614" x2="155.955" y2="134.375" gradientUnits="userSpaceOnUse">
<stop offset="0.385417" stop-color="#FFCC33"/>
<stop offset="0.71875" stop-color="#FFAD33"/>
</linearGradient>
<linearGradient id="paint6_linear_444_719" x1="155.955" y1="58.0614" x2="155.955" y2="134.375" gradientUnits="userSpaceOnUse">
<stop offset="0.385417" stop-color="#FFCC33"/>
<stop offset="0.71875" stop-color="#FFAD33"/>
</linearGradient>
<linearGradient id="paint7_linear_444_719" x1="155.955" y1="58.0614" x2="155.955" y2="134.375" gradientUnits="userSpaceOnUse">
<stop offset="0.385417" stop-color="#FFCC33"/>
<stop offset="0.71875" stop-color="#FFAD33"/>
</linearGradient>
<linearGradient id="paint8_linear_444_719" x1="155.955" y1="58.0614" x2="155.955" y2="134.375" gradientUnits="userSpaceOnUse">
<stop offset="0.385417" stop-color="#FFCC33"/>
<stop offset="0.71875" stop-color="#FFAD33"/>
</linearGradient>
</defs>
</svg>
