<svg width="314" height="320" viewBox="0 0 314 320" fill="none" xmlns="http://www.w3.org/2000/svg">
<path d="M19.2816 1.74549H295.304C305.043 1.74549 312.938 9.64083 312.938 19.3802V301.536C312.938 311.275 305.043 319.171 295.304 319.171H19.2816C9.54218 319.171 1.64685 311.275 1.64685 301.536V19.3802C1.64685 9.64081 9.54219 1.74549 19.2816 1.74549Z" fill="#20242B"/>
<path d="M19.2816 1.74549H295.304C305.043 1.74549 312.938 9.64083 312.938 19.3802V301.536C312.938 311.275 305.043 319.171 295.304 319.171H19.2816C9.54218 319.171 1.64685 311.275 1.64685 301.536V19.3802C1.64685 9.64081 9.54219 1.74549 19.2816 1.74549Z" stroke="#4B535C" stroke-width="1.53346"/>
<rect x="102.195" y="37.7817" width="110.195" height="110.195" rx="55.0975" fill="#EDE8FF" fill-opacity="0.12"/>
<path d="M165.689 77.2251V72.9281C165.689 72.1131 165.029 71.4524 164.214 71.4524H150.33C149.515 71.4524 148.854 72.1131 148.854 72.9281V77.2251C148.854 78.0488 149.539 78.7165 150.385 78.7165H164.159C165.004 78.7165 165.689 78.0488 165.689 77.2251Z" fill="url(#paint0_linear_444_800)"/>
<path fill-rule="evenodd" clip-rule="evenodd" d="M146.941 77.2251V74.7471C146.941 74.5412 146.77 74.3742 146.558 74.3742H143.518C141.405 74.3742 139.692 76.0435 139.692 78.1026V110.578C139.692 112.637 141.406 114.306 143.519 114.306H171.066C173.179 114.306 174.893 112.637 174.893 110.578V78.1026C174.893 76.0435 173.18 74.3742 171.067 74.3742H167.985C167.774 74.3742 167.602 74.5412 167.602 74.7471V77.2251C167.602 79.0783 166.061 80.5807 164.159 80.5807H150.385C148.483 80.5807 146.941 79.0783 146.941 77.2251ZM159.205 92.41V94.647H146.857V92.41H159.205ZM167.727 98.1258V100.363H146.857V98.1258H167.727Z" fill="url(#paint1_linear_444_800)"/>
<path d="M100.818 202.378V178.235H108.363C113.294 178.235 116.827 180.002 116.827 185.044C116.827 188.798 114.693 191.006 111.417 191.853L117.563 202.378H114.067L108.252 192.184H103.909V202.378H100.818ZM103.909 189.681H107.921C111.675 189.681 113.736 188.135 113.736 185.044C113.736 181.879 111.675 180.738 107.921 180.738H103.909V189.681ZM128.367 202.82C123.582 202.82 119.828 199.36 119.828 193.435C119.828 187.62 123.766 184.05 127.851 184.05C132.415 184.05 135.028 187.289 135.028 192.441C135.028 193.104 134.991 193.656 134.881 194.245H122.846C123.104 197.925 125.349 200.354 128.735 200.354C130.464 200.354 131.973 199.876 133.225 199.029L134.292 200.98C132.746 202.084 130.832 202.82 128.367 202.82ZM122.846 191.889H132.305C132.305 188.356 130.648 186.479 127.925 186.479C125.422 186.479 123.214 188.467 122.846 191.889ZM139.411 209.923V184.492H141.914L142.171 186.553H142.282C143.901 185.191 145.925 184.05 147.986 184.05C152.586 184.05 155.089 187.62 155.089 193.177C155.089 199.25 151.409 202.82 147.324 202.82C145.704 202.82 144.011 202.047 142.392 200.759L142.466 203.887V209.923H139.411ZM146.808 200.244C149.753 200.244 151.924 197.594 151.924 193.177C151.924 189.24 150.562 186.627 147.213 186.627C145.704 186.627 144.195 187.436 142.466 189.056V198.403C144.085 199.765 145.631 200.244 146.808 200.244ZM166.781 202.82C162.401 202.82 158.5 199.397 158.5 193.472C158.5 187.473 162.401 184.05 166.781 184.05C171.16 184.05 175.098 187.473 175.098 193.472C175.098 199.397 171.16 202.82 166.781 202.82ZM166.781 200.28C169.872 200.28 171.933 197.557 171.933 193.472C171.933 189.35 169.872 186.59 166.781 186.59C163.726 186.59 161.665 189.35 161.665 193.472C161.665 197.557 163.726 200.28 166.781 200.28ZM179.772 202.378V184.492H182.275L182.532 187.731H182.643C183.894 185.486 185.734 184.05 187.721 184.05C188.531 184.05 189.083 184.161 189.635 184.418L188.973 187.031C188.457 186.884 188.053 186.811 187.353 186.811C185.844 186.811 184.041 187.878 182.827 190.896V202.378H179.772ZM198.198 202.82C194.37 202.82 193.082 200.391 193.082 196.821V186.958H190.432V184.676L193.229 184.492L193.597 178.751H196.137V184.492H200.995V186.958H196.137V196.895C196.137 199.066 196.873 200.317 198.897 200.317C199.559 200.317 200.222 200.207 200.958 199.876L201.583 202.047C200.627 202.489 199.412 202.82 198.198 202.82ZM209.353 202.82C206.74 202.82 204.347 201.863 202.691 200.244L204.09 198.477C205.636 199.765 207.255 200.428 209.463 200.428C211.818 200.428 212.959 199.213 212.959 197.667C212.959 195.827 210.972 195.054 208.948 194.318C206.261 193.361 203.685 192.073 203.685 189.129C203.685 186.258 205.967 184.05 209.868 184.05C212.113 184.05 214.027 184.897 215.425 186.074L214.027 187.841C212.775 186.921 211.487 186.406 209.905 186.406C207.623 186.406 206.629 187.657 206.629 188.982C206.629 190.601 208.175 191.264 210.42 192.037C213.217 193.03 215.904 194.245 215.904 197.483C215.904 200.391 213.585 202.82 209.353 202.82Z" fill="white"/>
<path d="M50.4416 246.783V230.737H54.7352C57.1888 230.737 59.1025 231.4 60.4765 232.724C61.8505 234.049 62.5375 236.037 62.5375 238.687C62.5375 241.353 61.8586 243.373 60.501 244.747C59.1434 246.104 57.2706 246.783 54.8825 246.783H50.4416ZM53.2877 244.477H54.539C56.1583 244.477 57.4096 244.011 58.2929 243.078C59.1761 242.13 59.6178 240.666 59.6178 238.687C59.6178 236.724 59.1761 235.293 58.2929 234.393C57.4096 233.493 56.1583 233.043 54.539 233.043H53.2877V244.477ZM70.4624 247.078C69.4646 247.078 68.5322 246.832 67.6653 246.342C66.7984 245.835 66.0951 245.115 65.5553 244.182C65.0155 243.234 64.7456 242.097 64.7456 240.772C64.7456 239.431 65.0155 238.294 65.5553 237.362C66.0951 236.413 66.7984 235.693 67.6653 235.203C68.5322 234.695 69.4646 234.442 70.4624 234.442C71.4765 234.442 72.417 234.695 73.2839 235.203C74.1508 235.693 74.8542 236.413 75.3939 237.362C75.9337 238.294 76.2036 239.431 76.2036 240.772C76.2036 242.097 75.9337 243.234 75.3939 244.182C74.8542 245.115 74.1508 245.835 73.2839 246.342C72.417 246.832 71.4765 247.078 70.4624 247.078ZM70.4624 244.771C71.3456 244.771 72.0408 244.403 72.5479 243.667C73.0549 242.931 73.3084 241.966 73.3084 240.772C73.3084 239.562 73.0549 238.588 72.5479 237.852C72.0408 237.116 71.3456 236.748 70.4624 236.748C69.5791 236.748 68.8839 237.116 68.3769 237.852C67.8861 238.588 67.6408 239.562 67.6408 240.772C67.6408 241.966 67.8861 242.931 68.3769 243.667C68.8839 244.403 69.5791 244.771 70.4624 244.771ZM84.0261 247.078C82.9302 247.078 81.9406 246.832 81.0574 246.342C80.1905 245.835 79.4953 245.115 78.9719 244.182C78.4648 243.234 78.2113 242.097 78.2113 240.772C78.2113 239.431 78.4894 238.294 79.0455 237.362C79.6016 236.413 80.3377 235.693 81.2537 235.203C82.186 234.695 83.1838 234.442 84.247 234.442C85.0157 234.442 85.6864 234.573 86.2589 234.835C86.8313 235.096 87.3384 235.415 87.78 235.791L86.4061 237.632C86.0953 237.353 85.7763 237.141 85.4492 236.994C85.1221 236.83 84.7704 236.748 84.3942 236.748C83.4291 236.748 82.6358 237.116 82.0143 237.852C81.409 238.588 81.1064 239.562 81.1064 240.772C81.1064 241.966 81.4009 242.931 81.9897 243.667C82.5949 244.403 83.3719 244.771 84.3206 244.771C84.7949 244.771 85.2366 244.673 85.6455 244.477C86.0708 244.264 86.4551 244.019 86.7986 243.741L87.9518 245.606C87.3957 246.096 86.7741 246.464 86.0871 246.71C85.4001 246.955 84.7131 247.078 84.0261 247.078ZM93.9118 247.078C92.6196 247.078 91.679 246.661 91.0902 245.826C90.5014 244.992 90.2069 243.814 90.2069 242.293V234.736H93.0285V241.925C93.0285 242.923 93.1757 243.626 93.4701 244.035C93.7645 244.444 94.2389 244.649 94.8932 244.649C95.4166 244.649 95.8746 244.518 96.2671 244.256C96.6761 243.994 97.1095 243.569 97.5675 242.98V234.736H100.389V246.783H98.0828L97.8619 245.017H97.7883C97.2649 245.638 96.6924 246.137 96.0709 246.513C95.4493 246.89 94.7296 247.078 93.9118 247.078ZM103.963 246.783V234.736H106.294L106.49 236.38H106.588C107.095 235.84 107.643 235.382 108.232 235.006C108.837 234.63 109.516 234.442 110.269 234.442C111.152 234.442 111.855 234.638 112.379 235.031C112.918 235.407 113.327 235.93 113.605 236.601C114.178 235.98 114.775 235.464 115.396 235.055C116.034 234.646 116.73 234.442 117.482 234.442C118.758 234.442 119.698 234.859 120.303 235.693C120.909 236.527 121.211 237.705 121.211 239.226V246.783H118.365V239.594C118.365 238.597 118.21 237.893 117.899 237.484C117.605 237.075 117.147 236.871 116.525 236.871C115.773 236.871 114.93 237.37 113.998 238.368V246.783H111.176V239.594C111.176 238.597 111.021 237.893 110.71 237.484C110.416 237.075 109.95 236.871 109.312 236.871C108.559 236.871 107.717 237.37 106.785 238.368V246.783H103.963ZM129.793 247.078C128.681 247.078 127.675 246.832 126.775 246.342C125.876 245.835 125.164 245.115 124.641 244.182C124.117 243.234 123.856 242.097 123.856 240.772C123.856 239.464 124.117 238.335 124.641 237.386C125.18 236.437 125.876 235.71 126.726 235.203C127.577 234.695 128.468 234.442 129.401 234.442C130.496 234.442 131.412 234.687 132.148 235.178C132.885 235.652 133.441 236.323 133.817 237.19C134.193 238.04 134.381 239.03 134.381 240.159C134.381 240.748 134.34 241.206 134.259 241.533H126.603C126.734 242.596 127.119 243.422 127.757 244.011C128.395 244.6 129.196 244.894 130.161 244.894C130.685 244.894 131.167 244.82 131.609 244.673C132.067 244.51 132.516 244.289 132.958 244.011L133.915 245.777C133.343 246.153 132.705 246.464 132.001 246.71C131.298 246.955 130.562 247.078 129.793 247.078ZM126.579 239.619H131.928C131.928 238.687 131.723 237.959 131.314 237.435C130.905 236.895 130.292 236.626 129.474 236.626C128.771 236.626 128.141 236.887 127.585 237.411C127.045 237.918 126.71 238.654 126.579 239.619ZM137.076 246.783V234.736H139.407L139.603 236.356H139.701C140.241 235.832 140.83 235.382 141.468 235.006C142.106 234.63 142.834 234.442 143.651 234.442C144.944 234.442 145.884 234.859 146.473 235.693C147.062 236.527 147.356 237.705 147.356 239.226V246.783H144.535V239.594C144.535 238.597 144.388 237.893 144.093 237.484C143.799 237.075 143.316 236.871 142.646 236.871C142.122 236.871 141.656 237.002 141.247 237.264C140.854 237.509 140.405 237.877 139.898 238.368V246.783H137.076ZM155.05 247.078C153.66 247.078 152.67 246.677 152.081 245.875C151.509 245.058 151.222 244.003 151.222 242.71V236.969H149.505V234.859L151.37 234.736L151.713 231.449H154.068V234.736H157.135V236.969H154.068V242.71C154.068 244.117 154.633 244.82 155.761 244.82C155.974 244.82 156.195 244.796 156.424 244.747C156.653 244.681 156.849 244.616 157.013 244.55L157.503 246.636C157.176 246.75 156.8 246.849 156.375 246.93C155.966 247.029 155.524 247.078 155.05 247.078ZM167.502 247.078C166.455 247.078 165.597 246.75 164.926 246.096C164.272 245.442 163.944 244.591 163.944 243.545C163.944 242.252 164.509 241.255 165.637 240.551C166.766 239.832 168.565 239.341 171.035 239.079C171.019 238.441 170.847 237.893 170.52 237.435C170.209 236.961 169.645 236.724 168.827 236.724C168.238 236.724 167.657 236.838 167.085 237.067C166.529 237.296 165.981 237.574 165.441 237.901L164.411 236.012C165.081 235.587 165.834 235.219 166.668 234.908C167.518 234.597 168.418 234.442 169.367 234.442C170.872 234.442 171.992 234.892 172.728 235.791C173.481 236.675 173.857 237.959 173.857 239.643V246.783H171.526L171.33 245.458H171.231C170.692 245.916 170.111 246.301 169.489 246.611C168.884 246.922 168.222 247.078 167.502 247.078ZM168.41 244.869C168.901 244.869 169.342 244.755 169.735 244.526C170.144 244.281 170.577 243.953 171.035 243.545V240.846C169.399 241.058 168.263 241.377 167.625 241.803C166.987 242.211 166.668 242.719 166.668 243.324C166.668 243.864 166.831 244.256 167.159 244.501C167.486 244.747 167.903 244.869 168.41 244.869ZM177.233 246.783V234.736H179.564L179.761 236.356H179.859C180.398 235.832 180.987 235.382 181.625 235.006C182.263 234.63 182.991 234.442 183.809 234.442C185.101 234.442 186.042 234.859 186.63 235.693C187.219 236.527 187.514 237.705 187.514 239.226V246.783H184.692V239.594C184.692 238.597 184.545 237.893 184.25 237.484C183.956 237.075 183.474 236.871 182.803 236.871C182.279 236.871 181.813 237.002 181.404 237.264C181.012 237.509 180.562 237.877 180.055 238.368V246.783H177.233ZM195.183 247.078C193.678 247.078 192.476 246.521 191.576 245.409C190.676 244.297 190.227 242.751 190.227 240.772C190.227 239.464 190.464 238.335 190.938 237.386C191.429 236.437 192.067 235.71 192.852 235.203C193.637 234.695 194.463 234.442 195.33 234.442C196.017 234.442 196.598 234.565 197.072 234.81C197.563 235.039 198.037 235.358 198.495 235.767L198.397 233.829V229.461H201.218V246.783H198.887L198.691 245.483H198.593C198.151 245.924 197.636 246.301 197.047 246.611C196.459 246.922 195.837 247.078 195.183 247.078ZM195.87 244.747C196.769 244.747 197.612 244.297 198.397 243.397V237.779C197.988 237.403 197.579 237.141 197.17 236.994C196.761 236.846 196.352 236.773 195.943 236.773C195.174 236.773 194.512 237.124 193.956 237.828C193.416 238.515 193.146 239.488 193.146 240.748C193.146 242.04 193.383 243.029 193.858 243.716C194.332 244.403 195.003 244.747 195.87 244.747ZM213.085 247.078C212.267 247.078 211.449 246.922 210.631 246.611C209.813 246.284 209.11 245.884 208.521 245.409L209.846 243.594C210.386 244.003 210.926 244.33 211.465 244.575C212.005 244.82 212.578 244.943 213.183 244.943C213.837 244.943 214.32 244.804 214.631 244.526C214.941 244.248 215.097 243.904 215.097 243.495C215.097 243.152 214.966 242.874 214.704 242.661C214.459 242.432 214.14 242.236 213.747 242.072C213.355 241.893 212.946 241.721 212.52 241.557C211.997 241.361 211.474 241.124 210.95 240.846C210.443 240.551 210.026 240.183 209.699 239.742C209.372 239.284 209.208 238.719 209.208 238.049C209.208 236.985 209.601 236.119 210.386 235.448C211.171 234.777 212.234 234.442 213.576 234.442C214.426 234.442 215.187 234.589 215.857 234.884C216.528 235.178 217.109 235.513 217.599 235.89L216.299 237.607C215.874 237.296 215.44 237.051 214.999 236.871C214.573 236.675 214.123 236.577 213.649 236.577C213.044 236.577 212.594 236.707 212.3 236.969C212.005 237.214 211.858 237.525 211.858 237.901C211.858 238.376 212.103 238.736 212.594 238.981C213.085 239.226 213.657 239.464 214.312 239.693C214.868 239.889 215.407 240.134 215.931 240.429C216.454 240.707 216.888 241.075 217.231 241.533C217.591 241.991 217.771 242.596 217.771 243.348C217.771 244.379 217.37 245.262 216.569 245.998C215.767 246.718 214.606 247.078 213.085 247.078ZM220.29 246.783V229.461H223.111V233.927L223.013 236.258C223.52 235.783 224.085 235.366 224.706 235.006C225.328 234.63 226.048 234.442 226.865 234.442C228.158 234.442 229.098 234.859 229.687 235.693C230.276 236.527 230.57 237.705 230.57 239.226V246.783H227.749V239.594C227.749 238.597 227.601 237.893 227.307 237.484C227.013 237.075 226.53 236.871 225.859 236.871C225.336 236.871 224.87 237.002 224.461 237.264C224.068 237.509 223.619 237.877 223.111 238.368V246.783H220.29ZM236.891 247.078C235.844 247.078 234.985 246.75 234.315 246.096C233.66 245.442 233.333 244.591 233.333 243.545C233.333 242.252 233.898 241.255 235.026 240.551C236.155 239.832 237.954 239.341 240.424 239.079C240.408 238.441 240.236 237.893 239.909 237.435C239.598 236.961 239.034 236.724 238.216 236.724C237.627 236.724 237.046 236.838 236.474 237.067C235.918 237.296 235.37 237.574 234.83 237.901L233.799 236.012C234.47 235.587 235.223 235.219 236.057 234.908C236.907 234.597 237.807 234.442 238.756 234.442C240.26 234.442 241.381 234.892 242.117 235.791C242.869 236.675 243.246 237.959 243.246 239.643V246.783H240.915L240.718 245.458H240.62C240.081 245.916 239.5 246.301 238.878 246.611C238.273 246.922 237.611 247.078 236.891 247.078ZM237.799 244.869C238.289 244.869 238.731 244.755 239.124 244.526C239.533 244.281 239.966 243.953 240.424 243.545V240.846C238.788 241.058 237.652 241.377 237.014 241.803C236.376 242.211 236.057 242.719 236.057 243.324C236.057 243.864 236.22 244.256 236.547 244.501C236.875 244.747 237.292 244.869 237.799 244.869ZM246.622 246.783V234.736H248.953L249.149 236.871H249.248C249.673 236.086 250.188 235.489 250.793 235.08C251.398 234.655 252.02 234.442 252.658 234.442C253.23 234.442 253.688 234.524 254.032 234.687L253.541 237.141C253.329 237.075 253.132 237.026 252.952 236.994C252.772 236.961 252.552 236.945 252.29 236.945C251.816 236.945 251.317 237.133 250.793 237.509C250.27 237.869 249.82 238.507 249.444 239.423V246.783H246.622ZM260.688 247.078C259.576 247.078 258.57 246.832 257.67 246.342C256.77 245.835 256.059 245.115 255.535 244.182C255.012 243.234 254.75 242.097 254.75 240.772C254.75 239.464 255.012 238.335 255.535 237.386C256.075 236.437 256.77 235.71 257.621 235.203C258.472 234.695 259.363 234.442 260.295 234.442C261.391 234.442 262.307 234.687 263.043 235.178C263.779 235.652 264.335 236.323 264.712 237.19C265.088 238.04 265.276 239.03 265.276 240.159C265.276 240.748 265.235 241.206 265.153 241.533H257.498C257.629 242.596 258.014 243.422 258.651 244.011C259.289 244.6 260.091 244.894 261.056 244.894C261.579 244.894 262.062 244.82 262.503 244.673C262.961 244.51 263.411 244.289 263.853 244.011L264.81 245.777C264.237 246.153 263.599 246.464 262.896 246.71C262.193 246.955 261.457 247.078 260.688 247.078ZM257.474 239.619H262.822C262.822 238.687 262.618 237.959 262.209 237.435C261.8 236.895 261.187 236.626 260.369 236.626C259.666 236.626 259.036 236.887 258.48 237.411C257.94 237.918 257.605 238.654 257.474 239.619ZM74.1754 280.739C73.8483 280.739 73.562 280.715 73.3167 280.666C73.0713 280.617 72.8342 280.559 72.6052 280.494L73.1204 278.286C73.2349 278.319 73.3658 278.351 73.513 278.384C73.6765 278.433 73.8319 278.458 73.9791 278.458C74.6171 278.458 75.1241 278.261 75.5003 277.869C75.8929 277.492 76.1873 277.002 76.3836 276.397L76.6044 275.636L71.8691 263.736H74.7397L76.8252 269.649C77.0052 270.173 77.1769 270.729 77.3405 271.318C77.5204 271.89 77.7003 272.463 77.8803 273.035H77.9784C78.1256 272.479 78.2728 271.915 78.42 271.342C78.5836 270.753 78.739 270.189 78.8862 269.649L80.7018 263.736H83.4252L79.058 276.323C78.5509 277.681 77.9375 278.752 77.2178 279.537C76.4981 280.339 75.484 280.739 74.1754 280.739ZM90.3014 276.078C89.3037 276.078 88.3713 275.832 87.5044 275.342C86.6375 274.835 85.9342 274.115 85.3944 273.182C84.8546 272.234 84.5847 271.097 84.5847 269.772C84.5847 268.431 84.8546 267.294 85.3944 266.362C85.9342 265.413 86.6375 264.693 87.5044 264.203C88.3713 263.695 89.3037 263.442 90.3014 263.442C91.3156 263.442 92.2561 263.695 93.123 264.203C93.9899 264.693 94.6933 265.413 95.233 266.362C95.7728 267.294 96.0427 268.431 96.0427 269.772C96.0427 271.097 95.7728 272.234 95.233 273.182C94.6933 274.115 93.9899 274.835 93.123 275.342C92.2561 275.832 91.3156 276.078 90.3014 276.078ZM90.3014 273.771C91.1847 273.771 91.8799 273.403 92.3869 272.667C92.894 271.931 93.1475 270.966 93.1475 269.772C93.1475 268.562 92.894 267.588 92.3869 266.852C91.8799 266.116 91.1847 265.748 90.3014 265.748C89.4182 265.748 88.723 266.116 88.2159 266.852C87.7252 267.588 87.4799 268.562 87.4799 269.772C87.4799 270.966 87.7252 271.931 88.2159 272.667C88.723 273.403 89.4182 273.771 90.3014 273.771ZM102.418 276.078C101.125 276.078 100.185 275.661 99.5961 274.826C99.0072 273.992 98.7128 272.814 98.7128 271.293V263.736H101.534V270.925C101.534 271.923 101.682 272.626 101.976 273.035C102.27 273.444 102.745 273.649 103.399 273.649C103.922 273.649 104.38 273.518 104.773 273.256C105.182 272.994 105.615 272.569 106.073 271.98V263.736H108.895V275.783H106.589L106.368 274.017H106.294C105.771 274.638 105.198 275.137 104.577 275.513C103.955 275.89 103.235 276.078 102.418 276.078ZM112.469 275.783V263.736H114.8L114.996 265.871H115.094C115.519 265.086 116.035 264.489 116.64 264.08C117.245 263.655 117.867 263.442 118.505 263.442C119.077 263.442 119.535 263.524 119.879 263.687L119.388 266.141C119.175 266.075 118.979 266.026 118.799 265.994C118.619 265.961 118.398 265.945 118.137 265.945C117.662 265.945 117.163 266.133 116.64 266.509C116.116 266.869 115.667 267.507 115.29 268.423V275.783H112.469ZM126.779 275.783V259.737H129.993L132.839 267.588C133.019 268.095 133.191 268.619 133.354 269.159C133.534 269.682 133.706 270.206 133.87 270.729H133.968C134.148 270.206 134.319 269.682 134.483 269.159C134.647 268.619 134.81 268.095 134.974 267.588L137.746 259.737H140.985V275.783H138.36V268.447C138.36 267.94 138.376 267.392 138.409 266.803C138.458 266.198 138.507 265.593 138.556 264.988C138.621 264.382 138.678 263.835 138.728 263.344H138.629L137.329 267.073L134.704 274.287H133.011L130.361 267.073L129.085 263.344H128.987C129.036 263.835 129.085 264.382 129.134 264.988C129.2 265.593 129.249 266.198 129.281 266.803C129.331 267.392 129.355 267.94 129.355 268.447V275.783H126.779ZM145.061 275.783V259.737H147.907V273.379H154.58V275.783H145.061ZM162.043 275.783V263.736H164.864V275.783H162.043ZM163.466 261.626C162.959 261.626 162.55 261.479 162.239 261.185C161.928 260.89 161.773 260.498 161.773 260.007C161.773 259.533 161.928 259.148 162.239 258.854C162.55 258.559 162.959 258.412 163.466 258.412C163.973 258.412 164.382 258.559 164.692 258.854C165.003 259.148 165.159 259.533 165.159 260.007C165.159 260.498 165.003 260.89 164.692 261.185C164.382 261.479 163.973 261.626 163.466 261.626ZM168.464 275.783V263.736H170.795L170.991 265.356H171.089C171.629 264.832 172.218 264.382 172.856 264.006C173.494 263.63 174.222 263.442 175.039 263.442C176.332 263.442 177.272 263.859 177.861 264.693C178.45 265.527 178.744 266.705 178.744 268.226V275.783H175.923V268.594C175.923 267.597 175.775 266.893 175.481 266.484C175.187 266.075 174.704 265.871 174.033 265.871C173.51 265.871 173.044 266.002 172.635 266.264C172.242 266.509 171.793 266.877 171.286 267.368V275.783H168.464ZM185.554 276.078C184.737 276.078 183.919 275.922 183.101 275.611C182.283 275.284 181.58 274.884 180.991 274.409L182.316 272.594C182.856 273.003 183.395 273.33 183.935 273.575C184.475 273.82 185.047 273.943 185.653 273.943C186.307 273.943 186.789 273.804 187.1 273.526C187.411 273.248 187.566 272.904 187.566 272.495C187.566 272.152 187.436 271.874 187.174 271.661C186.928 271.432 186.61 271.236 186.217 271.072C185.824 270.893 185.415 270.721 184.99 270.557C184.467 270.361 183.943 270.124 183.42 269.846C182.913 269.551 182.496 269.183 182.169 268.742C181.841 268.284 181.678 267.719 181.678 267.049C181.678 265.985 182.07 265.119 182.856 264.448C183.641 263.777 184.704 263.442 186.045 263.442C186.896 263.442 187.656 263.589 188.327 263.884C188.998 264.178 189.578 264.513 190.069 264.89L188.769 266.607C188.343 266.296 187.91 266.051 187.468 265.871C187.043 265.675 186.593 265.577 186.119 265.577C185.514 265.577 185.064 265.707 184.769 265.969C184.475 266.214 184.328 266.525 184.328 266.901C184.328 267.376 184.573 267.736 185.064 267.981C185.554 268.226 186.127 268.464 186.781 268.693C187.337 268.889 187.877 269.134 188.401 269.429C188.924 269.707 189.357 270.075 189.701 270.533C190.061 270.991 190.241 271.596 190.241 272.348C190.241 273.379 189.84 274.262 189.039 274.998C188.237 275.718 187.076 276.078 185.554 276.078ZM192.76 275.783V263.736H195.581V275.783H192.76ZM194.183 261.626C193.676 261.626 193.267 261.479 192.956 261.185C192.645 260.89 192.49 260.498 192.49 260.007C192.49 259.533 192.645 259.148 192.956 258.854C193.267 258.559 193.676 258.412 194.183 258.412C194.69 258.412 195.099 258.559 195.409 258.854C195.72 259.148 195.876 259.533 195.876 260.007C195.876 260.498 195.72 260.89 195.409 261.185C195.099 261.479 194.69 261.626 194.183 261.626ZM203.377 281.107C202.428 281.107 201.569 280.993 200.8 280.764C200.048 280.535 199.451 280.183 199.009 279.709C198.584 279.251 198.371 278.67 198.371 277.967C198.371 276.969 198.944 276.11 200.089 275.391V275.292C199.778 275.096 199.516 274.835 199.304 274.507C199.107 274.18 199.009 273.771 199.009 273.281C199.009 272.806 199.14 272.381 199.402 272.005C199.68 271.612 199.991 271.293 200.334 271.048V270.95C199.925 270.639 199.557 270.206 199.23 269.649C198.919 269.093 198.764 268.464 198.764 267.76C198.764 266.828 198.985 266.043 199.426 265.405C199.868 264.767 200.449 264.284 201.168 263.957C201.904 263.614 202.69 263.442 203.524 263.442C203.851 263.442 204.162 263.475 204.456 263.54C204.767 263.589 205.045 263.655 205.29 263.736H209.608V265.822H207.4C207.597 266.051 207.76 266.345 207.891 266.705C208.022 267.049 208.087 267.433 208.087 267.858C208.087 268.742 207.883 269.494 207.474 270.116C207.065 270.721 206.517 271.179 205.83 271.49C205.143 271.8 204.374 271.956 203.524 271.956C203.262 271.956 202.992 271.931 202.714 271.882C202.436 271.833 202.158 271.751 201.88 271.637C201.7 271.8 201.553 271.964 201.438 272.127C201.34 272.291 201.291 272.512 201.291 272.79C201.291 273.133 201.43 273.403 201.708 273.6C202.003 273.796 202.518 273.894 203.254 273.894H205.388C206.844 273.894 207.94 274.131 208.676 274.606C209.429 275.064 209.805 275.816 209.805 276.863C209.805 277.648 209.543 278.359 209.02 278.997C208.496 279.652 207.752 280.167 206.787 280.543C205.822 280.919 204.685 281.107 203.377 281.107ZM203.524 270.189C204.096 270.189 204.587 269.977 204.996 269.551C205.405 269.126 205.609 268.529 205.609 267.76C205.609 267.008 205.405 266.427 204.996 266.018C204.603 265.593 204.113 265.38 203.524 265.38C202.935 265.38 202.436 265.585 202.027 265.994C201.618 266.403 201.414 266.991 201.414 267.76C201.414 268.529 201.618 269.126 202.027 269.551C202.436 269.977 202.935 270.189 203.524 270.189ZM203.818 279.267C204.783 279.267 205.568 279.071 206.174 278.678C206.779 278.286 207.081 277.836 207.081 277.329C207.081 276.855 206.893 276.536 206.517 276.372C206.157 276.208 205.634 276.127 204.947 276.127H203.303C202.649 276.127 202.101 276.069 201.659 275.955C201.037 276.429 200.727 276.961 200.727 277.55C200.727 278.09 201.005 278.507 201.561 278.801C202.117 279.112 202.869 279.267 203.818 279.267ZM211.928 275.783V258.461H214.749V262.927L214.651 265.258C215.158 264.783 215.723 264.366 216.344 264.006C216.966 263.63 217.685 263.442 218.503 263.442C219.795 263.442 220.736 263.859 221.325 264.693C221.914 265.527 222.208 266.705 222.208 268.226V275.783H219.387V268.594C219.387 267.597 219.239 266.893 218.945 266.484C218.65 266.075 218.168 265.871 217.497 265.871C216.974 265.871 216.508 266.002 216.099 266.264C215.706 266.509 215.256 266.877 214.749 267.368V275.783H211.928ZM229.854 276.078C228.463 276.078 227.474 275.677 226.885 274.875C226.312 274.058 226.026 273.003 226.026 271.71V265.969H224.309V263.859L226.173 263.736L226.517 260.449H228.872V263.736H231.939V265.969H228.872V271.71C228.872 273.117 229.437 273.82 230.565 273.82C230.778 273.82 230.999 273.796 231.228 273.747C231.457 273.681 231.653 273.616 231.817 273.55L232.307 275.636C231.98 275.75 231.604 275.849 231.179 275.93C230.77 276.029 230.328 276.078 229.854 276.078ZM237.596 276.078C236.778 276.078 235.96 275.922 235.143 275.611C234.325 275.284 233.621 274.884 233.033 274.409L234.357 272.594C234.897 273.003 235.437 273.33 235.977 273.575C236.517 273.82 237.089 273.943 237.694 273.943C238.349 273.943 238.831 273.804 239.142 273.526C239.453 273.248 239.608 272.904 239.608 272.495C239.608 272.152 239.477 271.874 239.215 271.661C238.97 271.432 238.651 271.236 238.259 271.072C237.866 270.893 237.457 270.721 237.032 270.557C236.508 270.361 235.985 270.124 235.462 269.846C234.955 269.551 234.537 269.183 234.21 268.742C233.883 268.284 233.72 267.719 233.72 267.049C233.72 265.985 234.112 265.119 234.897 264.448C235.682 263.777 236.746 263.442 238.087 263.442C238.937 263.442 239.698 263.589 240.369 263.884C241.039 264.178 241.62 264.513 242.111 264.89L240.81 266.607C240.385 266.296 239.952 266.051 239.51 265.871C239.085 265.675 238.635 265.577 238.16 265.577C237.555 265.577 237.105 265.707 236.811 265.969C236.517 266.214 236.369 266.525 236.369 266.901C236.369 267.376 236.615 267.736 237.105 267.981C237.596 268.226 238.169 268.464 238.823 268.693C239.379 268.889 239.919 269.134 240.442 269.429C240.966 269.707 241.399 270.075 241.743 270.533C242.102 270.991 242.282 271.596 242.282 272.348C242.282 273.379 241.882 274.262 241.08 274.998C240.279 275.718 239.117 276.078 237.596 276.078Z" fill="#AEB3BD"/>
<defs>
<linearGradient id="paint0_linear_444_800" x1="156.933" y1="71.4524" x2="156.933" y2="119.938" gradientUnits="userSpaceOnUse">
<stop offset="0.385417" stop-color="#FFCC33"/>
<stop offset="0.71875" stop-color="#FFAD33"/>
</linearGradient>
<linearGradient id="paint1_linear_444_800" x1="156.933" y1="71.4524" x2="156.933" y2="119.938" gradientUnits="userSpaceOnUse">
<stop offset="0.385417" stop-color="#FFCC33"/>
<stop offset="0.71875" stop-color="#FFAD33"/>
</linearGradient>
</defs>
</svg>
