<svg width="160" height="212" viewBox="0 0 160 212" fill="none" xmlns="http://www.w3.org/2000/svg">
<path opacity="0.08" d="M79 16.5774C79.6188 16.2201 80.3812 16.2201 81 16.5774L120.569 39.4226C121.188 39.7799 121.569 40.4402 121.569 41.1547V86.8453C121.569 87.5598 121.188 88.2201 120.569 88.5774L81 111.423C80.3812 111.78 79.6188 111.78 79 111.423L39.4308 88.5774C38.812 88.2201 38.4308 87.5598 38.4308 86.8453V41.1547C38.4308 40.4402 38.812 39.7799 39.4308 39.4226L79 16.5774Z" fill="#EAEAFF"/>
<path d="M88.4535 46.743V42.9429C88.4535 42.502 88.2592 42.0848 87.8832 41.8545C86.8308 41.2101 84.3091 40 80.212 40C76.1149 40 73.5931 41.2101 72.5408 41.8545C72.1647 42.0848 71.9705 42.502 71.9705 42.9429V46.743C71.9705 47.5706 72.6414 48.2415 73.469 48.2415H86.955C87.7826 48.2415 88.4535 47.5706 88.4535 46.743Z" fill="url(#paint0_linear_3944_24396)"/>
<path fill-rule="evenodd" clip-rule="evenodd" d="M70.0974 46.743V44.4954C70.0974 44.2885 69.9297 44.1207 69.7228 44.1207H66.7461C64.6772 44.1207 63 45.7979 63 47.8669V80.2539C63 82.3228 64.678 84 66.7469 84H93.7175C95.7864 84 97.4644 82.3228 97.4644 80.2539V47.8669C97.4644 45.7979 95.7872 44.1207 93.7183 44.1207H90.7011C90.4943 44.1207 90.3265 44.2885 90.3265 44.4954V46.743C90.3265 48.6051 88.8171 50.1146 86.955 50.1146H73.469C71.6069 50.1146 70.0974 48.6051 70.0974 46.743ZM82.1053 62V64.2477H70.0157V62H82.1053ZM90.4489 68.743V70.9907H70.0157V68.743H90.4489Z" fill="url(#paint1_linear_3944_24396)"/>
<path d="M46.2305 128.781H51.2598C52.3405 128.781 53.2617 128.944 54.0234 129.27C54.7852 129.595 55.3678 130.077 55.7715 130.715C56.1816 131.346 56.3867 132.128 56.3867 133.059C56.3867 133.768 56.2565 134.393 55.9961 134.934C55.7357 135.474 55.3678 135.93 54.8926 136.301C54.4173 136.665 53.8509 136.949 53.1934 137.15L52.4512 137.512H47.9297L47.9102 135.568H51.2988C51.8848 135.568 52.373 135.464 52.7637 135.256C53.1543 135.048 53.4473 134.764 53.6426 134.406C53.8444 134.042 53.9453 133.632 53.9453 133.176C53.9453 132.681 53.8477 132.251 53.6523 131.887C53.4635 131.516 53.1706 131.232 52.7734 131.037C52.3763 130.835 51.8717 130.734 51.2598 130.734H48.6816V143H46.2305V128.781ZM54.3457 143L51.0059 136.613L53.5742 136.604L56.9629 142.873V143H54.3457ZM63.252 143.195C62.4707 143.195 61.7643 143.068 61.1328 142.814C60.5078 142.554 59.974 142.193 59.5312 141.73C59.0951 141.268 58.7598 140.725 58.5254 140.1C58.291 139.475 58.1738 138.801 58.1738 138.078V137.688C58.1738 136.861 58.2943 136.112 58.5352 135.441C58.776 134.771 59.1113 134.198 59.541 133.723C59.9707 133.241 60.4785 132.873 61.0645 132.619C61.6504 132.365 62.2852 132.238 62.9688 132.238C63.724 132.238 64.3848 132.365 64.9512 132.619C65.5176 132.873 65.9863 133.231 66.3574 133.693C66.735 134.149 67.015 134.693 67.1973 135.324C67.3861 135.956 67.4805 136.652 67.4805 137.414V138.42H59.3164V136.73H65.1562V136.545C65.1432 136.122 65.0586 135.725 64.9023 135.354C64.7526 134.982 64.5215 134.683 64.209 134.455C63.8965 134.227 63.4798 134.113 62.959 134.113C62.5684 134.113 62.2201 134.198 61.9141 134.367C61.6146 134.53 61.3639 134.768 61.1621 135.08C60.9603 135.393 60.804 135.77 60.6934 136.213C60.5892 136.649 60.5371 137.141 60.5371 137.688V138.078C60.5371 138.54 60.599 138.97 60.7227 139.367C60.8529 139.758 61.0417 140.1 61.2891 140.393C61.5365 140.686 61.8359 140.917 62.1875 141.086C62.5391 141.249 62.9395 141.33 63.3887 141.33C63.9551 141.33 64.4596 141.216 64.9023 140.988C65.3451 140.76 65.7292 140.438 66.0547 140.021L67.2949 141.223C67.0671 141.555 66.7708 141.874 66.4062 142.18C66.0417 142.479 65.5957 142.723 65.0684 142.912C64.5475 143.101 63.9421 143.195 63.252 143.195ZM71.6797 134.465V147.062H69.3262V132.434H71.4941L71.6797 134.465ZM78.5645 137.619V137.824C78.5645 138.592 78.4733 139.305 78.291 139.963C78.1152 140.614 77.8516 141.184 77.5 141.672C77.1549 142.154 76.7285 142.528 76.2207 142.795C75.7129 143.062 75.127 143.195 74.4629 143.195C73.8053 143.195 73.2292 143.075 72.7344 142.834C72.2461 142.587 71.8327 142.238 71.4941 141.789C71.1556 141.34 70.8822 140.812 70.6738 140.207C70.472 139.595 70.3288 138.924 70.2441 138.195V137.404C70.3288 136.63 70.472 135.926 70.6738 135.295C70.8822 134.663 71.1556 134.12 71.4941 133.664C71.8327 133.208 72.2461 132.857 72.7344 132.609C73.2227 132.362 73.7923 132.238 74.4434 132.238C75.1074 132.238 75.6966 132.368 76.2109 132.629C76.7253 132.883 77.1582 133.247 77.5098 133.723C77.8613 134.191 78.125 134.758 78.3008 135.422C78.4766 136.079 78.5645 136.812 78.5645 137.619ZM76.2109 137.824V137.619C76.2109 137.131 76.1654 136.678 76.0742 136.262C75.9831 135.839 75.8398 135.467 75.6445 135.148C75.4492 134.829 75.1986 134.582 74.8926 134.406C74.5931 134.224 74.2318 134.133 73.8086 134.133C73.3919 134.133 73.0339 134.204 72.7344 134.348C72.4349 134.484 72.1842 134.676 71.9824 134.924C71.7806 135.171 71.6243 135.461 71.5137 135.793C71.403 136.118 71.3249 136.473 71.2793 136.857V138.752C71.3574 139.221 71.4909 139.65 71.6797 140.041C71.8685 140.432 72.1354 140.744 72.4805 140.979C72.832 141.206 73.2812 141.32 73.8281 141.32C74.2513 141.32 74.6126 141.229 74.9121 141.047C75.2116 140.865 75.4557 140.614 75.6445 140.295C75.8398 139.969 75.9831 139.595 76.0742 139.172C76.1654 138.749 76.2109 138.299 76.2109 137.824ZM80.1172 137.834V137.609C80.1172 136.848 80.2279 136.141 80.4492 135.49C80.6706 134.833 80.9896 134.263 81.4062 133.781C81.8294 133.293 82.3438 132.915 82.9492 132.648C83.5612 132.375 84.2513 132.238 85.0195 132.238C85.7943 132.238 86.4844 132.375 87.0898 132.648C87.7018 132.915 88.2194 133.293 88.6426 133.781C89.0658 134.263 89.388 134.833 89.6094 135.49C89.8307 136.141 89.9414 136.848 89.9414 137.609V137.834C89.9414 138.596 89.8307 139.302 89.6094 139.953C89.388 140.604 89.0658 141.174 88.6426 141.662C88.2194 142.144 87.7051 142.521 87.0996 142.795C86.4941 143.062 85.8073 143.195 85.0391 143.195C84.2643 143.195 83.571 143.062 82.959 142.795C82.3535 142.521 81.8392 142.144 81.416 141.662C80.9928 141.174 80.6706 140.604 80.4492 139.953C80.2279 139.302 80.1172 138.596 80.1172 137.834ZM82.4707 137.609V137.834C82.4707 138.309 82.5195 138.758 82.6172 139.182C82.7148 139.605 82.8678 139.976 83.0762 140.295C83.2845 140.614 83.5514 140.865 83.877 141.047C84.2025 141.229 84.5898 141.32 85.0391 141.32C85.4753 141.32 85.8529 141.229 86.1719 141.047C86.4974 140.865 86.7643 140.614 86.9727 140.295C87.181 139.976 87.334 139.605 87.4316 139.182C87.5358 138.758 87.5879 138.309 87.5879 137.834V137.609C87.5879 137.141 87.5358 136.698 87.4316 136.281C87.334 135.858 87.1777 135.484 86.9629 135.158C86.7546 134.833 86.4876 134.579 86.1621 134.396C85.8431 134.208 85.4622 134.113 85.0195 134.113C84.5768 134.113 84.1927 134.208 83.8672 134.396C83.5482 134.579 83.2845 134.833 83.0762 135.158C82.8678 135.484 82.7148 135.858 82.6172 136.281C82.5195 136.698 82.4707 137.141 82.4707 137.609ZM94.2773 134.445V143H91.9238V132.434H94.1699L94.2773 134.445ZM97.5098 132.365L97.4902 134.553C97.347 134.527 97.1908 134.507 97.0215 134.494C96.8587 134.481 96.696 134.475 96.5332 134.475C96.1296 134.475 95.7747 134.533 95.4688 134.65C95.1628 134.761 94.9056 134.924 94.6973 135.139C94.4954 135.347 94.3392 135.601 94.2285 135.9C94.1178 136.2 94.0527 136.535 94.0332 136.906L93.4961 136.945C93.4961 136.281 93.5612 135.666 93.6914 135.1C93.8216 134.533 94.0169 134.035 94.2773 133.605C94.5443 133.176 94.8763 132.84 95.2734 132.6C95.6771 132.359 96.1426 132.238 96.6699 132.238C96.8132 132.238 96.9661 132.251 97.1289 132.277C97.2982 132.303 97.4251 132.333 97.5098 132.365ZM104.316 132.434V134.152H98.3594V132.434H104.316ZM100.078 129.846H102.432V140.08C102.432 140.406 102.477 140.656 102.568 140.832C102.666 141.001 102.799 141.115 102.969 141.174C103.138 141.232 103.337 141.262 103.564 141.262C103.727 141.262 103.883 141.252 104.033 141.232C104.183 141.213 104.303 141.193 104.395 141.174L104.404 142.971C104.209 143.029 103.981 143.081 103.721 143.127C103.467 143.173 103.174 143.195 102.842 143.195C102.301 143.195 101.823 143.101 101.406 142.912C100.99 142.717 100.664 142.401 100.43 141.965C100.195 141.529 100.078 140.949 100.078 140.227V129.846ZM112.061 140.139C112.061 139.904 112.002 139.693 111.885 139.504C111.768 139.309 111.543 139.133 111.211 138.977C110.885 138.82 110.404 138.677 109.766 138.547C109.206 138.423 108.691 138.277 108.223 138.107C107.76 137.932 107.363 137.72 107.031 137.473C106.699 137.225 106.442 136.932 106.26 136.594C106.077 136.255 105.986 135.865 105.986 135.422C105.986 134.992 106.081 134.585 106.27 134.201C106.458 133.817 106.729 133.479 107.08 133.186C107.432 132.893 107.858 132.661 108.359 132.492C108.867 132.323 109.434 132.238 110.059 132.238C110.944 132.238 111.702 132.388 112.334 132.688C112.972 132.98 113.46 133.381 113.799 133.889C114.137 134.39 114.307 134.956 114.307 135.588H111.953C111.953 135.308 111.882 135.048 111.738 134.807C111.602 134.559 111.393 134.361 111.113 134.211C110.833 134.055 110.482 133.977 110.059 133.977C109.655 133.977 109.32 134.042 109.053 134.172C108.792 134.296 108.597 134.458 108.467 134.66C108.343 134.862 108.281 135.083 108.281 135.324C108.281 135.5 108.314 135.66 108.379 135.803C108.451 135.939 108.568 136.066 108.73 136.184C108.893 136.294 109.115 136.398 109.395 136.496C109.681 136.594 110.039 136.688 110.469 136.779C111.276 136.949 111.969 137.167 112.549 137.434C113.135 137.694 113.584 138.033 113.896 138.449C114.209 138.859 114.365 139.38 114.365 140.012C114.365 140.48 114.264 140.91 114.062 141.301C113.867 141.685 113.581 142.02 113.203 142.307C112.826 142.587 112.373 142.805 111.846 142.961C111.325 143.117 110.739 143.195 110.088 143.195C109.131 143.195 108.32 143.026 107.656 142.688C106.992 142.342 106.488 141.903 106.143 141.369C105.804 140.829 105.635 140.269 105.635 139.689H107.91C107.936 140.126 108.057 140.474 108.271 140.734C108.493 140.988 108.766 141.174 109.092 141.291C109.424 141.402 109.766 141.457 110.117 141.457C110.54 141.457 110.895 141.402 111.182 141.291C111.468 141.174 111.686 141.018 111.836 140.822C111.986 140.62 112.061 140.393 112.061 140.139Z" fill="white"/>
<path d="M46.3877 165.835H47.7002C47.6318 166.464 47.4518 167.027 47.1602 167.523C46.8685 168.02 46.4561 168.414 45.9229 168.706C45.3896 168.993 44.7243 169.137 43.9268 169.137C43.3434 169.137 42.8125 169.027 42.334 168.809C41.86 168.59 41.4521 168.28 41.1104 167.879C40.7686 167.473 40.5042 166.988 40.3174 166.423C40.1351 165.853 40.0439 165.22 40.0439 164.522V163.531C40.0439 162.834 40.1351 162.203 40.3174 161.638C40.5042 161.068 40.7708 160.58 41.1172 160.175C41.4681 159.769 41.8896 159.457 42.3818 159.238C42.874 159.02 43.4277 158.91 44.043 158.91C44.7949 158.91 45.4307 159.051 45.9502 159.334C46.4697 159.617 46.873 160.008 47.1602 160.51C47.4518 161.007 47.6318 161.583 47.7002 162.239H46.3877C46.3239 161.774 46.2054 161.376 46.0322 161.043C45.859 160.706 45.613 160.446 45.2939 160.264C44.9749 160.081 44.5579 159.99 44.043 159.99C43.6009 159.99 43.2113 160.075 42.874 160.243C42.5413 160.412 42.2611 160.651 42.0332 160.961C41.8099 161.271 41.6413 161.642 41.5273 162.075C41.4134 162.508 41.3564 162.989 41.3564 163.518V164.522C41.3564 165.01 41.4066 165.468 41.5068 165.896C41.6117 166.325 41.7689 166.701 41.9785 167.024C42.1882 167.348 42.4548 167.603 42.7783 167.79C43.1019 167.972 43.4847 168.063 43.9268 168.063C44.4873 168.063 44.9339 167.975 45.2666 167.797C45.5993 167.619 45.8499 167.364 46.0186 167.031C46.1917 166.699 46.3148 166.3 46.3877 165.835ZM48.9717 165.384V165.227C48.9717 164.693 49.0492 164.199 49.2041 163.743C49.359 163.283 49.5824 162.884 49.874 162.547C50.1657 162.205 50.5189 161.941 50.9336 161.754C51.3483 161.562 51.8132 161.467 52.3281 161.467C52.8477 161.467 53.3148 161.562 53.7295 161.754C54.1488 161.941 54.5042 162.205 54.7959 162.547C55.0921 162.884 55.3177 163.283 55.4727 163.743C55.6276 164.199 55.7051 164.693 55.7051 165.227V165.384C55.7051 165.917 55.6276 166.411 55.4727 166.867C55.3177 167.323 55.0921 167.722 54.7959 168.063C54.5042 168.401 54.151 168.665 53.7363 168.856C53.3262 169.043 52.8613 169.137 52.3418 169.137C51.8223 169.137 51.3551 169.043 50.9404 168.856C50.5257 168.665 50.1702 168.401 49.874 168.063C49.5824 167.722 49.359 167.323 49.2041 166.867C49.0492 166.411 48.9717 165.917 48.9717 165.384ZM50.2363 165.227V165.384C50.2363 165.753 50.2796 166.102 50.3662 166.43C50.4528 166.753 50.5827 167.04 50.7559 167.291C50.9336 167.542 51.1546 167.74 51.4189 167.886C51.6833 168.027 51.9909 168.098 52.3418 168.098C52.6882 168.098 52.9912 168.027 53.251 167.886C53.5153 167.74 53.734 167.542 53.9072 167.291C54.0804 167.04 54.2103 166.753 54.2969 166.43C54.388 166.102 54.4336 165.753 54.4336 165.384V165.227C54.4336 164.862 54.388 164.518 54.2969 164.194C54.2103 163.866 54.0781 163.577 53.9004 163.326C53.7272 163.071 53.5085 162.87 53.2441 162.725C52.9844 162.579 52.679 162.506 52.3281 162.506C51.9818 162.506 51.6764 162.579 51.4121 162.725C51.1523 162.87 50.9336 163.071 50.7559 163.326C50.5827 163.577 50.4528 163.866 50.3662 164.194C50.2796 164.518 50.2363 164.862 50.2363 165.227ZM58.665 158.5V169H57.3936V158.5H58.665ZM62.0693 158.5V169H60.7979V158.5H62.0693ZM68.4609 167.735V163.928C68.4609 163.636 68.4017 163.383 68.2832 163.169C68.1693 162.95 67.9961 162.782 67.7637 162.663C67.5312 162.545 67.2441 162.485 66.9023 162.485C66.5833 162.485 66.3031 162.54 66.0615 162.649C65.8245 162.759 65.6377 162.902 65.501 163.08C65.3688 163.258 65.3027 163.449 65.3027 163.654H64.0381C64.0381 163.39 64.1064 163.128 64.2432 162.868C64.3799 162.608 64.5758 162.374 64.8311 162.164C65.0908 161.95 65.4007 161.781 65.7607 161.658C66.1253 161.531 66.5309 161.467 66.9775 161.467C67.5153 161.467 67.9893 161.558 68.3994 161.74C68.8141 161.923 69.1377 162.198 69.3701 162.567C69.6071 162.932 69.7256 163.39 69.7256 163.941V167.387C69.7256 167.633 69.7461 167.895 69.7871 168.173C69.8327 168.451 69.8988 168.69 69.9854 168.891V169H68.666C68.6022 168.854 68.5521 168.66 68.5156 168.419C68.4792 168.173 68.4609 167.945 68.4609 167.735ZM68.6797 164.516L68.6934 165.404H67.415C67.055 165.404 66.7337 165.434 66.4512 165.493C66.1686 165.548 65.9316 165.632 65.7402 165.746C65.5488 165.86 65.403 166.004 65.3027 166.177C65.2025 166.345 65.1523 166.544 65.1523 166.771C65.1523 167.004 65.2048 167.216 65.3096 167.407C65.4144 167.599 65.5716 167.751 65.7812 167.865C65.9954 167.975 66.2575 168.029 66.5674 168.029C66.9548 168.029 67.2965 167.947 67.5928 167.783C67.889 167.619 68.1237 167.419 68.2969 167.182C68.4746 166.945 68.5703 166.715 68.584 166.491L69.124 167.1C69.0921 167.291 69.0055 167.503 68.8643 167.735C68.723 167.968 68.5339 168.191 68.2969 168.405C68.0645 168.615 67.7865 168.79 67.4629 168.932C67.1439 169.068 66.7839 169.137 66.3828 169.137C65.8815 169.137 65.4417 169.039 65.0635 168.843C64.6898 168.647 64.3981 168.385 64.1885 168.057C63.9834 167.724 63.8809 167.353 63.8809 166.942C63.8809 166.546 63.9583 166.197 64.1133 165.896C64.2682 165.591 64.4915 165.338 64.7832 165.138C65.0749 164.933 65.4258 164.778 65.8359 164.673C66.2461 164.568 66.7041 164.516 67.21 164.516H68.6797ZM71.708 158.5H72.9795V167.564L72.8701 169H71.708V158.5ZM77.9766 165.24V165.384C77.9766 165.922 77.9128 166.421 77.7852 166.881C77.6576 167.337 77.4707 167.733 77.2246 168.07C76.9785 168.408 76.6777 168.67 76.3223 168.856C75.9668 169.043 75.5589 169.137 75.0986 169.137C74.6292 169.137 74.2168 169.057 73.8613 168.897C73.5104 168.733 73.2142 168.499 72.9727 168.193C72.7311 167.888 72.5374 167.519 72.3916 167.086C72.2503 166.653 72.1523 166.165 72.0977 165.623V164.994C72.1523 164.447 72.2503 163.957 72.3916 163.524C72.5374 163.091 72.7311 162.722 72.9727 162.417C73.2142 162.107 73.5104 161.872 73.8613 161.713C74.2122 161.549 74.6201 161.467 75.085 161.467C75.5498 161.467 75.9622 161.558 76.3223 161.74C76.6823 161.918 76.9831 162.173 77.2246 162.506C77.4707 162.839 77.6576 163.237 77.7852 163.702C77.9128 164.162 77.9766 164.675 77.9766 165.24ZM76.7051 165.384V165.24C76.7051 164.871 76.6709 164.525 76.6025 164.201C76.5342 163.873 76.4248 163.586 76.2744 163.34C76.124 163.089 75.9258 162.893 75.6797 162.752C75.4336 162.606 75.1305 162.533 74.7705 162.533C74.4515 162.533 74.1735 162.588 73.9365 162.697C73.7041 162.807 73.5059 162.955 73.3418 163.142C73.1777 163.324 73.0433 163.534 72.9385 163.771C72.8382 164.003 72.763 164.244 72.7129 164.495V166.143C72.7858 166.462 72.9043 166.769 73.0684 167.065C73.237 167.357 73.4603 167.596 73.7383 167.783C74.0208 167.97 74.3695 168.063 74.7842 168.063C75.126 168.063 75.4176 167.995 75.6592 167.858C75.9053 167.717 76.1035 167.523 76.2539 167.277C76.4089 167.031 76.5228 166.746 76.5957 166.423C76.6686 166.099 76.7051 165.753 76.7051 165.384ZM79.2412 165.384V165.227C79.2412 164.693 79.3187 164.199 79.4736 163.743C79.6286 163.283 79.8519 162.884 80.1436 162.547C80.4352 162.205 80.7884 161.941 81.2031 161.754C81.6178 161.562 82.0827 161.467 82.5977 161.467C83.1172 161.467 83.5843 161.562 83.999 161.754C84.4183 161.941 84.7738 162.205 85.0654 162.547C85.3617 162.884 85.5872 163.283 85.7422 163.743C85.8971 164.199 85.9746 164.693 85.9746 165.227V165.384C85.9746 165.917 85.8971 166.411 85.7422 166.867C85.5872 167.323 85.3617 167.722 85.0654 168.063C84.7738 168.401 84.4206 168.665 84.0059 168.856C83.5957 169.043 83.1309 169.137 82.6113 169.137C82.0918 169.137 81.6247 169.043 81.21 168.856C80.7952 168.665 80.4398 168.401 80.1436 168.063C79.8519 167.722 79.6286 167.323 79.4736 166.867C79.3187 166.411 79.2412 165.917 79.2412 165.384ZM80.5059 165.227V165.384C80.5059 165.753 80.5492 166.102 80.6357 166.43C80.7223 166.753 80.8522 167.04 81.0254 167.291C81.2031 167.542 81.4242 167.74 81.6885 167.886C81.9528 168.027 82.2604 168.098 82.6113 168.098C82.9577 168.098 83.2607 168.027 83.5205 167.886C83.7848 167.74 84.0036 167.542 84.1768 167.291C84.3499 167.04 84.4798 166.753 84.5664 166.43C84.6576 166.102 84.7031 165.753 84.7031 165.384V165.227C84.7031 164.862 84.6576 164.518 84.5664 164.194C84.4798 163.866 84.3477 163.577 84.1699 163.326C83.9967 163.071 83.778 162.87 83.5137 162.725C83.2539 162.579 82.9486 162.506 82.5977 162.506C82.2513 162.506 81.946 162.579 81.6816 162.725C81.4219 162.87 81.2031 163.071 81.0254 163.326C80.8522 163.577 80.7223 163.866 80.6357 164.194C80.5492 164.518 80.5059 164.862 80.5059 165.227ZM88.8252 162.766V169H87.5605V161.604H88.791L88.8252 162.766ZM91.1357 161.562L91.1289 162.738C91.0241 162.715 90.9238 162.702 90.8281 162.697C90.737 162.688 90.6322 162.684 90.5137 162.684C90.222 162.684 89.9645 162.729 89.7412 162.82C89.5179 162.911 89.3288 163.039 89.1738 163.203C89.0189 163.367 88.8958 163.563 88.8047 163.791C88.7181 164.014 88.6611 164.26 88.6338 164.529L88.2783 164.734C88.2783 164.288 88.3216 163.868 88.4082 163.477C88.4993 163.085 88.6383 162.738 88.8252 162.438C89.012 162.132 89.249 161.895 89.5361 161.727C89.8278 161.553 90.1742 161.467 90.5752 161.467C90.6663 161.467 90.7712 161.478 90.8896 161.501C91.0081 161.519 91.0902 161.54 91.1357 161.562ZM96.3926 167.735V163.928C96.3926 163.636 96.3333 163.383 96.2148 163.169C96.1009 162.95 95.9277 162.782 95.6953 162.663C95.4629 162.545 95.1758 162.485 94.834 162.485C94.515 162.485 94.2347 162.54 93.9932 162.649C93.7562 162.759 93.5693 162.902 93.4326 163.08C93.3005 163.258 93.2344 163.449 93.2344 163.654H91.9697C91.9697 163.39 92.0381 163.128 92.1748 162.868C92.3115 162.608 92.5075 162.374 92.7627 162.164C93.0225 161.95 93.3324 161.781 93.6924 161.658C94.057 161.531 94.4626 161.467 94.9092 161.467C95.4469 161.467 95.9209 161.558 96.3311 161.74C96.7458 161.923 97.0693 162.198 97.3018 162.567C97.5387 162.932 97.6572 163.39 97.6572 163.941V167.387C97.6572 167.633 97.6777 167.895 97.7188 168.173C97.7643 168.451 97.8304 168.69 97.917 168.891V169H96.5977C96.5339 168.854 96.4837 168.66 96.4473 168.419C96.4108 168.173 96.3926 167.945 96.3926 167.735ZM96.6113 164.516L96.625 165.404H95.3467C94.9867 165.404 94.6654 165.434 94.3828 165.493C94.1003 165.548 93.8633 165.632 93.6719 165.746C93.4805 165.86 93.3346 166.004 93.2344 166.177C93.1341 166.345 93.084 166.544 93.084 166.771C93.084 167.004 93.1364 167.216 93.2412 167.407C93.346 167.599 93.5033 167.751 93.7129 167.865C93.9271 167.975 94.1891 168.029 94.499 168.029C94.8864 168.029 95.2282 167.947 95.5244 167.783C95.8206 167.619 96.0553 167.419 96.2285 167.182C96.4062 166.945 96.502 166.715 96.5156 166.491L97.0557 167.1C97.0238 167.291 96.9372 167.503 96.7959 167.735C96.6546 167.968 96.4655 168.191 96.2285 168.405C95.9961 168.615 95.7181 168.79 95.3945 168.932C95.0755 169.068 94.7155 169.137 94.3145 169.137C93.8132 169.137 93.3734 169.039 92.9951 168.843C92.6214 168.647 92.3298 168.385 92.1201 168.057C91.915 167.724 91.8125 167.353 91.8125 166.942C91.8125 166.546 91.89 166.197 92.0449 165.896C92.1999 165.591 92.4232 165.338 92.7148 165.138C93.0065 164.933 93.3574 164.778 93.7676 164.673C94.1777 164.568 94.6357 164.516 95.1416 164.516H96.6113ZM102.743 161.604V162.574H98.7441V161.604H102.743ZM100.098 159.806H101.362V167.168C101.362 167.419 101.401 167.608 101.479 167.735C101.556 167.863 101.656 167.947 101.779 167.988C101.902 168.029 102.035 168.05 102.176 168.05C102.281 168.05 102.39 168.041 102.504 168.022C102.622 168 102.711 167.981 102.771 167.968L102.777 169C102.677 169.032 102.545 169.062 102.381 169.089C102.221 169.121 102.028 169.137 101.8 169.137C101.49 169.137 101.205 169.075 100.945 168.952C100.686 168.829 100.478 168.624 100.323 168.337C100.173 168.045 100.098 167.653 100.098 167.161V159.806ZM105.601 161.604V169H104.329V161.604H105.601ZM104.233 159.642C104.233 159.437 104.295 159.263 104.418 159.122C104.546 158.981 104.732 158.91 104.979 158.91C105.22 158.91 105.405 158.981 105.532 159.122C105.664 159.263 105.73 159.437 105.73 159.642C105.73 159.838 105.664 160.006 105.532 160.147C105.405 160.284 105.22 160.353 104.979 160.353C104.732 160.353 104.546 160.284 104.418 160.147C104.295 160.006 104.233 159.838 104.233 159.642ZM109.88 167.858L111.903 161.604H113.195L110.536 169H109.688L109.88 167.858ZM108.191 161.604L110.276 167.893L110.42 169H109.572L106.893 161.604H108.191ZM117.386 169.137C116.871 169.137 116.404 169.05 115.984 168.877C115.57 168.699 115.212 168.451 114.911 168.132C114.615 167.813 114.387 167.435 114.228 166.997C114.068 166.56 113.988 166.081 113.988 165.562V165.274C113.988 164.673 114.077 164.137 114.255 163.668C114.433 163.194 114.674 162.793 114.979 162.465C115.285 162.137 115.631 161.888 116.019 161.72C116.406 161.551 116.807 161.467 117.222 161.467C117.75 161.467 118.206 161.558 118.589 161.74C118.976 161.923 119.293 162.178 119.539 162.506C119.785 162.829 119.967 163.212 120.086 163.654C120.204 164.092 120.264 164.57 120.264 165.09V165.657H114.74V164.625H118.999V164.529C118.981 164.201 118.912 163.882 118.794 163.572C118.68 163.262 118.498 163.007 118.247 162.807C117.996 162.606 117.655 162.506 117.222 162.506C116.935 162.506 116.67 162.567 116.429 162.69C116.187 162.809 115.98 162.987 115.807 163.224C115.633 163.461 115.499 163.75 115.403 164.092C115.308 164.434 115.26 164.828 115.26 165.274V165.562C115.26 165.912 115.308 166.243 115.403 166.553C115.504 166.858 115.647 167.127 115.834 167.359C116.025 167.592 116.256 167.774 116.524 167.906C116.798 168.038 117.108 168.104 117.454 168.104C117.901 168.104 118.279 168.013 118.589 167.831C118.899 167.649 119.17 167.405 119.402 167.1L120.168 167.708C120.008 167.95 119.806 168.18 119.56 168.398C119.313 168.617 119.01 168.795 118.65 168.932C118.295 169.068 117.873 169.137 117.386 169.137ZM48.7939 187.564V178.5H50.0654V189H48.9033L48.7939 187.564ZM43.8174 185.384V185.24C43.8174 184.675 43.8857 184.162 44.0225 183.702C44.1637 183.237 44.362 182.839 44.6172 182.506C44.877 182.173 45.1846 181.918 45.54 181.74C45.9001 181.558 46.3011 181.467 46.7432 181.467C47.208 181.467 47.6136 181.549 47.96 181.713C48.3109 181.872 48.6071 182.107 48.8486 182.417C49.0947 182.722 49.2884 183.091 49.4297 183.524C49.571 183.957 49.6689 184.447 49.7236 184.994V185.623C49.6735 186.165 49.5755 186.653 49.4297 187.086C49.2884 187.519 49.0947 187.888 48.8486 188.193C48.6071 188.499 48.3109 188.733 47.96 188.897C47.609 189.057 47.1989 189.137 46.7295 189.137C46.2965 189.137 45.9001 189.043 45.54 188.856C45.1846 188.67 44.877 188.408 44.6172 188.07C44.362 187.733 44.1637 187.337 44.0225 186.881C43.8857 186.421 43.8174 185.922 43.8174 185.384ZM45.0889 185.24V185.384C45.0889 185.753 45.1253 186.099 45.1982 186.423C45.2757 186.746 45.3942 187.031 45.5537 187.277C45.7132 187.523 45.916 187.717 46.1621 187.858C46.4082 187.995 46.7021 188.063 47.0439 188.063C47.4632 188.063 47.8073 187.975 48.0762 187.797C48.3496 187.619 48.5684 187.384 48.7324 187.093C48.8965 186.801 49.0241 186.484 49.1152 186.143V184.495C49.0605 184.244 48.9808 184.003 48.876 183.771C48.7757 183.534 48.6436 183.324 48.4795 183.142C48.32 182.955 48.1217 182.807 47.8848 182.697C47.6523 182.588 47.3766 182.533 47.0576 182.533C46.7113 182.533 46.4128 182.606 46.1621 182.752C45.916 182.893 45.7132 183.089 45.5537 183.34C45.3942 183.586 45.2757 183.873 45.1982 184.201C45.1253 184.525 45.0889 184.871 45.0889 185.24ZM56.3955 187.735V183.928C56.3955 183.636 56.3363 183.383 56.2178 183.169C56.1038 182.95 55.9307 182.782 55.6982 182.663C55.4658 182.545 55.1787 182.485 54.8369 182.485C54.5179 182.485 54.2376 182.54 53.9961 182.649C53.7591 182.759 53.5723 182.902 53.4355 183.08C53.3034 183.258 53.2373 183.449 53.2373 183.654H51.9727C51.9727 183.39 52.041 183.128 52.1777 182.868C52.3145 182.608 52.5104 182.374 52.7656 182.164C53.0254 181.95 53.3353 181.781 53.6953 181.658C54.0599 181.531 54.4655 181.467 54.9121 181.467C55.4499 181.467 55.9238 181.558 56.334 181.74C56.7487 181.923 57.0723 182.198 57.3047 182.567C57.5417 182.932 57.6602 183.39 57.6602 183.941V187.387C57.6602 187.633 57.6807 187.895 57.7217 188.173C57.7673 188.451 57.8333 188.69 57.9199 188.891V189H56.6006C56.5368 188.854 56.4867 188.66 56.4502 188.419C56.4137 188.173 56.3955 187.945 56.3955 187.735ZM56.6143 184.516L56.6279 185.404H55.3496C54.9896 185.404 54.6683 185.434 54.3857 185.493C54.1032 185.548 53.8662 185.632 53.6748 185.746C53.4834 185.86 53.3376 186.004 53.2373 186.177C53.137 186.345 53.0869 186.544 53.0869 186.771C53.0869 187.004 53.1393 187.216 53.2441 187.407C53.349 187.599 53.5062 187.751 53.7158 187.865C53.93 187.975 54.1921 188.029 54.502 188.029C54.8893 188.029 55.2311 187.947 55.5273 187.783C55.8236 187.619 56.0583 187.419 56.2314 187.182C56.4092 186.945 56.5049 186.715 56.5186 186.491L57.0586 187.1C57.0267 187.291 56.9401 187.503 56.7988 187.735C56.6576 187.968 56.4684 188.191 56.2314 188.405C55.999 188.615 55.721 188.79 55.3975 188.932C55.0785 189.068 54.7184 189.137 54.3174 189.137C53.8161 189.137 53.3763 189.039 52.998 188.843C52.6243 188.647 52.3327 188.385 52.123 188.057C51.918 187.724 51.8154 187.353 51.8154 186.942C51.8154 186.546 51.8929 186.197 52.0479 185.896C52.2028 185.591 52.4261 185.338 52.7178 185.138C53.0094 184.933 53.3604 184.778 53.7705 184.673C54.1807 184.568 54.6387 184.516 55.1445 184.516H56.6143ZM63.9561 187.038C63.9561 186.856 63.915 186.687 63.833 186.532C63.7555 186.373 63.5938 186.229 63.3477 186.102C63.1061 185.969 62.7415 185.855 62.2539 185.76C61.8438 185.673 61.4723 185.571 61.1396 185.452C60.8115 185.334 60.5312 185.19 60.2988 185.021C60.071 184.853 59.8955 184.655 59.7725 184.427C59.6494 184.199 59.5879 183.932 59.5879 183.627C59.5879 183.335 59.6517 183.06 59.7793 182.8C59.9115 182.54 60.096 182.31 60.333 182.109C60.5745 181.909 60.8639 181.752 61.2012 181.638C61.5384 181.524 61.9144 181.467 62.3291 181.467C62.9215 181.467 63.4274 181.572 63.8467 181.781C64.266 181.991 64.5872 182.271 64.8105 182.622C65.0339 182.968 65.1455 183.354 65.1455 183.777H63.8809C63.8809 183.572 63.8193 183.374 63.6963 183.183C63.5778 182.987 63.4023 182.825 63.1699 182.697C62.9421 182.57 62.6618 182.506 62.3291 182.506C61.9782 182.506 61.6934 182.561 61.4746 182.67C61.2604 182.775 61.1032 182.909 61.0029 183.073C60.9072 183.237 60.8594 183.41 60.8594 183.593C60.8594 183.729 60.8822 183.853 60.9277 183.962C60.9779 184.067 61.0645 184.165 61.1875 184.256C61.3105 184.342 61.4837 184.424 61.707 184.502C61.9303 184.579 62.2152 184.657 62.5615 184.734C63.1676 184.871 63.6667 185.035 64.0586 185.227C64.4505 185.418 64.7422 185.653 64.9336 185.931C65.125 186.209 65.2207 186.546 65.2207 186.942C65.2207 187.266 65.1523 187.562 65.0156 187.831C64.8835 188.1 64.6898 188.332 64.4346 188.528C64.1839 188.72 63.8831 188.87 63.5322 188.979C63.1859 189.084 62.7962 189.137 62.3633 189.137C61.7116 189.137 61.1602 189.021 60.709 188.788C60.2578 188.556 59.916 188.255 59.6836 187.886C59.4512 187.517 59.335 187.127 59.335 186.717H60.6064C60.6247 187.063 60.7249 187.339 60.9072 187.544C61.0895 187.744 61.3128 187.888 61.5771 187.975C61.8415 188.057 62.1035 188.098 62.3633 188.098C62.7096 188.098 62.999 188.052 63.2314 187.961C63.4684 187.87 63.6484 187.744 63.7715 187.585C63.8945 187.425 63.9561 187.243 63.9561 187.038ZM68.1465 178.5V189H66.8818V178.5H68.1465ZM67.8457 185.021L67.3193 185.001C67.3239 184.495 67.3991 184.028 67.5449 183.6C67.6908 183.167 67.8958 182.791 68.1602 182.472C68.4245 182.153 68.7389 181.907 69.1035 181.733C69.4727 181.556 69.8805 181.467 70.3271 181.467C70.6917 181.467 71.0199 181.517 71.3115 181.617C71.6032 181.713 71.8516 181.868 72.0566 182.082C72.2663 182.296 72.4258 182.574 72.5352 182.916C72.6445 183.253 72.6992 183.666 72.6992 184.153V189H71.4277V184.14C71.4277 183.752 71.3708 183.442 71.2568 183.21C71.1429 182.973 70.9766 182.802 70.7578 182.697C70.5391 182.588 70.2702 182.533 69.9512 182.533C69.6367 182.533 69.3496 182.599 69.0898 182.731C68.8346 182.864 68.6136 183.046 68.4268 183.278C68.2445 183.511 68.1009 183.777 67.9961 184.078C67.8958 184.374 67.8457 184.689 67.8457 185.021ZM74.5859 178.5H75.8574V187.564L75.748 189H74.5859V178.5ZM80.8545 185.24V185.384C80.8545 185.922 80.7907 186.421 80.6631 186.881C80.5355 187.337 80.3486 187.733 80.1025 188.07C79.8564 188.408 79.5557 188.67 79.2002 188.856C78.8447 189.043 78.4368 189.137 77.9766 189.137C77.5072 189.137 77.0947 189.057 76.7393 188.897C76.3883 188.733 76.0921 188.499 75.8506 188.193C75.609 187.888 75.4154 187.519 75.2695 187.086C75.1283 186.653 75.0303 186.165 74.9756 185.623V184.994C75.0303 184.447 75.1283 183.957 75.2695 183.524C75.4154 183.091 75.609 182.722 75.8506 182.417C76.0921 182.107 76.3883 181.872 76.7393 181.713C77.0902 181.549 77.498 181.467 77.9629 181.467C78.4277 181.467 78.8402 181.558 79.2002 181.74C79.5602 181.918 79.861 182.173 80.1025 182.506C80.3486 182.839 80.5355 183.237 80.6631 183.702C80.7907 184.162 80.8545 184.675 80.8545 185.24ZM79.583 185.384V185.24C79.583 184.871 79.5488 184.525 79.4805 184.201C79.4121 183.873 79.3027 183.586 79.1523 183.34C79.002 183.089 78.8037 182.893 78.5576 182.752C78.3115 182.606 78.0085 182.533 77.6484 182.533C77.3294 182.533 77.0514 182.588 76.8145 182.697C76.582 182.807 76.3838 182.955 76.2197 183.142C76.0557 183.324 75.9212 183.534 75.8164 183.771C75.7161 184.003 75.641 184.244 75.5908 184.495V186.143C75.6637 186.462 75.7822 186.769 75.9463 187.065C76.1149 187.357 76.3382 187.596 76.6162 187.783C76.8988 187.97 77.2474 188.063 77.6621 188.063C78.0039 188.063 78.2956 187.995 78.5371 187.858C78.7832 187.717 78.9814 187.523 79.1318 187.277C79.2868 187.031 79.4007 186.746 79.4736 186.423C79.5465 186.099 79.583 185.753 79.583 185.384ZM82.1191 185.384V185.227C82.1191 184.693 82.1966 184.199 82.3516 183.743C82.5065 183.283 82.7298 182.884 83.0215 182.547C83.3132 182.205 83.6663 181.941 84.0811 181.754C84.4958 181.562 84.9606 181.467 85.4756 181.467C85.9951 181.467 86.4622 181.562 86.877 181.754C87.2962 181.941 87.6517 182.205 87.9434 182.547C88.2396 182.884 88.4652 183.283 88.6201 183.743C88.7751 184.199 88.8525 184.693 88.8525 185.227V185.384C88.8525 185.917 88.7751 186.411 88.6201 186.867C88.4652 187.323 88.2396 187.722 87.9434 188.063C87.6517 188.401 87.2985 188.665 86.8838 188.856C86.4736 189.043 86.0088 189.137 85.4893 189.137C84.9697 189.137 84.5026 189.043 84.0879 188.856C83.6732 188.665 83.3177 188.401 83.0215 188.063C82.7298 187.722 82.5065 187.323 82.3516 186.867C82.1966 186.411 82.1191 185.917 82.1191 185.384ZM83.3838 185.227V185.384C83.3838 185.753 83.4271 186.102 83.5137 186.43C83.6003 186.753 83.7301 187.04 83.9033 187.291C84.0811 187.542 84.3021 187.74 84.5664 187.886C84.8307 188.027 85.1383 188.098 85.4893 188.098C85.8356 188.098 86.1387 188.027 86.3984 187.886C86.6628 187.74 86.8815 187.542 87.0547 187.291C87.2279 187.04 87.3577 186.753 87.4443 186.43C87.5355 186.102 87.5811 185.753 87.5811 185.384V185.227C87.5811 184.862 87.5355 184.518 87.4443 184.194C87.3577 183.866 87.2256 183.577 87.0479 183.326C86.8747 183.071 86.6559 182.87 86.3916 182.725C86.1318 182.579 85.8265 182.506 85.4756 182.506C85.1292 182.506 84.8239 182.579 84.5596 182.725C84.2998 182.87 84.0811 183.071 83.9033 183.326C83.7301 183.577 83.6003 183.866 83.5137 184.194C83.4271 184.518 83.3838 184.862 83.3838 185.227ZM94.7998 187.735V183.928C94.7998 183.636 94.7406 183.383 94.6221 183.169C94.5081 182.95 94.335 182.782 94.1025 182.663C93.8701 182.545 93.583 182.485 93.2412 182.485C92.9222 182.485 92.6419 182.54 92.4004 182.649C92.1634 182.759 91.9766 182.902 91.8398 183.08C91.7077 183.258 91.6416 183.449 91.6416 183.654H90.377C90.377 183.39 90.4453 183.128 90.582 182.868C90.7188 182.608 90.9147 182.374 91.1699 182.164C91.4297 181.95 91.7396 181.781 92.0996 181.658C92.4642 181.531 92.8698 181.467 93.3164 181.467C93.8542 181.467 94.3281 181.558 94.7383 181.74C95.153 181.923 95.4766 182.198 95.709 182.567C95.946 182.932 96.0645 183.39 96.0645 183.941V187.387C96.0645 187.633 96.085 187.895 96.126 188.173C96.1715 188.451 96.2376 188.69 96.3242 188.891V189H95.0049C94.9411 188.854 94.891 188.66 94.8545 188.419C94.818 188.173 94.7998 187.945 94.7998 187.735ZM95.0186 184.516L95.0322 185.404H93.7539C93.3939 185.404 93.0726 185.434 92.79 185.493C92.5075 185.548 92.2705 185.632 92.0791 185.746C91.8877 185.86 91.7419 186.004 91.6416 186.177C91.5413 186.345 91.4912 186.544 91.4912 186.771C91.4912 187.004 91.5436 187.216 91.6484 187.407C91.7533 187.599 91.9105 187.751 92.1201 187.865C92.3343 187.975 92.5964 188.029 92.9062 188.029C93.2936 188.029 93.6354 187.947 93.9316 187.783C94.2279 187.619 94.4626 187.419 94.6357 187.182C94.8135 186.945 94.9092 186.715 94.9229 186.491L95.4629 187.1C95.431 187.291 95.3444 187.503 95.2031 187.735C95.0618 187.968 94.8727 188.191 94.6357 188.405C94.4033 188.615 94.1253 188.79 93.8018 188.932C93.4827 189.068 93.1227 189.137 92.7217 189.137C92.2204 189.137 91.7806 189.039 91.4023 188.843C91.0286 188.647 90.737 188.385 90.5273 188.057C90.3223 187.724 90.2197 187.353 90.2197 186.942C90.2197 186.546 90.2972 186.197 90.4521 185.896C90.6071 185.591 90.8304 185.338 91.1221 185.138C91.4137 184.933 91.7646 184.778 92.1748 184.673C92.585 184.568 93.043 184.516 93.5488 184.516H95.0186ZM99.3184 182.766V189H98.0537V181.604H99.2842L99.3184 182.766ZM101.629 181.562L101.622 182.738C101.517 182.715 101.417 182.702 101.321 182.697C101.23 182.688 101.125 182.684 101.007 182.684C100.715 182.684 100.458 182.729 100.234 182.82C100.011 182.911 99.8219 183.039 99.667 183.203C99.512 183.367 99.389 183.563 99.2979 183.791C99.2113 184.014 99.1543 184.26 99.127 184.529L98.7715 184.734C98.7715 184.288 98.8148 183.868 98.9014 183.477C98.9925 183.085 99.1315 182.738 99.3184 182.438C99.5052 182.132 99.7422 181.895 100.029 181.727C100.321 181.553 100.667 181.467 101.068 181.467C101.16 181.467 101.264 181.478 101.383 181.501C101.501 181.519 101.583 181.54 101.629 181.562ZM107.323 187.564V178.5H108.595V189H107.433L107.323 187.564ZM102.347 185.384V185.24C102.347 184.675 102.415 184.162 102.552 183.702C102.693 183.237 102.891 182.839 103.146 182.506C103.406 182.173 103.714 181.918 104.069 181.74C104.429 181.558 104.83 181.467 105.272 181.467C105.737 181.467 106.143 181.549 106.489 181.713C106.84 181.872 107.136 182.107 107.378 182.417C107.624 182.722 107.818 183.091 107.959 183.524C108.1 183.957 108.198 184.447 108.253 184.994V185.623C108.203 186.165 108.105 186.653 107.959 187.086C107.818 187.519 107.624 187.888 107.378 188.193C107.136 188.499 106.84 188.733 106.489 188.897C106.138 189.057 105.728 189.137 105.259 189.137C104.826 189.137 104.429 189.043 104.069 188.856C103.714 188.67 103.406 188.408 103.146 188.07C102.891 187.733 102.693 187.337 102.552 186.881C102.415 186.421 102.347 185.922 102.347 185.384ZM103.618 185.24V185.384C103.618 185.753 103.655 186.099 103.728 186.423C103.805 186.746 103.924 187.031 104.083 187.277C104.243 187.523 104.445 187.717 104.691 187.858C104.938 187.995 105.231 188.063 105.573 188.063C105.993 188.063 106.337 187.975 106.605 187.797C106.879 187.619 107.098 187.384 107.262 187.093C107.426 186.801 107.553 186.484 107.645 186.143V184.495C107.59 184.244 107.51 184.003 107.405 183.771C107.305 183.534 107.173 183.324 107.009 183.142C106.849 182.955 106.651 182.807 106.414 182.697C106.182 182.588 105.906 182.533 105.587 182.533C105.241 182.533 104.942 182.606 104.691 182.752C104.445 182.893 104.243 183.089 104.083 183.34C103.924 183.586 103.805 183.873 103.728 184.201C103.655 184.525 103.618 184.871 103.618 185.24ZM114.87 187.038C114.87 186.856 114.829 186.687 114.747 186.532C114.67 186.373 114.508 186.229 114.262 186.102C114.02 185.969 113.656 185.855 113.168 185.76C112.758 185.673 112.386 185.571 112.054 185.452C111.726 185.334 111.445 185.19 111.213 185.021C110.985 184.853 110.81 184.655 110.687 184.427C110.563 184.199 110.502 183.932 110.502 183.627C110.502 183.335 110.566 183.06 110.693 182.8C110.826 182.54 111.01 182.31 111.247 182.109C111.489 181.909 111.778 181.752 112.115 181.638C112.452 181.524 112.828 181.467 113.243 181.467C113.836 181.467 114.341 181.572 114.761 181.781C115.18 181.991 115.501 182.271 115.725 182.622C115.948 182.968 116.06 183.354 116.06 183.777H114.795C114.795 183.572 114.733 183.374 114.61 183.183C114.492 182.987 114.316 182.825 114.084 182.697C113.856 182.57 113.576 182.506 113.243 182.506C112.892 182.506 112.607 182.561 112.389 182.67C112.174 182.775 112.017 182.909 111.917 183.073C111.821 183.237 111.773 183.41 111.773 183.593C111.773 183.729 111.796 183.853 111.842 183.962C111.892 184.067 111.979 184.165 112.102 184.256C112.225 184.342 112.398 184.424 112.621 184.502C112.844 184.579 113.129 184.657 113.476 184.734C114.082 184.871 114.581 185.035 114.973 185.227C115.365 185.418 115.656 185.653 115.848 185.931C116.039 186.209 116.135 186.546 116.135 186.942C116.135 187.266 116.066 187.562 115.93 187.831C115.798 188.1 115.604 188.332 115.349 188.528C115.098 188.72 114.797 188.87 114.446 188.979C114.1 189.084 113.71 189.137 113.277 189.137C112.626 189.137 112.074 189.021 111.623 188.788C111.172 188.556 110.83 188.255 110.598 187.886C110.365 187.517 110.249 187.127 110.249 186.717H111.521C111.539 187.063 111.639 187.339 111.821 187.544C112.004 187.744 112.227 187.888 112.491 187.975C112.756 188.057 113.018 188.098 113.277 188.098C113.624 188.098 113.913 188.052 114.146 187.961C114.382 187.87 114.562 187.744 114.686 187.585C114.809 187.425 114.87 187.243 114.87 187.038Z" fill="#949699"/>
<defs>
<linearGradient id="paint0_linear_3944_24396" x1="88.8483" y1="26.36" x2="74.7072" y2="150.303" gradientUnits="userSpaceOnUse">
<stop offset="0.1975" stop-color="#FFB666"/>
<stop offset="0.95505" stop-color="#FF0E65"/>
</linearGradient>
<linearGradient id="paint1_linear_3944_24396" x1="88.8483" y1="26.36" x2="74.7072" y2="150.303" gradientUnits="userSpaceOnUse">
<stop offset="0.1975" stop-color="#FFB666"/>
<stop offset="0.95505" stop-color="#FF0E65"/>
</linearGradient>
</defs>
</svg>
