<svg width="313" height="320" viewBox="0 0 313 320" fill="none" xmlns="http://www.w3.org/2000/svg">
<path d="M18.4015 1H294.423C304.163 1 312.058 8.89534 312.058 18.6347V300.791C312.058 310.53 304.163 318.425 294.423 318.425H18.4014C8.66205 318.425 0.766728 310.53 0.766728 300.791V18.6347C0.766728 8.89532 8.66207 1 18.4015 1Z" fill="#20242B"/>
<path d="M18.4015 1H294.423C304.163 1 312.058 8.89534 312.058 18.6347V300.791C312.058 310.53 304.163 318.425 294.423 318.425H18.4014C8.66205 318.425 0.766728 310.53 0.766728 300.791V18.6347C0.766728 8.89532 8.66207 1 18.4015 1Z" stroke="#4B535C" stroke-width="1.53346"/>
<rect x="101.315" y="37.0361" width="110.195" height="110.195" rx="55.0975" fill="#EDE8FF" fill-opacity="0.12"/>
<path d="M154.499 79.6984C154.499 85.5095 149.788 90.2204 143.977 90.2204C138.166 90.2204 133.455 85.5095 133.455 79.6984C133.455 77.3932 134.196 75.2612 135.454 73.5276C135.58 73.3534 135.831 73.3386 135.983 73.4908L143.093 80.5998C143.257 80.7642 143.523 80.7642 143.688 80.5998L144.878 79.4094C145.043 79.245 145.043 78.9785 144.878 78.8142L137.769 71.7051C137.617 71.5529 137.632 71.3015 137.806 71.1751C139.54 69.9177 141.672 69.1763 143.977 69.1763C149.788 69.1763 154.499 73.8872 154.499 79.6984Z" fill="url(#paint0_linear_444_709)"/>
<path d="M179.37 79.6984C179.37 85.5095 174.659 90.2204 168.848 90.2204C163.036 90.2204 158.325 85.5095 158.325 79.6984C158.325 77.3526 159.093 75.1861 160.391 73.4364C160.518 73.2647 160.767 73.2514 160.919 73.4025L168.116 80.5998C168.28 80.7642 168.547 80.7642 168.711 80.5998L169.902 79.4094C170.066 79.245 170.066 78.9785 169.902 78.8142L162.729 71.6411C162.575 71.4879 162.592 71.2344 162.768 71.1091C164.485 69.8918 166.583 69.1763 168.848 69.1763C174.659 69.1763 179.37 73.8872 179.37 79.6984Z" fill="url(#paint1_linear_444_709)"/>
<path d="M143.977 115.091C149.788 115.091 154.499 110.38 154.499 104.569C154.499 102.263 153.758 100.131 152.501 98.3976C152.374 98.2234 152.123 98.2086 151.971 98.3608L144.708 105.623C144.544 105.788 144.277 105.788 144.113 105.623L142.923 104.433C142.758 104.268 142.758 104.002 142.923 103.838L150.185 96.5752C150.337 96.423 150.322 96.1716 150.148 96.0452C148.415 94.788 146.282 94.0466 143.977 94.0466C138.166 94.0466 133.455 98.7575 133.455 104.569C133.455 110.38 138.166 115.091 143.977 115.091Z" fill="url(#paint2_linear_444_709)"/>
<path d="M179.37 104.569C179.37 110.38 174.659 115.091 168.848 115.091C163.036 115.091 158.325 110.38 158.325 104.569C158.325 98.7575 163.036 94.0466 168.848 94.0466C171.193 94.0466 173.36 94.8143 175.11 96.1121C175.281 96.2395 175.295 96.4888 175.144 96.64L167.946 103.838C167.782 104.002 167.782 104.268 167.946 104.433L169.136 105.623C169.301 105.788 169.567 105.788 169.732 105.623L176.905 98.4499C177.058 98.2967 177.312 98.3129 177.437 98.4897C178.654 100.206 179.37 102.304 179.37 104.569Z" fill="url(#paint3_linear_444_709)"/>
<path d="M107.283 202.074C103.823 202.074 100.916 200.712 98.8182 198.468L100.548 196.443C102.315 198.247 104.78 199.351 107.32 199.351C110.485 199.351 112.362 197.768 112.362 195.45C112.362 192.984 110.595 192.211 108.35 191.217L104.854 189.672C102.609 188.715 99.9959 187.022 99.9959 183.452C99.9959 179.772 103.198 177.048 107.577 177.048C110.522 177.048 113.024 178.263 114.717 179.956L113.024 182.017C111.552 180.618 109.675 179.772 107.577 179.772C104.891 179.772 103.124 181.133 103.124 183.268C103.124 185.586 105.222 186.47 107.099 187.243L110.558 188.752C113.355 189.929 115.527 191.622 115.527 195.192C115.527 199.02 112.362 202.074 107.283 202.074ZM122.82 201.633L117.815 183.746H120.943L123.556 194.125C123.961 195.744 124.329 197.29 124.624 199.204H124.771C125.139 197.29 125.47 195.744 125.875 194.125L128.562 183.746H131.837L134.56 194.125C134.965 195.744 135.37 197.29 135.738 199.204H135.885C136.253 197.29 136.548 195.744 136.953 194.125L139.566 183.746H142.473L137.652 201.633H133.788L131.359 192.027C130.917 190.371 130.586 188.825 130.181 186.727H130.034C129.702 188.825 129.371 190.408 128.893 192.027L126.501 201.633H122.82ZM153.435 202.074C148.651 202.074 144.897 198.615 144.897 192.689C144.897 186.875 148.835 183.305 152.92 183.305C157.484 183.305 160.097 186.543 160.097 191.696C160.097 192.358 160.06 192.91 159.95 193.499H147.915C148.173 197.179 150.418 199.608 153.804 199.608C155.533 199.608 157.042 199.13 158.293 198.284L159.361 200.234C157.815 201.338 155.901 202.074 153.435 202.074ZM147.915 191.144H157.373C157.373 187.611 155.717 185.734 152.994 185.734C150.491 185.734 148.283 187.721 147.915 191.144ZM171.693 202.074C166.909 202.074 163.155 198.615 163.155 192.689C163.155 186.875 167.093 183.305 171.178 183.305C175.742 183.305 178.355 186.543 178.355 191.696C178.355 192.358 178.318 192.91 178.207 193.499H166.173C166.43 197.179 168.675 199.608 172.061 199.608C173.791 199.608 175.3 199.13 176.551 198.284L177.618 200.234C176.073 201.338 174.159 202.074 171.693 202.074ZM166.173 191.144H175.631C175.631 187.611 173.975 185.734 171.252 185.734C168.749 185.734 166.541 187.721 166.173 191.144ZM182.738 209.177V183.746H185.24L185.498 185.807H185.608C187.227 184.446 189.252 183.305 191.313 183.305C195.913 183.305 198.416 186.875 198.416 192.432C198.416 198.504 194.735 202.074 190.65 202.074C189.031 202.074 187.338 201.301 185.719 200.013L185.792 203.141V209.177H182.738ZM190.135 199.498C193.079 199.498 195.251 196.848 195.251 192.432C195.251 188.494 193.889 185.881 190.54 185.881C189.031 185.881 187.522 186.691 185.792 188.31V197.658C187.412 199.02 188.957 199.498 190.135 199.498ZM207.826 202.074C205.213 202.074 202.82 201.117 201.164 199.498L202.563 197.731C204.109 199.02 205.728 199.682 207.936 199.682C210.291 199.682 211.432 198.468 211.432 196.922C211.432 195.082 209.445 194.309 207.421 193.573C204.734 192.616 202.158 191.328 202.158 188.384C202.158 185.513 204.44 183.305 208.341 183.305C210.586 183.305 212.5 184.151 213.898 185.329L212.5 187.095C211.248 186.175 209.96 185.66 208.378 185.66C206.096 185.66 205.102 186.911 205.102 188.236C205.102 189.856 206.648 190.518 208.893 191.291C211.69 192.285 214.377 193.499 214.377 196.738C214.377 199.645 212.058 202.074 207.826 202.074Z" fill="white"/>
<path d="M87.996 246.332C86.6057 246.332 85.3789 245.997 84.3157 245.326C83.2525 244.639 82.4183 243.674 81.8131 242.431C81.2243 241.172 80.9299 239.675 80.9299 237.941C80.9299 236.207 81.2243 234.727 81.8131 233.5C82.4183 232.273 83.2525 231.333 84.3157 230.679C85.3789 230.024 86.6057 229.697 87.996 229.697C89.4027 229.697 90.6377 230.024 91.7008 230.679C92.764 231.333 93.5901 232.273 94.1789 233.5C94.7841 234.727 95.0867 236.207 95.0867 237.941C95.0867 239.675 94.7841 241.172 94.1789 242.431C93.5901 243.674 92.764 244.639 91.7008 245.326C90.6377 245.997 89.4027 246.332 87.996 246.332ZM87.996 243.854C89.2555 243.854 90.2614 243.322 91.0139 242.259C91.7663 241.18 92.1425 239.74 92.1425 237.941C92.1425 236.142 91.7663 234.735 91.0139 233.721C90.2614 232.691 89.2555 232.175 87.996 232.175C86.7365 232.175 85.7306 232.691 84.9782 233.721C84.2258 234.735 83.8496 236.142 83.8496 237.941C83.8496 239.74 84.2258 241.18 84.9782 242.259C85.7306 243.322 86.7365 243.854 87.996 243.854ZM98.0513 250.798V233.991H100.382L100.578 235.267H100.677C101.184 234.841 101.748 234.473 102.369 234.163C103.007 233.852 103.653 233.696 104.308 233.696C105.813 233.696 106.974 234.253 107.792 235.365C108.626 236.477 109.043 237.966 109.043 239.83C109.043 241.204 108.798 242.382 108.307 243.363C107.816 244.328 107.178 245.064 106.393 245.572C105.624 246.079 104.79 246.332 103.891 246.332C103.367 246.332 102.844 246.218 102.32 245.989C101.797 245.743 101.29 245.416 100.799 245.007L100.873 247.019V250.798H98.0513ZM103.302 244.001C104.103 244.001 104.774 243.65 105.314 242.946C105.853 242.243 106.123 241.212 106.123 239.855C106.123 238.644 105.919 237.704 105.51 237.033C105.101 236.363 104.439 236.027 103.523 236.027C102.672 236.027 101.789 236.477 100.873 237.377V242.995C101.314 243.355 101.74 243.617 102.149 243.78C102.558 243.928 102.942 244.001 103.302 244.001ZM115.594 246.332C114.203 246.332 113.214 245.931 112.625 245.13C112.053 244.312 111.766 243.257 111.766 241.965V236.224H110.049V234.114L111.914 233.991L112.257 230.703H114.612V233.991H117.679V236.224H114.612V241.965C114.612 243.372 115.177 244.075 116.305 244.075C116.518 244.075 116.739 244.05 116.968 244.001C117.197 243.936 117.393 243.87 117.557 243.805L118.047 245.891C117.72 246.005 117.344 246.103 116.919 246.185C116.51 246.283 116.068 246.332 115.594 246.332ZM120.214 246.038V233.991H123.036V246.038H120.214ZM121.638 231.881C121.13 231.881 120.722 231.734 120.411 231.439C120.1 231.145 119.945 230.752 119.945 230.262C119.945 229.787 120.1 229.403 120.411 229.108C120.722 228.814 121.13 228.667 121.638 228.667C122.145 228.667 122.554 228.814 122.864 229.108C123.175 229.403 123.33 229.787 123.33 230.262C123.33 230.752 123.175 231.145 122.864 231.439C122.554 231.734 122.145 231.881 121.638 231.881ZM126.636 246.038V233.991H128.967L129.163 235.635H129.261C129.768 235.095 130.316 234.637 130.905 234.261C131.51 233.885 132.189 233.696 132.941 233.696C133.825 233.696 134.528 233.893 135.051 234.285C135.591 234.662 136 235.185 136.278 235.856C136.851 235.234 137.448 234.719 138.069 234.31C138.707 233.901 139.402 233.696 140.155 233.696C141.431 233.696 142.371 234.114 142.976 234.948C143.582 235.782 143.884 236.96 143.884 238.481V246.038H141.038V238.849C141.038 237.851 140.883 237.148 140.572 236.739C140.277 236.33 139.819 236.125 139.198 236.125C138.445 236.125 137.603 236.624 136.671 237.622V246.038H133.849V238.849C133.849 237.851 133.694 237.148 133.383 236.739C133.089 236.33 132.622 236.125 131.985 236.125C131.232 236.125 130.39 236.624 129.457 237.622V246.038H126.636ZM147.314 246.038V233.991H150.135V246.038H147.314ZM148.737 231.881C148.229 231.881 147.821 231.734 147.51 231.439C147.199 231.145 147.044 230.752 147.044 230.262C147.044 229.787 147.199 229.403 147.51 229.108C147.821 228.814 148.229 228.667 148.737 228.667C149.244 228.667 149.653 228.814 149.963 229.108C150.274 229.403 150.429 229.787 150.429 230.262C150.429 230.752 150.274 231.145 149.963 231.439C149.653 231.734 149.244 231.881 148.737 231.881ZM152.778 246.038V244.517L158.47 236.224H153.416V233.991H162.003V235.488L156.336 243.78H162.2V246.038H152.778ZM169.526 246.332C168.413 246.332 167.407 246.087 166.508 245.596C165.608 245.089 164.897 244.369 164.373 243.437C163.85 242.488 163.588 241.351 163.588 240.027C163.588 238.718 163.85 237.589 164.373 236.641C164.913 235.692 165.608 234.964 166.459 234.457C167.309 233.95 168.201 233.696 169.133 233.696C170.229 233.696 171.145 233.942 171.881 234.433C172.617 234.907 173.173 235.578 173.549 236.444C173.926 237.295 174.114 238.285 174.114 239.413C174.114 240.002 174.073 240.46 173.991 240.787H166.336C166.467 241.85 166.851 242.676 167.489 243.265C168.127 243.854 168.929 244.149 169.894 244.149C170.417 244.149 170.9 244.075 171.341 243.928C171.799 243.764 172.249 243.543 172.691 243.265L173.648 245.032C173.075 245.408 172.437 245.719 171.734 245.964C171.03 246.209 170.294 246.332 169.526 246.332ZM166.311 238.873H171.66C171.66 237.941 171.456 237.213 171.047 236.69C170.638 236.15 170.024 235.88 169.207 235.88C168.503 235.88 167.874 236.142 167.317 236.665C166.778 237.172 166.442 237.908 166.311 238.873ZM182.53 250.994C182.203 250.994 181.917 250.969 181.671 250.92C181.426 250.871 181.189 250.814 180.96 250.748L181.475 248.54C181.59 248.573 181.72 248.606 181.868 248.638C182.031 248.688 182.187 248.712 182.334 248.712C182.972 248.712 183.479 248.516 183.855 248.123C184.248 247.747 184.542 247.256 184.738 246.651L184.959 245.891L180.224 233.991H183.094L185.18 239.904C185.36 240.427 185.532 240.983 185.695 241.572C185.875 242.145 186.055 242.717 186.235 243.29H186.333C186.48 242.734 186.627 242.169 186.775 241.597C186.938 241.008 187.094 240.444 187.241 239.904L189.056 233.991H191.78L187.413 246.577C186.906 247.935 186.292 249.006 185.572 249.792C184.853 250.593 183.839 250.994 182.53 250.994ZM198.656 246.332C197.658 246.332 196.726 246.087 195.859 245.596C194.992 245.089 194.289 244.369 193.749 243.437C193.209 242.488 192.939 241.351 192.939 240.027C192.939 238.685 193.209 237.549 193.749 236.616C194.289 235.667 194.992 234.948 195.859 234.457C196.726 233.95 197.658 233.696 198.656 233.696C199.67 233.696 200.611 233.95 201.478 234.457C202.345 234.948 203.048 235.667 203.588 236.616C204.127 237.549 204.397 238.685 204.397 240.027C204.397 241.351 204.127 242.488 203.588 243.437C203.048 244.369 202.345 245.089 201.478 245.596C200.611 246.087 199.67 246.332 198.656 246.332ZM198.656 244.026C199.539 244.026 200.235 243.658 200.742 242.922C201.249 242.186 201.502 241.221 201.502 240.027C201.502 238.816 201.249 237.843 200.742 237.107C200.235 236.371 199.539 236.003 198.656 236.003C197.773 236.003 197.078 236.371 196.571 237.107C196.08 237.843 195.835 238.816 195.835 240.027C195.835 241.221 196.08 242.186 196.571 242.922C197.078 243.658 197.773 244.026 198.656 244.026ZM210.772 246.332C209.48 246.332 208.54 245.915 207.951 245.081C207.362 244.247 207.067 243.069 207.067 241.548V233.991H209.889V241.18C209.889 242.178 210.036 242.881 210.331 243.29C210.625 243.699 211.099 243.903 211.754 243.903C212.277 243.903 212.735 243.772 213.128 243.511C213.537 243.249 213.97 242.824 214.428 242.235V233.991H217.25V246.038H214.943L214.722 244.271H214.649C214.125 244.893 213.553 245.392 212.931 245.768C212.31 246.144 211.59 246.332 210.772 246.332ZM220.824 246.038V233.991H223.154L223.351 236.125H223.449C223.874 235.34 224.389 234.743 224.995 234.334C225.6 233.909 226.221 233.696 226.859 233.696C227.432 233.696 227.89 233.778 228.233 233.942L227.742 236.395C227.53 236.33 227.334 236.281 227.154 236.248C226.974 236.215 226.753 236.199 226.491 236.199C226.017 236.199 225.518 236.387 224.995 236.763C224.471 237.123 224.021 237.761 223.645 238.677V246.038H220.824ZM67.2025 275.038V257.716H70.024V262.181L69.9259 264.512C70.4329 264.038 70.9973 263.621 71.6188 263.261C72.2404 262.885 72.9601 262.696 73.7779 262.696C75.0701 262.696 76.0106 263.114 76.5995 263.948C77.1883 264.782 77.4828 265.96 77.4828 267.481V275.038H74.6612V267.849C74.6612 266.851 74.514 266.148 74.2196 265.739C73.9251 265.33 73.4426 265.125 72.772 265.125C72.2486 265.125 71.7824 265.256 71.3735 265.518C70.9809 265.763 70.5311 266.131 70.024 266.622V275.038H67.2025ZM81.6934 279.994C81.3663 279.994 81.08 279.969 80.8347 279.92C80.5893 279.871 80.3522 279.814 80.1232 279.748L80.6384 277.54C80.7529 277.573 80.8838 277.606 81.031 277.638C81.1945 277.688 81.3499 277.712 81.4971 277.712C82.1351 277.712 82.6421 277.516 83.0183 277.123C83.4109 276.747 83.7053 276.256 83.9016 275.651L84.1224 274.891L79.3871 262.991H82.2577L84.3432 268.904C84.5232 269.427 84.6949 269.983 84.8585 270.572C85.0384 271.145 85.2183 271.717 85.3983 272.29H85.4964C85.6436 271.734 85.7908 271.169 85.938 270.597C86.1016 270.008 86.257 269.444 86.4042 268.904L88.2198 262.991H90.9432L86.576 275.577C86.0689 276.935 85.4555 278.006 84.7358 278.792C84.0161 279.593 83.002 279.994 81.6934 279.994ZM93.0316 279.798V262.991H95.3625L95.5587 264.267H95.6569C96.1639 263.841 96.7282 263.473 97.3498 263.163C97.9877 262.852 98.6338 262.696 99.2881 262.696C100.793 262.696 101.954 263.253 102.772 264.365C103.606 265.477 104.023 266.966 104.023 268.83C104.023 270.204 103.778 271.382 103.287 272.363C102.797 273.328 102.159 274.064 101.374 274.572C100.605 275.079 99.7706 275.332 98.871 275.332C98.3476 275.332 97.8242 275.218 97.3007 274.989C96.7773 274.743 96.2703 274.416 95.7796 274.007L95.8532 276.019V279.798H93.0316ZM98.2822 273.001C99.0836 273.001 99.7543 272.65 100.294 271.946C100.834 271.243 101.104 270.212 101.104 268.855C101.104 267.644 100.899 266.704 100.49 266.033C100.081 265.363 99.419 265.027 98.503 265.027C97.6524 265.027 96.7691 265.477 95.8532 266.377V271.995C96.2948 272.355 96.7201 272.617 97.129 272.78C97.5379 272.928 97.9223 273.001 98.2822 273.001ZM112.033 275.332C110.921 275.332 109.915 275.087 109.015 274.596C108.116 274.089 107.404 273.369 106.881 272.437C106.357 271.488 106.095 270.351 106.095 269.027C106.095 267.718 106.357 266.589 106.881 265.641C107.42 264.692 108.116 263.964 108.966 263.457C109.817 262.95 110.708 262.696 111.64 262.696C112.736 262.696 113.652 262.942 114.388 263.433C115.124 263.907 115.681 264.578 116.057 265.444C116.433 266.295 116.621 267.285 116.621 268.413C116.621 269.002 116.58 269.46 116.498 269.787H108.843C108.974 270.85 109.359 271.676 109.997 272.265C110.635 272.854 111.436 273.149 112.401 273.149C112.924 273.149 113.407 273.075 113.849 272.928C114.307 272.764 114.756 272.543 115.198 272.265L116.155 274.032C115.582 274.408 114.945 274.719 114.241 274.964C113.538 275.209 112.802 275.332 112.033 275.332ZM108.819 267.873H114.168C114.168 266.941 113.963 266.213 113.554 265.69C113.145 265.15 112.532 264.88 111.714 264.88C111.011 264.88 110.381 265.142 109.825 265.665C109.285 266.172 108.95 266.908 108.819 267.873ZM119.316 275.038V262.991H121.647L121.843 265.125H121.941C122.367 264.34 122.882 263.743 123.487 263.334C124.092 262.909 124.714 262.696 125.352 262.696C125.924 262.696 126.382 262.778 126.726 262.942L126.235 265.395C126.022 265.33 125.826 265.281 125.646 265.248C125.466 265.215 125.245 265.199 124.984 265.199C124.509 265.199 124.01 265.387 123.487 265.763C122.964 266.123 122.514 266.761 122.138 267.677V275.038H119.316ZM128.469 279.798V262.991H130.8L130.996 264.267H131.094C131.601 263.841 132.165 263.473 132.787 263.163C133.425 262.852 134.071 262.696 134.725 262.696C136.23 262.696 137.391 263.253 138.209 264.365C139.044 265.477 139.461 266.966 139.461 268.83C139.461 270.204 139.215 271.382 138.725 272.363C138.234 273.328 137.596 274.064 136.811 274.572C136.042 275.079 135.208 275.332 134.308 275.332C133.785 275.332 133.261 275.218 132.738 274.989C132.215 274.743 131.707 274.416 131.217 274.007L131.29 276.019V279.798H128.469ZM133.719 273.001C134.521 273.001 135.191 272.65 135.731 271.946C136.271 271.243 136.541 270.212 136.541 268.855C136.541 267.644 136.336 266.704 135.928 266.033C135.519 265.363 134.856 265.027 133.94 265.027C133.09 265.027 132.206 265.477 131.29 266.377V271.995C131.732 272.355 132.157 272.617 132.566 272.78C132.975 272.928 133.359 273.001 133.719 273.001ZM144.95 275.332C143.903 275.332 143.044 275.005 142.374 274.351C141.72 273.696 141.392 272.846 141.392 271.799C141.392 270.507 141.957 269.509 143.085 268.806C144.214 268.086 146.013 267.595 148.483 267.334C148.467 266.696 148.295 266.148 147.968 265.69C147.657 265.215 147.093 264.978 146.275 264.978C145.686 264.978 145.105 265.093 144.533 265.322C143.977 265.551 143.429 265.829 142.889 266.156L141.859 264.267C142.529 263.841 143.282 263.473 144.116 263.163C144.966 262.852 145.866 262.696 146.815 262.696C148.319 262.696 149.44 263.146 150.176 264.046C150.928 264.929 151.305 266.213 151.305 267.898V275.038H148.974L148.777 273.713H148.679C148.14 274.171 147.559 274.555 146.937 274.866C146.332 275.177 145.67 275.332 144.95 275.332ZM145.858 273.124C146.348 273.124 146.79 273.009 147.183 272.78C147.592 272.535 148.025 272.208 148.483 271.799V269.1C146.847 269.313 145.711 269.632 145.073 270.057C144.435 270.466 144.116 270.973 144.116 271.578C144.116 272.118 144.279 272.511 144.606 272.756C144.934 273.001 145.351 273.124 145.858 273.124ZM154.681 275.038V262.991H157.012L157.208 265.125H157.307C157.732 264.34 158.247 263.743 158.852 263.334C159.457 262.909 160.079 262.696 160.717 262.696C161.289 262.696 161.747 262.778 162.091 262.942L161.6 265.395C161.388 265.33 161.191 265.281 161.011 265.248C160.831 265.215 160.611 265.199 160.349 265.199C159.875 265.199 159.376 265.387 158.852 265.763C158.329 266.123 157.879 266.761 157.503 267.677V275.038H154.681ZM166.107 275.332C165.06 275.332 164.201 275.005 163.531 274.351C162.876 273.696 162.549 272.846 162.549 271.799C162.549 270.507 163.114 269.509 164.242 268.806C165.371 268.086 167.17 267.595 169.64 267.334C169.624 266.696 169.452 266.148 169.125 265.69C168.814 265.215 168.25 264.978 167.432 264.978C166.843 264.978 166.262 265.093 165.69 265.322C165.134 265.551 164.586 265.829 164.046 266.156L163.015 264.267C163.686 263.841 164.438 263.473 165.273 263.163C166.123 262.852 167.023 262.696 167.972 262.696C169.476 262.696 170.597 263.146 171.333 264.046C172.085 264.929 172.462 266.213 172.462 267.898V275.038H170.131L169.934 273.713H169.836C169.296 274.171 168.716 274.555 168.094 274.866C167.489 275.177 166.827 275.332 166.107 275.332ZM167.015 273.124C167.505 273.124 167.947 273.009 168.34 272.78C168.749 272.535 169.182 272.208 169.64 271.799V269.1C168.004 269.313 166.867 269.632 166.23 270.057C165.592 270.466 165.273 270.973 165.273 271.578C165.273 272.118 165.436 272.511 165.763 272.756C166.091 273.001 166.508 273.124 167.015 273.124ZM175.838 275.038V262.991H178.169L178.365 264.635H178.463C178.971 264.095 179.518 263.637 180.107 263.261C180.713 262.885 181.391 262.696 182.144 262.696C183.027 262.696 183.73 262.893 184.254 263.285C184.794 263.662 185.202 264.185 185.481 264.856C186.053 264.234 186.65 263.719 187.272 263.31C187.91 262.901 188.605 262.696 189.357 262.696C190.633 262.696 191.573 263.114 192.179 263.948C192.784 264.782 193.086 265.96 193.086 267.481V275.038H190.24V267.849C190.24 266.851 190.085 266.148 189.774 265.739C189.48 265.33 189.022 265.125 188.4 265.125C187.648 265.125 186.805 265.624 185.873 266.622V275.038H183.052V267.849C183.052 266.851 182.896 266.148 182.585 265.739C182.291 265.33 181.825 265.125 181.187 265.125C180.434 265.125 179.592 265.624 178.66 266.622V275.038H175.838ZM201.668 275.332C200.556 275.332 199.55 275.087 198.65 274.596C197.751 274.089 197.039 273.369 196.516 272.437C195.992 271.488 195.731 270.351 195.731 269.027C195.731 267.718 195.992 266.589 196.516 265.641C197.056 264.692 197.751 263.964 198.601 263.457C199.452 262.95 200.343 262.696 201.276 262.696C202.372 262.696 203.288 262.942 204.024 263.433C204.76 263.907 205.316 264.578 205.692 265.444C206.068 266.295 206.256 267.285 206.256 268.413C206.256 269.002 206.215 269.46 206.134 269.787H198.479C198.61 270.85 198.994 271.676 199.632 272.265C200.27 272.854 201.071 273.149 202.036 273.149C202.56 273.149 203.042 273.075 203.484 272.928C203.942 272.764 204.392 272.543 204.833 272.265L205.79 274.032C205.218 274.408 204.58 274.719 203.876 274.964C203.173 275.209 202.437 275.332 201.668 275.332ZM198.454 267.873H203.803C203.803 266.941 203.598 266.213 203.189 265.69C202.781 265.15 202.167 264.88 201.349 264.88C200.646 264.88 200.016 265.142 199.46 265.665C198.92 266.172 198.585 266.908 198.454 267.873ZM212.956 275.332C211.566 275.332 210.576 274.931 209.987 274.13C209.415 273.312 209.129 272.257 209.129 270.965V265.224H207.411V263.114L209.276 262.991L209.619 259.703H211.975V262.991H215.042V265.224H211.975V270.965C211.975 272.372 212.539 273.075 213.668 273.075C213.88 273.075 214.101 273.05 214.33 273.001C214.559 272.936 214.755 272.87 214.919 272.805L215.41 274.891C215.083 275.005 214.706 275.103 214.281 275.185C213.872 275.283 213.431 275.332 212.956 275.332ZM222.346 275.332C221.234 275.332 220.228 275.087 219.328 274.596C218.428 274.089 217.717 273.369 217.194 272.437C216.67 271.488 216.408 270.351 216.408 269.027C216.408 267.718 216.67 266.589 217.194 265.641C217.733 264.692 218.428 263.964 219.279 263.457C220.13 262.95 221.021 262.696 221.953 262.696C223.049 262.696 223.965 262.942 224.701 263.433C225.437 263.907 225.994 264.578 226.37 265.444C226.746 266.295 226.934 267.285 226.934 268.413C226.934 269.002 226.893 269.46 226.811 269.787H219.156C219.287 270.85 219.672 271.676 220.31 272.265C220.947 272.854 221.749 273.149 222.714 273.149C223.237 273.149 223.72 273.075 224.162 272.928C224.62 272.764 225.069 272.543 225.511 272.265L226.468 274.032C225.895 274.408 225.257 274.719 224.554 274.964C223.851 275.209 223.115 275.332 222.346 275.332ZM219.132 267.873H224.481C224.481 266.941 224.276 266.213 223.867 265.69C223.458 265.15 222.845 264.88 222.027 264.88C221.324 264.88 220.694 265.142 220.138 265.665C219.598 266.172 219.263 266.908 219.132 267.873ZM229.629 275.038V262.991H231.96L232.156 265.125H232.254C232.679 264.34 233.195 263.743 233.8 263.334C234.405 262.909 235.027 262.696 235.665 262.696C236.237 262.696 236.695 262.778 237.039 262.942L236.548 265.395C236.335 265.33 236.139 265.281 235.959 265.248C235.779 265.215 235.558 265.199 235.297 265.199C234.822 265.199 234.323 265.387 233.8 265.763C233.276 266.123 232.827 266.761 232.45 267.677V275.038H229.629ZM241.999 275.332C241.181 275.332 240.364 275.177 239.546 274.866C238.728 274.539 238.025 274.138 237.436 273.664L238.761 271.848C239.3 272.257 239.84 272.584 240.38 272.83C240.92 273.075 241.492 273.198 242.097 273.198C242.752 273.198 243.234 273.059 243.545 272.78C243.856 272.502 244.011 272.159 244.011 271.75C244.011 271.406 243.88 271.128 243.619 270.916C243.373 270.687 243.054 270.491 242.662 270.327C242.269 270.147 241.86 269.975 241.435 269.812C240.912 269.615 240.388 269.378 239.865 269.1C239.358 268.806 238.941 268.438 238.613 267.996C238.286 267.538 238.123 266.974 238.123 266.303C238.123 265.24 238.515 264.373 239.3 263.702C240.086 263.032 241.149 262.696 242.49 262.696C243.341 262.696 244.101 262.844 244.772 263.138C245.442 263.433 246.023 263.768 246.514 264.144L245.213 265.862C244.788 265.551 244.355 265.305 243.913 265.125C243.488 264.929 243.038 264.831 242.564 264.831C241.958 264.831 241.509 264.962 241.214 265.224C240.92 265.469 240.773 265.78 240.773 266.156C240.773 266.63 241.018 266.99 241.509 267.235C241.999 267.481 242.572 267.718 243.226 267.947C243.782 268.143 244.322 268.389 244.845 268.683C245.369 268.961 245.802 269.329 246.146 269.787C246.506 270.245 246.686 270.85 246.686 271.603C246.686 272.633 246.285 273.517 245.483 274.253C244.682 274.972 243.52 275.332 241.999 275.332Z" fill="#AEB3BD"/>
<defs>
<linearGradient id="paint0_linear_444_709" x1="155.944" y1="69.1763" x2="155.944" y2="121.125" gradientUnits="userSpaceOnUse">
<stop offset="0.385417" stop-color="#FFCC33"/>
<stop offset="0.71875" stop-color="#FFAD33"/>
</linearGradient>
<linearGradient id="paint1_linear_444_709" x1="155.944" y1="69.1763" x2="155.944" y2="121.125" gradientUnits="userSpaceOnUse">
<stop offset="0.385417" stop-color="#FFCC33"/>
<stop offset="0.71875" stop-color="#FFAD33"/>
</linearGradient>
<linearGradient id="paint2_linear_444_709" x1="155.944" y1="69.1763" x2="155.944" y2="121.125" gradientUnits="userSpaceOnUse">
<stop offset="0.385417" stop-color="#FFCC33"/>
<stop offset="0.71875" stop-color="#FFAD33"/>
</linearGradient>
<linearGradient id="paint3_linear_444_709" x1="155.944" y1="69.1763" x2="155.944" y2="121.125" gradientUnits="userSpaceOnUse">
<stop offset="0.385417" stop-color="#FFCC33"/>
<stop offset="0.71875" stop-color="#FFAD33"/>
</linearGradient>
</defs>
</svg>
