<svg width="314" height="320" viewBox="0 0 314 320" fill="none" xmlns="http://www.w3.org/2000/svg">
<path d="M19.1632 1.74549H295.185C304.925 1.74549 312.82 9.64083 312.82 19.3802V301.536C312.82 311.275 304.924 319.171 295.185 319.171H19.1632C9.42377 319.171 1.52845 311.275 1.52845 301.536V19.3802C1.52845 9.64081 9.42379 1.74549 19.1632 1.74549Z" fill="#20242B"/>
<path d="M19.1632 1.74549H295.185C304.925 1.74549 312.82 9.64083 312.82 19.3802V301.536C312.82 311.275 304.924 319.171 295.185 319.171H19.1632C9.42377 319.171 1.52845 311.275 1.52845 301.536V19.3802C1.52845 9.64081 9.42379 1.74549 19.1632 1.74549Z" stroke="#4B535C" stroke-width="1.53346"/>
<rect x="102.077" y="37.7817" width="110.195" height="110.195" rx="55.0975" fill="#EDE8FF" fill-opacity="0.12"/>
<path d="M150.228 74.9405C150.228 74.7047 150.417 74.5134 150.649 74.5134H163.699C163.931 74.5134 164.12 74.7047 164.12 74.9405V85.0672C164.12 85.3031 163.931 85.4943 163.699 85.4943H150.649C150.417 85.4943 150.228 85.3031 150.228 85.0672V74.9405Z" fill="url(#paint0_linear_444_790)"/>
<path d="M147.029 85.4943C147.262 85.4943 147.45 85.3031 147.45 85.0672V74.9405C147.45 74.7047 147.267 74.5134 147.034 74.5134C145.357 74.5134 141.06 74.5134 137.764 74.5134C135.44 74.5134 133.558 76.4257 133.558 78.7846V85.0672C133.558 85.3031 133.747 85.4943 133.979 85.4943H147.029Z" fill="url(#paint1_linear_444_790)"/>
<path d="M133.558 88.7413C133.558 88.5054 133.747 88.3142 133.979 88.3142H147.029C147.262 88.3142 147.45 88.5054 147.45 88.7413V110.818C147.45 111.054 147.267 111.245 147.034 111.245C145.357 111.245 141.06 111.245 137.764 111.245C135.44 111.245 133.558 109.333 133.558 106.974V88.7413Z" fill="url(#paint2_linear_444_790)"/>
<path d="M150.228 88.7413C150.228 88.5054 150.417 88.3142 150.649 88.3142H163.699C163.931 88.3142 164.12 88.5054 164.12 88.7413V110.818C164.12 111.054 163.931 111.245 163.699 111.245H150.649C150.417 111.245 150.228 111.054 150.228 110.818V88.7413Z" fill="url(#paint3_linear_444_790)"/>
<path d="M167.319 88.3142C167.087 88.3142 166.898 88.5054 166.898 88.7413V110.818C166.898 111.054 167.087 111.245 167.319 111.245C170.38 111.245 173.44 111.245 176.501 111.245C178.817 111.245 180.698 109.344 180.709 106.993L180.788 88.7432C180.789 88.5066 180.6 88.3142 180.367 88.3142H167.319Z" fill="url(#paint4_linear_444_790)"/>
<path d="M180.369 85.4943C180.601 85.4943 180.79 85.3031 180.79 85.0672V78.7846C180.79 76.4257 178.908 74.5134 176.584 74.5134C173.289 74.5134 168.991 74.5134 167.314 74.5134C167.082 74.5134 166.898 74.7047 166.898 74.9405V85.0672C166.898 85.3031 167.087 85.4943 167.319 85.4943H180.369Z" fill="url(#paint5_linear_444_790)"/>
<path d="M115.984 202.378V180.848H108.697V178.235H126.399V180.848H119.075V202.378H115.984ZM131.842 202.82C128.861 202.82 126.616 200.98 126.616 197.741C126.616 193.766 129.928 191.853 137.583 191.006C137.546 188.761 136.81 186.59 133.903 186.59C131.842 186.59 129.965 187.51 128.566 188.43L127.389 186.369C129.045 185.265 131.547 184.05 134.418 184.05C138.761 184.05 140.638 186.958 140.638 191.374V202.378H138.135L137.841 200.244H137.73C136.037 201.679 134.087 202.82 131.842 202.82ZM132.688 200.317C134.418 200.317 135.853 199.544 137.583 198.035V193.177C131.547 193.877 129.597 195.238 129.597 197.557C129.597 199.544 130.959 200.317 132.688 200.317ZM154.178 202.82C152.522 202.82 150.681 201.973 149.099 200.538H148.989L148.694 202.378H146.265V176.174H149.32V183.314L149.209 186.516C150.865 185.118 152.853 184.05 154.84 184.05C159.441 184.05 161.943 187.62 161.943 193.141C161.943 199.25 158.263 202.82 154.178 202.82ZM153.662 200.244C156.607 200.244 158.778 197.594 158.778 193.177C158.778 189.24 157.416 186.627 154.067 186.627C152.558 186.627 151.013 187.436 149.32 189.056V198.403C150.865 199.765 152.485 200.244 153.662 200.244ZM169.845 202.82C167.563 202.82 166.643 201.348 166.643 198.771V176.174H169.698V198.992C169.698 199.949 170.103 200.28 170.581 200.28C170.765 200.28 170.912 200.28 171.207 200.207L171.612 202.489C171.17 202.709 170.618 202.82 169.845 202.82ZM183.237 202.82C178.453 202.82 174.699 199.36 174.699 193.435C174.699 187.62 178.637 184.05 182.722 184.05C187.285 184.05 189.898 187.289 189.898 192.441C189.898 193.104 189.862 193.656 189.751 194.245H177.717C177.974 197.925 180.219 200.354 183.605 200.354C185.335 200.354 186.844 199.876 188.095 199.029L189.162 200.98C187.617 202.084 185.703 202.82 183.237 202.82ZM177.717 191.889H187.175C187.175 188.356 185.519 186.479 182.795 186.479C180.293 186.479 178.085 188.467 177.717 191.889ZM198.955 202.82C196.342 202.82 193.95 201.863 192.294 200.244L193.693 198.477C195.238 199.765 196.858 200.428 199.066 200.428C201.421 200.428 202.562 199.213 202.562 197.667C202.562 195.827 200.575 195.054 198.551 194.318C195.864 193.361 193.288 192.073 193.288 189.129C193.288 186.258 195.57 184.05 199.471 184.05C201.716 184.05 203.629 184.897 205.028 186.074L203.629 187.841C202.378 186.921 201.09 186.406 199.507 186.406C197.226 186.406 196.232 187.657 196.232 188.982C196.232 190.601 197.778 191.264 200.023 192.037C202.82 193.03 205.506 194.245 205.506 197.483C205.506 200.391 203.188 202.82 198.955 202.82Z" fill="white"/>
<path d="M51.1214 246.783L46.1162 230.737H49.134L51.3912 238.809C51.6529 239.709 51.8901 240.576 52.1028 241.41C52.3154 242.244 52.5526 243.119 52.8143 244.035H52.9124C53.1905 243.119 53.4277 242.244 53.624 241.41C53.8366 240.576 54.0656 239.709 54.3109 238.809L56.5436 230.737H59.4633L54.4827 246.783H51.1214ZM61.1595 246.783V234.736H63.9811V246.783H61.1595ZM62.5826 232.626C62.0755 232.626 61.6666 232.479 61.3558 232.185C61.045 231.89 60.8897 231.498 60.8897 231.007C60.8897 230.533 61.045 230.148 61.3558 229.854C61.6666 229.559 62.0755 229.412 62.5826 229.412C63.0896 229.412 63.4986 229.559 63.8094 229.854C64.1201 230.148 64.2755 230.533 64.2755 231.007C64.2755 231.498 64.1201 231.89 63.8094 232.185C63.4986 232.479 63.0896 232.626 62.5826 232.626ZM70.9422 247.078C70.1244 247.078 69.3065 246.922 68.4887 246.611C67.6708 246.284 66.9675 245.884 66.3787 245.409L67.7036 243.594C68.2433 244.003 68.7831 244.33 69.3229 244.575C69.8627 244.82 70.4352 244.943 71.0404 244.943C71.6946 244.943 72.1772 244.804 72.4879 244.526C72.7987 244.248 72.9541 243.904 72.9541 243.495C72.9541 243.152 72.8233 242.874 72.5615 242.661C72.3162 242.432 71.9972 242.236 71.6047 242.072C71.2121 241.893 70.8032 241.721 70.3779 241.557C69.8545 241.361 69.3311 241.124 68.8076 240.846C68.3006 240.551 67.8835 240.183 67.5564 239.742C67.2292 239.284 67.0656 238.719 67.0656 238.049C67.0656 236.985 67.4582 236.119 68.2433 235.448C69.0285 234.777 70.0917 234.442 71.4329 234.442C72.2835 234.442 73.0441 234.589 73.7147 234.884C74.3853 235.178 74.966 235.513 75.4567 235.89L74.1563 237.607C73.7311 237.296 73.2976 237.051 72.856 236.871C72.4307 236.675 71.9809 236.577 71.5065 236.577C70.9013 236.577 70.4515 236.707 70.1571 236.969C69.8627 237.214 69.7155 237.525 69.7155 237.901C69.7155 238.376 69.9608 238.736 70.4515 238.981C70.9422 239.226 71.5147 239.464 72.169 239.693C72.7251 239.889 73.2649 240.134 73.7883 240.429C74.3117 240.707 74.7452 241.075 75.0887 241.533C75.4485 241.991 75.6285 242.596 75.6285 243.348C75.6285 244.379 75.2277 245.262 74.4262 245.998C73.6247 246.718 72.4634 247.078 70.9422 247.078ZM81.7295 247.078C80.4373 247.078 79.4968 246.661 78.9079 245.826C78.3191 244.992 78.0247 243.814 78.0247 242.293V234.736H80.8462V241.925C80.8462 242.923 80.9934 243.626 81.2879 244.035C81.5823 244.444 82.0566 244.649 82.7109 244.649C83.2343 244.649 83.6923 244.518 84.0849 244.256C84.4938 243.994 84.9273 243.569 85.3853 242.98V234.736H88.2068V246.783H85.9005L85.6797 245.017H85.6061C85.0827 245.638 84.5102 246.137 83.8886 246.513C83.267 246.89 82.5473 247.078 81.7295 247.078ZM94.7004 247.078C93.6536 247.078 92.7948 246.75 92.1242 246.096C91.4699 245.442 91.1428 244.591 91.1428 243.545C91.1428 242.252 91.7071 241.255 92.8357 240.551C93.9644 239.832 95.7636 239.341 98.2335 239.079C98.2171 238.441 98.0454 237.893 97.7183 237.435C97.4075 236.961 96.8432 236.724 96.0253 236.724C95.4365 236.724 94.8558 236.838 94.2833 237.067C93.7272 237.296 93.1792 237.574 92.6395 237.901L91.609 236.012C92.2796 235.587 93.032 235.219 93.8662 234.908C94.7168 234.597 95.6164 234.442 96.5651 234.442C98.0699 234.442 99.1904 234.892 99.9264 235.791C100.679 236.675 101.055 237.959 101.055 239.643V246.783H98.7242L98.5279 245.458H98.4298C97.89 245.916 97.3093 246.301 96.6878 246.611C96.0826 246.922 95.4201 247.078 94.7004 247.078ZM95.6082 244.869C96.0989 244.869 96.5406 244.755 96.9331 244.526C97.3421 244.281 97.7755 243.953 98.2335 243.545V240.846C96.5978 241.058 95.461 241.377 94.8231 241.803C94.1852 242.211 93.8662 242.719 93.8662 243.324C93.8662 243.864 94.0298 244.256 94.3569 244.501C94.6841 244.747 95.1012 244.869 95.6082 244.869ZM107.18 247.078C106.182 247.078 105.47 246.775 105.045 246.17C104.636 245.565 104.432 244.739 104.432 243.692V229.461H107.253V243.839C107.253 244.182 107.319 244.428 107.45 244.575C107.58 244.706 107.719 244.771 107.867 244.771C107.932 244.771 107.989 244.771 108.038 244.771C108.104 244.755 108.194 244.739 108.308 244.722L108.676 246.832C108.513 246.898 108.3 246.955 108.038 247.004C107.793 247.053 107.507 247.078 107.18 247.078ZM111.093 246.783V234.736H113.914V246.783H111.093ZM112.516 232.626C112.009 232.626 111.6 232.479 111.289 232.185C110.978 231.89 110.823 231.498 110.823 231.007C110.823 230.533 110.978 230.148 111.289 229.854C111.6 229.559 112.009 229.412 112.516 229.412C113.023 229.412 113.432 229.559 113.742 229.854C114.053 230.148 114.209 230.533 114.209 231.007C114.209 231.498 114.053 231.89 113.742 232.185C113.432 232.479 113.023 232.626 112.516 232.626ZM116.557 246.783V245.262L122.249 236.969H117.195V234.736H125.782V236.233L120.115 244.526H125.979V246.783H116.557ZM133.305 247.078C132.193 247.078 131.187 246.832 130.287 246.342C129.387 245.835 128.676 245.115 128.152 244.182C127.629 243.234 127.367 242.097 127.367 240.772C127.367 239.464 127.629 238.335 128.152 237.386C128.692 236.437 129.387 235.71 130.238 235.203C131.088 234.695 131.98 234.442 132.912 234.442C134.008 234.442 134.924 234.687 135.66 235.178C136.396 235.652 136.952 236.323 137.329 237.19C137.705 238.04 137.893 239.03 137.893 240.159C137.893 240.748 137.852 241.206 137.77 241.533H130.115C130.246 242.596 130.63 243.422 131.268 244.011C131.906 244.6 132.708 244.894 133.673 244.894C134.196 244.894 134.679 244.82 135.12 244.673C135.578 244.51 136.028 244.289 136.47 244.011L137.427 245.777C136.854 246.153 136.216 246.464 135.513 246.71C134.81 246.955 134.074 247.078 133.305 247.078ZM130.091 239.619H135.439C135.439 238.687 135.235 237.959 134.826 237.435C134.417 236.895 133.804 236.626 132.986 236.626C132.282 236.626 131.653 236.887 131.097 237.411C130.557 237.918 130.222 238.654 130.091 239.619ZM148.419 247.078C147.372 247.078 146.514 246.75 145.843 246.096C145.189 245.442 144.862 244.591 144.862 243.545C144.862 242.252 145.426 241.255 146.555 240.551C147.683 239.832 149.482 239.341 151.952 239.079C151.936 238.441 151.764 237.893 151.437 237.435C151.126 236.961 150.562 236.724 149.744 236.724C149.155 236.724 148.575 236.838 148.002 237.067C147.446 237.296 146.898 237.574 146.358 237.901L145.328 236.012C145.998 235.587 146.751 235.219 147.585 234.908C148.436 234.597 149.335 234.442 150.284 234.442C151.789 234.442 152.909 234.892 153.645 235.791C154.398 236.675 154.774 237.959 154.774 239.643V246.783H152.443L152.247 245.458H152.149C151.609 245.916 151.028 246.301 150.407 246.611C149.801 246.922 149.139 247.078 148.419 247.078ZM149.327 244.869C149.818 244.869 150.259 244.755 150.652 244.526C151.061 244.281 151.494 243.953 151.952 243.545V240.846C150.317 241.058 149.18 241.377 148.542 241.803C147.904 242.211 147.585 242.719 147.585 243.324C147.585 243.864 147.749 244.256 148.076 244.501C148.403 244.747 148.82 244.869 149.327 244.869ZM158.151 246.783V234.736H160.481L160.678 236.356H160.776C161.316 235.832 161.904 235.382 162.542 235.006C163.18 234.63 163.908 234.442 164.726 234.442C166.018 234.442 166.959 234.859 167.548 235.693C168.136 236.527 168.431 237.705 168.431 239.226V246.783H165.609V239.594C165.609 238.597 165.462 237.893 165.168 237.484C164.873 237.075 164.391 236.871 163.72 236.871C163.197 236.871 162.73 237.002 162.322 237.264C161.929 237.509 161.479 237.877 160.972 238.368V246.783H158.151ZM176.1 247.078C174.595 247.078 173.393 246.521 172.493 245.409C171.594 244.297 171.144 242.751 171.144 240.772C171.144 239.464 171.381 238.335 171.855 237.386C172.346 236.437 172.984 235.71 173.769 235.203C174.554 234.695 175.38 234.442 176.247 234.442C176.934 234.442 177.515 234.565 177.989 234.81C178.48 235.039 178.954 235.358 179.412 235.767L179.314 233.829V229.461H182.136V246.783H179.805L179.608 245.483H179.51C179.069 245.924 178.553 246.301 177.965 246.611C177.376 246.922 176.754 247.078 176.1 247.078ZM176.787 244.747C177.686 244.747 178.529 244.297 179.314 243.397V237.779C178.905 237.403 178.496 237.141 178.087 236.994C177.678 236.846 177.269 236.773 176.86 236.773C176.092 236.773 175.429 237.124 174.873 237.828C174.333 238.515 174.063 239.488 174.063 240.748C174.063 242.04 174.301 243.029 174.775 243.716C175.249 244.403 175.92 244.747 176.787 244.747ZM195.793 247.078C194.681 247.078 193.675 246.832 192.775 246.342C191.876 245.835 191.164 245.115 190.641 244.182C190.117 243.234 189.856 242.097 189.856 240.772C189.856 239.464 190.117 238.335 190.641 237.386C191.18 236.437 191.876 235.71 192.726 235.203C193.577 234.695 194.468 234.442 195.4 234.442C196.496 234.442 197.412 234.687 198.148 235.178C198.885 235.652 199.441 236.323 199.817 237.19C200.193 238.04 200.381 239.03 200.381 240.159C200.381 240.748 200.34 241.206 200.258 241.533H192.603C192.734 242.596 193.119 243.422 193.757 244.011C194.395 244.6 195.196 244.894 196.161 244.894C196.685 244.894 197.167 244.82 197.609 244.673C198.067 244.51 198.516 244.289 198.958 244.011L199.915 245.777C199.343 246.153 198.705 246.464 198.001 246.71C197.298 246.955 196.562 247.078 195.793 247.078ZM192.579 239.619H197.928C197.928 238.687 197.723 237.959 197.314 237.435C196.905 236.895 196.292 236.626 195.474 236.626C194.771 236.626 194.141 236.887 193.585 237.411C193.045 237.918 192.71 238.654 192.579 239.619ZM201.341 246.783L205.168 240.502L201.586 234.736H204.629L205.978 237.018C206.158 237.345 206.338 237.689 206.518 238.049C206.714 238.392 206.902 238.727 207.082 239.055H207.18C207.328 238.727 207.483 238.392 207.646 238.049C207.81 237.689 207.965 237.345 208.113 237.018L209.266 234.736H212.186L208.628 240.821L212.455 246.783H209.413L207.941 244.403C207.745 244.043 207.54 243.684 207.328 243.324C207.131 242.964 206.927 242.612 206.714 242.269H206.616C206.452 242.612 206.281 242.964 206.101 243.324C205.921 243.667 205.741 244.027 205.561 244.403L204.285 246.783H201.341ZM214.601 251.543V234.736H216.932L217.128 236.012H217.226C217.733 235.587 218.298 235.219 218.919 234.908C219.557 234.597 220.203 234.442 220.857 234.442C222.362 234.442 223.524 234.998 224.341 236.11C225.176 237.223 225.593 238.711 225.593 240.576C225.593 241.95 225.347 243.127 224.857 244.109C224.366 245.074 223.728 245.81 222.943 246.317C222.174 246.824 221.34 247.078 220.44 247.078C219.917 247.078 219.393 246.963 218.87 246.734C218.347 246.489 217.84 246.162 217.349 245.753L217.422 247.765V251.543H214.601ZM219.851 244.747C220.653 244.747 221.324 244.395 221.863 243.692C222.403 242.988 222.673 241.958 222.673 240.6C222.673 239.39 222.469 238.449 222.06 237.779C221.651 237.108 220.988 236.773 220.072 236.773C219.222 236.773 218.338 237.223 217.422 238.122V243.741C217.864 244.101 218.289 244.362 218.698 244.526C219.107 244.673 219.492 244.747 219.851 244.747ZM231.198 247.078C230.2 247.078 229.489 246.775 229.063 246.17C228.654 245.565 228.45 244.739 228.45 243.692V229.461H231.271V243.839C231.271 244.182 231.337 244.428 231.468 244.575C231.599 244.706 231.738 244.771 231.885 244.771C231.95 244.771 232.008 244.771 232.057 244.771C232.122 244.755 232.212 244.739 232.326 244.722L232.695 246.832C232.531 246.898 232.318 246.955 232.057 247.004C231.811 247.053 231.525 247.078 231.198 247.078ZM240.042 247.078C239.045 247.078 238.112 246.832 237.245 246.342C236.379 245.835 235.675 245.115 235.135 244.182C234.596 243.234 234.326 242.097 234.326 240.772C234.326 239.431 234.596 238.294 235.135 237.362C235.675 236.413 236.379 235.693 237.245 235.203C238.112 234.695 239.045 234.442 240.042 234.442C241.057 234.442 241.997 234.695 242.864 235.203C243.731 235.693 244.434 236.413 244.974 237.362C245.514 238.294 245.784 239.431 245.784 240.772C245.784 242.097 245.514 243.234 244.974 244.182C244.434 245.115 243.731 245.835 242.864 246.342C241.997 246.832 241.057 247.078 240.042 247.078ZM240.042 244.771C240.926 244.771 241.621 244.403 242.128 243.667C242.635 242.931 242.889 241.966 242.889 240.772C242.889 239.562 242.635 238.588 242.128 237.852C241.621 237.116 240.926 236.748 240.042 236.748C239.159 236.748 238.464 237.116 237.957 237.852C237.466 238.588 237.221 239.562 237.221 240.772C237.221 241.966 237.466 242.931 237.957 243.667C238.464 244.403 239.159 244.771 240.042 244.771ZM248.577 246.783V234.736H250.907L251.104 236.871H251.202C251.627 236.086 252.142 235.489 252.748 235.08C253.353 234.655 253.974 234.442 254.612 234.442C255.185 234.442 255.643 234.524 255.986 234.687L255.495 237.141C255.283 237.075 255.087 237.026 254.907 236.994C254.727 236.961 254.506 236.945 254.244 236.945C253.77 236.945 253.271 237.133 252.748 237.509C252.224 237.869 251.774 238.507 251.398 239.423V246.783H248.577ZM262.642 247.078C261.53 247.078 260.524 246.832 259.624 246.342C258.725 245.835 258.013 245.115 257.49 244.182C256.966 243.234 256.705 242.097 256.705 240.772C256.705 239.464 256.966 238.335 257.49 237.386C258.029 236.437 258.725 235.71 259.575 235.203C260.426 234.695 261.317 234.442 262.25 234.442C263.345 234.442 264.261 234.687 264.998 235.178C265.734 235.652 266.29 236.323 266.666 237.19C267.042 238.04 267.23 239.03 267.23 240.159C267.23 240.748 267.189 241.206 267.108 241.533H259.453C259.583 242.596 259.968 243.422 260.606 244.011C261.244 244.6 262.045 244.894 263.01 244.894C263.534 244.894 264.016 244.82 264.458 244.673C264.916 244.51 265.366 244.289 265.807 244.011L266.764 245.777C266.192 246.153 265.554 246.464 264.85 246.71C264.147 246.955 263.411 247.078 262.642 247.078ZM259.428 239.619H264.777C264.777 238.687 264.572 237.959 264.163 237.435C263.754 236.895 263.141 236.626 262.323 236.626C261.62 236.626 260.99 236.887 260.434 237.411C259.894 237.918 259.559 238.654 259.428 239.619ZM91.8836 280.739C91.5564 280.739 91.2702 280.715 91.0248 280.666C90.7795 280.617 90.5423 280.559 90.3133 280.494L90.8285 278.286C90.943 278.319 91.0739 278.351 91.2211 278.384C91.3847 278.433 91.5401 278.458 91.6873 278.458C92.3252 278.458 92.8323 278.261 93.2085 277.869C93.601 277.492 93.8955 277.002 94.0917 276.397L94.3126 275.636L89.5772 263.736H92.4479L94.5334 269.649C94.7133 270.173 94.885 270.729 95.0486 271.318C95.2285 271.89 95.4085 272.463 95.5884 273.035H95.6865C95.8337 272.479 95.981 271.915 96.1282 271.342C96.2917 270.753 96.4471 270.189 96.5943 269.649L98.4099 263.736H101.133L96.7661 276.323C96.259 277.681 95.6456 278.752 94.9259 279.537C94.2062 280.339 93.1921 280.739 91.8836 280.739ZM108.01 276.078C107.012 276.078 106.079 275.832 105.213 275.342C104.346 274.835 103.642 274.115 103.103 273.182C102.563 272.234 102.293 271.097 102.293 269.772C102.293 268.431 102.563 267.294 103.103 266.362C103.642 265.413 104.346 264.693 105.213 264.203C106.079 263.695 107.012 263.442 108.01 263.442C109.024 263.442 109.964 263.695 110.831 264.203C111.698 264.693 112.401 265.413 112.941 266.362C113.481 267.294 113.751 268.431 113.751 269.772C113.751 271.097 113.481 272.234 112.941 273.182C112.401 274.115 111.698 274.835 110.831 275.342C109.964 275.832 109.024 276.078 108.01 276.078ZM108.01 273.771C108.893 273.771 109.588 273.403 110.095 272.667C110.602 271.931 110.856 270.966 110.856 269.772C110.856 268.562 110.602 267.588 110.095 266.852C109.588 266.116 108.893 265.748 108.01 265.748C107.126 265.748 106.431 266.116 105.924 266.852C105.433 267.588 105.188 268.562 105.188 269.772C105.188 270.966 105.433 271.931 105.924 272.667C106.431 273.403 107.126 273.771 108.01 273.771ZM120.126 276.078C118.834 276.078 117.893 275.661 117.304 274.826C116.715 273.992 116.421 272.814 116.421 271.293V263.736H119.243V270.925C119.243 271.923 119.39 272.626 119.684 273.035C119.979 273.444 120.453 273.649 121.107 273.649C121.631 273.649 122.089 273.518 122.481 273.256C122.89 272.994 123.324 272.569 123.782 271.98V263.736H126.603V275.783H124.297L124.076 274.017H124.002C123.479 274.638 122.906 275.137 122.285 275.513C121.663 275.89 120.944 276.078 120.126 276.078ZM130.177 275.783V263.736H132.508L132.704 265.871H132.802C133.228 265.086 133.743 264.489 134.348 264.08C134.953 263.655 135.575 263.442 136.213 263.442C136.785 263.442 137.243 263.524 137.587 263.687L137.096 266.141C136.883 266.075 136.687 266.026 136.507 265.994C136.327 265.961 136.106 265.945 135.845 265.945C135.37 265.945 134.871 266.133 134.348 266.509C133.825 266.869 133.375 267.507 132.999 268.423V275.783H130.177ZM144.487 275.783V259.737H147.701L150.547 267.588C150.727 268.095 150.899 268.619 151.062 269.159C151.242 269.682 151.414 270.206 151.578 270.729H151.676C151.856 270.206 152.028 269.682 152.191 269.159C152.355 268.619 152.518 268.095 152.682 267.588L155.454 259.737H158.693V275.783H156.068V268.447C156.068 267.94 156.084 267.392 156.117 266.803C156.166 266.198 156.215 265.593 156.264 264.988C156.329 264.382 156.387 263.835 156.436 263.344H156.338L155.037 267.073L152.412 274.287H150.719L148.069 267.073L146.793 263.344H146.695C146.744 263.835 146.793 264.382 146.842 264.988C146.908 265.593 146.957 266.198 146.99 266.803C147.039 267.392 147.063 267.94 147.063 268.447V275.783H144.487ZM162.769 275.783V259.737H165.615V273.379H172.288V275.783H162.769ZM183.971 276.078C182.466 276.078 181.264 275.521 180.364 274.409C179.464 273.297 179.015 271.751 179.015 269.772C179.015 268.464 179.252 267.335 179.726 266.386C180.217 265.437 180.855 264.71 181.64 264.203C182.425 263.695 183.251 263.442 184.118 263.442C184.805 263.442 185.386 263.565 185.86 263.81C186.351 264.039 186.825 264.358 187.283 264.767L187.185 262.829V258.461H190.006V275.783H187.676L187.479 274.483H187.381C186.94 274.924 186.424 275.301 185.835 275.611C185.247 275.922 184.625 276.078 183.971 276.078ZM184.658 273.747C185.557 273.747 186.4 273.297 187.185 272.397V266.779C186.776 266.403 186.367 266.141 185.958 265.994C185.549 265.846 185.14 265.773 184.731 265.773C183.963 265.773 183.3 266.124 182.744 266.828C182.204 267.515 181.934 268.488 181.934 269.748C181.934 271.04 182.172 272.029 182.646 272.716C183.12 273.403 183.791 273.747 184.658 273.747ZM196.519 276.078C195.473 276.078 194.614 275.75 193.943 275.096C193.289 274.442 192.962 273.591 192.962 272.545C192.962 271.252 193.526 270.255 194.655 269.551C195.783 268.832 197.583 268.341 200.053 268.079C200.036 267.441 199.864 266.893 199.537 266.435C199.227 265.961 198.662 265.724 197.844 265.724C197.256 265.724 196.675 265.838 196.102 266.067C195.546 266.296 194.998 266.574 194.458 266.901L193.428 265.012C194.099 264.587 194.851 264.219 195.685 263.908C196.536 263.597 197.435 263.442 198.384 263.442C199.889 263.442 201.009 263.892 201.745 264.791C202.498 265.675 202.874 266.959 202.874 268.643V275.783H200.543L200.347 274.458H200.249C199.709 274.916 199.128 275.301 198.507 275.611C197.902 275.922 197.239 276.078 196.519 276.078ZM197.427 273.869C197.918 273.869 198.36 273.755 198.752 273.526C199.161 273.281 199.595 272.953 200.053 272.545V269.846C198.417 270.058 197.28 270.377 196.642 270.803C196.004 271.211 195.685 271.719 195.685 272.324C195.685 272.864 195.849 273.256 196.176 273.501C196.503 273.747 196.92 273.869 197.427 273.869ZM210.112 276.078C208.722 276.078 207.732 275.677 207.143 274.875C206.571 274.058 206.284 273.003 206.284 271.71V265.969H204.567V263.859L206.432 263.736L206.775 260.449H209.131V263.736H212.198V265.969H209.131V271.71C209.131 273.117 209.695 273.82 210.824 273.82C211.036 273.82 211.257 273.796 211.486 273.747C211.715 273.681 211.911 273.616 212.075 273.55L212.566 275.636C212.238 275.75 211.862 275.849 211.437 275.93C211.028 276.029 210.586 276.078 210.112 276.078ZM217.125 276.078C216.078 276.078 215.22 275.75 214.549 275.096C213.895 274.442 213.568 273.591 213.568 272.545C213.568 271.252 214.132 270.255 215.261 269.551C216.389 268.832 218.188 268.341 220.658 268.079C220.642 267.441 220.47 266.893 220.143 266.435C219.832 265.961 219.268 265.724 218.45 265.724C217.861 265.724 217.281 265.838 216.708 266.067C216.152 266.296 215.604 266.574 215.064 266.901L214.034 265.012C214.704 264.587 215.457 264.219 216.291 263.908C217.142 263.597 218.041 263.442 218.99 263.442C220.495 263.442 221.615 263.892 222.351 264.791C223.104 265.675 223.48 266.959 223.48 268.643V275.783H221.149L220.953 274.458H220.855C220.315 274.916 219.734 275.301 219.113 275.611C218.507 275.922 217.845 276.078 217.125 276.078ZM218.033 273.869C218.524 273.869 218.965 273.755 219.358 273.526C219.767 273.281 220.2 272.953 220.658 272.545V269.846C219.023 270.058 217.886 270.377 217.248 270.803C216.61 271.211 216.291 271.719 216.291 272.324C216.291 272.864 216.455 273.256 216.782 273.501C217.109 273.747 217.526 273.869 218.033 273.869Z" fill="#AEB3BD"/>
<defs>
<linearGradient id="paint0_linear_444_790" x1="156.692" y1="74.5134" x2="156.692" y2="116.073" gradientUnits="userSpaceOnUse">
<stop offset="0.385417" stop-color="#FFCC33"/>
<stop offset="0.71875" stop-color="#FFAD33"/>
</linearGradient>
<linearGradient id="paint1_linear_444_790" x1="156.692" y1="74.5134" x2="156.692" y2="116.073" gradientUnits="userSpaceOnUse">
<stop offset="0.385417" stop-color="#FFCC33"/>
<stop offset="0.71875" stop-color="#FFAD33"/>
</linearGradient>
<linearGradient id="paint2_linear_444_790" x1="156.692" y1="74.5134" x2="156.692" y2="116.073" gradientUnits="userSpaceOnUse">
<stop offset="0.385417" stop-color="#FFCC33"/>
<stop offset="0.71875" stop-color="#FFAD33"/>
</linearGradient>
<linearGradient id="paint3_linear_444_790" x1="156.692" y1="74.5134" x2="156.692" y2="116.073" gradientUnits="userSpaceOnUse">
<stop offset="0.385417" stop-color="#FFCC33"/>
<stop offset="0.71875" stop-color="#FFAD33"/>
</linearGradient>
<linearGradient id="paint4_linear_444_790" x1="156.692" y1="74.5134" x2="156.692" y2="116.073" gradientUnits="userSpaceOnUse">
<stop offset="0.385417" stop-color="#FFCC33"/>
<stop offset="0.71875" stop-color="#FFAD33"/>
</linearGradient>
<linearGradient id="paint5_linear_444_790" x1="156.692" y1="74.5134" x2="156.692" y2="116.073" gradientUnits="userSpaceOnUse">
<stop offset="0.385417" stop-color="#FFCC33"/>
<stop offset="0.71875" stop-color="#FFAD33"/>
</linearGradient>
</defs>
</svg>
