<svg width="314" height="320" viewBox="0 0 314 320" fill="none" xmlns="http://www.w3.org/2000/svg">
<path d="M19.2201 0.846439H295.242C304.981 0.846439 312.877 8.74178 312.877 18.4812V300.637C312.877 310.376 304.981 318.272 295.242 318.272H19.22C9.48065 318.272 1.58533 310.376 1.58533 300.637V18.4812C1.58533 8.74176 9.48067 0.846439 19.2201 0.846439Z" fill="#20242B"/>
<path d="M19.2201 0.846439H295.242C304.981 0.846439 312.877 8.74178 312.877 18.4812V300.637C312.877 310.376 304.981 318.272 295.242 318.272H19.22C9.48065 318.272 1.58533 310.376 1.58533 300.637V18.4812C1.58533 8.74176 9.48067 0.846439 19.2201 0.846439Z" stroke="#4B535C" stroke-width="1.53346"/>
<rect x="102.134" y="36.8826" width="110.195" height="110.195" rx="55.0975" fill="#EDE8FF" fill-opacity="0.12"/>
<path fill-rule="evenodd" clip-rule="evenodd" d="M139.37 70.5532C136.381 70.5532 133.957 72.9765 133.957 75.9657V101.946C133.957 104.935 136.381 107.358 139.37 107.358H171.134C172.282 107.358 173.383 107.814 174.195 108.626L178.657 113.088C179.339 113.77 180.505 113.287 180.505 112.322V75.9657C180.505 72.9765 178.081 70.5532 175.092 70.5532H139.37ZM151.277 88.4144C151.277 89.909 150.066 91.1206 148.571 91.1206C147.076 91.1206 145.865 89.909 145.865 88.4144C145.865 86.9198 147.076 85.7081 148.571 85.7081C150.066 85.7081 151.277 86.9198 151.277 88.4144ZM159.937 88.4144C159.937 89.909 158.726 91.1206 157.231 91.1206C155.736 91.1206 154.525 89.909 154.525 88.4144C154.525 86.9198 155.736 85.7081 157.231 85.7081C158.726 85.7081 159.937 86.9198 159.937 88.4144ZM168.597 88.4144C168.597 89.909 167.386 91.1206 165.891 91.1206C164.396 91.1206 163.185 89.909 163.185 88.4144C163.185 86.9198 164.396 85.7081 165.891 85.7081C167.386 85.7081 168.597 86.9198 168.597 88.4144Z" fill="url(#paint0_linear_444_755)"/>
<path d="M116.472 201.479V179.949H109.185V177.336H126.887V179.949H119.563V201.479H116.472ZM129.214 201.479V183.593H131.717L131.975 186.831H132.085C133.336 184.586 135.176 183.151 137.164 183.151C137.973 183.151 138.526 183.262 139.078 183.519L138.415 186.132C137.9 185.985 137.495 185.911 136.796 185.911C135.287 185.911 133.484 186.979 132.269 189.996V201.479H129.214ZM145.233 201.921C142.252 201.921 140.007 200.08 140.007 196.842C140.007 192.867 143.319 190.953 150.974 190.107C150.937 187.862 150.201 185.691 147.294 185.691C145.233 185.691 143.356 186.611 141.957 187.531L140.779 185.47C142.436 184.366 144.938 183.151 147.809 183.151C152.152 183.151 154.028 186.059 154.028 190.475V201.479H151.526L151.231 199.344H151.121C149.428 200.78 147.478 201.921 145.233 201.921ZM146.079 199.418C147.809 199.418 149.244 198.645 150.974 197.136V192.278C144.938 192.978 142.988 194.339 142.988 196.658C142.988 198.645 144.349 199.418 146.079 199.418ZM166.722 201.921C161.974 201.921 158.331 198.498 158.331 192.573C158.331 186.574 162.342 183.151 166.943 183.151C169.298 183.151 170.918 184.071 172.169 185.249L170.66 187.163C169.666 186.243 168.525 185.691 167.09 185.691C163.851 185.691 161.496 188.451 161.496 192.573C161.496 196.658 163.704 199.381 166.98 199.381C168.636 199.381 170.108 198.645 171.175 197.688L172.5 199.639C170.881 201.111 168.857 201.921 166.722 201.921ZM182.863 201.921C178.078 201.921 174.324 198.461 174.324 192.536C174.324 186.721 178.262 183.151 182.347 183.151C186.911 183.151 189.524 186.39 189.524 191.542C189.524 192.205 189.487 192.757 189.377 193.346H177.342C177.6 197.026 179.845 199.455 183.231 199.455C184.96 199.455 186.469 198.976 187.721 198.13L188.788 200.08C187.242 201.185 185.328 201.921 182.863 201.921ZM177.342 190.99H186.801C186.801 187.457 185.144 185.58 182.421 185.58C179.918 185.58 177.71 187.567 177.342 190.99ZM198.581 201.921C195.968 201.921 193.576 200.964 191.92 199.344L193.318 197.578C194.864 198.866 196.483 199.528 198.691 199.528C201.047 199.528 202.188 198.314 202.188 196.768C202.188 194.928 200.2 194.155 198.176 193.419C195.49 192.462 192.913 191.174 192.913 188.23C192.913 185.359 195.195 183.151 199.096 183.151C201.341 183.151 203.255 183.998 204.653 185.175L203.255 186.942C202.004 186.022 200.716 185.507 199.133 185.507C196.851 185.507 195.858 186.758 195.858 188.083C195.858 189.702 197.403 190.365 199.648 191.137C202.445 192.131 205.132 193.346 205.132 196.584C205.132 199.492 202.813 201.921 198.581 201.921Z" fill="white"/>
<path d="M57.0411 245.884V229.838H60.2552L63.1013 237.689C63.2813 238.197 63.453 238.72 63.6166 239.26C63.7965 239.783 63.9682 240.307 64.1318 240.83H64.23C64.4099 240.307 64.5816 239.783 64.7452 239.26C64.9088 238.72 65.0723 238.197 65.2359 237.689L68.0084 229.838H71.247V245.884H68.6218V238.548C68.6218 238.041 68.6381 237.493 68.6708 236.904C68.7199 236.299 68.769 235.694 68.818 235.089C68.8835 234.484 68.9407 233.936 68.9898 233.445H68.8917L67.5913 237.174L64.966 244.388H63.2731L60.6233 237.174L59.3474 233.445H59.2493C59.2984 233.936 59.3474 234.484 59.3965 235.089C59.4619 235.694 59.511 236.299 59.5437 236.904C59.5928 237.493 59.6173 238.041 59.6173 238.548V245.884H57.0411ZM80.009 246.179C79.0112 246.179 78.0789 245.933 77.212 245.443C76.3451 244.936 75.6417 244.216 75.102 243.284C74.5622 242.335 74.2923 241.198 74.2923 239.873C74.2923 238.532 74.5622 237.395 75.102 236.463C75.6417 235.514 76.3451 234.794 77.212 234.304C78.0789 233.797 79.0112 233.543 80.009 233.543C81.0231 233.543 81.9637 233.797 82.8306 234.304C83.6975 234.794 84.4008 235.514 84.9406 236.463C85.4804 237.395 85.7503 238.532 85.7503 239.873C85.7503 241.198 85.4804 242.335 84.9406 243.284C84.4008 244.216 83.6975 244.936 82.8306 245.443C81.9637 245.933 81.0231 246.179 80.009 246.179ZM80.009 243.872C80.8923 243.872 81.5875 243.504 82.0945 242.768C82.6016 242.032 82.8551 241.067 82.8551 239.873C82.8551 238.663 82.6016 237.689 82.0945 236.953C81.5875 236.217 80.8923 235.849 80.009 235.849C79.1257 235.849 78.4306 236.217 77.9235 236.953C77.4328 237.689 77.1875 238.663 77.1875 239.873C77.1875 241.067 77.4328 242.032 77.9235 242.768C78.4306 243.504 79.1257 243.872 80.009 243.872ZM88.5431 245.884V233.837H90.8739L91.0702 235.457H91.1683C91.7081 234.933 92.297 234.484 92.9349 234.107C93.5728 233.731 94.3007 233.543 95.1185 233.543C96.4107 233.543 97.3512 233.96 97.9401 234.794C98.5289 235.629 98.8234 236.806 98.8234 238.327V245.884H96.0018V238.695C96.0018 237.698 95.8546 236.994 95.5602 236.585C95.2657 236.176 94.7832 235.972 94.1126 235.972C93.5892 235.972 93.123 236.103 92.7141 236.365C92.3215 236.61 91.8717 236.978 91.3646 237.469V245.884H88.5431ZM102.272 245.884V233.837H105.094V245.884H102.272ZM103.695 231.727C103.188 231.727 102.779 231.58 102.469 231.286C102.158 230.991 102.002 230.599 102.002 230.108C102.002 229.634 102.158 229.249 102.469 228.955C102.779 228.661 103.188 228.513 103.695 228.513C104.202 228.513 104.611 228.661 104.922 228.955C105.233 229.249 105.388 229.634 105.388 230.108C105.388 230.599 105.233 230.991 104.922 231.286C104.611 231.58 104.202 231.727 103.695 231.727ZM112.938 246.179C111.548 246.179 110.558 245.778 109.969 244.976C109.397 244.159 109.111 243.104 109.111 241.811V236.07H107.393V233.96L109.258 233.837L109.601 230.55H111.957V233.837H115.024V236.07H111.957V241.811C111.957 243.218 112.521 243.921 113.65 243.921C113.862 243.921 114.083 243.897 114.312 243.848C114.541 243.782 114.737 243.717 114.901 243.652L115.392 245.737C115.065 245.852 114.688 245.95 114.263 246.031C113.854 246.13 113.413 246.179 112.938 246.179ZM122.107 246.179C121.109 246.179 120.177 245.933 119.31 245.443C118.443 244.936 117.74 244.216 117.2 243.284C116.66 242.335 116.39 241.198 116.39 239.873C116.39 238.532 116.66 237.395 117.2 236.463C117.74 235.514 118.443 234.794 119.31 234.304C120.177 233.797 121.109 233.543 122.107 233.543C123.121 233.543 124.062 233.797 124.929 234.304C125.796 234.794 126.499 235.514 127.039 236.463C127.579 237.395 127.848 238.532 127.848 239.873C127.848 241.198 127.579 242.335 127.039 243.284C126.499 244.216 125.796 244.936 124.929 245.443C124.062 245.933 123.121 246.179 122.107 246.179ZM122.107 243.872C122.99 243.872 123.686 243.504 124.193 242.768C124.7 242.032 124.953 241.067 124.953 239.873C124.953 238.663 124.7 237.689 124.193 236.953C123.686 236.217 122.99 235.849 122.107 235.849C121.224 235.849 120.529 236.217 120.022 236.953C119.531 237.689 119.286 238.663 119.286 239.873C119.286 241.067 119.531 242.032 120.022 242.768C120.529 243.504 121.224 243.872 122.107 243.872ZM130.641 245.884V233.837H132.972L133.168 235.972H133.266C133.692 235.187 134.207 234.59 134.812 234.181C135.417 233.756 136.039 233.543 136.677 233.543C137.249 233.543 137.707 233.625 138.051 233.788L137.56 236.242C137.348 236.176 137.151 236.127 136.971 236.095C136.791 236.062 136.571 236.046 136.309 236.046C135.835 236.046 135.336 236.234 134.812 236.61C134.289 236.97 133.839 237.608 133.463 238.524V245.884H130.641ZM147.626 246.179C146.579 246.179 145.72 245.852 145.049 245.197C144.395 244.543 144.068 243.692 144.068 242.646C144.068 241.353 144.632 240.356 145.761 239.652C146.89 238.933 148.689 238.442 151.159 238.18C151.142 237.542 150.971 236.994 150.643 236.536C150.333 236.062 149.768 235.825 148.95 235.825C148.362 235.825 147.781 235.939 147.208 236.168C146.652 236.397 146.104 236.675 145.565 237.003L144.534 235.113C145.205 234.688 145.957 234.32 146.791 234.009C147.642 233.698 148.542 233.543 149.49 233.543C150.995 233.543 152.116 233.993 152.852 234.892C153.604 235.776 153.98 237.06 153.98 238.745V245.884H151.649L151.453 244.559H151.355C150.815 245.017 150.234 245.402 149.613 245.713C149.008 246.023 148.345 246.179 147.626 246.179ZM148.533 243.971C149.024 243.971 149.466 243.856 149.858 243.627C150.267 243.382 150.701 243.055 151.159 242.646V239.947C149.523 240.159 148.386 240.478 147.748 240.904C147.11 241.313 146.791 241.82 146.791 242.425C146.791 242.965 146.955 243.357 147.282 243.602C147.609 243.848 148.026 243.971 148.533 243.971ZM157.357 245.884V233.837H159.688L159.884 235.457H159.982C160.522 234.933 161.111 234.484 161.749 234.107C162.387 233.731 163.114 233.543 163.932 233.543C165.225 233.543 166.165 233.96 166.754 234.794C167.343 235.629 167.637 236.806 167.637 238.327V245.884H164.816V238.695C164.816 237.698 164.668 236.994 164.374 236.585C164.08 236.176 163.597 235.972 162.926 235.972C162.403 235.972 161.937 236.103 161.528 236.365C161.135 236.61 160.685 236.978 160.178 237.469V245.884H157.357ZM175.306 246.179C173.801 246.179 172.599 245.623 171.699 244.51C170.8 243.398 170.35 241.852 170.35 239.873C170.35 238.565 170.587 237.436 171.062 236.487C171.552 235.539 172.19 234.811 172.975 234.304C173.76 233.797 174.586 233.543 175.453 233.543C176.14 233.543 176.721 233.666 177.195 233.911C177.686 234.14 178.16 234.459 178.618 234.868L178.52 232.93V228.562H181.342V245.884H179.011L178.815 244.584H178.717C178.275 245.026 177.76 245.402 177.171 245.713C176.582 246.023 175.96 246.179 175.306 246.179ZM175.993 243.848C176.893 243.848 177.735 243.398 178.52 242.498V236.88C178.111 236.504 177.702 236.242 177.294 236.095C176.885 235.947 176.476 235.874 176.067 235.874C175.298 235.874 174.636 236.226 174.079 236.929C173.54 237.616 173.27 238.589 173.27 239.849C173.27 241.141 173.507 242.13 173.981 242.817C174.456 243.504 175.126 243.848 175.993 243.848ZM194.067 246.179C192.562 246.179 191.36 245.623 190.46 244.51C189.561 243.398 189.111 241.852 189.111 239.873C189.111 238.565 189.348 237.436 189.822 236.487C190.313 235.539 190.951 234.811 191.736 234.304C192.521 233.797 193.347 233.543 194.214 233.543C194.901 233.543 195.482 233.666 195.956 233.911C196.447 234.14 196.921 234.459 197.379 234.868L197.281 232.93V228.562H200.103V245.884H197.772L197.576 244.584H197.477C197.036 245.026 196.521 245.402 195.932 245.713C195.343 246.023 194.721 246.179 194.067 246.179ZM194.754 243.848C195.654 243.848 196.496 243.398 197.281 242.498V236.88C196.872 236.504 196.463 236.242 196.054 236.095C195.645 235.947 195.237 235.874 194.828 235.874C194.059 235.874 193.396 236.226 192.84 236.929C192.3 237.616 192.031 238.589 192.031 239.849C192.031 241.141 192.268 242.13 192.742 242.817C193.216 243.504 193.887 243.848 194.754 243.848ZM208.848 246.179C207.736 246.179 206.73 245.933 205.831 245.443C204.931 244.936 204.219 244.216 203.696 243.284C203.173 242.335 202.911 241.198 202.911 239.873C202.911 238.565 203.173 237.436 203.696 236.487C204.236 235.539 204.931 234.811 205.781 234.304C206.632 233.797 207.523 233.543 208.456 233.543C209.552 233.543 210.468 233.788 211.204 234.279C211.94 234.753 212.496 235.424 212.872 236.291C213.248 237.142 213.436 238.131 213.436 239.26C213.436 239.849 213.396 240.307 213.314 240.634H205.659C205.79 241.697 206.174 242.523 206.812 243.112C207.45 243.701 208.251 243.995 209.216 243.995C209.74 243.995 210.222 243.921 210.664 243.774C211.122 243.611 211.572 243.39 212.013 243.112L212.97 244.878C212.398 245.255 211.76 245.565 211.057 245.811C210.353 246.056 209.617 246.179 208.848 246.179ZM205.634 238.72H210.983C210.983 237.788 210.778 237.06 210.37 236.536C209.961 235.997 209.347 235.727 208.529 235.727C207.826 235.727 207.196 235.988 206.64 236.512C206.1 237.019 205.765 237.755 205.634 238.72ZM221.971 246.179C220.826 246.179 219.73 245.655 218.683 244.608H218.609L218.364 245.884H216.131V228.562H218.953V233.028L218.879 235.04C219.386 234.598 219.942 234.238 220.548 233.96C221.153 233.682 221.758 233.543 222.363 233.543C223.868 233.543 225.038 234.099 225.872 235.211C226.706 236.324 227.123 237.804 227.123 239.652C227.123 241.026 226.878 242.204 226.387 243.185C225.896 244.15 225.258 244.895 224.473 245.418C223.705 245.925 222.87 246.179 221.971 246.179ZM221.382 243.848C222.183 243.848 222.854 243.496 223.394 242.793C223.934 242.089 224.203 241.059 224.203 239.701C224.203 238.491 223.999 237.55 223.59 236.88C223.181 236.209 222.519 235.874 221.603 235.874C220.752 235.874 219.869 236.324 218.953 237.223V242.842C219.378 243.202 219.795 243.463 220.204 243.627C220.629 243.774 221.022 243.848 221.382 243.848ZM233.539 246.179C232.246 246.179 231.306 245.762 230.717 244.927C230.128 244.093 229.834 242.916 229.834 241.394V233.837H232.655V241.026C232.655 242.024 232.802 242.727 233.097 243.136C233.391 243.545 233.866 243.75 234.52 243.75C235.043 243.75 235.501 243.619 235.894 243.357C236.303 243.095 236.736 242.67 237.194 242.081V233.837H240.016V245.884H237.71L237.489 244.118H237.415C236.892 244.739 236.319 245.238 235.698 245.614C235.076 245.991 234.356 246.179 233.539 246.179ZM247.785 251.208C246.837 251.208 245.978 251.094 245.209 250.865C244.457 250.636 243.86 250.284 243.418 249.81C242.993 249.352 242.78 248.771 242.78 248.068C242.78 247.07 243.353 246.211 244.498 245.492V245.394C244.187 245.197 243.925 244.936 243.712 244.608C243.516 244.281 243.418 243.872 243.418 243.382C243.418 242.907 243.549 242.482 243.811 242.106C244.089 241.713 244.399 241.394 244.743 241.149V241.051C244.334 240.74 243.966 240.307 243.639 239.75C243.328 239.194 243.173 238.565 243.173 237.861C243.173 236.929 243.393 236.144 243.835 235.506C244.277 234.868 244.857 234.385 245.577 234.058C246.313 233.715 247.098 233.543 247.933 233.543C248.26 233.543 248.57 233.576 248.865 233.641C249.176 233.69 249.454 233.756 249.699 233.837H254.017V235.923H251.809C252.005 236.152 252.169 236.446 252.3 236.806C252.431 237.15 252.496 237.534 252.496 237.959C252.496 238.843 252.292 239.595 251.883 240.217C251.474 240.822 250.926 241.28 250.239 241.591C249.552 241.901 248.783 242.057 247.933 242.057C247.671 242.057 247.401 242.032 247.123 241.983C246.845 241.934 246.567 241.852 246.289 241.738C246.109 241.901 245.962 242.065 245.847 242.229C245.749 242.392 245.7 242.613 245.7 242.891C245.7 243.234 245.839 243.504 246.117 243.701C246.411 243.897 246.927 243.995 247.663 243.995H249.797C251.253 243.995 252.349 244.232 253.085 244.707C253.837 245.165 254.214 245.917 254.214 246.964C254.214 247.749 253.952 248.46 253.428 249.098C252.905 249.753 252.161 250.268 251.196 250.644C250.231 251.02 249.094 251.208 247.785 251.208ZM247.933 240.29C248.505 240.29 248.996 240.078 249.405 239.652C249.814 239.227 250.018 238.63 250.018 237.861C250.018 237.109 249.814 236.528 249.405 236.119C249.012 235.694 248.521 235.481 247.933 235.481C247.344 235.481 246.845 235.686 246.436 236.095C246.027 236.504 245.822 237.092 245.822 237.861C245.822 238.63 246.027 239.227 246.436 239.652C246.845 240.078 247.344 240.29 247.933 240.29ZM248.227 249.368C249.192 249.368 249.977 249.172 250.582 248.779C251.188 248.387 251.49 247.937 251.49 247.43C251.49 246.956 251.302 246.637 250.926 246.473C250.566 246.31 250.043 246.228 249.356 246.228H247.712C247.057 246.228 246.509 246.171 246.068 246.056C245.446 246.53 245.135 247.062 245.135 247.651C245.135 248.191 245.414 248.608 245.97 248.902C246.526 249.213 247.278 249.368 248.227 249.368ZM62.8035 274.884V258.838H65.6496V272.48H72.3232V274.884H62.8035ZM75.1191 274.884V258.838H77.9652V272.48H84.6388V274.884H75.1191ZM87.4347 274.884V258.838H90.6488L93.4949 266.689C93.6748 267.197 93.8466 267.72 94.0101 268.26C94.1901 268.783 94.3618 269.307 94.5254 269.83H94.6235C94.8034 269.307 94.9752 268.783 95.1388 268.26C95.3023 267.72 95.4659 267.197 95.6295 266.689L98.4019 258.838H101.641V274.884H99.0153V267.548C99.0153 267.041 99.0317 266.493 99.0644 265.904C99.1135 265.299 99.1625 264.694 99.2116 264.089C99.277 263.484 99.3343 262.936 99.3834 262.445H99.2852L97.9848 266.174L95.3596 273.388H93.6666L91.0168 266.174L89.741 262.445H89.6428C89.6919 262.936 89.741 263.484 89.7901 264.089C89.8555 264.694 89.9046 265.299 89.9373 265.904C89.9863 266.493 90.0109 267.041 90.0109 267.548V274.884H87.4347ZM108.832 275.179C108.014 275.179 107.197 275.023 106.379 274.713C105.561 274.385 104.858 273.985 104.269 273.51L105.594 271.695C106.133 272.104 106.673 272.431 107.213 272.676C107.753 272.921 108.325 273.044 108.93 273.044C109.585 273.044 110.067 272.905 110.378 272.627C110.689 272.349 110.844 272.005 110.844 271.597C110.844 271.253 110.713 270.975 110.452 270.762C110.206 270.533 109.887 270.337 109.495 270.174C109.102 269.994 108.693 269.822 108.268 269.658C107.745 269.462 107.221 269.225 106.698 268.947C106.191 268.652 105.774 268.284 105.446 267.843C105.119 267.385 104.956 266.82 104.956 266.15C104.956 265.087 105.348 264.22 106.133 263.549C106.919 262.878 107.982 262.543 109.323 262.543C110.174 262.543 110.934 262.69 111.605 262.985C112.275 263.279 112.856 263.614 113.347 263.991L112.046 265.708C111.621 265.397 111.188 265.152 110.746 264.972C110.321 264.776 109.871 264.678 109.397 264.678C108.791 264.678 108.342 264.808 108.047 265.07C107.753 265.316 107.606 265.626 107.606 266.003C107.606 266.477 107.851 266.837 108.342 267.082C108.832 267.327 109.405 267.565 110.059 267.794C110.615 267.99 111.155 268.235 111.678 268.53C112.202 268.808 112.635 269.176 112.979 269.634C113.339 270.092 113.519 270.697 113.519 271.449C113.519 272.48 113.118 273.363 112.316 274.099C111.515 274.819 110.353 275.179 108.832 275.179ZM123.869 275.179C122.822 275.179 121.963 274.852 121.293 274.197C120.639 273.543 120.311 272.692 120.311 271.646C120.311 270.353 120.876 269.356 122.004 268.652C123.133 267.933 124.932 267.442 127.402 267.18C127.386 266.542 127.214 265.994 126.887 265.536C126.576 265.062 126.012 264.825 125.194 264.825C124.605 264.825 124.024 264.939 123.452 265.168C122.896 265.397 122.348 265.675 121.808 266.003L120.778 264.113C121.448 263.688 122.201 263.32 123.035 263.009C123.885 262.698 124.785 262.543 125.734 262.543C127.239 262.543 128.359 262.993 129.095 263.892C129.847 264.776 130.224 266.06 130.224 267.745V274.884H127.893L127.696 273.559H127.598C127.059 274.017 126.478 274.402 125.856 274.713C125.251 275.023 124.589 275.179 123.869 275.179ZM124.777 272.971C125.268 272.971 125.709 272.856 126.102 272.627C126.511 272.382 126.944 272.055 127.402 271.646V268.947C125.766 269.159 124.63 269.478 123.992 269.904C123.354 270.313 123.035 270.82 123.035 271.425C123.035 271.965 123.198 272.357 123.525 272.602C123.853 272.848 124.27 272.971 124.777 272.971ZM133.6 274.884V262.837H135.931L136.127 264.457H136.226C136.765 263.933 137.354 263.484 137.992 263.107C138.63 262.731 139.358 262.543 140.176 262.543C141.468 262.543 142.408 262.96 142.997 263.794C143.586 264.629 143.881 265.806 143.881 267.327V274.884H141.059V267.695C141.059 266.698 140.912 265.994 140.617 265.585C140.323 265.176 139.84 264.972 139.17 264.972C138.646 264.972 138.18 265.103 137.771 265.365C137.379 265.61 136.929 265.978 136.422 266.469V274.884H133.6ZM151.55 275.179C150.045 275.179 148.843 274.623 147.943 273.51C147.043 272.398 146.593 270.852 146.593 268.873C146.593 267.565 146.831 266.436 147.305 265.487C147.796 264.539 148.434 263.811 149.219 263.304C150.004 262.797 150.83 262.543 151.697 262.543C152.384 262.543 152.964 262.666 153.439 262.911C153.93 263.14 154.404 263.459 154.862 263.868L154.764 261.93V257.562H157.585V274.884H155.254L155.058 273.584H154.96C154.518 274.026 154.003 274.402 153.414 274.713C152.825 275.023 152.204 275.179 151.55 275.179ZM152.237 272.848C153.136 272.848 153.979 272.398 154.764 271.498V265.88C154.355 265.504 153.946 265.242 153.537 265.095C153.128 264.947 152.719 264.874 152.31 264.874C151.541 264.874 150.879 265.226 150.323 265.929C149.783 266.616 149.513 267.589 149.513 268.849C149.513 270.141 149.75 271.13 150.225 271.817C150.699 272.504 151.37 272.848 152.237 272.848ZM166.09 279.644V262.837H168.421L168.618 264.113H168.716C169.223 263.688 169.787 263.32 170.409 263.009C171.047 262.698 171.693 262.543 172.347 262.543C173.852 262.543 175.013 263.099 175.831 264.211C176.665 265.324 177.082 266.812 177.082 268.677C177.082 270.051 176.837 271.229 176.346 272.21C175.855 273.175 175.218 273.911 174.432 274.418C173.664 274.925 172.829 275.179 171.93 275.179C171.406 275.179 170.883 275.064 170.36 274.835C169.836 274.59 169.329 274.263 168.838 273.854L168.912 275.866V279.644H166.09ZM171.341 272.848C172.142 272.848 172.813 272.496 173.353 271.793C173.893 271.089 174.162 270.059 174.162 268.701C174.162 267.491 173.958 266.55 173.549 265.88C173.14 265.209 172.478 264.874 171.562 264.874C170.711 264.874 169.828 265.324 168.912 266.223V271.842C169.354 272.202 169.779 272.463 170.188 272.627C170.597 272.774 170.981 272.848 171.341 272.848ZM179.939 274.884V262.837H182.27L182.467 264.972H182.565C182.99 264.187 183.505 263.59 184.11 263.181C184.716 262.756 185.337 262.543 185.975 262.543C186.548 262.543 187.006 262.625 187.349 262.788L186.858 265.242C186.646 265.176 186.449 265.127 186.269 265.095C186.09 265.062 185.869 265.046 185.607 265.046C185.133 265.046 184.634 265.234 184.11 265.61C183.587 265.97 183.137 266.608 182.761 267.524V274.884H179.939ZM193.784 275.179C192.786 275.179 191.854 274.933 190.987 274.443C190.12 273.936 189.417 273.216 188.877 272.284C188.337 271.335 188.067 270.198 188.067 268.873C188.067 267.532 188.337 266.395 188.877 265.463C189.417 264.514 190.12 263.794 190.987 263.304C191.854 262.797 192.786 262.543 193.784 262.543C194.798 262.543 195.739 262.797 196.606 263.304C197.473 263.794 198.176 264.514 198.716 265.463C199.256 266.395 199.525 267.532 199.525 268.873C199.525 270.198 199.256 271.335 198.716 272.284C198.176 273.216 197.473 273.936 196.606 274.443C195.739 274.933 194.798 275.179 193.784 275.179ZM193.784 272.872C194.667 272.872 195.363 272.504 195.87 271.768C196.377 271.032 196.63 270.067 196.63 268.873C196.63 267.663 196.377 266.689 195.87 265.953C195.363 265.217 194.667 264.849 193.784 264.849C192.901 264.849 192.206 265.217 191.699 265.953C191.208 266.689 190.963 267.663 190.963 268.873C190.963 270.067 191.208 271.032 191.699 271.768C192.206 272.504 192.901 272.872 193.784 272.872ZM202.318 274.884V262.837H204.649L204.845 264.481H204.944C205.451 263.942 205.999 263.484 206.587 263.107C207.193 262.731 207.871 262.543 208.624 262.543C209.507 262.543 210.21 262.739 210.734 263.132C211.274 263.508 211.683 264.032 211.961 264.702C212.533 264.081 213.13 263.565 213.752 263.156C214.39 262.747 215.085 262.543 215.837 262.543C217.113 262.543 218.054 262.96 218.659 263.794C219.264 264.629 219.567 265.806 219.567 267.327V274.884H216.72V267.695C216.72 266.698 216.565 265.994 216.254 265.585C215.96 265.176 215.502 264.972 214.88 264.972C214.128 264.972 213.286 265.471 212.353 266.469V274.884H209.532V267.695C209.532 266.698 209.376 265.994 209.065 265.585C208.771 265.176 208.305 264.972 207.667 264.972C206.915 264.972 206.072 265.471 205.14 266.469V274.884H202.318ZM222.996 279.644V262.837H225.327L225.523 264.113H225.621C226.128 263.688 226.693 263.32 227.314 263.009C227.952 262.698 228.598 262.543 229.252 262.543C230.757 262.543 231.919 263.099 232.736 264.211C233.571 265.324 233.988 266.812 233.988 268.677C233.988 270.051 233.742 271.229 233.252 272.21C232.761 273.175 232.123 273.911 231.338 274.418C230.569 274.925 229.735 275.179 228.835 275.179C228.312 275.179 227.788 275.064 227.265 274.835C226.742 274.59 226.235 274.263 225.744 273.854L225.817 275.866V279.644H222.996ZM228.246 272.848C229.048 272.848 229.719 272.496 230.258 271.793C230.798 271.089 231.068 270.059 231.068 268.701C231.068 267.491 230.864 266.55 230.455 265.88C230.046 265.209 229.383 264.874 228.467 264.874C227.617 264.874 226.733 265.324 225.817 266.223V271.842C226.259 272.202 226.684 272.463 227.093 272.627C227.502 272.774 227.887 272.848 228.246 272.848ZM240.538 275.179C239.148 275.179 238.159 274.778 237.57 273.976C236.997 273.159 236.711 272.104 236.711 270.811V265.07H234.993V262.96L236.858 262.837L237.202 259.55H239.557V262.837H242.624V265.07H239.557V270.811C239.557 272.218 240.121 272.921 241.25 272.921C241.463 272.921 241.683 272.897 241.912 272.848C242.141 272.782 242.338 272.717 242.501 272.652L242.992 274.737C242.665 274.852 242.289 274.95 241.863 275.031C241.454 275.13 241.013 275.179 240.538 275.179ZM248.281 275.179C247.463 275.179 246.645 275.023 245.827 274.713C245.01 274.385 244.306 273.985 243.717 273.51L245.042 271.695C245.582 272.104 246.122 272.431 246.662 272.676C247.201 272.921 247.774 273.044 248.379 273.044C249.033 273.044 249.516 272.905 249.827 272.627C250.137 272.349 250.293 272.005 250.293 271.597C250.293 271.253 250.162 270.975 249.9 270.762C249.655 270.533 249.336 270.337 248.943 270.174C248.551 269.994 248.142 269.822 247.717 269.658C247.193 269.462 246.67 269.225 246.146 268.947C245.639 268.652 245.222 268.284 244.895 267.843C244.568 267.385 244.404 266.82 244.404 266.15C244.404 265.087 244.797 264.22 245.582 263.549C246.367 262.878 247.43 262.543 248.772 262.543C249.622 262.543 250.383 262.69 251.053 262.985C251.724 263.279 252.305 263.614 252.795 263.991L251.495 265.708C251.07 265.397 250.636 265.152 250.195 264.972C249.769 264.776 249.32 264.678 248.845 264.678C248.24 264.678 247.79 264.808 247.496 265.07C247.201 265.316 247.054 265.626 247.054 266.003C247.054 266.477 247.299 266.837 247.79 267.082C248.281 267.327 248.853 267.565 249.508 267.794C250.064 267.99 250.604 268.235 251.127 268.53C251.65 268.808 252.084 269.176 252.427 269.634C252.787 270.092 252.967 270.697 252.967 271.449C252.967 272.48 252.566 273.363 251.765 274.099C250.963 274.819 249.802 275.179 248.281 275.179Z" fill="#AEB3BD"/>
<defs>
<linearGradient id="paint0_linear_444_755" x1="156.756" y1="70.5532" x2="156.756" y2="119.039" gradientUnits="userSpaceOnUse">
<stop offset="0.385417" stop-color="#FFCC33"/>
<stop offset="0.71875" stop-color="#FFAD33"/>
</linearGradient>
</defs>
</svg>
