<svg width="160" height="212" viewBox="0 0 160 212" fill="none" xmlns="http://www.w3.org/2000/svg">
<path d="M79 16.5774C79.6188 16.2201 80.3812 16.2201 81 16.5774L120.569 39.4226C121.188 39.7799 121.569 40.4402 121.569 41.1547V86.8453C121.569 87.5598 121.188 88.2201 120.569 88.5774L81 111.423C80.3812 111.78 79.6188 111.78 79 111.423L39.4308 88.5774C38.812 88.2201 38.4308 87.5598 38.4308 86.8453V41.1547C38.4308 40.4402 38.812 39.7799 39.4308 39.4226L79 16.5774Z" fill="#F6F6F6"/>
<path d="M98.572 51.1226C98.572 52.5004 97.3864 54.4588 93.8439 56.23C90.4594 57.9223 85.5989 59.0452 80.086 59.0452C74.5731 59.0452 69.7126 57.9223 66.3281 56.23C62.7856 54.4588 61.6 52.5004 61.6 51.1226C61.6 49.7447 62.7856 47.7864 66.3281 46.0152C69.7126 44.3229 74.5731 43.2 80.086 43.2C85.5989 43.2 90.4594 44.3229 93.8439 46.0152C97.3864 47.7864 98.572 49.7447 98.572 51.1226Z" fill="url(#paint0_linear_3944_24495)"/>
<path d="M66.4147 59.1765C70.0994 60.7417 74.8722 61.686 80.086 61.686C85.2998 61.686 90.0725 60.7417 93.7573 59.1764C95.6545 60.1127 98.572 61.8543 98.572 64.3269C98.572 65.7047 97.3864 67.6631 93.8439 69.4343C90.4594 71.1266 85.5989 72.2495 80.086 72.2495C74.5731 72.2495 69.7126 71.1266 66.3281 69.4343C62.7856 67.6631 61.6 65.7047 61.6 64.3269C61.6 61.8543 64.5175 60.1127 66.4147 59.1765Z" fill="url(#paint1_linear_3944_24495)"/>
<path d="M66.4147 72.3807C70.0994 73.946 74.8721 74.8903 80.086 74.8903C85.2998 74.8903 90.0726 73.946 93.7573 72.3807C95.6545 73.317 98.572 75.0586 98.572 77.5312C98.572 78.909 97.3864 80.8674 93.8439 82.6386C90.4594 84.3309 85.5989 85.4538 80.086 85.4538C74.5731 85.4538 69.7126 84.3309 66.3281 82.6386C62.7856 80.8674 61.6 78.909 61.6 77.5312C61.6 75.0586 64.5175 73.317 66.4147 72.3807Z" fill="url(#paint2_linear_3944_24495)"/>
<path d="M48.0664 130.676L43.8184 143H41.25L46.6016 128.781H48.2422L48.0664 130.676ZM51.6211 143L47.3633 130.676L47.1777 128.781H48.8281L54.1992 143H51.6211ZM51.416 137.727V139.67H43.6816V137.727H51.416ZM57.9199 134.445V143H55.5664V132.434H57.8125L57.9199 134.445ZM61.1523 132.365L61.1328 134.553C60.9896 134.527 60.8333 134.507 60.6641 134.494C60.5013 134.481 60.3385 134.475 60.1758 134.475C59.7721 134.475 59.4173 134.533 59.1113 134.65C58.8053 134.761 58.5482 134.924 58.3398 135.139C58.138 135.347 57.9818 135.601 57.8711 135.9C57.7604 136.2 57.6953 136.535 57.6758 136.906L57.1387 136.945C57.1387 136.281 57.2038 135.666 57.334 135.1C57.4642 134.533 57.6595 134.035 57.9199 133.605C58.1868 133.176 58.5189 132.84 58.916 132.6C59.3197 132.359 59.7852 132.238 60.3125 132.238C60.4557 132.238 60.6087 132.251 60.7715 132.277C60.9408 132.303 61.0677 132.333 61.1523 132.365ZM67.959 132.434V134.152H62.002V132.434H67.959ZM63.7207 129.846H66.0742V140.08C66.0742 140.406 66.1198 140.656 66.2109 140.832C66.3086 141.001 66.4421 141.115 66.6113 141.174C66.7806 141.232 66.9792 141.262 67.207 141.262C67.3698 141.262 67.526 141.252 67.6758 141.232C67.8255 141.213 67.946 141.193 68.0371 141.174L68.0469 142.971C67.8516 143.029 67.6237 143.081 67.3633 143.127C67.1094 143.173 66.8164 143.195 66.4844 143.195C65.944 143.195 65.4655 143.101 65.0488 142.912C64.6322 142.717 64.3066 142.401 64.0723 141.965C63.8379 141.529 63.7207 140.949 63.7207 140.227V129.846ZM72.2949 132.434V143H69.9316V132.434H72.2949ZM69.7754 129.66C69.7754 129.302 69.8926 129.006 70.127 128.771C70.3678 128.531 70.6999 128.41 71.123 128.41C71.5397 128.41 71.8685 128.531 72.1094 128.771C72.3503 129.006 72.4707 129.302 72.4707 129.66C72.4707 130.012 72.3503 130.305 72.1094 130.539C71.8685 130.773 71.5397 130.891 71.123 130.891C70.6999 130.891 70.3678 130.773 70.127 130.539C69.8926 130.305 69.7754 130.012 69.7754 129.66ZM78.0566 143H75.7031V131.418C75.7031 130.63 75.8496 129.969 76.1426 129.436C76.4421 128.895 76.8685 128.488 77.4219 128.215C77.9753 127.935 78.6296 127.795 79.3848 127.795C79.6191 127.795 79.8503 127.811 80.0781 127.844C80.306 127.87 80.5273 127.912 80.7422 127.971L80.6836 129.787C80.5534 129.755 80.4102 129.732 80.2539 129.719C80.1042 129.706 79.9414 129.699 79.7656 129.699C79.4076 129.699 79.0983 129.768 78.8379 129.904C78.584 130.035 78.3887 130.227 78.252 130.48C78.1217 130.734 78.0566 131.047 78.0566 131.418V143ZM80.2344 132.434V134.152H74.082V132.434H80.2344ZM87.9004 140.881V135.842C87.9004 135.464 87.832 135.139 87.6953 134.865C87.5586 134.592 87.3503 134.38 87.0703 134.23C86.7969 134.081 86.4518 134.006 86.0352 134.006C85.651 134.006 85.319 134.071 85.0391 134.201C84.7591 134.331 84.541 134.507 84.3848 134.729C84.2285 134.95 84.1504 135.201 84.1504 135.48H81.8066C81.8066 135.064 81.9076 134.66 82.1094 134.27C82.3112 133.879 82.6042 133.531 82.9883 133.225C83.3724 132.919 83.8314 132.678 84.3652 132.502C84.8991 132.326 85.498 132.238 86.1621 132.238C86.9564 132.238 87.6595 132.372 88.2715 132.639C88.89 132.906 89.375 133.309 89.7266 133.85C90.0846 134.383 90.2637 135.054 90.2637 135.861V140.559C90.2637 141.04 90.2962 141.473 90.3613 141.857C90.4329 142.235 90.5339 142.564 90.6641 142.844V143H88.252C88.1413 142.746 88.0534 142.424 87.9883 142.033C87.9297 141.636 87.9004 141.252 87.9004 140.881ZM88.2422 136.574L88.2617 138.029H86.5723C86.1361 138.029 85.752 138.072 85.4199 138.156C85.0879 138.234 84.8112 138.352 84.5898 138.508C84.3685 138.664 84.2025 138.853 84.0918 139.074C83.9811 139.296 83.9258 139.546 83.9258 139.826C83.9258 140.106 83.9909 140.363 84.1211 140.598C84.2513 140.826 84.4401 141.005 84.6875 141.135C84.9414 141.265 85.2474 141.33 85.6055 141.33C86.0872 141.33 86.5072 141.232 86.8652 141.037C87.2298 140.835 87.5163 140.591 87.7246 140.305C87.9329 140.012 88.0436 139.735 88.0566 139.475L88.8184 140.52C88.7402 140.786 88.6068 141.073 88.418 141.379C88.2292 141.685 87.9818 141.978 87.6758 142.258C87.3763 142.531 87.015 142.756 86.5918 142.932C86.1751 143.107 85.6934 143.195 85.1465 143.195C84.4564 143.195 83.8411 143.059 83.3008 142.785C82.7604 142.505 82.3372 142.131 82.0312 141.662C81.7253 141.187 81.5723 140.65 81.5723 140.051C81.5723 139.491 81.6764 138.996 81.8848 138.566C82.0996 138.13 82.4121 137.766 82.8223 137.473C83.2389 137.18 83.7467 136.958 84.3457 136.809C84.9447 136.652 85.6283 136.574 86.3965 136.574H88.2422ZM97.041 141.32C97.4251 141.32 97.7702 141.245 98.0762 141.096C98.3887 140.939 98.6393 140.725 98.8281 140.451C99.0234 140.178 99.1309 139.862 99.1504 139.504H101.367C101.354 140.188 101.152 140.809 100.762 141.369C100.371 141.929 99.8535 142.375 99.209 142.707C98.5645 143.033 97.8516 143.195 97.0703 143.195C96.263 143.195 95.5599 143.059 94.9609 142.785C94.362 142.505 93.8639 142.121 93.4668 141.633C93.0697 141.145 92.7702 140.581 92.5684 139.943C92.373 139.305 92.2754 138.622 92.2754 137.893V137.551C92.2754 136.822 92.373 136.138 92.5684 135.5C92.7702 134.855 93.0697 134.289 93.4668 133.801C93.8639 133.312 94.362 132.932 94.9609 132.658C95.5599 132.378 96.2598 132.238 97.0605 132.238C97.9069 132.238 98.6491 132.408 99.2871 132.746C99.9251 133.078 100.426 133.544 100.791 134.143C101.162 134.735 101.354 135.425 101.367 136.213H99.1504C99.1309 135.822 99.0332 135.471 98.8574 135.158C98.6882 134.839 98.4473 134.585 98.1348 134.396C97.8288 134.208 97.4609 134.113 97.0312 134.113C96.556 134.113 96.1621 134.211 95.8496 134.406C95.5371 134.595 95.293 134.855 95.1172 135.188C94.9414 135.513 94.8145 135.881 94.7363 136.291C94.6647 136.695 94.6289 137.115 94.6289 137.551V137.893C94.6289 138.329 94.6647 138.752 94.7363 139.162C94.8079 139.572 94.9316 139.94 95.1074 140.266C95.2897 140.585 95.5371 140.842 95.8496 141.037C96.1621 141.226 96.5592 141.32 97.041 141.32ZM108.018 132.434V134.152H102.061V132.434H108.018ZM103.779 129.846H106.133V140.08C106.133 140.406 106.178 140.656 106.27 140.832C106.367 141.001 106.501 141.115 106.67 141.174C106.839 141.232 107.038 141.262 107.266 141.262C107.428 141.262 107.585 141.252 107.734 141.232C107.884 141.213 108.005 141.193 108.096 141.174L108.105 142.971C107.91 143.029 107.682 143.081 107.422 143.127C107.168 143.173 106.875 143.195 106.543 143.195C106.003 143.195 105.524 143.101 105.107 142.912C104.691 142.717 104.365 142.401 104.131 141.965C103.896 141.529 103.779 140.949 103.779 140.227V129.846ZM115.762 140.139C115.762 139.904 115.703 139.693 115.586 139.504C115.469 139.309 115.244 139.133 114.912 138.977C114.587 138.82 114.105 138.677 113.467 138.547C112.907 138.423 112.393 138.277 111.924 138.107C111.462 137.932 111.064 137.72 110.732 137.473C110.4 137.225 110.143 136.932 109.961 136.594C109.779 136.255 109.688 135.865 109.688 135.422C109.688 134.992 109.782 134.585 109.971 134.201C110.16 133.817 110.43 133.479 110.781 133.186C111.133 132.893 111.559 132.661 112.061 132.492C112.568 132.323 113.135 132.238 113.76 132.238C114.645 132.238 115.404 132.388 116.035 132.688C116.673 132.98 117.161 133.381 117.5 133.889C117.839 134.39 118.008 134.956 118.008 135.588H115.654C115.654 135.308 115.583 135.048 115.439 134.807C115.303 134.559 115.094 134.361 114.814 134.211C114.535 134.055 114.183 133.977 113.76 133.977C113.356 133.977 113.021 134.042 112.754 134.172C112.493 134.296 112.298 134.458 112.168 134.66C112.044 134.862 111.982 135.083 111.982 135.324C111.982 135.5 112.015 135.66 112.08 135.803C112.152 135.939 112.269 136.066 112.432 136.184C112.594 136.294 112.816 136.398 113.096 136.496C113.382 136.594 113.74 136.688 114.17 136.779C114.977 136.949 115.671 137.167 116.25 137.434C116.836 137.694 117.285 138.033 117.598 138.449C117.91 138.859 118.066 139.38 118.066 140.012C118.066 140.48 117.965 140.91 117.764 141.301C117.568 141.685 117.282 142.02 116.904 142.307C116.527 142.587 116.074 142.805 115.547 142.961C115.026 143.117 114.44 143.195 113.789 143.195C112.832 143.195 112.021 143.026 111.357 142.688C110.693 142.342 110.189 141.903 109.844 141.369C109.505 140.829 109.336 140.269 109.336 139.689H111.611C111.637 140.126 111.758 140.474 111.973 140.734C112.194 140.988 112.467 141.174 112.793 141.291C113.125 141.402 113.467 141.457 113.818 141.457C114.242 141.457 114.596 141.402 114.883 141.291C115.169 141.174 115.387 141.018 115.537 140.822C115.687 140.62 115.762 140.393 115.762 140.139Z" fill="#33373D"/>
<path d="M25.1348 169H23.0566L23.0703 167.927H25.1348C25.8457 167.927 26.4382 167.779 26.9121 167.482C27.3861 167.182 27.7415 166.762 27.9785 166.225C28.2201 165.682 28.3408 165.049 28.3408 164.324V163.716C28.3408 163.146 28.2725 162.64 28.1357 162.198C27.999 161.752 27.7985 161.376 27.5342 161.07C27.2699 160.76 26.9463 160.526 26.5635 160.366C26.1852 160.207 25.75 160.127 25.2578 160.127H23.0156V159.047H25.2578C25.9095 159.047 26.5042 159.156 27.042 159.375C27.5798 159.589 28.0423 159.901 28.4297 160.312C28.8216 160.717 29.1224 161.209 29.332 161.788C29.5417 162.362 29.6465 163.009 29.6465 163.729V164.324C29.6465 165.044 29.5417 165.694 29.332 166.272C29.1224 166.847 28.8193 167.337 28.4229 167.742C28.0309 168.148 27.557 168.46 27.001 168.679C26.4495 168.893 25.8275 169 25.1348 169ZM23.7607 159.047V169H22.4414V159.047H23.7607ZM35.7988 167.735V163.928C35.7988 163.636 35.7396 163.383 35.6211 163.169C35.5072 162.95 35.334 162.782 35.1016 162.663C34.8691 162.545 34.582 162.485 34.2402 162.485C33.9212 162.485 33.641 162.54 33.3994 162.649C33.1624 162.759 32.9756 162.902 32.8389 163.08C32.7067 163.258 32.6406 163.449 32.6406 163.654H31.376C31.376 163.39 31.4443 163.128 31.5811 162.868C31.7178 162.608 31.9137 162.374 32.1689 162.164C32.4287 161.95 32.7386 161.781 33.0986 161.658C33.4632 161.531 33.8688 161.467 34.3154 161.467C34.8532 161.467 35.3271 161.558 35.7373 161.74C36.152 161.923 36.4756 162.198 36.708 162.567C36.945 162.932 37.0635 163.39 37.0635 163.941V167.387C37.0635 167.633 37.084 167.895 37.125 168.173C37.1706 168.451 37.2367 168.69 37.3232 168.891V169H36.0039C35.9401 168.854 35.89 168.66 35.8535 168.419C35.8171 168.173 35.7988 167.945 35.7988 167.735ZM36.0176 164.516L36.0312 165.404H34.7529C34.3929 165.404 34.0716 165.434 33.7891 165.493C33.5065 165.548 33.2695 165.632 33.0781 165.746C32.8867 165.86 32.7409 166.004 32.6406 166.177C32.5404 166.345 32.4902 166.544 32.4902 166.771C32.4902 167.004 32.5426 167.216 32.6475 167.407C32.7523 167.599 32.9095 167.751 33.1191 167.865C33.3333 167.975 33.5954 168.029 33.9053 168.029C34.2926 168.029 34.6344 167.947 34.9307 167.783C35.2269 167.619 35.4616 167.419 35.6348 167.182C35.8125 166.945 35.9082 166.715 35.9219 166.491L36.4619 167.1C36.43 167.291 36.3434 167.503 36.2021 167.735C36.0609 167.968 35.8717 168.191 35.6348 168.405C35.4023 168.615 35.1243 168.79 34.8008 168.932C34.4818 169.068 34.1217 169.137 33.7207 169.137C33.2194 169.137 32.7796 169.039 32.4014 168.843C32.0277 168.647 31.736 168.385 31.5264 168.057C31.3213 167.724 31.2188 167.353 31.2188 166.942C31.2188 166.546 31.2962 166.197 31.4512 165.896C31.6061 165.591 31.8294 165.338 32.1211 165.138C32.4128 164.933 32.7637 164.778 33.1738 164.673C33.584 164.568 34.042 164.516 34.5479 164.516H36.0176ZM42.1494 161.604V162.574H38.1504V161.604H42.1494ZM39.5039 159.806H40.7686V167.168C40.7686 167.419 40.8073 167.608 40.8848 167.735C40.9622 167.863 41.0625 167.947 41.1855 167.988C41.3086 168.029 41.4408 168.05 41.582 168.05C41.6868 168.05 41.7962 168.041 41.9102 168.022C42.0286 168 42.1175 167.981 42.1768 167.968L42.1836 169C42.0833 169.032 41.9512 169.062 41.7871 169.089C41.6276 169.121 41.4339 169.137 41.2061 169.137C40.8962 169.137 40.6113 169.075 40.3516 168.952C40.0918 168.829 39.8844 168.624 39.7295 168.337C39.5791 168.045 39.5039 167.653 39.5039 167.161V159.806ZM47.9941 167.735V163.928C47.9941 163.636 47.9349 163.383 47.8164 163.169C47.7025 162.95 47.5293 162.782 47.2969 162.663C47.0645 162.545 46.7773 162.485 46.4355 162.485C46.1165 162.485 45.8363 162.54 45.5947 162.649C45.3577 162.759 45.1709 162.902 45.0342 163.08C44.902 163.258 44.8359 163.449 44.8359 163.654H43.5713C43.5713 163.39 43.6396 163.128 43.7764 162.868C43.9131 162.608 44.109 162.374 44.3643 162.164C44.624 161.95 44.9339 161.781 45.2939 161.658C45.6585 161.531 46.0641 161.467 46.5107 161.467C47.0485 161.467 47.5225 161.558 47.9326 161.74C48.3473 161.923 48.6709 162.198 48.9033 162.567C49.1403 162.932 49.2588 163.39 49.2588 163.941V167.387C49.2588 167.633 49.2793 167.895 49.3203 168.173C49.3659 168.451 49.432 168.69 49.5186 168.891V169H48.1992C48.1354 168.854 48.0853 168.66 48.0488 168.419C48.0124 168.173 47.9941 167.945 47.9941 167.735ZM48.2129 164.516L48.2266 165.404H46.9482C46.5882 165.404 46.2669 165.434 45.9844 165.493C45.7018 165.548 45.4648 165.632 45.2734 165.746C45.082 165.86 44.9362 166.004 44.8359 166.177C44.7357 166.345 44.6855 166.544 44.6855 166.771C44.6855 167.004 44.738 167.216 44.8428 167.407C44.9476 167.599 45.1048 167.751 45.3145 167.865C45.5286 167.975 45.7907 168.029 46.1006 168.029C46.488 168.029 46.8298 167.947 47.126 167.783C47.4222 167.619 47.6569 167.419 47.8301 167.182C48.0078 166.945 48.1035 166.715 48.1172 166.491L48.6572 167.1C48.6253 167.291 48.5387 167.503 48.3975 167.735C48.2562 167.968 48.0671 168.191 47.8301 168.405C47.5977 168.615 47.3197 168.79 46.9961 168.932C46.6771 169.068 46.3171 169.137 45.916 169.137C45.4147 169.137 44.9749 169.039 44.5967 168.843C44.223 168.647 43.9313 168.385 43.7217 168.057C43.5166 167.724 43.4141 167.353 43.4141 166.942C43.4141 166.546 43.4915 166.197 43.6465 165.896C43.8014 165.591 44.0247 165.338 44.3164 165.138C44.6081 164.933 44.959 164.778 45.3691 164.673C45.7793 164.568 46.2373 164.516 46.7432 164.516H48.2129ZM55.5547 167.038C55.5547 166.856 55.5137 166.687 55.4316 166.532C55.3542 166.373 55.1924 166.229 54.9463 166.102C54.7048 165.969 54.3402 165.855 53.8525 165.76C53.4424 165.673 53.071 165.571 52.7383 165.452C52.4102 165.334 52.1299 165.19 51.8975 165.021C51.6696 164.853 51.4941 164.655 51.3711 164.427C51.248 164.199 51.1865 163.932 51.1865 163.627C51.1865 163.335 51.2503 163.06 51.3779 162.8C51.5101 162.54 51.6947 162.31 51.9316 162.109C52.1732 161.909 52.4626 161.752 52.7998 161.638C53.137 161.524 53.513 161.467 53.9277 161.467C54.5202 161.467 55.026 161.572 55.4453 161.781C55.8646 161.991 56.1859 162.271 56.4092 162.622C56.6325 162.968 56.7441 163.354 56.7441 163.777H55.4795C55.4795 163.572 55.418 163.374 55.2949 163.183C55.1764 162.987 55.001 162.825 54.7686 162.697C54.5407 162.57 54.2604 162.506 53.9277 162.506C53.5768 162.506 53.292 162.561 53.0732 162.67C52.859 162.775 52.7018 162.909 52.6016 163.073C52.5059 163.237 52.458 163.41 52.458 163.593C52.458 163.729 52.4808 163.853 52.5264 163.962C52.5765 164.067 52.6631 164.165 52.7861 164.256C52.9092 164.342 53.0824 164.424 53.3057 164.502C53.529 164.579 53.8138 164.657 54.1602 164.734C54.7663 164.871 55.2653 165.035 55.6572 165.227C56.0492 165.418 56.3408 165.653 56.5322 165.931C56.7236 166.209 56.8193 166.546 56.8193 166.942C56.8193 167.266 56.751 167.562 56.6143 167.831C56.4821 168.1 56.2884 168.332 56.0332 168.528C55.7826 168.72 55.4818 168.87 55.1309 168.979C54.7845 169.084 54.3949 169.137 53.9619 169.137C53.3102 169.137 52.7588 169.021 52.3076 168.788C51.8564 168.556 51.5146 168.255 51.2822 167.886C51.0498 167.517 50.9336 167.127 50.9336 166.717H52.2051C52.2233 167.063 52.3236 167.339 52.5059 167.544C52.6882 167.744 52.9115 167.888 53.1758 167.975C53.4401 168.057 53.7021 168.098 53.9619 168.098C54.3083 168.098 54.5977 168.052 54.8301 167.961C55.0671 167.87 55.2471 167.744 55.3701 167.585C55.4932 167.425 55.5547 167.243 55.5547 167.038ZM61.5498 169.137C61.0348 169.137 60.5677 169.05 60.1484 168.877C59.7337 168.699 59.376 168.451 59.0752 168.132C58.779 167.813 58.5511 167.435 58.3916 166.997C58.2321 166.56 58.1523 166.081 58.1523 165.562V165.274C58.1523 164.673 58.2412 164.137 58.4189 163.668C58.5967 163.194 58.8382 162.793 59.1436 162.465C59.4489 162.137 59.7952 161.888 60.1826 161.72C60.57 161.551 60.971 161.467 61.3857 161.467C61.9144 161.467 62.3701 161.558 62.7529 161.74C63.1403 161.923 63.457 162.178 63.7031 162.506C63.9492 162.829 64.1315 163.212 64.25 163.654C64.3685 164.092 64.4277 164.57 64.4277 165.09V165.657H58.9043V164.625H63.1631V164.529C63.1449 164.201 63.0765 163.882 62.958 163.572C62.8441 163.262 62.6618 163.007 62.4111 162.807C62.1605 162.606 61.8187 162.506 61.3857 162.506C61.0986 162.506 60.8343 162.567 60.5928 162.69C60.3512 162.809 60.1439 162.987 59.9707 163.224C59.7975 163.461 59.6631 163.75 59.5674 164.092C59.4717 164.434 59.4238 164.828 59.4238 165.274V165.562C59.4238 165.912 59.4717 166.243 59.5674 166.553C59.6676 166.858 59.8112 167.127 59.998 167.359C60.1895 167.592 60.4196 167.774 60.6885 167.906C60.9619 168.038 61.2718 168.104 61.6182 168.104C62.0648 168.104 62.443 168.013 62.7529 167.831C63.0628 167.649 63.334 167.405 63.5664 167.1L64.332 167.708C64.1725 167.95 63.9697 168.18 63.7236 168.398C63.4775 168.617 63.1745 168.795 62.8145 168.932C62.459 169.068 62.0374 169.137 61.5498 169.137ZM69.001 161.604V162.574H65.002V161.604H69.001ZM66.3555 159.806H67.6201V167.168C67.6201 167.419 67.6589 167.608 67.7363 167.735C67.8138 167.863 67.9141 167.947 68.0371 167.988C68.1602 168.029 68.2923 168.05 68.4336 168.05C68.5384 168.05 68.6478 168.041 68.7617 168.022C68.8802 168 68.9691 167.981 69.0283 167.968L69.0352 169C68.9349 169.032 68.8027 169.062 68.6387 169.089C68.4792 169.121 68.2855 169.137 68.0576 169.137C67.7477 169.137 67.4629 169.075 67.2031 168.952C66.9434 168.829 66.736 168.624 66.5811 168.337C66.4307 168.045 66.3555 167.653 66.3555 167.161V159.806ZM78.3184 167.735V163.928C78.3184 163.636 78.2591 163.383 78.1406 163.169C78.0267 162.95 77.8535 162.782 77.6211 162.663C77.3887 162.545 77.1016 162.485 76.7598 162.485C76.4408 162.485 76.1605 162.54 75.9189 162.649C75.682 162.759 75.4951 162.902 75.3584 163.08C75.2262 163.258 75.1602 163.449 75.1602 163.654H73.8955C73.8955 163.39 73.9639 163.128 74.1006 162.868C74.2373 162.608 74.4333 162.374 74.6885 162.164C74.9482 161.95 75.2581 161.781 75.6182 161.658C75.9827 161.531 76.3883 161.467 76.835 161.467C77.3727 161.467 77.8467 161.558 78.2568 161.74C78.6715 161.923 78.9951 162.198 79.2275 162.567C79.4645 162.932 79.583 163.39 79.583 163.941V167.387C79.583 167.633 79.6035 167.895 79.6445 168.173C79.6901 168.451 79.7562 168.69 79.8428 168.891V169H78.5234C78.4596 168.854 78.4095 168.66 78.373 168.419C78.3366 168.173 78.3184 167.945 78.3184 167.735ZM78.5371 164.516L78.5508 165.404H77.2725C76.9124 165.404 76.5911 165.434 76.3086 165.493C76.026 165.548 75.7891 165.632 75.5977 165.746C75.4062 165.86 75.2604 166.004 75.1602 166.177C75.0599 166.345 75.0098 166.544 75.0098 166.771C75.0098 167.004 75.0622 167.216 75.167 167.407C75.2718 167.599 75.429 167.751 75.6387 167.865C75.8529 167.975 76.1149 168.029 76.4248 168.029C76.8122 168.029 77.154 167.947 77.4502 167.783C77.7464 167.619 77.9811 167.419 78.1543 167.182C78.332 166.945 78.4277 166.715 78.4414 166.491L78.9814 167.1C78.9495 167.291 78.863 167.503 78.7217 167.735C78.5804 167.968 78.3913 168.191 78.1543 168.405C77.9219 168.615 77.6439 168.79 77.3203 168.932C77.0013 169.068 76.6413 169.137 76.2402 169.137C75.7389 169.137 75.2992 169.039 74.9209 168.843C74.5472 168.647 74.2555 168.385 74.0459 168.057C73.8408 167.724 73.7383 167.353 73.7383 166.942C73.7383 166.546 73.8158 166.197 73.9707 165.896C74.1257 165.591 74.349 165.338 74.6406 165.138C74.9323 164.933 75.2832 164.778 75.6934 164.673C76.1035 164.568 76.5615 164.516 77.0674 164.516H78.5371ZM82.8369 163.183V169H81.5723V161.604H82.7686L82.8369 163.183ZM82.5361 165.021L82.0098 165.001C82.0143 164.495 82.0895 164.028 82.2354 163.6C82.3812 163.167 82.5863 162.791 82.8506 162.472C83.1149 162.153 83.4294 161.907 83.7939 161.733C84.1631 161.556 84.571 161.467 85.0176 161.467C85.3822 161.467 85.7103 161.517 86.002 161.617C86.2936 161.713 86.542 161.868 86.7471 162.082C86.9567 162.296 87.1162 162.574 87.2256 162.916C87.335 163.253 87.3896 163.666 87.3896 164.153V169H86.1182V164.14C86.1182 163.752 86.0612 163.442 85.9473 163.21C85.8333 162.973 85.667 162.802 85.4482 162.697C85.2295 162.588 84.9606 162.533 84.6416 162.533C84.3271 162.533 84.04 162.599 83.7803 162.731C83.5251 162.864 83.304 163.046 83.1172 163.278C82.9349 163.511 82.7913 163.777 82.6865 164.078C82.5863 164.374 82.5361 164.689 82.5361 165.021ZM93.9727 167.564V158.5H95.2441V169H94.082L93.9727 167.564ZM88.9961 165.384V165.24C88.9961 164.675 89.0645 164.162 89.2012 163.702C89.3424 163.237 89.5407 162.839 89.7959 162.506C90.0557 162.173 90.3633 161.918 90.7188 161.74C91.0788 161.558 91.4798 161.467 91.9219 161.467C92.3867 161.467 92.7923 161.549 93.1387 161.713C93.4896 161.872 93.7858 162.107 94.0273 162.417C94.2734 162.722 94.4671 163.091 94.6084 163.524C94.7497 163.957 94.8477 164.447 94.9023 164.994V165.623C94.8522 166.165 94.7542 166.653 94.6084 167.086C94.4671 167.519 94.2734 167.888 94.0273 168.193C93.7858 168.499 93.4896 168.733 93.1387 168.897C92.7878 169.057 92.3776 169.137 91.9082 169.137C91.4753 169.137 91.0788 169.043 90.7188 168.856C90.3633 168.67 90.0557 168.408 89.7959 168.07C89.5407 167.733 89.3424 167.337 89.2012 166.881C89.0645 166.421 88.9961 165.922 88.9961 165.384ZM90.2676 165.24V165.384C90.2676 165.753 90.304 166.099 90.377 166.423C90.4544 166.746 90.5729 167.031 90.7324 167.277C90.8919 167.523 91.0947 167.717 91.3408 167.858C91.5869 167.995 91.8809 168.063 92.2227 168.063C92.6419 168.063 92.986 167.975 93.2549 167.797C93.5283 167.619 93.7471 167.384 93.9111 167.093C94.0752 166.801 94.2028 166.484 94.2939 166.143V164.495C94.2393 164.244 94.1595 164.003 94.0547 163.771C93.9544 163.534 93.8223 163.324 93.6582 163.142C93.4987 162.955 93.3005 162.807 93.0635 162.697C92.8311 162.588 92.5553 162.533 92.2363 162.533C91.89 162.533 91.5915 162.606 91.3408 162.752C91.0947 162.893 90.8919 163.089 90.7324 163.34C90.5729 163.586 90.4544 163.873 90.377 164.201C90.304 164.525 90.2676 164.871 90.2676 165.24ZM101.943 163.073V169H100.672V161.604H101.875L101.943 163.073ZM101.684 165.021L101.096 165.001C101.1 164.495 101.166 164.028 101.294 163.6C101.422 163.167 101.611 162.791 101.861 162.472C102.112 162.153 102.424 161.907 102.798 161.733C103.172 161.556 103.604 161.467 104.097 161.467C104.443 161.467 104.762 161.517 105.054 161.617C105.345 161.713 105.598 161.866 105.812 162.075C106.027 162.285 106.193 162.554 106.312 162.882C106.43 163.21 106.489 163.606 106.489 164.071V169H105.225V164.133C105.225 163.745 105.159 163.436 105.026 163.203C104.899 162.971 104.716 162.802 104.479 162.697C104.243 162.588 103.965 162.533 103.646 162.533C103.272 162.533 102.96 162.599 102.709 162.731C102.458 162.864 102.258 163.046 102.107 163.278C101.957 163.511 101.848 163.777 101.779 164.078C101.715 164.374 101.684 164.689 101.684 165.021ZM106.476 164.324L105.628 164.584C105.632 164.178 105.699 163.789 105.826 163.415C105.958 163.041 106.147 162.709 106.394 162.417C106.644 162.125 106.952 161.895 107.316 161.727C107.681 161.553 108.098 161.467 108.567 161.467C108.964 161.467 109.315 161.519 109.62 161.624C109.93 161.729 110.19 161.891 110.399 162.109C110.614 162.324 110.775 162.599 110.885 162.937C110.994 163.274 111.049 163.675 111.049 164.14V169H109.777V164.126C109.777 163.711 109.711 163.39 109.579 163.162C109.451 162.93 109.269 162.768 109.032 162.677C108.8 162.581 108.522 162.533 108.198 162.533C107.92 162.533 107.674 162.581 107.46 162.677C107.246 162.772 107.066 162.905 106.92 163.073C106.774 163.237 106.662 163.426 106.585 163.641C106.512 163.855 106.476 164.083 106.476 164.324ZM112.628 165.384V165.227C112.628 164.693 112.705 164.199 112.86 163.743C113.015 163.283 113.239 162.884 113.53 162.547C113.822 162.205 114.175 161.941 114.59 161.754C115.005 161.562 115.469 161.467 115.984 161.467C116.504 161.467 116.971 161.562 117.386 161.754C117.805 161.941 118.16 162.205 118.452 162.547C118.748 162.884 118.974 163.283 119.129 163.743C119.284 164.199 119.361 164.693 119.361 165.227V165.384C119.361 165.917 119.284 166.411 119.129 166.867C118.974 167.323 118.748 167.722 118.452 168.063C118.16 168.401 117.807 168.665 117.393 168.856C116.982 169.043 116.518 169.137 115.998 169.137C115.479 169.137 115.011 169.043 114.597 168.856C114.182 168.665 113.826 168.401 113.53 168.063C113.239 167.722 113.015 167.323 112.86 166.867C112.705 166.411 112.628 165.917 112.628 165.384ZM113.893 165.227V165.384C113.893 165.753 113.936 166.102 114.022 166.43C114.109 166.753 114.239 167.04 114.412 167.291C114.59 167.542 114.811 167.74 115.075 167.886C115.34 168.027 115.647 168.098 115.998 168.098C116.344 168.098 116.647 168.027 116.907 167.886C117.172 167.74 117.39 167.542 117.563 167.291C117.737 167.04 117.867 166.753 117.953 166.43C118.044 166.102 118.09 165.753 118.09 165.384V165.227C118.09 164.862 118.044 164.518 117.953 164.194C117.867 163.866 117.734 163.577 117.557 163.326C117.383 163.071 117.165 162.87 116.9 162.725C116.641 162.579 116.335 162.506 115.984 162.506C115.638 162.506 115.333 162.579 115.068 162.725C114.809 162.87 114.59 163.071 114.412 163.326C114.239 163.577 114.109 163.866 114.022 164.194C113.936 164.518 113.893 164.862 113.893 165.227ZM125.609 167.564V158.5H126.881V169H125.719L125.609 167.564ZM120.633 165.384V165.24C120.633 164.675 120.701 164.162 120.838 163.702C120.979 163.237 121.177 162.839 121.433 162.506C121.692 162.173 122 161.918 122.355 161.74C122.715 161.558 123.117 161.467 123.559 161.467C124.023 161.467 124.429 161.549 124.775 161.713C125.126 161.872 125.423 162.107 125.664 162.417C125.91 162.722 126.104 163.091 126.245 163.524C126.386 163.957 126.484 164.447 126.539 164.994V165.623C126.489 166.165 126.391 166.653 126.245 167.086C126.104 167.519 125.91 167.888 125.664 168.193C125.423 168.499 125.126 168.733 124.775 168.897C124.424 169.057 124.014 169.137 123.545 169.137C123.112 169.137 122.715 169.043 122.355 168.856C122 168.67 121.692 168.408 121.433 168.07C121.177 167.733 120.979 167.337 120.838 166.881C120.701 166.421 120.633 165.922 120.633 165.384ZM121.904 165.24V165.384C121.904 165.753 121.941 166.099 122.014 166.423C122.091 166.746 122.21 167.031 122.369 167.277C122.529 167.523 122.731 167.717 122.978 167.858C123.224 167.995 123.518 168.063 123.859 168.063C124.279 168.063 124.623 167.975 124.892 167.797C125.165 167.619 125.384 167.384 125.548 167.093C125.712 166.801 125.84 166.484 125.931 166.143V164.495C125.876 164.244 125.796 164.003 125.691 163.771C125.591 163.534 125.459 163.324 125.295 163.142C125.135 162.955 124.937 162.807 124.7 162.697C124.468 162.588 124.192 162.533 123.873 162.533C123.527 162.533 123.228 162.606 122.978 162.752C122.731 162.893 122.529 163.089 122.369 163.34C122.21 163.586 122.091 163.873 122.014 164.201C121.941 164.525 121.904 164.871 121.904 165.24ZM131.919 169.137C131.404 169.137 130.937 169.05 130.518 168.877C130.103 168.699 129.745 168.451 129.444 168.132C129.148 167.813 128.92 167.435 128.761 166.997C128.601 166.56 128.521 166.081 128.521 165.562V165.274C128.521 164.673 128.61 164.137 128.788 163.668C128.966 163.194 129.207 162.793 129.513 162.465C129.818 162.137 130.164 161.888 130.552 161.72C130.939 161.551 131.34 161.467 131.755 161.467C132.284 161.467 132.739 161.558 133.122 161.74C133.509 161.923 133.826 162.178 134.072 162.506C134.318 162.829 134.501 163.212 134.619 163.654C134.738 164.092 134.797 164.57 134.797 165.09V165.657H129.273V164.625H133.532V164.529C133.514 164.201 133.446 163.882 133.327 163.572C133.213 163.262 133.031 163.007 132.78 162.807C132.53 162.606 132.188 162.506 131.755 162.506C131.468 162.506 131.203 162.567 130.962 162.69C130.72 162.809 130.513 162.987 130.34 163.224C130.167 163.461 130.032 163.75 129.937 164.092C129.841 164.434 129.793 164.828 129.793 165.274V165.562C129.793 165.912 129.841 166.243 129.937 166.553C130.037 166.858 130.18 167.127 130.367 167.359C130.559 167.592 130.789 167.774 131.058 167.906C131.331 168.038 131.641 168.104 131.987 168.104C132.434 168.104 132.812 168.013 133.122 167.831C133.432 167.649 133.703 167.405 133.936 167.1L134.701 167.708C134.542 167.95 134.339 168.18 134.093 168.398C133.847 168.617 133.544 168.795 133.184 168.932C132.828 169.068 132.407 169.137 131.919 169.137ZM137.647 158.5V169H136.376V158.5H137.647ZM47.2354 187.858L49.2588 181.604H50.5508L47.8916 189H47.0439L47.2354 187.858ZM45.5469 181.604L47.6318 187.893L47.7754 189H46.9277L44.248 181.604H45.5469ZM54.7412 189.137C54.2262 189.137 53.7591 189.05 53.3398 188.877C52.9251 188.699 52.5674 188.451 52.2666 188.132C51.9704 187.813 51.7425 187.435 51.583 186.997C51.4235 186.56 51.3438 186.081 51.3438 185.562V185.274C51.3438 184.673 51.4326 184.137 51.6104 183.668C51.7881 183.194 52.0296 182.793 52.335 182.465C52.6403 182.137 52.9867 181.888 53.374 181.72C53.7614 181.551 54.1624 181.467 54.5771 181.467C55.1058 181.467 55.5615 181.558 55.9443 181.74C56.3317 181.923 56.6484 182.178 56.8945 182.506C57.1406 182.829 57.3229 183.212 57.4414 183.654C57.5599 184.092 57.6191 184.57 57.6191 185.09V185.657H52.0957V184.625H56.3545V184.529C56.3363 184.201 56.2679 183.882 56.1494 183.572C56.0355 183.262 55.8532 183.007 55.6025 182.807C55.3519 182.606 55.0101 182.506 54.5771 182.506C54.29 182.506 54.0257 182.567 53.7842 182.69C53.5426 182.809 53.3353 182.987 53.1621 183.224C52.9889 183.461 52.8545 183.75 52.7588 184.092C52.6631 184.434 52.6152 184.828 52.6152 185.274V185.562C52.6152 185.912 52.6631 186.243 52.7588 186.553C52.859 186.858 53.0026 187.127 53.1895 187.359C53.3809 187.592 53.611 187.774 53.8799 187.906C54.1533 188.038 54.4632 188.104 54.8096 188.104C55.2562 188.104 55.6344 188.013 55.9443 187.831C56.2542 187.649 56.5254 187.405 56.7578 187.1L57.5234 187.708C57.3639 187.95 57.1611 188.18 56.915 188.398C56.6689 188.617 56.3659 188.795 56.0059 188.932C55.6504 189.068 55.2288 189.137 54.7412 189.137ZM60.3604 182.766V189H59.0957V181.604H60.3262L60.3604 182.766ZM62.6709 181.562L62.6641 182.738C62.5592 182.715 62.459 182.702 62.3633 182.697C62.2721 182.688 62.1673 182.684 62.0488 182.684C61.7572 182.684 61.4997 182.729 61.2764 182.82C61.0531 182.911 60.8639 183.039 60.709 183.203C60.554 183.367 60.431 183.563 60.3398 183.791C60.2533 184.014 60.1963 184.26 60.1689 184.529L59.8135 184.734C59.8135 184.288 59.8568 183.868 59.9434 183.477C60.0345 183.085 60.1735 182.738 60.3604 182.438C60.5472 182.132 60.7842 181.895 61.0713 181.727C61.363 181.553 61.7093 181.467 62.1104 181.467C62.2015 181.467 62.3063 181.478 62.4248 181.501C62.5433 181.519 62.6253 181.54 62.6709 181.562ZM68.1465 187.038C68.1465 186.856 68.1055 186.687 68.0234 186.532C67.946 186.373 67.7842 186.229 67.5381 186.102C67.2965 185.969 66.932 185.855 66.4443 185.76C66.0342 185.673 65.6628 185.571 65.3301 185.452C65.002 185.334 64.7217 185.19 64.4893 185.021C64.2614 184.853 64.0859 184.655 63.9629 184.427C63.8398 184.199 63.7783 183.932 63.7783 183.627C63.7783 183.335 63.8421 183.06 63.9697 182.8C64.1019 182.54 64.2865 182.31 64.5234 182.109C64.765 181.909 65.0544 181.752 65.3916 181.638C65.7288 181.524 66.1048 181.467 66.5195 181.467C67.112 181.467 67.6178 181.572 68.0371 181.781C68.4564 181.991 68.7777 182.271 69.001 182.622C69.2243 182.968 69.3359 183.354 69.3359 183.777H68.0713C68.0713 183.572 68.0098 183.374 67.8867 183.183C67.7682 182.987 67.5928 182.825 67.3604 182.697C67.1325 182.57 66.8522 182.506 66.5195 182.506C66.1686 182.506 65.8838 182.561 65.665 182.67C65.4508 182.775 65.2936 182.909 65.1934 183.073C65.0977 183.237 65.0498 183.41 65.0498 183.593C65.0498 183.729 65.0726 183.853 65.1182 183.962C65.1683 184.067 65.2549 184.165 65.3779 184.256C65.501 184.342 65.6742 184.424 65.8975 184.502C66.1208 184.579 66.4056 184.657 66.752 184.734C67.3581 184.871 67.8571 185.035 68.249 185.227C68.641 185.418 68.9326 185.653 69.124 185.931C69.3154 186.209 69.4111 186.546 69.4111 186.942C69.4111 187.266 69.3428 187.562 69.2061 187.831C69.0739 188.1 68.8802 188.332 68.625 188.528C68.3743 188.72 68.0736 188.87 67.7227 188.979C67.3763 189.084 66.9867 189.137 66.5537 189.137C65.902 189.137 65.3506 189.021 64.8994 188.788C64.4482 188.556 64.1064 188.255 63.874 187.886C63.6416 187.517 63.5254 187.127 63.5254 186.717H64.7969C64.8151 187.063 64.9154 187.339 65.0977 187.544C65.2799 187.744 65.5033 187.888 65.7676 187.975C66.0319 188.057 66.2939 188.098 66.5537 188.098C66.9001 188.098 67.1895 188.052 67.4219 187.961C67.6589 187.87 67.8389 187.744 67.9619 187.585C68.085 187.425 68.1465 187.243 68.1465 187.038ZM72.4463 181.604V189H71.1748V181.604H72.4463ZM71.0791 179.642C71.0791 179.437 71.1406 179.263 71.2637 179.122C71.3913 178.981 71.5781 178.91 71.8242 178.91C72.0658 178.91 72.2503 178.981 72.3779 179.122C72.5101 179.263 72.5762 179.437 72.5762 179.642C72.5762 179.838 72.5101 180.006 72.3779 180.147C72.2503 180.284 72.0658 180.353 71.8242 180.353C71.5781 180.353 71.3913 180.284 71.2637 180.147C71.1406 180.006 71.0791 179.838 71.0791 179.642ZM74.1416 185.384V185.227C74.1416 184.693 74.2191 184.199 74.374 183.743C74.529 183.283 74.7523 182.884 75.0439 182.547C75.3356 182.205 75.6888 181.941 76.1035 181.754C76.5182 181.562 76.9831 181.467 77.498 181.467C78.0176 181.467 78.4847 181.562 78.8994 181.754C79.3187 181.941 79.6742 182.205 79.9658 182.547C80.262 182.884 80.4876 183.283 80.6426 183.743C80.7975 184.199 80.875 184.693 80.875 185.227V185.384C80.875 185.917 80.7975 186.411 80.6426 186.867C80.4876 187.323 80.262 187.722 79.9658 188.063C79.6742 188.401 79.321 188.665 78.9062 188.856C78.4961 189.043 78.0312 189.137 77.5117 189.137C76.9922 189.137 76.5251 189.043 76.1104 188.856C75.6956 188.665 75.3402 188.401 75.0439 188.063C74.7523 187.722 74.529 187.323 74.374 186.867C74.2191 186.411 74.1416 185.917 74.1416 185.384ZM75.4062 185.227V185.384C75.4062 185.753 75.4495 186.102 75.5361 186.43C75.6227 186.753 75.7526 187.04 75.9258 187.291C76.1035 187.542 76.3245 187.74 76.5889 187.886C76.8532 188.027 77.1608 188.098 77.5117 188.098C77.8581 188.098 78.1611 188.027 78.4209 187.886C78.6852 187.74 78.904 187.542 79.0771 187.291C79.2503 187.04 79.3802 186.753 79.4668 186.43C79.5579 186.102 79.6035 185.753 79.6035 185.384V185.227C79.6035 184.862 79.5579 184.518 79.4668 184.194C79.3802 183.866 79.248 183.577 79.0703 183.326C78.8971 183.071 78.6784 182.87 78.4141 182.725C78.1543 182.579 77.849 182.506 77.498 182.506C77.1517 182.506 76.8464 182.579 76.582 182.725C76.3223 182.87 76.1035 183.071 75.9258 183.326C75.7526 183.577 75.6227 183.866 75.5361 184.194C75.4495 184.518 75.4062 184.862 75.4062 185.227ZM83.7256 183.183V189H82.4609V181.604H83.6572L83.7256 183.183ZM83.4248 185.021L82.8984 185.001C82.903 184.495 82.9782 184.028 83.124 183.6C83.2699 183.167 83.4749 182.791 83.7393 182.472C84.0036 182.153 84.318 181.907 84.6826 181.733C85.0518 181.556 85.4596 181.467 85.9062 181.467C86.2708 181.467 86.599 181.517 86.8906 181.617C87.1823 181.713 87.4307 181.868 87.6357 182.082C87.8454 182.296 88.0049 182.574 88.1143 182.916C88.2236 183.253 88.2783 183.666 88.2783 184.153V189H87.0068V184.14C87.0068 183.752 86.9499 183.442 86.8359 183.21C86.722 182.973 86.5557 182.802 86.3369 182.697C86.1182 182.588 85.8493 182.533 85.5303 182.533C85.2158 182.533 84.9287 182.599 84.6689 182.731C84.4137 182.864 84.1927 183.046 84.0059 183.278C83.8236 183.511 83.68 183.777 83.5752 184.078C83.4749 184.374 83.4248 184.689 83.4248 185.021ZM91.4639 183.183V189H90.1992V181.604H91.3955L91.4639 183.183ZM91.1631 185.021L90.6367 185.001C90.6413 184.495 90.7165 184.028 90.8623 183.6C91.0081 183.167 91.2132 182.791 91.4775 182.472C91.7419 182.153 92.0563 181.907 92.4209 181.733C92.79 181.556 93.1979 181.467 93.6445 181.467C94.0091 181.467 94.3372 181.517 94.6289 181.617C94.9206 181.713 95.1689 181.868 95.374 182.082C95.5837 182.296 95.7432 182.574 95.8525 182.916C95.9619 183.253 96.0166 183.666 96.0166 184.153V189H94.7451V184.14C94.7451 183.752 94.6882 183.442 94.5742 183.21C94.4603 182.973 94.2939 182.802 94.0752 182.697C93.8564 182.588 93.5876 182.533 93.2686 182.533C92.9541 182.533 92.667 182.599 92.4072 182.731C92.152 182.864 91.931 183.046 91.7441 183.278C91.5618 183.511 91.4183 183.777 91.3135 184.078C91.2132 184.374 91.1631 184.689 91.1631 185.021ZM99.3115 181.604V189H98.04V181.604H99.3115ZM97.9443 179.642C97.9443 179.437 98.0059 179.263 98.1289 179.122C98.2565 178.981 98.4434 178.91 98.6895 178.91C98.931 178.91 99.1156 178.981 99.2432 179.122C99.3753 179.263 99.4414 179.437 99.4414 179.642C99.4414 179.838 99.3753 180.006 99.2432 180.147C99.1156 180.284 98.931 180.353 98.6895 180.353C98.4434 180.353 98.2565 180.284 98.1289 180.147C98.0059 180.006 97.9443 179.838 97.9443 179.642ZM102.606 183.183V189H101.342V181.604H102.538L102.606 183.183ZM102.306 185.021L101.779 185.001C101.784 184.495 101.859 184.028 102.005 183.6C102.151 183.167 102.356 182.791 102.62 182.472C102.884 182.153 103.199 181.907 103.563 181.733C103.933 181.556 104.34 181.467 104.787 181.467C105.152 181.467 105.48 181.517 105.771 181.617C106.063 181.713 106.312 181.868 106.517 182.082C106.726 182.296 106.886 182.574 106.995 182.916C107.104 183.253 107.159 183.666 107.159 184.153V189H105.888V184.14C105.888 183.752 105.831 183.442 105.717 183.21C105.603 182.973 105.437 182.802 105.218 182.697C104.999 182.588 104.73 182.533 104.411 182.533C104.097 182.533 103.81 182.599 103.55 182.731C103.295 182.864 103.074 183.046 102.887 183.278C102.704 183.511 102.561 183.777 102.456 184.078C102.356 184.374 102.306 184.689 102.306 185.021ZM113.872 181.604H115.021V188.843C115.021 189.494 114.888 190.05 114.624 190.511C114.36 190.971 113.991 191.32 113.517 191.557C113.047 191.798 112.505 191.919 111.89 191.919C111.634 191.919 111.334 191.878 110.987 191.796C110.646 191.718 110.308 191.584 109.976 191.393C109.647 191.206 109.372 190.953 109.148 190.634L109.812 189.882C110.121 190.256 110.445 190.515 110.782 190.661C111.124 190.807 111.461 190.88 111.794 190.88C112.195 190.88 112.541 190.805 112.833 190.654C113.125 190.504 113.35 190.281 113.51 189.984C113.674 189.693 113.756 189.333 113.756 188.904V183.23L113.872 181.604ZM108.779 185.384V185.24C108.779 184.675 108.845 184.162 108.978 183.702C109.114 183.237 109.308 182.839 109.559 182.506C109.814 182.173 110.121 181.918 110.481 181.74C110.841 181.558 111.247 181.467 111.698 181.467C112.163 181.467 112.569 181.549 112.915 181.713C113.266 181.872 113.562 182.107 113.804 182.417C114.05 182.722 114.243 183.091 114.385 183.524C114.526 183.957 114.624 184.447 114.679 184.994V185.623C114.629 186.165 114.531 186.653 114.385 187.086C114.243 187.519 114.05 187.888 113.804 188.193C113.562 188.499 113.266 188.733 112.915 188.897C112.564 189.057 112.154 189.137 111.685 189.137C111.243 189.137 110.841 189.043 110.481 188.856C110.126 188.67 109.821 188.408 109.565 188.07C109.31 187.733 109.114 187.337 108.978 186.881C108.845 186.421 108.779 185.922 108.779 185.384ZM110.044 185.24V185.384C110.044 185.753 110.08 186.099 110.153 186.423C110.231 186.746 110.347 187.031 110.502 187.277C110.661 187.523 110.864 187.717 111.11 187.858C111.356 187.995 111.65 188.063 111.992 188.063C112.411 188.063 112.758 187.975 113.031 187.797C113.305 187.619 113.521 187.384 113.681 187.093C113.845 186.801 113.972 186.484 114.063 186.143V184.495C114.013 184.244 113.936 184.003 113.831 183.771C113.731 183.534 113.599 183.324 113.435 183.142C113.275 182.955 113.077 182.807 112.84 182.697C112.603 182.588 112.325 182.533 112.006 182.533C111.66 182.533 111.361 182.606 111.11 182.752C110.864 182.893 110.661 183.089 110.502 183.34C110.347 183.586 110.231 183.873 110.153 184.201C110.08 184.525 110.044 184.871 110.044 185.24Z" fill="#949699"/>
<defs>
<linearGradient id="paint0_linear_3944_24495" x1="89.329" y1="30.1013" x2="77.1415" y2="149.43" gradientUnits="userSpaceOnUse">
<stop offset="0.1975" stop-color="#FFB666"/>
<stop offset="0.95505" stop-color="#FF0E65"/>
</linearGradient>
<linearGradient id="paint1_linear_3944_24495" x1="89.329" y1="30.1013" x2="77.1415" y2="149.43" gradientUnits="userSpaceOnUse">
<stop offset="0.1975" stop-color="#FFB666"/>
<stop offset="0.95505" stop-color="#FF0E65"/>
</linearGradient>
<linearGradient id="paint2_linear_3944_24495" x1="89.329" y1="30.1013" x2="77.1415" y2="149.43" gradientUnits="userSpaceOnUse">
<stop offset="0.1975" stop-color="#FFB666"/>
<stop offset="0.95505" stop-color="#FF0E65"/>
</linearGradient>
</defs>
</svg>
