<svg width="160" height="192" viewBox="0 0 160 192" fill="none" xmlns="http://www.w3.org/2000/svg">
<path d="M48.0664 124.676L43.8184 137H41.25L46.6016 122.781H48.2422L48.0664 124.676ZM51.6211 137L47.3633 124.676L47.1777 122.781H48.8281L54.1992 137H51.6211ZM51.416 131.727V133.67H43.6816V131.727H51.416ZM57.9199 128.445V137H55.5664V126.434H57.8125L57.9199 128.445ZM61.1523 126.365L61.1328 128.553C60.9896 128.527 60.8333 128.507 60.6641 128.494C60.5013 128.481 60.3385 128.475 60.1758 128.475C59.7721 128.475 59.4173 128.533 59.1113 128.65C58.8053 128.761 58.5482 128.924 58.3398 129.139C58.138 129.347 57.9818 129.601 57.8711 129.9C57.7604 130.2 57.6953 130.535 57.6758 130.906L57.1387 130.945C57.1387 130.281 57.2038 129.666 57.334 129.1C57.4642 128.533 57.6595 128.035 57.9199 127.605C58.1868 127.176 58.5189 126.84 58.916 126.6C59.3197 126.359 59.7852 126.238 60.3125 126.238C60.4557 126.238 60.6087 126.251 60.7715 126.277C60.9408 126.303 61.0677 126.333 61.1523 126.365ZM67.959 126.434V128.152H62.002V126.434H67.959ZM63.7207 123.846H66.0742V134.08C66.0742 134.406 66.1198 134.656 66.2109 134.832C66.3086 135.001 66.4421 135.115 66.6113 135.174C66.7806 135.232 66.9792 135.262 67.207 135.262C67.3698 135.262 67.526 135.252 67.6758 135.232C67.8255 135.213 67.946 135.193 68.0371 135.174L68.0469 136.971C67.8516 137.029 67.6237 137.081 67.3633 137.127C67.1094 137.173 66.8164 137.195 66.4844 137.195C65.944 137.195 65.4655 137.101 65.0488 136.912C64.6322 136.717 64.3066 136.401 64.0723 135.965C63.8379 135.529 63.7207 134.949 63.7207 134.227V123.846ZM72.2949 126.434V137H69.9316V126.434H72.2949ZM69.7754 123.66C69.7754 123.302 69.8926 123.006 70.127 122.771C70.3678 122.531 70.6999 122.41 71.123 122.41C71.5397 122.41 71.8685 122.531 72.1094 122.771C72.3503 123.006 72.4707 123.302 72.4707 123.66C72.4707 124.012 72.3503 124.305 72.1094 124.539C71.8685 124.773 71.5397 124.891 71.123 124.891C70.6999 124.891 70.3678 124.773 70.127 124.539C69.8926 124.305 69.7754 124.012 69.7754 123.66ZM78.0566 137H75.7031V125.418C75.7031 124.63 75.8496 123.969 76.1426 123.436C76.4421 122.895 76.8685 122.488 77.4219 122.215C77.9753 121.935 78.6296 121.795 79.3848 121.795C79.6191 121.795 79.8503 121.811 80.0781 121.844C80.306 121.87 80.5273 121.912 80.7422 121.971L80.6836 123.787C80.5534 123.755 80.4102 123.732 80.2539 123.719C80.1042 123.706 79.9414 123.699 79.7656 123.699C79.4076 123.699 79.0983 123.768 78.8379 123.904C78.584 124.035 78.3887 124.227 78.252 124.48C78.1217 124.734 78.0566 125.047 78.0566 125.418V137ZM80.2344 126.434V128.152H74.082V126.434H80.2344ZM87.9004 134.881V129.842C87.9004 129.464 87.832 129.139 87.6953 128.865C87.5586 128.592 87.3503 128.38 87.0703 128.23C86.7969 128.081 86.4518 128.006 86.0352 128.006C85.651 128.006 85.319 128.071 85.0391 128.201C84.7591 128.331 84.541 128.507 84.3848 128.729C84.2285 128.95 84.1504 129.201 84.1504 129.48H81.8066C81.8066 129.064 81.9076 128.66 82.1094 128.27C82.3112 127.879 82.6042 127.531 82.9883 127.225C83.3724 126.919 83.8314 126.678 84.3652 126.502C84.8991 126.326 85.498 126.238 86.1621 126.238C86.9564 126.238 87.6595 126.372 88.2715 126.639C88.89 126.906 89.375 127.309 89.7266 127.85C90.0846 128.383 90.2637 129.054 90.2637 129.861V134.559C90.2637 135.04 90.2962 135.473 90.3613 135.857C90.4329 136.235 90.5339 136.564 90.6641 136.844V137H88.252C88.1413 136.746 88.0534 136.424 87.9883 136.033C87.9297 135.636 87.9004 135.252 87.9004 134.881ZM88.2422 130.574L88.2617 132.029H86.5723C86.1361 132.029 85.752 132.072 85.4199 132.156C85.0879 132.234 84.8112 132.352 84.5898 132.508C84.3685 132.664 84.2025 132.853 84.0918 133.074C83.9811 133.296 83.9258 133.546 83.9258 133.826C83.9258 134.106 83.9909 134.363 84.1211 134.598C84.2513 134.826 84.4401 135.005 84.6875 135.135C84.9414 135.265 85.2474 135.33 85.6055 135.33C86.0872 135.33 86.5072 135.232 86.8652 135.037C87.2298 134.835 87.5163 134.591 87.7246 134.305C87.9329 134.012 88.0436 133.735 88.0566 133.475L88.8184 134.52C88.7402 134.786 88.6068 135.073 88.418 135.379C88.2292 135.685 87.9818 135.978 87.6758 136.258C87.3763 136.531 87.015 136.756 86.5918 136.932C86.1751 137.107 85.6934 137.195 85.1465 137.195C84.4564 137.195 83.8411 137.059 83.3008 136.785C82.7604 136.505 82.3372 136.131 82.0312 135.662C81.7253 135.187 81.5723 134.65 81.5723 134.051C81.5723 133.491 81.6764 132.996 81.8848 132.566C82.0996 132.13 82.4121 131.766 82.8223 131.473C83.2389 131.18 83.7467 130.958 84.3457 130.809C84.9447 130.652 85.6283 130.574 86.3965 130.574H88.2422ZM97.041 135.32C97.4251 135.32 97.7702 135.245 98.0762 135.096C98.3887 134.939 98.6393 134.725 98.8281 134.451C99.0234 134.178 99.1309 133.862 99.1504 133.504H101.367C101.354 134.188 101.152 134.809 100.762 135.369C100.371 135.929 99.8535 136.375 99.209 136.707C98.5645 137.033 97.8516 137.195 97.0703 137.195C96.263 137.195 95.5599 137.059 94.9609 136.785C94.362 136.505 93.8639 136.121 93.4668 135.633C93.0697 135.145 92.7702 134.581 92.5684 133.943C92.373 133.305 92.2754 132.622 92.2754 131.893V131.551C92.2754 130.822 92.373 130.138 92.5684 129.5C92.7702 128.855 93.0697 128.289 93.4668 127.801C93.8639 127.312 94.362 126.932 94.9609 126.658C95.5599 126.378 96.2598 126.238 97.0605 126.238C97.9069 126.238 98.6491 126.408 99.2871 126.746C99.9251 127.078 100.426 127.544 100.791 128.143C101.162 128.735 101.354 129.425 101.367 130.213H99.1504C99.1309 129.822 99.0332 129.471 98.8574 129.158C98.6882 128.839 98.4473 128.585 98.1348 128.396C97.8288 128.208 97.4609 128.113 97.0312 128.113C96.556 128.113 96.1621 128.211 95.8496 128.406C95.5371 128.595 95.293 128.855 95.1172 129.188C94.9414 129.513 94.8145 129.881 94.7363 130.291C94.6647 130.695 94.6289 131.115 94.6289 131.551V131.893C94.6289 132.329 94.6647 132.752 94.7363 133.162C94.8079 133.572 94.9316 133.94 95.1074 134.266C95.2897 134.585 95.5371 134.842 95.8496 135.037C96.1621 135.226 96.5592 135.32 97.041 135.32ZM108.018 126.434V128.152H102.061V126.434H108.018ZM103.779 123.846H106.133V134.08C106.133 134.406 106.178 134.656 106.27 134.832C106.367 135.001 106.501 135.115 106.67 135.174C106.839 135.232 107.038 135.262 107.266 135.262C107.428 135.262 107.585 135.252 107.734 135.232C107.884 135.213 108.005 135.193 108.096 135.174L108.105 136.971C107.91 137.029 107.682 137.081 107.422 137.127C107.168 137.173 106.875 137.195 106.543 137.195C106.003 137.195 105.524 137.101 105.107 136.912C104.691 136.717 104.365 136.401 104.131 135.965C103.896 135.529 103.779 134.949 103.779 134.227V123.846ZM115.762 134.139C115.762 133.904 115.703 133.693 115.586 133.504C115.469 133.309 115.244 133.133 114.912 132.977C114.587 132.82 114.105 132.677 113.467 132.547C112.907 132.423 112.393 132.277 111.924 132.107C111.462 131.932 111.064 131.72 110.732 131.473C110.4 131.225 110.143 130.932 109.961 130.594C109.779 130.255 109.688 129.865 109.688 129.422C109.688 128.992 109.782 128.585 109.971 128.201C110.16 127.817 110.43 127.479 110.781 127.186C111.133 126.893 111.559 126.661 112.061 126.492C112.568 126.323 113.135 126.238 113.76 126.238C114.645 126.238 115.404 126.388 116.035 126.688C116.673 126.98 117.161 127.381 117.5 127.889C117.839 128.39 118.008 128.956 118.008 129.588H115.654C115.654 129.308 115.583 129.048 115.439 128.807C115.303 128.559 115.094 128.361 114.814 128.211C114.535 128.055 114.183 127.977 113.76 127.977C113.356 127.977 113.021 128.042 112.754 128.172C112.493 128.296 112.298 128.458 112.168 128.66C112.044 128.862 111.982 129.083 111.982 129.324C111.982 129.5 112.015 129.66 112.08 129.803C112.152 129.939 112.269 130.066 112.432 130.184C112.594 130.294 112.816 130.398 113.096 130.496C113.382 130.594 113.74 130.688 114.17 130.779C114.977 130.949 115.671 131.167 116.25 131.434C116.836 131.694 117.285 132.033 117.598 132.449C117.91 132.859 118.066 133.38 118.066 134.012C118.066 134.48 117.965 134.91 117.764 135.301C117.568 135.685 117.282 136.02 116.904 136.307C116.527 136.587 116.074 136.805 115.547 136.961C115.026 137.117 114.44 137.195 113.789 137.195C112.832 137.195 112.021 137.026 111.357 136.688C110.693 136.342 110.189 135.903 109.844 135.369C109.505 134.829 109.336 134.269 109.336 133.689H111.611C111.637 134.126 111.758 134.474 111.973 134.734C112.194 134.988 112.467 135.174 112.793 135.291C113.125 135.402 113.467 135.457 113.818 135.457C114.242 135.457 114.596 135.402 114.883 135.291C115.169 135.174 115.387 135.018 115.537 134.822C115.687 134.62 115.762 134.393 115.762 134.139Z" fill="#33383D"/>
<path d="M21.2158 166H18.9893L19.0039 164.85H21.2158C21.9775 164.85 22.6123 164.691 23.1201 164.374C23.6279 164.052 24.0088 163.603 24.2627 163.026C24.5215 162.445 24.6509 161.767 24.6509 160.99V160.338C24.6509 159.728 24.5776 159.186 24.4312 158.712C24.2847 158.234 24.0698 157.831 23.7866 157.504C23.5034 157.172 23.1567 156.92 22.7466 156.75C22.3413 156.579 21.875 156.493 21.3477 156.493H18.9453V155.336H21.3477C22.0459 155.336 22.6831 155.453 23.2593 155.688C23.8354 155.917 24.3311 156.251 24.7461 156.691C25.166 157.125 25.4883 157.653 25.7129 158.273C25.9375 158.888 26.0498 159.582 26.0498 160.353V160.99C26.0498 161.762 25.9375 162.458 25.7129 163.078C25.4883 163.693 25.1636 164.218 24.7388 164.652C24.3188 165.087 23.811 165.421 23.2153 165.656C22.6245 165.885 21.958 166 21.2158 166ZM19.7437 155.336V166H18.3301V155.336H19.7437ZM32.6416 164.645V160.565C32.6416 160.253 32.5781 159.982 32.4512 159.752C32.3291 159.518 32.1436 159.337 31.8945 159.21C31.6455 159.083 31.3379 159.02 30.9717 159.02C30.6299 159.02 30.3296 159.079 30.0708 159.196C29.8169 159.313 29.6167 159.467 29.4702 159.657C29.3286 159.848 29.2578 160.053 29.2578 160.272H27.9028C27.9028 159.989 27.9761 159.708 28.1226 159.43C28.269 159.152 28.479 158.9 28.7524 158.676C29.0308 158.446 29.3628 158.266 29.7485 158.134C30.1392 157.997 30.5737 157.929 31.0522 157.929C31.6284 157.929 32.1362 158.026 32.5757 158.222C33.02 158.417 33.3667 158.712 33.6157 159.108C33.8696 159.499 33.9966 159.989 33.9966 160.58V164.271C33.9966 164.535 34.0186 164.816 34.0625 165.114C34.1113 165.412 34.1821 165.668 34.2749 165.883V166H32.8613C32.793 165.844 32.7393 165.636 32.7002 165.377C32.6611 165.114 32.6416 164.87 32.6416 164.645ZM32.876 161.195L32.8906 162.147H31.521C31.1353 162.147 30.791 162.179 30.4883 162.243C30.1855 162.301 29.9316 162.392 29.7266 162.514C29.5215 162.636 29.3652 162.79 29.2578 162.975C29.1504 163.156 29.0967 163.368 29.0967 163.612C29.0967 163.861 29.1528 164.088 29.2651 164.293C29.3774 164.499 29.5459 164.662 29.7705 164.784C30 164.901 30.2808 164.96 30.6128 164.96C31.0278 164.96 31.394 164.872 31.7114 164.696C32.0288 164.521 32.2803 164.306 32.4658 164.052C32.6562 163.798 32.7588 163.551 32.7734 163.312L33.3521 163.964C33.3179 164.169 33.2251 164.396 33.0737 164.645C32.9224 164.894 32.7197 165.133 32.4658 165.363C32.2168 165.587 31.9189 165.775 31.5723 165.927C31.2305 166.073 30.8447 166.146 30.415 166.146C29.8779 166.146 29.4067 166.042 29.0015 165.832C28.6011 165.622 28.2886 165.341 28.064 164.989C27.8442 164.633 27.7344 164.235 27.7344 163.795C27.7344 163.371 27.8174 162.997 27.9834 162.675C28.1494 162.348 28.3887 162.077 28.7012 161.862C29.0137 161.642 29.3896 161.476 29.8291 161.364C30.2686 161.251 30.7593 161.195 31.3013 161.195H32.876ZM39.4458 158.075V159.115H35.1611V158.075H39.4458ZM36.6113 156.149H37.9663V164.037C37.9663 164.306 38.0078 164.508 38.0908 164.645C38.1738 164.782 38.2812 164.872 38.4131 164.916C38.5449 164.96 38.6865 164.982 38.8379 164.982C38.9502 164.982 39.0674 164.972 39.1895 164.953C39.3164 164.928 39.4116 164.909 39.4751 164.894L39.4824 166C39.375 166.034 39.2334 166.066 39.0576 166.095C38.8867 166.129 38.6792 166.146 38.4351 166.146C38.103 166.146 37.7979 166.081 37.5195 165.949C37.2412 165.817 37.019 165.597 36.853 165.29C36.6919 164.977 36.6113 164.557 36.6113 164.03V156.149ZM45.708 164.645V160.565C45.708 160.253 45.6445 159.982 45.5176 159.752C45.3955 159.518 45.21 159.337 44.9609 159.21C44.7119 159.083 44.4043 159.02 44.0381 159.02C43.6963 159.02 43.396 159.079 43.1372 159.196C42.8833 159.313 42.6831 159.467 42.5366 159.657C42.395 159.848 42.3242 160.053 42.3242 160.272H40.9692C40.9692 159.989 41.0425 159.708 41.189 159.43C41.3354 159.152 41.5454 158.9 41.8188 158.676C42.0972 158.446 42.4292 158.266 42.8149 158.134C43.2056 157.997 43.6401 157.929 44.1187 157.929C44.6948 157.929 45.2026 158.026 45.6421 158.222C46.0864 158.417 46.4331 158.712 46.6821 159.108C46.936 159.499 47.063 159.989 47.063 160.58V164.271C47.063 164.535 47.085 164.816 47.1289 165.114C47.1777 165.412 47.2485 165.668 47.3413 165.883V166H45.9277C45.8594 165.844 45.8057 165.636 45.7666 165.377C45.7275 165.114 45.708 164.87 45.708 164.645ZM45.9424 161.195L45.957 162.147H44.5874C44.2017 162.147 43.8574 162.179 43.5547 162.243C43.252 162.301 42.998 162.392 42.793 162.514C42.5879 162.636 42.4316 162.79 42.3242 162.975C42.2168 163.156 42.1631 163.368 42.1631 163.612C42.1631 163.861 42.2192 164.088 42.3315 164.293C42.4438 164.499 42.6123 164.662 42.8369 164.784C43.0664 164.901 43.3472 164.96 43.6792 164.96C44.0942 164.96 44.4604 164.872 44.7778 164.696C45.0952 164.521 45.3467 164.306 45.5322 164.052C45.7227 163.798 45.8252 163.551 45.8398 163.312L46.4185 163.964C46.3843 164.169 46.2915 164.396 46.1401 164.645C45.9888 164.894 45.7861 165.133 45.5322 165.363C45.2832 165.587 44.9854 165.775 44.6387 165.927C44.2969 166.073 43.9111 166.146 43.4814 166.146C42.9443 166.146 42.4731 166.042 42.0679 165.832C41.6675 165.622 41.355 165.341 41.1304 164.989C40.9106 164.633 40.8008 164.235 40.8008 163.795C40.8008 163.371 40.8838 162.997 41.0498 162.675C41.2158 162.348 41.4551 162.077 41.7676 161.862C42.0801 161.642 42.4561 161.476 42.8955 161.364C43.335 161.251 43.8257 161.195 44.3677 161.195H45.9424ZM53.8086 163.898C53.8086 163.703 53.7646 163.522 53.6768 163.356C53.5938 163.185 53.4204 163.031 53.1567 162.895C52.8979 162.753 52.5073 162.631 51.9849 162.528C51.5454 162.436 51.1475 162.326 50.791 162.199C50.4395 162.072 50.1392 161.918 49.8901 161.737C49.646 161.557 49.458 161.344 49.3262 161.1C49.1943 160.856 49.1284 160.57 49.1284 160.243C49.1284 159.931 49.1968 159.635 49.3335 159.357C49.4751 159.079 49.6729 158.832 49.9268 158.617C50.1855 158.402 50.4956 158.234 50.8569 158.112C51.2183 157.99 51.6211 157.929 52.0654 157.929C52.7002 157.929 53.2422 158.041 53.6914 158.266C54.1406 158.49 54.4849 158.791 54.7241 159.167C54.9634 159.538 55.083 159.95 55.083 160.404H53.728C53.728 160.185 53.6621 159.972 53.5303 159.767C53.4033 159.557 53.2153 159.384 52.9663 159.247C52.7222 159.11 52.4219 159.042 52.0654 159.042C51.6895 159.042 51.3843 159.101 51.1499 159.218C50.9204 159.33 50.752 159.474 50.6445 159.65C50.542 159.826 50.4907 160.011 50.4907 160.207C50.4907 160.353 50.5151 160.485 50.564 160.602C50.6177 160.714 50.7104 160.819 50.8423 160.917C50.9741 161.01 51.1597 161.098 51.3989 161.181C51.6382 161.264 51.9434 161.347 52.3145 161.43C52.9639 161.576 53.4985 161.752 53.9185 161.957C54.3384 162.162 54.6509 162.414 54.856 162.711C55.061 163.009 55.1636 163.371 55.1636 163.795C55.1636 164.142 55.0903 164.459 54.9438 164.748C54.8022 165.036 54.5947 165.285 54.3213 165.495C54.0527 165.7 53.7305 165.861 53.3545 165.978C52.9834 166.09 52.5659 166.146 52.1021 166.146C51.4038 166.146 50.813 166.022 50.3296 165.773C49.8462 165.524 49.48 165.202 49.231 164.806C48.9819 164.411 48.8574 163.993 48.8574 163.554H50.2197C50.2393 163.925 50.3467 164.22 50.542 164.44C50.7373 164.655 50.9766 164.809 51.2598 164.901C51.543 164.989 51.8237 165.033 52.1021 165.033C52.4731 165.033 52.7832 164.984 53.0322 164.887C53.2861 164.789 53.479 164.655 53.6108 164.484C53.7427 164.313 53.8086 164.118 53.8086 163.898ZM60.2319 166.146C59.6802 166.146 59.1797 166.054 58.7305 165.868C58.2861 165.678 57.9028 165.412 57.5806 165.07C57.2632 164.728 57.019 164.323 56.8481 163.854C56.6772 163.385 56.5918 162.873 56.5918 162.316V162.008C56.5918 161.364 56.687 160.79 56.8774 160.287C57.0679 159.779 57.3267 159.35 57.6538 158.998C57.981 158.646 58.3521 158.38 58.7671 158.2C59.1821 158.019 59.6118 157.929 60.0562 157.929C60.6226 157.929 61.1108 158.026 61.521 158.222C61.936 158.417 62.2754 158.69 62.5391 159.042C62.8027 159.389 62.998 159.799 63.125 160.272C63.252 160.741 63.3154 161.254 63.3154 161.811V162.418H57.3975V161.312H61.9604V161.21C61.9409 160.858 61.8677 160.517 61.7407 160.185C61.6187 159.853 61.4233 159.579 61.1548 159.364C60.8862 159.149 60.52 159.042 60.0562 159.042C59.7485 159.042 59.4653 159.108 59.2065 159.24C58.9478 159.367 58.7256 159.557 58.54 159.811C58.3545 160.065 58.2104 160.375 58.1079 160.741C58.0054 161.107 57.9541 161.53 57.9541 162.008V162.316C57.9541 162.692 58.0054 163.046 58.1079 163.378C58.2153 163.705 58.3691 163.993 58.5693 164.242C58.7744 164.491 59.021 164.687 59.3091 164.828C59.6021 164.97 59.9341 165.041 60.3052 165.041C60.7837 165.041 61.189 164.943 61.521 164.748C61.853 164.552 62.1436 164.291 62.3926 163.964L63.2129 164.616C63.042 164.875 62.8247 165.121 62.561 165.355C62.2974 165.59 61.9727 165.78 61.5869 165.927C61.2061 166.073 60.7544 166.146 60.2319 166.146ZM68.2153 158.075V159.115H63.9307V158.075H68.2153ZM65.3809 156.149H66.7358V164.037C66.7358 164.306 66.7773 164.508 66.8604 164.645C66.9434 164.782 67.0508 164.872 67.1826 164.916C67.3145 164.96 67.4561 164.982 67.6074 164.982C67.7197 164.982 67.8369 164.972 67.959 164.953C68.0859 164.928 68.1812 164.909 68.2446 164.894L68.252 166C68.1445 166.034 68.0029 166.066 67.8271 166.095C67.6562 166.129 67.4487 166.146 67.2046 166.146C66.8726 166.146 66.5674 166.081 66.2891 165.949C66.0107 165.817 65.7886 165.597 65.6226 165.29C65.4614 164.977 65.3809 164.557 65.3809 164.03V156.149ZM78.1982 164.645V160.565C78.1982 160.253 78.1348 159.982 78.0078 159.752C77.8857 159.518 77.7002 159.337 77.4512 159.21C77.2021 159.083 76.8945 159.02 76.5283 159.02C76.1865 159.02 75.8862 159.079 75.6274 159.196C75.3735 159.313 75.1733 159.467 75.0269 159.657C74.8853 159.848 74.8145 160.053 74.8145 160.272H73.4595C73.4595 159.989 73.5327 159.708 73.6792 159.43C73.8257 159.152 74.0356 158.9 74.3091 158.676C74.5874 158.446 74.9194 158.266 75.3052 158.134C75.6958 157.997 76.1304 157.929 76.6089 157.929C77.1851 157.929 77.6929 158.026 78.1323 158.222C78.5767 158.417 78.9233 158.712 79.1724 159.108C79.4263 159.499 79.5532 159.989 79.5532 160.58V164.271C79.5532 164.535 79.5752 164.816 79.6191 165.114C79.668 165.412 79.7388 165.668 79.8315 165.883V166H78.418C78.3496 165.844 78.2959 165.636 78.2568 165.377C78.2178 165.114 78.1982 164.87 78.1982 164.645ZM78.4326 161.195L78.4473 162.147H77.0776C76.6919 162.147 76.3477 162.179 76.0449 162.243C75.7422 162.301 75.4883 162.392 75.2832 162.514C75.0781 162.636 74.9219 162.79 74.8145 162.975C74.707 163.156 74.6533 163.368 74.6533 163.612C74.6533 163.861 74.7095 164.088 74.8218 164.293C74.9341 164.499 75.1025 164.662 75.3271 164.784C75.5566 164.901 75.8374 164.96 76.1694 164.96C76.5845 164.96 76.9507 164.872 77.2681 164.696C77.5854 164.521 77.8369 164.306 78.0225 164.052C78.2129 163.798 78.3154 163.551 78.3301 163.312L78.9087 163.964C78.8745 164.169 78.7817 164.396 78.6304 164.645C78.479 164.894 78.2764 165.133 78.0225 165.363C77.7734 165.587 77.4756 165.775 77.1289 165.927C76.7871 166.073 76.4014 166.146 75.9717 166.146C75.4346 166.146 74.9634 166.042 74.5581 165.832C74.1577 165.622 73.8452 165.341 73.6206 164.989C73.4009 164.633 73.291 164.235 73.291 163.795C73.291 163.371 73.374 162.997 73.54 162.675C73.7061 162.348 73.9453 162.077 74.2578 161.862C74.5703 161.642 74.9463 161.476 75.3857 161.364C75.8252 161.251 76.3159 161.195 76.8579 161.195H78.4326ZM83.0396 159.767V166H81.6846V158.075H82.9663L83.0396 159.767ZM82.7173 161.737L82.1533 161.715C82.1582 161.173 82.2388 160.673 82.395 160.214C82.5513 159.75 82.771 159.347 83.0542 159.005C83.3374 158.664 83.6743 158.4 84.0649 158.214C84.4604 158.024 84.8975 157.929 85.376 157.929C85.7666 157.929 86.1182 157.982 86.4307 158.09C86.7432 158.192 87.0093 158.358 87.229 158.588C87.4536 158.817 87.6245 159.115 87.7417 159.481C87.8589 159.843 87.9175 160.285 87.9175 160.807V166H86.5552V160.792C86.5552 160.377 86.4941 160.045 86.3721 159.796C86.25 159.542 86.0718 159.359 85.8374 159.247C85.603 159.13 85.3149 159.071 84.9731 159.071C84.6362 159.071 84.3286 159.142 84.0503 159.284C83.7769 159.425 83.54 159.621 83.3398 159.87C83.1445 160.119 82.9907 160.404 82.8784 160.727C82.771 161.044 82.7173 161.381 82.7173 161.737ZM94.9707 164.462V154.75H96.333V166H95.0879L94.9707 164.462ZM89.6387 162.125V161.972C89.6387 161.366 89.7119 160.817 89.8584 160.324C90.0098 159.826 90.2222 159.398 90.4956 159.042C90.7739 158.686 91.1035 158.412 91.4844 158.222C91.8701 158.026 92.2998 157.929 92.7734 157.929C93.2715 157.929 93.7061 158.017 94.0771 158.192C94.4531 158.363 94.7705 158.615 95.0293 158.947C95.293 159.274 95.5005 159.669 95.6519 160.133C95.8032 160.597 95.9082 161.122 95.9668 161.708V162.382C95.9131 162.963 95.8081 163.485 95.6519 163.949C95.5005 164.413 95.293 164.809 95.0293 165.136C94.7705 165.463 94.4531 165.714 94.0771 165.89C93.7012 166.061 93.2617 166.146 92.7588 166.146C92.2949 166.146 91.8701 166.046 91.4844 165.846C91.1035 165.646 90.7739 165.365 90.4956 165.004C90.2222 164.643 90.0098 164.218 89.8584 163.729C89.7119 163.236 89.6387 162.702 89.6387 162.125ZM91.001 161.972V162.125C91.001 162.521 91.04 162.892 91.1182 163.239C91.2012 163.585 91.3281 163.891 91.499 164.154C91.6699 164.418 91.8872 164.625 92.1509 164.777C92.4146 164.923 92.7295 164.997 93.0957 164.997C93.5449 164.997 93.9136 164.901 94.2017 164.711C94.4946 164.521 94.729 164.269 94.9048 163.957C95.0806 163.644 95.2173 163.305 95.3149 162.938V161.173C95.2563 160.905 95.1709 160.646 95.0586 160.397C94.9512 160.143 94.8096 159.918 94.6338 159.723C94.4629 159.523 94.2505 159.364 93.9966 159.247C93.7476 159.13 93.4521 159.071 93.1104 159.071C92.7393 159.071 92.4194 159.149 92.1509 159.306C91.8872 159.457 91.6699 159.667 91.499 159.936C91.3281 160.199 91.2012 160.507 91.1182 160.858C91.04 161.205 91.001 161.576 91.001 161.972ZM103.511 159.65V166H102.148V158.075H103.438L103.511 159.65ZM103.232 161.737L102.603 161.715C102.607 161.173 102.678 160.673 102.815 160.214C102.952 159.75 103.154 159.347 103.423 159.005C103.691 158.664 104.026 158.4 104.426 158.214C104.827 158.024 105.291 157.929 105.818 157.929C106.189 157.929 106.531 157.982 106.843 158.09C107.156 158.192 107.427 158.356 107.656 158.581C107.886 158.805 108.064 159.093 108.191 159.445C108.318 159.796 108.381 160.221 108.381 160.719V166H107.026V160.785C107.026 160.37 106.956 160.038 106.814 159.789C106.677 159.54 106.482 159.359 106.228 159.247C105.974 159.13 105.676 159.071 105.334 159.071C104.934 159.071 104.6 159.142 104.331 159.284C104.062 159.425 103.848 159.621 103.687 159.87C103.525 160.119 103.408 160.404 103.335 160.727C103.267 161.044 103.232 161.381 103.232 161.737ZM108.367 160.99L107.458 161.269C107.463 160.834 107.534 160.417 107.671 160.016C107.812 159.616 108.015 159.259 108.279 158.947C108.547 158.634 108.877 158.388 109.268 158.207C109.658 158.021 110.105 157.929 110.608 157.929C111.033 157.929 111.409 157.985 111.736 158.097C112.068 158.209 112.346 158.383 112.571 158.617C112.8 158.847 112.974 159.142 113.091 159.503C113.208 159.865 113.267 160.294 113.267 160.792V166H111.904V160.778C111.904 160.333 111.833 159.989 111.692 159.745C111.555 159.496 111.36 159.323 111.106 159.225C110.857 159.123 110.559 159.071 110.212 159.071C109.915 159.071 109.651 159.123 109.421 159.225C109.192 159.328 108.999 159.469 108.843 159.65C108.687 159.826 108.567 160.028 108.484 160.258C108.406 160.487 108.367 160.731 108.367 160.99ZM114.958 162.125V161.957C114.958 161.386 115.042 160.856 115.208 160.368C115.374 159.875 115.613 159.447 115.925 159.086C116.238 158.72 116.616 158.437 117.061 158.236C117.505 158.031 118.003 157.929 118.555 157.929C119.111 157.929 119.612 158.031 120.056 158.236C120.505 158.437 120.886 158.72 121.199 159.086C121.516 159.447 121.758 159.875 121.924 160.368C122.09 160.856 122.173 161.386 122.173 161.957V162.125C122.173 162.697 122.09 163.227 121.924 163.715C121.758 164.203 121.516 164.63 121.199 164.997C120.886 165.358 120.508 165.641 120.063 165.846C119.624 166.046 119.126 166.146 118.569 166.146C118.013 166.146 117.512 166.046 117.068 165.846C116.624 165.641 116.243 165.358 115.925 164.997C115.613 164.63 115.374 164.203 115.208 163.715C115.042 163.227 114.958 162.697 114.958 162.125ZM116.313 161.957V162.125C116.313 162.521 116.36 162.895 116.453 163.246C116.545 163.593 116.685 163.9 116.87 164.169C117.061 164.438 117.297 164.65 117.581 164.806C117.864 164.958 118.193 165.033 118.569 165.033C118.94 165.033 119.265 164.958 119.543 164.806C119.827 164.65 120.061 164.438 120.247 164.169C120.432 163.9 120.571 163.593 120.664 163.246C120.762 162.895 120.811 162.521 120.811 162.125V161.957C120.811 161.566 120.762 161.198 120.664 160.851C120.571 160.5 120.43 160.189 120.239 159.921C120.054 159.647 119.819 159.433 119.536 159.276C119.258 159.12 118.931 159.042 118.555 159.042C118.184 159.042 117.856 159.12 117.573 159.276C117.295 159.433 117.061 159.647 116.87 159.921C116.685 160.189 116.545 160.5 116.453 160.851C116.36 161.198 116.313 161.566 116.313 161.957ZM128.867 164.462V154.75H130.229V166H128.984L128.867 164.462ZM123.535 162.125V161.972C123.535 161.366 123.608 160.817 123.755 160.324C123.906 159.826 124.119 159.398 124.392 159.042C124.67 158.686 125 158.412 125.381 158.222C125.767 158.026 126.196 157.929 126.67 157.929C127.168 157.929 127.603 158.017 127.974 158.192C128.35 158.363 128.667 158.615 128.926 158.947C129.189 159.274 129.397 159.669 129.548 160.133C129.7 160.597 129.805 161.122 129.863 161.708V162.382C129.81 162.963 129.705 163.485 129.548 163.949C129.397 164.413 129.189 164.809 128.926 165.136C128.667 165.463 128.35 165.714 127.974 165.89C127.598 166.061 127.158 166.146 126.655 166.146C126.191 166.146 125.767 166.046 125.381 165.846C125 165.646 124.67 165.365 124.392 165.004C124.119 164.643 123.906 164.218 123.755 163.729C123.608 163.236 123.535 162.702 123.535 162.125ZM124.897 161.972V162.125C124.897 162.521 124.937 162.892 125.015 163.239C125.098 163.585 125.225 163.891 125.396 164.154C125.566 164.418 125.784 164.625 126.047 164.777C126.311 164.923 126.626 164.997 126.992 164.997C127.441 164.997 127.81 164.901 128.098 164.711C128.391 164.521 128.625 164.269 128.801 163.957C128.977 163.644 129.114 163.305 129.211 162.938V161.173C129.153 160.905 129.067 160.646 128.955 160.397C128.848 160.143 128.706 159.918 128.53 159.723C128.359 159.523 128.147 159.364 127.893 159.247C127.644 159.13 127.349 159.071 127.007 159.071C126.636 159.071 126.316 159.149 126.047 159.306C125.784 159.457 125.566 159.667 125.396 159.936C125.225 160.199 125.098 160.507 125.015 160.858C124.937 161.205 124.897 161.576 124.897 161.972ZM135.627 166.146C135.076 166.146 134.575 166.054 134.126 165.868C133.682 165.678 133.298 165.412 132.976 165.07C132.659 164.728 132.415 164.323 132.244 163.854C132.073 163.385 131.987 162.873 131.987 162.316V162.008C131.987 161.364 132.083 160.79 132.273 160.287C132.463 159.779 132.722 159.35 133.049 158.998C133.376 158.646 133.748 158.38 134.163 158.2C134.578 158.019 135.007 157.929 135.452 157.929C136.018 157.929 136.506 158.026 136.917 158.222C137.332 158.417 137.671 158.69 137.935 159.042C138.198 159.389 138.394 159.799 138.521 160.272C138.647 160.741 138.711 161.254 138.711 161.811V162.418H132.793V161.312H137.356V161.21C137.336 160.858 137.263 160.517 137.136 160.185C137.014 159.853 136.819 159.579 136.55 159.364C136.282 159.149 135.916 159.042 135.452 159.042C135.144 159.042 134.861 159.108 134.602 159.24C134.343 159.367 134.121 159.557 133.936 159.811C133.75 160.065 133.606 160.375 133.503 160.741C133.401 161.107 133.35 161.53 133.35 162.008V162.316C133.35 162.692 133.401 163.046 133.503 163.378C133.611 163.705 133.765 163.993 133.965 164.242C134.17 164.491 134.417 164.687 134.705 164.828C134.998 164.97 135.33 165.041 135.701 165.041C136.179 165.041 136.584 164.943 136.917 164.748C137.249 164.552 137.539 164.291 137.788 163.964L138.608 164.616C138.438 164.875 138.22 165.121 137.957 165.355C137.693 165.59 137.368 165.78 136.982 165.927C136.602 166.073 136.15 166.146 135.627 166.146ZM141.765 154.75V166H140.403V154.75H141.765ZM44.895 185.777L47.063 179.075H48.4473L45.5981 187H44.6899L44.895 185.777ZM43.0859 179.075L45.3198 185.813L45.4736 187H44.5654L41.6943 179.075H43.0859ZM52.937 187.146C52.3853 187.146 51.8848 187.054 51.4355 186.868C50.9912 186.678 50.6079 186.412 50.2856 186.07C49.9683 185.728 49.7241 185.323 49.5532 184.854C49.3823 184.385 49.2969 183.873 49.2969 183.316V183.008C49.2969 182.364 49.3921 181.79 49.5825 181.287C49.7729 180.779 50.0317 180.35 50.3589 179.998C50.686 179.646 51.0571 179.38 51.4722 179.2C51.8872 179.019 52.3169 178.929 52.7612 178.929C53.3276 178.929 53.8159 179.026 54.2261 179.222C54.6411 179.417 54.9805 179.69 55.2441 180.042C55.5078 180.389 55.7031 180.799 55.8301 181.272C55.957 181.741 56.0205 182.254 56.0205 182.811V183.418H50.1025V182.312H54.6655V182.21C54.646 181.858 54.5728 181.517 54.4458 181.185C54.3237 180.853 54.1284 180.579 53.8599 180.364C53.5913 180.149 53.2251 180.042 52.7612 180.042C52.4536 180.042 52.1704 180.108 51.9116 180.24C51.6528 180.367 51.4307 180.557 51.2451 180.811C51.0596 181.065 50.9155 181.375 50.813 181.741C50.7104 182.107 50.6592 182.53 50.6592 183.008V183.316C50.6592 183.692 50.7104 184.046 50.813 184.378C50.9204 184.705 51.0742 184.993 51.2744 185.242C51.4795 185.491 51.7261 185.687 52.0142 185.828C52.3071 185.97 52.6392 186.041 53.0103 186.041C53.4888 186.041 53.894 185.943 54.2261 185.748C54.5581 185.552 54.8486 185.291 55.0977 184.964L55.918 185.616C55.7471 185.875 55.5298 186.121 55.2661 186.355C55.0024 186.59 54.6777 186.78 54.292 186.927C53.9111 187.073 53.4595 187.146 52.937 187.146ZM58.9575 180.32V187H57.6025V179.075H58.9209L58.9575 180.32ZM61.4331 179.031L61.4258 180.291C61.3135 180.267 61.2061 180.252 61.1035 180.247C61.0059 180.237 60.8936 180.232 60.7666 180.232C60.4541 180.232 60.1782 180.281 59.939 180.379C59.6997 180.477 59.4971 180.613 59.3311 180.789C59.165 180.965 59.0332 181.175 58.9355 181.419C58.8428 181.658 58.7817 181.922 58.7524 182.21L58.3716 182.43C58.3716 181.951 58.418 181.502 58.5107 181.082C58.6084 180.662 58.7573 180.291 58.9575 179.969C59.1577 179.642 59.4116 179.388 59.7192 179.207C60.0317 179.021 60.4028 178.929 60.8325 178.929C60.9302 178.929 61.0425 178.941 61.1694 178.965C61.2964 178.985 61.3843 179.007 61.4331 179.031ZM67.2998 184.898C67.2998 184.703 67.2559 184.522 67.168 184.356C67.085 184.185 66.9116 184.031 66.6479 183.895C66.3892 183.753 65.9985 183.631 65.4761 183.528C65.0366 183.436 64.6387 183.326 64.2822 183.199C63.9307 183.072 63.6304 182.918 63.3813 182.737C63.1372 182.557 62.9492 182.344 62.8174 182.1C62.6855 181.856 62.6196 181.57 62.6196 181.243C62.6196 180.931 62.688 180.635 62.8247 180.357C62.9663 180.079 63.1641 179.832 63.418 179.617C63.6768 179.402 63.9868 179.234 64.3481 179.112C64.7095 178.99 65.1123 178.929 65.5566 178.929C66.1914 178.929 66.7334 179.041 67.1826 179.266C67.6318 179.49 67.9761 179.791 68.2153 180.167C68.4546 180.538 68.5742 180.95 68.5742 181.404H67.2192C67.2192 181.185 67.1533 180.972 67.0215 180.767C66.8945 180.557 66.7065 180.384 66.4575 180.247C66.2134 180.11 65.9131 180.042 65.5566 180.042C65.1807 180.042 64.8755 180.101 64.6411 180.218C64.4116 180.33 64.2432 180.474 64.1357 180.65C64.0332 180.826 63.9819 181.011 63.9819 181.207C63.9819 181.353 64.0063 181.485 64.0552 181.602C64.1089 181.714 64.2017 181.819 64.3335 181.917C64.4653 182.01 64.6509 182.098 64.8901 182.181C65.1294 182.264 65.4346 182.347 65.8057 182.43C66.4551 182.576 66.9897 182.752 67.4097 182.957C67.8296 183.162 68.1421 183.414 68.3472 183.711C68.5522 184.009 68.6548 184.371 68.6548 184.795C68.6548 185.142 68.5815 185.459 68.4351 185.748C68.2935 186.036 68.0859 186.285 67.8125 186.495C67.5439 186.7 67.2217 186.861 66.8457 186.978C66.4746 187.09 66.0571 187.146 65.5933 187.146C64.895 187.146 64.3042 187.022 63.8208 186.773C63.3374 186.524 62.9712 186.202 62.7222 185.806C62.4731 185.411 62.3486 184.993 62.3486 184.554H63.7109C63.7305 184.925 63.8379 185.22 64.0332 185.44C64.2285 185.655 64.4678 185.809 64.751 185.901C65.0342 185.989 65.3149 186.033 65.5933 186.033C65.9644 186.033 66.2744 185.984 66.5234 185.887C66.7773 185.789 66.9702 185.655 67.1021 185.484C67.2339 185.313 67.2998 185.118 67.2998 184.898ZM71.9067 179.075V187H70.5444V179.075H71.9067ZM70.4419 176.973C70.4419 176.753 70.5078 176.568 70.6396 176.417C70.7764 176.265 70.9766 176.189 71.2402 176.189C71.499 176.189 71.6968 176.265 71.8335 176.417C71.9751 176.568 72.0459 176.753 72.0459 176.973C72.0459 177.183 71.9751 177.364 71.8335 177.515C71.6968 177.662 71.499 177.735 71.2402 177.735C70.9766 177.735 70.7764 177.662 70.6396 177.515C70.5078 177.364 70.4419 177.183 70.4419 176.973ZM73.7231 183.125V182.957C73.7231 182.386 73.8062 181.856 73.9722 181.368C74.1382 180.875 74.3774 180.447 74.6899 180.086C75.0024 179.72 75.3809 179.437 75.8252 179.236C76.2695 179.031 76.7676 178.929 77.3193 178.929C77.876 178.929 78.3765 179.031 78.8208 179.236C79.27 179.437 79.6509 179.72 79.9634 180.086C80.2808 180.447 80.5225 180.875 80.6885 181.368C80.8545 181.856 80.9375 182.386 80.9375 182.957V183.125C80.9375 183.697 80.8545 184.227 80.6885 184.715C80.5225 185.203 80.2808 185.63 79.9634 185.997C79.6509 186.358 79.2725 186.641 78.8281 186.846C78.3887 187.046 77.8906 187.146 77.334 187.146C76.7773 187.146 76.2769 187.046 75.8325 186.846C75.3882 186.641 75.0073 186.358 74.6899 185.997C74.3774 185.63 74.1382 185.203 73.9722 184.715C73.8062 184.227 73.7231 183.697 73.7231 183.125ZM75.0781 182.957V183.125C75.0781 183.521 75.1245 183.895 75.2173 184.246C75.3101 184.593 75.4492 184.9 75.6348 185.169C75.8252 185.438 76.062 185.65 76.3452 185.806C76.6284 185.958 76.958 186.033 77.334 186.033C77.7051 186.033 78.0298 185.958 78.3081 185.806C78.5913 185.65 78.8257 185.438 79.0112 185.169C79.1968 184.9 79.3359 184.593 79.4287 184.246C79.5264 183.895 79.5752 183.521 79.5752 183.125V182.957C79.5752 182.566 79.5264 182.198 79.4287 181.851C79.3359 181.5 79.1943 181.189 79.0039 180.921C78.8184 180.647 78.584 180.433 78.3008 180.276C78.0225 180.12 77.6953 180.042 77.3193 180.042C76.9482 180.042 76.6211 180.12 76.3379 180.276C76.0596 180.433 75.8252 180.647 75.6348 180.921C75.4492 181.189 75.3101 181.5 75.2173 181.851C75.1245 182.198 75.0781 182.566 75.0781 182.957ZM83.9917 180.767V187H82.6367V179.075H83.9185L83.9917 180.767ZM83.6694 182.737L83.1055 182.715C83.1104 182.173 83.1909 181.673 83.3472 181.214C83.5034 180.75 83.7231 180.347 84.0063 180.005C84.2896 179.664 84.6265 179.4 85.0171 179.214C85.4126 179.024 85.8496 178.929 86.3281 178.929C86.7188 178.929 87.0703 178.982 87.3828 179.09C87.6953 179.192 87.9614 179.358 88.1812 179.588C88.4058 179.817 88.5767 180.115 88.6938 180.481C88.811 180.843 88.8696 181.285 88.8696 181.807V187H87.5073V181.792C87.5073 181.377 87.4463 181.045 87.3242 180.796C87.2021 180.542 87.0239 180.359 86.7896 180.247C86.5552 180.13 86.2671 180.071 85.9253 180.071C85.5884 180.071 85.2808 180.142 85.0024 180.284C84.729 180.425 84.4922 180.621 84.292 180.87C84.0967 181.119 83.9429 181.404 83.8306 181.727C83.7231 182.044 83.6694 182.381 83.6694 182.737ZM92.2827 180.767V187H90.9277V179.075H92.2095L92.2827 180.767ZM91.9604 182.737L91.3965 182.715C91.4014 182.173 91.4819 181.673 91.6382 181.214C91.7944 180.75 92.0142 180.347 92.2974 180.005C92.5806 179.664 92.9175 179.4 93.3081 179.214C93.7036 179.024 94.1406 178.929 94.6191 178.929C95.0098 178.929 95.3613 178.982 95.6738 179.09C95.9863 179.192 96.2524 179.358 96.4722 179.588C96.6968 179.817 96.8677 180.115 96.9849 180.481C97.1021 180.843 97.1606 181.285 97.1606 181.807V187H95.7983V181.792C95.7983 181.377 95.7373 181.045 95.6152 180.796C95.4932 180.542 95.3149 180.359 95.0806 180.247C94.8462 180.13 94.5581 180.071 94.2163 180.071C93.8794 180.071 93.5718 180.142 93.2935 180.284C93.02 180.425 92.7832 180.621 92.583 180.87C92.3877 181.119 92.2339 181.404 92.1216 181.727C92.0142 182.044 91.9604 182.381 91.9604 182.737ZM100.691 179.075V187H99.3286V179.075H100.691ZM99.2261 176.973C99.2261 176.753 99.292 176.568 99.4238 176.417C99.5605 176.265 99.7607 176.189 100.024 176.189C100.283 176.189 100.481 176.265 100.618 176.417C100.759 176.568 100.83 176.753 100.83 176.973C100.83 177.183 100.759 177.364 100.618 177.515C100.481 177.662 100.283 177.735 100.024 177.735C99.7607 177.735 99.5605 177.662 99.4238 177.515C99.292 177.364 99.2261 177.183 99.2261 176.973ZM104.221 180.767V187H102.866V179.075H104.148L104.221 180.767ZM103.899 182.737L103.335 182.715C103.34 182.173 103.42 181.673 103.577 181.214C103.733 180.75 103.953 180.347 104.236 180.005C104.519 179.664 104.856 179.4 105.247 179.214C105.642 179.024 106.079 178.929 106.558 178.929C106.948 178.929 107.3 178.982 107.612 179.09C107.925 179.192 108.191 179.358 108.411 179.588C108.635 179.817 108.806 180.115 108.923 180.481C109.041 180.843 109.099 181.285 109.099 181.807V187H107.737V181.792C107.737 181.377 107.676 181.045 107.554 180.796C107.432 180.542 107.253 180.359 107.019 180.247C106.785 180.13 106.497 180.071 106.155 180.071C105.818 180.071 105.51 180.142 105.232 180.284C104.958 180.425 104.722 180.621 104.521 180.87C104.326 181.119 104.172 181.404 104.06 181.727C103.953 182.044 103.899 182.381 103.899 182.737ZM116.292 179.075H117.522V186.832C117.522 187.53 117.38 188.125 117.097 188.619C116.814 189.112 116.418 189.485 115.911 189.739C115.408 189.998 114.827 190.127 114.167 190.127C113.894 190.127 113.572 190.083 113.201 189.996C112.834 189.913 112.473 189.769 112.117 189.563C111.765 189.363 111.47 189.092 111.23 188.75L111.941 187.945C112.273 188.345 112.62 188.624 112.981 188.78C113.347 188.936 113.708 189.014 114.065 189.014C114.495 189.014 114.866 188.934 115.178 188.772C115.491 188.611 115.732 188.372 115.903 188.055C116.079 187.742 116.167 187.356 116.167 186.897V180.818L116.292 179.075ZM110.835 183.125V182.972C110.835 182.366 110.906 181.817 111.047 181.324C111.194 180.826 111.401 180.398 111.67 180.042C111.943 179.686 112.273 179.412 112.659 179.222C113.044 179.026 113.479 178.929 113.962 178.929C114.46 178.929 114.895 179.017 115.266 179.192C115.642 179.363 115.959 179.615 116.218 179.947C116.482 180.274 116.689 180.669 116.841 181.133C116.992 181.597 117.097 182.122 117.156 182.708V183.382C117.102 183.963 116.997 184.485 116.841 184.949C116.689 185.413 116.482 185.809 116.218 186.136C115.959 186.463 115.642 186.714 115.266 186.89C114.89 187.061 114.451 187.146 113.948 187.146C113.474 187.146 113.044 187.046 112.659 186.846C112.278 186.646 111.951 186.365 111.677 186.004C111.404 185.643 111.194 185.218 111.047 184.729C110.906 184.236 110.835 183.702 110.835 183.125ZM112.19 182.972V183.125C112.19 183.521 112.229 183.892 112.307 184.239C112.39 184.585 112.515 184.891 112.681 185.154C112.852 185.418 113.069 185.625 113.333 185.777C113.596 185.923 113.911 185.997 114.277 185.997C114.727 185.997 115.098 185.901 115.391 185.711C115.684 185.521 115.916 185.269 116.086 184.957C116.262 184.644 116.399 184.305 116.497 183.938V182.173C116.443 181.905 116.36 181.646 116.248 181.397C116.14 181.143 115.999 180.918 115.823 180.723C115.652 180.523 115.439 180.364 115.186 180.247C114.932 180.13 114.634 180.071 114.292 180.071C113.921 180.071 113.601 180.149 113.333 180.306C113.069 180.457 112.852 180.667 112.681 180.936C112.515 181.199 112.39 181.507 112.307 181.858C112.229 182.205 112.19 182.576 112.19 182.972Z" fill="#4B4E52"/>
<path d="M80.75 1.01036L120.319 23.8557C120.783 24.1236 121.069 24.6188 121.069 25.1547V70.8453C121.069 71.3812 120.783 71.8764 120.319 72.1443L80.75 94.9896C80.2859 95.2576 79.7141 95.2576 79.25 94.9896L39.6808 72.1443C39.2167 71.8764 38.9308 71.3812 38.9308 70.8453V25.1547C38.9308 24.6188 39.2167 24.1236 39.6808 23.8557L79.25 1.01036C79.7141 0.742414 80.2859 0.742414 80.75 1.01036Z" stroke="#DDDDDD"/>
<path d="M100.429 33.8348C100.429 35.3505 99.1251 37.5046 95.2283 39.453C91.5054 41.3145 86.1589 42.5497 80.0946 42.5497C74.0304 42.5497 68.6839 41.3145 64.9609 39.453C61.0642 37.5046 59.76 35.3505 59.76 33.8348C59.76 32.3192 61.0642 30.165 64.9609 28.2167C68.6839 26.3552 74.0304 25.12 80.0946 25.12C86.1589 25.12 91.5054 26.3552 95.2283 28.2167C99.1251 30.165 100.429 32.3192 100.429 33.8348Z" fill="#FFD95C"/>
<path d="M64.851 42.7964C64.981 42.7308 65.1326 42.7268 65.2671 42.7826C69.2908 44.4514 74.4584 45.4546 80.0946 45.4546C85.7309 45.4546 90.8985 44.4514 94.9221 42.7826C95.0566 42.7268 95.2082 42.7308 95.3382 42.7964C97.4235 43.8482 100.429 45.7273 100.429 48.3596C100.429 49.8752 99.1251 52.0294 95.2283 53.9777C91.5054 55.8392 86.1589 57.0744 80.0946 57.0744C74.0304 57.0744 68.6839 55.8392 64.9609 53.9777C61.0642 52.0294 59.76 49.8752 59.76 48.3596C59.76 45.7273 62.7657 43.8482 64.851 42.7964Z" fill="#FFD95C"/>
<path d="M64.851 57.3211C64.981 57.2556 65.1326 57.2516 65.2671 57.3073C69.2907 58.9761 74.4584 59.9794 80.0946 59.9794C85.7309 59.9794 90.8985 58.9761 94.9222 57.3073C95.0567 57.2515 95.2082 57.2556 95.3382 57.3211C97.4235 58.373 100.429 60.2521 100.429 62.8843C100.429 64.3999 99.1251 66.5541 95.2283 68.5025C91.5054 70.3639 86.1589 71.5991 80.0946 71.5991C74.0304 71.5991 68.6839 70.3639 64.9609 68.5025C61.0642 66.5541 59.76 64.3999 59.76 62.8843C59.76 60.2521 62.7657 58.373 64.851 57.3211Z" fill="#FFD95C"/>
</svg>
