<svg width="160" height="212" viewBox="0 0 160 212" fill="none" xmlns="http://www.w3.org/2000/svg">
<path d="M79 16.5774C79.6188 16.2201 80.3812 16.2201 81 16.5774L120.569 39.4226C121.188 39.7799 121.569 40.4402 121.569 41.1547V86.8453C121.569 87.5598 121.188 88.2201 120.569 88.5774L81 111.423C80.3812 111.78 79.6188 111.78 79 111.423L39.4308 88.5774C38.812 88.2201 38.4308 87.5598 38.4308 86.8453V41.1547C38.4308 40.4402 38.812 39.7799 39.4308 39.4226L79 16.5774Z" fill="#F6F6F6"/>
<path d="M91.8182 44.9091C89.8099 44.9091 88.1818 46.5372 88.1818 48.5455V80.3637C88.1818 80.8657 88.5888 81.2728 89.0909 81.2728H96.8182C98.8265 81.2728 100.455 79.6447 100.455 77.6364V48.5455C100.455 46.5372 98.8265 44.9091 96.8182 44.9091H91.8182Z" fill="url(#paint0_linear_3944_24530)"/>
<path d="M73.1818 58.5455C73.1818 56.5372 74.8099 54.9091 76.8182 54.9091H81.8182C83.8265 54.9091 85.4546 56.5372 85.4546 58.5455V80.3637C85.4546 80.8657 85.0475 81.2728 84.5455 81.2728H74.0909C73.5888 81.2728 73.1818 80.8657 73.1818 80.3637V58.5455Z" fill="url(#paint1_linear_3944_24530)"/>
<path d="M58.1818 66.7273C58.1818 64.719 59.8099 63.0909 61.8182 63.0909H66.8182C68.8265 63.0909 70.4546 64.719 70.4546 66.7273V80.3637C70.4546 80.8657 70.0475 81.2728 69.5455 81.2728H61.8182C59.8099 81.2728 58.1818 79.6447 58.1818 77.6364V66.7273Z" fill="url(#paint2_linear_3944_24530)"/>
<path d="M39.1797 141.057V143H31.6309V141.057H39.1797ZM32.3242 128.781V143H29.873V128.781H32.3242ZM38.1934 134.719V136.633H31.6309V134.719H38.1934ZM39.1309 128.781V130.734H31.6309V128.781H39.1309ZM44.1309 141.135L46.7188 132.434H49.1602L45.4883 143H43.9648L44.1309 141.135ZM42.1484 132.434L44.7852 141.174L44.9121 143H43.3887L39.6973 132.434H42.1484ZM56.416 140.881V135.842C56.416 135.464 56.3477 135.139 56.2109 134.865C56.0742 134.592 55.8659 134.38 55.5859 134.23C55.3125 134.081 54.9674 134.006 54.5508 134.006C54.1667 134.006 53.8346 134.071 53.5547 134.201C53.2747 134.331 53.0566 134.507 52.9004 134.729C52.7441 134.95 52.666 135.201 52.666 135.48H50.3223C50.3223 135.064 50.4232 134.66 50.625 134.27C50.8268 133.879 51.1198 133.531 51.5039 133.225C51.888 132.919 52.347 132.678 52.8809 132.502C53.4147 132.326 54.0137 132.238 54.6777 132.238C55.472 132.238 56.1751 132.372 56.7871 132.639C57.4056 132.906 57.8906 133.309 58.2422 133.85C58.6003 134.383 58.7793 135.054 58.7793 135.861V140.559C58.7793 141.04 58.8118 141.473 58.877 141.857C58.9486 142.235 59.0495 142.564 59.1797 142.844V143H56.7676C56.6569 142.746 56.569 142.424 56.5039 142.033C56.4453 141.636 56.416 141.252 56.416 140.881ZM56.7578 136.574L56.7773 138.029H55.0879C54.6517 138.029 54.2676 138.072 53.9355 138.156C53.6035 138.234 53.3268 138.352 53.1055 138.508C52.8841 138.664 52.7181 138.853 52.6074 139.074C52.4967 139.296 52.4414 139.546 52.4414 139.826C52.4414 140.106 52.5065 140.363 52.6367 140.598C52.7669 140.826 52.9557 141.005 53.2031 141.135C53.457 141.265 53.763 141.33 54.1211 141.33C54.6029 141.33 55.0228 141.232 55.3809 141.037C55.7454 140.835 56.0319 140.591 56.2402 140.305C56.4486 140.012 56.5592 139.735 56.5723 139.475L57.334 140.52C57.2559 140.786 57.1224 141.073 56.9336 141.379C56.7448 141.685 56.4974 141.978 56.1914 142.258C55.8919 142.531 55.5306 142.756 55.1074 142.932C54.6908 143.107 54.209 143.195 53.6621 143.195C52.972 143.195 52.3568 143.059 51.8164 142.785C51.276 142.505 50.8529 142.131 50.5469 141.662C50.2409 141.187 50.0879 140.65 50.0879 140.051C50.0879 139.491 50.1921 138.996 50.4004 138.566C50.6152 138.13 50.9277 137.766 51.3379 137.473C51.7546 137.18 52.2624 136.958 52.8613 136.809C53.4603 136.652 54.1439 136.574 54.9121 136.574H56.7578ZM63.7598 128V143H61.3965V128H63.7598ZM72.6953 140.51V132.434H75.0586V143H72.832L72.6953 140.51ZM73.0273 138.312L73.8184 138.293C73.8184 139.003 73.7402 139.657 73.584 140.256C73.4277 140.848 73.1868 141.366 72.8613 141.809C72.5358 142.245 72.1191 142.587 71.6113 142.834C71.1035 143.075 70.4948 143.195 69.7852 143.195C69.2708 143.195 68.7988 143.12 68.3691 142.971C67.9395 142.821 67.5684 142.59 67.2559 142.277C66.9499 141.965 66.7122 141.558 66.543 141.057C66.3737 140.555 66.2891 139.956 66.2891 139.26V132.434H68.6426V139.279C68.6426 139.663 68.6882 139.986 68.7793 140.246C68.8704 140.5 68.9941 140.705 69.1504 140.861C69.3066 141.018 69.4889 141.128 69.6973 141.193C69.9056 141.258 70.127 141.291 70.3613 141.291C71.0319 141.291 71.5592 141.161 71.9434 140.9C72.334 140.633 72.6107 140.275 72.7734 139.826C72.9427 139.377 73.0273 138.872 73.0273 138.312ZM83.4277 140.881V135.842C83.4277 135.464 83.3594 135.139 83.2227 134.865C83.0859 134.592 82.8776 134.38 82.5977 134.23C82.3242 134.081 81.9792 134.006 81.5625 134.006C81.1784 134.006 80.8464 134.071 80.5664 134.201C80.2865 134.331 80.0684 134.507 79.9121 134.729C79.7559 134.95 79.6777 135.201 79.6777 135.48H77.334C77.334 135.064 77.4349 134.66 77.6367 134.27C77.8385 133.879 78.1315 133.531 78.5156 133.225C78.8997 132.919 79.3587 132.678 79.8926 132.502C80.4264 132.326 81.0254 132.238 81.6895 132.238C82.4837 132.238 83.1868 132.372 83.7988 132.639C84.4173 132.906 84.9023 133.309 85.2539 133.85C85.612 134.383 85.791 135.054 85.791 135.861V140.559C85.791 141.04 85.8236 141.473 85.8887 141.857C85.9603 142.235 86.0612 142.564 86.1914 142.844V143H83.7793C83.6686 142.746 83.5807 142.424 83.5156 142.033C83.457 141.636 83.4277 141.252 83.4277 140.881ZM83.7695 136.574L83.7891 138.029H82.0996C81.6634 138.029 81.2793 138.072 80.9473 138.156C80.6152 138.234 80.3385 138.352 80.1172 138.508C79.8958 138.664 79.7298 138.853 79.6191 139.074C79.5085 139.296 79.4531 139.546 79.4531 139.826C79.4531 140.106 79.5182 140.363 79.6484 140.598C79.7786 140.826 79.9674 141.005 80.2148 141.135C80.4688 141.265 80.7747 141.33 81.1328 141.33C81.6146 141.33 82.0345 141.232 82.3926 141.037C82.7572 140.835 83.0436 140.591 83.252 140.305C83.4603 140.012 83.571 139.735 83.584 139.475L84.3457 140.52C84.2676 140.786 84.1341 141.073 83.9453 141.379C83.7565 141.685 83.5091 141.978 83.2031 142.258C82.9036 142.531 82.5423 142.756 82.1191 142.932C81.7025 143.107 81.2207 143.195 80.6738 143.195C79.9837 143.195 79.3685 143.059 78.8281 142.785C78.2878 142.505 77.8646 142.131 77.5586 141.662C77.2526 141.187 77.0996 140.65 77.0996 140.051C77.0996 139.491 77.2038 138.996 77.4121 138.566C77.627 138.13 77.9395 137.766 78.3496 137.473C78.7663 137.18 79.2741 136.958 79.873 136.809C80.472 136.652 81.1556 136.574 81.9238 136.574H83.7695ZM93.0957 132.434V134.152H87.1387V132.434H93.0957ZM88.8574 129.846H91.2109V140.08C91.2109 140.406 91.2565 140.656 91.3477 140.832C91.4453 141.001 91.5788 141.115 91.748 141.174C91.9173 141.232 92.1159 141.262 92.3438 141.262C92.5065 141.262 92.6628 141.252 92.8125 141.232C92.9622 141.213 93.0827 141.193 93.1738 141.174L93.1836 142.971C92.9883 143.029 92.7604 143.081 92.5 143.127C92.2461 143.173 91.9531 143.195 91.6211 143.195C91.0807 143.195 90.6022 143.101 90.1855 142.912C89.7689 142.717 89.4434 142.401 89.209 141.965C88.9746 141.529 88.8574 140.949 88.8574 140.227V129.846ZM97.4316 132.434V143H95.0684V132.434H97.4316ZM94.9121 129.66C94.9121 129.302 95.0293 129.006 95.2637 128.771C95.5046 128.531 95.8366 128.41 96.2598 128.41C96.6764 128.41 97.0052 128.531 97.2461 128.771C97.487 129.006 97.6074 129.302 97.6074 129.66C97.6074 130.012 97.487 130.305 97.2461 130.539C97.0052 130.773 96.6764 130.891 96.2598 130.891C95.8366 130.891 95.5046 130.773 95.2637 130.539C95.0293 130.305 94.9121 130.012 94.9121 129.66ZM99.5605 137.834V137.609C99.5605 136.848 99.6712 136.141 99.8926 135.49C100.114 134.833 100.433 134.263 100.85 133.781C101.273 133.293 101.787 132.915 102.393 132.648C103.005 132.375 103.695 132.238 104.463 132.238C105.238 132.238 105.928 132.375 106.533 132.648C107.145 132.915 107.663 133.293 108.086 133.781C108.509 134.263 108.831 134.833 109.053 135.49C109.274 136.141 109.385 136.848 109.385 137.609V137.834C109.385 138.596 109.274 139.302 109.053 139.953C108.831 140.604 108.509 141.174 108.086 141.662C107.663 142.144 107.148 142.521 106.543 142.795C105.938 143.062 105.251 143.195 104.482 143.195C103.708 143.195 103.014 143.062 102.402 142.795C101.797 142.521 101.283 142.144 100.859 141.662C100.436 141.174 100.114 140.604 99.8926 139.953C99.6712 139.302 99.5605 138.596 99.5605 137.834ZM101.914 137.609V137.834C101.914 138.309 101.963 138.758 102.061 139.182C102.158 139.605 102.311 139.976 102.52 140.295C102.728 140.614 102.995 140.865 103.32 141.047C103.646 141.229 104.033 141.32 104.482 141.32C104.919 141.32 105.296 141.229 105.615 141.047C105.941 140.865 106.208 140.614 106.416 140.295C106.624 139.976 106.777 139.605 106.875 139.182C106.979 138.758 107.031 138.309 107.031 137.834V137.609C107.031 137.141 106.979 136.698 106.875 136.281C106.777 135.858 106.621 135.484 106.406 135.158C106.198 134.833 105.931 134.579 105.605 134.396C105.286 134.208 104.906 134.113 104.463 134.113C104.02 134.113 103.636 134.208 103.311 134.396C102.992 134.579 102.728 134.833 102.52 135.158C102.311 135.484 102.158 135.858 102.061 136.281C101.963 136.698 101.914 137.141 101.914 137.609ZM113.691 134.689V143H111.338V132.434H113.555L113.691 134.689ZM113.271 137.326L112.51 137.316C112.516 136.568 112.62 135.881 112.822 135.256C113.031 134.631 113.317 134.094 113.682 133.645C114.053 133.195 114.495 132.85 115.01 132.609C115.524 132.362 116.097 132.238 116.729 132.238C117.236 132.238 117.695 132.31 118.105 132.453C118.522 132.59 118.877 132.814 119.17 133.127C119.469 133.439 119.697 133.846 119.854 134.348C120.01 134.842 120.088 135.451 120.088 136.174V143H117.725V136.164C117.725 135.656 117.65 135.256 117.5 134.963C117.357 134.663 117.145 134.452 116.865 134.328C116.592 134.198 116.25 134.133 115.84 134.133C115.436 134.133 115.075 134.217 114.756 134.387C114.437 134.556 114.167 134.787 113.945 135.08C113.73 135.373 113.564 135.712 113.447 136.096C113.33 136.48 113.271 136.89 113.271 137.326ZM128.418 140.139C128.418 139.904 128.359 139.693 128.242 139.504C128.125 139.309 127.9 139.133 127.568 138.977C127.243 138.82 126.761 138.677 126.123 138.547C125.563 138.423 125.049 138.277 124.58 138.107C124.118 137.932 123.721 137.72 123.389 137.473C123.057 137.225 122.799 136.932 122.617 136.594C122.435 136.255 122.344 135.865 122.344 135.422C122.344 134.992 122.438 134.585 122.627 134.201C122.816 133.817 123.086 133.479 123.438 133.186C123.789 132.893 124.215 132.661 124.717 132.492C125.225 132.323 125.791 132.238 126.416 132.238C127.301 132.238 128.06 132.388 128.691 132.688C129.329 132.98 129.818 133.381 130.156 133.889C130.495 134.39 130.664 134.956 130.664 135.588H128.311C128.311 135.308 128.239 135.048 128.096 134.807C127.959 134.559 127.751 134.361 127.471 134.211C127.191 134.055 126.839 133.977 126.416 133.977C126.012 133.977 125.677 134.042 125.41 134.172C125.15 134.296 124.954 134.458 124.824 134.66C124.701 134.862 124.639 135.083 124.639 135.324C124.639 135.5 124.671 135.66 124.736 135.803C124.808 135.939 124.925 136.066 125.088 136.184C125.251 136.294 125.472 136.398 125.752 136.496C126.038 136.594 126.396 136.688 126.826 136.779C127.633 136.949 128.327 137.167 128.906 137.434C129.492 137.694 129.941 138.033 130.254 138.449C130.566 138.859 130.723 139.38 130.723 140.012C130.723 140.48 130.622 140.91 130.42 141.301C130.225 141.685 129.938 142.02 129.561 142.307C129.183 142.587 128.73 142.805 128.203 142.961C127.682 143.117 127.096 143.195 126.445 143.195C125.488 143.195 124.678 143.026 124.014 142.688C123.35 142.342 122.845 141.903 122.5 141.369C122.161 140.829 121.992 140.269 121.992 139.689H124.268C124.294 140.126 124.414 140.474 124.629 140.734C124.85 140.988 125.124 141.174 125.449 141.291C125.781 141.402 126.123 141.457 126.475 141.457C126.898 141.457 127.253 141.402 127.539 141.291C127.826 141.174 128.044 141.018 128.193 140.822C128.343 140.62 128.418 140.393 128.418 140.139Z" fill="#33373D"/>
<path d="M35.457 165.835H36.7695C36.7012 166.464 36.5212 167.027 36.2295 167.523C35.9378 168.02 35.5254 168.414 34.9922 168.706C34.459 168.993 33.7936 169.137 32.9961 169.137C32.4128 169.137 31.8818 169.027 31.4033 168.809C30.9294 168.59 30.5215 168.28 30.1797 167.879C29.8379 167.473 29.5736 166.988 29.3867 166.423C29.2044 165.853 29.1133 165.22 29.1133 164.522V163.531C29.1133 162.834 29.2044 162.203 29.3867 161.638C29.5736 161.068 29.8402 160.58 30.1865 160.175C30.5374 159.769 30.959 159.457 31.4512 159.238C31.9434 159.02 32.4971 158.91 33.1123 158.91C33.8643 158.91 34.5 159.051 35.0195 159.334C35.5391 159.617 35.9424 160.008 36.2295 160.51C36.5212 161.007 36.7012 161.583 36.7695 162.239H35.457C35.3932 161.774 35.2747 161.376 35.1016 161.043C34.9284 160.706 34.6823 160.446 34.3633 160.264C34.0443 160.081 33.6273 159.99 33.1123 159.99C32.6702 159.99 32.2806 160.075 31.9434 160.243C31.6107 160.412 31.3304 160.651 31.1025 160.961C30.8792 161.271 30.7106 161.642 30.5967 162.075C30.4827 162.508 30.4258 162.989 30.4258 163.518V164.522C30.4258 165.01 30.4759 165.468 30.5762 165.896C30.681 166.325 30.8382 166.701 31.0479 167.024C31.2575 167.348 31.5241 167.603 31.8477 167.79C32.1712 167.972 32.554 168.063 32.9961 168.063C33.5566 168.063 34.0033 167.975 34.3359 167.797C34.6686 167.619 34.9193 167.364 35.0879 167.031C35.2611 166.699 35.3841 166.3 35.457 165.835ZM38.041 165.384V165.227C38.041 164.693 38.1185 164.199 38.2734 163.743C38.4284 163.283 38.6517 162.884 38.9434 162.547C39.235 162.205 39.5882 161.941 40.0029 161.754C40.4176 161.562 40.8825 161.467 41.3975 161.467C41.917 161.467 42.3841 161.562 42.7988 161.754C43.2181 161.941 43.5736 162.205 43.8652 162.547C44.1615 162.884 44.387 163.283 44.542 163.743C44.6969 164.199 44.7744 164.693 44.7744 165.227V165.384C44.7744 165.917 44.6969 166.411 44.542 166.867C44.387 167.323 44.1615 167.722 43.8652 168.063C43.5736 168.401 43.2204 168.665 42.8057 168.856C42.3955 169.043 41.9307 169.137 41.4111 169.137C40.8916 169.137 40.4245 169.043 40.0098 168.856C39.5951 168.665 39.2396 168.401 38.9434 168.063C38.6517 167.722 38.4284 167.323 38.2734 166.867C38.1185 166.411 38.041 165.917 38.041 165.384ZM39.3057 165.227V165.384C39.3057 165.753 39.349 166.102 39.4355 166.43C39.5221 166.753 39.652 167.04 39.8252 167.291C40.0029 167.542 40.224 167.74 40.4883 167.886C40.7526 168.027 41.0602 168.098 41.4111 168.098C41.7575 168.098 42.0605 168.027 42.3203 167.886C42.5846 167.74 42.8034 167.542 42.9766 167.291C43.1497 167.04 43.2796 166.753 43.3662 166.43C43.4574 166.102 43.5029 165.753 43.5029 165.384V165.227C43.5029 164.862 43.4574 164.518 43.3662 164.194C43.2796 163.866 43.1475 163.577 42.9697 163.326C42.7965 163.071 42.5778 162.87 42.3135 162.725C42.0537 162.579 41.7484 162.506 41.3975 162.506C41.0511 162.506 40.7458 162.579 40.4814 162.725C40.2217 162.87 40.0029 163.071 39.8252 163.326C39.652 163.577 39.5221 163.866 39.4355 164.194C39.349 164.518 39.3057 164.862 39.3057 165.227ZM47.625 163.183V169H46.3604V161.604H47.5566L47.625 163.183ZM47.3242 165.021L46.7979 165.001C46.8024 164.495 46.8776 164.028 47.0234 163.6C47.1693 163.167 47.3743 162.791 47.6387 162.472C47.903 162.153 48.2174 161.907 48.582 161.733C48.9512 161.556 49.359 161.467 49.8057 161.467C50.1702 161.467 50.4984 161.517 50.79 161.617C51.0817 161.713 51.3301 161.868 51.5352 162.082C51.7448 162.296 51.9043 162.574 52.0137 162.916C52.123 163.253 52.1777 163.666 52.1777 164.153V169H50.9062V164.14C50.9062 163.752 50.8493 163.442 50.7354 163.21C50.6214 162.973 50.4551 162.802 50.2363 162.697C50.0176 162.588 49.7487 162.533 49.4297 162.533C49.1152 162.533 48.8281 162.599 48.5684 162.731C48.3132 162.864 48.0921 163.046 47.9053 163.278C47.723 163.511 47.5794 163.777 47.4746 164.078C47.3743 164.374 47.3242 164.689 47.3242 165.021ZM57.1953 161.604V162.574H53.1963V161.604H57.1953ZM54.5498 159.806H55.8145V167.168C55.8145 167.419 55.8532 167.608 55.9307 167.735C56.0081 167.863 56.1084 167.947 56.2314 167.988C56.3545 168.029 56.4867 168.05 56.6279 168.05C56.7327 168.05 56.8421 168.041 56.9561 168.022C57.0745 168 57.1634 167.981 57.2227 167.968L57.2295 169C57.1292 169.032 56.9971 169.062 56.833 169.089C56.6735 169.121 56.4798 169.137 56.252 169.137C55.9421 169.137 55.6572 169.075 55.3975 168.952C55.1377 168.829 54.9303 168.624 54.7754 168.337C54.625 168.045 54.5498 167.653 54.5498 167.161V159.806ZM60.0527 161.604V169H58.7812V161.604H60.0527ZM58.6855 159.642C58.6855 159.437 58.7471 159.263 58.8701 159.122C58.9977 158.981 59.1846 158.91 59.4307 158.91C59.6722 158.91 59.8568 158.981 59.9844 159.122C60.1165 159.263 60.1826 159.437 60.1826 159.642C60.1826 159.838 60.1165 160.006 59.9844 160.147C59.8568 160.284 59.6722 160.353 59.4307 160.353C59.1846 160.353 58.9977 160.284 58.8701 160.147C58.7471 160.006 58.6855 159.838 58.6855 159.642ZM63.3477 163.183V169H62.083V161.604H63.2793L63.3477 163.183ZM63.0469 165.021L62.5205 165.001C62.5251 164.495 62.6003 164.028 62.7461 163.6C62.8919 163.167 63.097 162.791 63.3613 162.472C63.6257 162.153 63.9401 161.907 64.3047 161.733C64.6738 161.556 65.0817 161.467 65.5283 161.467C65.8929 161.467 66.221 161.517 66.5127 161.617C66.8044 161.713 67.0527 161.868 67.2578 162.082C67.4674 162.296 67.627 162.574 67.7363 162.916C67.8457 163.253 67.9004 163.666 67.9004 164.153V169H66.6289V164.14C66.6289 163.752 66.5719 163.442 66.458 163.21C66.3441 162.973 66.1777 162.802 65.959 162.697C65.7402 162.588 65.4714 162.533 65.1523 162.533C64.8379 162.533 64.5508 162.599 64.291 162.731C64.0358 162.864 63.8148 163.046 63.6279 163.278C63.4456 163.511 63.3021 163.777 63.1973 164.078C63.097 164.374 63.0469 164.689 63.0469 165.021ZM74.3467 167.291V161.604H75.6182V169H74.4082L74.3467 167.291ZM74.5859 165.732L75.1123 165.719C75.1123 166.211 75.0599 166.667 74.9551 167.086C74.8548 167.501 74.6908 167.861 74.4629 168.166C74.235 168.471 73.9365 168.711 73.5674 168.884C73.1982 169.052 72.7493 169.137 72.2207 169.137C71.8607 169.137 71.5303 169.084 71.2295 168.979C70.9333 168.875 70.6781 168.713 70.4639 168.494C70.2497 168.275 70.0833 167.991 69.9648 167.64C69.8509 167.289 69.7939 166.867 69.7939 166.375V161.604H71.0586V166.389C71.0586 166.721 71.0951 166.997 71.168 167.216C71.2454 167.43 71.348 167.601 71.4756 167.729C71.6077 167.852 71.7536 167.938 71.9131 167.988C72.0771 168.038 72.2458 168.063 72.4189 168.063C72.9567 168.063 73.3828 167.961 73.6973 167.756C74.0117 167.546 74.2373 167.266 74.374 166.915C74.5153 166.56 74.5859 166.165 74.5859 165.732ZM77.2109 165.384V165.227C77.2109 164.693 77.2884 164.199 77.4434 163.743C77.5983 163.283 77.8216 162.884 78.1133 162.547C78.4049 162.205 78.7581 161.941 79.1729 161.754C79.5876 161.562 80.0524 161.467 80.5674 161.467C81.0869 161.467 81.554 161.562 81.9688 161.754C82.388 161.941 82.7435 162.205 83.0352 162.547C83.3314 162.884 83.557 163.283 83.7119 163.743C83.8669 164.199 83.9443 164.693 83.9443 165.227V165.384C83.9443 165.917 83.8669 166.411 83.7119 166.867C83.557 167.323 83.3314 167.722 83.0352 168.063C82.7435 168.401 82.3903 168.665 81.9756 168.856C81.5654 169.043 81.1006 169.137 80.5811 169.137C80.0615 169.137 79.5944 169.043 79.1797 168.856C78.765 168.665 78.4095 168.401 78.1133 168.063C77.8216 167.722 77.5983 167.323 77.4434 166.867C77.2884 166.411 77.2109 165.917 77.2109 165.384ZM78.4756 165.227V165.384C78.4756 165.753 78.5189 166.102 78.6055 166.43C78.6921 166.753 78.8219 167.04 78.9951 167.291C79.1729 167.542 79.3939 167.74 79.6582 167.886C79.9225 168.027 80.2301 168.098 80.5811 168.098C80.9274 168.098 81.2305 168.027 81.4902 167.886C81.7546 167.74 81.9733 167.542 82.1465 167.291C82.3197 167.04 82.4495 166.753 82.5361 166.43C82.6273 166.102 82.6729 165.753 82.6729 165.384V165.227C82.6729 164.862 82.6273 164.518 82.5361 164.194C82.4495 163.866 82.3174 163.577 82.1396 163.326C81.9665 163.071 81.7477 162.87 81.4834 162.725C81.2236 162.579 80.9183 162.506 80.5674 162.506C80.221 162.506 79.9157 162.579 79.6514 162.725C79.3916 162.87 79.1729 163.071 78.9951 163.326C78.8219 163.577 78.6921 163.866 78.6055 164.194C78.5189 164.518 78.4756 164.862 78.4756 165.227ZM90.0557 167.291V161.604H91.3271V169H90.1172L90.0557 167.291ZM90.2949 165.732L90.8213 165.719C90.8213 166.211 90.7689 166.667 90.6641 167.086C90.5638 167.501 90.3997 167.861 90.1719 168.166C89.944 168.471 89.6455 168.711 89.2764 168.884C88.9072 169.052 88.4583 169.137 87.9297 169.137C87.5697 169.137 87.2393 169.084 86.9385 168.979C86.6423 168.875 86.387 168.713 86.1729 168.494C85.9587 168.275 85.7923 167.991 85.6738 167.64C85.5599 167.289 85.5029 166.867 85.5029 166.375V161.604H86.7676V166.389C86.7676 166.721 86.804 166.997 86.877 167.216C86.9544 167.43 87.057 167.601 87.1846 167.729C87.3167 167.852 87.4626 167.938 87.6221 167.988C87.7861 168.038 87.9548 168.063 88.1279 168.063C88.6657 168.063 89.0918 167.961 89.4062 167.756C89.7207 167.546 89.9463 167.266 90.083 166.915C90.2243 166.56 90.2949 166.165 90.2949 165.732ZM97.5615 167.038C97.5615 166.856 97.5205 166.687 97.4385 166.532C97.361 166.373 97.1992 166.229 96.9531 166.102C96.7116 165.969 96.347 165.855 95.8594 165.76C95.4492 165.673 95.0778 165.571 94.7451 165.452C94.417 165.334 94.1367 165.19 93.9043 165.021C93.6764 164.853 93.501 164.655 93.3779 164.427C93.2549 164.199 93.1934 163.932 93.1934 163.627C93.1934 163.335 93.2572 163.06 93.3848 162.8C93.5169 162.54 93.7015 162.31 93.9385 162.109C94.18 161.909 94.4694 161.752 94.8066 161.638C95.1439 161.524 95.5199 161.467 95.9346 161.467C96.527 161.467 97.0329 161.572 97.4521 161.781C97.8714 161.991 98.1927 162.271 98.416 162.622C98.6393 162.968 98.751 163.354 98.751 163.777H97.4863C97.4863 163.572 97.4248 163.374 97.3018 163.183C97.1833 162.987 97.0078 162.825 96.7754 162.697C96.5475 162.57 96.2673 162.506 95.9346 162.506C95.5837 162.506 95.2988 162.561 95.0801 162.67C94.8659 162.775 94.7087 162.909 94.6084 163.073C94.5127 163.237 94.4648 163.41 94.4648 163.593C94.4648 163.729 94.4876 163.853 94.5332 163.962C94.5833 164.067 94.6699 164.165 94.793 164.256C94.916 164.342 95.0892 164.424 95.3125 164.502C95.5358 164.579 95.8206 164.657 96.167 164.734C96.7731 164.871 97.2721 165.035 97.6641 165.227C98.056 165.418 98.3477 165.653 98.5391 165.931C98.7305 166.209 98.8262 166.546 98.8262 166.942C98.8262 167.266 98.7578 167.562 98.6211 167.831C98.4889 168.1 98.2952 168.332 98.04 168.528C97.7894 168.72 97.4886 168.87 97.1377 168.979C96.7913 169.084 96.4017 169.137 95.9688 169.137C95.3171 169.137 94.7656 169.021 94.3145 168.788C93.8633 168.556 93.5215 168.255 93.2891 167.886C93.0566 167.517 92.9404 167.127 92.9404 166.717H94.2119C94.2301 167.063 94.3304 167.339 94.5127 167.544C94.695 167.744 94.9183 167.888 95.1826 167.975C95.4469 168.057 95.709 168.098 95.9688 168.098C96.3151 168.098 96.6045 168.052 96.8369 167.961C97.0739 167.87 97.2539 167.744 97.377 167.585C97.5 167.425 97.5615 167.243 97.5615 167.038ZM107.029 169.137C106.514 169.137 106.047 169.05 105.628 168.877C105.213 168.699 104.855 168.451 104.555 168.132C104.258 167.813 104.031 167.435 103.871 166.997C103.712 166.56 103.632 166.081 103.632 165.562V165.274C103.632 164.673 103.721 164.137 103.898 163.668C104.076 163.194 104.318 162.793 104.623 162.465C104.928 162.137 105.275 161.888 105.662 161.72C106.049 161.551 106.451 161.467 106.865 161.467C107.394 161.467 107.85 161.558 108.232 161.74C108.62 161.923 108.937 162.178 109.183 162.506C109.429 162.829 109.611 163.212 109.729 163.654C109.848 164.092 109.907 164.57 109.907 165.09V165.657H104.384V164.625H108.643V164.529C108.624 164.201 108.556 163.882 108.438 163.572C108.324 163.262 108.141 163.007 107.891 162.807C107.64 162.606 107.298 162.506 106.865 162.506C106.578 162.506 106.314 162.567 106.072 162.69C105.831 162.809 105.623 162.987 105.45 163.224C105.277 163.461 105.143 163.75 105.047 164.092C104.951 164.434 104.903 164.828 104.903 165.274V165.562C104.903 165.912 104.951 166.243 105.047 166.553C105.147 166.858 105.291 167.127 105.478 167.359C105.669 167.592 105.899 167.774 106.168 167.906C106.441 168.038 106.751 168.104 107.098 168.104C107.544 168.104 107.923 168.013 108.232 167.831C108.542 167.649 108.813 167.405 109.046 167.1L109.812 167.708C109.652 167.95 109.449 168.18 109.203 168.398C108.957 168.617 108.654 168.795 108.294 168.932C107.938 169.068 107.517 169.137 107.029 169.137ZM113.537 167.858L115.561 161.604H116.853L114.193 169H113.346L113.537 167.858ZM111.849 161.604L113.934 167.893L114.077 169H113.229L110.55 161.604H111.849ZM122.321 167.735V163.928C122.321 163.636 122.262 163.383 122.144 163.169C122.03 162.95 121.856 162.782 121.624 162.663C121.392 162.545 121.104 162.485 120.763 162.485C120.444 162.485 120.163 162.54 119.922 162.649C119.685 162.759 119.498 162.902 119.361 163.08C119.229 163.258 119.163 163.449 119.163 163.654H117.898C117.898 163.39 117.967 163.128 118.104 162.868C118.24 162.608 118.436 162.374 118.691 162.164C118.951 161.95 119.261 161.781 119.621 161.658C119.986 161.531 120.391 161.467 120.838 161.467C121.376 161.467 121.85 161.558 122.26 161.74C122.674 161.923 122.998 162.198 123.23 162.567C123.467 162.932 123.586 163.39 123.586 163.941V167.387C123.586 167.633 123.606 167.895 123.647 168.173C123.693 168.451 123.759 168.69 123.846 168.891V169H122.526C122.463 168.854 122.412 168.66 122.376 168.419C122.34 168.173 122.321 167.945 122.321 167.735ZM122.54 164.516L122.554 165.404H121.275C120.915 165.404 120.594 165.434 120.312 165.493C120.029 165.548 119.792 165.632 119.601 165.746C119.409 165.86 119.263 166.004 119.163 166.177C119.063 166.345 119.013 166.544 119.013 166.771C119.013 167.004 119.065 167.216 119.17 167.407C119.275 167.599 119.432 167.751 119.642 167.865C119.856 167.975 120.118 168.029 120.428 168.029C120.815 168.029 121.157 167.947 121.453 167.783C121.749 167.619 121.984 167.419 122.157 167.182C122.335 166.945 122.431 166.715 122.444 166.491L122.984 167.1C122.952 167.291 122.866 167.503 122.725 167.735C122.583 167.968 122.394 168.191 122.157 168.405C121.925 168.615 121.647 168.79 121.323 168.932C121.004 169.068 120.644 169.137 120.243 169.137C119.742 169.137 119.302 169.039 118.924 168.843C118.55 168.647 118.258 168.385 118.049 168.057C117.844 167.724 117.741 167.353 117.741 166.942C117.741 166.546 117.819 166.197 117.974 165.896C118.129 165.591 118.352 165.338 118.644 165.138C118.935 164.933 119.286 164.778 119.696 164.673C120.106 164.568 120.564 164.516 121.07 164.516H122.54ZM126.949 158.5V169H125.678V158.5H126.949ZM129 168.33C129 168.116 129.066 167.936 129.198 167.79C129.335 167.64 129.531 167.564 129.786 167.564C130.041 167.564 130.235 167.64 130.367 167.79C130.504 167.936 130.572 168.116 130.572 168.33C130.572 168.54 130.504 168.717 130.367 168.863C130.235 169.009 130.041 169.082 129.786 169.082C129.531 169.082 129.335 169.009 129.198 168.863C129.066 168.717 129 168.54 129 168.33ZM38.1709 187.735V183.928C38.1709 183.636 38.1117 183.383 37.9932 183.169C37.8792 182.95 37.7061 182.782 37.4736 182.663C37.2412 182.545 36.9541 182.485 36.6123 182.485C36.2933 182.485 36.013 182.54 35.7715 182.649C35.5345 182.759 35.3477 182.902 35.2109 183.08C35.0788 183.258 35.0127 183.449 35.0127 183.654H33.748C33.748 183.39 33.8164 183.128 33.9531 182.868C34.0898 182.608 34.2858 182.374 34.541 182.164C34.8008 181.95 35.1107 181.781 35.4707 181.658C35.8353 181.531 36.2409 181.467 36.6875 181.467C37.2253 181.467 37.6992 181.558 38.1094 181.74C38.5241 181.923 38.8477 182.198 39.0801 182.567C39.3171 182.932 39.4355 183.39 39.4355 183.941V187.387C39.4355 187.633 39.4561 187.895 39.4971 188.173C39.5426 188.451 39.6087 188.69 39.6953 188.891V189H38.376C38.3122 188.854 38.262 188.66 38.2256 188.419C38.1891 188.173 38.1709 187.945 38.1709 187.735ZM38.3896 184.516L38.4033 185.404H37.125C36.765 185.404 36.4437 185.434 36.1611 185.493C35.8786 185.548 35.6416 185.632 35.4502 185.746C35.2588 185.86 35.113 186.004 35.0127 186.177C34.9124 186.345 34.8623 186.544 34.8623 186.771C34.8623 187.004 34.9147 187.216 35.0195 187.407C35.1243 187.599 35.2816 187.751 35.4912 187.865C35.7054 187.975 35.9674 188.029 36.2773 188.029C36.6647 188.029 37.0065 187.947 37.3027 187.783C37.599 187.619 37.8337 187.419 38.0068 187.182C38.1846 186.945 38.2803 186.715 38.2939 186.491L38.834 187.1C38.8021 187.291 38.7155 187.503 38.5742 187.735C38.4329 187.968 38.2438 188.191 38.0068 188.405C37.7744 188.615 37.4964 188.79 37.1729 188.932C36.8538 189.068 36.4938 189.137 36.0928 189.137C35.5915 189.137 35.1517 189.039 34.7734 188.843C34.3997 188.647 34.1081 188.385 33.8984 188.057C33.6934 187.724 33.5908 187.353 33.5908 186.942C33.5908 186.546 33.6683 186.197 33.8232 185.896C33.9782 185.591 34.2015 185.338 34.4932 185.138C34.7848 184.933 35.1357 184.778 35.5459 184.673C35.9561 184.568 36.4141 184.516 36.9199 184.516H38.3896ZM42.6895 183.183V189H41.4248V181.604H42.6211L42.6895 183.183ZM42.3887 185.021L41.8623 185.001C41.8669 184.495 41.9421 184.028 42.0879 183.6C42.2337 183.167 42.4388 182.791 42.7031 182.472C42.9674 182.153 43.2819 181.907 43.6465 181.733C44.0156 181.556 44.4235 181.467 44.8701 181.467C45.2347 181.467 45.5628 181.517 45.8545 181.617C46.1462 181.713 46.3945 181.868 46.5996 182.082C46.8092 182.296 46.9688 182.574 47.0781 182.916C47.1875 183.253 47.2422 183.666 47.2422 184.153V189H45.9707V184.14C45.9707 183.752 45.9137 183.442 45.7998 183.21C45.6859 182.973 45.5195 182.802 45.3008 182.697C45.082 182.588 44.8132 182.533 44.4941 182.533C44.1797 182.533 43.8926 182.599 43.6328 182.731C43.3776 182.864 43.1566 183.046 42.9697 183.278C42.7874 183.511 42.6439 183.777 42.5391 184.078C42.4388 184.374 42.3887 184.689 42.3887 185.021ZM53.8252 187.564V178.5H55.0967V189H53.9346L53.8252 187.564ZM48.8486 185.384V185.24C48.8486 184.675 48.917 184.162 49.0537 183.702C49.195 183.237 49.3932 182.839 49.6484 182.506C49.9082 182.173 50.2158 181.918 50.5713 181.74C50.9313 181.558 51.3324 181.467 51.7744 181.467C52.2393 181.467 52.6449 181.549 52.9912 181.713C53.3421 181.872 53.6383 182.107 53.8799 182.417C54.126 182.722 54.3197 183.091 54.4609 183.524C54.6022 183.957 54.7002 184.447 54.7549 184.994V185.623C54.7048 186.165 54.6068 186.653 54.4609 187.086C54.3197 187.519 54.126 187.888 53.8799 188.193C53.6383 188.499 53.3421 188.733 52.9912 188.897C52.6403 189.057 52.2301 189.137 51.7607 189.137C51.3278 189.137 50.9313 189.043 50.5713 188.856C50.2158 188.67 49.9082 188.408 49.6484 188.07C49.3932 187.733 49.195 187.337 49.0537 186.881C48.917 186.421 48.8486 185.922 48.8486 185.384ZM50.1201 185.24V185.384C50.1201 185.753 50.1566 186.099 50.2295 186.423C50.307 186.746 50.4255 187.031 50.585 187.277C50.7445 187.523 50.9473 187.717 51.1934 187.858C51.4395 187.995 51.7334 188.063 52.0752 188.063C52.4945 188.063 52.8385 187.975 53.1074 187.797C53.3809 187.619 53.5996 187.384 53.7637 187.093C53.9277 186.801 54.0553 186.484 54.1465 186.143V184.495C54.0918 184.244 54.012 184.003 53.9072 183.771C53.807 183.534 53.6748 183.324 53.5107 183.142C53.3512 182.955 53.153 182.807 52.916 182.697C52.6836 182.588 52.4079 182.533 52.0889 182.533C51.7425 182.533 51.444 182.606 51.1934 182.752C50.9473 182.893 50.7445 183.089 50.585 183.34C50.4255 183.586 50.307 183.873 50.2295 184.201C50.1566 184.525 50.1201 184.871 50.1201 185.24ZM61.7959 183.073V189H60.5244V181.604H61.7275L61.7959 183.073ZM61.5361 185.021L60.9482 185.001C60.9528 184.495 61.0189 184.028 61.1465 183.6C61.2741 183.167 61.4632 182.791 61.7139 182.472C61.9645 182.153 62.2767 181.907 62.6504 181.733C63.0241 181.556 63.457 181.467 63.9492 181.467C64.2956 181.467 64.6146 181.517 64.9062 181.617C65.1979 181.713 65.4508 181.866 65.665 182.075C65.8792 182.285 66.0456 182.554 66.1641 182.882C66.2826 183.21 66.3418 183.606 66.3418 184.071V189H65.0771V184.133C65.0771 183.745 65.0111 183.436 64.8789 183.203C64.7513 182.971 64.569 182.802 64.332 182.697C64.0951 182.588 63.8171 182.533 63.498 182.533C63.1243 182.533 62.8122 182.599 62.5615 182.731C62.3109 182.864 62.1104 183.046 61.96 183.278C61.8096 183.511 61.7002 183.777 61.6318 184.078C61.568 184.374 61.5361 184.689 61.5361 185.021ZM66.3281 184.324L65.4805 184.584C65.485 184.178 65.5511 183.789 65.6787 183.415C65.8109 183.041 66 182.709 66.2461 182.417C66.4967 182.125 66.8044 181.895 67.1689 181.727C67.5335 181.553 67.9505 181.467 68.4199 181.467C68.8164 181.467 69.1673 181.519 69.4727 181.624C69.7826 181.729 70.0423 181.891 70.252 182.109C70.4661 182.324 70.6279 182.599 70.7373 182.937C70.8467 183.274 70.9014 183.675 70.9014 184.14V189H69.6299V184.126C69.6299 183.711 69.5638 183.39 69.4316 183.162C69.304 182.93 69.1217 182.768 68.8848 182.677C68.6523 182.581 68.3743 182.533 68.0508 182.533C67.7728 182.533 67.5267 182.581 67.3125 182.677C67.0983 182.772 66.9183 182.905 66.7725 183.073C66.6266 183.237 66.515 183.426 66.4375 183.641C66.3646 183.855 66.3281 184.083 66.3281 184.324ZM72.4805 185.384V185.227C72.4805 184.693 72.5579 184.199 72.7129 183.743C72.8678 183.283 73.0911 182.884 73.3828 182.547C73.6745 182.205 74.0277 181.941 74.4424 181.754C74.8571 181.562 75.3219 181.467 75.8369 181.467C76.3564 181.467 76.8236 181.562 77.2383 181.754C77.6576 181.941 78.013 182.205 78.3047 182.547C78.6009 182.884 78.8265 183.283 78.9814 183.743C79.1364 184.199 79.2139 184.693 79.2139 185.227V185.384C79.2139 185.917 79.1364 186.411 78.9814 186.867C78.8265 187.323 78.6009 187.722 78.3047 188.063C78.013 188.401 77.6598 188.665 77.2451 188.856C76.835 189.043 76.3701 189.137 75.8506 189.137C75.3311 189.137 74.8639 189.043 74.4492 188.856C74.0345 188.665 73.679 188.401 73.3828 188.063C73.0911 187.722 72.8678 187.323 72.7129 186.867C72.5579 186.411 72.4805 185.917 72.4805 185.384ZM73.7451 185.227V185.384C73.7451 185.753 73.7884 186.102 73.875 186.43C73.9616 186.753 74.0915 187.04 74.2646 187.291C74.4424 187.542 74.6634 187.74 74.9277 187.886C75.1921 188.027 75.4997 188.098 75.8506 188.098C76.1969 188.098 76.5 188.027 76.7598 187.886C77.0241 187.74 77.2428 187.542 77.416 187.291C77.5892 187.04 77.7191 186.753 77.8057 186.43C77.8968 186.102 77.9424 185.753 77.9424 185.384V185.227C77.9424 184.862 77.8968 184.518 77.8057 184.194C77.7191 183.866 77.5869 183.577 77.4092 183.326C77.236 183.071 77.0173 182.87 76.7529 182.725C76.4932 182.579 76.1878 182.506 75.8369 182.506C75.4906 182.506 75.1852 182.579 74.9209 182.725C74.6611 182.87 74.4424 183.071 74.2646 183.326C74.0915 183.577 73.9616 183.866 73.875 184.194C73.7884 184.518 73.7451 184.862 73.7451 185.227ZM82.0645 183.183V189H80.7998V181.604H81.9961L82.0645 183.183ZM81.7637 185.021L81.2373 185.001C81.2419 184.495 81.3171 184.028 81.4629 183.6C81.6087 183.167 81.8138 182.791 82.0781 182.472C82.3424 182.153 82.6569 181.907 83.0215 181.733C83.3906 181.556 83.7985 181.467 84.2451 181.467C84.6097 181.467 84.9378 181.517 85.2295 181.617C85.5212 181.713 85.7695 181.868 85.9746 182.082C86.1842 182.296 86.3438 182.574 86.4531 182.916C86.5625 183.253 86.6172 183.666 86.6172 184.153V189H85.3457V184.14C85.3457 183.752 85.2887 183.442 85.1748 183.21C85.0609 182.973 84.8945 182.802 84.6758 182.697C84.457 182.588 84.1882 182.533 83.8691 182.533C83.5547 182.533 83.2676 182.599 83.0078 182.731C82.7526 182.864 82.5316 183.046 82.3447 183.278C82.1624 183.511 82.0189 183.777 81.9141 184.078C81.8138 184.374 81.7637 184.689 81.7637 185.021ZM89.9121 181.604V189H88.6406V181.604H89.9121ZM88.5449 179.642C88.5449 179.437 88.6064 179.263 88.7295 179.122C88.8571 178.981 89.0439 178.91 89.29 178.91C89.5316 178.91 89.7161 178.981 89.8438 179.122C89.9759 179.263 90.042 179.437 90.042 179.642C90.042 179.838 89.9759 180.006 89.8438 180.147C89.7161 180.284 89.5316 180.353 89.29 180.353C89.0439 180.353 88.8571 180.284 88.7295 180.147C88.6064 180.006 88.5449 179.838 88.5449 179.642ZM95.0391 181.604V182.574H91.04V181.604H95.0391ZM92.3936 179.806H93.6582V187.168C93.6582 187.419 93.6969 187.608 93.7744 187.735C93.8519 187.863 93.9521 187.947 94.0752 187.988C94.1982 188.029 94.3304 188.05 94.4717 188.05C94.5765 188.05 94.6859 188.041 94.7998 188.022C94.9183 188 95.0072 187.981 95.0664 187.968L95.0732 189C94.973 189.032 94.8408 189.062 94.6768 189.089C94.5173 189.121 94.3236 189.137 94.0957 189.137C93.7858 189.137 93.501 189.075 93.2412 188.952C92.9814 188.829 92.7741 188.624 92.6191 188.337C92.4688 188.045 92.3936 187.653 92.3936 187.161V179.806ZM96.0508 185.384V185.227C96.0508 184.693 96.1283 184.199 96.2832 183.743C96.4382 183.283 96.6615 182.884 96.9531 182.547C97.2448 182.205 97.598 181.941 98.0127 181.754C98.4274 181.562 98.8923 181.467 99.4072 181.467C99.9268 181.467 100.394 181.562 100.809 181.754C101.228 181.941 101.583 182.205 101.875 182.547C102.171 182.884 102.397 183.283 102.552 183.743C102.707 184.199 102.784 184.693 102.784 185.227V185.384C102.784 185.917 102.707 186.411 102.552 186.867C102.397 187.323 102.171 187.722 101.875 188.063C101.583 188.401 101.23 188.665 100.815 188.856C100.405 189.043 99.9404 189.137 99.4209 189.137C98.9014 189.137 98.4342 189.043 98.0195 188.856C97.6048 188.665 97.2493 188.401 96.9531 188.063C96.6615 187.722 96.4382 187.323 96.2832 186.867C96.1283 186.411 96.0508 185.917 96.0508 185.384ZM97.3154 185.227V185.384C97.3154 185.753 97.3587 186.102 97.4453 186.43C97.5319 186.753 97.6618 187.04 97.835 187.291C98.0127 187.542 98.2337 187.74 98.498 187.886C98.7624 188.027 99.07 188.098 99.4209 188.098C99.7673 188.098 100.07 188.027 100.33 187.886C100.594 187.74 100.813 187.542 100.986 187.291C101.16 187.04 101.289 186.753 101.376 186.43C101.467 186.102 101.513 185.753 101.513 185.384V185.227C101.513 184.862 101.467 184.518 101.376 184.194C101.289 183.866 101.157 183.577 100.979 183.326C100.806 183.071 100.588 182.87 100.323 182.725C100.063 182.579 99.7581 182.506 99.4072 182.506C99.0609 182.506 98.7555 182.579 98.4912 182.725C98.2314 182.87 98.0127 183.071 97.835 183.326C97.6618 183.577 97.5319 183.866 97.4453 184.194C97.3587 184.518 97.3154 184.862 97.3154 185.227ZM105.635 182.766V189H104.37V181.604H105.601L105.635 182.766ZM107.945 181.562L107.938 182.738C107.834 182.715 107.733 182.702 107.638 182.697C107.547 182.688 107.442 182.684 107.323 182.684C107.032 182.684 106.774 182.729 106.551 182.82C106.327 182.911 106.138 183.039 105.983 183.203C105.828 183.367 105.705 183.563 105.614 183.791C105.528 184.014 105.471 184.26 105.443 184.529L105.088 184.734C105.088 184.288 105.131 183.868 105.218 183.477C105.309 183.085 105.448 182.738 105.635 182.438C105.822 182.132 106.059 181.895 106.346 181.727C106.637 181.553 106.984 181.467 107.385 181.467C107.476 181.467 107.581 181.478 107.699 181.501C107.818 181.519 107.9 181.54 107.945 181.562ZM110.488 181.604V189H109.217V181.604H110.488ZM109.121 179.642C109.121 179.437 109.183 179.263 109.306 179.122C109.433 178.981 109.62 178.91 109.866 178.91C110.108 178.91 110.292 178.981 110.42 179.122C110.552 179.263 110.618 179.437 110.618 179.642C110.618 179.838 110.552 180.006 110.42 180.147C110.292 180.284 110.108 180.353 109.866 180.353C109.62 180.353 109.433 180.284 109.306 180.147C109.183 180.006 109.121 179.838 109.121 179.642ZM113.783 183.183V189H112.519V181.604H113.715L113.783 183.183ZM113.482 185.021L112.956 185.001C112.961 184.495 113.036 184.028 113.182 183.6C113.327 183.167 113.533 182.791 113.797 182.472C114.061 182.153 114.376 181.907 114.74 181.733C115.109 181.556 115.517 181.467 115.964 181.467C116.328 181.467 116.657 181.517 116.948 181.617C117.24 181.713 117.488 181.868 117.693 182.082C117.903 182.296 118.062 182.574 118.172 182.916C118.281 183.253 118.336 183.666 118.336 184.153V189H117.064V184.14C117.064 183.752 117.007 183.442 116.894 183.21C116.78 182.973 116.613 182.802 116.395 182.697C116.176 182.588 115.907 182.533 115.588 182.533C115.273 182.533 114.986 182.599 114.727 182.731C114.471 182.864 114.25 183.046 114.063 183.278C113.881 183.511 113.738 183.777 113.633 184.078C113.533 184.374 113.482 184.689 113.482 185.021ZM125.049 181.604H126.197V188.843C126.197 189.494 126.065 190.05 125.801 190.511C125.536 190.971 125.167 191.32 124.693 191.557C124.224 191.798 123.682 191.919 123.066 191.919C122.811 191.919 122.51 191.878 122.164 191.796C121.822 191.718 121.485 191.584 121.152 191.393C120.824 191.206 120.549 190.953 120.325 190.634L120.988 189.882C121.298 190.256 121.622 190.515 121.959 190.661C122.301 190.807 122.638 190.88 122.971 190.88C123.372 190.88 123.718 190.805 124.01 190.654C124.301 190.504 124.527 190.281 124.687 189.984C124.851 189.693 124.933 189.333 124.933 188.904V183.23L125.049 181.604ZM119.956 185.384V185.24C119.956 184.675 120.022 184.162 120.154 183.702C120.291 183.237 120.485 182.839 120.735 182.506C120.991 182.173 121.298 181.918 121.658 181.74C122.018 181.558 122.424 181.467 122.875 181.467C123.34 181.467 123.745 181.549 124.092 181.713C124.443 181.872 124.739 182.107 124.98 182.417C125.227 182.722 125.42 183.091 125.562 183.524C125.703 183.957 125.801 184.447 125.855 184.994V185.623C125.805 186.165 125.707 186.653 125.562 187.086C125.42 187.519 125.227 187.888 124.98 188.193C124.739 188.499 124.443 188.733 124.092 188.897C123.741 189.057 123.331 189.137 122.861 189.137C122.419 189.137 122.018 189.043 121.658 188.856C121.303 188.67 120.997 188.408 120.742 188.07C120.487 187.733 120.291 187.337 120.154 186.881C120.022 186.421 119.956 185.922 119.956 185.384ZM121.221 185.24V185.384C121.221 185.753 121.257 186.099 121.33 186.423C121.408 186.746 121.524 187.031 121.679 187.277C121.838 187.523 122.041 187.717 122.287 187.858C122.533 187.995 122.827 188.063 123.169 188.063C123.588 188.063 123.935 187.975 124.208 187.797C124.481 187.619 124.698 187.384 124.857 187.093C125.021 186.801 125.149 186.484 125.24 186.143V184.495C125.19 184.244 125.113 184.003 125.008 183.771C124.908 183.534 124.775 183.324 124.611 183.142C124.452 182.955 124.254 182.807 124.017 182.697C123.78 182.588 123.502 182.533 123.183 182.533C122.836 182.533 122.538 182.606 122.287 182.752C122.041 182.893 121.838 183.089 121.679 183.34C121.524 183.586 121.408 183.873 121.33 184.201C121.257 184.525 121.221 184.871 121.221 185.24Z" fill="#949699"/>
<defs>
<linearGradient id="paint0_linear_3944_24530" x1="89.8864" y1="33.6364" x2="81.9562" y2="136.792" gradientUnits="userSpaceOnUse">
<stop offset="0.1975" stop-color="#FFB666"/>
<stop offset="0.95505" stop-color="#FF0E65"/>
</linearGradient>
<linearGradient id="paint1_linear_3944_24530" x1="89.8864" y1="33.6364" x2="81.9562" y2="136.792" gradientUnits="userSpaceOnUse">
<stop offset="0.1975" stop-color="#FFB666"/>
<stop offset="0.95505" stop-color="#FF0E65"/>
</linearGradient>
<linearGradient id="paint2_linear_3944_24530" x1="89.8864" y1="33.6364" x2="81.9562" y2="136.792" gradientUnits="userSpaceOnUse">
<stop offset="0.1975" stop-color="#FFB666"/>
<stop offset="0.95505" stop-color="#FF0E65"/>
</linearGradient>
</defs>
</svg>
