<svg width="160" height="229" viewBox="0 0 160 229" fill="none" xmlns="http://www.w3.org/2000/svg">
<path d="M39.1797 136.057V138H31.6309V136.057H39.1797ZM32.3242 123.781V138H29.873V123.781H32.3242ZM38.1934 129.719V131.633H31.6309V129.719H38.1934ZM39.1309 123.781V125.734H31.6309V123.781H39.1309ZM44.1309 136.135L46.7188 127.434H49.1602L45.4883 138H43.9648L44.1309 136.135ZM42.1484 127.434L44.7852 136.174L44.9121 138H43.3887L39.6973 127.434H42.1484ZM56.416 135.881V130.842C56.416 130.464 56.3477 130.139 56.2109 129.865C56.0742 129.592 55.8659 129.38 55.5859 129.23C55.3125 129.081 54.9674 129.006 54.5508 129.006C54.1667 129.006 53.8346 129.071 53.5547 129.201C53.2747 129.331 53.0566 129.507 52.9004 129.729C52.7441 129.95 52.666 130.201 52.666 130.48H50.3223C50.3223 130.064 50.4232 129.66 50.625 129.27C50.8268 128.879 51.1198 128.531 51.5039 128.225C51.888 127.919 52.347 127.678 52.8809 127.502C53.4147 127.326 54.0137 127.238 54.6777 127.238C55.472 127.238 56.1751 127.372 56.7871 127.639C57.4056 127.906 57.8906 128.309 58.2422 128.85C58.6003 129.383 58.7793 130.054 58.7793 130.861V135.559C58.7793 136.04 58.8118 136.473 58.877 136.857C58.9486 137.235 59.0495 137.564 59.1797 137.844V138H56.7676C56.6569 137.746 56.569 137.424 56.5039 137.033C56.4453 136.636 56.416 136.252 56.416 135.881ZM56.7578 131.574L56.7773 133.029H55.0879C54.6517 133.029 54.2676 133.072 53.9355 133.156C53.6035 133.234 53.3268 133.352 53.1055 133.508C52.8841 133.664 52.7181 133.853 52.6074 134.074C52.4967 134.296 52.4414 134.546 52.4414 134.826C52.4414 135.106 52.5065 135.363 52.6367 135.598C52.7669 135.826 52.9557 136.005 53.2031 136.135C53.457 136.265 53.763 136.33 54.1211 136.33C54.6029 136.33 55.0228 136.232 55.3809 136.037C55.7454 135.835 56.0319 135.591 56.2402 135.305C56.4486 135.012 56.5592 134.735 56.5723 134.475L57.334 135.52C57.2559 135.786 57.1224 136.073 56.9336 136.379C56.7448 136.685 56.4974 136.978 56.1914 137.258C55.8919 137.531 55.5306 137.756 55.1074 137.932C54.6908 138.107 54.209 138.195 53.6621 138.195C52.972 138.195 52.3568 138.059 51.8164 137.785C51.276 137.505 50.8529 137.131 50.5469 136.662C50.2409 136.187 50.0879 135.65 50.0879 135.051C50.0879 134.491 50.1921 133.996 50.4004 133.566C50.6152 133.13 50.9277 132.766 51.3379 132.473C51.7546 132.18 52.2624 131.958 52.8613 131.809C53.4603 131.652 54.1439 131.574 54.9121 131.574H56.7578ZM63.7598 123V138H61.3965V123H63.7598ZM72.6953 135.51V127.434H75.0586V138H72.832L72.6953 135.51ZM73.0273 133.312L73.8184 133.293C73.8184 134.003 73.7402 134.657 73.584 135.256C73.4277 135.848 73.1868 136.366 72.8613 136.809C72.5358 137.245 72.1191 137.587 71.6113 137.834C71.1035 138.075 70.4948 138.195 69.7852 138.195C69.2708 138.195 68.7988 138.12 68.3691 137.971C67.9395 137.821 67.5684 137.59 67.2559 137.277C66.9499 136.965 66.7122 136.558 66.543 136.057C66.3737 135.555 66.2891 134.956 66.2891 134.26V127.434H68.6426V134.279C68.6426 134.663 68.6882 134.986 68.7793 135.246C68.8704 135.5 68.9941 135.705 69.1504 135.861C69.3066 136.018 69.4889 136.128 69.6973 136.193C69.9056 136.258 70.127 136.291 70.3613 136.291C71.0319 136.291 71.5592 136.161 71.9434 135.9C72.334 135.633 72.6107 135.275 72.7734 134.826C72.9427 134.377 73.0273 133.872 73.0273 133.312ZM83.4277 135.881V130.842C83.4277 130.464 83.3594 130.139 83.2227 129.865C83.0859 129.592 82.8776 129.38 82.5977 129.23C82.3242 129.081 81.9792 129.006 81.5625 129.006C81.1784 129.006 80.8464 129.071 80.5664 129.201C80.2865 129.331 80.0684 129.507 79.9121 129.729C79.7559 129.95 79.6777 130.201 79.6777 130.48H77.334C77.334 130.064 77.4349 129.66 77.6367 129.27C77.8385 128.879 78.1315 128.531 78.5156 128.225C78.8997 127.919 79.3587 127.678 79.8926 127.502C80.4264 127.326 81.0254 127.238 81.6895 127.238C82.4837 127.238 83.1868 127.372 83.7988 127.639C84.4173 127.906 84.9023 128.309 85.2539 128.85C85.612 129.383 85.791 130.054 85.791 130.861V135.559C85.791 136.04 85.8236 136.473 85.8887 136.857C85.9603 137.235 86.0612 137.564 86.1914 137.844V138H83.7793C83.6686 137.746 83.5807 137.424 83.5156 137.033C83.457 136.636 83.4277 136.252 83.4277 135.881ZM83.7695 131.574L83.7891 133.029H82.0996C81.6634 133.029 81.2793 133.072 80.9473 133.156C80.6152 133.234 80.3385 133.352 80.1172 133.508C79.8958 133.664 79.7298 133.853 79.6191 134.074C79.5085 134.296 79.4531 134.546 79.4531 134.826C79.4531 135.106 79.5182 135.363 79.6484 135.598C79.7786 135.826 79.9674 136.005 80.2148 136.135C80.4688 136.265 80.7747 136.33 81.1328 136.33C81.6146 136.33 82.0345 136.232 82.3926 136.037C82.7572 135.835 83.0436 135.591 83.252 135.305C83.4603 135.012 83.571 134.735 83.584 134.475L84.3457 135.52C84.2676 135.786 84.1341 136.073 83.9453 136.379C83.7565 136.685 83.5091 136.978 83.2031 137.258C82.9036 137.531 82.5423 137.756 82.1191 137.932C81.7025 138.107 81.2207 138.195 80.6738 138.195C79.9837 138.195 79.3685 138.059 78.8281 137.785C78.2878 137.505 77.8646 137.131 77.5586 136.662C77.2526 136.187 77.0996 135.65 77.0996 135.051C77.0996 134.491 77.2038 133.996 77.4121 133.566C77.627 133.13 77.9395 132.766 78.3496 132.473C78.7663 132.18 79.2741 131.958 79.873 131.809C80.472 131.652 81.1556 131.574 81.9238 131.574H83.7695ZM93.0957 127.434V129.152H87.1387V127.434H93.0957ZM88.8574 124.846H91.2109V135.08C91.2109 135.406 91.2565 135.656 91.3477 135.832C91.4453 136.001 91.5788 136.115 91.748 136.174C91.9173 136.232 92.1159 136.262 92.3438 136.262C92.5065 136.262 92.6628 136.252 92.8125 136.232C92.9622 136.213 93.0827 136.193 93.1738 136.174L93.1836 137.971C92.9883 138.029 92.7604 138.081 92.5 138.127C92.2461 138.173 91.9531 138.195 91.6211 138.195C91.0807 138.195 90.6022 138.101 90.1855 137.912C89.7689 137.717 89.4434 137.401 89.209 136.965C88.9746 136.529 88.8574 135.949 88.8574 135.227V124.846ZM97.4316 127.434V138H95.0684V127.434H97.4316ZM94.9121 124.66C94.9121 124.302 95.0293 124.006 95.2637 123.771C95.5046 123.531 95.8366 123.41 96.2598 123.41C96.6764 123.41 97.0052 123.531 97.2461 123.771C97.487 124.006 97.6074 124.302 97.6074 124.66C97.6074 125.012 97.487 125.305 97.2461 125.539C97.0052 125.773 96.6764 125.891 96.2598 125.891C95.8366 125.891 95.5046 125.773 95.2637 125.539C95.0293 125.305 94.9121 125.012 94.9121 124.66ZM99.5605 132.834V132.609C99.5605 131.848 99.6712 131.141 99.8926 130.49C100.114 129.833 100.433 129.263 100.85 128.781C101.273 128.293 101.787 127.915 102.393 127.648C103.005 127.375 103.695 127.238 104.463 127.238C105.238 127.238 105.928 127.375 106.533 127.648C107.145 127.915 107.663 128.293 108.086 128.781C108.509 129.263 108.831 129.833 109.053 130.49C109.274 131.141 109.385 131.848 109.385 132.609V132.834C109.385 133.596 109.274 134.302 109.053 134.953C108.831 135.604 108.509 136.174 108.086 136.662C107.663 137.144 107.148 137.521 106.543 137.795C105.938 138.062 105.251 138.195 104.482 138.195C103.708 138.195 103.014 138.062 102.402 137.795C101.797 137.521 101.283 137.144 100.859 136.662C100.436 136.174 100.114 135.604 99.8926 134.953C99.6712 134.302 99.5605 133.596 99.5605 132.834ZM101.914 132.609V132.834C101.914 133.309 101.963 133.758 102.061 134.182C102.158 134.605 102.311 134.976 102.52 135.295C102.728 135.614 102.995 135.865 103.32 136.047C103.646 136.229 104.033 136.32 104.482 136.32C104.919 136.32 105.296 136.229 105.615 136.047C105.941 135.865 106.208 135.614 106.416 135.295C106.624 134.976 106.777 134.605 106.875 134.182C106.979 133.758 107.031 133.309 107.031 132.834V132.609C107.031 132.141 106.979 131.698 106.875 131.281C106.777 130.858 106.621 130.484 106.406 130.158C106.198 129.833 105.931 129.579 105.605 129.396C105.286 129.208 104.906 129.113 104.463 129.113C104.02 129.113 103.636 129.208 103.311 129.396C102.992 129.579 102.728 129.833 102.52 130.158C102.311 130.484 102.158 130.858 102.061 131.281C101.963 131.698 101.914 132.141 101.914 132.609ZM113.691 129.689V138H111.338V127.434H113.555L113.691 129.689ZM113.271 132.326L112.51 132.316C112.516 131.568 112.62 130.881 112.822 130.256C113.031 129.631 113.317 129.094 113.682 128.645C114.053 128.195 114.495 127.85 115.01 127.609C115.524 127.362 116.097 127.238 116.729 127.238C117.236 127.238 117.695 127.31 118.105 127.453C118.522 127.59 118.877 127.814 119.17 128.127C119.469 128.439 119.697 128.846 119.854 129.348C120.01 129.842 120.088 130.451 120.088 131.174V138H117.725V131.164C117.725 130.656 117.65 130.256 117.5 129.963C117.357 129.663 117.145 129.452 116.865 129.328C116.592 129.198 116.25 129.133 115.84 129.133C115.436 129.133 115.075 129.217 114.756 129.387C114.437 129.556 114.167 129.787 113.945 130.08C113.73 130.373 113.564 130.712 113.447 131.096C113.33 131.48 113.271 131.89 113.271 132.326ZM128.418 135.139C128.418 134.904 128.359 134.693 128.242 134.504C128.125 134.309 127.9 134.133 127.568 133.977C127.243 133.82 126.761 133.677 126.123 133.547C125.563 133.423 125.049 133.277 124.58 133.107C124.118 132.932 123.721 132.72 123.389 132.473C123.057 132.225 122.799 131.932 122.617 131.594C122.435 131.255 122.344 130.865 122.344 130.422C122.344 129.992 122.438 129.585 122.627 129.201C122.816 128.817 123.086 128.479 123.438 128.186C123.789 127.893 124.215 127.661 124.717 127.492C125.225 127.323 125.791 127.238 126.416 127.238C127.301 127.238 128.06 127.388 128.691 127.688C129.329 127.98 129.818 128.381 130.156 128.889C130.495 129.39 130.664 129.956 130.664 130.588H128.311C128.311 130.308 128.239 130.048 128.096 129.807C127.959 129.559 127.751 129.361 127.471 129.211C127.191 129.055 126.839 128.977 126.416 128.977C126.012 128.977 125.677 129.042 125.41 129.172C125.15 129.296 124.954 129.458 124.824 129.66C124.701 129.862 124.639 130.083 124.639 130.324C124.639 130.5 124.671 130.66 124.736 130.803C124.808 130.939 124.925 131.066 125.088 131.184C125.251 131.294 125.472 131.398 125.752 131.496C126.038 131.594 126.396 131.688 126.826 131.779C127.633 131.949 128.327 132.167 128.906 132.434C129.492 132.694 129.941 133.033 130.254 133.449C130.566 133.859 130.723 134.38 130.723 135.012C130.723 135.48 130.622 135.91 130.42 136.301C130.225 136.685 129.938 137.02 129.561 137.307C129.183 137.587 128.73 137.805 128.203 137.961C127.682 138.117 127.096 138.195 126.445 138.195C125.488 138.195 124.678 138.026 124.014 137.688C123.35 137.342 122.845 136.903 122.5 136.369C122.161 135.829 121.992 135.269 121.992 134.689H124.268C124.294 135.126 124.414 135.474 124.629 135.734C124.85 135.988 125.124 136.174 125.449 136.291C125.781 136.402 126.123 136.457 126.475 136.457C126.898 136.457 127.253 136.402 127.539 136.291C127.826 136.174 128.044 136.018 128.193 135.822C128.343 135.62 128.418 135.393 128.418 135.139Z" fill="#33383D"/>
<path d="M10.8813 163.609H12.2876C12.2144 164.283 12.0215 164.886 11.709 165.418C11.3965 165.95 10.9546 166.373 10.3833 166.685C9.81201 166.993 9.09912 167.146 8.24463 167.146C7.61963 167.146 7.05078 167.029 6.53809 166.795C6.03027 166.561 5.59326 166.229 5.22705 165.799C4.86084 165.364 4.57764 164.844 4.37744 164.239C4.18213 163.628 4.08447 162.95 4.08447 162.203V161.141C4.08447 160.394 4.18213 159.717 4.37744 159.112C4.57764 158.501 4.86328 157.979 5.23438 157.544C5.61035 157.11 6.06201 156.775 6.58936 156.541C7.1167 156.307 7.70996 156.189 8.36914 156.189C9.1748 156.189 9.85596 156.341 10.4126 156.644C10.9692 156.946 11.4014 157.366 11.709 157.903C12.0215 158.436 12.2144 159.053 12.2876 159.756H10.8813C10.813 159.258 10.686 158.831 10.5005 158.475C10.3149 158.113 10.0513 157.835 9.70947 157.64C9.36768 157.444 8.9209 157.347 8.36914 157.347C7.89551 157.347 7.47803 157.437 7.1167 157.618C6.76025 157.798 6.45996 158.055 6.21582 158.387C5.97656 158.719 5.7959 159.117 5.67383 159.581C5.55176 160.044 5.49072 160.56 5.49072 161.126V162.203C5.49072 162.725 5.54443 163.216 5.65186 163.675C5.76416 164.134 5.93262 164.537 6.15723 164.883C6.38184 165.23 6.66748 165.503 7.01416 165.704C7.36084 165.899 7.771 165.997 8.24463 165.997C8.84521 165.997 9.32373 165.901 9.68018 165.711C10.0366 165.521 10.3052 165.247 10.4858 164.891C10.6714 164.534 10.8032 164.107 10.8813 163.609ZM13.6499 163.125V162.957C13.6499 162.386 13.7329 161.856 13.8989 161.368C14.0649 160.875 14.3042 160.447 14.6167 160.086C14.9292 159.72 15.3076 159.437 15.752 159.236C16.1963 159.031 16.6943 158.929 17.2461 158.929C17.8027 158.929 18.3032 159.031 18.7476 159.236C19.1968 159.437 19.5776 159.72 19.8901 160.086C20.2075 160.447 20.4492 160.875 20.6152 161.368C20.7812 161.856 20.8643 162.386 20.8643 162.957V163.125C20.8643 163.697 20.7812 164.227 20.6152 164.715C20.4492 165.203 20.2075 165.63 19.8901 165.997C19.5776 166.358 19.1992 166.641 18.7549 166.846C18.3154 167.046 17.8174 167.146 17.2607 167.146C16.7041 167.146 16.2036 167.046 15.7593 166.846C15.3149 166.641 14.9341 166.358 14.6167 165.997C14.3042 165.63 14.0649 165.203 13.8989 164.715C13.7329 164.227 13.6499 163.697 13.6499 163.125ZM15.0049 162.957V163.125C15.0049 163.521 15.0513 163.895 15.144 164.246C15.2368 164.593 15.376 164.9 15.5615 165.169C15.752 165.438 15.9888 165.65 16.272 165.806C16.5552 165.958 16.8848 166.033 17.2607 166.033C17.6318 166.033 17.9565 165.958 18.2349 165.806C18.5181 165.65 18.7524 165.438 18.938 165.169C19.1235 164.9 19.2627 164.593 19.3555 164.246C19.4531 163.895 19.502 163.521 19.502 163.125V162.957C19.502 162.566 19.4531 162.198 19.3555 161.851C19.2627 161.5 19.1211 161.189 18.9307 160.921C18.7451 160.647 18.5107 160.433 18.2275 160.276C17.9492 160.12 17.6221 160.042 17.2461 160.042C16.875 160.042 16.5479 160.12 16.2646 160.276C15.9863 160.433 15.752 160.647 15.5615 160.921C15.376 161.189 15.2368 161.5 15.144 161.851C15.0513 162.198 15.0049 162.566 15.0049 162.957ZM23.9185 160.767V167H22.5635V159.075H23.8452L23.9185 160.767ZM23.5962 162.737L23.0322 162.715C23.0371 162.173 23.1177 161.673 23.2739 161.214C23.4302 160.75 23.6499 160.347 23.9331 160.005C24.2163 159.664 24.5532 159.4 24.9438 159.214C25.3394 159.024 25.7764 158.929 26.2549 158.929C26.6455 158.929 26.9971 158.982 27.3096 159.09C27.6221 159.192 27.8882 159.358 28.1079 159.588C28.3325 159.817 28.5034 160.115 28.6206 160.481C28.7378 160.843 28.7964 161.285 28.7964 161.807V167H27.4341V161.792C27.4341 161.377 27.373 161.045 27.251 160.796C27.1289 160.542 26.9507 160.359 26.7163 160.247C26.4819 160.13 26.1938 160.071 25.8521 160.071C25.5151 160.071 25.2075 160.142 24.9292 160.284C24.6558 160.425 24.4189 160.621 24.2188 160.87C24.0234 161.119 23.8696 161.404 23.7573 161.727C23.6499 162.044 23.5962 162.381 23.5962 162.737ZM34.1724 159.075V160.115H29.8877V159.075H34.1724ZM31.3379 157.149H32.6929V165.037C32.6929 165.306 32.7344 165.508 32.8174 165.645C32.9004 165.782 33.0078 165.872 33.1396 165.916C33.2715 165.96 33.4131 165.982 33.5645 165.982C33.6768 165.982 33.7939 165.972 33.916 165.953C34.043 165.928 34.1382 165.909 34.2017 165.894L34.209 167C34.1016 167.034 33.96 167.066 33.7842 167.095C33.6133 167.129 33.4058 167.146 33.1616 167.146C32.8296 167.146 32.5244 167.081 32.2461 166.949C31.9678 166.817 31.7456 166.597 31.5796 166.29C31.4185 165.977 31.3379 165.557 31.3379 165.03V157.149ZM37.2339 159.075V167H35.8716V159.075H37.2339ZM35.769 156.973C35.769 156.753 35.835 156.568 35.9668 156.417C36.1035 156.265 36.3037 156.189 36.5674 156.189C36.8262 156.189 37.0239 156.265 37.1606 156.417C37.3022 156.568 37.373 156.753 37.373 156.973C37.373 157.183 37.3022 157.364 37.1606 157.515C37.0239 157.662 36.8262 157.735 36.5674 157.735C36.3037 157.735 36.1035 157.662 35.9668 157.515C35.835 157.364 35.769 157.183 35.769 156.973ZM40.7642 160.767V167H39.4092V159.075H40.6909L40.7642 160.767ZM40.4419 162.737L39.8779 162.715C39.8828 162.173 39.9634 161.673 40.1196 161.214C40.2759 160.75 40.4956 160.347 40.7788 160.005C41.062 159.664 41.3989 159.4 41.7896 159.214C42.1851 159.024 42.6221 158.929 43.1006 158.929C43.4912 158.929 43.8428 158.982 44.1553 159.09C44.4678 159.192 44.7339 159.358 44.9536 159.588C45.1782 159.817 45.3491 160.115 45.4663 160.481C45.5835 160.843 45.6421 161.285 45.6421 161.807V167H44.2798V161.792C44.2798 161.377 44.2188 161.045 44.0967 160.796C43.9746 160.542 43.7964 160.359 43.562 160.247C43.3276 160.13 43.0396 160.071 42.6978 160.071C42.3608 160.071 42.0532 160.142 41.7749 160.284C41.5015 160.425 41.2646 160.621 41.0645 160.87C40.8691 161.119 40.7153 161.404 40.603 161.727C40.4956 162.044 40.4419 162.381 40.4419 162.737ZM52.5488 165.169V159.075H53.9111V167H52.6147L52.5488 165.169ZM52.8052 163.499L53.3691 163.484C53.3691 164.012 53.313 164.5 53.2007 164.949C53.0933 165.394 52.9175 165.779 52.6733 166.106C52.4292 166.434 52.1094 166.69 51.7139 166.875C51.3184 167.056 50.8374 167.146 50.271 167.146C49.8853 167.146 49.5312 167.09 49.209 166.978C48.8916 166.866 48.6182 166.692 48.3887 166.458C48.1592 166.224 47.981 165.918 47.854 165.542C47.7319 165.167 47.6709 164.715 47.6709 164.188V159.075H49.0259V164.202C49.0259 164.559 49.0649 164.854 49.1431 165.088C49.2261 165.318 49.3359 165.501 49.4727 165.638C49.6143 165.77 49.7705 165.862 49.9414 165.916C50.1172 165.97 50.2979 165.997 50.4834 165.997C51.0596 165.997 51.5161 165.887 51.853 165.667C52.1899 165.442 52.4316 165.142 52.5781 164.766C52.7295 164.385 52.8052 163.963 52.8052 163.499ZM55.6177 163.125V162.957C55.6177 162.386 55.7007 161.856 55.8667 161.368C56.0327 160.875 56.272 160.447 56.5845 160.086C56.897 159.72 57.2754 159.437 57.7197 159.236C58.1641 159.031 58.6621 158.929 59.2139 158.929C59.7705 158.929 60.271 159.031 60.7153 159.236C61.1646 159.437 61.5454 159.72 61.8579 160.086C62.1753 160.447 62.417 160.875 62.583 161.368C62.749 161.856 62.832 162.386 62.832 162.957V163.125C62.832 163.697 62.749 164.227 62.583 164.715C62.417 165.203 62.1753 165.63 61.8579 165.997C61.5454 166.358 61.167 166.641 60.7227 166.846C60.2832 167.046 59.7852 167.146 59.2285 167.146C58.6719 167.146 58.1714 167.046 57.7271 166.846C57.2827 166.641 56.9019 166.358 56.5845 165.997C56.272 165.63 56.0327 165.203 55.8667 164.715C55.7007 164.227 55.6177 163.697 55.6177 163.125ZM56.9727 162.957V163.125C56.9727 163.521 57.019 163.895 57.1118 164.246C57.2046 164.593 57.3438 164.9 57.5293 165.169C57.7197 165.438 57.9565 165.65 58.2397 165.806C58.5229 165.958 58.8525 166.033 59.2285 166.033C59.5996 166.033 59.9243 165.958 60.2026 165.806C60.4858 165.65 60.7202 165.438 60.9058 165.169C61.0913 164.9 61.2305 164.593 61.3232 164.246C61.4209 163.895 61.4697 163.521 61.4697 163.125V162.957C61.4697 162.566 61.4209 162.198 61.3232 161.851C61.2305 161.5 61.0889 161.189 60.8984 160.921C60.7129 160.647 60.4785 160.433 60.1953 160.276C59.917 160.12 59.5898 160.042 59.2139 160.042C58.8428 160.042 58.5156 160.12 58.2324 160.276C57.9541 160.433 57.7197 160.647 57.5293 160.921C57.3438 161.189 57.2046 161.5 57.1118 161.851C57.019 162.198 56.9727 162.566 56.9727 162.957ZM69.3799 165.169V159.075H70.7422V167H69.4458L69.3799 165.169ZM69.6362 163.499L70.2002 163.484C70.2002 164.012 70.144 164.5 70.0317 164.949C69.9243 165.394 69.7485 165.779 69.5044 166.106C69.2603 166.434 68.9404 166.69 68.5449 166.875C68.1494 167.056 67.6685 167.146 67.1021 167.146C66.7163 167.146 66.3623 167.09 66.04 166.978C65.7227 166.866 65.4492 166.692 65.2197 166.458C64.9902 166.224 64.812 165.918 64.6851 165.542C64.563 165.167 64.502 164.715 64.502 164.188V159.075H65.8569V164.202C65.8569 164.559 65.896 164.854 65.9741 165.088C66.0571 165.318 66.167 165.501 66.3037 165.638C66.4453 165.77 66.6016 165.862 66.7725 165.916C66.9482 165.97 67.1289 165.997 67.3145 165.997C67.8906 165.997 68.3472 165.887 68.6841 165.667C69.021 165.442 69.2627 165.142 69.4092 164.766C69.5605 164.385 69.6362 163.963 69.6362 163.499ZM77.4219 164.898C77.4219 164.703 77.3779 164.522 77.29 164.356C77.207 164.185 77.0337 164.031 76.77 163.895C76.5112 163.753 76.1206 163.631 75.5981 163.528C75.1587 163.436 74.7607 163.326 74.4043 163.199C74.0527 163.072 73.7524 162.918 73.5034 162.737C73.2593 162.557 73.0713 162.344 72.9395 162.1C72.8076 161.856 72.7417 161.57 72.7417 161.243C72.7417 160.931 72.8101 160.635 72.9468 160.357C73.0884 160.079 73.2861 159.832 73.54 159.617C73.7988 159.402 74.1089 159.234 74.4702 159.112C74.8315 158.99 75.2344 158.929 75.6787 158.929C76.3135 158.929 76.8555 159.041 77.3047 159.266C77.7539 159.49 78.0981 159.791 78.3374 160.167C78.5767 160.538 78.6963 160.95 78.6963 161.404H77.3413C77.3413 161.185 77.2754 160.972 77.1436 160.767C77.0166 160.557 76.8286 160.384 76.5796 160.247C76.3354 160.11 76.0352 160.042 75.6787 160.042C75.3027 160.042 74.9976 160.101 74.7632 160.218C74.5337 160.33 74.3652 160.474 74.2578 160.65C74.1553 160.826 74.104 161.011 74.104 161.207C74.104 161.353 74.1284 161.485 74.1772 161.602C74.231 161.714 74.3237 161.819 74.4556 161.917C74.5874 162.01 74.7729 162.098 75.0122 162.181C75.2515 162.264 75.5566 162.347 75.9277 162.43C76.5771 162.576 77.1118 162.752 77.5317 162.957C77.9517 163.162 78.2642 163.414 78.4692 163.711C78.6743 164.009 78.7769 164.371 78.7769 164.795C78.7769 165.142 78.7036 165.459 78.5571 165.748C78.4155 166.036 78.208 166.285 77.9346 166.495C77.666 166.7 77.3438 166.861 76.9678 166.978C76.5967 167.09 76.1792 167.146 75.7153 167.146C75.0171 167.146 74.4263 167.022 73.9429 166.773C73.4595 166.524 73.0933 166.202 72.8442 165.806C72.5952 165.411 72.4707 164.993 72.4707 164.554H73.833C73.8525 164.925 73.96 165.22 74.1553 165.44C74.3506 165.655 74.5898 165.809 74.873 165.901C75.1562 165.989 75.437 166.033 75.7153 166.033C76.0864 166.033 76.3965 165.984 76.6455 165.887C76.8994 165.789 77.0923 165.655 77.2241 165.484C77.356 165.313 77.4219 165.118 77.4219 164.898ZM87.5659 167.146C87.0142 167.146 86.5137 167.054 86.0645 166.868C85.6201 166.678 85.2368 166.412 84.9146 166.07C84.5972 165.728 84.353 165.323 84.1821 164.854C84.0112 164.385 83.9258 163.873 83.9258 163.316V163.008C83.9258 162.364 84.021 161.79 84.2114 161.287C84.4019 160.779 84.6606 160.35 84.9878 159.998C85.3149 159.646 85.686 159.38 86.1011 159.2C86.5161 159.019 86.9458 158.929 87.3901 158.929C87.9565 158.929 88.4448 159.026 88.855 159.222C89.27 159.417 89.6094 159.69 89.873 160.042C90.1367 160.389 90.332 160.799 90.459 161.272C90.5859 161.741 90.6494 162.254 90.6494 162.811V163.418H84.7314V162.312H89.2944V162.21C89.2749 161.858 89.2017 161.517 89.0747 161.185C88.9526 160.853 88.7573 160.579 88.4888 160.364C88.2202 160.149 87.854 160.042 87.3901 160.042C87.0825 160.042 86.7993 160.108 86.5405 160.24C86.2817 160.367 86.0596 160.557 85.874 160.811C85.6885 161.065 85.5444 161.375 85.4419 161.741C85.3394 162.107 85.2881 162.53 85.2881 163.008V163.316C85.2881 163.692 85.3394 164.046 85.4419 164.378C85.5493 164.705 85.7031 164.993 85.9033 165.242C86.1084 165.491 86.355 165.687 86.6431 165.828C86.936 165.97 87.2681 166.041 87.6392 166.041C88.1177 166.041 88.5229 165.943 88.855 165.748C89.187 165.552 89.4775 165.291 89.7266 164.964L90.5469 165.616C90.376 165.875 90.1587 166.121 89.895 166.355C89.6313 166.59 89.3066 166.78 88.9209 166.927C88.54 167.073 88.0884 167.146 87.5659 167.146ZM94.5386 165.777L96.7065 159.075H98.0908L95.2417 167H94.3335L94.5386 165.777ZM92.7295 159.075L94.9634 165.813L95.1172 167H94.209L91.3379 159.075H92.7295ZM103.95 165.645V161.565C103.95 161.253 103.887 160.982 103.76 160.752C103.638 160.518 103.452 160.337 103.203 160.21C102.954 160.083 102.646 160.02 102.28 160.02C101.938 160.02 101.638 160.079 101.379 160.196C101.125 160.313 100.925 160.467 100.779 160.657C100.637 160.848 100.566 161.053 100.566 161.272H99.2114C99.2114 160.989 99.2847 160.708 99.4312 160.43C99.5776 160.152 99.7876 159.9 100.061 159.676C100.339 159.446 100.671 159.266 101.057 159.134C101.448 158.997 101.882 158.929 102.361 158.929C102.937 158.929 103.445 159.026 103.884 159.222C104.329 159.417 104.675 159.712 104.924 160.108C105.178 160.499 105.305 160.989 105.305 161.58V165.271C105.305 165.535 105.327 165.816 105.371 166.114C105.42 166.412 105.491 166.668 105.583 166.883V167H104.17C104.102 166.844 104.048 166.636 104.009 166.377C103.97 166.114 103.95 165.87 103.95 165.645ZM104.185 162.195L104.199 163.147H102.83C102.444 163.147 102.1 163.179 101.797 163.243C101.494 163.301 101.24 163.392 101.035 163.514C100.83 163.636 100.674 163.79 100.566 163.975C100.459 164.156 100.405 164.368 100.405 164.612C100.405 164.861 100.461 165.088 100.574 165.293C100.686 165.499 100.854 165.662 101.079 165.784C101.309 165.901 101.589 165.96 101.921 165.96C102.336 165.96 102.703 165.872 103.02 165.696C103.337 165.521 103.589 165.306 103.774 165.052C103.965 164.798 104.067 164.551 104.082 164.312L104.661 164.964C104.626 165.169 104.534 165.396 104.382 165.645C104.231 165.894 104.028 166.133 103.774 166.363C103.525 166.587 103.228 166.775 102.881 166.927C102.539 167.073 102.153 167.146 101.724 167.146C101.187 167.146 100.715 167.042 100.31 166.832C99.9097 166.622 99.5972 166.341 99.3726 165.989C99.1528 165.633 99.043 165.235 99.043 164.795C99.043 164.371 99.126 163.997 99.292 163.675C99.458 163.348 99.6973 163.077 100.01 162.862C100.322 162.642 100.698 162.476 101.138 162.364C101.577 162.251 102.068 162.195 102.61 162.195H104.185ZM108.909 155.75V167H107.546V155.75H108.909ZM115.933 165.169V159.075H117.295V167H115.999L115.933 165.169ZM116.189 163.499L116.753 163.484C116.753 164.012 116.697 164.5 116.584 164.949C116.477 165.394 116.301 165.779 116.057 166.106C115.813 166.434 115.493 166.69 115.098 166.875C114.702 167.056 114.221 167.146 113.655 167.146C113.269 167.146 112.915 167.09 112.593 166.978C112.275 166.866 112.002 166.692 111.772 166.458C111.543 166.224 111.365 165.918 111.238 165.542C111.116 165.167 111.055 164.715 111.055 164.188V159.075H112.41V164.202C112.41 164.559 112.449 164.854 112.527 165.088C112.61 165.318 112.72 165.501 112.856 165.638C112.998 165.77 113.154 165.862 113.325 165.916C113.501 165.97 113.682 165.997 113.867 165.997C114.443 165.997 114.9 165.887 115.237 165.667C115.574 165.442 115.815 165.142 115.962 164.766C116.113 164.385 116.189 163.963 116.189 163.499ZM122.678 159.075V160.115H118.394V159.075H122.678ZM119.844 157.149H121.199V165.037C121.199 165.306 121.24 165.508 121.323 165.645C121.406 165.782 121.514 165.872 121.646 165.916C121.777 165.96 121.919 165.982 122.07 165.982C122.183 165.982 122.3 165.972 122.422 165.953C122.549 165.928 122.644 165.909 122.708 165.894L122.715 167C122.607 167.034 122.466 167.066 122.29 167.095C122.119 167.129 121.912 167.146 121.667 167.146C121.335 167.146 121.03 167.081 120.752 166.949C120.474 166.817 120.251 166.597 120.085 166.29C119.924 165.977 119.844 165.557 119.844 165.03V157.149ZM128.94 165.645V161.565C128.94 161.253 128.877 160.982 128.75 160.752C128.628 160.518 128.442 160.337 128.193 160.21C127.944 160.083 127.637 160.02 127.271 160.02C126.929 160.02 126.628 160.079 126.37 160.196C126.116 160.313 125.916 160.467 125.769 160.657C125.627 160.848 125.557 161.053 125.557 161.272H124.202C124.202 160.989 124.275 160.708 124.421 160.43C124.568 160.152 124.778 159.9 125.051 159.676C125.33 159.446 125.662 159.266 126.047 159.134C126.438 158.997 126.873 158.929 127.351 158.929C127.927 158.929 128.435 159.026 128.875 159.222C129.319 159.417 129.666 159.712 129.915 160.108C130.168 160.499 130.295 160.989 130.295 161.58V165.271C130.295 165.535 130.317 165.816 130.361 166.114C130.41 166.412 130.481 166.668 130.574 166.883V167H129.16C129.092 166.844 129.038 166.636 128.999 166.377C128.96 166.114 128.94 165.87 128.94 165.645ZM129.175 162.195L129.189 163.147H127.82C127.434 163.147 127.09 163.179 126.787 163.243C126.484 163.301 126.23 163.392 126.025 163.514C125.82 163.636 125.664 163.79 125.557 163.975C125.449 164.156 125.396 164.368 125.396 164.612C125.396 164.861 125.452 165.088 125.564 165.293C125.676 165.499 125.845 165.662 126.069 165.784C126.299 165.901 126.58 165.96 126.912 165.96C127.327 165.96 127.693 165.872 128.01 165.696C128.328 165.521 128.579 165.306 128.765 165.052C128.955 164.798 129.058 164.551 129.072 164.312L129.651 164.964C129.617 165.169 129.524 165.396 129.373 165.645C129.221 165.894 129.019 166.133 128.765 166.363C128.516 166.587 128.218 166.775 127.871 166.927C127.529 167.073 127.144 167.146 126.714 167.146C126.177 167.146 125.706 167.042 125.3 166.832C124.9 166.622 124.587 166.341 124.363 165.989C124.143 165.633 124.033 165.235 124.033 164.795C124.033 164.371 124.116 163.997 124.282 163.675C124.448 163.348 124.688 163.077 125 162.862C125.312 162.642 125.688 162.476 126.128 162.364C126.567 162.251 127.058 162.195 127.6 162.195H129.175ZM135.745 159.075V160.115H131.46V159.075H135.745ZM132.91 157.149H134.265V165.037C134.265 165.306 134.307 165.508 134.39 165.645C134.473 165.782 134.58 165.872 134.712 165.916C134.844 165.96 134.985 165.982 135.137 165.982C135.249 165.982 135.366 165.972 135.488 165.953C135.615 165.928 135.71 165.909 135.774 165.894L135.781 167C135.674 167.034 135.532 167.066 135.356 167.095C135.186 167.129 134.978 167.146 134.734 167.146C134.402 167.146 134.097 167.081 133.818 166.949C133.54 166.817 133.318 166.597 133.152 166.29C132.991 165.977 132.91 165.557 132.91 165.03V157.149ZM138.806 159.075V167H137.444V159.075H138.806ZM137.341 156.973C137.341 156.753 137.407 156.568 137.539 156.417C137.676 156.265 137.876 156.189 138.14 156.189C138.398 156.189 138.596 156.265 138.733 156.417C138.875 156.568 138.945 156.753 138.945 156.973C138.945 157.183 138.875 157.364 138.733 157.515C138.596 157.662 138.398 157.735 138.14 157.735C137.876 157.735 137.676 157.662 137.539 157.515C137.407 157.364 137.341 157.183 137.341 156.973ZM140.623 163.125V162.957C140.623 162.386 140.706 161.856 140.872 161.368C141.038 160.875 141.277 160.447 141.589 160.086C141.902 159.72 142.28 159.437 142.725 159.236C143.169 159.031 143.667 158.929 144.219 158.929C144.775 158.929 145.276 159.031 145.72 159.236C146.169 159.437 146.55 159.72 146.863 160.086C147.18 160.447 147.422 160.875 147.588 161.368C147.754 161.856 147.837 162.386 147.837 162.957V163.125C147.837 163.697 147.754 164.227 147.588 164.715C147.422 165.203 147.18 165.63 146.863 165.997C146.55 166.358 146.172 166.641 145.728 166.846C145.288 167.046 144.79 167.146 144.233 167.146C143.677 167.146 143.176 167.046 142.732 166.846C142.288 166.641 141.907 166.358 141.589 165.997C141.277 165.63 141.038 165.203 140.872 164.715C140.706 164.227 140.623 163.697 140.623 163.125ZM141.978 162.957V163.125C141.978 163.521 142.024 163.895 142.117 164.246C142.209 164.593 142.349 164.9 142.534 165.169C142.725 165.438 142.961 165.65 143.245 165.806C143.528 165.958 143.857 166.033 144.233 166.033C144.604 166.033 144.929 165.958 145.208 165.806C145.491 165.65 145.725 165.438 145.911 165.169C146.096 164.9 146.235 164.593 146.328 164.246C146.426 163.895 146.475 163.521 146.475 163.125V162.957C146.475 162.566 146.426 162.198 146.328 161.851C146.235 161.5 146.094 161.189 145.903 160.921C145.718 160.647 145.483 160.433 145.2 160.276C144.922 160.12 144.595 160.042 144.219 160.042C143.848 160.042 143.521 160.12 143.237 160.276C142.959 160.433 142.725 160.647 142.534 160.921C142.349 161.189 142.209 161.5 142.117 161.851C142.024 162.198 141.978 162.566 141.978 162.957ZM150.891 160.767V167H149.536V159.075H150.818L150.891 160.767ZM150.569 162.737L150.005 162.715C150.01 162.173 150.09 161.673 150.247 161.214C150.403 160.75 150.623 160.347 150.906 160.005C151.189 159.664 151.526 159.4 151.917 159.214C152.312 159.024 152.749 158.929 153.228 158.929C153.618 158.929 153.97 158.982 154.282 159.09C154.595 159.192 154.861 159.358 155.081 159.588C155.305 159.817 155.476 160.115 155.593 160.481C155.71 160.843 155.769 161.285 155.769 161.807V167H154.407V161.792C154.407 161.377 154.346 161.045 154.224 160.796C154.102 160.542 153.923 160.359 153.689 160.247C153.455 160.13 153.167 160.071 152.825 160.071C152.488 160.071 152.18 160.142 151.902 160.284C151.628 160.425 151.392 160.621 151.191 160.87C150.996 161.119 150.842 161.404 150.73 161.727C150.623 162.044 150.569 162.381 150.569 162.737ZM33.2056 186.645V182.565C33.2056 182.253 33.1421 181.982 33.0151 181.752C32.8931 181.518 32.7075 181.337 32.4585 181.21C32.2095 181.083 31.9019 181.02 31.5356 181.02C31.1938 181.02 30.8936 181.079 30.6348 181.196C30.3809 181.313 30.1807 181.467 30.0342 181.657C29.8926 181.848 29.8218 182.053 29.8218 182.272H28.4668C28.4668 181.989 28.54 181.708 28.6865 181.43C28.833 181.152 29.043 180.9 29.3164 180.676C29.5947 180.446 29.9268 180.266 30.3125 180.134C30.7031 179.997 31.1377 179.929 31.6162 179.929C32.1924 179.929 32.7002 180.026 33.1396 180.222C33.584 180.417 33.9307 180.712 34.1797 181.108C34.4336 181.499 34.5605 181.989 34.5605 182.58V186.271C34.5605 186.535 34.5825 186.816 34.6265 187.114C34.6753 187.412 34.7461 187.668 34.8389 187.883V188H33.4253C33.3569 187.844 33.3032 187.636 33.2642 187.377C33.2251 187.114 33.2056 186.87 33.2056 186.645ZM33.4399 183.195L33.4546 184.147H32.085C31.6992 184.147 31.355 184.179 31.0522 184.243C30.7495 184.301 30.4956 184.392 30.2905 184.514C30.0854 184.636 29.9292 184.79 29.8218 184.975C29.7144 185.156 29.6606 185.368 29.6606 185.612C29.6606 185.861 29.7168 186.088 29.8291 186.293C29.9414 186.499 30.1099 186.662 30.3345 186.784C30.564 186.901 30.8447 186.96 31.1768 186.96C31.5918 186.96 31.958 186.872 32.2754 186.696C32.5928 186.521 32.8442 186.306 33.0298 186.052C33.2202 185.798 33.3228 185.551 33.3374 185.312L33.916 185.964C33.8818 186.169 33.7891 186.396 33.6377 186.645C33.4863 186.894 33.2837 187.133 33.0298 187.363C32.7808 187.587 32.4829 187.775 32.1362 187.927C31.7944 188.073 31.4087 188.146 30.979 188.146C30.4419 188.146 29.9707 188.042 29.5654 187.832C29.165 187.622 28.8525 187.341 28.6279 186.989C28.4082 186.633 28.2983 186.235 28.2983 185.795C28.2983 185.371 28.3813 184.997 28.5474 184.675C28.7134 184.348 28.9526 184.077 29.2651 183.862C29.5776 183.642 29.9536 183.476 30.3931 183.364C30.8325 183.251 31.3232 183.195 31.8652 183.195H33.4399ZM38.0469 181.767V188H36.6919V180.075H37.9736L38.0469 181.767ZM37.7246 183.737L37.1606 183.715C37.1655 183.173 37.2461 182.673 37.4023 182.214C37.5586 181.75 37.7783 181.347 38.0615 181.005C38.3447 180.664 38.6816 180.4 39.0723 180.214C39.4678 180.024 39.9048 179.929 40.3833 179.929C40.7739 179.929 41.1255 179.982 41.438 180.09C41.7505 180.192 42.0166 180.358 42.2363 180.588C42.4609 180.817 42.6318 181.115 42.749 181.481C42.8662 181.843 42.9248 182.285 42.9248 182.807V188H41.5625V182.792C41.5625 182.377 41.5015 182.045 41.3794 181.796C41.2573 181.542 41.0791 181.359 40.8447 181.247C40.6104 181.13 40.3223 181.071 39.9805 181.071C39.6436 181.071 39.3359 181.142 39.0576 181.284C38.7842 181.425 38.5474 181.621 38.3472 181.87C38.1519 182.119 37.998 182.404 37.8857 182.727C37.7783 183.044 37.7246 183.381 37.7246 183.737ZM49.978 186.462V176.75H51.3403V188H50.0952L49.978 186.462ZM44.646 184.125V183.972C44.646 183.366 44.7192 182.817 44.8657 182.324C45.0171 181.826 45.2295 181.398 45.5029 181.042C45.7812 180.686 46.1108 180.412 46.4917 180.222C46.8774 180.026 47.3071 179.929 47.7808 179.929C48.2788 179.929 48.7134 180.017 49.0845 180.192C49.4604 180.363 49.7778 180.615 50.0366 180.947C50.3003 181.274 50.5078 181.669 50.6592 182.133C50.8105 182.597 50.9155 183.122 50.9741 183.708V184.382C50.9204 184.963 50.8154 185.485 50.6592 185.949C50.5078 186.413 50.3003 186.809 50.0366 187.136C49.7778 187.463 49.4604 187.714 49.0845 187.89C48.7085 188.061 48.269 188.146 47.7661 188.146C47.3022 188.146 46.8774 188.046 46.4917 187.846C46.1108 187.646 45.7812 187.365 45.5029 187.004C45.2295 186.643 45.0171 186.218 44.8657 185.729C44.7192 185.236 44.646 184.702 44.646 184.125ZM46.0083 183.972V184.125C46.0083 184.521 46.0474 184.892 46.1255 185.239C46.2085 185.585 46.3354 185.891 46.5063 186.154C46.6772 186.418 46.8945 186.625 47.1582 186.777C47.4219 186.923 47.7368 186.997 48.103 186.997C48.5522 186.997 48.9209 186.901 49.209 186.711C49.502 186.521 49.7363 186.269 49.9121 185.957C50.0879 185.644 50.2246 185.305 50.3223 184.938V183.173C50.2637 182.905 50.1782 182.646 50.0659 182.397C49.9585 182.143 49.8169 181.918 49.6411 181.723C49.4702 181.523 49.2578 181.364 49.0039 181.247C48.7549 181.13 48.4595 181.071 48.1177 181.071C47.7466 181.071 47.4268 181.149 47.1582 181.306C46.8945 181.457 46.6772 181.667 46.5063 181.936C46.3354 182.199 46.2085 182.507 46.1255 182.858C46.0474 183.205 46.0083 183.576 46.0083 183.972ZM58.5181 181.65V188H57.1558V180.075H58.4448L58.5181 181.65ZM58.2397 183.737L57.6099 183.715C57.6147 183.173 57.6855 182.673 57.8223 182.214C57.959 181.75 58.1616 181.347 58.4302 181.005C58.6987 180.664 59.0332 180.4 59.4336 180.214C59.834 180.024 60.2979 179.929 60.8252 179.929C61.1963 179.929 61.5381 179.982 61.8506 180.09C62.1631 180.192 62.4341 180.356 62.6636 180.581C62.8931 180.805 63.0713 181.093 63.1982 181.445C63.3252 181.796 63.3887 182.221 63.3887 182.719V188H62.0337V182.785C62.0337 182.37 61.9629 182.038 61.8213 181.789C61.6846 181.54 61.4893 181.359 61.2354 181.247C60.9814 181.13 60.6836 181.071 60.3418 181.071C59.9414 181.071 59.6069 181.142 59.3384 181.284C59.0698 181.425 58.855 181.621 58.6938 181.87C58.5327 182.119 58.4155 182.404 58.3423 182.727C58.2739 183.044 58.2397 183.381 58.2397 183.737ZM63.374 182.99L62.4658 183.269C62.4707 182.834 62.5415 182.417 62.6782 182.016C62.8198 181.616 63.0225 181.259 63.2861 180.947C63.5547 180.634 63.8843 180.388 64.2749 180.207C64.6655 180.021 65.1123 179.929 65.6152 179.929C66.04 179.929 66.416 179.985 66.7432 180.097C67.0752 180.209 67.3535 180.383 67.5781 180.617C67.8076 180.847 67.981 181.142 68.0981 181.503C68.2153 181.865 68.2739 182.294 68.2739 182.792V188H66.9116V182.778C66.9116 182.333 66.8408 181.989 66.6992 181.745C66.5625 181.496 66.3672 181.323 66.1133 181.225C65.8643 181.123 65.5664 181.071 65.2197 181.071C64.9219 181.071 64.6582 181.123 64.4287 181.225C64.1992 181.328 64.0063 181.469 63.8501 181.65C63.6938 181.826 63.5742 182.028 63.4912 182.258C63.4131 182.487 63.374 182.731 63.374 182.99ZM69.9658 184.125V183.957C69.9658 183.386 70.0488 182.856 70.2148 182.368C70.3809 181.875 70.6201 181.447 70.9326 181.086C71.2451 180.72 71.6235 180.437 72.0679 180.236C72.5122 180.031 73.0103 179.929 73.562 179.929C74.1187 179.929 74.6191 180.031 75.0635 180.236C75.5127 180.437 75.8936 180.72 76.2061 181.086C76.5234 181.447 76.7651 181.875 76.9312 182.368C77.0972 182.856 77.1802 183.386 77.1802 183.957V184.125C77.1802 184.697 77.0972 185.227 76.9312 185.715C76.7651 186.203 76.5234 186.63 76.2061 186.997C75.8936 187.358 75.5151 187.641 75.0708 187.846C74.6313 188.046 74.1333 188.146 73.5767 188.146C73.02 188.146 72.5195 188.046 72.0752 187.846C71.6309 187.641 71.25 187.358 70.9326 186.997C70.6201 186.63 70.3809 186.203 70.2148 185.715C70.0488 185.227 69.9658 184.697 69.9658 184.125ZM71.3208 183.957V184.125C71.3208 184.521 71.3672 184.895 71.46 185.246C71.5527 185.593 71.6919 185.9 71.8774 186.169C72.0679 186.438 72.3047 186.65 72.5879 186.806C72.8711 186.958 73.2007 187.033 73.5767 187.033C73.9478 187.033 74.2725 186.958 74.5508 186.806C74.834 186.65 75.0684 186.438 75.2539 186.169C75.4395 185.9 75.5786 185.593 75.6714 185.246C75.769 184.895 75.8179 184.521 75.8179 184.125V183.957C75.8179 183.566 75.769 183.198 75.6714 182.851C75.5786 182.5 75.437 182.189 75.2466 181.921C75.061 181.647 74.8267 181.433 74.5435 181.276C74.2651 181.12 73.938 181.042 73.562 181.042C73.1909 181.042 72.8638 181.12 72.5806 181.276C72.3022 181.433 72.0679 181.647 71.8774 181.921C71.6919 182.189 71.5527 182.5 71.46 182.851C71.3672 183.198 71.3208 183.566 71.3208 183.957ZM80.2344 181.767V188H78.8794V180.075H80.1611L80.2344 181.767ZM79.9121 183.737L79.3481 183.715C79.353 183.173 79.4336 182.673 79.5898 182.214C79.7461 181.75 79.9658 181.347 80.249 181.005C80.5322 180.664 80.8691 180.4 81.2598 180.214C81.6553 180.024 82.0923 179.929 82.5708 179.929C82.9614 179.929 83.313 179.982 83.6255 180.09C83.938 180.192 84.2041 180.358 84.4238 180.588C84.6484 180.817 84.8193 181.115 84.9365 181.481C85.0537 181.843 85.1123 182.285 85.1123 182.807V188H83.75V182.792C83.75 182.377 83.689 182.045 83.5669 181.796C83.4448 181.542 83.2666 181.359 83.0322 181.247C82.7979 181.13 82.5098 181.071 82.168 181.071C81.8311 181.071 81.5234 181.142 81.2451 181.284C80.9717 181.425 80.7349 181.621 80.5347 181.87C80.3394 182.119 80.1855 182.404 80.0732 182.727C79.9658 183.044 79.9121 183.381 79.9121 183.737ZM88.6426 180.075V188H87.2803V180.075H88.6426ZM87.1777 177.973C87.1777 177.753 87.2437 177.568 87.3755 177.417C87.5122 177.265 87.7124 177.189 87.9761 177.189C88.2349 177.189 88.4326 177.265 88.5693 177.417C88.7109 177.568 88.7817 177.753 88.7817 177.973C88.7817 178.183 88.7109 178.364 88.5693 178.515C88.4326 178.662 88.2349 178.735 87.9761 178.735C87.7124 178.735 87.5122 178.662 87.3755 178.515C87.2437 178.364 87.1777 178.183 87.1777 177.973ZM94.1357 180.075V181.115H89.8511V180.075H94.1357ZM91.3013 178.149H92.6562V186.037C92.6562 186.306 92.6978 186.508 92.7808 186.645C92.8638 186.782 92.9712 186.872 93.103 186.916C93.2349 186.96 93.3765 186.982 93.5278 186.982C93.6401 186.982 93.7573 186.972 93.8794 186.953C94.0063 186.928 94.1016 186.909 94.165 186.894L94.1724 188C94.0649 188.034 93.9233 188.066 93.7476 188.095C93.5767 188.129 93.3691 188.146 93.125 188.146C92.793 188.146 92.4878 188.081 92.2095 187.949C91.9312 187.817 91.709 187.597 91.543 187.29C91.3818 186.977 91.3013 186.557 91.3013 186.03V178.149ZM95.2197 184.125V183.957C95.2197 183.386 95.3027 182.856 95.4688 182.368C95.6348 181.875 95.874 181.447 96.1865 181.086C96.499 180.72 96.8774 180.437 97.3218 180.236C97.7661 180.031 98.2642 179.929 98.8159 179.929C99.3726 179.929 99.873 180.031 100.317 180.236C100.767 180.437 101.147 180.72 101.46 181.086C101.777 181.447 102.019 181.875 102.185 182.368C102.351 182.856 102.434 183.386 102.434 183.957V184.125C102.434 184.697 102.351 185.227 102.185 185.715C102.019 186.203 101.777 186.63 101.46 186.997C101.147 187.358 100.769 187.641 100.325 187.846C99.8853 188.046 99.3872 188.146 98.8306 188.146C98.2739 188.146 97.7734 188.046 97.3291 187.846C96.8848 187.641 96.5039 187.358 96.1865 186.997C95.874 186.63 95.6348 186.203 95.4688 185.715C95.3027 185.227 95.2197 184.697 95.2197 184.125ZM96.5747 183.957V184.125C96.5747 184.521 96.6211 184.895 96.7139 185.246C96.8066 185.593 96.9458 185.9 97.1313 186.169C97.3218 186.438 97.5586 186.65 97.8418 186.806C98.125 186.958 98.4546 187.033 98.8306 187.033C99.2017 187.033 99.5264 186.958 99.8047 186.806C100.088 186.65 100.322 186.438 100.508 186.169C100.693 185.9 100.833 185.593 100.925 185.246C101.023 184.895 101.072 184.521 101.072 184.125V183.957C101.072 183.566 101.023 183.198 100.925 182.851C100.833 182.5 100.691 182.189 100.5 181.921C100.315 181.647 100.081 181.433 99.7974 181.276C99.519 181.12 99.1919 181.042 98.8159 181.042C98.4448 181.042 98.1177 181.12 97.8345 181.276C97.5562 181.433 97.3218 181.647 97.1313 181.921C96.9458 182.189 96.8066 182.5 96.7139 182.851C96.6211 183.198 96.5747 183.566 96.5747 183.957ZM105.488 181.32V188H104.133V180.075H105.452L105.488 181.32ZM107.964 180.031L107.957 181.291C107.844 181.267 107.737 181.252 107.634 181.247C107.537 181.237 107.424 181.232 107.297 181.232C106.985 181.232 106.709 181.281 106.47 181.379C106.23 181.477 106.028 181.613 105.862 181.789C105.696 181.965 105.564 182.175 105.466 182.419C105.374 182.658 105.312 182.922 105.283 183.21L104.902 183.43C104.902 182.951 104.949 182.502 105.042 182.082C105.139 181.662 105.288 181.291 105.488 180.969C105.688 180.642 105.942 180.388 106.25 180.207C106.562 180.021 106.934 179.929 107.363 179.929C107.461 179.929 107.573 179.941 107.7 179.965C107.827 179.985 107.915 180.007 107.964 180.031ZM110.688 180.075V188H109.326V180.075H110.688ZM109.224 177.973C109.224 177.753 109.29 177.568 109.421 177.417C109.558 177.265 109.758 177.189 110.022 177.189C110.281 177.189 110.479 177.265 110.615 177.417C110.757 177.568 110.828 177.753 110.828 177.973C110.828 178.183 110.757 178.364 110.615 178.515C110.479 178.662 110.281 178.735 110.022 178.735C109.758 178.735 109.558 178.662 109.421 178.515C109.29 178.364 109.224 178.183 109.224 177.973ZM114.219 181.767V188H112.864V180.075H114.146L114.219 181.767ZM113.896 183.737L113.333 183.715C113.337 183.173 113.418 182.673 113.574 182.214C113.73 181.75 113.95 181.347 114.233 181.005C114.517 180.664 114.854 180.4 115.244 180.214C115.64 180.024 116.077 179.929 116.555 179.929C116.946 179.929 117.297 179.982 117.61 180.09C117.922 180.192 118.188 180.358 118.408 180.588C118.633 180.817 118.804 181.115 118.921 181.481C119.038 181.843 119.097 182.285 119.097 182.807V188H117.734V182.792C117.734 182.377 117.673 182.045 117.551 181.796C117.429 181.542 117.251 181.359 117.017 181.247C116.782 181.13 116.494 181.071 116.152 181.071C115.815 181.071 115.508 181.142 115.229 181.284C114.956 181.425 114.719 181.621 114.519 181.87C114.324 182.119 114.17 182.404 114.058 182.727C113.95 183.044 113.896 183.381 113.896 183.737ZM126.289 180.075H127.52V187.832C127.52 188.53 127.378 189.125 127.095 189.619C126.812 190.112 126.416 190.485 125.908 190.739C125.405 190.998 124.824 191.127 124.165 191.127C123.892 191.127 123.569 191.083 123.198 190.996C122.832 190.913 122.471 190.769 122.114 190.563C121.763 190.363 121.467 190.092 121.228 189.75L121.938 188.945C122.271 189.345 122.617 189.624 122.979 189.78C123.345 189.936 123.706 190.014 124.062 190.014C124.492 190.014 124.863 189.934 125.176 189.772C125.488 189.611 125.73 189.372 125.901 189.055C126.077 188.742 126.165 188.356 126.165 187.897V181.818L126.289 180.075ZM120.833 184.125V183.972C120.833 183.366 120.903 182.817 121.045 182.324C121.191 181.826 121.399 181.398 121.667 181.042C121.941 180.686 122.271 180.412 122.656 180.222C123.042 180.026 123.477 179.929 123.96 179.929C124.458 179.929 124.893 180.017 125.264 180.192C125.64 180.363 125.957 180.615 126.216 180.947C126.479 181.274 126.687 181.669 126.838 182.133C126.99 182.597 127.095 183.122 127.153 183.708V184.382C127.1 184.963 126.995 185.485 126.838 185.949C126.687 186.413 126.479 186.809 126.216 187.136C125.957 187.463 125.64 187.714 125.264 187.89C124.888 188.061 124.448 188.146 123.945 188.146C123.472 188.146 123.042 188.046 122.656 187.846C122.275 187.646 121.948 187.365 121.675 187.004C121.401 186.643 121.191 186.218 121.045 185.729C120.903 185.236 120.833 184.702 120.833 184.125ZM122.188 183.972V184.125C122.188 184.521 122.227 184.892 122.305 185.239C122.388 185.585 122.512 185.891 122.678 186.154C122.849 186.418 123.066 186.625 123.33 186.777C123.594 186.923 123.909 186.997 124.275 186.997C124.724 186.997 125.095 186.901 125.388 186.711C125.681 186.521 125.913 186.269 126.084 185.957C126.26 185.644 126.396 185.305 126.494 184.938V183.173C126.44 182.905 126.357 182.646 126.245 182.397C126.138 182.143 125.996 181.918 125.82 181.723C125.649 181.523 125.437 181.364 125.183 181.247C124.929 181.13 124.631 181.071 124.29 181.071C123.918 181.071 123.599 181.149 123.33 181.306C123.066 181.457 122.849 181.667 122.678 181.936C122.512 182.199 122.388 182.507 122.305 182.858C122.227 183.205 122.188 183.576 122.188 183.972ZM129.6 187.282C129.6 187.053 129.67 186.86 129.812 186.704C129.958 186.542 130.168 186.462 130.442 186.462C130.715 186.462 130.923 186.542 131.064 186.704C131.211 186.86 131.284 187.053 131.284 187.282C131.284 187.507 131.211 187.697 131.064 187.854C130.923 188.01 130.715 188.088 130.442 188.088C130.168 188.088 129.958 188.01 129.812 187.854C129.67 187.697 129.6 187.507 129.6 187.282Z" fill="#4B4E52"/>
<rect x="31" y="205" width="95" height="24" rx="12" fill="#5F5F5F" fill-opacity="0.1"/>
<path d="M43.816 222.168C43.0507 222.168 42.3553 221.986 41.73 221.622C41.1047 221.258 40.6053 220.726 40.232 220.026C39.868 219.317 39.686 218.458 39.686 217.45C39.686 216.451 39.8727 215.597 40.246 214.888C40.6287 214.169 41.1373 213.623 41.772 213.25C42.4067 212.867 43.1067 212.676 43.872 212.676C44.4507 212.676 44.964 212.793 45.412 213.026C45.86 213.259 46.2287 213.53 46.518 213.838L45.65 214.888C45.4167 214.645 45.1553 214.454 44.866 214.314C44.586 214.165 44.2687 214.09 43.914 214.09C43.4193 214.09 42.976 214.225 42.584 214.496C42.2013 214.757 41.898 215.135 41.674 215.63C41.4593 216.125 41.352 216.717 41.352 217.408C41.352 218.453 41.5807 219.275 42.038 219.872C42.4953 220.46 43.1067 220.754 43.872 220.754C44.2827 220.754 44.6467 220.67 44.964 220.502C45.2813 220.325 45.5707 220.096 45.832 219.816L46.7 220.838C46.3267 221.267 45.8973 221.599 45.412 221.832C44.936 222.056 44.404 222.168 43.816 222.168ZM50.9024 222.168C50.3331 222.168 49.8011 222.028 49.3064 221.748C48.8117 221.459 48.4104 221.048 48.1024 220.516C47.7944 219.975 47.6404 219.326 47.6404 218.57C47.6404 217.805 47.7944 217.156 48.1024 216.624C48.4104 216.083 48.8117 215.672 49.3064 215.392C49.8011 215.103 50.3331 214.958 50.9024 214.958C51.4811 214.958 52.0177 215.103 52.5124 215.392C53.0071 215.672 53.4084 216.083 53.7164 216.624C54.0244 217.156 54.1784 217.805 54.1784 218.57C54.1784 219.326 54.0244 219.975 53.7164 220.516C53.4084 221.048 53.0071 221.459 52.5124 221.748C52.0177 222.028 51.4811 222.168 50.9024 222.168ZM50.9024 220.852C51.4064 220.852 51.8031 220.642 52.0924 220.222C52.3817 219.802 52.5264 219.251 52.5264 218.57C52.5264 217.879 52.3817 217.324 52.0924 216.904C51.8031 216.484 51.4064 216.274 50.9024 216.274C50.3984 216.274 50.0017 216.484 49.7124 216.904C49.4324 217.324 49.2924 217.879 49.2924 218.57C49.2924 219.251 49.4324 219.802 49.7124 220.222C50.0017 220.642 50.3984 220.852 50.9024 220.852ZM55.772 222V215.126H57.102L57.214 216.064H57.27C57.5593 215.756 57.872 215.495 58.208 215.28C58.5533 215.065 58.9407 214.958 59.37 214.958C59.874 214.958 60.2753 215.07 60.574 215.294C60.882 215.509 61.1153 215.807 61.274 216.19C61.6007 215.835 61.9413 215.541 62.296 215.308C62.66 215.075 63.0567 214.958 63.486 214.958C64.214 214.958 64.7507 215.196 65.096 215.672C65.4413 216.148 65.614 216.82 65.614 217.688V222H63.99V217.898C63.99 217.329 63.9013 216.927 63.724 216.694C63.556 216.461 63.2947 216.344 62.94 216.344C62.5107 216.344 62.03 216.629 61.498 217.198V222H59.888V217.898C59.888 217.329 59.7993 216.927 59.622 216.694C59.454 216.461 59.188 216.344 58.824 216.344C58.3947 216.344 57.914 216.629 57.382 217.198V222H55.772ZM67.5708 222V215.126H69.1808V222H67.5708ZM68.3828 213.922C68.0935 213.922 67.8602 213.838 67.6828 213.67C67.5055 213.502 67.4168 213.278 67.4168 212.998C67.4168 212.727 67.5055 212.508 67.6828 212.34C67.8602 212.172 68.0935 212.088 68.3828 212.088C68.6722 212.088 68.9055 212.172 69.0828 212.34C69.2602 212.508 69.3488 212.727 69.3488 212.998C69.3488 213.278 69.2602 213.502 69.0828 213.67C68.9055 213.838 68.6722 213.922 68.3828 213.922ZM71.2349 222V215.126H72.5649L72.6769 216.05H72.7329C73.0409 215.751 73.3769 215.495 73.7409 215.28C74.1049 215.065 74.5202 214.958 74.9869 214.958C75.7242 214.958 76.2609 215.196 76.5969 215.672C76.9329 216.148 77.1009 216.82 77.1009 217.688V222H75.4909V217.898C75.4909 217.329 75.4069 216.927 75.2389 216.694C75.0709 216.461 74.7956 216.344 74.4129 216.344C74.1142 216.344 73.8482 216.419 73.6149 216.568C73.3909 216.708 73.1342 216.918 72.8449 217.198V222H71.2349ZM81.4629 225.038C80.9215 225.038 80.4315 224.973 79.9929 224.842C79.5635 224.711 79.2229 224.511 78.9709 224.24C78.7282 223.979 78.6069 223.647 78.6069 223.246C78.6069 222.677 78.9335 222.187 79.5869 221.776V221.72C79.4095 221.608 79.2602 221.459 79.1389 221.272C79.0269 221.085 78.9709 220.852 78.9709 220.572C78.9709 220.301 79.0455 220.059 79.1949 219.844C79.3535 219.62 79.5309 219.438 79.7269 219.298V219.242C79.4935 219.065 79.2835 218.817 79.0969 218.5C78.9195 218.183 78.8309 217.823 78.8309 217.422C78.8309 216.89 78.9569 216.442 79.2089 216.078C79.4609 215.714 79.7922 215.439 80.2029 215.252C80.6229 215.056 81.0709 214.958 81.5469 214.958C81.7335 214.958 81.9109 214.977 82.0789 215.014C82.2562 215.042 82.4149 215.079 82.5549 215.126H85.0189V216.316H83.7589C83.8709 216.447 83.9642 216.615 84.0389 216.82C84.1135 217.016 84.1509 217.235 84.1509 217.478C84.1509 217.982 84.0342 218.411 83.8009 218.766C83.5675 219.111 83.2549 219.373 82.8629 219.55C82.4709 219.727 82.0322 219.816 81.5469 219.816C81.3975 219.816 81.2435 219.802 81.0849 219.774C80.9262 219.746 80.7675 219.699 80.6089 219.634C80.5062 219.727 80.4222 219.821 80.3569 219.914C80.3009 220.007 80.2729 220.133 80.2729 220.292C80.2729 220.488 80.3522 220.642 80.5109 220.754C80.6789 220.866 80.9729 220.922 81.3929 220.922H82.6109C83.4415 220.922 84.0669 221.057 84.4869 221.328C84.9162 221.589 85.1309 222.019 85.1309 222.616C85.1309 223.064 84.9815 223.47 84.6829 223.834C84.3842 224.207 83.9595 224.501 83.4089 224.716C82.8582 224.931 82.2095 225.038 81.4629 225.038ZM81.5469 218.808C81.8735 218.808 82.1535 218.687 82.3869 218.444C82.6202 218.201 82.7369 217.861 82.7369 217.422C82.7369 216.993 82.6202 216.661 82.3869 216.428C82.1629 216.185 81.8829 216.064 81.5469 216.064C81.2109 216.064 80.9262 216.181 80.6929 216.414C80.4595 216.647 80.3429 216.983 80.3429 217.422C80.3429 217.861 80.4595 218.201 80.6929 218.444C80.9262 218.687 81.2109 218.808 81.5469 218.808ZM81.7149 223.988C82.2655 223.988 82.7135 223.876 83.0589 223.652C83.4042 223.428 83.5769 223.171 83.5769 222.882C83.5769 222.611 83.4695 222.429 83.2549 222.336C83.0495 222.243 82.7509 222.196 82.3589 222.196H81.4209C81.0475 222.196 80.7349 222.163 80.4829 222.098C80.1282 222.369 79.9509 222.672 79.9509 223.008C79.9509 223.316 80.1095 223.554 80.4269 223.722C80.7442 223.899 81.1735 223.988 81.7149 223.988ZM91.063 222.168C90.5964 222.168 90.1297 222.079 89.663 221.902C89.1964 221.715 88.795 221.487 88.459 221.216L89.215 220.18C89.523 220.413 89.831 220.6 90.139 220.74C90.447 220.88 90.7737 220.95 91.119 220.95C91.4924 220.95 91.7677 220.871 91.945 220.712C92.1224 220.553 92.211 220.357 92.211 220.124C92.211 219.928 92.1364 219.769 91.987 219.648C91.847 219.517 91.665 219.405 91.441 219.312C91.217 219.209 90.9837 219.111 90.741 219.018C90.4424 218.906 90.1437 218.771 89.845 218.612C89.5557 218.444 89.3177 218.234 89.131 217.982C88.9444 217.721 88.851 217.399 88.851 217.016C88.851 216.409 89.075 215.915 89.523 215.532C89.971 215.149 90.5777 214.958 91.343 214.958C91.8284 214.958 92.2624 215.042 92.645 215.21C93.0277 215.378 93.359 215.569 93.639 215.784L92.897 216.764C92.6544 216.587 92.407 216.447 92.155 216.344C91.9124 216.232 91.6557 216.176 91.385 216.176C91.0397 216.176 90.783 216.251 90.615 216.4C90.447 216.54 90.363 216.717 90.363 216.932C90.363 217.203 90.503 217.408 90.783 217.548C91.063 217.688 91.3897 217.823 91.763 217.954C92.0804 218.066 92.3884 218.206 92.687 218.374C92.9857 218.533 93.233 218.743 93.429 219.004C93.6344 219.265 93.737 219.611 93.737 220.04C93.737 220.628 93.5084 221.132 93.051 221.552C92.5937 221.963 91.931 222.168 91.063 222.168ZM97.9883 222.168C97.419 222.168 96.887 222.028 96.3923 221.748C95.8977 221.459 95.4963 221.048 95.1883 220.516C94.8803 219.975 94.7263 219.326 94.7263 218.57C94.7263 217.805 94.8803 217.156 95.1883 216.624C95.4963 216.083 95.8977 215.672 96.3923 215.392C96.887 215.103 97.419 214.958 97.9883 214.958C98.567 214.958 99.1037 215.103 99.5983 215.392C100.093 215.672 100.494 216.083 100.802 216.624C101.11 217.156 101.264 217.805 101.264 218.57C101.264 219.326 101.11 219.975 100.802 220.516C100.494 221.048 100.093 221.459 99.5983 221.748C99.1037 222.028 98.567 222.168 97.9883 222.168ZM97.9883 220.852C98.4923 220.852 98.889 220.642 99.1783 220.222C99.4677 219.802 99.6123 219.251 99.6123 218.57C99.6123 217.879 99.4677 217.324 99.1783 216.904C98.889 216.484 98.4923 216.274 97.9883 216.274C97.4843 216.274 97.0877 216.484 96.7983 216.904C96.5183 217.324 96.3783 217.879 96.3783 218.57C96.3783 219.251 96.5183 219.802 96.7983 220.222C97.0877 220.642 97.4843 220.852 97.9883 220.852ZM105.672 222.168C105.103 222.168 104.571 222.028 104.076 221.748C103.581 221.459 103.18 221.048 102.872 220.516C102.564 219.975 102.41 219.326 102.41 218.57C102.41 217.805 102.564 217.156 102.872 216.624C103.18 216.083 103.581 215.672 104.076 215.392C104.571 215.103 105.103 214.958 105.672 214.958C106.251 214.958 106.787 215.103 107.282 215.392C107.777 215.672 108.178 216.083 108.486 216.624C108.794 217.156 108.948 217.805 108.948 218.57C108.948 219.326 108.794 219.975 108.486 220.516C108.178 221.048 107.777 221.459 107.282 221.748C106.787 222.028 106.251 222.168 105.672 222.168ZM105.672 220.852C106.176 220.852 106.573 220.642 106.862 220.222C107.151 219.802 107.296 219.251 107.296 218.57C107.296 217.879 107.151 217.324 106.862 216.904C106.573 216.484 106.176 216.274 105.672 216.274C105.168 216.274 104.771 216.484 104.482 216.904C104.202 217.324 104.062 217.879 104.062 218.57C104.062 219.251 104.202 219.802 104.482 220.222C104.771 220.642 105.168 220.852 105.672 220.852ZM110.542 222V215.126H111.872L111.984 216.05H112.04C112.348 215.751 112.684 215.495 113.048 215.28C113.412 215.065 113.827 214.958 114.294 214.958C115.031 214.958 115.568 215.196 115.904 215.672C116.24 216.148 116.408 216.82 116.408 217.688V222H114.798V217.898C114.798 217.329 114.714 216.927 114.546 216.694C114.378 216.461 114.102 216.344 113.72 216.344C113.421 216.344 113.155 216.419 112.922 216.568C112.698 216.708 112.441 216.918 112.152 217.198V222H110.542Z" fill="#76787A"/>
<path d="M78.5 1.86603C79.4282 1.33013 80.5718 1.33013 81.5 1.86603L120.069 24.134C120.997 24.6699 121.569 25.6603 121.569 26.7321V71.2679C121.569 72.3397 120.997 73.3301 120.069 73.866L81.5 96.134C80.5718 96.6699 79.4282 96.6699 78.5 96.134L39.9308 73.866C39.0026 73.3301 38.4308 72.3397 38.4308 71.2679V26.7321C38.4308 25.6603 39.0026 24.6699 39.9308 24.134L78.5 1.86603Z" stroke="#E6E6E6"/>
<path d="M62.1231 31.168C62.3187 31.363 62.6349 31.3622 62.8338 31.1707C67.2849 26.8839 73.3338 24.25 80 24.25C86.8349 24.25 93.0206 27.0189 97.5009 31.4991C101.981 35.9793 104.75 42.1651 104.75 49H102.207C101.762 49 101.539 49.5386 101.854 49.8536L105.293 53.2929C105.683 53.6834 106.317 53.6834 106.707 53.2929L110.146 49.8536C110.461 49.5386 110.238 49 109.793 49H107.25C107.25 41.4755 104.199 34.6612 99.2686 29.7313C94.3387 24.8014 87.5245 21.75 80 21.75C72.643 21.75 65.9651 24.667 61.0635 29.4048C60.8649 29.5967 60.8657 29.9136 61.0612 30.1086L62.1231 31.168Z" fill="#E663FB"/>
<path d="M62.4991 66.5009C58.0189 62.0206 55.25 55.8349 55.25 49H57.7929C58.2383 49 58.4614 48.4614 58.1464 48.1464L54.7071 44.7071C54.3166 44.3166 53.6834 44.3166 53.2929 44.7071L49.8535 48.1464C49.5386 48.4614 49.7617 49 50.2071 49H52.75C52.75 56.5245 55.8014 63.3387 60.7313 68.2686C65.6612 73.1986 72.4755 76.25 80 76.25C87.3323 76.25 93.9902 73.3525 98.8873 68.6427C99.0863 68.4513 99.0864 68.1343 98.8913 67.9388L97.832 66.8768C97.637 66.6813 97.3208 66.6813 97.1214 66.8724C92.6745 71.1337 86.6439 73.75 80 73.75C73.1651 73.75 66.9793 70.9811 62.4991 66.5009Z" fill="#E663FB"/>
<path d="M93.768 42.4749C93.9633 42.2796 93.9633 41.963 93.768 41.7677L90.2325 38.2322C90.0372 38.037 89.7206 38.037 89.5253 38.2322L76.0002 51.7573L70.4751 46.2322C70.2798 46.037 69.9633 46.037 69.768 46.2322L66.2325 49.7677C66.0372 49.963 66.0372 50.2796 66.2325 50.4749L75.6467 59.8891C75.8419 60.0843 76.1585 60.0843 76.3538 59.8891L93.768 42.4749Z" fill="#E663FB"/>
</svg>
