<svg width="160" height="192" viewBox="0 0 160 192" fill="none" xmlns="http://www.w3.org/2000/svg">
<path d="M34.8828 135.057V137H27.334V135.057H34.8828ZM28.0273 122.781V137H25.5762V122.781H28.0273ZM33.8965 128.719V130.633H27.334V128.719H33.8965ZM34.834 122.781V124.734H27.334V122.781H34.834ZM38.4473 126.434L40.459 129.939L42.5098 126.434H45.0977L41.8945 131.619L45.2246 137H42.6367L40.4883 133.348L38.3398 137H35.7422L39.0625 131.619L35.8691 126.434H38.4473ZM49.0723 128.465V141.062H46.7188V126.434H48.8867L49.0723 128.465ZM55.957 131.619V131.824C55.957 132.592 55.8659 133.305 55.6836 133.963C55.5078 134.614 55.2441 135.184 54.8926 135.672C54.5475 136.154 54.1211 136.528 53.6133 136.795C53.1055 137.062 52.5195 137.195 51.8555 137.195C51.1979 137.195 50.6217 137.075 50.127 136.834C49.6387 136.587 49.2253 136.238 48.8867 135.789C48.5482 135.34 48.2747 134.812 48.0664 134.207C47.8646 133.595 47.7214 132.924 47.6367 132.195V131.404C47.7214 130.63 47.8646 129.926 48.0664 129.295C48.2747 128.663 48.5482 128.12 48.8867 127.664C49.2253 127.208 49.6387 126.857 50.127 126.609C50.6152 126.362 51.1849 126.238 51.8359 126.238C52.5 126.238 53.0892 126.368 53.6035 126.629C54.1178 126.883 54.5508 127.247 54.9023 127.723C55.2539 128.191 55.5176 128.758 55.6934 129.422C55.8691 130.079 55.957 130.812 55.957 131.619ZM53.6035 131.824V131.619C53.6035 131.131 53.5579 130.678 53.4668 130.262C53.3757 129.839 53.2324 129.467 53.0371 129.148C52.8418 128.829 52.5911 128.582 52.2852 128.406C51.9857 128.224 51.6243 128.133 51.2012 128.133C50.7845 128.133 50.4264 128.204 50.127 128.348C49.8275 128.484 49.5768 128.676 49.375 128.924C49.1732 129.171 49.0169 129.461 48.9062 129.793C48.7956 130.118 48.7174 130.473 48.6719 130.857V132.752C48.75 133.221 48.8835 133.65 49.0723 134.041C49.2611 134.432 49.528 134.744 49.873 134.979C50.2246 135.206 50.6738 135.32 51.2207 135.32C51.6439 135.32 52.0052 135.229 52.3047 135.047C52.6042 134.865 52.8483 134.614 53.0371 134.295C53.2324 133.969 53.3757 133.595 53.4668 133.172C53.5579 132.749 53.6035 132.299 53.6035 131.824ZM62.6172 137.195C61.8359 137.195 61.1296 137.068 60.498 136.814C59.873 136.554 59.3392 136.193 58.8965 135.73C58.4603 135.268 58.125 134.725 57.8906 134.1C57.6562 133.475 57.5391 132.801 57.5391 132.078V131.688C57.5391 130.861 57.6595 130.112 57.9004 129.441C58.1413 128.771 58.4766 128.198 58.9062 127.723C59.3359 127.241 59.8438 126.873 60.4297 126.619C61.0156 126.365 61.6504 126.238 62.334 126.238C63.0892 126.238 63.75 126.365 64.3164 126.619C64.8828 126.873 65.3516 127.231 65.7227 127.693C66.1003 128.149 66.3802 128.693 66.5625 129.324C66.7513 129.956 66.8457 130.652 66.8457 131.414V132.42H58.6816V130.73H64.5215V130.545C64.5085 130.122 64.4238 129.725 64.2676 129.354C64.1178 128.982 63.8867 128.683 63.5742 128.455C63.2617 128.227 62.8451 128.113 62.3242 128.113C61.9336 128.113 61.5853 128.198 61.2793 128.367C60.9798 128.53 60.7292 128.768 60.5273 129.08C60.3255 129.393 60.1693 129.77 60.0586 130.213C59.9544 130.649 59.9023 131.141 59.9023 131.688V132.078C59.9023 132.54 59.9642 132.97 60.0879 133.367C60.2181 133.758 60.4069 134.1 60.6543 134.393C60.9017 134.686 61.2012 134.917 61.5527 135.086C61.9043 135.249 62.3047 135.33 62.7539 135.33C63.3203 135.33 63.8249 135.216 64.2676 134.988C64.7103 134.76 65.0944 134.438 65.4199 134.021L66.6602 135.223C66.4323 135.555 66.1361 135.874 65.7715 136.18C65.4069 136.479 64.9609 136.723 64.4336 136.912C63.9128 137.101 63.3073 137.195 62.6172 137.195ZM71.0449 128.445V137H68.6914V126.434H70.9375L71.0449 128.445ZM74.2773 126.365L74.2578 128.553C74.1146 128.527 73.9583 128.507 73.7891 128.494C73.6263 128.481 73.4635 128.475 73.3008 128.475C72.8971 128.475 72.5423 128.533 72.2363 128.65C71.9303 128.761 71.6732 128.924 71.4648 129.139C71.263 129.347 71.1068 129.601 70.9961 129.9C70.8854 130.2 70.8203 130.535 70.8008 130.906L70.2637 130.945C70.2637 130.281 70.3288 129.666 70.459 129.1C70.5892 128.533 70.7845 128.035 71.0449 127.605C71.3118 127.176 71.6439 126.84 72.041 126.6C72.4447 126.359 72.9102 126.238 73.4375 126.238C73.5807 126.238 73.7337 126.251 73.8965 126.277C74.0658 126.303 74.1927 126.333 74.2773 126.365ZM78.2715 126.434V137H75.9082V126.434H78.2715ZM75.752 123.66C75.752 123.302 75.8691 123.006 76.1035 122.771C76.3444 122.531 76.6764 122.41 77.0996 122.41C77.5163 122.41 77.8451 122.531 78.0859 122.771C78.3268 123.006 78.4473 123.302 78.4473 123.66C78.4473 124.012 78.3268 124.305 78.0859 124.539C77.8451 124.773 77.5163 124.891 77.0996 124.891C76.6764 124.891 76.3444 124.773 76.1035 124.539C75.8691 124.305 75.752 124.012 75.752 123.66ZM83.2031 128.582V137H80.8496V126.434H83.0664L83.2031 128.582ZM82.8223 131.326L82.0215 131.316C82.0215 130.587 82.1126 129.913 82.2949 129.295C82.4772 128.676 82.7441 128.139 83.0957 127.684C83.4473 127.221 83.8835 126.867 84.4043 126.619C84.9316 126.365 85.5404 126.238 86.2305 126.238C86.7122 126.238 87.1517 126.31 87.5488 126.453C87.9525 126.59 88.3008 126.808 88.5938 127.107C88.8932 127.407 89.1211 127.791 89.2773 128.26C89.4401 128.729 89.5215 129.295 89.5215 129.959V137H87.168V130.164C87.168 129.65 87.0898 129.246 86.9336 128.953C86.7839 128.66 86.5658 128.452 86.2793 128.328C85.9993 128.198 85.6641 128.133 85.2734 128.133C84.8307 128.133 84.4531 128.217 84.1406 128.387C83.8346 128.556 83.584 128.787 83.3887 129.08C83.1934 129.373 83.0501 129.712 82.959 130.096C82.8678 130.48 82.8223 130.89 82.8223 131.326ZM89.375 130.701L88.2715 130.945C88.2715 130.307 88.3594 129.705 88.5352 129.139C88.7174 128.566 88.9811 128.064 89.3262 127.635C89.6777 127.199 90.1107 126.857 90.625 126.609C91.1393 126.362 91.7285 126.238 92.3926 126.238C92.9329 126.238 93.4147 126.313 93.8379 126.463C94.2676 126.606 94.6322 126.834 94.9316 127.146C95.2311 127.459 95.459 127.866 95.6152 128.367C95.7715 128.862 95.8496 129.461 95.8496 130.164V137H93.4863V130.154C93.4863 129.62 93.4082 129.207 93.252 128.914C93.1022 128.621 92.8874 128.419 92.6074 128.309C92.3275 128.191 91.9922 128.133 91.6016 128.133C91.237 128.133 90.9147 128.201 90.6348 128.338C90.3613 128.468 90.1302 128.654 89.9414 128.895C89.7526 129.129 89.6094 129.399 89.5117 129.705C89.4206 130.011 89.375 130.343 89.375 130.701ZM102.93 137.195C102.148 137.195 101.442 137.068 100.811 136.814C100.186 136.554 99.6517 136.193 99.209 135.73C98.7728 135.268 98.4375 134.725 98.2031 134.1C97.9688 133.475 97.8516 132.801 97.8516 132.078V131.688C97.8516 130.861 97.972 130.112 98.2129 129.441C98.4538 128.771 98.7891 128.198 99.2188 127.723C99.6484 127.241 100.156 126.873 100.742 126.619C101.328 126.365 101.963 126.238 102.646 126.238C103.402 126.238 104.062 126.365 104.629 126.619C105.195 126.873 105.664 127.231 106.035 127.693C106.413 128.149 106.693 128.693 106.875 129.324C107.064 129.956 107.158 130.652 107.158 131.414V132.42H98.9941V130.73H104.834V130.545C104.821 130.122 104.736 129.725 104.58 129.354C104.43 128.982 104.199 128.683 103.887 128.455C103.574 128.227 103.158 128.113 102.637 128.113C102.246 128.113 101.898 128.198 101.592 128.367C101.292 128.53 101.042 128.768 100.84 129.08C100.638 129.393 100.482 129.77 100.371 130.213C100.267 130.649 100.215 131.141 100.215 131.688V132.078C100.215 132.54 100.277 132.97 100.4 133.367C100.531 133.758 100.719 134.1 100.967 134.393C101.214 134.686 101.514 134.917 101.865 135.086C102.217 135.249 102.617 135.33 103.066 135.33C103.633 135.33 104.137 135.216 104.58 134.988C105.023 134.76 105.407 134.438 105.732 134.021L106.973 135.223C106.745 135.555 106.449 135.874 106.084 136.18C105.719 136.479 105.273 136.723 104.746 136.912C104.225 137.101 103.62 137.195 102.93 137.195ZM111.328 128.689V137H108.975V126.434H111.191L111.328 128.689ZM110.908 131.326L110.146 131.316C110.153 130.568 110.257 129.881 110.459 129.256C110.667 128.631 110.954 128.094 111.318 127.645C111.689 127.195 112.132 126.85 112.646 126.609C113.161 126.362 113.734 126.238 114.365 126.238C114.873 126.238 115.332 126.31 115.742 126.453C116.159 126.59 116.514 126.814 116.807 127.127C117.106 127.439 117.334 127.846 117.49 128.348C117.646 128.842 117.725 129.451 117.725 130.174V137H115.361V130.164C115.361 129.656 115.286 129.256 115.137 128.963C114.993 128.663 114.782 128.452 114.502 128.328C114.229 128.198 113.887 128.133 113.477 128.133C113.073 128.133 112.712 128.217 112.393 128.387C112.074 128.556 111.803 128.787 111.582 129.08C111.367 129.373 111.201 129.712 111.084 130.096C110.967 130.48 110.908 130.89 110.908 131.326ZM124.971 126.434V128.152H119.014V126.434H124.971ZM120.732 123.846H123.086V134.08C123.086 134.406 123.132 134.656 123.223 134.832C123.32 135.001 123.454 135.115 123.623 135.174C123.792 135.232 123.991 135.262 124.219 135.262C124.382 135.262 124.538 135.252 124.688 135.232C124.837 135.213 124.958 135.193 125.049 135.174L125.059 136.971C124.863 137.029 124.635 137.081 124.375 137.127C124.121 137.173 123.828 137.195 123.496 137.195C122.956 137.195 122.477 137.101 122.061 136.912C121.644 136.717 121.318 136.401 121.084 135.965C120.85 135.529 120.732 134.949 120.732 134.227V123.846ZM132.715 134.139C132.715 133.904 132.656 133.693 132.539 133.504C132.422 133.309 132.197 133.133 131.865 132.977C131.54 132.82 131.058 132.677 130.42 132.547C129.86 132.423 129.346 132.277 128.877 132.107C128.415 131.932 128.018 131.72 127.686 131.473C127.354 131.225 127.096 130.932 126.914 130.594C126.732 130.255 126.641 129.865 126.641 129.422C126.641 128.992 126.735 128.585 126.924 128.201C127.113 127.817 127.383 127.479 127.734 127.186C128.086 126.893 128.512 126.661 129.014 126.492C129.521 126.323 130.088 126.238 130.713 126.238C131.598 126.238 132.357 126.388 132.988 126.688C133.626 126.98 134.115 127.381 134.453 127.889C134.792 128.39 134.961 128.956 134.961 129.588H132.607C132.607 129.308 132.536 129.048 132.393 128.807C132.256 128.559 132.048 128.361 131.768 128.211C131.488 128.055 131.136 127.977 130.713 127.977C130.309 127.977 129.974 128.042 129.707 128.172C129.447 128.296 129.251 128.458 129.121 128.66C128.997 128.862 128.936 129.083 128.936 129.324C128.936 129.5 128.968 129.66 129.033 129.803C129.105 129.939 129.222 130.066 129.385 130.184C129.548 130.294 129.769 130.398 130.049 130.496C130.335 130.594 130.693 130.688 131.123 130.779C131.93 130.949 132.624 131.167 133.203 131.434C133.789 131.694 134.238 132.033 134.551 132.449C134.863 132.859 135.02 133.38 135.02 134.012C135.02 134.48 134.919 134.91 134.717 135.301C134.521 135.685 134.235 136.02 133.857 136.307C133.48 136.587 133.027 136.805 132.5 136.961C131.979 137.117 131.393 137.195 130.742 137.195C129.785 137.195 128.975 137.026 128.311 136.688C127.646 136.342 127.142 135.903 126.797 135.369C126.458 134.829 126.289 134.269 126.289 133.689H128.564C128.59 134.126 128.711 134.474 128.926 134.734C129.147 134.988 129.421 135.174 129.746 135.291C130.078 135.402 130.42 135.457 130.771 135.457C131.195 135.457 131.549 135.402 131.836 135.291C132.122 135.174 132.34 135.018 132.49 134.822C132.64 134.62 132.715 134.393 132.715 134.139Z" fill="#33383D"/>
<path d="M48.4619 164.85V166H42.8149V164.85H48.4619ZM43.1006 155.336V166H41.687V155.336H43.1006ZM47.7148 159.921V161.071H42.8149V159.921H47.7148ZM48.3887 155.336V156.493H42.8149V155.336H48.3887ZM50.9229 158.075L52.6587 160.961L54.4165 158.075H56.0059L53.4131 161.986L56.0864 166H54.519L52.688 163.026L50.8569 166H49.2822L51.9482 161.986L49.3628 158.075H50.9229ZM58.8037 159.599V169.047H57.4414V158.075H58.6865L58.8037 159.599ZM64.1431 161.972V162.125C64.1431 162.702 64.0747 163.236 63.938 163.729C63.8013 164.218 63.6011 164.643 63.3374 165.004C63.0786 165.365 62.7588 165.646 62.3779 165.846C61.9971 166.046 61.5601 166.146 61.0669 166.146C60.564 166.146 60.1196 166.063 59.7339 165.897C59.3481 165.731 59.021 165.49 58.7524 165.172C58.4839 164.855 58.269 164.474 58.1079 164.03C57.9517 163.585 57.8442 163.085 57.7856 162.528V161.708C57.8442 161.122 57.9541 160.597 58.1152 160.133C58.2764 159.669 58.4888 159.274 58.7524 158.947C59.021 158.615 59.3457 158.363 59.7266 158.192C60.1074 158.017 60.5469 157.929 61.0449 157.929C61.543 157.929 61.9849 158.026 62.3706 158.222C62.7563 158.412 63.0811 158.686 63.3447 159.042C63.6084 159.398 63.8062 159.826 63.938 160.324C64.0747 160.817 64.1431 161.366 64.1431 161.972ZM62.7808 162.125V161.972C62.7808 161.576 62.7393 161.205 62.6562 160.858C62.5732 160.507 62.4438 160.199 62.2681 159.936C62.0972 159.667 61.8774 159.457 61.6089 159.306C61.3403 159.149 61.0205 159.071 60.6494 159.071C60.3076 159.071 60.0098 159.13 59.7559 159.247C59.5068 159.364 59.2944 159.523 59.1187 159.723C58.9429 159.918 58.7988 160.143 58.6865 160.397C58.5791 160.646 58.4985 160.905 58.4448 161.173V163.07C58.5425 163.412 58.6792 163.734 58.855 164.037C59.0308 164.335 59.2651 164.577 59.5581 164.762C59.8511 164.943 60.2197 165.033 60.6641 165.033C61.0303 165.033 61.3452 164.958 61.6089 164.806C61.8774 164.65 62.0972 164.438 62.2681 164.169C62.4438 163.9 62.5732 163.593 62.6562 163.246C62.7393 162.895 62.7808 162.521 62.7808 162.125ZM69.1602 166.146C68.6084 166.146 68.1079 166.054 67.6587 165.868C67.2144 165.678 66.8311 165.412 66.5088 165.07C66.1914 164.728 65.9473 164.323 65.7764 163.854C65.6055 163.385 65.52 162.873 65.52 162.316V162.008C65.52 161.364 65.6152 160.79 65.8057 160.287C65.9961 159.779 66.2549 159.35 66.582 158.998C66.9092 158.646 67.2803 158.38 67.6953 158.2C68.1104 158.019 68.54 157.929 68.9844 157.929C69.5508 157.929 70.0391 158.026 70.4492 158.222C70.8643 158.417 71.2036 158.69 71.4673 159.042C71.731 159.389 71.9263 159.799 72.0532 160.272C72.1802 160.741 72.2437 161.254 72.2437 161.811V162.418H66.3257V161.312H70.8887V161.21C70.8691 160.858 70.7959 160.517 70.6689 160.185C70.5469 159.853 70.3516 159.579 70.083 159.364C69.8145 159.149 69.4482 159.042 68.9844 159.042C68.6768 159.042 68.3936 159.108 68.1348 159.24C67.876 159.367 67.6538 159.557 67.4683 159.811C67.2827 160.065 67.1387 160.375 67.0361 160.741C66.9336 161.107 66.8823 161.53 66.8823 162.008V162.316C66.8823 162.692 66.9336 163.046 67.0361 163.378C67.1436 163.705 67.2974 163.993 67.4976 164.242C67.7026 164.491 67.9492 164.687 68.2373 164.828C68.5303 164.97 68.8623 165.041 69.2334 165.041C69.7119 165.041 70.1172 164.943 70.4492 164.748C70.7812 164.552 71.0718 164.291 71.3208 163.964L72.1411 164.616C71.9702 164.875 71.7529 165.121 71.4893 165.355C71.2256 165.59 70.9009 165.78 70.5151 165.927C70.1343 166.073 69.6826 166.146 69.1602 166.146ZM75.1807 159.32V166H73.8257V158.075H75.144L75.1807 159.32ZM77.6562 158.031L77.6489 159.291C77.5366 159.267 77.4292 159.252 77.3267 159.247C77.229 159.237 77.1167 159.232 76.9897 159.232C76.6772 159.232 76.4014 159.281 76.1621 159.379C75.9229 159.477 75.7202 159.613 75.5542 159.789C75.3882 159.965 75.2563 160.175 75.1587 160.419C75.0659 160.658 75.0049 160.922 74.9756 161.21L74.5947 161.43C74.5947 160.951 74.6411 160.502 74.7339 160.082C74.8315 159.662 74.9805 159.291 75.1807 158.969C75.3809 158.642 75.6348 158.388 75.9424 158.207C76.2549 158.021 76.626 157.929 77.0557 157.929C77.1533 157.929 77.2656 157.941 77.3926 157.965C77.5195 157.985 77.6074 158.007 77.6562 158.031ZM80.3809 158.075V166H79.0186V158.075H80.3809ZM78.916 155.973C78.916 155.753 78.9819 155.568 79.1138 155.417C79.2505 155.265 79.4507 155.189 79.7144 155.189C79.9731 155.189 80.1709 155.265 80.3076 155.417C80.4492 155.568 80.52 155.753 80.52 155.973C80.52 156.183 80.4492 156.364 80.3076 156.515C80.1709 156.662 79.9731 156.735 79.7144 156.735C79.4507 156.735 79.2505 156.662 79.1138 156.515C78.9819 156.364 78.916 156.183 78.916 155.973ZM83.9038 159.65V166H82.5415V158.075H83.8306L83.9038 159.65ZM83.6255 161.737L82.9956 161.715C83.0005 161.173 83.0713 160.673 83.208 160.214C83.3447 159.75 83.5474 159.347 83.8159 159.005C84.0845 158.664 84.4189 158.4 84.8193 158.214C85.2197 158.024 85.6836 157.929 86.2109 157.929C86.582 157.929 86.9238 157.982 87.2363 158.09C87.5488 158.192 87.8198 158.356 88.0493 158.581C88.2788 158.805 88.457 159.093 88.584 159.445C88.7109 159.796 88.7744 160.221 88.7744 160.719V166H87.4194V160.785C87.4194 160.37 87.3486 160.038 87.207 159.789C87.0703 159.54 86.875 159.359 86.6211 159.247C86.3672 159.13 86.0693 159.071 85.7275 159.071C85.3271 159.071 84.9927 159.142 84.7241 159.284C84.4556 159.425 84.2407 159.621 84.0796 159.87C83.9185 160.119 83.8013 160.404 83.728 160.727C83.6597 161.044 83.6255 161.381 83.6255 161.737ZM88.7598 160.99L87.8516 161.269C87.8564 160.834 87.9272 160.417 88.064 160.016C88.2056 159.616 88.4082 159.259 88.6719 158.947C88.9404 158.634 89.27 158.388 89.6606 158.207C90.0513 158.021 90.498 157.929 91.001 157.929C91.4258 157.929 91.8018 157.985 92.1289 158.097C92.4609 158.209 92.7393 158.383 92.9639 158.617C93.1934 158.847 93.3667 159.142 93.4839 159.503C93.6011 159.865 93.6597 160.294 93.6597 160.792V166H92.2974V160.778C92.2974 160.333 92.2266 159.989 92.085 159.745C91.9482 159.496 91.7529 159.323 91.499 159.225C91.25 159.123 90.9521 159.071 90.6055 159.071C90.3076 159.071 90.0439 159.123 89.8145 159.225C89.585 159.328 89.3921 159.469 89.2358 159.65C89.0796 159.826 88.96 160.028 88.877 160.258C88.7988 160.487 88.7598 160.731 88.7598 160.99ZM98.999 166.146C98.4473 166.146 97.9468 166.054 97.4976 165.868C97.0532 165.678 96.6699 165.412 96.3477 165.07C96.0303 164.728 95.7861 164.323 95.6152 163.854C95.4443 163.385 95.3589 162.873 95.3589 162.316V162.008C95.3589 161.364 95.4541 160.79 95.6445 160.287C95.835 159.779 96.0938 159.35 96.4209 158.998C96.748 158.646 97.1191 158.38 97.5342 158.2C97.9492 158.019 98.3789 157.929 98.8232 157.929C99.3896 157.929 99.8779 158.026 100.288 158.222C100.703 158.417 101.042 158.69 101.306 159.042C101.57 159.389 101.765 159.799 101.892 160.272C102.019 160.741 102.083 161.254 102.083 161.811V162.418H96.1646V161.312H100.728V161.21C100.708 160.858 100.635 160.517 100.508 160.185C100.386 159.853 100.19 159.579 99.9219 159.364C99.6533 159.149 99.2871 159.042 98.8232 159.042C98.5156 159.042 98.2324 159.108 97.9736 159.24C97.7148 159.367 97.4927 159.557 97.3071 159.811C97.1216 160.065 96.9775 160.375 96.875 160.741C96.7725 161.107 96.7212 161.53 96.7212 162.008V162.316C96.7212 162.692 96.7725 163.046 96.875 163.378C96.9824 163.705 97.1362 163.993 97.3364 164.242C97.5415 164.491 97.7881 164.687 98.0762 164.828C98.3691 164.97 98.7012 165.041 99.0723 165.041C99.5508 165.041 99.9561 164.943 100.288 164.748C100.62 164.552 100.911 164.291 101.16 163.964L101.98 164.616C101.809 164.875 101.592 165.121 101.328 165.355C101.064 165.59 100.74 165.78 100.354 165.927C99.9731 166.073 99.5215 166.146 98.999 166.146ZM105.02 159.767V166H103.665V158.075H104.946L105.02 159.767ZM104.697 161.737L104.133 161.715C104.138 161.173 104.219 160.673 104.375 160.214C104.531 159.75 104.751 159.347 105.034 159.005C105.317 158.664 105.654 158.4 106.045 158.214C106.44 158.024 106.877 157.929 107.356 157.929C107.747 157.929 108.098 157.982 108.411 158.09C108.723 158.192 108.989 158.358 109.209 158.588C109.434 158.817 109.604 159.115 109.722 159.481C109.839 159.843 109.897 160.285 109.897 160.807V166H108.535V160.792C108.535 160.377 108.474 160.045 108.352 159.796C108.23 159.542 108.052 159.359 107.817 159.247C107.583 159.13 107.295 159.071 106.953 159.071C106.616 159.071 106.309 159.142 106.03 159.284C105.757 159.425 105.52 159.621 105.32 159.87C105.125 160.119 104.971 160.404 104.858 160.727C104.751 161.044 104.697 161.381 104.697 161.737ZM115.273 158.075V159.115H110.989V158.075H115.273ZM112.439 156.149H113.794V164.037C113.794 164.306 113.835 164.508 113.918 164.645C114.001 164.782 114.109 164.872 114.241 164.916C114.373 164.96 114.514 164.982 114.666 164.982C114.778 164.982 114.895 164.972 115.017 164.953C115.144 164.928 115.239 164.909 115.303 164.894L115.31 166C115.203 166.034 115.061 166.066 114.885 166.095C114.714 166.129 114.507 166.146 114.263 166.146C113.931 166.146 113.625 166.081 113.347 165.949C113.069 165.817 112.847 165.597 112.681 165.29C112.52 164.977 112.439 164.557 112.439 164.03V156.149ZM57.5146 179.075V180.115H53.23V179.075H57.5146ZM54.6802 177.149H56.0352V185.037C56.0352 185.306 56.0767 185.508 56.1597 185.645C56.2427 185.782 56.3501 185.872 56.4819 185.916C56.6138 185.96 56.7554 185.982 56.9067 185.982C57.019 185.982 57.1362 185.972 57.2583 185.953C57.3853 185.928 57.4805 185.909 57.5439 185.894L57.5513 187C57.4438 187.034 57.3022 187.066 57.1265 187.095C56.9556 187.129 56.748 187.146 56.5039 187.146C56.1719 187.146 55.8667 187.081 55.5884 186.949C55.3101 186.817 55.0879 186.597 54.9219 186.29C54.7607 185.977 54.6802 185.557 54.6802 185.03V177.149ZM60.459 180.32V187H59.104V179.075H60.4224L60.459 180.32ZM62.9346 179.031L62.9272 180.291C62.8149 180.267 62.7075 180.252 62.605 180.247C62.5073 180.237 62.395 180.232 62.2681 180.232C61.9556 180.232 61.6797 180.281 61.4404 180.379C61.2012 180.477 60.9985 180.613 60.8325 180.789C60.6665 180.965 60.5347 181.175 60.437 181.419C60.3442 181.658 60.2832 181.922 60.2539 182.21L59.873 182.43C59.873 181.951 59.9194 181.502 60.0122 181.082C60.1099 180.662 60.2588 180.291 60.459 179.969C60.6592 179.642 60.9131 179.388 61.2207 179.207C61.5332 179.021 61.9043 178.929 62.334 178.929C62.4316 178.929 62.5439 178.941 62.6709 178.965C62.7979 178.985 62.8857 179.007 62.9346 179.031ZM68.5669 185.645V181.565C68.5669 181.253 68.5034 180.982 68.3765 180.752C68.2544 180.518 68.0688 180.337 67.8198 180.21C67.5708 180.083 67.2632 180.02 66.897 180.02C66.5552 180.02 66.2549 180.079 65.9961 180.196C65.7422 180.313 65.542 180.467 65.3955 180.657C65.2539 180.848 65.1831 181.053 65.1831 181.272H63.8281C63.8281 180.989 63.9014 180.708 64.0479 180.43C64.1943 180.152 64.4043 179.9 64.6777 179.676C64.9561 179.446 65.2881 179.266 65.6738 179.134C66.0645 178.997 66.499 178.929 66.9775 178.929C67.5537 178.929 68.0615 179.026 68.501 179.222C68.9453 179.417 69.292 179.712 69.541 180.108C69.7949 180.499 69.9219 180.989 69.9219 181.58V185.271C69.9219 185.535 69.9438 185.816 69.9878 186.114C70.0366 186.412 70.1074 186.668 70.2002 186.883V187H68.7866C68.7183 186.844 68.6646 186.636 68.6255 186.377C68.5864 186.114 68.5669 185.87 68.5669 185.645ZM68.8013 182.195L68.8159 183.147H67.4463C67.0605 183.147 66.7163 183.179 66.4136 183.243C66.1108 183.301 65.8569 183.392 65.6519 183.514C65.4468 183.636 65.2905 183.79 65.1831 183.975C65.0757 184.156 65.022 184.368 65.022 184.612C65.022 184.861 65.0781 185.088 65.1904 185.293C65.3027 185.499 65.4712 185.662 65.6958 185.784C65.9253 185.901 66.2061 185.96 66.5381 185.96C66.9531 185.96 67.3193 185.872 67.6367 185.696C67.9541 185.521 68.2056 185.306 68.3911 185.052C68.5815 184.798 68.6841 184.551 68.6987 184.312L69.2773 184.964C69.2432 185.169 69.1504 185.396 68.999 185.645C68.8477 185.894 68.645 186.133 68.3911 186.363C68.1421 186.587 67.8442 186.775 67.4976 186.927C67.1558 187.073 66.77 187.146 66.3403 187.146C65.8032 187.146 65.332 187.042 64.9268 186.832C64.5264 186.622 64.2139 186.341 63.9893 185.989C63.7695 185.633 63.6597 185.235 63.6597 184.795C63.6597 184.371 63.7427 183.997 63.9087 183.675C64.0747 183.348 64.314 183.077 64.6265 182.862C64.939 182.642 65.3149 182.476 65.7544 182.364C66.1938 182.251 66.6846 182.195 67.2266 182.195H68.8013ZM75.2246 186.033C75.5469 186.033 75.8447 185.967 76.1182 185.835C76.3916 185.704 76.6162 185.523 76.792 185.293C76.9678 185.059 77.0679 184.793 77.0923 184.495H78.3813C78.3569 184.964 78.1982 185.401 77.9053 185.806C77.6172 186.207 77.2388 186.531 76.77 186.78C76.3013 187.024 75.7861 187.146 75.2246 187.146C74.6289 187.146 74.1089 187.042 73.6646 186.832C73.2251 186.622 72.8589 186.333 72.5659 185.967C72.2778 185.601 72.0605 185.181 71.9141 184.708C71.7725 184.229 71.7017 183.724 71.7017 183.191V182.884C71.7017 182.352 71.7725 181.849 71.9141 181.375C72.0605 180.896 72.2778 180.474 72.5659 180.108C72.8589 179.742 73.2251 179.454 73.6646 179.244C74.1089 179.034 74.6289 178.929 75.2246 178.929C75.8447 178.929 76.3867 179.056 76.8506 179.31C77.3145 179.559 77.6782 179.9 77.9419 180.335C78.2104 180.765 78.3569 181.253 78.3813 181.8H77.0923C77.0679 181.473 76.9751 181.177 76.814 180.914C76.6577 180.65 76.4429 180.44 76.1694 180.284C75.9009 180.123 75.5859 180.042 75.2246 180.042C74.8096 180.042 74.4604 180.125 74.1772 180.291C73.8989 180.452 73.6768 180.672 73.5107 180.95C73.3496 181.224 73.2324 181.529 73.1592 181.866C73.0908 182.198 73.0566 182.537 73.0566 182.884V183.191C73.0566 183.538 73.0908 183.88 73.1592 184.217C73.2275 184.554 73.3423 184.859 73.5034 185.132C73.6694 185.406 73.8916 185.625 74.1699 185.792C74.4531 185.953 74.8047 186.033 75.2246 186.033ZM81.2671 175.75V187H79.9048V175.75H81.2671ZM86.1084 179.075L82.6514 182.774L80.7178 184.781L80.6079 183.338L81.9922 181.683L84.4531 179.075H86.1084ZM84.8706 187L82.0435 183.221L82.7466 182.012L86.4673 187H84.8706ZM88.9795 179.075V187H87.6172V179.075H88.9795ZM87.5146 176.973C87.5146 176.753 87.5806 176.568 87.7124 176.417C87.8491 176.265 88.0493 176.189 88.313 176.189C88.5718 176.189 88.7695 176.265 88.9062 176.417C89.0479 176.568 89.1187 176.753 89.1187 176.973C89.1187 177.183 89.0479 177.364 88.9062 177.515C88.7695 177.662 88.5718 177.735 88.313 177.735C88.0493 177.735 87.8491 177.662 87.7124 177.515C87.5806 177.364 87.5146 177.183 87.5146 176.973ZM92.5098 180.767V187H91.1548V179.075H92.4365L92.5098 180.767ZM92.1875 182.737L91.6235 182.715C91.6284 182.173 91.709 181.673 91.8652 181.214C92.0215 180.75 92.2412 180.347 92.5244 180.005C92.8076 179.664 93.1445 179.4 93.5352 179.214C93.9307 179.024 94.3677 178.929 94.8462 178.929C95.2368 178.929 95.5884 178.982 95.9009 179.09C96.2134 179.192 96.4795 179.358 96.6992 179.588C96.9238 179.817 97.0947 180.115 97.2119 180.481C97.3291 180.843 97.3877 181.285 97.3877 181.807V187H96.0254V181.792C96.0254 181.377 95.9644 181.045 95.8423 180.796C95.7202 180.542 95.542 180.359 95.3076 180.247C95.0732 180.13 94.7852 180.071 94.4434 180.071C94.1064 180.071 93.7988 180.142 93.5205 180.284C93.2471 180.425 93.0103 180.621 92.8101 180.87C92.6147 181.119 92.4609 181.404 92.3486 181.727C92.2412 182.044 92.1875 182.381 92.1875 182.737ZM104.58 179.075H105.811V186.832C105.811 187.53 105.669 188.125 105.386 188.619C105.103 189.112 104.707 189.485 104.199 189.739C103.696 189.998 103.115 190.127 102.456 190.127C102.183 190.127 101.86 190.083 101.489 189.996C101.123 189.913 100.762 189.769 100.405 189.563C100.054 189.363 99.7583 189.092 99.519 188.75L100.229 187.945C100.562 188.345 100.908 188.624 101.27 188.78C101.636 188.936 101.997 189.014 102.354 189.014C102.783 189.014 103.154 188.934 103.467 188.772C103.779 188.611 104.021 188.372 104.192 188.055C104.368 187.742 104.456 187.356 104.456 186.897V180.818L104.58 179.075ZM99.1235 183.125V182.972C99.1235 182.366 99.1943 181.817 99.3359 181.324C99.4824 180.826 99.6899 180.398 99.9585 180.042C100.232 179.686 100.562 179.412 100.947 179.222C101.333 179.026 101.768 178.929 102.251 178.929C102.749 178.929 103.184 179.017 103.555 179.192C103.931 179.363 104.248 179.615 104.507 179.947C104.771 180.274 104.978 180.669 105.129 181.133C105.281 181.597 105.386 182.122 105.444 182.708V183.382C105.391 183.963 105.286 184.485 105.129 184.949C104.978 185.413 104.771 185.809 104.507 186.136C104.248 186.463 103.931 186.714 103.555 186.89C103.179 187.061 102.739 187.146 102.236 187.146C101.763 187.146 101.333 187.046 100.947 186.846C100.566 186.646 100.239 186.365 99.9658 186.004C99.6924 185.643 99.4824 185.218 99.3359 184.729C99.1943 184.236 99.1235 183.702 99.1235 183.125ZM100.479 182.972V183.125C100.479 183.521 100.518 183.892 100.596 184.239C100.679 184.585 100.803 184.891 100.969 185.154C101.14 185.418 101.357 185.625 101.621 185.777C101.885 185.923 102.2 185.997 102.566 185.997C103.015 185.997 103.386 185.901 103.679 185.711C103.972 185.521 104.204 185.269 104.375 184.957C104.551 184.644 104.688 184.305 104.785 183.938V182.173C104.731 181.905 104.648 181.646 104.536 181.397C104.429 181.143 104.287 180.918 104.111 180.723C103.94 180.523 103.728 180.364 103.474 180.247C103.22 180.13 102.922 180.071 102.581 180.071C102.209 180.071 101.89 180.149 101.621 180.306C101.357 180.457 101.14 180.667 100.969 180.936C100.803 181.199 100.679 181.507 100.596 181.858C100.518 182.205 100.479 182.576 100.479 182.972Z" fill="#4B4E52"/>
<path d="M80.75 1.01036L120.319 23.8557C120.783 24.1236 121.069 24.6188 121.069 25.1547V70.8453C121.069 71.3812 120.783 71.8764 120.319 72.1443L80.75 94.9896C80.2859 95.2576 79.7141 95.2576 79.25 94.9896L39.6808 72.1443C39.2167 71.8764 38.9308 71.3812 38.9308 70.8453V25.1547C38.9308 24.6188 39.2167 24.1236 39.6808 23.8557L79.25 1.01036C79.7141 0.742414 80.2859 0.742414 80.75 1.01036Z" stroke="#DDDDDD"/>
<path fill-rule="evenodd" clip-rule="evenodd" d="M88.6084 46.3244C88.0236 45.276 87.7166 44.0954 87.7166 42.8948V26.6988C87.7166 26.4558 87.9136 26.2588 88.1566 26.2588H88.2919C89.0957 26.2588 89.7472 25.6099 89.7472 24.8094C89.7472 24.0089 89.0957 23.36 88.2919 23.36H72.5881C71.7844 23.36 71.1328 24.0089 71.1328 24.8094C71.1328 25.6099 71.7844 26.2588 72.5881 26.2588H72.7234C72.9664 26.2588 73.1634 26.4558 73.1634 26.6988V42.8948C73.1634 44.0954 72.8564 45.276 72.2716 46.3244L61.1957 66.1801C59.579 69.0783 61.6833 72.64 65.0122 72.64H95.8678C99.1968 72.64 101.301 69.0783 99.6843 66.1801L88.6084 46.3244ZM76.0741 26.6988C76.0741 26.4558 76.2711 26.2588 76.5141 26.2588H84.366C84.609 26.2588 84.806 26.4558 84.806 26.6988V42.7717C84.806 43.2578 84.412 43.6517 83.926 43.6517H76.9541C76.4681 43.6517 76.0741 43.2578 76.0741 42.7717V26.6988Z" fill="#FF517F"/>
</svg>
