<svg width="160" height="192" viewBox="0 0 160 192" fill="none" xmlns="http://www.w3.org/2000/svg">
<path d="M57.6465 135.057V137H50.5078V135.057H57.6465ZM51.1914 122.781V137H48.7402V122.781H51.1914ZM65.2637 134.881V129.842C65.2637 129.464 65.1953 129.139 65.0586 128.865C64.9219 128.592 64.7135 128.38 64.4336 128.23C64.1602 128.081 63.8151 128.006 63.3984 128.006C63.0143 128.006 62.6823 128.071 62.4023 128.201C62.1224 128.331 61.9043 128.507 61.748 128.729C61.5918 128.95 61.5137 129.201 61.5137 129.48H59.1699C59.1699 129.064 59.2708 128.66 59.4727 128.27C59.6745 127.879 59.9674 127.531 60.3516 127.225C60.7357 126.919 61.1947 126.678 61.7285 126.502C62.2624 126.326 62.8613 126.238 63.5254 126.238C64.3197 126.238 65.0228 126.372 65.6348 126.639C66.2533 126.906 66.7383 127.309 67.0898 127.85C67.4479 128.383 67.627 129.054 67.627 129.861V134.559C67.627 135.04 67.6595 135.473 67.7246 135.857C67.7962 136.235 67.8971 136.564 68.0273 136.844V137H65.6152C65.5046 136.746 65.4167 136.424 65.3516 136.033C65.293 135.636 65.2637 135.252 65.2637 134.881ZM65.6055 130.574L65.625 132.029H63.9355C63.4993 132.029 63.1152 132.072 62.7832 132.156C62.4512 132.234 62.1745 132.352 61.9531 132.508C61.7318 132.664 61.5658 132.853 61.4551 133.074C61.3444 133.296 61.2891 133.546 61.2891 133.826C61.2891 134.106 61.3542 134.363 61.4844 134.598C61.6146 134.826 61.8034 135.005 62.0508 135.135C62.3047 135.265 62.6107 135.33 62.9688 135.33C63.4505 135.33 63.8704 135.232 64.2285 135.037C64.5931 134.835 64.8796 134.591 65.0879 134.305C65.2962 134.012 65.4069 133.735 65.4199 133.475L66.1816 134.52C66.1035 134.786 65.9701 135.073 65.7812 135.379C65.5924 135.685 65.3451 135.978 65.0391 136.258C64.7396 136.531 64.3783 136.756 63.9551 136.932C63.5384 137.107 63.0566 137.195 62.5098 137.195C61.8197 137.195 61.2044 137.059 60.6641 136.785C60.1237 136.505 59.7005 136.131 59.3945 135.662C59.0885 135.187 58.9355 134.65 58.9355 134.051C58.9355 133.491 59.0397 132.996 59.248 132.566C59.4629 132.13 59.7754 131.766 60.1855 131.473C60.6022 131.18 61.11 130.958 61.709 130.809C62.3079 130.652 62.9915 130.574 63.7598 130.574H65.6055ZM76.4453 134.51V126.434H78.8086V137H76.582L76.4453 134.51ZM76.7773 132.312L77.5684 132.293C77.5684 133.003 77.4902 133.657 77.334 134.256C77.1777 134.848 76.9368 135.366 76.6113 135.809C76.2858 136.245 75.8691 136.587 75.3613 136.834C74.8535 137.075 74.2448 137.195 73.5352 137.195C73.0208 137.195 72.5488 137.12 72.1191 136.971C71.6895 136.821 71.3184 136.59 71.0059 136.277C70.6999 135.965 70.4622 135.558 70.293 135.057C70.1237 134.555 70.0391 133.956 70.0391 133.26V126.434H72.3926V133.279C72.3926 133.663 72.4382 133.986 72.5293 134.246C72.6204 134.5 72.7441 134.705 72.9004 134.861C73.0566 135.018 73.2389 135.128 73.4473 135.193C73.6556 135.258 73.877 135.291 74.1113 135.291C74.7819 135.291 75.3092 135.161 75.6934 134.9C76.084 134.633 76.3607 134.275 76.5234 133.826C76.6927 133.377 76.7773 132.872 76.7773 132.312ZM83.5547 128.689V137H81.2012V126.434H83.418L83.5547 128.689ZM83.1348 131.326L82.373 131.316C82.3796 130.568 82.4837 129.881 82.6855 129.256C82.8939 128.631 83.1803 128.094 83.5449 127.645C83.916 127.195 84.3587 126.85 84.873 126.609C85.3874 126.362 85.9603 126.238 86.5918 126.238C87.0996 126.238 87.5586 126.31 87.9688 126.453C88.3854 126.59 88.7402 126.814 89.0332 127.127C89.3327 127.439 89.5605 127.846 89.7168 128.348C89.873 128.842 89.9512 129.451 89.9512 130.174V137H87.5879V130.164C87.5879 129.656 87.513 129.256 87.3633 128.963C87.2201 128.663 87.0085 128.452 86.7285 128.328C86.4551 128.198 86.1133 128.133 85.7031 128.133C85.2995 128.133 84.9382 128.217 84.6191 128.387C84.3001 128.556 84.0299 128.787 83.8086 129.08C83.5938 129.373 83.4277 129.712 83.3105 130.096C83.1934 130.48 83.1348 130.89 83.1348 131.326ZM96.6699 135.32C97.054 135.32 97.3991 135.245 97.7051 135.096C98.0176 134.939 98.2682 134.725 98.457 134.451C98.6523 134.178 98.7598 133.862 98.7793 133.504H100.996C100.983 134.188 100.781 134.809 100.391 135.369C100 135.929 99.4824 136.375 98.8379 136.707C98.1934 137.033 97.4805 137.195 96.6992 137.195C95.8919 137.195 95.1888 137.059 94.5898 136.785C93.9909 136.505 93.4928 136.121 93.0957 135.633C92.6986 135.145 92.3991 134.581 92.1973 133.943C92.002 133.305 91.9043 132.622 91.9043 131.893V131.551C91.9043 130.822 92.002 130.138 92.1973 129.5C92.3991 128.855 92.6986 128.289 93.0957 127.801C93.4928 127.312 93.9909 126.932 94.5898 126.658C95.1888 126.378 95.8887 126.238 96.6895 126.238C97.5358 126.238 98.278 126.408 98.916 126.746C99.554 127.078 100.055 127.544 100.42 128.143C100.791 128.735 100.983 129.425 100.996 130.213H98.7793C98.7598 129.822 98.6621 129.471 98.4863 129.158C98.3171 128.839 98.0762 128.585 97.7637 128.396C97.4577 128.208 97.0898 128.113 96.6602 128.113C96.1849 128.113 95.791 128.211 95.4785 128.406C95.166 128.595 94.9219 128.855 94.7461 129.188C94.5703 129.513 94.4434 129.881 94.3652 130.291C94.2936 130.695 94.2578 131.115 94.2578 131.551V131.893C94.2578 132.329 94.2936 132.752 94.3652 133.162C94.4368 133.572 94.5605 133.94 94.7363 134.266C94.9186 134.585 95.166 134.842 95.4785 135.037C95.791 135.226 96.1882 135.32 96.6699 135.32ZM105.127 122V137H102.783V122H105.127ZM104.717 131.326L103.955 131.316C103.962 130.587 104.062 129.913 104.258 129.295C104.46 128.676 104.74 128.139 105.098 127.684C105.462 127.221 105.898 126.867 106.406 126.619C106.914 126.365 107.477 126.238 108.096 126.238C108.617 126.238 109.085 126.31 109.502 126.453C109.925 126.596 110.29 126.827 110.596 127.146C110.902 127.459 111.133 127.869 111.289 128.377C111.452 128.878 111.533 129.49 111.533 130.213V137H109.17V130.193C109.17 129.686 109.095 129.282 108.945 128.982C108.802 128.683 108.59 128.468 108.311 128.338C108.031 128.201 107.689 128.133 107.285 128.133C106.862 128.133 106.488 128.217 106.162 128.387C105.843 128.556 105.576 128.787 105.361 129.08C105.146 129.373 104.984 129.712 104.873 130.096C104.769 130.48 104.717 130.89 104.717 131.326Z" fill="#33383D"/>
<path d="M38.1421 156.281L34.6118 166H33.1689L37.2339 155.336H38.1641L38.1421 156.281ZM41.1011 166L37.5635 156.281L37.5415 155.336H38.4717L42.5513 166H41.1011ZM40.918 162.052V163.209H34.9268V162.052H40.918ZM48.5352 164.169V158.075H49.8975V166H48.6011L48.5352 164.169ZM48.7915 162.499L49.3555 162.484C49.3555 163.012 49.2993 163.5 49.187 163.949C49.0796 164.394 48.9038 164.779 48.6597 165.106C48.4155 165.434 48.0957 165.69 47.7002 165.875C47.3047 166.056 46.8237 166.146 46.2573 166.146C45.8716 166.146 45.5176 166.09 45.1953 165.978C44.8779 165.866 44.6045 165.692 44.375 165.458C44.1455 165.224 43.9673 164.918 43.8403 164.542C43.7183 164.167 43.6572 163.715 43.6572 163.188V158.075H45.0122V163.202C45.0122 163.559 45.0513 163.854 45.1294 164.088C45.2124 164.318 45.3223 164.501 45.459 164.638C45.6006 164.77 45.7568 164.862 45.9277 164.916C46.1035 164.97 46.2842 164.997 46.4697 164.997C47.0459 164.997 47.5024 164.887 47.8394 164.667C48.1763 164.442 48.418 164.142 48.5645 163.766C48.7158 163.385 48.7915 162.963 48.7915 162.499ZM55.2808 158.075V159.115H50.9961V158.075H55.2808ZM52.4463 156.149H53.8013V164.037C53.8013 164.306 53.8428 164.508 53.9258 164.645C54.0088 164.782 54.1162 164.872 54.248 164.916C54.3799 164.96 54.5215 164.982 54.6729 164.982C54.7852 164.982 54.9023 164.972 55.0244 164.953C55.1514 164.928 55.2466 164.909 55.3101 164.894L55.3174 166C55.21 166.034 55.0684 166.066 54.8926 166.095C54.7217 166.129 54.5142 166.146 54.27 166.146C53.938 166.146 53.6328 166.081 53.3545 165.949C53.0762 165.817 52.854 165.597 52.688 165.29C52.5269 164.977 52.4463 164.557 52.4463 164.03V156.149ZM56.3647 162.125V161.957C56.3647 161.386 56.4478 160.856 56.6138 160.368C56.7798 159.875 57.019 159.447 57.3315 159.086C57.644 158.72 58.0225 158.437 58.4668 158.236C58.9111 158.031 59.4092 157.929 59.9609 157.929C60.5176 157.929 61.0181 158.031 61.4624 158.236C61.9116 158.437 62.2925 158.72 62.605 159.086C62.9224 159.447 63.1641 159.875 63.3301 160.368C63.4961 160.856 63.5791 161.386 63.5791 161.957V162.125C63.5791 162.697 63.4961 163.227 63.3301 163.715C63.1641 164.203 62.9224 164.63 62.605 164.997C62.2925 165.358 61.9141 165.641 61.4697 165.846C61.0303 166.046 60.5322 166.146 59.9756 166.146C59.4189 166.146 58.9185 166.046 58.4741 165.846C58.0298 165.641 57.6489 165.358 57.3315 164.997C57.019 164.63 56.7798 164.203 56.6138 163.715C56.4478 163.227 56.3647 162.697 56.3647 162.125ZM57.7197 161.957V162.125C57.7197 162.521 57.7661 162.895 57.8589 163.246C57.9517 163.593 58.0908 163.9 58.2764 164.169C58.4668 164.438 58.7036 164.65 58.9868 164.806C59.27 164.958 59.5996 165.033 59.9756 165.033C60.3467 165.033 60.6714 164.958 60.9497 164.806C61.2329 164.65 61.4673 164.438 61.6528 164.169C61.8384 163.9 61.9775 163.593 62.0703 163.246C62.168 162.895 62.2168 162.521 62.2168 162.125V161.957C62.2168 161.566 62.168 161.198 62.0703 160.851C61.9775 160.5 61.8359 160.189 61.6455 159.921C61.46 159.647 61.2256 159.433 60.9424 159.276C60.6641 159.12 60.3369 159.042 59.9609 159.042C59.5898 159.042 59.2627 159.12 58.9795 159.276C58.7012 159.433 58.4668 159.647 58.2764 159.921C58.0908 160.189 57.9517 160.5 57.8589 160.851C57.7661 161.198 57.7197 161.566 57.7197 161.957ZM66.626 159.65V166H65.2637V158.075H66.5527L66.626 159.65ZM66.3477 161.737L65.7178 161.715C65.7227 161.173 65.7935 160.673 65.9302 160.214C66.0669 159.75 66.2695 159.347 66.5381 159.005C66.8066 158.664 67.1411 158.4 67.5415 158.214C67.9419 158.024 68.4058 157.929 68.9331 157.929C69.3042 157.929 69.646 157.982 69.9585 158.09C70.271 158.192 70.542 158.356 70.7715 158.581C71.001 158.805 71.1792 159.093 71.3062 159.445C71.4331 159.796 71.4966 160.221 71.4966 160.719V166H70.1416V160.785C70.1416 160.37 70.0708 160.038 69.9292 159.789C69.7925 159.54 69.5972 159.359 69.3433 159.247C69.0894 159.13 68.7915 159.071 68.4497 159.071C68.0493 159.071 67.7148 159.142 67.4463 159.284C67.1777 159.425 66.9629 159.621 66.8018 159.87C66.6406 160.119 66.5234 160.404 66.4502 160.727C66.3818 161.044 66.3477 161.381 66.3477 161.737ZM71.4819 160.99L70.5737 161.269C70.5786 160.834 70.6494 160.417 70.7861 160.016C70.9277 159.616 71.1304 159.259 71.394 158.947C71.6626 158.634 71.9922 158.388 72.3828 158.207C72.7734 158.021 73.2202 157.929 73.7231 157.929C74.1479 157.929 74.5239 157.985 74.8511 158.097C75.1831 158.209 75.4614 158.383 75.686 158.617C75.9155 158.847 76.0889 159.142 76.2061 159.503C76.3232 159.865 76.3818 160.294 76.3818 160.792V166H75.0195V160.778C75.0195 160.333 74.9487 159.989 74.8071 159.745C74.6704 159.496 74.4751 159.323 74.2212 159.225C73.9722 159.123 73.6743 159.071 73.3276 159.071C73.0298 159.071 72.7661 159.123 72.5366 159.225C72.3071 159.328 72.1143 159.469 71.958 159.65C71.8018 159.826 71.6821 160.028 71.5991 160.258C71.521 160.487 71.4819 160.731 71.4819 160.99ZM83.1055 164.645V160.565C83.1055 160.253 83.042 159.982 82.915 159.752C82.793 159.518 82.6074 159.337 82.3584 159.21C82.1094 159.083 81.8018 159.02 81.4355 159.02C81.0938 159.02 80.7935 159.079 80.5347 159.196C80.2808 159.313 80.0806 159.467 79.9341 159.657C79.7925 159.848 79.7217 160.053 79.7217 160.272H78.3667C78.3667 159.989 78.4399 159.708 78.5864 159.43C78.7329 159.152 78.9429 158.9 79.2163 158.676C79.4946 158.446 79.8267 158.266 80.2124 158.134C80.603 157.997 81.0376 157.929 81.5161 157.929C82.0923 157.929 82.6001 158.026 83.0396 158.222C83.4839 158.417 83.8306 158.712 84.0796 159.108C84.3335 159.499 84.4604 159.989 84.4604 160.58V164.271C84.4604 164.535 84.4824 164.816 84.5264 165.114C84.5752 165.412 84.646 165.668 84.7388 165.883V166H83.3252C83.2568 165.844 83.2031 165.636 83.1641 165.377C83.125 165.114 83.1055 164.87 83.1055 164.645ZM83.3398 161.195L83.3545 162.147H81.9849C81.5991 162.147 81.2549 162.179 80.9521 162.243C80.6494 162.301 80.3955 162.392 80.1904 162.514C79.9854 162.636 79.8291 162.79 79.7217 162.975C79.6143 163.156 79.5605 163.368 79.5605 163.612C79.5605 163.861 79.6167 164.088 79.729 164.293C79.8413 164.499 80.0098 164.662 80.2344 164.784C80.4639 164.901 80.7446 164.96 81.0767 164.96C81.4917 164.96 81.8579 164.872 82.1753 164.696C82.4927 164.521 82.7441 164.306 82.9297 164.052C83.1201 163.798 83.2227 163.551 83.2373 163.312L83.8159 163.964C83.7817 164.169 83.689 164.396 83.5376 164.645C83.3862 164.894 83.1836 165.133 82.9297 165.363C82.6807 165.587 82.3828 165.775 82.0361 165.927C81.6943 166.073 81.3086 166.146 80.8789 166.146C80.3418 166.146 79.8706 166.042 79.4653 165.832C79.0649 165.622 78.7524 165.341 78.5278 164.989C78.3081 164.633 78.1982 164.235 78.1982 163.795C78.1982 163.371 78.2812 162.997 78.4473 162.675C78.6133 162.348 78.8525 162.077 79.165 161.862C79.4775 161.642 79.8535 161.476 80.293 161.364C80.7324 161.251 81.2231 161.195 81.7651 161.195H83.3398ZM89.9097 158.075V159.115H85.625V158.075H89.9097ZM87.0752 156.149H88.4302V164.037C88.4302 164.306 88.4717 164.508 88.5547 164.645C88.6377 164.782 88.7451 164.872 88.877 164.916C89.0088 164.96 89.1504 164.982 89.3018 164.982C89.4141 164.982 89.5312 164.972 89.6533 164.953C89.7803 164.928 89.8755 164.909 89.939 164.894L89.9463 166C89.8389 166.034 89.6973 166.066 89.5215 166.095C89.3506 166.129 89.1431 166.146 88.8989 166.146C88.5669 166.146 88.2617 166.081 87.9834 165.949C87.7051 165.817 87.4829 165.597 87.3169 165.29C87.1558 164.977 87.0752 164.557 87.0752 164.03V156.149ZM94.7876 166.146C94.2358 166.146 93.7354 166.054 93.2861 165.868C92.8418 165.678 92.4585 165.412 92.1362 165.07C91.8188 164.728 91.5747 164.323 91.4038 163.854C91.2329 163.385 91.1475 162.873 91.1475 162.316V162.008C91.1475 161.364 91.2427 160.79 91.4331 160.287C91.6235 159.779 91.8823 159.35 92.2095 158.998C92.5366 158.646 92.9077 158.38 93.3228 158.2C93.7378 158.019 94.1675 157.929 94.6118 157.929C95.1782 157.929 95.6665 158.026 96.0767 158.222C96.4917 158.417 96.8311 158.69 97.0947 159.042C97.3584 159.389 97.5537 159.799 97.6807 160.272C97.8076 160.741 97.8711 161.254 97.8711 161.811V162.418H91.9531V161.312H96.5161V161.21C96.4966 160.858 96.4233 160.517 96.2964 160.185C96.1743 159.853 95.979 159.579 95.7104 159.364C95.4419 159.149 95.0757 159.042 94.6118 159.042C94.3042 159.042 94.021 159.108 93.7622 159.24C93.5034 159.367 93.2812 159.557 93.0957 159.811C92.9102 160.065 92.7661 160.375 92.6636 160.741C92.561 161.107 92.5098 161.53 92.5098 162.008V162.316C92.5098 162.692 92.561 163.046 92.6636 163.378C92.771 163.705 92.9248 163.993 93.125 164.242C93.3301 164.491 93.5767 164.687 93.8647 164.828C94.1577 164.97 94.4897 165.041 94.8608 165.041C95.3394 165.041 95.7446 164.943 96.0767 164.748C96.4087 164.552 96.6992 164.291 96.9482 163.964L97.7686 164.616C97.5977 164.875 97.3804 165.121 97.1167 165.355C96.853 165.59 96.5283 165.78 96.1426 165.927C95.7617 166.073 95.3101 166.146 94.7876 166.146ZM103.826 155.336H105.195L108.689 164.03L112.175 155.336H113.552L109.216 166H108.147L103.826 155.336ZM103.379 155.336H104.587L104.785 161.84V166H103.379V155.336ZM112.783 155.336H113.992V166H112.585V161.84L112.783 155.336ZM122.942 164.85V166H117.61V164.85H122.942ZM117.888 155.336V166H116.475V155.336H117.888ZM52.6001 185.594L54.6362 179.075H55.5298L55.354 180.372L53.2812 187H52.4097L52.6001 185.594ZM51.2305 179.075L52.9663 185.667L53.0908 187H52.1753L49.8755 179.075H51.2305ZM57.478 185.616L59.1333 179.075H60.481L58.1812 187H57.2729L57.478 185.616ZM55.7275 179.075L57.7197 185.484L57.9468 187H57.0825L54.9512 180.357L54.7754 179.075H55.7275ZM61.5137 183.125V182.957C61.5137 182.386 61.5967 181.856 61.7627 181.368C61.9287 180.875 62.168 180.447 62.4805 180.086C62.793 179.72 63.1714 179.437 63.6157 179.236C64.0601 179.031 64.5581 178.929 65.1099 178.929C65.6665 178.929 66.167 179.031 66.6113 179.236C67.0605 179.437 67.4414 179.72 67.7539 180.086C68.0713 180.447 68.313 180.875 68.479 181.368C68.645 181.856 68.728 182.386 68.728 182.957V183.125C68.728 183.697 68.645 184.227 68.479 184.715C68.313 185.203 68.0713 185.63 67.7539 185.997C67.4414 186.358 67.063 186.641 66.6187 186.846C66.1792 187.046 65.6812 187.146 65.1245 187.146C64.5679 187.146 64.0674 187.046 63.623 186.846C63.1787 186.641 62.7979 186.358 62.4805 185.997C62.168 185.63 61.9287 185.203 61.7627 184.715C61.5967 184.227 61.5137 183.697 61.5137 183.125ZM62.8687 182.957V183.125C62.8687 183.521 62.915 183.895 63.0078 184.246C63.1006 184.593 63.2397 184.9 63.4253 185.169C63.6157 185.438 63.8525 185.65 64.1357 185.806C64.4189 185.958 64.7485 186.033 65.1245 186.033C65.4956 186.033 65.8203 185.958 66.0986 185.806C66.3818 185.65 66.6162 185.438 66.8018 185.169C66.9873 184.9 67.1265 184.593 67.2192 184.246C67.3169 183.895 67.3657 183.521 67.3657 183.125V182.957C67.3657 182.566 67.3169 182.198 67.2192 181.851C67.1265 181.5 66.9849 181.189 66.7944 180.921C66.6089 180.647 66.3745 180.433 66.0913 180.276C65.813 180.12 65.4858 180.042 65.1099 180.042C64.7388 180.042 64.4116 180.12 64.1284 180.276C63.8501 180.433 63.6157 180.647 63.4253 180.921C63.2397 181.189 63.1006 181.5 63.0078 181.851C62.915 182.198 62.8687 182.566 62.8687 182.957ZM71.7822 180.32V187H70.4272V179.075H71.7456L71.7822 180.32ZM74.2578 179.031L74.2505 180.291C74.1382 180.267 74.0308 180.252 73.9282 180.247C73.8306 180.237 73.7183 180.232 73.5913 180.232C73.2788 180.232 73.0029 180.281 72.7637 180.379C72.5244 180.477 72.3218 180.613 72.1558 180.789C71.9897 180.965 71.8579 181.175 71.7603 181.419C71.6675 181.658 71.6064 181.922 71.5771 182.21L71.1963 182.43C71.1963 181.951 71.2427 181.502 71.3354 181.082C71.4331 180.662 71.582 180.291 71.7822 179.969C71.9824 179.642 72.2363 179.388 72.5439 179.207C72.8564 179.021 73.2275 178.929 73.6572 178.929C73.7549 178.929 73.8672 178.941 73.9941 178.965C74.1211 178.985 74.209 179.007 74.2578 179.031ZM76.8726 175.75V187H75.5103V175.75H76.8726ZM81.7139 179.075L78.2568 182.774L76.3232 184.781L76.2134 183.338L77.5977 181.683L80.0586 179.075H81.7139ZM80.4761 187L77.6489 183.221L78.3521 182.012L82.0728 187H80.4761ZM85.1343 187H83.7793V178.24C83.7793 177.669 83.8843 177.188 84.0942 176.797C84.3091 176.402 84.6167 176.104 85.0171 175.904C85.4224 175.699 85.9131 175.596 86.4893 175.596C86.7041 175.596 86.9727 175.618 87.2949 175.662C87.6221 175.706 87.9688 175.762 88.335 175.831C88.7061 175.899 89.0674 175.97 89.4189 176.043L88.7891 177.024C88.3252 176.937 87.9077 176.871 87.5366 176.827C87.1655 176.778 86.8506 176.753 86.5918 176.753C86.2744 176.753 86.0059 176.812 85.7861 176.929C85.5713 177.042 85.4077 177.208 85.2954 177.427C85.188 177.647 85.1343 177.918 85.1343 178.24V187ZM88.064 187V176.043H89.4189V187H88.064ZM86.8188 179.075V180.115H82.5269V179.075H86.8188ZM91.2793 183.125V182.957C91.2793 182.386 91.3623 181.856 91.5283 181.368C91.6943 180.875 91.9336 180.447 92.2461 180.086C92.5586 179.72 92.937 179.437 93.3813 179.236C93.8257 179.031 94.3237 178.929 94.8755 178.929C95.4321 178.929 95.9326 179.031 96.377 179.236C96.8262 179.437 97.207 179.72 97.5195 180.086C97.8369 180.447 98.0786 180.875 98.2446 181.368C98.4106 181.856 98.4937 182.386 98.4937 182.957V183.125C98.4937 183.697 98.4106 184.227 98.2446 184.715C98.0786 185.203 97.8369 185.63 97.5195 185.997C97.207 186.358 96.8286 186.641 96.3843 186.846C95.9448 187.046 95.4468 187.146 94.8901 187.146C94.3335 187.146 93.833 187.046 93.3887 186.846C92.9443 186.641 92.5635 186.358 92.2461 185.997C91.9336 185.63 91.6943 185.203 91.5283 184.715C91.3623 184.227 91.2793 183.697 91.2793 183.125ZM92.6343 182.957V183.125C92.6343 183.521 92.6807 183.895 92.7734 184.246C92.8662 184.593 93.0054 184.9 93.1909 185.169C93.3813 185.438 93.6182 185.65 93.9014 185.806C94.1846 185.958 94.5142 186.033 94.8901 186.033C95.2612 186.033 95.5859 185.958 95.8643 185.806C96.1475 185.65 96.3818 185.438 96.5674 185.169C96.7529 184.9 96.8921 184.593 96.9849 184.246C97.0825 183.895 97.1313 183.521 97.1313 183.125V182.957C97.1313 182.566 97.0825 182.198 96.9849 181.851C96.8921 181.5 96.7505 181.189 96.5601 180.921C96.3745 180.647 96.1401 180.433 95.8569 180.276C95.5786 180.12 95.2515 180.042 94.8755 180.042C94.5044 180.042 94.1772 180.12 93.894 180.276C93.6157 180.433 93.3813 180.647 93.1909 180.921C93.0054 181.189 92.8662 181.5 92.7734 181.851C92.6807 182.198 92.6343 182.566 92.6343 182.957ZM102.2 185.594L104.236 179.075H105.129L104.954 180.372L102.881 187H102.009L102.2 185.594ZM100.83 179.075L102.566 185.667L102.69 187H101.775L99.4751 179.075H100.83ZM107.078 185.616L108.733 179.075H110.081L107.781 187H106.873L107.078 185.616ZM105.327 179.075L107.319 185.484L107.546 187H106.682L104.551 180.357L104.375 179.075H105.327Z" fill="#4B4E52"/>
<path d="M79.25 1.01036C79.7141 0.742414 80.2859 0.742414 80.75 1.01036L120.319 23.8557C120.783 24.1236 121.069 24.6188 121.069 25.1547V70.8453C121.069 71.3812 120.783 71.8764 120.319 72.1443L80.75 94.9896C80.2859 95.2576 79.7141 95.2576 79.25 94.9896L39.6808 72.1443C39.2167 71.8764 38.9308 71.3812 38.9308 70.8453V25.1547C38.9308 24.6188 39.2167 24.1236 39.6808 23.8557L79.25 1.01036Z" stroke="#E6E6E6"/>
<path fill-rule="evenodd" clip-rule="evenodd" d="M71.9565 35.2476C63.9346 43.2621 61.5453 51.3611 61.2159 54.3617C61.2193 55.1326 61.6348 55.8814 62.2044 56.4559L71.5632 65.8061C72.1255 66.3626 72.8865 66.7648 73.6441 66.7785C76.6331 66.4638 84.8256 64.1339 92.791 56.063C106.838 41.7094 104.547 31.0734 100.756 27.2879C96.9661 23.5025 86.1618 21.0553 71.9565 35.2476ZM94.2918 40.4268C92.4459 42.2711 89.4529 42.2711 87.607 40.4268C85.761 38.5826 85.761 35.5924 87.607 33.7481C89.4529 31.9038 92.4451 31.903 94.2911 33.7473C96.137 35.5916 96.1378 38.5826 94.2918 40.4268Z" fill="#2684F1"/>
<path d="M90.8878 60.4887C85.8597 64.8651 81.1409 66.9718 77.7157 67.9841C78.6108 70.3104 80.2003 74.4339 81.0382 76.6075C81.283 77.2422 82.1239 77.3695 82.5474 76.8371L89.1032 68.5949C91.1764 66.2313 90.9752 63.3994 90.8878 60.4887Z" fill="#2684F1"/>
<path d="M60.0694 50.3252C61.1024 46.9195 63.2233 42.2123 67.5724 37.1497C64.6451 37.0623 61.7911 36.8499 59.4134 38.9316L51.1655 45.4806C50.6324 45.9039 50.7599 46.7457 51.3951 46.9903C53.5832 47.8327 57.7441 49.434 60.0694 50.3252Z" fill="#2684F1"/>
</svg>
