<svg width="160" height="212" viewBox="0 0 160 212" fill="none" xmlns="http://www.w3.org/2000/svg">
<path d="M79 16.5774C79.6188 16.2201 80.3812 16.2201 81 16.5774L120.569 39.4226C121.188 39.7799 121.569 40.4402 121.569 41.1547V86.8453C121.569 87.5598 121.188 88.2201 120.569 88.5774L81 111.423C80.3812 111.78 79.6188 111.78 79 111.423L39.4308 88.5774C38.812 88.2201 38.4308 87.5598 38.4308 86.8453V41.1547C38.4308 40.4402 38.812 39.7799 39.4308 39.4226L79 16.5774Z" fill="#F6F6F6"/>
<path fill-rule="evenodd" clip-rule="evenodd" d="M72.7231 53.6897C65.5838 60.8225 63.4574 68.0305 63.1642 70.7009C62.6901 75.0194 69.9039 82.2067 74.225 81.7517C76.8852 81.4715 84.1763 79.398 91.2654 72.215C103.767 59.4407 101.728 49.9748 98.3544 46.6058C94.9811 43.2369 85.3655 41.0589 72.7231 53.6897ZM92.6011 58.2992C90.9582 59.9406 88.2946 59.9406 86.6517 58.2992C85.0088 56.6578 85.0088 53.9966 86.6517 52.3552C88.2946 50.7139 90.9575 50.7132 92.6004 52.3546C94.2433 53.9959 94.244 56.6578 92.6011 58.2992Z" fill="url(#paint0_linear_3944_24516)"/>
<path d="M89.5715 76.1538C85.0967 80.0488 80.897 81.9237 77.8487 82.8246C78.6453 84.895 80.0599 88.5648 80.8057 90.4993C81.0234 91.0642 81.7719 91.1774 82.1487 90.7036C87.7153 87.723 89.7628 82.5227 89.5715 76.1538Z" fill="url(#paint1_linear_3944_24516)"/>
<path d="M62.1438 67.1086C63.0632 64.0776 64.9507 59.8882 68.8213 55.3826C62.4242 55.1916 57.2273 57.2154 54.2195 62.7969C53.9321 63.3303 53.8585 63.9229 54.4239 64.1405C56.3712 64.8903 60.0743 66.3154 62.1438 67.1086Z" fill="url(#paint2_linear_3944_24516)"/>
<path d="M57.6465 141.057V143H50.5078V141.057H57.6465ZM51.1914 128.781V143H48.7402V128.781H51.1914ZM65.2637 140.881V135.842C65.2637 135.464 65.1953 135.139 65.0586 134.865C64.9219 134.592 64.7135 134.38 64.4336 134.23C64.1602 134.081 63.8151 134.006 63.3984 134.006C63.0143 134.006 62.6823 134.071 62.4023 134.201C62.1224 134.331 61.9043 134.507 61.748 134.729C61.5918 134.95 61.5137 135.201 61.5137 135.48H59.1699C59.1699 135.064 59.2708 134.66 59.4727 134.27C59.6745 133.879 59.9674 133.531 60.3516 133.225C60.7357 132.919 61.1947 132.678 61.7285 132.502C62.2624 132.326 62.8613 132.238 63.5254 132.238C64.3197 132.238 65.0228 132.372 65.6348 132.639C66.2533 132.906 66.7383 133.309 67.0898 133.85C67.4479 134.383 67.627 135.054 67.627 135.861V140.559C67.627 141.04 67.6595 141.473 67.7246 141.857C67.7962 142.235 67.8971 142.564 68.0273 142.844V143H65.6152C65.5046 142.746 65.4167 142.424 65.3516 142.033C65.293 141.636 65.2637 141.252 65.2637 140.881ZM65.6055 136.574L65.625 138.029H63.9355C63.4993 138.029 63.1152 138.072 62.7832 138.156C62.4512 138.234 62.1745 138.352 61.9531 138.508C61.7318 138.664 61.5658 138.853 61.4551 139.074C61.3444 139.296 61.2891 139.546 61.2891 139.826C61.2891 140.106 61.3542 140.363 61.4844 140.598C61.6146 140.826 61.8034 141.005 62.0508 141.135C62.3047 141.265 62.6107 141.33 62.9688 141.33C63.4505 141.33 63.8704 141.232 64.2285 141.037C64.5931 140.835 64.8796 140.591 65.0879 140.305C65.2962 140.012 65.4069 139.735 65.4199 139.475L66.1816 140.52C66.1035 140.786 65.9701 141.073 65.7812 141.379C65.5924 141.685 65.3451 141.978 65.0391 142.258C64.7396 142.531 64.3783 142.756 63.9551 142.932C63.5384 143.107 63.0566 143.195 62.5098 143.195C61.8197 143.195 61.2044 143.059 60.6641 142.785C60.1237 142.505 59.7005 142.131 59.3945 141.662C59.0885 141.187 58.9355 140.65 58.9355 140.051C58.9355 139.491 59.0397 138.996 59.248 138.566C59.4629 138.13 59.7754 137.766 60.1855 137.473C60.6022 137.18 61.11 136.958 61.709 136.809C62.3079 136.652 62.9915 136.574 63.7598 136.574H65.6055ZM76.4453 140.51V132.434H78.8086V143H76.582L76.4453 140.51ZM76.7773 138.312L77.5684 138.293C77.5684 139.003 77.4902 139.657 77.334 140.256C77.1777 140.848 76.9368 141.366 76.6113 141.809C76.2858 142.245 75.8691 142.587 75.3613 142.834C74.8535 143.075 74.2448 143.195 73.5352 143.195C73.0208 143.195 72.5488 143.12 72.1191 142.971C71.6895 142.821 71.3184 142.59 71.0059 142.277C70.6999 141.965 70.4622 141.558 70.293 141.057C70.1237 140.555 70.0391 139.956 70.0391 139.26V132.434H72.3926V139.279C72.3926 139.663 72.4382 139.986 72.5293 140.246C72.6204 140.5 72.7441 140.705 72.9004 140.861C73.0566 141.018 73.2389 141.128 73.4473 141.193C73.6556 141.258 73.877 141.291 74.1113 141.291C74.7819 141.291 75.3092 141.161 75.6934 140.9C76.084 140.633 76.3607 140.275 76.5234 139.826C76.6927 139.377 76.7773 138.872 76.7773 138.312ZM83.5547 134.689V143H81.2012V132.434H83.418L83.5547 134.689ZM83.1348 137.326L82.373 137.316C82.3796 136.568 82.4837 135.881 82.6855 135.256C82.8939 134.631 83.1803 134.094 83.5449 133.645C83.916 133.195 84.3587 132.85 84.873 132.609C85.3874 132.362 85.9603 132.238 86.5918 132.238C87.0996 132.238 87.5586 132.31 87.9688 132.453C88.3854 132.59 88.7402 132.814 89.0332 133.127C89.3327 133.439 89.5605 133.846 89.7168 134.348C89.873 134.842 89.9512 135.451 89.9512 136.174V143H87.5879V136.164C87.5879 135.656 87.513 135.256 87.3633 134.963C87.2201 134.663 87.0085 134.452 86.7285 134.328C86.4551 134.198 86.1133 134.133 85.7031 134.133C85.2995 134.133 84.9382 134.217 84.6191 134.387C84.3001 134.556 84.0299 134.787 83.8086 135.08C83.5938 135.373 83.4277 135.712 83.3105 136.096C83.1934 136.48 83.1348 136.89 83.1348 137.326ZM96.6699 141.32C97.054 141.32 97.3991 141.245 97.7051 141.096C98.0176 140.939 98.2682 140.725 98.457 140.451C98.6523 140.178 98.7598 139.862 98.7793 139.504H100.996C100.983 140.188 100.781 140.809 100.391 141.369C100 141.929 99.4824 142.375 98.8379 142.707C98.1934 143.033 97.4805 143.195 96.6992 143.195C95.8919 143.195 95.1888 143.059 94.5898 142.785C93.9909 142.505 93.4928 142.121 93.0957 141.633C92.6986 141.145 92.3991 140.581 92.1973 139.943C92.002 139.305 91.9043 138.622 91.9043 137.893V137.551C91.9043 136.822 92.002 136.138 92.1973 135.5C92.3991 134.855 92.6986 134.289 93.0957 133.801C93.4928 133.312 93.9909 132.932 94.5898 132.658C95.1888 132.378 95.8887 132.238 96.6895 132.238C97.5358 132.238 98.278 132.408 98.916 132.746C99.554 133.078 100.055 133.544 100.42 134.143C100.791 134.735 100.983 135.425 100.996 136.213H98.7793C98.7598 135.822 98.6621 135.471 98.4863 135.158C98.3171 134.839 98.0762 134.585 97.7637 134.396C97.4577 134.208 97.0898 134.113 96.6602 134.113C96.1849 134.113 95.791 134.211 95.4785 134.406C95.166 134.595 94.9219 134.855 94.7461 135.188C94.5703 135.513 94.4434 135.881 94.3652 136.291C94.2936 136.695 94.2578 137.115 94.2578 137.551V137.893C94.2578 138.329 94.2936 138.752 94.3652 139.162C94.4368 139.572 94.5605 139.94 94.7363 140.266C94.9186 140.585 95.166 140.842 95.4785 141.037C95.791 141.226 96.1882 141.32 96.6699 141.32ZM105.127 128V143H102.783V128H105.127ZM104.717 137.326L103.955 137.316C103.962 136.587 104.062 135.913 104.258 135.295C104.46 134.676 104.74 134.139 105.098 133.684C105.462 133.221 105.898 132.867 106.406 132.619C106.914 132.365 107.477 132.238 108.096 132.238C108.617 132.238 109.085 132.31 109.502 132.453C109.925 132.596 110.29 132.827 110.596 133.146C110.902 133.459 111.133 133.869 111.289 134.377C111.452 134.878 111.533 135.49 111.533 136.213V143H109.17V136.193C109.17 135.686 109.095 135.282 108.945 134.982C108.802 134.683 108.59 134.468 108.311 134.338C108.031 134.201 107.689 134.133 107.285 134.133C106.862 134.133 106.488 134.217 106.162 134.387C105.843 134.556 105.576 134.787 105.361 135.08C105.146 135.373 104.984 135.712 104.873 136.096C104.769 136.48 104.717 136.89 104.717 137.326Z" fill="#33373D"/>
<path d="M41.541 159.047H42.8193L46.0801 167.161L49.334 159.047H50.6191L46.5723 169H45.5742L41.541 159.047ZM41.124 159.047H42.252L42.4365 165.117V169H41.124V159.047ZM49.9014 159.047H51.0293V169H49.7168V165.117L49.9014 159.047ZM59.3828 167.927V169H54.4062V167.927H59.3828ZM54.666 159.047V169H53.3467V159.047H54.666ZM66.0479 167.688L67.9482 161.604H68.7822L68.6182 162.813L66.6836 169H65.8701L66.0479 167.688ZM64.7695 161.604L66.3896 167.756L66.5059 169H65.6514L63.5049 161.604H64.7695ZM70.6006 167.708L72.1455 161.604H73.4033L71.2568 169H70.4092L70.6006 167.708ZM68.9668 161.604L70.8262 167.585L71.0381 169H70.2314L68.2422 162.8L68.0781 161.604H68.9668ZM74.3672 165.384V165.227C74.3672 164.693 74.4447 164.199 74.5996 163.743C74.7546 163.283 74.9779 162.884 75.2695 162.547C75.5612 162.205 75.9144 161.941 76.3291 161.754C76.7438 161.562 77.2087 161.467 77.7236 161.467C78.2432 161.467 78.7103 161.562 79.125 161.754C79.5443 161.941 79.8997 162.205 80.1914 162.547C80.4876 162.884 80.7132 163.283 80.8682 163.743C81.0231 164.199 81.1006 164.693 81.1006 165.227V165.384C81.1006 165.917 81.0231 166.411 80.8682 166.867C80.7132 167.323 80.4876 167.722 80.1914 168.063C79.8997 168.401 79.5465 168.665 79.1318 168.856C78.7217 169.043 78.2568 169.137 77.7373 169.137C77.2178 169.137 76.7507 169.043 76.3359 168.856C75.9212 168.665 75.5658 168.401 75.2695 168.063C74.9779 167.722 74.7546 167.323 74.5996 166.867C74.4447 166.411 74.3672 165.917 74.3672 165.384ZM75.6318 165.227V165.384C75.6318 165.753 75.6751 166.102 75.7617 166.43C75.8483 166.753 75.9782 167.04 76.1514 167.291C76.3291 167.542 76.5501 167.74 76.8145 167.886C77.0788 168.027 77.3864 168.098 77.7373 168.098C78.0837 168.098 78.3867 168.027 78.6465 167.886C78.9108 167.74 79.1296 167.542 79.3027 167.291C79.4759 167.04 79.6058 166.753 79.6924 166.43C79.7835 166.102 79.8291 165.753 79.8291 165.384V165.227C79.8291 164.862 79.7835 164.518 79.6924 164.194C79.6058 163.866 79.4736 163.577 79.2959 163.326C79.1227 163.071 78.904 162.87 78.6396 162.725C78.3799 162.579 78.0745 162.506 77.7236 162.506C77.3773 162.506 77.0719 162.579 76.8076 162.725C76.5479 162.87 76.3291 163.071 76.1514 163.326C75.9782 163.577 75.8483 163.866 75.7617 164.194C75.6751 164.518 75.6318 164.862 75.6318 165.227ZM83.9512 162.766V169H82.6865V161.604H83.917L83.9512 162.766ZM86.2617 161.562L86.2549 162.738C86.1501 162.715 86.0498 162.702 85.9541 162.697C85.863 162.688 85.7581 162.684 85.6396 162.684C85.348 162.684 85.0905 162.729 84.8672 162.82C84.6439 162.911 84.4548 163.039 84.2998 163.203C84.1449 163.367 84.0218 163.563 83.9307 163.791C83.8441 164.014 83.7871 164.26 83.7598 164.529L83.4043 164.734C83.4043 164.288 83.4476 163.868 83.5342 163.477C83.6253 163.085 83.7643 162.738 83.9512 162.438C84.138 162.132 84.375 161.895 84.6621 161.727C84.9538 161.553 85.3001 161.467 85.7012 161.467C85.7923 161.467 85.8971 161.478 86.0156 161.501C86.1341 161.519 86.2161 161.54 86.2617 161.562ZM88.7021 158.5V169H87.4307V158.5H88.7021ZM93.2207 161.604L89.9941 165.056L88.1895 166.929L88.0869 165.582L89.3789 164.037L91.6758 161.604H93.2207ZM92.0654 169L89.4268 165.473L90.083 164.345L93.5557 169H92.0654ZM96.4131 169H95.1484V160.824C95.1484 160.291 95.2464 159.842 95.4424 159.478C95.6429 159.108 95.93 158.83 96.3037 158.644C96.682 158.452 97.14 158.356 97.6777 158.356C97.8783 158.356 98.1289 158.377 98.4297 158.418C98.735 158.459 99.0586 158.511 99.4004 158.575C99.7467 158.639 100.084 158.705 100.412 158.773L99.8242 159.689C99.3913 159.607 99.0016 159.546 98.6553 159.505C98.3089 159.459 98.015 159.437 97.7734 159.437C97.4772 159.437 97.2266 159.491 97.0215 159.601C96.821 159.705 96.6683 159.86 96.5635 160.065C96.4632 160.271 96.4131 160.523 96.4131 160.824V169ZM99.1475 169V158.773H100.412V169H99.1475ZM97.9854 161.604V162.574H93.9795V161.604H97.9854ZM102.148 165.384V165.227C102.148 164.693 102.226 164.199 102.381 163.743C102.536 163.283 102.759 162.884 103.051 162.547C103.342 162.205 103.696 161.941 104.11 161.754C104.525 161.562 104.99 161.467 105.505 161.467C106.024 161.467 106.492 161.562 106.906 161.754C107.326 161.941 107.681 162.205 107.973 162.547C108.269 162.884 108.494 163.283 108.649 163.743C108.804 164.199 108.882 164.693 108.882 165.227V165.384C108.882 165.917 108.804 166.411 108.649 166.867C108.494 167.323 108.269 167.722 107.973 168.063C107.681 168.401 107.328 168.665 106.913 168.856C106.503 169.043 106.038 169.137 105.519 169.137C104.999 169.137 104.532 169.043 104.117 168.856C103.702 168.665 103.347 168.401 103.051 168.063C102.759 167.722 102.536 167.323 102.381 166.867C102.226 166.411 102.148 165.917 102.148 165.384ZM103.413 165.227V165.384C103.413 165.753 103.456 166.102 103.543 166.43C103.63 166.753 103.759 167.04 103.933 167.291C104.11 167.542 104.331 167.74 104.596 167.886C104.86 168.027 105.168 168.098 105.519 168.098C105.865 168.098 106.168 168.027 106.428 167.886C106.692 167.74 106.911 167.542 107.084 167.291C107.257 167.04 107.387 166.753 107.474 166.43C107.565 166.102 107.61 165.753 107.61 165.384V165.227C107.61 164.862 107.565 164.518 107.474 164.194C107.387 163.866 107.255 163.577 107.077 163.326C106.904 163.071 106.685 162.87 106.421 162.725C106.161 162.579 105.856 162.506 105.505 162.506C105.159 162.506 104.853 162.579 104.589 162.725C104.329 162.87 104.11 163.071 103.933 163.326C103.759 163.577 103.63 163.866 103.543 164.194C103.456 164.518 103.413 164.862 103.413 165.227ZM112.341 167.688L114.241 161.604H115.075L114.911 162.813L112.977 169H112.163L112.341 167.688ZM111.062 161.604L112.683 167.756L112.799 169H111.944L109.798 161.604H111.062ZM116.894 167.708L118.438 161.604H119.696L117.55 169H116.702L116.894 167.708ZM115.26 161.604L117.119 167.585L117.331 169H116.524L114.535 162.8L114.371 161.604H115.26ZM48.4385 179.929L45.1436 189H43.7969L47.5908 179.047H48.459L48.4385 179.929ZM51.2002 189L47.8984 179.929L47.8779 179.047H48.7461L52.5537 189H51.2002ZM51.0293 185.315V186.396H45.4375V185.315H51.0293ZM58.1387 187.291V181.604H59.4102V189H58.2002L58.1387 187.291ZM58.3779 185.732L58.9043 185.719C58.9043 186.211 58.8519 186.667 58.7471 187.086C58.6468 187.501 58.4827 187.861 58.2549 188.166C58.027 188.471 57.7285 188.711 57.3594 188.884C56.9902 189.052 56.5413 189.137 56.0127 189.137C55.6527 189.137 55.3223 189.084 55.0215 188.979C54.7253 188.875 54.4701 188.713 54.2559 188.494C54.0417 188.275 53.8753 187.991 53.7568 187.64C53.6429 187.289 53.5859 186.867 53.5859 186.375V181.604H54.8506V186.389C54.8506 186.721 54.887 186.997 54.96 187.216C55.0374 187.43 55.14 187.601 55.2676 187.729C55.3997 187.852 55.5456 187.938 55.7051 187.988C55.8691 188.038 56.0378 188.063 56.2109 188.063C56.7487 188.063 57.1748 187.961 57.4893 187.756C57.8037 187.546 58.0293 187.266 58.166 186.915C58.3073 186.56 58.3779 186.165 58.3779 185.732ZM64.4346 181.604V182.574H60.4355V181.604H64.4346ZM61.7891 179.806H63.0537V187.168C63.0537 187.419 63.0924 187.608 63.1699 187.735C63.2474 187.863 63.3477 187.947 63.4707 187.988C63.5938 188.029 63.7259 188.05 63.8672 188.05C63.972 188.05 64.0814 188.041 64.1953 188.022C64.3138 188 64.4027 187.981 64.4619 187.968L64.4688 189C64.3685 189.032 64.2363 189.062 64.0723 189.089C63.9128 189.121 63.7191 189.137 63.4912 189.137C63.1813 189.137 62.8965 189.075 62.6367 188.952C62.377 188.829 62.1696 188.624 62.0146 188.337C61.8643 188.045 61.7891 187.653 61.7891 187.161V179.806ZM65.4463 185.384V185.227C65.4463 184.693 65.5238 184.199 65.6787 183.743C65.8337 183.283 66.057 182.884 66.3486 182.547C66.6403 182.205 66.9935 181.941 67.4082 181.754C67.8229 181.562 68.2878 181.467 68.8027 181.467C69.3223 181.467 69.7894 181.562 70.2041 181.754C70.6234 181.941 70.9788 182.205 71.2705 182.547C71.5667 182.884 71.7923 183.283 71.9473 183.743C72.1022 184.199 72.1797 184.693 72.1797 185.227V185.384C72.1797 185.917 72.1022 186.411 71.9473 186.867C71.7923 187.323 71.5667 187.722 71.2705 188.063C70.9788 188.401 70.6257 188.665 70.2109 188.856C69.8008 189.043 69.3359 189.137 68.8164 189.137C68.2969 189.137 67.8298 189.043 67.415 188.856C67.0003 188.665 66.6449 188.401 66.3486 188.063C66.057 187.722 65.8337 187.323 65.6787 186.867C65.5238 186.411 65.4463 185.917 65.4463 185.384ZM66.7109 185.227V185.384C66.7109 185.753 66.7542 186.102 66.8408 186.43C66.9274 186.753 67.0573 187.04 67.2305 187.291C67.4082 187.542 67.6292 187.74 67.8936 187.886C68.1579 188.027 68.4655 188.098 68.8164 188.098C69.1628 188.098 69.4658 188.027 69.7256 187.886C69.9899 187.74 70.2087 187.542 70.3818 187.291C70.555 187.04 70.6849 186.753 70.7715 186.43C70.8626 186.102 70.9082 185.753 70.9082 185.384V185.227C70.9082 184.862 70.8626 184.518 70.7715 184.194C70.6849 183.866 70.5527 183.577 70.375 183.326C70.2018 183.071 69.9831 182.87 69.7188 182.725C69.459 182.579 69.1536 182.506 68.8027 182.506C68.4564 182.506 68.151 182.579 67.8867 182.725C67.627 182.87 67.4082 183.071 67.2305 183.326C67.0573 183.577 66.9274 183.866 66.8408 184.194C66.7542 184.518 66.7109 184.862 66.7109 185.227ZM75.0234 183.073V189H73.752V181.604H74.9551L75.0234 183.073ZM74.7637 185.021L74.1758 185.001C74.1803 184.495 74.2464 184.028 74.374 183.6C74.5016 183.167 74.6908 182.791 74.9414 182.472C75.1921 182.153 75.5042 181.907 75.8779 181.733C76.2516 181.556 76.6846 181.467 77.1768 181.467C77.5231 181.467 77.8421 181.517 78.1338 181.617C78.4255 181.713 78.6784 181.866 78.8926 182.075C79.1068 182.285 79.2731 182.554 79.3916 182.882C79.5101 183.21 79.5693 183.606 79.5693 184.071V189H78.3047V184.133C78.3047 183.745 78.2386 183.436 78.1064 183.203C77.9788 182.971 77.7965 182.802 77.5596 182.697C77.3226 182.588 77.0446 182.533 76.7256 182.533C76.3519 182.533 76.0397 182.599 75.7891 182.731C75.5384 182.864 75.3379 183.046 75.1875 183.278C75.0371 183.511 74.9277 183.777 74.8594 184.078C74.7956 184.374 74.7637 184.689 74.7637 185.021ZM79.5557 184.324L78.708 184.584C78.7126 184.178 78.7786 183.789 78.9062 183.415C79.0384 183.041 79.2275 182.709 79.4736 182.417C79.7243 182.125 80.0319 181.895 80.3965 181.727C80.7611 181.553 81.1781 181.467 81.6475 181.467C82.0439 181.467 82.3949 181.519 82.7002 181.624C83.0101 181.729 83.2699 181.891 83.4795 182.109C83.6937 182.324 83.8555 182.599 83.9648 182.937C84.0742 183.274 84.1289 183.675 84.1289 184.14V189H82.8574V184.126C82.8574 183.711 82.7913 183.39 82.6592 183.162C82.5316 182.93 82.3493 182.768 82.1123 182.677C81.8799 182.581 81.6019 182.533 81.2783 182.533C81.0003 182.533 80.7542 182.581 80.54 182.677C80.3258 182.772 80.1458 182.905 80 183.073C79.8542 183.237 79.7425 183.426 79.665 183.641C79.5921 183.855 79.5557 184.083 79.5557 184.324ZM90.4043 187.735V183.928C90.4043 183.636 90.3451 183.383 90.2266 183.169C90.1126 182.95 89.9395 182.782 89.707 182.663C89.4746 182.545 89.1875 182.485 88.8457 182.485C88.5267 182.485 88.2464 182.54 88.0049 182.649C87.7679 182.759 87.5811 182.902 87.4443 183.08C87.3122 183.258 87.2461 183.449 87.2461 183.654H85.9814C85.9814 183.39 86.0498 183.128 86.1865 182.868C86.3232 182.608 86.5192 182.374 86.7744 182.164C87.0342 181.95 87.3441 181.781 87.7041 181.658C88.0687 181.531 88.4743 181.467 88.9209 181.467C89.4587 181.467 89.9326 181.558 90.3428 181.74C90.7575 181.923 91.0811 182.198 91.3135 182.567C91.5505 182.932 91.6689 183.39 91.6689 183.941V187.387C91.6689 187.633 91.6895 187.895 91.7305 188.173C91.776 188.451 91.8421 188.69 91.9287 188.891V189H90.6094C90.5456 188.854 90.4954 188.66 90.459 188.419C90.4225 188.173 90.4043 187.945 90.4043 187.735ZM90.623 184.516L90.6367 185.404H89.3584C88.9984 185.404 88.6771 185.434 88.3945 185.493C88.112 185.548 87.875 185.632 87.6836 185.746C87.4922 185.86 87.3464 186.004 87.2461 186.177C87.1458 186.345 87.0957 186.544 87.0957 186.771C87.0957 187.004 87.1481 187.216 87.2529 187.407C87.3577 187.599 87.515 187.751 87.7246 187.865C87.9388 187.975 88.2008 188.029 88.5107 188.029C88.8981 188.029 89.2399 187.947 89.5361 187.783C89.8324 187.619 90.0671 187.419 90.2402 187.182C90.418 186.945 90.5137 186.715 90.5273 186.491L91.0674 187.1C91.0355 187.291 90.9489 187.503 90.8076 187.735C90.6663 187.968 90.4772 188.191 90.2402 188.405C90.0078 188.615 89.7298 188.79 89.4062 188.932C89.0872 189.068 88.7272 189.137 88.3262 189.137C87.8249 189.137 87.3851 189.039 87.0068 188.843C86.6331 188.647 86.3415 188.385 86.1318 188.057C85.9268 187.724 85.8242 187.353 85.8242 186.942C85.8242 186.546 85.9017 186.197 86.0566 185.896C86.2116 185.591 86.4349 185.338 86.7266 185.138C87.0182 184.933 87.3691 184.778 87.7793 184.673C88.1895 184.568 88.6475 184.516 89.1533 184.516H90.623ZM96.7549 181.604V182.574H92.7559V181.604H96.7549ZM94.1094 179.806H95.374V187.168C95.374 187.419 95.4128 187.608 95.4902 187.735C95.5677 187.863 95.668 187.947 95.791 187.988C95.9141 188.029 96.0462 188.05 96.1875 188.05C96.2923 188.05 96.4017 188.041 96.5156 188.022C96.6341 188 96.723 187.981 96.7822 187.968L96.7891 189C96.6888 189.032 96.5566 189.062 96.3926 189.089C96.2331 189.121 96.0394 189.137 95.8115 189.137C95.5016 189.137 95.2168 189.075 94.957 188.952C94.6973 188.829 94.4899 188.624 94.335 188.337C94.1846 188.045 94.1094 187.653 94.1094 187.161V179.806ZM99.6123 181.604V189H98.3408V181.604H99.6123ZM98.2451 179.642C98.2451 179.437 98.3066 179.263 98.4297 179.122C98.5573 178.981 98.7441 178.91 98.9902 178.91C99.2318 178.91 99.4163 178.981 99.5439 179.122C99.6761 179.263 99.7422 179.437 99.7422 179.642C99.7422 179.838 99.6761 180.006 99.5439 180.147C99.4163 180.284 99.2318 180.353 98.9902 180.353C98.7441 180.353 98.5573 180.284 98.4297 180.147C98.3066 180.006 98.2451 179.838 98.2451 179.642ZM101.308 185.384V185.227C101.308 184.693 101.385 184.199 101.54 183.743C101.695 183.283 101.918 182.884 102.21 182.547C102.502 182.205 102.855 181.941 103.27 181.754C103.684 181.562 104.149 181.467 104.664 181.467C105.184 181.467 105.651 181.562 106.065 181.754C106.485 181.941 106.84 182.205 107.132 182.547C107.428 182.884 107.654 183.283 107.809 183.743C107.964 184.199 108.041 184.693 108.041 185.227V185.384C108.041 185.917 107.964 186.411 107.809 186.867C107.654 187.323 107.428 187.722 107.132 188.063C106.84 188.401 106.487 188.665 106.072 188.856C105.662 189.043 105.197 189.137 104.678 189.137C104.158 189.137 103.691 189.043 103.276 188.856C102.862 188.665 102.506 188.401 102.21 188.063C101.918 187.722 101.695 187.323 101.54 186.867C101.385 186.411 101.308 185.917 101.308 185.384ZM102.572 185.227V185.384C102.572 185.753 102.616 186.102 102.702 186.43C102.789 186.753 102.919 187.04 103.092 187.291C103.27 187.542 103.491 187.74 103.755 187.886C104.019 188.027 104.327 188.098 104.678 188.098C105.024 188.098 105.327 188.027 105.587 187.886C105.851 187.74 106.07 187.542 106.243 187.291C106.416 187.04 106.546 186.753 106.633 186.43C106.724 186.102 106.77 185.753 106.77 185.384V185.227C106.77 184.862 106.724 184.518 106.633 184.194C106.546 183.866 106.414 183.577 106.236 183.326C106.063 183.071 105.844 182.87 105.58 182.725C105.32 182.579 105.015 182.506 104.664 182.506C104.318 182.506 104.012 182.579 103.748 182.725C103.488 182.87 103.27 183.071 103.092 183.326C102.919 183.577 102.789 183.866 102.702 184.194C102.616 184.518 102.572 184.862 102.572 185.227ZM110.892 183.183V189H109.627V181.604H110.823L110.892 183.183ZM110.591 185.021L110.064 185.001C110.069 184.495 110.144 184.028 110.29 183.6C110.436 183.167 110.641 182.791 110.905 182.472C111.17 182.153 111.484 181.907 111.849 181.733C112.218 181.556 112.626 181.467 113.072 181.467C113.437 181.467 113.765 181.517 114.057 181.617C114.348 181.713 114.597 181.868 114.802 182.082C115.011 182.296 115.171 182.574 115.28 182.916C115.39 183.253 115.444 183.666 115.444 184.153V189H114.173V184.14C114.173 183.752 114.116 183.442 114.002 183.21C113.888 182.973 113.722 182.802 113.503 182.697C113.284 182.588 113.015 182.533 112.696 182.533C112.382 182.533 112.095 182.599 111.835 182.731C111.58 182.864 111.359 183.046 111.172 183.278C110.99 183.511 110.846 183.777 110.741 184.078C110.641 184.374 110.591 184.689 110.591 185.021Z" fill="#949699"/>
<defs>
<linearGradient id="paint0_linear_3944_24516" x1="89.1907" y1="29.43" x2="77.2802" y2="162.481" gradientUnits="userSpaceOnUse">
<stop offset="0.1975" stop-color="#FFB666"/>
<stop offset="0.95505" stop-color="#FF0E65"/>
</linearGradient>
<linearGradient id="paint1_linear_3944_24516" x1="89.1907" y1="29.43" x2="77.2802" y2="162.481" gradientUnits="userSpaceOnUse">
<stop offset="0.1975" stop-color="#FFB666"/>
<stop offset="0.95505" stop-color="#FF0E65"/>
</linearGradient>
<linearGradient id="paint2_linear_3944_24516" x1="89.1907" y1="29.43" x2="77.2802" y2="162.481" gradientUnits="userSpaceOnUse">
<stop offset="0.1975" stop-color="#FFB666"/>
<stop offset="0.95505" stop-color="#FF0E65"/>
</linearGradient>
</defs>
</svg>
