<svg width="160" height="212" viewBox="0 0 160 212" fill="none" xmlns="http://www.w3.org/2000/svg">
<path d="M79 16.5774C79.6188 16.2201 80.3812 16.2201 81 16.5774L120.569 39.4226C121.188 39.7799 121.569 40.4402 121.569 41.1547V86.8453C121.569 87.5598 121.188 88.2201 120.569 88.5774L81 111.423C80.3812 111.78 79.6188 111.78 79 111.423L39.4308 88.5774C38.812 88.2201 38.4308 87.5598 38.4308 86.8453V41.1547C38.4308 40.4402 38.812 39.7799 39.4308 39.4226L79 16.5774Z" fill="#F6F6F6"/>
<path d="M88 45.6C88 50.0183 84.4183 53.6 80 53.6C75.5817 53.6 72 50.0183 72 45.6C72 41.1817 75.5817 37.6 80 37.6C84.4183 37.6 88 41.1817 88 45.6Z" fill="url(#paint0_linear_3944_24523)"/>
<path d="M88 82.4C88 86.8183 84.4183 90.4 80 90.4C75.5817 90.4 72 86.8183 72 82.4C72 77.9817 75.5817 74.4 80 74.4C84.4183 74.4 88 77.9817 88 82.4Z" fill="url(#paint1_linear_3944_24523)"/>
<path d="M61.6 72C66.0183 72 69.6 68.4183 69.6 64C69.6 59.5817 66.0183 56 61.6 56C57.1817 56 53.6 59.5817 53.6 64C53.6 68.4183 57.1817 72 61.6 72Z" fill="url(#paint2_linear_3944_24523)"/>
<path d="M106.4 64C106.4 68.4183 102.818 72 98.4 72C93.9817 72 90.4 68.4183 90.4 64C90.4 59.5817 93.9817 56 98.4 56C102.818 56 106.4 59.5817 106.4 64Z" fill="url(#paint3_linear_3944_24523)"/>
<path d="M74.1657 53.3657C74.3219 53.5219 74.3219 53.7751 74.1657 53.9314L69.9314 58.1657C69.7752 58.3219 69.5219 58.3219 69.3657 58.1657L68.2343 57.0343C68.0781 56.8781 68.0781 56.6248 68.2343 56.4686L72.4686 52.2343C72.6248 52.0781 72.8781 52.0781 73.0343 52.2343L74.1657 53.3657Z" fill="url(#paint4_linear_3944_24523)"/>
<path d="M88.4 64.8C88.4 65.0209 88.2209 65.2 88 65.2H72C71.7791 65.2 71.6 65.0209 71.6 64.8V63.2C71.6 62.9791 71.7791 62.8 72 62.8H88C88.2209 62.8 88.4 62.9791 88.4 63.2V64.8Z" fill="url(#paint5_linear_3944_24523)"/>
<path d="M87.5314 75.7657C87.3752 75.9219 87.1219 75.9219 86.9657 75.7657L85.8343 74.6343C85.6781 74.4781 85.6781 74.2248 85.8343 74.0686L90.0686 69.8343C90.2248 69.6781 90.4781 69.6781 90.6343 69.8343L91.7657 70.9657C91.9219 71.1219 91.9219 71.3751 91.7657 71.5314L87.5314 75.7657Z" fill="url(#paint6_linear_3944_24523)"/>
<path d="M85.8343 53.3657C85.6781 53.5219 85.6781 53.7751 85.8343 53.9314L90.0687 58.1657C90.2249 58.3219 90.4781 58.3219 90.6343 58.1657L91.7657 57.0343C91.9219 56.8781 91.9219 56.6248 91.7657 56.4686L87.5314 52.2343C87.3752 52.0781 87.1219 52.0781 86.9657 52.2343L85.8343 53.3657Z" fill="url(#paint7_linear_3944_24523)"/>
<path d="M72.4687 75.7657C72.6249 75.9219 72.8781 75.9219 73.0343 75.7657L74.1657 74.6343C74.3219 74.4781 74.3219 74.2248 74.1657 74.0686L69.9314 69.8343C69.7752 69.6781 69.5219 69.6781 69.3657 69.8343L68.2343 70.9657C68.0781 71.1219 68.0781 71.3751 68.2343 71.5314L72.4687 75.7657Z" fill="url(#paint8_linear_3944_24523)"/>
<path d="M49.3262 128.781H51.5137L55.625 139.748L59.7266 128.781H61.9141L56.4844 143H54.7461L49.3262 128.781ZM48.3301 128.781H50.4102L50.7715 138.273V143H48.3301V128.781ZM60.8301 128.781H62.9199V143H60.4688V138.273L60.8301 128.781ZM65.1465 137.834V137.609C65.1465 136.848 65.2572 136.141 65.4785 135.49C65.6999 134.833 66.0189 134.263 66.4355 133.781C66.8587 133.293 67.373 132.915 67.9785 132.648C68.5905 132.375 69.2806 132.238 70.0488 132.238C70.8236 132.238 71.5137 132.375 72.1191 132.648C72.7311 132.915 73.2487 133.293 73.6719 133.781C74.0951 134.263 74.4173 134.833 74.6387 135.49C74.86 136.141 74.9707 136.848 74.9707 137.609V137.834C74.9707 138.596 74.86 139.302 74.6387 139.953C74.4173 140.604 74.0951 141.174 73.6719 141.662C73.2487 142.144 72.7344 142.521 72.1289 142.795C71.5234 143.062 70.8366 143.195 70.0684 143.195C69.2936 143.195 68.6003 143.062 67.9883 142.795C67.3828 142.521 66.8685 142.144 66.4453 141.662C66.0221 141.174 65.6999 140.604 65.4785 139.953C65.2572 139.302 65.1465 138.596 65.1465 137.834ZM67.5 137.609V137.834C67.5 138.309 67.5488 138.758 67.6465 139.182C67.7441 139.605 67.8971 139.976 68.1055 140.295C68.3138 140.614 68.5807 140.865 68.9062 141.047C69.2318 141.229 69.6191 141.32 70.0684 141.32C70.5046 141.32 70.8822 141.229 71.2012 141.047C71.5267 140.865 71.7936 140.614 72.002 140.295C72.2103 139.976 72.3633 139.605 72.4609 139.182C72.5651 138.758 72.6172 138.309 72.6172 137.834V137.609C72.6172 137.141 72.5651 136.698 72.4609 136.281C72.3633 135.858 72.207 135.484 71.9922 135.158C71.7839 134.833 71.5169 134.579 71.1914 134.396C70.8724 134.208 70.4915 134.113 70.0488 134.113C69.6061 134.113 69.222 134.208 68.8965 134.396C68.5775 134.579 68.3138 134.833 68.1055 135.158C67.8971 135.484 67.7441 135.858 67.6465 136.281C67.5488 136.698 67.5 137.141 67.5 137.609ZM83.3887 140.812V128H85.752V143H83.6133L83.3887 140.812ZM76.5137 137.834V137.629C76.5137 136.828 76.6081 136.099 76.7969 135.441C76.9857 134.777 77.2591 134.208 77.6172 133.732C77.9753 133.251 78.4115 132.883 78.9258 132.629C79.4401 132.368 80.0195 132.238 80.6641 132.238C81.3021 132.238 81.862 132.362 82.3438 132.609C82.8255 132.857 83.2357 133.212 83.5742 133.674C83.9128 134.13 84.1829 134.676 84.3848 135.314C84.5866 135.946 84.7298 136.649 84.8145 137.424V138.078C84.7298 138.833 84.5866 139.523 84.3848 140.148C84.1829 140.773 83.9128 141.314 83.5742 141.77C83.2357 142.225 82.8223 142.577 82.334 142.824C81.8522 143.072 81.2891 143.195 80.6445 143.195C80.0065 143.195 79.4303 143.062 78.916 142.795C78.4082 142.528 77.9753 142.154 77.6172 141.672C77.2591 141.19 76.9857 140.624 76.7969 139.973C76.6081 139.315 76.5137 138.602 76.5137 137.834ZM78.8672 137.629V137.834C78.8672 138.316 78.9095 138.765 78.9941 139.182C79.0853 139.598 79.2253 139.966 79.4141 140.285C79.6029 140.598 79.847 140.845 80.1465 141.027C80.4525 141.203 80.8171 141.291 81.2402 141.291C81.7741 141.291 82.2135 141.174 82.5586 140.939C82.9036 140.705 83.1738 140.389 83.3691 139.992C83.571 139.589 83.7077 139.139 83.7793 138.645V136.877C83.7402 136.493 83.6589 136.135 83.5352 135.803C83.418 135.471 83.2585 135.181 83.0566 134.934C82.8548 134.68 82.6042 134.484 82.3047 134.348C82.0117 134.204 81.6634 134.133 81.2598 134.133C80.8301 134.133 80.4655 134.224 80.166 134.406C79.8665 134.589 79.6191 134.839 79.4238 135.158C79.235 135.477 79.0951 135.848 79.0039 136.271C78.9128 136.695 78.8672 137.147 78.8672 137.629ZM92.8711 143.195C92.0898 143.195 91.3835 143.068 90.752 142.814C90.127 142.554 89.5931 142.193 89.1504 141.73C88.7142 141.268 88.3789 140.725 88.1445 140.1C87.9102 139.475 87.793 138.801 87.793 138.078V137.688C87.793 136.861 87.9134 136.112 88.1543 135.441C88.3952 134.771 88.7305 134.198 89.1602 133.723C89.5898 133.241 90.0977 132.873 90.6836 132.619C91.2695 132.365 91.9043 132.238 92.5879 132.238C93.3431 132.238 94.0039 132.365 94.5703 132.619C95.1367 132.873 95.6055 133.231 95.9766 133.693C96.3542 134.149 96.6341 134.693 96.8164 135.324C97.0052 135.956 97.0996 136.652 97.0996 137.414V138.42H88.9355V136.73H94.7754V136.545C94.7624 136.122 94.6777 135.725 94.5215 135.354C94.3717 134.982 94.1406 134.683 93.8281 134.455C93.5156 134.227 93.099 134.113 92.5781 134.113C92.1875 134.113 91.8392 134.198 91.5332 134.367C91.2337 134.53 90.9831 134.768 90.7812 135.08C90.5794 135.393 90.4232 135.77 90.3125 136.213C90.2083 136.649 90.1562 137.141 90.1562 137.688V138.078C90.1562 138.54 90.2181 138.97 90.3418 139.367C90.472 139.758 90.6608 140.1 90.9082 140.393C91.1556 140.686 91.4551 140.917 91.8066 141.086C92.1582 141.249 92.5586 141.33 93.0078 141.33C93.5742 141.33 94.0788 141.216 94.5215 140.988C94.9642 140.76 95.3483 140.438 95.6738 140.021L96.9141 141.223C96.6862 141.555 96.39 141.874 96.0254 142.18C95.6608 142.479 95.2148 142.723 94.6875 142.912C94.1667 143.101 93.5612 143.195 92.8711 143.195ZM101.455 128V143H99.0918V128H101.455ZM109.961 140.139C109.961 139.904 109.902 139.693 109.785 139.504C109.668 139.309 109.443 139.133 109.111 138.977C108.786 138.82 108.304 138.677 107.666 138.547C107.106 138.423 106.592 138.277 106.123 138.107C105.661 137.932 105.264 137.72 104.932 137.473C104.6 137.225 104.342 136.932 104.16 136.594C103.978 136.255 103.887 135.865 103.887 135.422C103.887 134.992 103.981 134.585 104.17 134.201C104.359 133.817 104.629 133.479 104.98 133.186C105.332 132.893 105.758 132.661 106.26 132.492C106.768 132.323 107.334 132.238 107.959 132.238C108.844 132.238 109.603 132.388 110.234 132.688C110.872 132.98 111.361 133.381 111.699 133.889C112.038 134.39 112.207 134.956 112.207 135.588H109.854C109.854 135.308 109.782 135.048 109.639 134.807C109.502 134.559 109.294 134.361 109.014 134.211C108.734 134.055 108.382 133.977 107.959 133.977C107.555 133.977 107.22 134.042 106.953 134.172C106.693 134.296 106.497 134.458 106.367 134.66C106.243 134.862 106.182 135.083 106.182 135.324C106.182 135.5 106.214 135.66 106.279 135.803C106.351 135.939 106.468 136.066 106.631 136.184C106.794 136.294 107.015 136.398 107.295 136.496C107.581 136.594 107.939 136.688 108.369 136.779C109.176 136.949 109.87 137.167 110.449 137.434C111.035 137.694 111.484 138.033 111.797 138.449C112.109 138.859 112.266 139.38 112.266 140.012C112.266 140.48 112.165 140.91 111.963 141.301C111.768 141.685 111.481 142.02 111.104 142.307C110.726 142.587 110.273 142.805 109.746 142.961C109.225 143.117 108.639 143.195 107.988 143.195C107.031 143.195 106.221 143.026 105.557 142.688C104.893 142.342 104.388 141.903 104.043 141.369C103.704 140.829 103.535 140.269 103.535 139.689H105.811C105.837 140.126 105.957 140.474 106.172 140.734C106.393 140.988 106.667 141.174 106.992 141.291C107.324 141.402 107.666 141.457 108.018 141.457C108.441 141.457 108.796 141.402 109.082 141.291C109.368 141.174 109.587 141.018 109.736 140.822C109.886 140.62 109.961 140.393 109.961 140.139Z" fill="#33373D"/>
<path d="M34.8896 159.047H36.168L39.4287 167.161L42.6826 159.047H43.9678L39.9209 169H38.9229L34.8896 159.047ZM34.4727 159.047H35.6006L35.7852 165.117V169H34.4727V159.047ZM43.25 159.047H44.3779V169H43.0654V165.117L43.25 159.047ZM46.1689 165.384V165.227C46.1689 164.693 46.2464 164.199 46.4014 163.743C46.5563 163.283 46.7796 162.884 47.0713 162.547C47.363 162.205 47.7161 161.941 48.1309 161.754C48.5456 161.562 49.0104 161.467 49.5254 161.467C50.0449 161.467 50.512 161.562 50.9268 161.754C51.346 161.941 51.7015 162.205 51.9932 162.547C52.2894 162.884 52.515 163.283 52.6699 163.743C52.8249 164.199 52.9023 164.693 52.9023 165.227V165.384C52.9023 165.917 52.8249 166.411 52.6699 166.867C52.515 167.323 52.2894 167.722 51.9932 168.063C51.7015 168.401 51.3483 168.665 50.9336 168.856C50.5234 169.043 50.0586 169.137 49.5391 169.137C49.0195 169.137 48.5524 169.043 48.1377 168.856C47.723 168.665 47.3675 168.401 47.0713 168.063C46.7796 167.722 46.5563 167.323 46.4014 166.867C46.2464 166.411 46.1689 165.917 46.1689 165.384ZM47.4336 165.227V165.384C47.4336 165.753 47.4769 166.102 47.5635 166.43C47.6501 166.753 47.7799 167.04 47.9531 167.291C48.1309 167.542 48.3519 167.74 48.6162 167.886C48.8805 168.027 49.1882 168.098 49.5391 168.098C49.8854 168.098 50.1885 168.027 50.4482 167.886C50.7126 167.74 50.9313 167.542 51.1045 167.291C51.2777 167.04 51.4076 166.753 51.4941 166.43C51.5853 166.102 51.6309 165.753 51.6309 165.384V165.227C51.6309 164.862 51.5853 164.518 51.4941 164.194C51.4076 163.866 51.2754 163.577 51.0977 163.326C50.9245 163.071 50.7057 162.87 50.4414 162.725C50.1816 162.579 49.8763 162.506 49.5254 162.506C49.179 162.506 48.8737 162.579 48.6094 162.725C48.3496 162.87 48.1309 163.071 47.9531 163.326C47.7799 163.577 47.6501 163.866 47.5635 164.194C47.4769 164.518 47.4336 164.862 47.4336 165.227ZM59.1504 167.564V158.5H60.4219V169H59.2598L59.1504 167.564ZM54.1738 165.384V165.24C54.1738 164.675 54.2422 164.162 54.3789 163.702C54.5202 163.237 54.7184 162.839 54.9736 162.506C55.2334 162.173 55.541 161.918 55.8965 161.74C56.2565 161.558 56.6576 161.467 57.0996 161.467C57.5645 161.467 57.9701 161.549 58.3164 161.713C58.6673 161.872 58.9635 162.107 59.2051 162.417C59.4512 162.722 59.6449 163.091 59.7861 163.524C59.9274 163.957 60.0254 164.447 60.0801 164.994V165.623C60.0299 166.165 59.932 166.653 59.7861 167.086C59.6449 167.519 59.4512 167.888 59.2051 168.193C58.9635 168.499 58.6673 168.733 58.3164 168.897C57.9655 169.057 57.5553 169.137 57.0859 169.137C56.653 169.137 56.2565 169.043 55.8965 168.856C55.541 168.67 55.2334 168.408 54.9736 168.07C54.7184 167.733 54.5202 167.337 54.3789 166.881C54.2422 166.421 54.1738 165.922 54.1738 165.384ZM55.4453 165.24V165.384C55.4453 165.753 55.4818 166.099 55.5547 166.423C55.6322 166.746 55.7507 167.031 55.9102 167.277C56.0697 167.523 56.2725 167.717 56.5186 167.858C56.7646 167.995 57.0586 168.063 57.4004 168.063C57.8197 168.063 58.1637 167.975 58.4326 167.797C58.7061 167.619 58.9248 167.384 59.0889 167.093C59.2529 166.801 59.3805 166.484 59.4717 166.143V164.495C59.417 164.244 59.3372 164.003 59.2324 163.771C59.1322 163.534 59 163.324 58.8359 163.142C58.6764 162.955 58.4782 162.807 58.2412 162.697C58.0088 162.588 57.7331 162.533 57.4141 162.533C57.0677 162.533 56.7692 162.606 56.5186 162.752C56.2725 162.893 56.0697 163.089 55.9102 163.34C55.7507 163.586 55.6322 163.873 55.5547 164.201C55.4818 164.525 55.4453 164.871 55.4453 165.24ZM65.46 169.137C64.945 169.137 64.4779 169.05 64.0586 168.877C63.6439 168.699 63.2861 168.451 62.9854 168.132C62.6891 167.813 62.4613 167.435 62.3018 166.997C62.1423 166.56 62.0625 166.081 62.0625 165.562V165.274C62.0625 164.673 62.1514 164.137 62.3291 163.668C62.5068 163.194 62.7484 162.793 63.0537 162.465C63.359 162.137 63.7054 161.888 64.0928 161.72C64.4801 161.551 64.8812 161.467 65.2959 161.467C65.8245 161.467 66.2803 161.558 66.6631 161.74C67.0505 161.923 67.3672 162.178 67.6133 162.506C67.8594 162.829 68.0417 163.212 68.1602 163.654C68.2786 164.092 68.3379 164.57 68.3379 165.09V165.657H62.8145V164.625H67.0732V164.529C67.055 164.201 66.9867 163.882 66.8682 163.572C66.7542 163.262 66.5719 163.007 66.3213 162.807C66.0706 162.606 65.7288 162.506 65.2959 162.506C65.0088 162.506 64.7445 162.567 64.5029 162.69C64.2614 162.809 64.054 162.987 63.8809 163.224C63.7077 163.461 63.5732 163.75 63.4775 164.092C63.3818 164.434 63.334 164.828 63.334 165.274V165.562C63.334 165.912 63.3818 166.243 63.4775 166.553C63.5778 166.858 63.7214 167.127 63.9082 167.359C64.0996 167.592 64.3298 167.774 64.5986 167.906C64.8721 168.038 65.182 168.104 65.5283 168.104C65.9749 168.104 66.3532 168.013 66.6631 167.831C66.973 167.649 67.2441 167.405 67.4766 167.1L68.2422 167.708C68.0827 167.95 67.8799 168.18 67.6338 168.398C67.3877 168.617 67.0846 168.795 66.7246 168.932C66.3691 169.068 65.9476 169.137 65.46 169.137ZM71.1885 158.5V169H69.917V158.5H71.1885ZM78.0654 158.5V169H76.7939V158.5H78.0654ZM81.4697 161.604V169H80.1982V161.604H81.4697ZM80.1025 159.642C80.1025 159.437 80.1641 159.263 80.2871 159.122C80.4147 158.981 80.6016 158.91 80.8477 158.91C81.0892 158.91 81.2738 158.981 81.4014 159.122C81.5335 159.263 81.5996 159.437 81.5996 159.642C81.5996 159.838 81.5335 160.006 81.4014 160.147C81.2738 160.284 81.0892 160.353 80.8477 160.353C80.6016 160.353 80.4147 160.284 80.2871 160.147C80.1641 160.006 80.1025 159.838 80.1025 159.642ZM85.3867 169H84.1221V160.824C84.1221 160.291 84.2178 159.842 84.4092 159.478C84.6051 159.108 84.8854 158.83 85.25 158.644C85.6146 158.452 86.0475 158.356 86.5488 158.356C86.6947 158.356 86.8405 158.366 86.9863 158.384C87.1367 158.402 87.2826 158.429 87.4238 158.466L87.3555 159.498C87.2598 159.475 87.1504 159.459 87.0273 159.45C86.9089 159.441 86.7904 159.437 86.6719 159.437C86.403 159.437 86.1706 159.491 85.9746 159.601C85.7832 159.705 85.6374 159.86 85.5371 160.065C85.4368 160.271 85.3867 160.523 85.3867 160.824V169ZM86.959 161.604V162.574H82.9531V161.604H86.959ZM91.2725 169.137C90.7575 169.137 90.2904 169.05 89.8711 168.877C89.4564 168.699 89.0986 168.451 88.7979 168.132C88.5016 167.813 88.2738 167.435 88.1143 166.997C87.9548 166.56 87.875 166.081 87.875 165.562V165.274C87.875 164.673 87.9639 164.137 88.1416 163.668C88.3193 163.194 88.5609 162.793 88.8662 162.465C89.1715 162.137 89.5179 161.888 89.9053 161.72C90.2926 161.551 90.6937 161.467 91.1084 161.467C91.637 161.467 92.0928 161.558 92.4756 161.74C92.863 161.923 93.1797 162.178 93.4258 162.506C93.6719 162.829 93.8542 163.212 93.9727 163.654C94.0911 164.092 94.1504 164.57 94.1504 165.09V165.657H88.627V164.625H92.8857V164.529C92.8675 164.201 92.7992 163.882 92.6807 163.572C92.5667 163.262 92.3844 163.007 92.1338 162.807C91.8831 162.606 91.5413 162.506 91.1084 162.506C90.8213 162.506 90.557 162.567 90.3154 162.69C90.0739 162.809 89.8665 162.987 89.6934 163.224C89.5202 163.461 89.3857 163.75 89.29 164.092C89.1943 164.434 89.1465 164.828 89.1465 165.274V165.562C89.1465 165.912 89.1943 166.243 89.29 166.553C89.3903 166.858 89.5339 167.127 89.7207 167.359C89.9121 167.592 90.1423 167.774 90.4111 167.906C90.6846 168.038 90.9945 168.104 91.3408 168.104C91.7874 168.104 92.1657 168.013 92.4756 167.831C92.7855 167.649 93.0566 167.405 93.2891 167.1L94.0547 167.708C93.8952 167.95 93.6924 168.18 93.4463 168.398C93.2002 168.617 92.8971 168.795 92.5371 168.932C92.1816 169.068 91.7601 169.137 91.2725 169.137ZM98.5869 168.098C98.8877 168.098 99.1657 168.036 99.4209 167.913C99.6761 167.79 99.8857 167.621 100.05 167.407C100.214 167.188 100.307 166.94 100.33 166.662H101.533C101.51 167.1 101.362 167.507 101.089 167.886C100.82 168.259 100.467 168.562 100.029 168.795C99.5918 169.023 99.111 169.137 98.5869 169.137C98.0309 169.137 97.5456 169.039 97.1309 168.843C96.7207 168.647 96.3789 168.378 96.1055 168.036C95.8366 167.694 95.6338 167.302 95.4971 166.86C95.3649 166.414 95.2988 165.942 95.2988 165.445V165.158C95.2988 164.661 95.3649 164.192 95.4971 163.75C95.6338 163.303 95.8366 162.909 96.1055 162.567C96.3789 162.226 96.7207 161.957 97.1309 161.761C97.5456 161.565 98.0309 161.467 98.5869 161.467C99.1657 161.467 99.6715 161.585 100.104 161.822C100.537 162.055 100.877 162.374 101.123 162.779C101.374 163.18 101.51 163.636 101.533 164.146H100.33C100.307 163.841 100.221 163.565 100.07 163.319C99.9245 163.073 99.724 162.877 99.4688 162.731C99.2181 162.581 98.9242 162.506 98.5869 162.506C98.1995 162.506 97.8737 162.583 97.6094 162.738C97.3496 162.889 97.1423 163.094 96.9873 163.354C96.8369 163.609 96.7275 163.894 96.6592 164.208C96.5954 164.518 96.5635 164.835 96.5635 165.158V165.445C96.5635 165.769 96.5954 166.088 96.6592 166.402C96.723 166.717 96.8301 167.002 96.9805 167.257C97.1354 167.512 97.3428 167.717 97.6025 167.872C97.8669 168.022 98.195 168.098 98.5869 168.098ZM105.033 168.234L107.091 161.604H108.444L105.478 170.142C105.409 170.324 105.318 170.52 105.204 170.729C105.095 170.944 104.953 171.146 104.78 171.338C104.607 171.529 104.397 171.684 104.151 171.803C103.91 171.926 103.62 171.987 103.283 171.987C103.183 171.987 103.055 171.974 102.9 171.946C102.745 171.919 102.636 171.896 102.572 171.878L102.565 170.853C102.602 170.857 102.659 170.862 102.736 170.866C102.818 170.875 102.875 170.88 102.907 170.88C103.194 170.88 103.438 170.841 103.639 170.764C103.839 170.691 104.008 170.565 104.145 170.388C104.286 170.215 104.407 169.975 104.507 169.67L105.033 168.234ZM103.522 161.604L105.443 167.346L105.771 168.679L104.862 169.144L102.142 161.604H103.522ZM112.45 168.098C112.751 168.098 113.029 168.036 113.284 167.913C113.539 167.79 113.749 167.621 113.913 167.407C114.077 167.188 114.171 166.94 114.193 166.662H115.396C115.374 167.1 115.226 167.507 114.952 167.886C114.683 168.259 114.33 168.562 113.893 168.795C113.455 169.023 112.974 169.137 112.45 169.137C111.894 169.137 111.409 169.039 110.994 168.843C110.584 168.647 110.242 168.378 109.969 168.036C109.7 167.694 109.497 167.302 109.36 166.86C109.228 166.414 109.162 165.942 109.162 165.445V165.158C109.162 164.661 109.228 164.192 109.36 163.75C109.497 163.303 109.7 162.909 109.969 162.567C110.242 162.226 110.584 161.957 110.994 161.761C111.409 161.565 111.894 161.467 112.45 161.467C113.029 161.467 113.535 161.585 113.968 161.822C114.401 162.055 114.74 162.374 114.986 162.779C115.237 163.18 115.374 163.636 115.396 164.146H114.193C114.171 163.841 114.084 163.565 113.934 163.319C113.788 163.073 113.587 162.877 113.332 162.731C113.081 162.581 112.787 162.506 112.45 162.506C112.063 162.506 111.737 162.583 111.473 162.738C111.213 162.889 111.006 163.094 110.851 163.354C110.7 163.609 110.591 163.894 110.522 164.208C110.459 164.518 110.427 164.835 110.427 165.158V165.445C110.427 165.769 110.459 166.088 110.522 166.402C110.586 166.717 110.693 167.002 110.844 167.257C110.999 167.512 111.206 167.717 111.466 167.872C111.73 168.022 112.058 168.098 112.45 168.098ZM118.192 158.5V169H116.921V158.5H118.192ZM123.292 169.137C122.777 169.137 122.31 169.05 121.891 168.877C121.476 168.699 121.118 168.451 120.817 168.132C120.521 167.813 120.293 167.435 120.134 166.997C119.974 166.56 119.895 166.081 119.895 165.562V165.274C119.895 164.673 119.983 164.137 120.161 163.668C120.339 163.194 120.58 162.793 120.886 162.465C121.191 162.137 121.537 161.888 121.925 161.72C122.312 161.551 122.713 161.467 123.128 161.467C123.657 161.467 124.112 161.558 124.495 161.74C124.882 161.923 125.199 162.178 125.445 162.506C125.691 162.829 125.874 163.212 125.992 163.654C126.111 164.092 126.17 164.57 126.17 165.09V165.657H120.646V164.625H124.905V164.529C124.887 164.201 124.819 163.882 124.7 163.572C124.586 163.262 124.404 163.007 124.153 162.807C123.903 162.606 123.561 162.506 123.128 162.506C122.841 162.506 122.576 162.567 122.335 162.69C122.093 162.809 121.886 162.987 121.713 163.224C121.54 163.461 121.405 163.75 121.31 164.092C121.214 164.434 121.166 164.828 121.166 165.274V165.562C121.166 165.912 121.214 166.243 121.31 166.553C121.41 166.858 121.553 167.127 121.74 167.359C121.932 167.592 122.162 167.774 122.431 167.906C122.704 168.038 123.014 168.104 123.36 168.104C123.807 168.104 124.185 168.013 124.495 167.831C124.805 167.649 125.076 167.405 125.309 167.1L126.074 167.708C125.915 167.95 125.712 168.18 125.466 168.398C125.22 168.617 124.917 168.795 124.557 168.932C124.201 169.068 123.78 169.137 123.292 169.137ZM40.9463 183.073V189H39.6748V181.604H40.8779L40.9463 183.073ZM40.6865 185.021L40.0986 185.001C40.1032 184.495 40.1693 184.028 40.2969 183.6C40.4245 183.167 40.6136 182.791 40.8643 182.472C41.1149 182.153 41.4271 181.907 41.8008 181.733C42.1745 181.556 42.6074 181.467 43.0996 181.467C43.446 181.467 43.765 181.517 44.0566 181.617C44.3483 181.713 44.6012 181.866 44.8154 182.075C45.0296 182.285 45.196 182.554 45.3145 182.882C45.4329 183.21 45.4922 183.606 45.4922 184.071V189H44.2275V184.133C44.2275 183.745 44.1615 183.436 44.0293 183.203C43.9017 182.971 43.7194 182.802 43.4824 182.697C43.2454 182.588 42.9674 182.533 42.6484 182.533C42.2747 182.533 41.9626 182.599 41.7119 182.731C41.4613 182.864 41.2607 183.046 41.1104 183.278C40.96 183.511 40.8506 183.777 40.7822 184.078C40.7184 184.374 40.6865 184.689 40.6865 185.021ZM45.4785 184.324L44.6309 184.584C44.6354 184.178 44.7015 183.789 44.8291 183.415C44.9613 183.041 45.1504 182.709 45.3965 182.417C45.6471 182.125 45.9548 181.895 46.3193 181.727C46.6839 181.553 47.1009 181.467 47.5703 181.467C47.9668 181.467 48.3177 181.519 48.623 181.624C48.9329 181.729 49.1927 181.891 49.4023 182.109C49.6165 182.324 49.7783 182.599 49.8877 182.937C49.9971 183.274 50.0518 183.675 50.0518 184.14V189H48.7803V184.126C48.7803 183.711 48.7142 183.39 48.582 183.162C48.4544 182.93 48.2721 182.768 48.0352 182.677C47.8027 182.581 47.5247 182.533 47.2012 182.533C46.9232 182.533 46.6771 182.581 46.4629 182.677C46.2487 182.772 46.0687 182.905 45.9229 183.073C45.777 183.237 45.6654 183.426 45.5879 183.641C45.515 183.855 45.4785 184.083 45.4785 184.324ZM56.3271 187.735V183.928C56.3271 183.636 56.2679 183.383 56.1494 183.169C56.0355 182.95 55.8623 182.782 55.6299 182.663C55.3975 182.545 55.1104 182.485 54.7686 182.485C54.4495 182.485 54.1693 182.54 53.9277 182.649C53.6908 182.759 53.5039 182.902 53.3672 183.08C53.235 183.258 53.1689 183.449 53.1689 183.654H51.9043C51.9043 183.39 51.9727 183.128 52.1094 182.868C52.2461 182.608 52.4421 182.374 52.6973 182.164C52.957 181.95 53.2669 181.781 53.627 181.658C53.9915 181.531 54.3971 181.467 54.8438 181.467C55.3815 181.467 55.8555 181.558 56.2656 181.74C56.6803 181.923 57.0039 182.198 57.2363 182.567C57.4733 182.932 57.5918 183.39 57.5918 183.941V187.387C57.5918 187.633 57.6123 187.895 57.6533 188.173C57.6989 188.451 57.765 188.69 57.8516 188.891V189H56.5322C56.4684 188.854 56.4183 188.66 56.3818 188.419C56.3454 188.173 56.3271 187.945 56.3271 187.735ZM56.5459 184.516L56.5596 185.404H55.2812C54.9212 185.404 54.5999 185.434 54.3174 185.493C54.0348 185.548 53.7979 185.632 53.6064 185.746C53.415 185.86 53.2692 186.004 53.1689 186.177C53.0687 186.345 53.0186 186.544 53.0186 186.771C53.0186 187.004 53.071 187.216 53.1758 187.407C53.2806 187.599 53.4378 187.751 53.6475 187.865C53.8617 187.975 54.1237 188.029 54.4336 188.029C54.821 188.029 55.1628 187.947 55.459 187.783C55.7552 187.619 55.9899 187.419 56.1631 187.182C56.3408 186.945 56.4365 186.715 56.4502 186.491L56.9902 187.1C56.9583 187.291 56.8717 187.503 56.7305 187.735C56.5892 187.968 56.4001 188.191 56.1631 188.405C55.9307 188.615 55.6527 188.79 55.3291 188.932C55.0101 189.068 54.6501 189.137 54.249 189.137C53.7477 189.137 53.3079 189.039 52.9297 188.843C52.556 188.647 52.2643 188.385 52.0547 188.057C51.8496 187.724 51.7471 187.353 51.7471 186.942C51.7471 186.546 51.8245 186.197 51.9795 185.896C52.1344 185.591 52.3577 185.338 52.6494 185.138C52.9411 184.933 53.292 184.778 53.7021 184.673C54.1123 184.568 54.5703 184.516 55.0762 184.516H56.5459ZM60.8457 183.183V189H59.5811V181.604H60.7773L60.8457 183.183ZM60.5449 185.021L60.0186 185.001C60.0231 184.495 60.0983 184.028 60.2441 183.6C60.39 183.167 60.5951 182.791 60.8594 182.472C61.1237 182.153 61.4382 181.907 61.8027 181.733C62.1719 181.556 62.5798 181.467 63.0264 181.467C63.391 181.467 63.7191 181.517 64.0107 181.617C64.3024 181.713 64.5508 181.868 64.7559 182.082C64.9655 182.296 65.125 182.574 65.2344 182.916C65.3438 183.253 65.3984 183.666 65.3984 184.153V189H64.127V184.14C64.127 183.752 64.07 183.442 63.9561 183.21C63.8421 182.973 63.6758 182.802 63.457 182.697C63.2383 182.588 62.9694 182.533 62.6504 182.533C62.3359 182.533 62.0488 182.599 61.7891 182.731C61.5339 182.864 61.3128 183.046 61.126 183.278C60.9437 183.511 60.8001 183.777 60.6953 184.078C60.5951 184.374 60.5449 184.689 60.5449 185.021ZM71.6807 187.735V183.928C71.6807 183.636 71.6214 183.383 71.5029 183.169C71.389 182.95 71.2158 182.782 70.9834 182.663C70.751 182.545 70.4639 182.485 70.1221 182.485C69.8031 182.485 69.5228 182.54 69.2812 182.649C69.0443 182.759 68.8574 182.902 68.7207 183.08C68.5885 183.258 68.5225 183.449 68.5225 183.654H67.2578C67.2578 183.39 67.3262 183.128 67.4629 182.868C67.5996 182.608 67.7956 182.374 68.0508 182.164C68.3105 181.95 68.6204 181.781 68.9805 181.658C69.3451 181.531 69.7507 181.467 70.1973 181.467C70.735 181.467 71.209 181.558 71.6191 181.74C72.0339 181.923 72.3574 182.198 72.5898 182.567C72.8268 182.932 72.9453 183.39 72.9453 183.941V187.387C72.9453 187.633 72.9658 187.895 73.0068 188.173C73.0524 188.451 73.1185 188.69 73.2051 188.891V189H71.8857C71.8219 188.854 71.7718 188.66 71.7354 188.419C71.6989 188.173 71.6807 187.945 71.6807 187.735ZM71.8994 184.516L71.9131 185.404H70.6348C70.2747 185.404 69.9535 185.434 69.6709 185.493C69.3883 185.548 69.1514 185.632 68.96 185.746C68.7686 185.86 68.6227 186.004 68.5225 186.177C68.4222 186.345 68.3721 186.544 68.3721 186.771C68.3721 187.004 68.4245 187.216 68.5293 187.407C68.6341 187.599 68.7913 187.751 69.001 187.865C69.2152 187.975 69.4772 188.029 69.7871 188.029C70.1745 188.029 70.5163 187.947 70.8125 187.783C71.1087 187.619 71.3434 187.419 71.5166 187.182C71.6943 186.945 71.79 186.715 71.8037 186.491L72.3438 187.1C72.3118 187.291 72.2253 187.503 72.084 187.735C71.9427 187.968 71.7536 188.191 71.5166 188.405C71.2842 188.615 71.0062 188.79 70.6826 188.932C70.3636 189.068 70.0036 189.137 69.6025 189.137C69.1012 189.137 68.6615 189.039 68.2832 188.843C67.9095 188.647 67.6178 188.385 67.4082 188.057C67.2031 187.724 67.1006 187.353 67.1006 186.942C67.1006 186.546 67.1781 186.197 67.333 185.896C67.488 185.591 67.7113 185.338 68.0029 185.138C68.2946 184.933 68.6455 184.778 69.0557 184.673C69.4658 184.568 69.9238 184.516 70.4297 184.516H71.8994ZM79.7266 181.604H80.875V188.843C80.875 189.494 80.7428 190.05 80.4785 190.511C80.2142 190.971 79.8451 191.32 79.3711 191.557C78.9017 191.798 78.3594 191.919 77.7441 191.919C77.4889 191.919 77.1882 191.878 76.8418 191.796C76.5 191.718 76.1628 191.584 75.8301 191.393C75.502 191.206 75.2262 190.953 75.0029 190.634L75.666 189.882C75.9759 190.256 76.2995 190.515 76.6367 190.661C76.9785 190.807 77.3158 190.88 77.6484 190.88C78.0495 190.88 78.3958 190.805 78.6875 190.654C78.9792 190.504 79.2048 190.281 79.3643 189.984C79.5283 189.693 79.6104 189.333 79.6104 188.904V183.23L79.7266 181.604ZM74.6338 185.384V185.24C74.6338 184.675 74.6999 184.162 74.832 183.702C74.9688 183.237 75.1624 182.839 75.4131 182.506C75.6683 182.173 75.9759 181.918 76.3359 181.74C76.696 181.558 77.1016 181.467 77.5527 181.467C78.0176 181.467 78.4232 181.549 78.7695 181.713C79.1204 181.872 79.4167 182.107 79.6582 182.417C79.9043 182.722 80.098 183.091 80.2393 183.524C80.3805 183.957 80.4785 184.447 80.5332 184.994V185.623C80.4831 186.165 80.3851 186.653 80.2393 187.086C80.098 187.519 79.9043 187.888 79.6582 188.193C79.4167 188.499 79.1204 188.733 78.7695 188.897C78.4186 189.057 78.0085 189.137 77.5391 189.137C77.097 189.137 76.696 189.043 76.3359 188.856C75.9805 188.67 75.6751 188.408 75.4199 188.07C75.1647 187.733 74.9688 187.337 74.832 186.881C74.6999 186.421 74.6338 185.922 74.6338 185.384ZM75.8984 185.24V185.384C75.8984 185.753 75.9349 186.099 76.0078 186.423C76.0853 186.746 76.2015 187.031 76.3564 187.277C76.516 187.523 76.7188 187.717 76.9648 187.858C77.2109 187.995 77.5049 188.063 77.8467 188.063C78.266 188.063 78.6123 187.975 78.8857 187.797C79.1592 187.619 79.3757 187.384 79.5352 187.093C79.6992 186.801 79.8268 186.484 79.918 186.143V184.495C79.8678 184.244 79.7904 184.003 79.6855 183.771C79.5853 183.534 79.4531 183.324 79.2891 183.142C79.1296 182.955 78.9313 182.807 78.6943 182.697C78.4574 182.588 78.1794 182.533 77.8604 182.533C77.514 182.533 77.2155 182.606 76.9648 182.752C76.7188 182.893 76.516 183.089 76.3564 183.34C76.2015 183.586 76.0853 183.873 76.0078 184.201C75.9349 184.525 75.8984 184.871 75.8984 185.24ZM85.8652 189.137C85.3503 189.137 84.8831 189.05 84.4639 188.877C84.0492 188.699 83.6914 188.451 83.3906 188.132C83.0944 187.813 82.8665 187.435 82.707 186.997C82.5475 186.56 82.4678 186.081 82.4678 185.562V185.274C82.4678 184.673 82.5566 184.137 82.7344 183.668C82.9121 183.194 83.1536 182.793 83.459 182.465C83.7643 182.137 84.1107 181.888 84.498 181.72C84.8854 181.551 85.2865 181.467 85.7012 181.467C86.2298 181.467 86.6855 181.558 87.0684 181.74C87.4557 181.923 87.7725 182.178 88.0186 182.506C88.2646 182.829 88.4469 183.212 88.5654 183.654C88.6839 184.092 88.7432 184.57 88.7432 185.09V185.657H83.2197V184.625H87.4785V184.529C87.4603 184.201 87.3919 183.882 87.2734 183.572C87.1595 183.262 86.9772 183.007 86.7266 182.807C86.4759 182.606 86.1341 182.506 85.7012 182.506C85.4141 182.506 85.1497 182.567 84.9082 182.69C84.6667 182.809 84.4593 182.987 84.2861 183.224C84.113 183.461 83.9785 183.75 83.8828 184.092C83.7871 184.434 83.7393 184.828 83.7393 185.274V185.562C83.7393 185.912 83.7871 186.243 83.8828 186.553C83.9831 186.858 84.1266 187.127 84.3135 187.359C84.5049 187.592 84.735 187.774 85.0039 187.906C85.2773 188.038 85.5872 188.104 85.9336 188.104C86.3802 188.104 86.7585 188.013 87.0684 187.831C87.3783 187.649 87.6494 187.405 87.8818 187.1L88.6475 187.708C88.488 187.95 88.2852 188.18 88.0391 188.398C87.793 188.617 87.4899 188.795 87.1299 188.932C86.7744 189.068 86.3529 189.137 85.8652 189.137ZM91.4775 183.073V189H90.2061V181.604H91.4092L91.4775 183.073ZM91.2178 185.021L90.6299 185.001C90.6344 184.495 90.7005 184.028 90.8281 183.6C90.9557 183.167 91.1449 182.791 91.3955 182.472C91.6462 182.153 91.9583 181.907 92.332 181.733C92.7057 181.556 93.1387 181.467 93.6309 181.467C93.9772 181.467 94.2962 181.517 94.5879 181.617C94.8796 181.713 95.1325 181.866 95.3467 182.075C95.5609 182.285 95.7272 182.554 95.8457 182.882C95.9642 183.21 96.0234 183.606 96.0234 184.071V189H94.7588V184.133C94.7588 183.745 94.6927 183.436 94.5605 183.203C94.4329 182.971 94.2507 182.802 94.0137 182.697C93.7767 182.588 93.4987 182.533 93.1797 182.533C92.806 182.533 92.4938 182.599 92.2432 182.731C91.9925 182.864 91.792 183.046 91.6416 183.278C91.4912 183.511 91.3818 183.777 91.3135 184.078C91.2497 184.374 91.2178 184.689 91.2178 185.021ZM96.0098 184.324L95.1621 184.584C95.1667 184.178 95.2327 183.789 95.3604 183.415C95.4925 183.041 95.6816 182.709 95.9277 182.417C96.1784 182.125 96.486 181.895 96.8506 181.727C97.2152 181.553 97.6322 181.467 98.1016 181.467C98.498 181.467 98.849 181.519 99.1543 181.624C99.4642 181.729 99.724 181.891 99.9336 182.109C100.148 182.324 100.31 182.599 100.419 182.937C100.528 183.274 100.583 183.675 100.583 184.14V189H99.3115V184.126C99.3115 183.711 99.2454 183.39 99.1133 183.162C98.9857 182.93 98.8034 182.768 98.5664 182.677C98.334 182.581 98.056 182.533 97.7324 182.533C97.4544 182.533 97.2083 182.581 96.9941 182.677C96.7799 182.772 96.5999 182.905 96.4541 183.073C96.3083 183.237 96.1966 183.426 96.1191 183.641C96.0462 183.855 96.0098 184.083 96.0098 184.324ZM105.566 189.137C105.051 189.137 104.584 189.05 104.165 188.877C103.75 188.699 103.393 188.451 103.092 188.132C102.796 187.813 102.568 187.435 102.408 186.997C102.249 186.56 102.169 186.081 102.169 185.562V185.274C102.169 184.673 102.258 184.137 102.436 183.668C102.613 183.194 102.855 182.793 103.16 182.465C103.465 182.137 103.812 181.888 104.199 181.72C104.587 181.551 104.988 181.467 105.402 181.467C105.931 181.467 106.387 181.558 106.77 181.74C107.157 181.923 107.474 182.178 107.72 182.506C107.966 182.829 108.148 183.212 108.267 183.654C108.385 184.092 108.444 184.57 108.444 185.09V185.657H102.921V184.625H107.18V184.529C107.161 184.201 107.093 183.882 106.975 183.572C106.861 183.262 106.678 183.007 106.428 182.807C106.177 182.606 105.835 182.506 105.402 182.506C105.115 182.506 104.851 182.567 104.609 182.69C104.368 182.809 104.16 182.987 103.987 183.224C103.814 183.461 103.68 183.75 103.584 184.092C103.488 184.434 103.44 184.828 103.44 185.274V185.562C103.44 185.912 103.488 186.243 103.584 186.553C103.684 186.858 103.828 187.127 104.015 187.359C104.206 187.592 104.436 187.774 104.705 187.906C104.979 188.038 105.288 188.104 105.635 188.104C106.081 188.104 106.46 188.013 106.77 187.831C107.079 187.649 107.351 187.405 107.583 187.1L108.349 187.708C108.189 187.95 107.986 188.18 107.74 188.398C107.494 188.617 107.191 188.795 106.831 188.932C106.476 189.068 106.054 189.137 105.566 189.137ZM111.186 183.183V189H109.921V181.604H111.117L111.186 183.183ZM110.885 185.021L110.358 185.001C110.363 184.495 110.438 184.028 110.584 183.6C110.73 183.167 110.935 182.791 111.199 182.472C111.464 182.153 111.778 181.907 112.143 181.733C112.512 181.556 112.92 181.467 113.366 181.467C113.731 181.467 114.059 181.517 114.351 181.617C114.642 181.713 114.891 181.868 115.096 182.082C115.305 182.296 115.465 182.574 115.574 182.916C115.684 183.253 115.738 183.666 115.738 184.153V189H114.467V184.14C114.467 183.752 114.41 183.442 114.296 183.21C114.182 182.973 114.016 182.802 113.797 182.697C113.578 182.588 113.309 182.533 112.99 182.533C112.676 182.533 112.389 182.599 112.129 182.731C111.874 182.864 111.653 183.046 111.466 183.278C111.284 183.511 111.14 183.777 111.035 184.078C110.935 184.374 110.885 184.689 110.885 185.021ZM120.756 181.604V182.574H116.757V181.604H120.756ZM118.11 179.806H119.375V187.168C119.375 187.419 119.414 187.608 119.491 187.735C119.569 187.863 119.669 187.947 119.792 187.988C119.915 188.029 120.047 188.05 120.188 188.05C120.293 188.05 120.403 188.041 120.517 188.022C120.635 188 120.724 187.981 120.783 187.968L120.79 189C120.69 189.032 120.558 189.062 120.394 189.089C120.234 189.121 120.04 189.137 119.812 189.137C119.503 189.137 119.218 189.075 118.958 188.952C118.698 188.829 118.491 188.624 118.336 188.337C118.186 188.045 118.11 187.653 118.11 187.161V179.806Z" fill="#949699"/>
<defs>
<linearGradient id="paint0_linear_3944_24523" x1="93.2" y1="21.232" x2="79.8419" y2="170.706" gradientUnits="userSpaceOnUse">
<stop offset="0.1975" stop-color="#FFB666"/>
<stop offset="0.95505" stop-color="#FF0E65"/>
</linearGradient>
<linearGradient id="paint1_linear_3944_24523" x1="93.2" y1="21.232" x2="79.8419" y2="170.706" gradientUnits="userSpaceOnUse">
<stop offset="0.1975" stop-color="#FFB666"/>
<stop offset="0.95505" stop-color="#FF0E65"/>
</linearGradient>
<linearGradient id="paint2_linear_3944_24523" x1="93.2" y1="21.232" x2="79.8419" y2="170.706" gradientUnits="userSpaceOnUse">
<stop offset="0.1975" stop-color="#FFB666"/>
<stop offset="0.95505" stop-color="#FF0E65"/>
</linearGradient>
<linearGradient id="paint3_linear_3944_24523" x1="93.2" y1="21.232" x2="79.8419" y2="170.706" gradientUnits="userSpaceOnUse">
<stop offset="0.1975" stop-color="#FFB666"/>
<stop offset="0.95505" stop-color="#FF0E65"/>
</linearGradient>
<linearGradient id="paint4_linear_3944_24523" x1="93.2" y1="21.232" x2="79.8419" y2="170.706" gradientUnits="userSpaceOnUse">
<stop offset="0.1975" stop-color="#FFB666"/>
<stop offset="0.95505" stop-color="#FF0E65"/>
</linearGradient>
<linearGradient id="paint5_linear_3944_24523" x1="93.2" y1="21.232" x2="79.8419" y2="170.706" gradientUnits="userSpaceOnUse">
<stop offset="0.1975" stop-color="#FFB666"/>
<stop offset="0.95505" stop-color="#FF0E65"/>
</linearGradient>
<linearGradient id="paint6_linear_3944_24523" x1="93.2" y1="21.232" x2="79.8419" y2="170.706" gradientUnits="userSpaceOnUse">
<stop offset="0.1975" stop-color="#FFB666"/>
<stop offset="0.95505" stop-color="#FF0E65"/>
</linearGradient>
<linearGradient id="paint7_linear_3944_24523" x1="93.2" y1="21.232" x2="79.8419" y2="170.706" gradientUnits="userSpaceOnUse">
<stop offset="0.1975" stop-color="#FFB666"/>
<stop offset="0.95505" stop-color="#FF0E65"/>
</linearGradient>
<linearGradient id="paint8_linear_3944_24523" x1="93.2" y1="21.232" x2="79.8419" y2="170.706" gradientUnits="userSpaceOnUse">
<stop offset="0.1975" stop-color="#FFB666"/>
<stop offset="0.95505" stop-color="#FF0E65"/>
</linearGradient>
</defs>
</svg>
