<svg width="160" height="212" viewBox="0 0 160 212" fill="none" xmlns="http://www.w3.org/2000/svg">
<path d="M79 16.5774C79.6188 16.2201 80.3812 16.2201 81 16.5774L120.569 39.4226C121.188 39.7799 121.569 40.4402 121.569 41.1547V86.8453C121.569 87.5598 121.188 88.2201 120.569 88.5774L81 111.423C80.3812 111.78 79.6188 111.78 79 111.423L39.4308 88.5774C38.812 88.2201 38.4308 87.5598 38.4308 86.8453V41.1547C38.4308 40.4402 38.812 39.7799 39.4308 39.4226L79 16.5774Z" fill="#F6F6F6"/>
<path d="M63.0484 51.7H55.5658C54.7011 51.7 54 52.401 54 53.2658V56.8447C54 57.7095 54.7011 58.4105 55.5658 58.4105H60.735C61.151 56.0233 61.9432 53.7653 63.0484 51.7Z" fill="url(#paint0_linear_5185_28926)"/>
<path d="M60.4223 61.2895H55.5658C54.701 61.2895 54 61.9905 54 62.8552V66.4342C54 67.299 54.701 68 55.5658 68H61.1283C60.653 66.1796 60.4 64.2693 60.4 62.3C60.4 61.9614 60.4075 61.6245 60.4223 61.2895Z" fill="url(#paint1_linear_5185_28926)"/>
<path d="M62.0739 70.8316H55.5658C54.7011 70.8316 54 71.5326 54 72.3974V75.9764C54 76.8411 54.7011 77.5422 55.5658 77.5422H66.3491C64.5525 75.5922 63.096 73.324 62.0739 70.8316Z" fill="url(#paint2_linear_5185_28926)"/>
<path fill-rule="evenodd" clip-rule="evenodd" d="M94.1667 80.122C93.7989 79.7542 93.2276 79.6915 92.7745 79.9469C89.8374 81.6024 86.4461 82.5469 82.8343 82.5469C71.6375 82.5469 62.5608 73.4702 62.5608 62.2735C62.5608 51.0767 71.6375 42 82.8343 42C94.031 42 103.108 51.0767 103.108 62.2735C103.108 65.8853 102.163 69.2766 100.508 72.2137C100.252 72.6669 100.315 73.2381 100.683 73.6059L106.971 79.8937C110.527 83.4496 104.01 89.9658 100.455 86.4099L94.1667 80.122ZM100.343 62.2735C100.343 71.9434 92.5042 79.7824 82.8343 79.7824C78.034 79.7824 73.6849 77.8506 70.5219 74.7221C70.2748 74.4777 70.453 74.0685 70.8005 74.0685H79.6644C80.5292 74.0685 81.2302 73.3675 81.2302 72.5027V65.5685C81.2302 64.7037 80.5292 64.0027 79.6644 64.0027H65.9537C65.645 64.0027 65.3856 63.7685 65.3652 63.4605C65.3153 62.7094 65.313 61.945 65.3584 61.1931C65.377 60.8836 65.6371 60.6474 65.9472 60.6474H87.7302C88.595 60.6474 89.296 59.9464 89.296 59.0816V52.1474C89.296 51.2826 88.595 50.5816 87.7302 50.5816H70.6976C70.3515 50.5816 70.1727 50.1753 70.4166 49.9299C73.588 46.7396 77.9805 44.7646 82.8343 44.7646C92.5042 44.7646 100.343 52.6036 100.343 62.2735Z" fill="url(#paint3_linear_5185_28926)"/>
<path d="M33.6914 128.781H35.8789L39.9902 139.748L44.0918 128.781H46.2793L40.8496 143H39.1113L33.6914 128.781ZM32.6953 128.781H34.7754L35.1367 138.273V143H32.6953V128.781ZM45.1953 128.781H47.2852V143H44.834V138.273L45.1953 128.781Z" fill="#1D1F24"/>
<path d="M49.5117 137.834V137.609C49.5117 136.848 49.6224 136.141 49.8438 135.49C50.0651 134.833 50.3841 134.263 50.8008 133.781C51.224 133.293 51.7383 132.915 52.3438 132.648C52.9557 132.375 53.6458 132.238 54.4141 132.238C55.1888 132.238 55.8789 132.375 56.4844 132.648C57.0964 132.915 57.6139 133.293 58.0371 133.781C58.4603 134.263 58.7826 134.833 59.0039 135.49C59.2253 136.141 59.3359 136.848 59.3359 137.609V137.834C59.3359 138.596 59.2253 139.302 59.0039 139.953C58.7826 140.604 58.4603 141.174 58.0371 141.662C57.6139 142.144 57.0996 142.521 56.4941 142.795C55.8887 143.062 55.2018 143.195 54.4336 143.195C53.6589 143.195 52.9655 143.062 52.3535 142.795C51.748 142.521 51.2337 142.144 50.8105 141.662C50.3874 141.174 50.0651 140.604 49.8438 139.953C49.6224 139.302 49.5117 138.596 49.5117 137.834ZM51.8652 137.609V137.834C51.8652 138.309 51.9141 138.758 52.0117 139.182C52.1094 139.605 52.2624 139.976 52.4707 140.295C52.679 140.614 52.946 140.865 53.2715 141.047C53.597 141.229 53.9844 141.32 54.4336 141.32C54.8698 141.32 55.2474 141.229 55.5664 141.047C55.8919 140.865 56.1589 140.614 56.3672 140.295C56.5755 139.976 56.7285 139.605 56.8262 139.182C56.9303 138.758 56.9824 138.309 56.9824 137.834V137.609C56.9824 137.141 56.9303 136.698 56.8262 136.281C56.7285 135.858 56.5723 135.484 56.3574 135.158C56.1491 134.833 55.8822 134.579 55.5566 134.396C55.2376 134.208 54.8568 134.113 54.4141 134.113C53.9714 134.113 53.5872 134.208 53.2617 134.396C52.9427 134.579 52.679 134.833 52.4707 135.158C52.2624 135.484 52.1094 135.858 52.0117 136.281C51.9141 136.698 51.8652 137.141 51.8652 137.609Z" fill="#1D1F24"/>
<path d="M63.6426 134.689V143H61.2891V132.434H63.5059L63.6426 134.689ZM63.2227 137.326L62.4609 137.316C62.4674 136.568 62.5716 135.881 62.7734 135.256C62.9818 134.631 63.2682 134.094 63.6328 133.645C64.0039 133.195 64.4466 132.85 64.9609 132.609C65.4753 132.362 66.0482 132.238 66.6797 132.238C67.1875 132.238 67.6465 132.31 68.0566 132.453C68.4733 132.59 68.8281 132.814 69.1211 133.127C69.4206 133.439 69.6484 133.846 69.8047 134.348C69.9609 134.842 70.0391 135.451 70.0391 136.174V143H67.6758V136.164C67.6758 135.656 67.6009 135.256 67.4512 134.963C67.3079 134.663 67.0964 134.452 66.8164 134.328C66.543 134.198 66.2012 134.133 65.791 134.133C65.3874 134.133 65.026 134.217 64.707 134.387C64.388 134.556 64.1178 134.787 63.8965 135.08C63.6816 135.373 63.5156 135.712 63.3984 136.096C63.2812 136.48 63.2227 136.89 63.2227 137.326Z" fill="#1D1F24"/>
<path d="M74.9609 132.434V143H72.5977V132.434H74.9609ZM72.4414 129.66C72.4414 129.302 72.5586 129.006 72.793 128.771C73.0339 128.531 73.3659 128.41 73.7891 128.41C74.2057 128.41 74.5345 128.531 74.7754 128.771C75.0163 129.006 75.1367 129.302 75.1367 129.66C75.1367 130.012 75.0163 130.305 74.7754 130.539C74.5345 130.773 74.2057 130.891 73.7891 130.891C73.3659 130.891 73.0339 130.773 72.793 130.539C72.5586 130.305 72.4414 130.012 72.4414 129.66Z" fill="#1D1F24"/>
<path d="M82.3828 132.434V134.152H76.4258V132.434H82.3828ZM78.1445 129.846H80.498V140.08C80.498 140.406 80.5436 140.656 80.6348 140.832C80.7324 141.001 80.8659 141.115 81.0352 141.174C81.2044 141.232 81.403 141.262 81.6309 141.262C81.7936 141.262 81.9499 141.252 82.0996 141.232C82.2493 141.213 82.3698 141.193 82.4609 141.174L82.4707 142.971C82.2754 143.029 82.0475 143.081 81.7871 143.127C81.5332 143.173 81.2402 143.195 80.9082 143.195C80.3678 143.195 79.8893 143.101 79.4727 142.912C79.056 142.717 78.7305 142.401 78.4961 141.965C78.2617 141.529 78.1445 140.949 78.1445 140.227V129.846Z" fill="#1D1F24"/>
<path d="M83.5156 137.834V137.609C83.5156 136.848 83.6263 136.141 83.8477 135.49C84.069 134.833 84.388 134.263 84.8047 133.781C85.2279 133.293 85.7422 132.915 86.3477 132.648C86.9596 132.375 87.6497 132.238 88.418 132.238C89.1927 132.238 89.8828 132.375 90.4883 132.648C91.1003 132.915 91.6178 133.293 92.041 133.781C92.4642 134.263 92.7865 134.833 93.0078 135.49C93.2292 136.141 93.3398 136.848 93.3398 137.609V137.834C93.3398 138.596 93.2292 139.302 93.0078 139.953C92.7865 140.604 92.4642 141.174 92.041 141.662C91.6178 142.144 91.1035 142.521 90.498 142.795C89.8926 143.062 89.2057 143.195 88.4375 143.195C87.6628 143.195 86.9694 143.062 86.3574 142.795C85.752 142.521 85.2376 142.144 84.8145 141.662C84.3913 141.174 84.069 140.604 83.8477 139.953C83.6263 139.302 83.5156 138.596 83.5156 137.834ZM85.8691 137.609V137.834C85.8691 138.309 85.918 138.758 86.0156 139.182C86.1133 139.605 86.2663 139.976 86.4746 140.295C86.6829 140.614 86.9499 140.865 87.2754 141.047C87.6009 141.229 87.9883 141.32 88.4375 141.32C88.8737 141.32 89.2513 141.229 89.5703 141.047C89.8958 140.865 90.1628 140.614 90.3711 140.295C90.5794 139.976 90.7324 139.605 90.8301 139.182C90.9342 138.758 90.9863 138.309 90.9863 137.834V137.609C90.9863 137.141 90.9342 136.698 90.8301 136.281C90.7324 135.858 90.5762 135.484 90.3613 135.158C90.153 134.833 89.8861 134.579 89.5605 134.396C89.2415 134.208 88.8607 134.113 88.418 134.113C87.9753 134.113 87.5911 134.208 87.2656 134.396C86.9466 134.579 86.6829 134.833 86.4746 135.158C86.2663 135.484 86.1133 135.858 86.0156 136.281C85.918 136.698 85.8691 137.141 85.8691 137.609Z" fill="#1D1F24"/>
<path d="M97.6758 134.445V143H95.3223V132.434H97.5684L97.6758 134.445ZM100.908 132.365L100.889 134.553C100.745 134.527 100.589 134.507 100.42 134.494C100.257 134.481 100.094 134.475 99.9316 134.475C99.528 134.475 99.1732 134.533 98.8672 134.65C98.5612 134.761 98.304 134.924 98.0957 135.139C97.8939 135.347 97.7376 135.601 97.627 135.9C97.5163 136.2 97.4512 136.535 97.4316 136.906L96.8945 136.945C96.8945 136.281 96.9596 135.666 97.0898 135.1C97.2201 134.533 97.4154 134.035 97.6758 133.605C97.9427 133.176 98.2747 132.84 98.6719 132.6C99.0755 132.359 99.541 132.238 100.068 132.238C100.212 132.238 100.365 132.251 100.527 132.277C100.697 132.303 100.824 132.333 100.908 132.365Z" fill="#1D1F24"/>
<path d="M104.902 132.434V143H102.539V132.434H104.902ZM102.383 129.66C102.383 129.302 102.5 129.006 102.734 128.771C102.975 128.531 103.307 128.41 103.73 128.41C104.147 128.41 104.476 128.531 104.717 128.771C104.958 129.006 105.078 129.302 105.078 129.66C105.078 130.012 104.958 130.305 104.717 130.539C104.476 130.773 104.147 130.891 103.73 130.891C103.307 130.891 102.975 130.773 102.734 130.539C102.5 130.305 102.383 130.012 102.383 129.66Z" fill="#1D1F24"/>
<path d="M109.814 134.689V143H107.461V132.434H109.678L109.814 134.689ZM109.395 137.326L108.633 137.316C108.639 136.568 108.743 135.881 108.945 135.256C109.154 134.631 109.44 134.094 109.805 133.645C110.176 133.195 110.618 132.85 111.133 132.609C111.647 132.362 112.22 132.238 112.852 132.238C113.359 132.238 113.818 132.31 114.229 132.453C114.645 132.59 115 132.814 115.293 133.127C115.592 133.439 115.82 133.846 115.977 134.348C116.133 134.842 116.211 135.451 116.211 136.174V143H113.848V136.164C113.848 135.656 113.773 135.256 113.623 134.963C113.48 134.663 113.268 134.452 112.988 134.328C112.715 134.198 112.373 134.133 111.963 134.133C111.559 134.133 111.198 134.217 110.879 134.387C110.56 134.556 110.29 134.787 110.068 135.08C109.854 135.373 109.688 135.712 109.57 136.096C109.453 136.48 109.395 136.89 109.395 137.326Z" fill="#1D1F24"/>
<path d="M125.381 132.434H127.52V142.707C127.52 143.658 127.318 144.465 126.914 145.129C126.51 145.793 125.947 146.298 125.225 146.643C124.502 146.994 123.665 147.17 122.715 147.17C122.311 147.17 121.862 147.111 121.367 146.994C120.879 146.877 120.404 146.688 119.941 146.428C119.486 146.174 119.105 145.839 118.799 145.422L119.902 144.035C120.28 144.484 120.697 144.813 121.152 145.021C121.608 145.23 122.087 145.334 122.588 145.334C123.128 145.334 123.587 145.233 123.965 145.031C124.349 144.836 124.645 144.546 124.854 144.162C125.062 143.778 125.166 143.309 125.166 142.756V134.826L125.381 132.434ZM118.203 137.834V137.629C118.203 136.828 118.301 136.099 118.496 135.441C118.691 134.777 118.971 134.208 119.336 133.732C119.701 133.251 120.143 132.883 120.664 132.629C121.185 132.368 121.774 132.238 122.432 132.238C123.115 132.238 123.698 132.362 124.18 132.609C124.668 132.857 125.075 133.212 125.4 133.674C125.726 134.13 125.98 134.676 126.162 135.314C126.351 135.946 126.491 136.649 126.582 137.424V138.078C126.497 138.833 126.354 139.523 126.152 140.148C125.951 140.773 125.684 141.314 125.352 141.77C125.02 142.225 124.609 142.577 124.121 142.824C123.639 143.072 123.07 143.195 122.412 143.195C121.768 143.195 121.185 143.062 120.664 142.795C120.15 142.528 119.707 142.154 119.336 141.672C118.971 141.19 118.691 140.624 118.496 139.973C118.301 139.315 118.203 138.602 118.203 137.834ZM120.557 137.629V137.834C120.557 138.316 120.602 138.765 120.693 139.182C120.791 139.598 120.938 139.966 121.133 140.285C121.335 140.598 121.589 140.845 121.895 141.027C122.207 141.203 122.575 141.291 122.998 141.291C123.551 141.291 124.004 141.174 124.355 140.939C124.714 140.705 124.987 140.389 125.176 139.992C125.371 139.589 125.508 139.139 125.586 138.645V136.877C125.547 136.493 125.465 136.135 125.342 135.803C125.225 135.471 125.065 135.181 124.863 134.934C124.661 134.68 124.408 134.484 124.102 134.348C123.796 134.204 123.434 134.133 123.018 134.133C122.594 134.133 122.227 134.224 121.914 134.406C121.602 134.589 121.344 134.839 121.143 135.158C120.947 135.477 120.801 135.848 120.703 136.271C120.605 136.695 120.557 137.147 120.557 137.629Z" fill="#1D1F24"/>
<path d="M21.7441 163.709V164.338C21.7441 165.085 21.6507 165.755 21.4639 166.348C21.277 166.94 21.0081 167.444 20.6572 167.858C20.3063 168.273 19.8848 168.59 19.3926 168.809C18.9049 169.027 18.3581 169.137 17.752 169.137C17.1641 169.137 16.624 169.027 16.1318 168.809C15.6442 168.59 15.2204 168.273 14.8604 167.858C14.5049 167.444 14.2292 166.94 14.0332 166.348C13.8372 165.755 13.7393 165.085 13.7393 164.338V163.709C13.7393 162.962 13.835 162.294 14.0264 161.706C14.2223 161.114 14.498 160.61 14.8535 160.195C15.209 159.776 15.6305 159.457 16.1182 159.238C16.6104 159.02 17.1504 158.91 17.7383 158.91C18.3444 158.91 18.8913 159.02 19.3789 159.238C19.8711 159.457 20.2926 159.776 20.6436 160.195C20.999 160.61 21.2702 161.114 21.457 161.706C21.6484 162.294 21.7441 162.962 21.7441 163.709ZM20.4385 164.338V163.695C20.4385 163.103 20.377 162.579 20.2539 162.123C20.1354 161.667 19.96 161.285 19.7275 160.975C19.4951 160.665 19.2103 160.43 18.873 160.271C18.5404 160.111 18.1621 160.031 17.7383 160.031C17.3281 160.031 16.9567 160.111 16.624 160.271C16.2959 160.43 16.0133 160.665 15.7764 160.975C15.5439 161.285 15.3639 161.667 15.2363 162.123C15.1087 162.579 15.0449 163.103 15.0449 163.695V164.338C15.0449 164.935 15.1087 165.464 15.2363 165.924C15.3639 166.38 15.5462 166.765 15.7832 167.079C16.0247 167.389 16.3096 167.624 16.6377 167.783C16.9704 167.943 17.3418 168.022 17.752 168.022C18.1803 168.022 18.5609 167.943 18.8936 167.783C19.2262 167.624 19.5065 167.389 19.7344 167.079C19.9668 166.765 20.1423 166.38 20.2607 165.924C20.3792 165.464 20.4385 164.935 20.4385 164.338Z" fill="#949699"/>
<path d="M24.793 163.183V169H23.5283V161.604H24.7246L24.793 163.183ZM24.4922 165.021L23.9658 165.001C23.9704 164.495 24.0456 164.028 24.1914 163.6C24.3372 163.167 24.5423 162.791 24.8066 162.472C25.071 162.153 25.3854 161.907 25.75 161.733C26.1191 161.556 26.527 161.467 26.9736 161.467C27.3382 161.467 27.6663 161.517 27.958 161.617C28.2497 161.713 28.498 161.868 28.7031 162.082C28.9128 162.296 29.0723 162.574 29.1816 162.916C29.291 163.253 29.3457 163.666 29.3457 164.153V169H28.0742V164.14C28.0742 163.752 28.0173 163.442 27.9033 163.21C27.7894 162.973 27.623 162.802 27.4043 162.697C27.1855 162.588 26.9167 162.533 26.5977 162.533C26.2832 162.533 25.9961 162.599 25.7363 162.731C25.4811 162.864 25.2601 163.046 25.0732 163.278C24.891 163.511 24.7474 163.777 24.6426 164.078C24.5423 164.374 24.4922 164.689 24.4922 165.021Z" fill="#949699"/>
<path d="M32.6406 158.5V169H31.3691V158.5H32.6406Z" fill="#949699"/>
<path d="M36.0449 161.604V169H34.7734V161.604H36.0449ZM34.6777 159.642C34.6777 159.437 34.7393 159.263 34.8623 159.122C34.9899 158.981 35.1768 158.91 35.4229 158.91C35.6644 158.91 35.849 158.981 35.9766 159.122C36.1087 159.263 36.1748 159.437 36.1748 159.642C36.1748 159.838 36.1087 160.006 35.9766 160.147C35.849 160.284 35.6644 160.353 35.4229 160.353C35.1768 160.353 34.9899 160.284 34.8623 160.147C34.7393 160.006 34.6777 159.838 34.6777 159.642Z" fill="#949699"/>
<path d="M39.3398 163.183V169H38.0752V161.604H39.2715L39.3398 163.183ZM39.0391 165.021L38.5127 165.001C38.5173 164.495 38.5924 164.028 38.7383 163.6C38.8841 163.167 39.0892 162.791 39.3535 162.472C39.6178 162.153 39.9323 161.907 40.2969 161.733C40.666 161.556 41.0739 161.467 41.5205 161.467C41.8851 161.467 42.2132 161.517 42.5049 161.617C42.7965 161.713 43.0449 161.868 43.25 162.082C43.4596 162.296 43.6191 162.574 43.7285 162.916C43.8379 163.253 43.8926 163.666 43.8926 164.153V169H42.6211V164.14C42.6211 163.752 42.5641 163.442 42.4502 163.21C42.3363 162.973 42.1699 162.802 41.9512 162.697C41.7324 162.588 41.4635 162.533 41.1445 162.533C40.8301 162.533 40.543 162.599 40.2832 162.731C40.028 162.864 39.807 163.046 39.6201 163.278C39.4378 163.511 39.2943 163.777 39.1895 164.078C39.0892 164.374 39.0391 164.689 39.0391 165.021Z" fill="#949699"/>
<path d="M48.8828 169.137C48.3678 169.137 47.9007 169.05 47.4814 168.877C47.0667 168.699 46.709 168.451 46.4082 168.132C46.112 167.813 45.8841 167.435 45.7246 166.997C45.5651 166.56 45.4854 166.081 45.4854 165.562V165.274C45.4854 164.673 45.5742 164.137 45.752 163.668C45.9297 163.194 46.1712 162.793 46.4766 162.465C46.7819 162.137 47.1283 161.888 47.5156 161.72C47.903 161.551 48.304 161.467 48.7188 161.467C49.2474 161.467 49.7031 161.558 50.0859 161.74C50.4733 161.923 50.79 162.178 51.0361 162.506C51.2822 162.829 51.4645 163.212 51.583 163.654C51.7015 164.092 51.7607 164.57 51.7607 165.09V165.657H46.2373V164.625H50.4961V164.529C50.4779 164.201 50.4095 163.882 50.291 163.572C50.1771 163.262 49.9948 163.007 49.7441 162.807C49.4935 162.606 49.1517 162.506 48.7188 162.506C48.4316 162.506 48.1673 162.567 47.9258 162.69C47.6842 162.809 47.4769 162.987 47.3037 163.224C47.1305 163.461 46.9961 163.75 46.9004 164.092C46.8047 164.434 46.7568 164.828 46.7568 165.274V165.562C46.7568 165.912 46.8047 166.243 46.9004 166.553C47.0007 166.858 47.1442 167.127 47.3311 167.359C47.5225 167.592 47.7526 167.774 48.0215 167.906C48.2949 168.038 48.6048 168.104 48.9512 168.104C49.3978 168.104 49.776 168.013 50.0859 167.831C50.3958 167.649 50.667 167.405 50.8994 167.1L51.665 167.708C51.5055 167.95 51.3027 168.18 51.0566 168.398C50.8105 168.617 50.5075 168.795 50.1475 168.932C49.792 169.068 49.3704 169.137 48.8828 169.137Z" fill="#949699"/>
<path d="M57.3184 159.047H58.5967L61.8574 167.161L65.1113 159.047H66.3965L62.3496 169H61.3516L57.3184 159.047ZM56.9014 159.047H58.0293L58.2139 165.117V169H56.9014V159.047ZM65.6787 159.047H66.8066V169H65.4941V165.117L65.6787 159.047Z" fill="#949699"/>
<path d="M75.1602 167.927V169H70.1836V167.927H75.1602ZM70.4434 159.047V169H69.124V159.047H70.4434Z" fill="#949699"/>
<path d="M83.8145 165.097H81.1553V164.023H83.8145C84.3294 164.023 84.7464 163.941 85.0654 163.777C85.3844 163.613 85.6169 163.385 85.7627 163.094C85.9131 162.802 85.9883 162.469 85.9883 162.096C85.9883 161.754 85.9131 161.433 85.7627 161.132C85.6169 160.831 85.3844 160.59 85.0654 160.407C84.7464 160.22 84.3294 160.127 83.8145 160.127H81.4629V169H80.1436V159.047H83.8145C84.5664 159.047 85.2021 159.177 85.7217 159.437C86.2412 159.696 86.6354 160.056 86.9043 160.517C87.1732 160.972 87.3076 161.494 87.3076 162.082C87.3076 162.72 87.1732 163.265 86.9043 163.716C86.6354 164.167 86.2412 164.511 85.7217 164.748C85.2021 164.98 84.5664 165.097 83.8145 165.097Z" fill="#949699"/>
<path d="M90.0488 162.766V169H88.7842V161.604H90.0146L90.0488 162.766ZM92.3594 161.562L92.3525 162.738C92.2477 162.715 92.1475 162.702 92.0518 162.697C91.9606 162.688 91.8558 162.684 91.7373 162.684C91.4456 162.684 91.1882 162.729 90.9648 162.82C90.7415 162.911 90.5524 163.039 90.3975 163.203C90.2425 163.367 90.1195 163.563 90.0283 163.791C89.9417 164.014 89.8848 164.26 89.8574 164.529L89.502 164.734C89.502 164.288 89.5452 163.868 89.6318 163.477C89.723 163.085 89.862 162.738 90.0488 162.438C90.2357 162.132 90.4727 161.895 90.7598 161.727C91.0514 161.553 91.3978 161.467 91.7988 161.467C91.89 161.467 91.9948 161.478 92.1133 161.501C92.2318 161.519 92.3138 161.54 92.3594 161.562Z" fill="#949699"/>
<path d="M93.0566 165.384V165.227C93.0566 164.693 93.1341 164.199 93.2891 163.743C93.444 163.283 93.6673 162.884 93.959 162.547C94.2507 162.205 94.6038 161.941 95.0186 161.754C95.4333 161.562 95.8981 161.467 96.4131 161.467C96.9326 161.467 97.3997 161.562 97.8145 161.754C98.2337 161.941 98.5892 162.205 98.8809 162.547C99.1771 162.884 99.4027 163.283 99.5576 163.743C99.7126 164.199 99.79 164.693 99.79 165.227V165.384C99.79 165.917 99.7126 166.411 99.5576 166.867C99.4027 167.323 99.1771 167.722 98.8809 168.063C98.5892 168.401 98.236 168.665 97.8213 168.856C97.4111 169.043 96.9463 169.137 96.4268 169.137C95.9072 169.137 95.4401 169.043 95.0254 168.856C94.6107 168.665 94.2552 168.401 93.959 168.063C93.6673 167.722 93.444 167.323 93.2891 166.867C93.1341 166.411 93.0566 165.917 93.0566 165.384ZM94.3213 165.227V165.384C94.3213 165.753 94.3646 166.102 94.4512 166.43C94.5378 166.753 94.6676 167.04 94.8408 167.291C95.0186 167.542 95.2396 167.74 95.5039 167.886C95.7682 168.027 96.0758 168.098 96.4268 168.098C96.7731 168.098 97.0762 168.027 97.3359 167.886C97.6003 167.74 97.819 167.542 97.9922 167.291C98.1654 167.04 98.2952 166.753 98.3818 166.43C98.473 166.102 98.5186 165.753 98.5186 165.384V165.227C98.5186 164.862 98.473 164.518 98.3818 164.194C98.2952 163.866 98.1631 163.577 97.9854 163.326C97.8122 163.071 97.5934 162.87 97.3291 162.725C97.0693 162.579 96.764 162.506 96.4131 162.506C96.0667 162.506 95.7614 162.579 95.4971 162.725C95.2373 162.87 95.0186 163.071 94.8408 163.326C94.6676 163.577 94.5378 163.866 94.4512 164.194C94.3646 164.518 94.3213 164.862 94.3213 165.227Z" fill="#949699"/>
<path d="M106.038 167.564V158.5H107.31V169H106.147L106.038 167.564ZM101.062 165.384V165.24C101.062 164.675 101.13 164.162 101.267 163.702C101.408 163.237 101.606 162.839 101.861 162.506C102.121 162.173 102.429 161.918 102.784 161.74C103.144 161.558 103.545 161.467 103.987 161.467C104.452 161.467 104.858 161.549 105.204 161.713C105.555 161.872 105.851 162.107 106.093 162.417C106.339 162.722 106.533 163.091 106.674 163.524C106.815 163.957 106.913 164.447 106.968 164.994V165.623C106.918 166.165 106.82 166.653 106.674 167.086C106.533 167.519 106.339 167.888 106.093 168.193C105.851 168.499 105.555 168.733 105.204 168.897C104.853 169.057 104.443 169.137 103.974 169.137C103.541 169.137 103.144 169.043 102.784 168.856C102.429 168.67 102.121 168.408 101.861 168.07C101.606 167.733 101.408 167.337 101.267 166.881C101.13 166.421 101.062 165.922 101.062 165.384ZM102.333 165.24V165.384C102.333 165.753 102.369 166.099 102.442 166.423C102.52 166.746 102.638 167.031 102.798 167.277C102.957 167.523 103.16 167.717 103.406 167.858C103.652 167.995 103.946 168.063 104.288 168.063C104.707 168.063 105.051 167.975 105.32 167.797C105.594 167.619 105.812 167.384 105.977 167.093C106.141 166.801 106.268 166.484 106.359 166.143V164.495C106.305 164.244 106.225 164.003 106.12 163.771C106.02 163.534 105.888 163.324 105.724 163.142C105.564 162.955 105.366 162.807 105.129 162.697C104.896 162.588 104.621 162.533 104.302 162.533C103.955 162.533 103.657 162.606 103.406 162.752C103.16 162.893 102.957 163.089 102.798 163.34C102.638 163.586 102.52 163.873 102.442 164.201C102.369 164.525 102.333 164.871 102.333 165.24Z" fill="#949699"/>
<path d="M113.804 167.291V161.604H115.075V169H113.865L113.804 167.291ZM114.043 165.732L114.569 165.719C114.569 166.211 114.517 166.667 114.412 167.086C114.312 167.501 114.148 167.861 113.92 168.166C113.692 168.471 113.394 168.711 113.024 168.884C112.655 169.052 112.206 169.137 111.678 169.137C111.318 169.137 110.987 169.084 110.687 168.979C110.39 168.875 110.135 168.713 109.921 168.494C109.707 168.275 109.54 167.991 109.422 167.64C109.308 167.289 109.251 166.867 109.251 166.375V161.604H110.516V166.389C110.516 166.721 110.552 166.997 110.625 167.216C110.702 167.43 110.805 167.601 110.933 167.729C111.065 167.852 111.211 167.938 111.37 167.988C111.534 168.038 111.703 168.063 111.876 168.063C112.414 168.063 112.84 167.961 113.154 167.756C113.469 167.546 113.694 167.266 113.831 166.915C113.972 166.56 114.043 166.165 114.043 165.732Z" fill="#949699"/>
<path d="M119.963 168.098C120.264 168.098 120.542 168.036 120.797 167.913C121.052 167.79 121.262 167.621 121.426 167.407C121.59 167.188 121.683 166.94 121.706 166.662H122.909C122.886 167.1 122.738 167.507 122.465 167.886C122.196 168.259 121.843 168.562 121.405 168.795C120.968 169.023 120.487 169.137 119.963 169.137C119.407 169.137 118.922 169.039 118.507 168.843C118.097 168.647 117.755 168.378 117.481 168.036C117.213 167.694 117.01 167.302 116.873 166.86C116.741 166.414 116.675 165.942 116.675 165.445V165.158C116.675 164.661 116.741 164.192 116.873 163.75C117.01 163.303 117.213 162.909 117.481 162.567C117.755 162.226 118.097 161.957 118.507 161.761C118.922 161.565 119.407 161.467 119.963 161.467C120.542 161.467 121.048 161.585 121.48 161.822C121.913 162.055 122.253 162.374 122.499 162.779C122.75 163.18 122.886 163.636 122.909 164.146H121.706C121.683 163.841 121.597 163.565 121.446 163.319C121.3 163.073 121.1 162.877 120.845 162.731C120.594 162.581 120.3 162.506 119.963 162.506C119.576 162.506 119.25 162.583 118.985 162.738C118.726 162.889 118.518 163.094 118.363 163.354C118.213 163.609 118.104 163.894 118.035 164.208C117.971 164.518 117.939 164.835 117.939 165.158V165.445C117.939 165.769 117.971 166.088 118.035 166.402C118.099 166.717 118.206 167.002 118.356 167.257C118.511 167.512 118.719 167.717 118.979 167.872C119.243 168.022 119.571 168.098 119.963 168.098Z" fill="#949699"/>
<path d="M127.428 161.604V162.574H123.429V161.604H127.428ZM124.782 159.806H126.047V167.168C126.047 167.419 126.086 167.608 126.163 167.735C126.241 167.863 126.341 167.947 126.464 167.988C126.587 168.029 126.719 168.05 126.86 168.05C126.965 168.05 127.075 168.041 127.188 168.022C127.307 168 127.396 167.981 127.455 167.968L127.462 169C127.362 169.032 127.229 169.062 127.065 169.089C126.906 169.121 126.712 169.137 126.484 169.137C126.174 169.137 125.89 169.075 125.63 168.952C125.37 168.829 125.163 168.624 125.008 168.337C124.857 168.045 124.782 167.653 124.782 167.161V159.806Z" fill="#949699"/>
<path d="M130.285 161.604V169H129.014V161.604H130.285ZM128.918 159.642C128.918 159.437 128.979 159.263 129.103 159.122C129.23 158.981 129.417 158.91 129.663 158.91C129.905 158.91 130.089 158.981 130.217 159.122C130.349 159.263 130.415 159.437 130.415 159.642C130.415 159.838 130.349 160.006 130.217 160.147C130.089 160.284 129.905 160.353 129.663 160.353C129.417 160.353 129.23 160.284 129.103 160.147C128.979 160.006 128.918 159.838 128.918 159.642Z" fill="#949699"/>
<path d="M131.98 165.384V165.227C131.98 164.693 132.058 164.199 132.213 163.743C132.368 163.283 132.591 162.884 132.883 162.547C133.174 162.205 133.528 161.941 133.942 161.754C134.357 161.562 134.822 161.467 135.337 161.467C135.856 161.467 136.324 161.562 136.738 161.754C137.158 161.941 137.513 162.205 137.805 162.547C138.101 162.884 138.326 163.283 138.481 163.743C138.636 164.199 138.714 164.693 138.714 165.227V165.384C138.714 165.917 138.636 166.411 138.481 166.867C138.326 167.323 138.101 167.722 137.805 168.063C137.513 168.401 137.16 168.665 136.745 168.856C136.335 169.043 135.87 169.137 135.351 169.137C134.831 169.137 134.364 169.043 133.949 168.856C133.535 168.665 133.179 168.401 132.883 168.063C132.591 167.722 132.368 167.323 132.213 166.867C132.058 166.411 131.98 165.917 131.98 165.384ZM133.245 165.227V165.384C133.245 165.753 133.288 166.102 133.375 166.43C133.462 166.753 133.591 167.04 133.765 167.291C133.942 167.542 134.163 167.74 134.428 167.886C134.692 168.027 135 168.098 135.351 168.098C135.697 168.098 136 168.027 136.26 167.886C136.524 167.74 136.743 167.542 136.916 167.291C137.089 167.04 137.219 166.753 137.306 166.43C137.397 166.102 137.442 165.753 137.442 165.384V165.227C137.442 164.862 137.397 164.518 137.306 164.194C137.219 163.866 137.087 163.577 136.909 163.326C136.736 163.071 136.517 162.87 136.253 162.725C135.993 162.579 135.688 162.506 135.337 162.506C134.991 162.506 134.685 162.579 134.421 162.725C134.161 162.87 133.942 163.071 133.765 163.326C133.591 163.577 133.462 163.866 133.375 164.194C133.288 164.518 133.245 164.862 133.245 165.227Z" fill="#949699"/>
<path d="M141.564 163.183V169H140.3V161.604H141.496L141.564 163.183ZM141.264 165.021L140.737 165.001C140.742 164.495 140.817 164.028 140.963 163.6C141.109 163.167 141.314 162.791 141.578 162.472C141.842 162.153 142.157 161.907 142.521 161.733C142.891 161.556 143.299 161.467 143.745 161.467C144.11 161.467 144.438 161.517 144.729 161.617C145.021 161.713 145.27 161.868 145.475 162.082C145.684 162.296 145.844 162.574 145.953 162.916C146.062 163.253 146.117 163.666 146.117 164.153V169H144.846V164.14C144.846 163.752 144.789 163.442 144.675 163.21C144.561 162.973 144.395 162.802 144.176 162.697C143.957 162.588 143.688 162.533 143.369 162.533C143.055 162.533 142.768 162.599 142.508 162.731C142.253 162.864 142.032 163.046 141.845 163.278C141.662 163.511 141.519 163.777 141.414 164.078C141.314 164.374 141.264 164.689 141.264 165.021Z" fill="#949699"/>
<path d="M47.8096 179.047H49.0879L52.3486 187.161L55.6025 179.047H56.8877L52.8408 189H51.8428L47.8096 179.047ZM47.3926 179.047H48.5205L48.7051 185.117V189H47.3926V179.047ZM56.1699 179.047H57.2979V189H55.9854V185.117L56.1699 179.047Z" fill="#949699"/>
<path d="M59.0889 185.384V185.227C59.0889 184.693 59.1663 184.199 59.3213 183.743C59.4762 183.283 59.6995 182.884 59.9912 182.547C60.2829 182.205 60.6361 181.941 61.0508 181.754C61.4655 181.562 61.9303 181.467 62.4453 181.467C62.9648 181.467 63.432 181.562 63.8467 181.754C64.266 181.941 64.6214 182.205 64.9131 182.547C65.2093 182.884 65.4349 183.283 65.5898 183.743C65.7448 184.199 65.8223 184.693 65.8223 185.227V185.384C65.8223 185.917 65.7448 186.411 65.5898 186.867C65.4349 187.323 65.2093 187.722 64.9131 188.063C64.6214 188.401 64.2682 188.665 63.8535 188.856C63.4434 189.043 62.9785 189.137 62.459 189.137C61.9395 189.137 61.4723 189.043 61.0576 188.856C60.6429 188.665 60.2874 188.401 59.9912 188.063C59.6995 187.722 59.4762 187.323 59.3213 186.867C59.1663 186.411 59.0889 185.917 59.0889 185.384ZM60.3535 185.227V185.384C60.3535 185.753 60.3968 186.102 60.4834 186.43C60.57 186.753 60.6999 187.04 60.873 187.291C61.0508 187.542 61.2718 187.74 61.5361 187.886C61.8005 188.027 62.1081 188.098 62.459 188.098C62.8053 188.098 63.1084 188.027 63.3682 187.886C63.6325 187.74 63.8512 187.542 64.0244 187.291C64.1976 187.04 64.3275 186.753 64.4141 186.43C64.5052 186.102 64.5508 185.753 64.5508 185.384V185.227C64.5508 184.862 64.5052 184.518 64.4141 184.194C64.3275 183.866 64.1953 183.577 64.0176 183.326C63.8444 183.071 63.6257 182.87 63.3613 182.725C63.1016 182.579 62.7962 182.506 62.4453 182.506C62.099 182.506 61.7936 182.579 61.5293 182.725C61.2695 182.87 61.0508 183.071 60.873 183.326C60.6999 183.577 60.57 183.866 60.4834 184.194C60.3968 184.518 60.3535 184.862 60.3535 185.227Z" fill="#949699"/>
<path d="M68.6729 183.183V189H67.4082V181.604H68.6045L68.6729 183.183ZM68.3721 185.021L67.8457 185.001C67.8503 184.495 67.9255 184.028 68.0713 183.6C68.2171 183.167 68.4222 182.791 68.6865 182.472C68.9508 182.153 69.2653 181.907 69.6299 181.733C69.999 181.556 70.4069 181.467 70.8535 181.467C71.2181 181.467 71.5462 181.517 71.8379 181.617C72.1296 181.713 72.3779 181.868 72.583 182.082C72.7926 182.296 72.9521 182.574 73.0615 182.916C73.1709 183.253 73.2256 183.666 73.2256 184.153V189H71.9541V184.14C71.9541 183.752 71.8971 183.442 71.7832 183.21C71.6693 182.973 71.5029 182.802 71.2842 182.697C71.0654 182.588 70.7965 182.533 70.4775 182.533C70.1631 182.533 69.876 182.599 69.6162 182.731C69.361 182.864 69.14 183.046 68.9531 183.278C68.7708 183.511 68.6273 183.777 68.5225 184.078C68.4222 184.374 68.3721 184.689 68.3721 185.021Z" fill="#949699"/>
<path d="M76.5205 181.604V189H75.249V181.604H76.5205ZM75.1533 179.642C75.1533 179.437 75.2148 179.263 75.3379 179.122C75.4655 178.981 75.6523 178.91 75.8984 178.91C76.14 178.91 76.3245 178.981 76.4521 179.122C76.5843 179.263 76.6504 179.437 76.6504 179.642C76.6504 179.838 76.5843 180.006 76.4521 180.147C76.3245 180.284 76.14 180.353 75.8984 180.353C75.6523 180.353 75.4655 180.284 75.3379 180.147C75.2148 180.006 75.1533 179.838 75.1533 179.642Z" fill="#949699"/>
<path d="M81.6475 181.604V182.574H77.6484V181.604H81.6475ZM79.002 179.806H80.2666V187.168C80.2666 187.419 80.3053 187.608 80.3828 187.735C80.4603 187.863 80.5605 187.947 80.6836 187.988C80.8066 188.029 80.9388 188.05 81.0801 188.05C81.1849 188.05 81.2943 188.041 81.4082 188.022C81.5267 188 81.6156 187.981 81.6748 187.968L81.6816 189C81.5814 189.032 81.4492 189.062 81.2852 189.089C81.1257 189.121 80.932 189.137 80.7041 189.137C80.3942 189.137 80.1094 189.075 79.8496 188.952C79.5898 188.829 79.3825 188.624 79.2275 188.337C79.0771 188.045 79.002 187.653 79.002 187.161V179.806Z" fill="#949699"/>
<path d="M82.6592 185.384V185.227C82.6592 184.693 82.7367 184.199 82.8916 183.743C83.0465 183.283 83.2699 182.884 83.5615 182.547C83.8532 182.205 84.2064 181.941 84.6211 181.754C85.0358 181.562 85.5007 181.467 86.0156 181.467C86.5352 181.467 87.0023 181.562 87.417 181.754C87.8363 181.941 88.1917 182.205 88.4834 182.547C88.7796 182.884 89.0052 183.283 89.1602 183.743C89.3151 184.199 89.3926 184.693 89.3926 185.227V185.384C89.3926 185.917 89.3151 186.411 89.1602 186.867C89.0052 187.323 88.7796 187.722 88.4834 188.063C88.1917 188.401 87.8385 188.665 87.4238 188.856C87.0137 189.043 86.5488 189.137 86.0293 189.137C85.5098 189.137 85.0426 189.043 84.6279 188.856C84.2132 188.665 83.8577 188.401 83.5615 188.063C83.2699 187.722 83.0465 187.323 82.8916 186.867C82.7367 186.411 82.6592 185.917 82.6592 185.384ZM83.9238 185.227V185.384C83.9238 185.753 83.9671 186.102 84.0537 186.43C84.1403 186.753 84.2702 187.04 84.4434 187.291C84.6211 187.542 84.8421 187.74 85.1064 187.886C85.3708 188.027 85.6784 188.098 86.0293 188.098C86.3757 188.098 86.6787 188.027 86.9385 187.886C87.2028 187.74 87.4215 187.542 87.5947 187.291C87.7679 187.04 87.8978 186.753 87.9844 186.43C88.0755 186.102 88.1211 185.753 88.1211 185.384V185.227C88.1211 184.862 88.0755 184.518 87.9844 184.194C87.8978 183.866 87.7656 183.577 87.5879 183.326C87.4147 183.071 87.196 182.87 86.9316 182.725C86.6719 182.579 86.3665 182.506 86.0156 182.506C85.6693 182.506 85.3639 182.579 85.0996 182.725C84.8398 182.87 84.6211 183.071 84.4434 183.326C84.2702 183.577 84.1403 183.866 84.0537 184.194C83.9671 184.518 83.9238 184.862 83.9238 185.227Z" fill="#949699"/>
<path d="M92.2432 182.766V189H90.9785V181.604H92.209L92.2432 182.766ZM94.5537 181.562L94.5469 182.738C94.4421 182.715 94.3418 182.702 94.2461 182.697C94.1549 182.688 94.0501 182.684 93.9316 182.684C93.64 182.684 93.3825 182.729 93.1592 182.82C92.9359 182.911 92.7467 183.039 92.5918 183.203C92.4368 183.367 92.3138 183.563 92.2227 183.791C92.1361 184.014 92.0791 184.26 92.0518 184.529L91.6963 184.734C91.6963 184.288 91.7396 183.868 91.8262 183.477C91.9173 183.085 92.0563 182.738 92.2432 182.438C92.43 182.132 92.667 181.895 92.9541 181.727C93.2458 181.553 93.5921 181.467 93.9932 181.467C94.0843 181.467 94.1891 181.478 94.3076 181.501C94.4261 181.519 94.5081 181.54 94.5537 181.562Z" fill="#949699"/>
<path d="M97.0967 181.604V189H95.8252V181.604H97.0967ZM95.7295 179.642C95.7295 179.437 95.791 179.263 95.9141 179.122C96.0417 178.981 96.2285 178.91 96.4746 178.91C96.7161 178.91 96.9007 178.981 97.0283 179.122C97.1605 179.263 97.2266 179.437 97.2266 179.642C97.2266 179.838 97.1605 180.006 97.0283 180.147C96.9007 180.284 96.7161 180.353 96.4746 180.353C96.2285 180.353 96.0417 180.284 95.9141 180.147C95.791 180.006 95.7295 179.838 95.7295 179.642Z" fill="#949699"/>
<path d="M100.392 183.183V189H99.127V181.604H100.323L100.392 183.183ZM100.091 185.021L99.5645 185.001C99.569 184.495 99.6442 184.028 99.79 183.6C99.9359 183.167 100.141 182.791 100.405 182.472C100.67 182.153 100.984 181.907 101.349 181.733C101.718 181.556 102.126 181.467 102.572 181.467C102.937 181.467 103.265 181.517 103.557 181.617C103.848 181.713 104.097 181.868 104.302 182.082C104.511 182.296 104.671 182.574 104.78 182.916C104.89 183.253 104.944 183.666 104.944 184.153V189H103.673V184.14C103.673 183.752 103.616 183.442 103.502 183.21C103.388 182.973 103.222 182.802 103.003 182.697C102.784 182.588 102.515 182.533 102.196 182.533C101.882 182.533 101.595 182.599 101.335 182.731C101.08 182.864 100.859 183.046 100.672 183.278C100.49 183.511 100.346 183.777 100.241 184.078C100.141 184.374 100.091 184.689 100.091 185.021Z" fill="#949699"/>
<path d="M111.657 181.604H112.806V188.843C112.806 189.494 112.674 190.05 112.409 190.511C112.145 190.971 111.776 191.32 111.302 191.557C110.832 191.798 110.29 191.919 109.675 191.919C109.42 191.919 109.119 191.878 108.772 191.796C108.431 191.718 108.093 191.584 107.761 191.393C107.433 191.206 107.157 190.953 106.934 190.634L107.597 189.882C107.907 190.256 108.23 190.515 108.567 190.661C108.909 190.807 109.246 190.88 109.579 190.88C109.98 190.88 110.326 190.805 110.618 190.654C110.91 190.504 111.135 190.281 111.295 189.984C111.459 189.693 111.541 189.333 111.541 188.904V183.23L111.657 181.604ZM106.564 185.384V185.24C106.564 184.675 106.631 184.162 106.763 183.702C106.899 183.237 107.093 182.839 107.344 182.506C107.599 182.173 107.907 181.918 108.267 181.74C108.627 181.558 109.032 181.467 109.483 181.467C109.948 181.467 110.354 181.549 110.7 181.713C111.051 181.872 111.347 182.107 111.589 182.417C111.835 182.722 112.029 183.091 112.17 183.524C112.311 183.957 112.409 184.447 112.464 184.994V185.623C112.414 186.165 112.316 186.653 112.17 187.086C112.029 187.519 111.835 187.888 111.589 188.193C111.347 188.499 111.051 188.733 110.7 188.897C110.349 189.057 109.939 189.137 109.47 189.137C109.028 189.137 108.627 189.043 108.267 188.856C107.911 188.67 107.606 188.408 107.351 188.07C107.095 187.733 106.899 187.337 106.763 186.881C106.631 186.421 106.564 185.922 106.564 185.384ZM107.829 185.24V185.384C107.829 185.753 107.866 186.099 107.938 186.423C108.016 186.746 108.132 187.031 108.287 187.277C108.447 187.523 108.649 187.717 108.896 187.858C109.142 187.995 109.436 188.063 109.777 188.063C110.197 188.063 110.543 187.975 110.816 187.797C111.09 187.619 111.306 187.384 111.466 187.093C111.63 186.801 111.757 186.484 111.849 186.143V184.495C111.799 184.244 111.721 184.003 111.616 183.771C111.516 183.534 111.384 183.324 111.22 183.142C111.06 182.955 110.862 182.807 110.625 182.697C110.388 182.588 110.11 182.533 109.791 182.533C109.445 182.533 109.146 182.606 108.896 182.752C108.649 182.893 108.447 183.089 108.287 183.34C108.132 183.586 108.016 183.873 107.938 184.201C107.866 184.525 107.829 184.871 107.829 185.24Z" fill="#949699"/>
<defs>
<linearGradient id="paint0_linear_5185_28926" x1="97.9499" y1="27.3568" x2="86.0438" y2="161.087" gradientUnits="userSpaceOnUse">
<stop offset="0.1975" stop-color="#FFB666"/>
<stop offset="0.95505" stop-color="#FF0E65"/>
</linearGradient>
<linearGradient id="paint1_linear_5185_28926" x1="97.9499" y1="27.3568" x2="86.0438" y2="161.087" gradientUnits="userSpaceOnUse">
<stop offset="0.1975" stop-color="#FFB666"/>
<stop offset="0.95505" stop-color="#FF0E65"/>
</linearGradient>
<linearGradient id="paint2_linear_5185_28926" x1="97.9499" y1="27.3568" x2="86.0438" y2="161.087" gradientUnits="userSpaceOnUse">
<stop offset="0.1975" stop-color="#FFB666"/>
<stop offset="0.95505" stop-color="#FF0E65"/>
</linearGradient>
<linearGradient id="paint3_linear_5185_28926" x1="97.9499" y1="27.3568" x2="86.0438" y2="161.087" gradientUnits="userSpaceOnUse">
<stop offset="0.1975" stop-color="#FFB666"/>
<stop offset="0.95505" stop-color="#FF0E65"/>
</linearGradient>
</defs>
</svg>
