<svg width="160" height="212" viewBox="0 0 160 212" fill="none" xmlns="http://www.w3.org/2000/svg">
<path d="M79 16.5774C79.6188 16.2201 80.3812 16.2201 81 16.5774L120.569 39.4226C121.188 39.7799 121.569 40.4402 121.569 41.1547V86.8453C121.569 87.5598 121.188 88.2201 120.569 88.5774L81 111.423C80.3812 111.78 79.6188 111.78 79 111.423L39.4308 88.5774C38.812 88.2201 38.4308 87.5598 38.4308 86.8453V41.1547C38.4308 40.4402 38.812 39.7799 39.4308 39.4226L79 16.5774Z" fill="#F6F6F6"/>
<path d="M79 56C74.5817 56 71 59.5817 71 64C71 68.4183 74.5817 72 79 72C83.4183 72 87 68.4183 87 64C87 59.5817 83.4183 56 79 56Z" fill="url(#paint0_linear_3944_24545)"/>
<path fill-rule="evenodd" clip-rule="evenodd" d="M66 42C61.5817 42 58 45.5817 58 50V78C58 82.4183 61.5817 86 66 86H94C98.4183 86 102 82.4183 102 78V50C102 45.5817 98.4183 42 94 42H66ZM86.6464 56.0922C86.7764 56.218 87 56.1279 87 55.9469V55C87 54.4477 87.4477 54 88 54H89C89.5523 54 90 54.4477 90 55V73C90 73.5523 89.5523 74 89 74H88C87.4477 74 87 73.5523 87 73V72.0531C87 71.8721 86.7764 71.782 86.6464 71.9078C84.667 73.8221 81.9711 75 79 75C72.9249 75 68 70.0751 68 64C68 57.9249 72.9249 53 79 53C81.9711 53 84.667 54.1779 86.6464 56.0922Z" fill="url(#paint1_linear_3944_24545)"/>
<path d="M48.5645 137.697H44.8633V135.754H48.5645C49.209 135.754 49.7298 135.65 50.127 135.441C50.5241 135.233 50.8138 134.947 50.9961 134.582C51.1849 134.211 51.2793 133.788 51.2793 133.312C51.2793 132.863 51.1849 132.443 50.9961 132.053C50.8138 131.656 50.5241 131.337 50.127 131.096C49.7298 130.855 49.209 130.734 48.5645 130.734H45.6152V143H43.1641V128.781H48.5645C49.6647 128.781 50.599 128.977 51.3672 129.367C52.1419 129.751 52.7311 130.285 53.1348 130.969C53.5384 131.646 53.7402 132.421 53.7402 133.293C53.7402 134.211 53.5384 134.999 53.1348 135.656C52.7311 136.314 52.1419 136.818 51.3672 137.17C50.599 137.521 49.6647 137.697 48.5645 137.697ZM58.0664 134.445V143H55.7129V132.434H57.959L58.0664 134.445ZM61.2988 132.365L61.2793 134.553C61.1361 134.527 60.9798 134.507 60.8105 134.494C60.6478 134.481 60.485 134.475 60.3223 134.475C59.9186 134.475 59.5638 134.533 59.2578 134.65C58.9518 134.761 58.6947 134.924 58.4863 135.139C58.2845 135.347 58.1283 135.601 58.0176 135.9C57.9069 136.2 57.8418 136.535 57.8223 136.906L57.2852 136.945C57.2852 136.281 57.3503 135.666 57.4805 135.1C57.6107 134.533 57.806 134.035 58.0664 133.605C58.3333 133.176 58.6654 132.84 59.0625 132.6C59.4661 132.359 59.9316 132.238 60.459 132.238C60.6022 132.238 60.7552 132.251 60.918 132.277C61.0872 132.303 61.2142 132.333 61.2988 132.365ZM62.0703 137.834V137.609C62.0703 136.848 62.181 136.141 62.4023 135.49C62.6237 134.833 62.9427 134.263 63.3594 133.781C63.7826 133.293 64.2969 132.915 64.9023 132.648C65.5143 132.375 66.2044 132.238 66.9727 132.238C67.7474 132.238 68.4375 132.375 69.043 132.648C69.6549 132.915 70.1725 133.293 70.5957 133.781C71.0189 134.263 71.3411 134.833 71.5625 135.49C71.7839 136.141 71.8945 136.848 71.8945 137.609V137.834C71.8945 138.596 71.7839 139.302 71.5625 139.953C71.3411 140.604 71.0189 141.174 70.5957 141.662C70.1725 142.144 69.6582 142.521 69.0527 142.795C68.4473 143.062 67.7604 143.195 66.9922 143.195C66.2174 143.195 65.5241 143.062 64.9121 142.795C64.3066 142.521 63.7923 142.144 63.3691 141.662C62.946 141.174 62.6237 140.604 62.4023 139.953C62.181 139.302 62.0703 138.596 62.0703 137.834ZM64.4238 137.609V137.834C64.4238 138.309 64.4727 138.758 64.5703 139.182C64.668 139.605 64.821 139.976 65.0293 140.295C65.2376 140.614 65.5046 140.865 65.8301 141.047C66.1556 141.229 66.543 141.32 66.9922 141.32C67.4284 141.32 67.806 141.229 68.125 141.047C68.4505 140.865 68.7174 140.614 68.9258 140.295C69.1341 139.976 69.2871 139.605 69.3848 139.182C69.4889 138.758 69.541 138.309 69.541 137.834V137.609C69.541 137.141 69.4889 136.698 69.3848 136.281C69.2871 135.858 69.1309 135.484 68.916 135.158C68.7077 134.833 68.4408 134.579 68.1152 134.396C67.7962 134.208 67.4154 134.113 66.9727 134.113C66.5299 134.113 66.1458 134.208 65.8203 134.396C65.5013 134.579 65.2376 134.833 65.0293 135.158C64.821 135.484 64.668 135.858 64.5703 136.281C64.4727 136.698 64.4238 137.141 64.4238 137.609ZM76.2207 134.582V143H73.8672V132.434H76.084L76.2207 134.582ZM75.8398 137.326L75.0391 137.316C75.0391 136.587 75.1302 135.913 75.3125 135.295C75.4948 134.676 75.7617 134.139 76.1133 133.684C76.4648 133.221 76.901 132.867 77.4219 132.619C77.9492 132.365 78.5579 132.238 79.248 132.238C79.7298 132.238 80.1693 132.31 80.5664 132.453C80.9701 132.59 81.3184 132.808 81.6113 133.107C81.9108 133.407 82.1387 133.791 82.2949 134.26C82.4577 134.729 82.5391 135.295 82.5391 135.959V143H80.1855V136.164C80.1855 135.65 80.1074 135.246 79.9512 134.953C79.8014 134.66 79.5833 134.452 79.2969 134.328C79.0169 134.198 78.6816 134.133 78.291 134.133C77.8483 134.133 77.4707 134.217 77.1582 134.387C76.8522 134.556 76.6016 134.787 76.4062 135.08C76.2109 135.373 76.0677 135.712 75.9766 136.096C75.8854 136.48 75.8398 136.89 75.8398 137.326ZM82.3926 136.701L81.2891 136.945C81.2891 136.307 81.377 135.705 81.5527 135.139C81.735 134.566 81.9987 134.064 82.3438 133.635C82.6953 133.199 83.1283 132.857 83.6426 132.609C84.1569 132.362 84.7461 132.238 85.4102 132.238C85.9505 132.238 86.4323 132.313 86.8555 132.463C87.2852 132.606 87.6497 132.834 87.9492 133.146C88.2487 133.459 88.4766 133.866 88.6328 134.367C88.7891 134.862 88.8672 135.461 88.8672 136.164V143H86.5039V136.154C86.5039 135.62 86.4258 135.207 86.2695 134.914C86.1198 134.621 85.9049 134.419 85.625 134.309C85.3451 134.191 85.0098 134.133 84.6191 134.133C84.2546 134.133 83.9323 134.201 83.6523 134.338C83.3789 134.468 83.1478 134.654 82.959 134.895C82.7702 135.129 82.627 135.399 82.5293 135.705C82.4382 136.011 82.3926 136.343 82.3926 136.701ZM93.6523 134.465V147.062H91.2988V132.434H93.4668L93.6523 134.465ZM100.537 137.619V137.824C100.537 138.592 100.446 139.305 100.264 139.963C100.088 140.614 99.8242 141.184 99.4727 141.672C99.1276 142.154 98.7012 142.528 98.1934 142.795C97.6855 143.062 97.0996 143.195 96.4355 143.195C95.778 143.195 95.2018 143.075 94.707 142.834C94.2188 142.587 93.8053 142.238 93.4668 141.789C93.1283 141.34 92.8548 140.812 92.6465 140.207C92.4447 139.595 92.3014 138.924 92.2168 138.195V137.404C92.3014 136.63 92.4447 135.926 92.6465 135.295C92.8548 134.663 93.1283 134.12 93.4668 133.664C93.8053 133.208 94.2188 132.857 94.707 132.609C95.1953 132.362 95.765 132.238 96.416 132.238C97.0801 132.238 97.6693 132.368 98.1836 132.629C98.6979 132.883 99.1309 133.247 99.4824 133.723C99.834 134.191 100.098 134.758 100.273 135.422C100.449 136.079 100.537 136.812 100.537 137.619ZM98.1836 137.824V137.619C98.1836 137.131 98.138 136.678 98.0469 136.262C97.9557 135.839 97.8125 135.467 97.6172 135.148C97.4219 134.829 97.1712 134.582 96.8652 134.406C96.5658 134.224 96.2044 134.133 95.7812 134.133C95.3646 134.133 95.0065 134.204 94.707 134.348C94.4076 134.484 94.1569 134.676 93.9551 134.924C93.7533 135.171 93.597 135.461 93.4863 135.793C93.3757 136.118 93.2975 136.473 93.252 136.857V138.752C93.3301 139.221 93.4635 139.65 93.6523 140.041C93.8411 140.432 94.1081 140.744 94.4531 140.979C94.8047 141.206 95.2539 141.32 95.8008 141.32C96.224 141.32 96.5853 141.229 96.8848 141.047C97.1842 140.865 97.4284 140.614 97.6172 140.295C97.8125 139.969 97.9557 139.595 98.0469 139.172C98.138 138.749 98.1836 138.299 98.1836 137.824ZM107.383 132.434V134.152H101.426V132.434H107.383ZM103.145 129.846H105.498V140.08C105.498 140.406 105.544 140.656 105.635 140.832C105.732 141.001 105.866 141.115 106.035 141.174C106.204 141.232 106.403 141.262 106.631 141.262C106.794 141.262 106.95 141.252 107.1 141.232C107.249 141.213 107.37 141.193 107.461 141.174L107.471 142.971C107.275 143.029 107.048 143.081 106.787 143.127C106.533 143.173 106.24 143.195 105.908 143.195C105.368 143.195 104.889 143.101 104.473 142.912C104.056 142.717 103.73 142.401 103.496 141.965C103.262 141.529 103.145 140.949 103.145 140.227V129.846ZM115.127 140.139C115.127 139.904 115.068 139.693 114.951 139.504C114.834 139.309 114.609 139.133 114.277 138.977C113.952 138.82 113.47 138.677 112.832 138.547C112.272 138.423 111.758 138.277 111.289 138.107C110.827 137.932 110.43 137.72 110.098 137.473C109.766 137.225 109.508 136.932 109.326 136.594C109.144 136.255 109.053 135.865 109.053 135.422C109.053 134.992 109.147 134.585 109.336 134.201C109.525 133.817 109.795 133.479 110.146 133.186C110.498 132.893 110.924 132.661 111.426 132.492C111.934 132.323 112.5 132.238 113.125 132.238C114.01 132.238 114.769 132.388 115.4 132.688C116.038 132.98 116.527 133.381 116.865 133.889C117.204 134.39 117.373 134.956 117.373 135.588H115.02C115.02 135.308 114.948 135.048 114.805 134.807C114.668 134.559 114.46 134.361 114.18 134.211C113.9 134.055 113.548 133.977 113.125 133.977C112.721 133.977 112.386 134.042 112.119 134.172C111.859 134.296 111.663 134.458 111.533 134.66C111.41 134.862 111.348 135.083 111.348 135.324C111.348 135.5 111.38 135.66 111.445 135.803C111.517 135.939 111.634 136.066 111.797 136.184C111.96 136.294 112.181 136.398 112.461 136.496C112.747 136.594 113.105 136.688 113.535 136.779C114.342 136.949 115.036 137.167 115.615 137.434C116.201 137.694 116.65 138.033 116.963 138.449C117.275 138.859 117.432 139.38 117.432 140.012C117.432 140.48 117.331 140.91 117.129 141.301C116.934 141.685 116.647 142.02 116.27 142.307C115.892 142.587 115.439 142.805 114.912 142.961C114.391 143.117 113.805 143.195 113.154 143.195C112.197 143.195 111.387 143.026 110.723 142.688C110.059 142.342 109.554 141.903 109.209 141.369C108.87 140.829 108.701 140.269 108.701 139.689H110.977C111.003 140.126 111.123 140.474 111.338 140.734C111.559 140.988 111.833 141.174 112.158 141.291C112.49 141.402 112.832 141.457 113.184 141.457C113.607 141.457 113.962 141.402 114.248 141.291C114.535 141.174 114.753 141.018 114.902 140.822C115.052 140.62 115.127 140.393 115.127 140.139Z" fill="#33373D"/>
<path d="M23.4805 167.927V169H18.5039V167.927H23.4805ZM18.7637 159.047V169H17.4443V159.047H18.7637ZM31.0273 167.927V169H26.0508V167.927H31.0273ZM26.3105 159.047V169H24.9912V159.047H26.3105ZM32.9551 159.047H34.2334L37.4941 167.161L40.748 159.047H42.0332L37.9863 169H36.9883L32.9551 159.047ZM32.5381 159.047H33.666L33.8506 165.117V169H32.5381V159.047ZM41.3154 159.047H42.4434V169H41.1309V165.117L41.3154 159.047ZM52.4238 163.709V164.338C52.4238 165.085 52.3304 165.755 52.1436 166.348C51.9567 166.94 51.6878 167.444 51.3369 167.858C50.986 168.273 50.5645 168.59 50.0723 168.809C49.5846 169.027 49.0378 169.137 48.4316 169.137C47.8438 169.137 47.3037 169.027 46.8115 168.809C46.3239 168.59 45.9001 168.273 45.54 167.858C45.1846 167.444 44.9089 166.94 44.7129 166.348C44.5169 165.755 44.4189 165.085 44.4189 164.338V163.709C44.4189 162.962 44.5146 162.294 44.7061 161.706C44.902 161.114 45.1777 160.61 45.5332 160.195C45.8887 159.776 46.3102 159.457 46.7979 159.238C47.29 159.02 47.8301 158.91 48.418 158.91C49.0241 158.91 49.571 159.02 50.0586 159.238C50.5508 159.457 50.9723 159.776 51.3232 160.195C51.6787 160.61 51.9499 161.114 52.1367 161.706C52.3281 162.294 52.4238 162.962 52.4238 163.709ZM51.1182 164.338V163.695C51.1182 163.103 51.0566 162.579 50.9336 162.123C50.8151 161.667 50.6396 161.285 50.4072 160.975C50.1748 160.665 49.89 160.43 49.5527 160.271C49.2201 160.111 48.8418 160.031 48.418 160.031C48.0078 160.031 47.6364 160.111 47.3037 160.271C46.9756 160.43 46.693 160.665 46.4561 160.975C46.2236 161.285 46.0436 161.667 45.916 162.123C45.7884 162.579 45.7246 163.103 45.7246 163.695V164.338C45.7246 164.935 45.7884 165.464 45.916 165.924C46.0436 166.38 46.2259 166.765 46.4629 167.079C46.7044 167.389 46.9893 167.624 47.3174 167.783C47.6501 167.943 48.0215 168.022 48.4316 168.022C48.86 168.022 49.2406 167.943 49.5732 167.783C49.9059 167.624 50.1862 167.389 50.4141 167.079C50.6465 166.765 50.8219 166.38 50.9404 165.924C51.0589 165.464 51.1182 164.935 51.1182 164.338ZM55.4727 163.025V171.844H54.2012V161.604H55.3633L55.4727 163.025ZM60.4561 165.24V165.384C60.4561 165.922 60.3923 166.421 60.2646 166.881C60.137 167.337 59.9502 167.733 59.7041 168.07C59.4626 168.408 59.1641 168.67 58.8086 168.856C58.4531 169.043 58.0452 169.137 57.585 169.137C57.1156 169.137 56.7008 169.059 56.3408 168.904C55.9808 168.749 55.6755 168.524 55.4248 168.228C55.1742 167.931 54.9736 167.576 54.8232 167.161C54.6774 166.746 54.5771 166.279 54.5225 165.76V164.994C54.5771 164.447 54.6797 163.957 54.8301 163.524C54.9805 163.091 55.1787 162.722 55.4248 162.417C55.6755 162.107 55.9785 161.872 56.334 161.713C56.6895 161.549 57.0996 161.467 57.5645 161.467C58.0293 161.467 58.4417 161.558 58.8018 161.74C59.1618 161.918 59.4648 162.173 59.7109 162.506C59.957 162.839 60.1416 163.237 60.2646 163.702C60.3923 164.162 60.4561 164.675 60.4561 165.24ZM59.1846 165.384V165.24C59.1846 164.871 59.1458 164.525 59.0684 164.201C58.9909 163.873 58.8701 163.586 58.7061 163.34C58.5465 163.089 58.3415 162.893 58.0908 162.752C57.8402 162.606 57.5417 162.533 57.1953 162.533C56.8763 162.533 56.5983 162.588 56.3613 162.697C56.1289 162.807 55.9307 162.955 55.7666 163.142C55.6025 163.324 55.4681 163.534 55.3633 163.771C55.263 164.003 55.1878 164.244 55.1377 164.495V166.266C55.2288 166.585 55.3564 166.885 55.5205 167.168C55.6846 167.446 55.9033 167.672 56.1768 167.845C56.4502 168.013 56.7943 168.098 57.209 168.098C57.5508 168.098 57.8447 168.027 58.0908 167.886C58.3415 167.74 58.5465 167.542 58.7061 167.291C58.8701 167.04 58.9909 166.753 59.0684 166.43C59.1458 166.102 59.1846 165.753 59.1846 165.384ZM66.376 167.038C66.376 166.856 66.335 166.687 66.2529 166.532C66.1755 166.373 66.0137 166.229 65.7676 166.102C65.526 165.969 65.1615 165.855 64.6738 165.76C64.2637 165.673 63.8923 165.571 63.5596 165.452C63.2314 165.334 62.9512 165.19 62.7188 165.021C62.4909 164.853 62.3154 164.655 62.1924 164.427C62.0693 164.199 62.0078 163.932 62.0078 163.627C62.0078 163.335 62.0716 163.06 62.1992 162.8C62.3314 162.54 62.516 162.31 62.7529 162.109C62.9945 161.909 63.2839 161.752 63.6211 161.638C63.9583 161.524 64.3343 161.467 64.749 161.467C65.3415 161.467 65.8473 161.572 66.2666 161.781C66.6859 161.991 67.0072 162.271 67.2305 162.622C67.4538 162.968 67.5654 163.354 67.5654 163.777H66.3008C66.3008 163.572 66.2393 163.374 66.1162 163.183C65.9977 162.987 65.8223 162.825 65.5898 162.697C65.362 162.57 65.0817 162.506 64.749 162.506C64.3981 162.506 64.1133 162.561 63.8945 162.67C63.6803 162.775 63.5231 162.909 63.4229 163.073C63.3271 163.237 63.2793 163.41 63.2793 163.593C63.2793 163.729 63.3021 163.853 63.3477 163.962C63.3978 164.067 63.4844 164.165 63.6074 164.256C63.7305 164.342 63.9036 164.424 64.127 164.502C64.3503 164.579 64.6351 164.657 64.9814 164.734C65.5876 164.871 66.0866 165.035 66.4785 165.227C66.8704 165.418 67.1621 165.653 67.3535 165.931C67.5449 166.209 67.6406 166.546 67.6406 166.942C67.6406 167.266 67.5723 167.562 67.4355 167.831C67.3034 168.1 67.1097 168.332 66.8545 168.528C66.6038 168.72 66.3031 168.87 65.9521 168.979C65.6058 169.084 65.2161 169.137 64.7832 169.137C64.1315 169.137 63.5801 169.021 63.1289 168.788C62.6777 168.556 62.3359 168.255 62.1035 167.886C61.8711 167.517 61.7549 167.127 61.7549 166.717H63.0264C63.0446 167.063 63.1449 167.339 63.3271 167.544C63.5094 167.744 63.7327 167.888 63.9971 167.975C64.2614 168.057 64.5234 168.098 64.7832 168.098C65.1296 168.098 65.4189 168.052 65.6514 167.961C65.8883 167.87 66.0684 167.744 66.1914 167.585C66.3145 167.425 66.376 167.243 66.376 167.038ZM77.1357 167.735V163.928C77.1357 163.636 77.0765 163.383 76.958 163.169C76.8441 162.95 76.6709 162.782 76.4385 162.663C76.2061 162.545 75.9189 162.485 75.5771 162.485C75.2581 162.485 74.9779 162.54 74.7363 162.649C74.4993 162.759 74.3125 162.902 74.1758 163.08C74.0436 163.258 73.9775 163.449 73.9775 163.654H72.7129C72.7129 163.39 72.7812 163.128 72.918 162.868C73.0547 162.608 73.2507 162.374 73.5059 162.164C73.7656 161.95 74.0755 161.781 74.4355 161.658C74.8001 161.531 75.2057 161.467 75.6523 161.467C76.1901 161.467 76.6641 161.558 77.0742 161.74C77.4889 161.923 77.8125 162.198 78.0449 162.567C78.2819 162.932 78.4004 163.39 78.4004 163.941V167.387C78.4004 167.633 78.4209 167.895 78.4619 168.173C78.5075 168.451 78.5736 168.69 78.6602 168.891V169H77.3408C77.277 168.854 77.2269 168.66 77.1904 168.419C77.154 168.173 77.1357 167.945 77.1357 167.735ZM77.3545 164.516L77.3682 165.404H76.0898C75.7298 165.404 75.4085 165.434 75.126 165.493C74.8434 165.548 74.6064 165.632 74.415 165.746C74.2236 165.86 74.0778 166.004 73.9775 166.177C73.8773 166.345 73.8271 166.544 73.8271 166.771C73.8271 167.004 73.8796 167.216 73.9844 167.407C74.0892 167.599 74.2464 167.751 74.4561 167.865C74.6702 167.975 74.9323 168.029 75.2422 168.029C75.6296 168.029 75.9714 167.947 76.2676 167.783C76.5638 167.619 76.7985 167.419 76.9717 167.182C77.1494 166.945 77.2451 166.715 77.2588 166.491L77.7988 167.1C77.7669 167.291 77.6803 167.503 77.5391 167.735C77.3978 167.968 77.2087 168.191 76.9717 168.405C76.7393 168.615 76.4613 168.79 76.1377 168.932C75.8187 169.068 75.4587 169.137 75.0576 169.137C74.5563 169.137 74.1165 169.039 73.7383 168.843C73.3646 168.647 73.0729 168.385 72.8633 168.057C72.6582 167.724 72.5557 167.353 72.5557 166.942C72.5557 166.546 72.6331 166.197 72.7881 165.896C72.943 165.591 73.1663 165.338 73.458 165.138C73.7497 164.933 74.1006 164.778 74.5107 164.673C74.9209 164.568 75.3789 164.516 75.8848 164.516H77.3545ZM81.6543 163.183V169H80.3896V161.604H81.5859L81.6543 163.183ZM81.3535 165.021L80.8271 165.001C80.8317 164.495 80.9069 164.028 81.0527 163.6C81.1986 163.167 81.4036 162.791 81.668 162.472C81.9323 162.153 82.2467 161.907 82.6113 161.733C82.9805 161.556 83.3883 161.467 83.835 161.467C84.1995 161.467 84.5277 161.517 84.8193 161.617C85.111 161.713 85.3594 161.868 85.5645 162.082C85.7741 162.296 85.9336 162.574 86.043 162.916C86.1523 163.253 86.207 163.666 86.207 164.153V169H84.9355V164.14C84.9355 163.752 84.8786 163.442 84.7646 163.21C84.6507 162.973 84.4844 162.802 84.2656 162.697C84.0469 162.588 83.778 162.533 83.459 162.533C83.1445 162.533 82.8574 162.599 82.5977 162.731C82.3424 162.864 82.1214 163.046 81.9346 163.278C81.7523 163.511 81.6087 163.777 81.5039 164.078C81.4036 164.374 81.3535 164.689 81.3535 165.021ZM92.79 167.564V158.5H94.0615V169H92.8994L92.79 167.564ZM87.8135 165.384V165.24C87.8135 164.675 87.8818 164.162 88.0186 163.702C88.1598 163.237 88.3581 162.839 88.6133 162.506C88.873 162.173 89.1807 161.918 89.5361 161.74C89.8962 161.558 90.2972 161.467 90.7393 161.467C91.2041 161.467 91.6097 161.549 91.9561 161.713C92.307 161.872 92.6032 162.107 92.8447 162.417C93.0908 162.722 93.2845 163.091 93.4258 163.524C93.5671 163.957 93.665 164.447 93.7197 164.994V165.623C93.6696 166.165 93.5716 166.653 93.4258 167.086C93.2845 167.519 93.0908 167.888 92.8447 168.193C92.6032 168.499 92.307 168.733 91.9561 168.897C91.6051 169.057 91.195 169.137 90.7256 169.137C90.2926 169.137 89.8962 169.043 89.5361 168.856C89.1807 168.67 88.873 168.408 88.6133 168.07C88.3581 167.733 88.1598 167.337 88.0186 166.881C87.8818 166.421 87.8135 165.922 87.8135 165.384ZM89.085 165.24V165.384C89.085 165.753 89.1214 166.099 89.1943 166.423C89.2718 166.746 89.3903 167.031 89.5498 167.277C89.7093 167.523 89.9121 167.717 90.1582 167.858C90.4043 167.995 90.6982 168.063 91.04 168.063C91.4593 168.063 91.8034 167.975 92.0723 167.797C92.3457 167.619 92.5645 167.384 92.7285 167.093C92.8926 166.801 93.0202 166.484 93.1113 166.143V164.495C93.0566 164.244 92.9769 164.003 92.8721 163.771C92.7718 163.534 92.6396 163.324 92.4756 163.142C92.3161 162.955 92.1178 162.807 91.8809 162.697C91.6484 162.588 91.3727 162.533 91.0537 162.533C90.7074 162.533 90.4089 162.606 90.1582 162.752C89.9121 162.893 89.7093 163.089 89.5498 163.34C89.3903 163.586 89.2718 163.873 89.1943 164.201C89.1214 164.525 89.085 164.871 89.085 165.24ZM100.768 163.025V171.844H99.4961V161.604H100.658L100.768 163.025ZM105.751 165.24V165.384C105.751 165.922 105.687 166.421 105.56 166.881C105.432 167.337 105.245 167.733 104.999 168.07C104.757 168.408 104.459 168.67 104.104 168.856C103.748 169.043 103.34 169.137 102.88 169.137C102.41 169.137 101.996 169.059 101.636 168.904C101.276 168.749 100.97 168.524 100.72 168.228C100.469 167.931 100.269 167.576 100.118 167.161C99.9723 166.746 99.8721 166.279 99.8174 165.76V164.994C99.8721 164.447 99.9746 163.957 100.125 163.524C100.275 163.091 100.474 162.722 100.72 162.417C100.97 162.107 101.273 161.872 101.629 161.713C101.984 161.549 102.395 161.467 102.859 161.467C103.324 161.467 103.737 161.558 104.097 161.74C104.457 161.918 104.76 162.173 105.006 162.506C105.252 162.839 105.437 163.237 105.56 163.702C105.687 164.162 105.751 164.675 105.751 165.24ZM104.479 165.384V165.24C104.479 164.871 104.441 164.525 104.363 164.201C104.286 163.873 104.165 163.586 104.001 163.34C103.841 163.089 103.636 162.893 103.386 162.752C103.135 162.606 102.837 162.533 102.49 162.533C102.171 162.533 101.893 162.588 101.656 162.697C101.424 162.807 101.226 162.955 101.062 163.142C100.897 163.324 100.763 163.534 100.658 163.771C100.558 164.003 100.483 164.244 100.433 164.495V166.266C100.524 166.585 100.651 166.885 100.815 167.168C100.979 167.446 101.198 167.672 101.472 167.845C101.745 168.013 102.089 168.098 102.504 168.098C102.846 168.098 103.14 168.027 103.386 167.886C103.636 167.74 103.841 167.542 104.001 167.291C104.165 167.04 104.286 166.753 104.363 166.43C104.441 166.102 104.479 165.753 104.479 165.384ZM108.629 162.766V169H107.364V161.604H108.595L108.629 162.766ZM110.939 161.562L110.933 162.738C110.828 162.715 110.728 162.702 110.632 162.697C110.541 162.688 110.436 162.684 110.317 162.684C110.026 162.684 109.768 162.729 109.545 162.82C109.322 162.911 109.132 163.039 108.978 163.203C108.823 163.367 108.7 163.563 108.608 163.791C108.522 164.014 108.465 164.26 108.438 164.529L108.082 164.734C108.082 164.288 108.125 163.868 108.212 163.477C108.303 163.085 108.442 162.738 108.629 162.438C108.816 162.132 109.053 161.895 109.34 161.727C109.632 161.553 109.978 161.467 110.379 161.467C110.47 161.467 110.575 161.478 110.693 161.501C110.812 161.519 110.894 161.54 110.939 161.562ZM111.637 165.384V165.227C111.637 164.693 111.714 164.199 111.869 163.743C112.024 163.283 112.247 162.884 112.539 162.547C112.831 162.205 113.184 161.941 113.599 161.754C114.013 161.562 114.478 161.467 114.993 161.467C115.513 161.467 115.98 161.562 116.395 161.754C116.814 161.941 117.169 162.205 117.461 162.547C117.757 162.884 117.983 163.283 118.138 163.743C118.293 164.199 118.37 164.693 118.37 165.227V165.384C118.37 165.917 118.293 166.411 118.138 166.867C117.983 167.323 117.757 167.722 117.461 168.063C117.169 168.401 116.816 168.665 116.401 168.856C115.991 169.043 115.526 169.137 115.007 169.137C114.487 169.137 114.02 169.043 113.605 168.856C113.191 168.665 112.835 168.401 112.539 168.063C112.247 167.722 112.024 167.323 111.869 166.867C111.714 166.411 111.637 165.917 111.637 165.384ZM112.901 165.227V165.384C112.901 165.753 112.945 166.102 113.031 166.43C113.118 166.753 113.248 167.04 113.421 167.291C113.599 167.542 113.82 167.74 114.084 167.886C114.348 168.027 114.656 168.098 115.007 168.098C115.353 168.098 115.656 168.027 115.916 167.886C116.18 167.74 116.399 167.542 116.572 167.291C116.745 167.04 116.875 166.753 116.962 166.43C117.053 166.102 117.099 165.753 117.099 165.384V165.227C117.099 164.862 117.053 164.518 116.962 164.194C116.875 163.866 116.743 163.577 116.565 163.326C116.392 163.071 116.174 162.87 115.909 162.725C115.649 162.579 115.344 162.506 114.993 162.506C114.647 162.506 114.341 162.579 114.077 162.725C113.817 162.87 113.599 163.071 113.421 163.326C113.248 163.577 113.118 163.866 113.031 164.194C112.945 164.518 112.901 164.862 112.901 165.227ZM121.214 163.073V169H119.942V161.604H121.146L121.214 163.073ZM120.954 165.021L120.366 165.001C120.371 164.495 120.437 164.028 120.564 163.6C120.692 163.167 120.881 162.791 121.132 162.472C121.382 162.153 121.695 161.907 122.068 161.733C122.442 161.556 122.875 161.467 123.367 161.467C123.714 161.467 124.033 161.517 124.324 161.617C124.616 161.713 124.869 161.866 125.083 162.075C125.297 162.285 125.464 162.554 125.582 162.882C125.701 163.21 125.76 163.606 125.76 164.071V169H124.495V164.133C124.495 163.745 124.429 163.436 124.297 163.203C124.169 162.971 123.987 162.802 123.75 162.697C123.513 162.588 123.235 162.533 122.916 162.533C122.542 162.533 122.23 162.599 121.979 162.731C121.729 162.864 121.528 163.046 121.378 163.278C121.228 163.511 121.118 163.777 121.05 164.078C120.986 164.374 120.954 164.689 120.954 165.021ZM125.746 164.324L124.898 164.584C124.903 164.178 124.969 163.789 125.097 163.415C125.229 163.041 125.418 162.709 125.664 162.417C125.915 162.125 126.222 161.895 126.587 161.727C126.951 161.553 127.368 161.467 127.838 161.467C128.234 161.467 128.585 161.519 128.891 161.624C129.201 161.729 129.46 161.891 129.67 162.109C129.884 162.324 130.046 162.599 130.155 162.937C130.265 163.274 130.319 163.675 130.319 164.14V169H129.048V164.126C129.048 163.711 128.982 163.39 128.85 163.162C128.722 162.93 128.54 162.768 128.303 162.677C128.07 162.581 127.792 162.533 127.469 162.533C127.191 162.533 126.945 162.581 126.73 162.677C126.516 162.772 126.336 162.905 126.19 163.073C126.045 163.237 125.933 163.426 125.855 163.641C125.783 163.855 125.746 164.083 125.746 164.324ZM133.498 163.025V171.844H132.227V161.604H133.389L133.498 163.025ZM138.481 165.24V165.384C138.481 165.922 138.418 166.421 138.29 166.881C138.162 167.337 137.976 167.733 137.729 168.07C137.488 168.408 137.189 168.67 136.834 168.856C136.479 169.043 136.071 169.137 135.61 169.137C135.141 169.137 134.726 169.059 134.366 168.904C134.006 168.749 133.701 168.524 133.45 168.228C133.2 167.931 132.999 167.576 132.849 167.161C132.703 166.746 132.603 166.279 132.548 165.76V164.994C132.603 164.447 132.705 163.957 132.855 163.524C133.006 163.091 133.204 162.722 133.45 162.417C133.701 162.107 134.004 161.872 134.359 161.713C134.715 161.549 135.125 161.467 135.59 161.467C136.055 161.467 136.467 161.558 136.827 161.74C137.187 161.918 137.49 162.173 137.736 162.506C137.982 162.839 138.167 163.237 138.29 163.702C138.418 164.162 138.481 164.675 138.481 165.24ZM137.21 165.384V165.24C137.21 164.871 137.171 164.525 137.094 164.201C137.016 163.873 136.896 163.586 136.731 163.34C136.572 163.089 136.367 162.893 136.116 162.752C135.866 162.606 135.567 162.533 135.221 162.533C134.902 162.533 134.624 162.588 134.387 162.697C134.154 162.807 133.956 162.955 133.792 163.142C133.628 163.324 133.493 163.534 133.389 163.771C133.288 164.003 133.213 164.244 133.163 164.495V166.266C133.254 166.585 133.382 166.885 133.546 167.168C133.71 167.446 133.929 167.672 134.202 167.845C134.476 168.013 134.82 168.098 135.234 168.098C135.576 168.098 135.87 168.027 136.116 167.886C136.367 167.74 136.572 167.542 136.731 167.291C136.896 167.04 137.016 166.753 137.094 166.43C137.171 166.102 137.21 165.753 137.21 165.384ZM143.191 161.604V162.574H139.192V161.604H143.191ZM140.546 159.806H141.811V167.168C141.811 167.419 141.849 167.608 141.927 167.735C142.004 167.863 142.104 167.947 142.228 167.988C142.351 168.029 142.483 168.05 142.624 168.05C142.729 168.05 142.838 168.041 142.952 168.022C143.071 168 143.16 167.981 143.219 167.968L143.226 169C143.125 169.032 142.993 169.062 142.829 169.089C142.67 169.121 142.476 169.137 142.248 169.137C141.938 169.137 141.653 169.075 141.394 168.952C141.134 168.829 140.926 168.624 140.771 168.337C140.621 168.045 140.546 167.653 140.546 167.161V159.806ZM47.6523 189.137C47.1374 189.137 46.6702 189.05 46.251 188.877C45.8363 188.699 45.4785 188.451 45.1777 188.132C44.8815 187.813 44.6536 187.435 44.4941 186.997C44.3346 186.56 44.2549 186.081 44.2549 185.562V185.274C44.2549 184.673 44.3438 184.137 44.5215 183.668C44.6992 183.194 44.9408 182.793 45.2461 182.465C45.5514 182.137 45.8978 181.888 46.2852 181.72C46.6725 181.551 47.0736 181.467 47.4883 181.467C48.0169 181.467 48.4727 181.558 48.8555 181.74C49.2428 181.923 49.5596 182.178 49.8057 182.506C50.0518 182.829 50.234 183.212 50.3525 183.654C50.471 184.092 50.5303 184.57 50.5303 185.09V185.657H45.0068V184.625H49.2656V184.529C49.2474 184.201 49.179 183.882 49.0605 183.572C48.9466 183.262 48.7643 183.007 48.5137 182.807C48.263 182.606 47.9212 182.506 47.4883 182.506C47.2012 182.506 46.9368 182.567 46.6953 182.69C46.4538 182.809 46.2464 182.987 46.0732 183.224C45.9001 183.461 45.7656 183.75 45.6699 184.092C45.5742 184.434 45.5264 184.828 45.5264 185.274V185.562C45.5264 185.912 45.5742 186.243 45.6699 186.553C45.7702 186.858 45.9137 187.127 46.1006 187.359C46.292 187.592 46.5221 187.774 46.791 187.906C47.0645 188.038 47.3743 188.104 47.7207 188.104C48.1673 188.104 48.5456 188.013 48.8555 187.831C49.1654 187.649 49.4365 187.405 49.6689 187.1L50.4346 187.708C50.2751 187.95 50.0723 188.18 49.8262 188.398C49.5801 188.617 49.277 188.795 48.917 188.932C48.5615 189.068 48.14 189.137 47.6523 189.137ZM53.2715 183.183V189H52.0068V181.604H53.2031L53.2715 183.183ZM52.9707 185.021L52.4443 185.001C52.4489 184.495 52.5241 184.028 52.6699 183.6C52.8158 183.167 53.0208 182.791 53.2852 182.472C53.5495 182.153 53.8639 181.907 54.2285 181.733C54.5977 181.556 55.0055 181.467 55.4521 181.467C55.8167 181.467 56.1449 181.517 56.4365 181.617C56.7282 181.713 56.9766 181.868 57.1816 182.082C57.3913 182.296 57.5508 182.574 57.6602 182.916C57.7695 183.253 57.8242 183.666 57.8242 184.153V189H56.5527V184.14C56.5527 183.752 56.4958 183.442 56.3818 183.21C56.2679 182.973 56.1016 182.802 55.8828 182.697C55.6641 182.588 55.3952 182.533 55.0762 182.533C54.7617 182.533 54.4746 182.599 54.2148 182.731C53.9596 182.864 53.7386 183.046 53.5518 183.278C53.3695 183.511 53.2259 183.777 53.1211 184.078C53.0208 184.374 52.9707 184.689 52.9707 185.021ZM64.5371 181.604H65.6855V188.843C65.6855 189.494 65.5534 190.05 65.2891 190.511C65.0247 190.971 64.6556 191.32 64.1816 191.557C63.7122 191.798 63.1699 191.919 62.5547 191.919C62.2995 191.919 61.9987 191.878 61.6523 191.796C61.3105 191.718 60.9733 191.584 60.6406 191.393C60.3125 191.206 60.0368 190.953 59.8135 190.634L60.4766 189.882C60.7865 190.256 61.11 190.515 61.4473 190.661C61.7891 190.807 62.1263 190.88 62.459 190.88C62.86 190.88 63.2064 190.805 63.498 190.654C63.7897 190.504 64.0153 190.281 64.1748 189.984C64.3389 189.693 64.4209 189.333 64.4209 188.904V183.23L64.5371 181.604ZM59.4443 185.384V185.24C59.4443 184.675 59.5104 184.162 59.6426 183.702C59.7793 183.237 59.973 182.839 60.2236 182.506C60.4788 182.173 60.7865 181.918 61.1465 181.74C61.5065 181.558 61.9121 181.467 62.3633 181.467C62.8281 181.467 63.2337 181.549 63.5801 181.713C63.931 181.872 64.2272 182.107 64.4688 182.417C64.7148 182.722 64.9085 183.091 65.0498 183.524C65.1911 183.957 65.2891 184.447 65.3438 184.994V185.623C65.2936 186.165 65.1956 186.653 65.0498 187.086C64.9085 187.519 64.7148 187.888 64.4688 188.193C64.2272 188.499 63.931 188.733 63.5801 188.897C63.2292 189.057 62.819 189.137 62.3496 189.137C61.9076 189.137 61.5065 189.043 61.1465 188.856C60.791 188.67 60.4857 188.408 60.2305 188.07C59.9753 187.733 59.7793 187.337 59.6426 186.881C59.5104 186.421 59.4443 185.922 59.4443 185.384ZM60.709 185.24V185.384C60.709 185.753 60.7454 186.099 60.8184 186.423C60.8958 186.746 61.012 187.031 61.167 187.277C61.3265 187.523 61.5293 187.717 61.7754 187.858C62.0215 187.995 62.3154 188.063 62.6572 188.063C63.0765 188.063 63.4229 187.975 63.6963 187.797C63.9697 187.619 64.1862 187.384 64.3457 187.093C64.5098 186.801 64.6374 186.484 64.7285 186.143V184.495C64.6784 184.244 64.6009 184.003 64.4961 183.771C64.3958 183.534 64.2637 183.324 64.0996 183.142C63.9401 182.955 63.7419 182.807 63.5049 182.697C63.2679 182.588 62.9899 182.533 62.6709 182.533C62.3245 182.533 62.026 182.606 61.7754 182.752C61.5293 182.893 61.3265 183.089 61.167 183.34C61.012 183.586 60.8958 183.873 60.8184 184.201C60.7454 184.525 60.709 184.871 60.709 185.24ZM68.9805 181.604V189H67.709V181.604H68.9805ZM67.6133 179.642C67.6133 179.437 67.6748 179.263 67.7979 179.122C67.9255 178.981 68.1123 178.91 68.3584 178.91C68.5999 178.91 68.7845 178.981 68.9121 179.122C69.0443 179.263 69.1104 179.437 69.1104 179.642C69.1104 179.838 69.0443 180.006 68.9121 180.147C68.7845 180.284 68.5999 180.353 68.3584 180.353C68.1123 180.353 67.9255 180.284 67.7979 180.147C67.6748 180.006 67.6133 179.838 67.6133 179.642ZM72.2754 183.183V189H71.0107V181.604H72.207L72.2754 183.183ZM71.9746 185.021L71.4482 185.001C71.4528 184.495 71.528 184.028 71.6738 183.6C71.8197 183.167 72.0247 182.791 72.2891 182.472C72.5534 182.153 72.8678 181.907 73.2324 181.733C73.6016 181.556 74.0094 181.467 74.4561 181.467C74.8206 181.467 75.1488 181.517 75.4404 181.617C75.7321 181.713 75.9805 181.868 76.1855 182.082C76.3952 182.296 76.5547 182.574 76.6641 182.916C76.7734 183.253 76.8281 183.666 76.8281 184.153V189H75.5566V184.14C75.5566 183.752 75.4997 183.442 75.3857 183.21C75.2718 182.973 75.1055 182.802 74.8867 182.697C74.668 182.588 74.3991 182.533 74.0801 182.533C73.7656 182.533 73.4785 182.599 73.2188 182.731C72.9635 182.864 72.7425 183.046 72.5557 183.278C72.3734 183.511 72.2298 183.777 72.125 184.078C72.0247 184.374 71.9746 184.689 71.9746 185.021ZM81.8184 189.137C81.3034 189.137 80.8363 189.05 80.417 188.877C80.0023 188.699 79.6445 188.451 79.3438 188.132C79.0475 187.813 78.8197 187.435 78.6602 186.997C78.5007 186.56 78.4209 186.081 78.4209 185.562V185.274C78.4209 184.673 78.5098 184.137 78.6875 183.668C78.8652 183.194 79.1068 182.793 79.4121 182.465C79.7174 182.137 80.0638 181.888 80.4512 181.72C80.8385 181.551 81.2396 181.467 81.6543 181.467C82.1829 181.467 82.6387 181.558 83.0215 181.74C83.4089 181.923 83.7256 182.178 83.9717 182.506C84.2178 182.829 84.4001 183.212 84.5186 183.654C84.637 184.092 84.6963 184.57 84.6963 185.09V185.657H79.1729V184.625H83.4316V184.529C83.4134 184.201 83.3451 183.882 83.2266 183.572C83.1126 183.262 82.9303 183.007 82.6797 182.807C82.429 182.606 82.0872 182.506 81.6543 182.506C81.3672 182.506 81.1029 182.567 80.8613 182.69C80.6198 182.809 80.4124 182.987 80.2393 183.224C80.0661 183.461 79.9316 183.75 79.8359 184.092C79.7402 184.434 79.6924 184.828 79.6924 185.274V185.562C79.6924 185.912 79.7402 186.243 79.8359 186.553C79.9362 186.858 80.0798 187.127 80.2666 187.359C80.458 187.592 80.6882 187.774 80.957 187.906C81.2305 188.038 81.5404 188.104 81.8867 188.104C82.3333 188.104 82.7116 188.013 83.0215 187.831C83.3314 187.649 83.6025 187.405 83.835 187.1L84.6006 187.708C84.4411 187.95 84.2383 188.18 83.9922 188.398C83.7461 188.617 83.443 188.795 83.083 188.932C82.7275 189.068 82.306 189.137 81.8184 189.137ZM89.2422 189.137C88.7272 189.137 88.2601 189.05 87.8408 188.877C87.4261 188.699 87.0684 188.451 86.7676 188.132C86.4714 187.813 86.2435 187.435 86.084 186.997C85.9245 186.56 85.8447 186.081 85.8447 185.562V185.274C85.8447 184.673 85.9336 184.137 86.1113 183.668C86.2891 183.194 86.5306 182.793 86.8359 182.465C87.1413 182.137 87.4876 181.888 87.875 181.72C88.2624 181.551 88.6634 181.467 89.0781 181.467C89.6068 181.467 90.0625 181.558 90.4453 181.74C90.8327 181.923 91.1494 182.178 91.3955 182.506C91.6416 182.829 91.8239 183.212 91.9424 183.654C92.0609 184.092 92.1201 184.57 92.1201 185.09V185.657H86.5967V184.625H90.8555V184.529C90.8372 184.201 90.7689 183.882 90.6504 183.572C90.5365 183.262 90.3542 183.007 90.1035 182.807C89.8529 182.606 89.5111 182.506 89.0781 182.506C88.791 182.506 88.5267 182.567 88.2852 182.69C88.0436 182.809 87.8363 182.987 87.6631 183.224C87.4899 183.461 87.3555 183.75 87.2598 184.092C87.1641 184.434 87.1162 184.828 87.1162 185.274V185.562C87.1162 185.912 87.1641 186.243 87.2598 186.553C87.36 186.858 87.5036 187.127 87.6904 187.359C87.8818 187.592 88.112 187.774 88.3809 187.906C88.6543 188.038 88.9642 188.104 89.3105 188.104C89.7572 188.104 90.1354 188.013 90.4453 187.831C90.7552 187.649 91.0264 187.405 91.2588 187.1L92.0244 187.708C91.8649 187.95 91.6621 188.18 91.416 188.398C91.1699 188.617 90.8669 188.795 90.5068 188.932C90.1514 189.068 89.7298 189.137 89.2422 189.137ZM94.8613 182.766V189H93.5967V181.604H94.8271L94.8613 182.766ZM97.1719 181.562L97.165 182.738C97.0602 182.715 96.96 182.702 96.8643 182.697C96.7731 182.688 96.6683 182.684 96.5498 182.684C96.2581 182.684 96.0007 182.729 95.7773 182.82C95.554 182.911 95.3649 183.039 95.21 183.203C95.055 183.367 94.932 183.563 94.8408 183.791C94.7542 184.014 94.6973 184.26 94.6699 184.529L94.3145 184.734C94.3145 184.288 94.3577 183.868 94.4443 183.477C94.5355 183.085 94.6745 182.738 94.8613 182.438C95.0482 182.132 95.2852 181.895 95.5723 181.727C95.8639 181.553 96.2103 181.467 96.6113 181.467C96.7025 181.467 96.8073 181.478 96.9258 181.501C97.0443 181.519 97.1263 181.54 97.1719 181.562ZM99.7148 181.604V189H98.4434V181.604H99.7148ZM98.3477 179.642C98.3477 179.437 98.4092 179.263 98.5322 179.122C98.6598 178.981 98.8467 178.91 99.0928 178.91C99.3343 178.91 99.5189 178.981 99.6465 179.122C99.7786 179.263 99.8447 179.437 99.8447 179.642C99.8447 179.838 99.7786 180.006 99.6465 180.147C99.5189 180.284 99.3343 180.353 99.0928 180.353C98.8467 180.353 98.6598 180.284 98.5322 180.147C98.4092 180.006 98.3477 179.838 98.3477 179.642ZM103.01 183.183V189H101.745V181.604H102.941L103.01 183.183ZM102.709 185.021L102.183 185.001C102.187 184.495 102.262 184.028 102.408 183.6C102.554 183.167 102.759 182.791 103.023 182.472C103.288 182.153 103.602 181.907 103.967 181.733C104.336 181.556 104.744 181.467 105.19 181.467C105.555 181.467 105.883 181.517 106.175 181.617C106.466 181.713 106.715 181.868 106.92 182.082C107.13 182.296 107.289 182.574 107.398 182.916C107.508 183.253 107.562 183.666 107.562 184.153V189H106.291V184.14C106.291 183.752 106.234 183.442 106.12 183.21C106.006 182.973 105.84 182.802 105.621 182.697C105.402 182.588 105.133 182.533 104.814 182.533C104.5 182.533 104.213 182.599 103.953 182.731C103.698 182.864 103.477 183.046 103.29 183.278C103.108 183.511 102.964 183.777 102.859 184.078C102.759 184.374 102.709 184.689 102.709 185.021ZM114.275 181.604H115.424V188.843C115.424 189.494 115.292 190.05 115.027 190.511C114.763 190.971 114.394 191.32 113.92 191.557C113.451 191.798 112.908 191.919 112.293 191.919C112.038 191.919 111.737 191.878 111.391 191.796C111.049 191.718 110.712 191.584 110.379 191.393C110.051 191.206 109.775 190.953 109.552 190.634L110.215 189.882C110.525 190.256 110.848 190.515 111.186 190.661C111.527 190.807 111.865 190.88 112.197 190.88C112.598 190.88 112.945 190.805 113.236 190.654C113.528 190.504 113.754 190.281 113.913 189.984C114.077 189.693 114.159 189.333 114.159 188.904V183.23L114.275 181.604ZM109.183 185.384V185.24C109.183 184.675 109.249 184.162 109.381 183.702C109.518 183.237 109.711 182.839 109.962 182.506C110.217 182.173 110.525 181.918 110.885 181.74C111.245 181.558 111.65 181.467 112.102 181.467C112.566 181.467 112.972 181.549 113.318 181.713C113.669 181.872 113.965 182.107 114.207 182.417C114.453 182.722 114.647 183.091 114.788 183.524C114.929 183.957 115.027 184.447 115.082 184.994V185.623C115.032 186.165 114.934 186.653 114.788 187.086C114.647 187.519 114.453 187.888 114.207 188.193C113.965 188.499 113.669 188.733 113.318 188.897C112.967 189.057 112.557 189.137 112.088 189.137C111.646 189.137 111.245 189.043 110.885 188.856C110.529 188.67 110.224 188.408 109.969 188.07C109.714 187.733 109.518 187.337 109.381 186.881C109.249 186.421 109.183 185.922 109.183 185.384ZM110.447 185.24V185.384C110.447 185.753 110.484 186.099 110.557 186.423C110.634 186.746 110.75 187.031 110.905 187.277C111.065 187.523 111.268 187.717 111.514 187.858C111.76 187.995 112.054 188.063 112.396 188.063C112.815 188.063 113.161 187.975 113.435 187.797C113.708 187.619 113.924 187.384 114.084 187.093C114.248 186.801 114.376 186.484 114.467 186.143V184.495C114.417 184.244 114.339 184.003 114.234 183.771C114.134 183.534 114.002 183.324 113.838 183.142C113.678 182.955 113.48 182.807 113.243 182.697C113.006 182.588 112.728 182.533 112.409 182.533C112.063 182.533 111.764 182.606 111.514 182.752C111.268 182.893 111.065 183.089 110.905 183.34C110.75 183.586 110.634 183.873 110.557 184.201C110.484 184.525 110.447 184.871 110.447 185.24Z" fill="#949699"/>
<defs>
<linearGradient id="paint0_linear_3944_24545" x1="91.5" y1="26.74" x2="79.8622" y2="156.963" gradientUnits="userSpaceOnUse">
<stop offset="0.1975" stop-color="#FFB666"/>
<stop offset="0.95505" stop-color="#FF0E65"/>
</linearGradient>
<linearGradient id="paint1_linear_3944_24545" x1="91.5" y1="26.74" x2="79.8622" y2="156.963" gradientUnits="userSpaceOnUse">
<stop offset="0.1975" stop-color="#FFB666"/>
<stop offset="0.95505" stop-color="#FF0E65"/>
</linearGradient>
</defs>
</svg>
