<svg width="160" height="212" viewBox="0 0 160 212" fill="none" xmlns="http://www.w3.org/2000/svg">
<path d="M79 20.5774C79.6188 20.2201 80.3812 20.2201 81 20.5774L120.569 43.4226C121.188 43.7799 121.569 44.4402 121.569 45.1547V90.8453C121.569 91.5598 121.188 92.2201 120.569 92.5774L81 115.423C80.3812 115.78 79.6188 115.78 79 115.423L39.4308 92.5774C38.812 92.2201 38.4308 91.5598 38.4308 90.8453V45.1547C38.4308 44.4402 38.812 43.7799 39.4308 43.4226L79 20.5774Z" fill="#F6F6F6"/>
<path d="M78.0833 55.5417C78.0833 61.3637 73.3637 66.0833 67.5417 66.0833C61.7197 66.0833 57 61.3637 57 55.5417C57 53.0867 57.8392 50.8276 59.2464 49.0359L66.6554 56.4448C66.82 56.6095 67.087 56.6095 67.2517 56.4448L68.4444 55.2522C68.609 55.0875 68.609 54.8205 68.4444 54.6558L61.0354 47.2468C62.8272 45.8394 65.0864 45 67.5417 45C73.3637 45 78.0833 49.7197 78.0833 55.5417Z" fill="url(#paint0_linear_3944_24509)"/>
<path d="M103 55.5417C103 61.3637 98.2803 66.0833 92.4583 66.0833C86.6363 66.0833 81.9167 61.3637 81.9167 55.5417C81.9167 53.0474 82.7829 50.7555 84.2309 48.9504L91.7254 56.4448C91.89 56.6095 92.157 56.6095 92.3217 56.4448L93.5144 55.2522C93.679 55.0875 93.679 54.8205 93.5144 54.6558L86.0383 47.1798C87.8161 45.8128 90.0423 45 92.4583 45C98.2803 45 103 49.7197 103 55.5417Z" fill="url(#paint1_linear_3944_24509)"/>
<path d="M67.5417 91C73.3637 91 78.0833 86.2803 78.0833 80.4583C78.0833 78.0032 77.244 75.744 75.8366 73.9522L68.274 81.5148C68.1094 81.6795 67.8424 81.6795 67.6777 81.5148L66.4851 80.3222C66.3204 80.1575 66.3204 79.8905 66.4851 79.7258L74.0476 72.1632C72.2558 70.7559 69.9968 69.9167 67.5417 69.9167C61.7197 69.9167 57 74.6363 57 80.4583C57 86.2803 61.7197 91 67.5417 91Z" fill="url(#paint2_linear_3944_24509)"/>
<path d="M103 80.4583C103 86.2803 98.2803 91 92.4583 91C86.6363 91 81.9167 86.2803 81.9167 80.4583C81.9167 74.6363 86.6363 69.9167 92.4583 69.9167C94.9526 69.9167 97.2446 70.783 99.0498 72.2311L91.555 79.7258C91.3904 79.8905 91.3904 80.1575 91.555 80.3222L92.7477 81.5148C92.9124 81.6795 93.1793 81.6795 93.344 81.5148L100.82 74.0385C102.187 75.8163 103 78.0424 103 80.4583Z" fill="url(#paint3_linear_3944_24509)"/>
<path d="M53.9551 139.338C53.9551 139.045 53.9095 138.785 53.8184 138.557C53.7337 138.329 53.5807 138.12 53.3594 137.932C53.138 137.743 52.8255 137.561 52.4219 137.385C52.0247 137.202 51.5169 137.017 50.8984 136.828C50.2214 136.62 49.5964 136.389 49.0234 136.135C48.457 135.874 47.9622 135.575 47.5391 135.236C47.1159 134.891 46.7871 134.497 46.5527 134.055C46.3184 133.605 46.2012 133.088 46.2012 132.502C46.2012 131.923 46.3216 131.395 46.5625 130.92C46.8099 130.445 47.1582 130.035 47.6074 129.689C48.0632 129.338 48.6003 129.068 49.2188 128.879C49.8372 128.684 50.5208 128.586 51.2695 128.586C52.3242 128.586 53.2324 128.781 53.9941 129.172C54.7624 129.562 55.3516 130.087 55.7617 130.744C56.1784 131.402 56.3867 132.128 56.3867 132.922H53.9551C53.9551 132.453 53.8542 132.04 53.6523 131.682C53.457 131.317 53.1576 131.031 52.7539 130.822C52.3568 130.614 51.8522 130.51 51.2402 130.51C50.6608 130.51 50.179 130.598 49.7949 130.773C49.4108 130.949 49.1243 131.187 48.9355 131.486C48.7467 131.786 48.6523 132.124 48.6523 132.502C48.6523 132.769 48.7142 133.013 48.8379 133.234C48.9616 133.449 49.1504 133.651 49.4043 133.84C49.6582 134.022 49.9772 134.195 50.3613 134.357C50.7454 134.52 51.1979 134.676 51.7188 134.826C52.5065 135.061 53.1934 135.321 53.7793 135.607C54.3652 135.887 54.8535 136.206 55.2441 136.564C55.6348 136.923 55.9277 137.329 56.123 137.785C56.3184 138.234 56.416 138.745 56.416 139.318C56.416 139.917 56.2956 140.458 56.0547 140.939C55.8138 141.415 55.4688 141.822 55.0195 142.16C54.5768 142.492 54.043 142.749 53.418 142.932C52.7995 143.107 52.1094 143.195 51.3477 143.195C50.6641 143.195 49.9902 143.104 49.3262 142.922C48.6686 142.74 48.0697 142.463 47.5293 142.092C46.9889 141.714 46.5592 141.245 46.2402 140.686C45.9212 140.119 45.7617 139.458 45.7617 138.703H48.2129C48.2129 139.165 48.291 139.559 48.4473 139.885C48.61 140.21 48.8346 140.477 49.1211 140.686C49.4076 140.887 49.7396 141.037 50.1172 141.135C50.5013 141.232 50.9115 141.281 51.3477 141.281C51.9206 141.281 52.3991 141.2 52.7832 141.037C53.1738 140.874 53.4668 140.646 53.6621 140.354C53.8574 140.061 53.9551 139.722 53.9551 139.338ZM61.2207 140.656L63.6621 132.434H65.166L64.7559 134.895L62.2949 143H60.9473L61.2207 140.656ZM59.7852 132.434L61.6895 140.695L61.8457 143H60.3418L57.4805 132.434H59.7852ZM67.4512 140.598L69.2969 132.434H71.5918L68.7402 143H67.2363L67.4512 140.598ZM65.4199 132.434L67.832 140.559L68.1348 143H66.7871L64.2969 134.885L63.8867 132.434H65.4199ZM77.8516 143.195C77.0703 143.195 76.3639 143.068 75.7324 142.814C75.1074 142.554 74.5736 142.193 74.1309 141.73C73.6947 141.268 73.3594 140.725 73.125 140.1C72.8906 139.475 72.7734 138.801 72.7734 138.078V137.688C72.7734 136.861 72.8939 136.112 73.1348 135.441C73.3757 134.771 73.7109 134.198 74.1406 133.723C74.5703 133.241 75.0781 132.873 75.6641 132.619C76.25 132.365 76.8848 132.238 77.5684 132.238C78.3236 132.238 78.9844 132.365 79.5508 132.619C80.1172 132.873 80.5859 133.231 80.957 133.693C81.3346 134.149 81.6146 134.693 81.7969 135.324C81.9857 135.956 82.0801 136.652 82.0801 137.414V138.42H73.916V136.73H79.7559V136.545C79.7428 136.122 79.6582 135.725 79.502 135.354C79.3522 134.982 79.1211 134.683 78.8086 134.455C78.4961 134.227 78.0794 134.113 77.5586 134.113C77.168 134.113 76.8197 134.198 76.5137 134.367C76.2142 134.53 75.9635 134.768 75.7617 135.08C75.5599 135.393 75.4036 135.77 75.293 136.213C75.1888 136.649 75.1367 137.141 75.1367 137.688V138.078C75.1367 138.54 75.1986 138.97 75.3223 139.367C75.4525 139.758 75.6413 140.1 75.8887 140.393C76.1361 140.686 76.4355 140.917 76.7871 141.086C77.1387 141.249 77.5391 141.33 77.9883 141.33C78.5547 141.33 79.0592 141.216 79.502 140.988C79.9447 140.76 80.3288 140.438 80.6543 140.021L81.8945 141.223C81.6667 141.555 81.3704 141.874 81.0059 142.18C80.6413 142.479 80.1953 142.723 79.668 142.912C79.1471 143.101 78.5417 143.195 77.8516 143.195ZM88.5742 143.195C87.793 143.195 87.0866 143.068 86.4551 142.814C85.8301 142.554 85.2962 142.193 84.8535 141.73C84.4173 141.268 84.082 140.725 83.8477 140.1C83.6133 139.475 83.4961 138.801 83.4961 138.078V137.688C83.4961 136.861 83.6165 136.112 83.8574 135.441C84.0983 134.771 84.4336 134.198 84.8633 133.723C85.293 133.241 85.8008 132.873 86.3867 132.619C86.9727 132.365 87.6074 132.238 88.291 132.238C89.0462 132.238 89.707 132.365 90.2734 132.619C90.8398 132.873 91.3086 133.231 91.6797 133.693C92.0573 134.149 92.3372 134.693 92.5195 135.324C92.7083 135.956 92.8027 136.652 92.8027 137.414V138.42H84.6387V136.73H90.4785V136.545C90.4655 136.122 90.3809 135.725 90.2246 135.354C90.0749 134.982 89.8438 134.683 89.5312 134.455C89.2188 134.227 88.8021 134.113 88.2812 134.113C87.8906 134.113 87.5423 134.198 87.2363 134.367C86.9368 134.53 86.6862 134.768 86.4844 135.08C86.2826 135.393 86.1263 135.77 86.0156 136.213C85.9115 136.649 85.8594 137.141 85.8594 137.688V138.078C85.8594 138.54 85.9212 138.97 86.0449 139.367C86.1751 139.758 86.3639 140.1 86.6113 140.393C86.8587 140.686 87.1582 140.917 87.5098 141.086C87.8613 141.249 88.2617 141.33 88.7109 141.33C89.2773 141.33 89.7819 141.216 90.2246 140.988C90.6673 140.76 91.0514 140.438 91.377 140.021L92.6172 141.223C92.3893 141.555 92.0931 141.874 91.7285 142.18C91.3639 142.479 90.918 142.723 90.3906 142.912C89.8698 143.101 89.2643 143.195 88.5742 143.195ZM97.002 134.465V147.062H94.6484V132.434H96.8164L97.002 134.465ZM103.887 137.619V137.824C103.887 138.592 103.796 139.305 103.613 139.963C103.438 140.614 103.174 141.184 102.822 141.672C102.477 142.154 102.051 142.528 101.543 142.795C101.035 143.062 100.449 143.195 99.7852 143.195C99.1276 143.195 98.5514 143.075 98.0566 142.834C97.5684 142.587 97.1549 142.238 96.8164 141.789C96.4779 141.34 96.2044 140.812 95.9961 140.207C95.7943 139.595 95.651 138.924 95.5664 138.195V137.404C95.651 136.63 95.7943 135.926 95.9961 135.295C96.2044 134.663 96.4779 134.12 96.8164 133.664C97.1549 133.208 97.5684 132.857 98.0566 132.609C98.5449 132.362 99.1146 132.238 99.7656 132.238C100.43 132.238 101.019 132.368 101.533 132.629C102.048 132.883 102.48 133.247 102.832 133.723C103.184 134.191 103.447 134.758 103.623 135.422C103.799 136.079 103.887 136.812 103.887 137.619ZM101.533 137.824V137.619C101.533 137.131 101.488 136.678 101.396 136.262C101.305 135.839 101.162 135.467 100.967 135.148C100.771 134.829 100.521 134.582 100.215 134.406C99.9154 134.224 99.554 134.133 99.1309 134.133C98.7142 134.133 98.3561 134.204 98.0566 134.348C97.7572 134.484 97.5065 134.676 97.3047 134.924C97.1029 135.171 96.9466 135.461 96.8359 135.793C96.7253 136.118 96.6471 136.473 96.6016 136.857V138.752C96.6797 139.221 96.8132 139.65 97.002 140.041C97.1908 140.432 97.4577 140.744 97.8027 140.979C98.1543 141.206 98.6035 141.32 99.1504 141.32C99.5736 141.32 99.9349 141.229 100.234 141.047C100.534 140.865 100.778 140.614 100.967 140.295C101.162 139.969 101.305 139.595 101.396 139.172C101.488 138.749 101.533 138.299 101.533 137.824ZM111.816 140.139C111.816 139.904 111.758 139.693 111.641 139.504C111.523 139.309 111.299 139.133 110.967 138.977C110.641 138.82 110.16 138.677 109.521 138.547C108.962 138.423 108.447 138.277 107.979 138.107C107.516 137.932 107.119 137.72 106.787 137.473C106.455 137.225 106.198 136.932 106.016 136.594C105.833 136.255 105.742 135.865 105.742 135.422C105.742 134.992 105.837 134.585 106.025 134.201C106.214 133.817 106.484 133.479 106.836 133.186C107.188 132.893 107.614 132.661 108.115 132.492C108.623 132.323 109.189 132.238 109.814 132.238C110.7 132.238 111.458 132.388 112.09 132.688C112.728 132.98 113.216 133.381 113.555 133.889C113.893 134.39 114.062 134.956 114.062 135.588H111.709C111.709 135.308 111.637 135.048 111.494 134.807C111.357 134.559 111.149 134.361 110.869 134.211C110.589 134.055 110.238 133.977 109.814 133.977C109.411 133.977 109.076 134.042 108.809 134.172C108.548 134.296 108.353 134.458 108.223 134.66C108.099 134.862 108.037 135.083 108.037 135.324C108.037 135.5 108.07 135.66 108.135 135.803C108.206 135.939 108.324 136.066 108.486 136.184C108.649 136.294 108.87 136.398 109.15 136.496C109.437 136.594 109.795 136.688 110.225 136.779C111.032 136.949 111.725 137.167 112.305 137.434C112.891 137.694 113.34 138.033 113.652 138.449C113.965 138.859 114.121 139.38 114.121 140.012C114.121 140.48 114.02 140.91 113.818 141.301C113.623 141.685 113.337 142.02 112.959 142.307C112.581 142.587 112.129 142.805 111.602 142.961C111.081 143.117 110.495 143.195 109.844 143.195C108.887 143.195 108.076 143.026 107.412 142.688C106.748 142.342 106.243 141.903 105.898 141.369C105.56 140.829 105.391 140.269 105.391 139.689H107.666C107.692 140.126 107.812 140.474 108.027 140.734C108.249 140.988 108.522 141.174 108.848 141.291C109.18 141.402 109.521 141.457 109.873 141.457C110.296 141.457 110.651 141.402 110.938 141.291C111.224 141.174 111.442 141.018 111.592 140.822C111.742 140.62 111.816 140.393 111.816 140.139Z" fill="#33373D"/>
<path d="M37.3232 163.326V164.399H31.9365V163.326H37.3232ZM32.1416 159.047V169H30.8223V159.047H32.1416ZM38.4717 159.047V169H37.1592V159.047H38.4717ZM42.7031 168.234L44.7607 161.604H46.1143L43.1475 170.142C43.0791 170.324 42.988 170.52 42.874 170.729C42.7646 170.944 42.6234 171.146 42.4502 171.338C42.277 171.529 42.0674 171.684 41.8213 171.803C41.5798 171.926 41.2904 171.987 40.9531 171.987C40.8529 171.987 40.7253 171.974 40.5703 171.946C40.4154 171.919 40.306 171.896 40.2422 171.878L40.2354 170.853C40.2718 170.857 40.3288 170.862 40.4062 170.866C40.4883 170.875 40.5452 170.88 40.5771 170.88C40.8643 170.88 41.1081 170.841 41.3086 170.764C41.5091 170.691 41.6777 170.565 41.8145 170.388C41.9557 170.215 42.0765 169.975 42.1768 169.67L42.7031 168.234ZM41.1924 161.604L43.1133 167.346L43.4414 168.679L42.5322 169.144L39.8115 161.604H41.1924ZM48.5205 163.025V171.844H47.249V161.604H48.4111L48.5205 163.025ZM53.5039 165.24V165.384C53.5039 165.922 53.4401 166.421 53.3125 166.881C53.1849 167.337 52.998 167.733 52.752 168.07C52.5104 168.408 52.2119 168.67 51.8564 168.856C51.501 169.043 51.0931 169.137 50.6328 169.137C50.1634 169.137 49.7487 169.059 49.3887 168.904C49.0286 168.749 48.7233 168.524 48.4727 168.228C48.222 167.931 48.0215 167.576 47.8711 167.161C47.7253 166.746 47.625 166.279 47.5703 165.76V164.994C47.625 164.447 47.7275 163.957 47.8779 163.524C48.0283 163.091 48.2266 162.722 48.4727 162.417C48.7233 162.107 49.0264 161.872 49.3818 161.713C49.7373 161.549 50.1475 161.467 50.6123 161.467C51.0771 161.467 51.4896 161.558 51.8496 161.74C52.2096 161.918 52.5127 162.173 52.7588 162.506C53.0049 162.839 53.1895 163.237 53.3125 163.702C53.4401 164.162 53.5039 164.675 53.5039 165.24ZM52.2324 165.384V165.24C52.2324 164.871 52.1937 164.525 52.1162 164.201C52.0387 163.873 51.918 163.586 51.7539 163.34C51.5944 163.089 51.3893 162.893 51.1387 162.752C50.888 162.606 50.5895 162.533 50.2432 162.533C49.9242 162.533 49.6462 162.588 49.4092 162.697C49.1768 162.807 48.9785 162.955 48.8145 163.142C48.6504 163.324 48.516 163.534 48.4111 163.771C48.3109 164.003 48.2357 164.244 48.1855 164.495V166.266C48.2767 166.585 48.4043 166.885 48.5684 167.168C48.7324 167.446 48.9512 167.672 49.2246 167.845C49.498 168.013 49.8421 168.098 50.2568 168.098C50.5986 168.098 50.8926 168.027 51.1387 167.886C51.3893 167.74 51.5944 167.542 51.7539 167.291C51.918 167.04 52.0387 166.753 52.1162 166.43C52.1937 166.102 52.2324 165.753 52.2324 165.384ZM58.1865 169.137C57.6715 169.137 57.2044 169.05 56.7852 168.877C56.3704 168.699 56.0127 168.451 55.7119 168.132C55.4157 167.813 55.1878 167.435 55.0283 166.997C54.8688 166.56 54.7891 166.081 54.7891 165.562V165.274C54.7891 164.673 54.8779 164.137 55.0557 163.668C55.2334 163.194 55.4749 162.793 55.7803 162.465C56.0856 162.137 56.432 161.888 56.8193 161.72C57.2067 161.551 57.6077 161.467 58.0225 161.467C58.5511 161.467 59.0068 161.558 59.3896 161.74C59.777 161.923 60.0938 162.178 60.3398 162.506C60.5859 162.829 60.7682 163.212 60.8867 163.654C61.0052 164.092 61.0645 164.57 61.0645 165.09V165.657H55.541V164.625H59.7998V164.529C59.7816 164.201 59.7132 163.882 59.5947 163.572C59.4808 163.262 59.2985 163.007 59.0479 162.807C58.7972 162.606 58.4554 162.506 58.0225 162.506C57.7354 162.506 57.471 162.567 57.2295 162.69C56.988 162.809 56.7806 162.987 56.6074 163.224C56.4342 163.461 56.2998 163.75 56.2041 164.092C56.1084 164.434 56.0605 164.828 56.0605 165.274V165.562C56.0605 165.912 56.1084 166.243 56.2041 166.553C56.3044 166.858 56.4479 167.127 56.6348 167.359C56.8262 167.592 57.0563 167.774 57.3252 167.906C57.5986 168.038 57.9085 168.104 58.2549 168.104C58.7015 168.104 59.0798 168.013 59.3896 167.831C59.6995 167.649 59.9707 167.405 60.2031 167.1L60.9688 167.708C60.8092 167.95 60.6064 168.18 60.3604 168.398C60.1143 168.617 59.8112 168.795 59.4512 168.932C59.0957 169.068 58.6742 169.137 58.1865 169.137ZM63.8057 162.766V169H62.541V161.604H63.7715L63.8057 162.766ZM66.1162 161.562L66.1094 162.738C66.0046 162.715 65.9043 162.702 65.8086 162.697C65.7174 162.688 65.6126 162.684 65.4941 162.684C65.2025 162.684 64.945 162.729 64.7217 162.82C64.4984 162.911 64.3092 163.039 64.1543 163.203C63.9993 163.367 63.8763 163.563 63.7852 163.791C63.6986 164.014 63.6416 164.26 63.6143 164.529L63.2588 164.734C63.2588 164.288 63.3021 163.868 63.3887 163.477C63.4798 163.085 63.6188 162.738 63.8057 162.438C63.9925 162.132 64.2295 161.895 64.5166 161.727C64.8083 161.553 65.1546 161.467 65.5557 161.467C65.6468 161.467 65.7516 161.478 65.8701 161.501C65.9886 161.519 66.0706 161.54 66.1162 161.562ZM68.5498 163.025V171.844H67.2783V161.604H68.4404L68.5498 163.025ZM73.5332 165.24V165.384C73.5332 165.922 73.4694 166.421 73.3418 166.881C73.2142 167.337 73.0273 167.733 72.7812 168.07C72.5397 168.408 72.2412 168.67 71.8857 168.856C71.5303 169.043 71.1224 169.137 70.6621 169.137C70.1927 169.137 69.778 169.059 69.418 168.904C69.0579 168.749 68.7526 168.524 68.502 168.228C68.2513 167.931 68.0508 167.576 67.9004 167.161C67.7546 166.746 67.6543 166.279 67.5996 165.76V164.994C67.6543 164.447 67.7568 163.957 67.9072 163.524C68.0576 163.091 68.2559 162.722 68.502 162.417C68.7526 162.107 69.0557 161.872 69.4111 161.713C69.7666 161.549 70.1768 161.467 70.6416 161.467C71.1064 161.467 71.5189 161.558 71.8789 161.74C72.2389 161.918 72.542 162.173 72.7881 162.506C73.0342 162.839 73.2188 163.237 73.3418 163.702C73.4694 164.162 73.5332 164.675 73.5332 165.24ZM72.2617 165.384V165.24C72.2617 164.871 72.223 164.525 72.1455 164.201C72.068 163.873 71.9473 163.586 71.7832 163.34C71.6237 163.089 71.4186 162.893 71.168 162.752C70.9173 162.606 70.6188 162.533 70.2725 162.533C69.9535 162.533 69.6755 162.588 69.4385 162.697C69.2061 162.807 69.0078 162.955 68.8438 163.142C68.6797 163.324 68.5452 163.534 68.4404 163.771C68.3402 164.003 68.265 164.244 68.2148 164.495V166.266C68.306 166.585 68.4336 166.885 68.5977 167.168C68.7617 167.446 68.9805 167.672 69.2539 167.845C69.5273 168.013 69.8714 168.098 70.2861 168.098C70.6279 168.098 70.9219 168.027 71.168 167.886C71.4186 167.74 71.6237 167.542 71.7832 167.291C71.9473 167.04 72.068 166.753 72.1455 166.43C72.223 166.102 72.2617 165.753 72.2617 165.384ZM79.5078 167.735V163.928C79.5078 163.636 79.4486 163.383 79.3301 163.169C79.2161 162.95 79.043 162.782 78.8105 162.663C78.5781 162.545 78.291 162.485 77.9492 162.485C77.6302 162.485 77.3499 162.54 77.1084 162.649C76.8714 162.759 76.6846 162.902 76.5479 163.08C76.4157 163.258 76.3496 163.449 76.3496 163.654H75.085C75.085 163.39 75.1533 163.128 75.29 162.868C75.4268 162.608 75.6227 162.374 75.8779 162.164C76.1377 161.95 76.4476 161.781 76.8076 161.658C77.1722 161.531 77.5778 161.467 78.0244 161.467C78.5622 161.467 79.0361 161.558 79.4463 161.74C79.861 161.923 80.1846 162.198 80.417 162.567C80.654 162.932 80.7725 163.39 80.7725 163.941V167.387C80.7725 167.633 80.793 167.895 80.834 168.173C80.8796 168.451 80.9456 168.69 81.0322 168.891V169H79.7129C79.6491 168.854 79.599 168.66 79.5625 168.419C79.526 168.173 79.5078 167.945 79.5078 167.735ZM79.7266 164.516L79.7402 165.404H78.4619C78.1019 165.404 77.7806 165.434 77.498 165.493C77.2155 165.548 76.9785 165.632 76.7871 165.746C76.5957 165.86 76.4499 166.004 76.3496 166.177C76.2493 166.345 76.1992 166.544 76.1992 166.771C76.1992 167.004 76.2516 167.216 76.3564 167.407C76.4613 167.599 76.6185 167.751 76.8281 167.865C77.0423 167.975 77.3044 168.029 77.6143 168.029C78.0016 168.029 78.3434 167.947 78.6396 167.783C78.9359 167.619 79.1706 167.419 79.3438 167.182C79.5215 166.945 79.6172 166.715 79.6309 166.491L80.1709 167.1C80.139 167.291 80.0524 167.503 79.9111 167.735C79.7699 167.968 79.5807 168.191 79.3438 168.405C79.1113 168.615 78.8333 168.79 78.5098 168.932C78.1908 169.068 77.8307 169.137 77.4297 169.137C76.9284 169.137 76.4886 169.039 76.1104 168.843C75.7367 168.647 75.445 168.385 75.2354 168.057C75.0303 167.724 74.9277 167.353 74.9277 166.942C74.9277 166.546 75.0052 166.197 75.1602 165.896C75.3151 165.591 75.5384 165.338 75.8301 165.138C76.1217 164.933 76.4727 164.778 76.8828 164.673C77.293 164.568 77.751 164.516 78.2568 164.516H79.7266ZM84.0264 162.766V169H82.7617V161.604H83.9922L84.0264 162.766ZM86.3369 161.562L86.3301 162.738C86.2253 162.715 86.125 162.702 86.0293 162.697C85.9382 162.688 85.8333 162.684 85.7148 162.684C85.4232 162.684 85.1657 162.729 84.9424 162.82C84.7191 162.911 84.5299 163.039 84.375 163.203C84.2201 163.367 84.097 163.563 84.0059 163.791C83.9193 164.014 83.8623 164.26 83.835 164.529L83.4795 164.734C83.4795 164.288 83.5228 163.868 83.6094 163.477C83.7005 163.085 83.8395 162.738 84.0264 162.438C84.2132 162.132 84.4502 161.895 84.7373 161.727C85.029 161.553 85.3753 161.467 85.7764 161.467C85.8675 161.467 85.9723 161.478 86.0908 161.501C86.2093 161.519 86.2913 161.54 86.3369 161.562ZM91.5938 167.735V163.928C91.5938 163.636 91.5345 163.383 91.416 163.169C91.3021 162.95 91.1289 162.782 90.8965 162.663C90.6641 162.545 90.377 162.485 90.0352 162.485C89.7161 162.485 89.4359 162.54 89.1943 162.649C88.9574 162.759 88.7705 162.902 88.6338 163.08C88.5016 163.258 88.4355 163.449 88.4355 163.654H87.1709C87.1709 163.39 87.2393 163.128 87.376 162.868C87.5127 162.608 87.7087 162.374 87.9639 162.164C88.2236 161.95 88.5335 161.781 88.8936 161.658C89.2581 161.531 89.6637 161.467 90.1104 161.467C90.6481 161.467 91.1221 161.558 91.5322 161.74C91.9469 161.923 92.2705 162.198 92.5029 162.567C92.7399 162.932 92.8584 163.39 92.8584 163.941V167.387C92.8584 167.633 92.8789 167.895 92.9199 168.173C92.9655 168.451 93.0316 168.69 93.1182 168.891V169H91.7988C91.735 168.854 91.6849 168.66 91.6484 168.419C91.612 168.173 91.5938 167.945 91.5938 167.735ZM91.8125 164.516L91.8262 165.404H90.5479C90.1878 165.404 89.8665 165.434 89.584 165.493C89.3014 165.548 89.0645 165.632 88.873 165.746C88.6816 165.86 88.5358 166.004 88.4355 166.177C88.3353 166.345 88.2852 166.544 88.2852 166.771C88.2852 167.004 88.3376 167.216 88.4424 167.407C88.5472 167.599 88.7044 167.751 88.9141 167.865C89.1283 167.975 89.3903 168.029 89.7002 168.029C90.0876 168.029 90.4294 167.947 90.7256 167.783C91.0218 167.619 91.2565 167.419 91.4297 167.182C91.6074 166.945 91.7031 166.715 91.7168 166.491L92.2568 167.1C92.2249 167.291 92.1383 167.503 91.9971 167.735C91.8558 167.968 91.6667 168.191 91.4297 168.405C91.1973 168.615 90.9193 168.79 90.5957 168.932C90.2767 169.068 89.9167 169.137 89.5156 169.137C89.0143 169.137 88.5745 169.039 88.1963 168.843C87.8226 168.647 87.5309 168.385 87.3213 168.057C87.1162 167.724 87.0137 167.353 87.0137 166.942C87.0137 166.546 87.0911 166.197 87.2461 165.896C87.401 165.591 87.6243 165.338 87.916 165.138C88.2077 164.933 88.5586 164.778 88.9688 164.673C89.3789 164.568 89.8369 164.516 90.3428 164.516H91.8125ZM96.1055 163.073V169H94.834V161.604H96.0371L96.1055 163.073ZM95.8457 165.021L95.2578 165.001C95.2624 164.495 95.3285 164.028 95.4561 163.6C95.5837 163.167 95.7728 162.791 96.0234 162.472C96.2741 162.153 96.5863 161.907 96.96 161.733C97.3337 161.556 97.7666 161.467 98.2588 161.467C98.6051 161.467 98.9242 161.517 99.2158 161.617C99.5075 161.713 99.7604 161.866 99.9746 162.075C100.189 162.285 100.355 162.554 100.474 162.882C100.592 163.21 100.651 163.606 100.651 164.071V169H99.3867V164.133C99.3867 163.745 99.3206 163.436 99.1885 163.203C99.0609 162.971 98.8786 162.802 98.6416 162.697C98.4046 162.588 98.1266 162.533 97.8076 162.533C97.4339 162.533 97.1217 162.599 96.8711 162.731C96.6204 162.864 96.4199 163.046 96.2695 163.278C96.1191 163.511 96.0098 163.777 95.9414 164.078C95.8776 164.374 95.8457 164.689 95.8457 165.021ZM100.638 164.324L99.79 164.584C99.7946 164.178 99.8607 163.789 99.9883 163.415C100.12 163.041 100.31 162.709 100.556 162.417C100.806 162.125 101.114 161.895 101.479 161.727C101.843 161.553 102.26 161.467 102.729 161.467C103.126 161.467 103.477 161.519 103.782 161.624C104.092 161.729 104.352 161.891 104.562 162.109C104.776 162.324 104.938 162.599 105.047 162.937C105.156 163.274 105.211 163.675 105.211 164.14V169H103.939V164.126C103.939 163.711 103.873 163.39 103.741 163.162C103.614 162.93 103.431 162.768 103.194 162.677C102.962 162.581 102.684 162.533 102.36 162.533C102.082 162.533 101.836 162.581 101.622 162.677C101.408 162.772 101.228 162.905 101.082 163.073C100.936 163.237 100.825 163.426 100.747 163.641C100.674 163.855 100.638 164.083 100.638 164.324ZM110.194 169.137C109.679 169.137 109.212 169.05 108.793 168.877C108.378 168.699 108.021 168.451 107.72 168.132C107.424 167.813 107.196 167.435 107.036 166.997C106.877 166.56 106.797 166.081 106.797 165.562V165.274C106.797 164.673 106.886 164.137 107.063 163.668C107.241 163.194 107.483 162.793 107.788 162.465C108.093 162.137 108.44 161.888 108.827 161.72C109.215 161.551 109.616 161.467 110.03 161.467C110.559 161.467 111.015 161.558 111.397 161.74C111.785 161.923 112.102 162.178 112.348 162.506C112.594 162.829 112.776 163.212 112.895 163.654C113.013 164.092 113.072 164.57 113.072 165.09V165.657H107.549V164.625H111.808V164.529C111.789 164.201 111.721 163.882 111.603 163.572C111.489 163.262 111.306 163.007 111.056 162.807C110.805 162.606 110.463 162.506 110.03 162.506C109.743 162.506 109.479 162.567 109.237 162.69C108.996 162.809 108.788 162.987 108.615 163.224C108.442 163.461 108.308 163.75 108.212 164.092C108.116 164.434 108.068 164.828 108.068 165.274V165.562C108.068 165.912 108.116 166.243 108.212 166.553C108.312 166.858 108.456 167.127 108.643 167.359C108.834 167.592 109.064 167.774 109.333 167.906C109.606 168.038 109.916 168.104 110.263 168.104C110.709 168.104 111.088 168.013 111.397 167.831C111.707 167.649 111.979 167.405 112.211 167.1L112.977 167.708C112.817 167.95 112.614 168.18 112.368 168.398C112.122 168.617 111.819 168.795 111.459 168.932C111.104 169.068 110.682 169.137 110.194 169.137ZM117.646 161.604V162.574H113.646V161.604H117.646ZM115 159.806H116.265V167.168C116.265 167.419 116.303 167.608 116.381 167.735C116.458 167.863 116.559 167.947 116.682 167.988C116.805 168.029 116.937 168.05 117.078 168.05C117.183 168.05 117.292 168.041 117.406 168.022C117.525 168 117.614 167.981 117.673 167.968L117.68 169C117.579 169.032 117.447 169.062 117.283 169.089C117.124 169.121 116.93 169.137 116.702 169.137C116.392 169.137 116.107 169.075 115.848 168.952C115.588 168.829 115.381 168.624 115.226 168.337C115.075 168.045 115 167.653 115 167.161V159.806ZM122.198 169.137C121.683 169.137 121.216 169.05 120.797 168.877C120.382 168.699 120.024 168.451 119.724 168.132C119.427 167.813 119.2 167.435 119.04 166.997C118.881 166.56 118.801 166.081 118.801 165.562V165.274C118.801 164.673 118.89 164.137 119.067 163.668C119.245 163.194 119.487 162.793 119.792 162.465C120.097 162.137 120.444 161.888 120.831 161.72C121.218 161.551 121.619 161.467 122.034 161.467C122.563 161.467 123.019 161.558 123.401 161.74C123.789 161.923 124.105 162.178 124.352 162.506C124.598 162.829 124.78 163.212 124.898 163.654C125.017 164.092 125.076 164.57 125.076 165.09V165.657H119.553V164.625H123.812V164.529C123.793 164.201 123.725 163.882 123.606 163.572C123.493 163.262 123.31 163.007 123.06 162.807C122.809 162.606 122.467 162.506 122.034 162.506C121.747 162.506 121.483 162.567 121.241 162.69C121 162.809 120.792 162.987 120.619 163.224C120.446 163.461 120.312 163.75 120.216 164.092C120.12 164.434 120.072 164.828 120.072 165.274V165.562C120.072 165.912 120.12 166.243 120.216 166.553C120.316 166.858 120.46 167.127 120.646 167.359C120.838 167.592 121.068 167.774 121.337 167.906C121.61 168.038 121.92 168.104 122.267 168.104C122.713 168.104 123.091 168.013 123.401 167.831C123.711 167.649 123.982 167.405 124.215 167.1L124.98 167.708C124.821 167.95 124.618 168.18 124.372 168.398C124.126 168.617 123.823 168.795 123.463 168.932C123.107 169.068 122.686 169.137 122.198 169.137ZM127.817 162.766V169H126.553V161.604H127.783L127.817 162.766ZM130.128 161.562L130.121 162.738C130.016 162.715 129.916 162.702 129.82 162.697C129.729 162.688 129.624 162.684 129.506 162.684C129.214 162.684 128.957 162.729 128.733 162.82C128.51 162.911 128.321 163.039 128.166 163.203C128.011 163.367 127.888 163.563 127.797 163.791C127.71 164.014 127.653 164.26 127.626 164.529L127.271 164.734C127.271 164.288 127.314 163.868 127.4 163.477C127.492 163.085 127.631 162.738 127.817 162.438C128.004 162.132 128.241 161.895 128.528 161.727C128.82 161.553 129.166 161.467 129.567 161.467C129.659 161.467 129.763 161.478 129.882 161.501C130 161.519 130.082 161.54 130.128 161.562ZM41.7393 185.384V185.227C41.7393 184.693 41.8167 184.199 41.9717 183.743C42.1266 183.283 42.3499 182.884 42.6416 182.547C42.9333 182.205 43.2865 181.941 43.7012 181.754C44.1159 181.562 44.5807 181.467 45.0957 181.467C45.6152 181.467 46.0824 181.562 46.4971 181.754C46.9163 181.941 47.2718 182.205 47.5635 182.547C47.8597 182.884 48.0853 183.283 48.2402 183.743C48.3952 184.199 48.4727 184.693 48.4727 185.227V185.384C48.4727 185.917 48.3952 186.411 48.2402 186.867C48.0853 187.323 47.8597 187.722 47.5635 188.063C47.2718 188.401 46.9186 188.665 46.5039 188.856C46.0938 189.043 45.6289 189.137 45.1094 189.137C44.5898 189.137 44.1227 189.043 43.708 188.856C43.2933 188.665 42.9378 188.401 42.6416 188.063C42.3499 187.722 42.1266 187.323 41.9717 186.867C41.8167 186.411 41.7393 185.917 41.7393 185.384ZM43.0039 185.227V185.384C43.0039 185.753 43.0472 186.102 43.1338 186.43C43.2204 186.753 43.3503 187.04 43.5234 187.291C43.7012 187.542 43.9222 187.74 44.1865 187.886C44.4508 188.027 44.7585 188.098 45.1094 188.098C45.4557 188.098 45.7588 188.027 46.0186 187.886C46.2829 187.74 46.5016 187.542 46.6748 187.291C46.848 187.04 46.9779 186.753 47.0645 186.43C47.1556 186.102 47.2012 185.753 47.2012 185.384V185.227C47.2012 184.862 47.1556 184.518 47.0645 184.194C46.9779 183.866 46.8457 183.577 46.668 183.326C46.4948 183.071 46.276 182.87 46.0117 182.725C45.752 182.579 45.4466 182.506 45.0957 182.506C44.7493 182.506 44.444 182.579 44.1797 182.725C43.9199 182.87 43.7012 183.071 43.5234 183.326C43.3503 183.577 43.2204 183.866 43.1338 184.194C43.0472 184.518 43.0039 184.862 43.0039 185.227ZM51.3232 183.025V191.844H50.0518V181.604H51.2139L51.3232 183.025ZM56.3066 185.24V185.384C56.3066 185.922 56.2428 186.421 56.1152 186.881C55.9876 187.337 55.8008 187.733 55.5547 188.07C55.3132 188.408 55.0146 188.67 54.6592 188.856C54.3037 189.043 53.8958 189.137 53.4355 189.137C52.9661 189.137 52.5514 189.059 52.1914 188.904C51.8314 188.749 51.526 188.524 51.2754 188.228C51.0247 187.931 50.8242 187.576 50.6738 187.161C50.528 186.746 50.4277 186.279 50.373 185.76V184.994C50.4277 184.447 50.5303 183.957 50.6807 183.524C50.8311 183.091 51.0293 182.722 51.2754 182.417C51.526 182.107 51.8291 181.872 52.1846 181.713C52.54 181.549 52.9502 181.467 53.415 181.467C53.8799 181.467 54.2923 181.558 54.6523 181.74C55.0124 181.918 55.3154 182.173 55.5615 182.506C55.8076 182.839 55.9922 183.237 56.1152 183.702C56.2428 184.162 56.3066 184.675 56.3066 185.24ZM55.0352 185.384V185.24C55.0352 184.871 54.9964 184.525 54.9189 184.201C54.8415 183.873 54.7207 183.586 54.5566 183.34C54.3971 183.089 54.1921 182.893 53.9414 182.752C53.6908 182.606 53.3923 182.533 53.0459 182.533C52.7269 182.533 52.4489 182.588 52.2119 182.697C51.9795 182.807 51.7812 182.955 51.6172 183.142C51.4531 183.324 51.3187 183.534 51.2139 183.771C51.1136 184.003 51.0384 184.244 50.9883 184.495V186.266C51.0794 186.585 51.207 186.885 51.3711 187.168C51.5352 187.446 51.7539 187.672 52.0273 187.845C52.3008 188.013 52.6449 188.098 53.0596 188.098C53.4014 188.098 53.6953 188.027 53.9414 187.886C54.1921 187.74 54.3971 187.542 54.5566 187.291C54.7207 187.04 54.8415 186.753 54.9189 186.43C54.9964 186.102 55.0352 185.753 55.0352 185.384ZM61.0166 181.604V182.574H57.0176V181.604H61.0166ZM58.3711 179.806H59.6357V187.168C59.6357 187.419 59.6745 187.608 59.752 187.735C59.8294 187.863 59.9297 187.947 60.0527 187.988C60.1758 188.029 60.3079 188.05 60.4492 188.05C60.554 188.05 60.6634 188.041 60.7773 188.022C60.8958 188 60.9847 187.981 61.0439 187.968L61.0508 189C60.9505 189.032 60.8184 189.062 60.6543 189.089C60.4948 189.121 60.3011 189.137 60.0732 189.137C59.7633 189.137 59.4785 189.075 59.2188 188.952C58.959 188.829 58.7516 188.624 58.5967 188.337C58.4463 188.045 58.3711 187.653 58.3711 187.161V179.806ZM63.874 181.604V189H62.6025V181.604H63.874ZM62.5068 179.642C62.5068 179.437 62.5684 179.263 62.6914 179.122C62.819 178.981 63.0059 178.91 63.252 178.91C63.4935 178.91 63.6781 178.981 63.8057 179.122C63.9378 179.263 64.0039 179.437 64.0039 179.642C64.0039 179.838 63.9378 180.006 63.8057 180.147C63.6781 180.284 63.4935 180.353 63.252 180.353C63.0059 180.353 62.819 180.284 62.6914 180.147C62.5684 180.006 62.5068 179.838 62.5068 179.642ZM67.1621 183.073V189H65.8906V181.604H67.0938L67.1621 183.073ZM66.9023 185.021L66.3145 185.001C66.319 184.495 66.3851 184.028 66.5127 183.6C66.6403 183.167 66.8294 182.791 67.0801 182.472C67.3307 182.153 67.6429 181.907 68.0166 181.733C68.3903 181.556 68.8232 181.467 69.3154 181.467C69.6618 181.467 69.9808 181.517 70.2725 181.617C70.5641 181.713 70.8171 181.866 71.0312 182.075C71.2454 182.285 71.4118 182.554 71.5303 182.882C71.6488 183.21 71.708 183.606 71.708 184.071V189H70.4434V184.133C70.4434 183.745 70.3773 183.436 70.2451 183.203C70.1175 182.971 69.9352 182.802 69.6982 182.697C69.4613 182.588 69.1833 182.533 68.8643 182.533C68.4906 182.533 68.1784 182.599 67.9277 182.731C67.6771 182.864 67.4766 183.046 67.3262 183.278C67.1758 183.511 67.0664 183.777 66.998 184.078C66.9342 184.374 66.9023 184.689 66.9023 185.021ZM71.6943 184.324L70.8467 184.584C70.8512 184.178 70.9173 183.789 71.0449 183.415C71.1771 183.041 71.3662 182.709 71.6123 182.417C71.863 182.125 72.1706 181.895 72.5352 181.727C72.8997 181.553 73.3167 181.467 73.7861 181.467C74.1826 181.467 74.5335 181.519 74.8389 181.624C75.1488 181.729 75.4085 181.891 75.6182 182.109C75.8324 182.324 75.9941 182.599 76.1035 182.937C76.2129 183.274 76.2676 183.675 76.2676 184.14V189H74.9961V184.126C74.9961 183.711 74.93 183.39 74.7979 183.162C74.6702 182.93 74.488 182.768 74.251 182.677C74.0186 182.581 73.7406 182.533 73.417 182.533C73.139 182.533 72.8929 182.581 72.6787 182.677C72.4645 182.772 72.2845 182.905 72.1387 183.073C71.9928 183.237 71.8812 183.426 71.8037 183.641C71.7308 183.855 71.6943 184.083 71.6943 184.324ZM79.5557 181.604V189H78.2842V181.604H79.5557ZM78.1885 179.642C78.1885 179.437 78.25 179.263 78.373 179.122C78.5007 178.981 78.6875 178.91 78.9336 178.91C79.1751 178.91 79.3597 178.981 79.4873 179.122C79.6195 179.263 79.6855 179.437 79.6855 179.642C79.6855 179.838 79.6195 180.006 79.4873 180.147C79.3597 180.284 79.1751 180.353 78.9336 180.353C78.6875 180.353 78.5007 180.284 78.373 180.147C78.25 180.006 78.1885 179.838 78.1885 179.642ZM87.0957 187.961V189H81.7158V187.961H87.0957ZM86.8975 182.499L82.0029 189H81.2305V188.07L86.0908 181.604H86.8975V182.499ZM86.3369 181.604V182.649H81.2852V181.604H86.3369ZM92.8926 187.735V183.928C92.8926 183.636 92.8333 183.383 92.7148 183.169C92.6009 182.95 92.4277 182.782 92.1953 182.663C91.9629 182.545 91.6758 182.485 91.334 182.485C91.015 182.485 90.7347 182.54 90.4932 182.649C90.2562 182.759 90.0693 182.902 89.9326 183.08C89.8005 183.258 89.7344 183.449 89.7344 183.654H88.4697C88.4697 183.39 88.5381 183.128 88.6748 182.868C88.8115 182.608 89.0075 182.374 89.2627 182.164C89.5225 181.95 89.8324 181.781 90.1924 181.658C90.557 181.531 90.9626 181.467 91.4092 181.467C91.9469 181.467 92.4209 181.558 92.8311 181.74C93.2458 181.923 93.5693 182.198 93.8018 182.567C94.0387 182.932 94.1572 183.39 94.1572 183.941V187.387C94.1572 187.633 94.1777 187.895 94.2188 188.173C94.2643 188.451 94.3304 188.69 94.417 188.891V189H93.0977C93.0339 188.854 92.9837 188.66 92.9473 188.419C92.9108 188.173 92.8926 187.945 92.8926 187.735ZM93.1113 184.516L93.125 185.404H91.8467C91.4867 185.404 91.1654 185.434 90.8828 185.493C90.6003 185.548 90.3633 185.632 90.1719 185.746C89.9805 185.86 89.8346 186.004 89.7344 186.177C89.6341 186.345 89.584 186.544 89.584 186.771C89.584 187.004 89.6364 187.216 89.7412 187.407C89.846 187.599 90.0033 187.751 90.2129 187.865C90.4271 187.975 90.6891 188.029 90.999 188.029C91.3864 188.029 91.7282 187.947 92.0244 187.783C92.3206 187.619 92.5553 187.419 92.7285 187.182C92.9062 186.945 93.002 186.715 93.0156 186.491L93.5557 187.1C93.5238 187.291 93.4372 187.503 93.2959 187.735C93.1546 187.968 92.9655 188.191 92.7285 188.405C92.4961 188.615 92.2181 188.79 91.8945 188.932C91.5755 189.068 91.2155 189.137 90.8145 189.137C90.3132 189.137 89.8734 189.039 89.4951 188.843C89.1214 188.647 88.8298 188.385 88.6201 188.057C88.415 187.724 88.3125 187.353 88.3125 186.942C88.3125 186.546 88.39 186.197 88.5449 185.896C88.6999 185.591 88.9232 185.338 89.2148 185.138C89.5065 184.933 89.8574 184.778 90.2676 184.673C90.6777 184.568 91.1357 184.516 91.6416 184.516H93.1113ZM99.2432 181.604V182.574H95.2441V181.604H99.2432ZM96.5977 179.806H97.8623V187.168C97.8623 187.419 97.901 187.608 97.9785 187.735C98.056 187.863 98.1562 187.947 98.2793 187.988C98.4023 188.029 98.5345 188.05 98.6758 188.05C98.7806 188.05 98.89 188.041 99.0039 188.022C99.1224 188 99.2113 187.981 99.2705 187.968L99.2773 189C99.1771 189.032 99.0449 189.062 98.8809 189.089C98.7214 189.121 98.5277 189.137 98.2998 189.137C97.9899 189.137 97.7051 189.075 97.4453 188.952C97.1855 188.829 96.9782 188.624 96.8232 188.337C96.6729 188.045 96.5977 187.653 96.5977 187.161V179.806ZM102.101 181.604V189H100.829V181.604H102.101ZM100.733 179.642C100.733 179.437 100.795 179.263 100.918 179.122C101.046 178.981 101.232 178.91 101.479 178.91C101.72 178.91 101.905 178.981 102.032 179.122C102.164 179.263 102.23 179.437 102.23 179.642C102.23 179.838 102.164 180.006 102.032 180.147C101.905 180.284 101.72 180.353 101.479 180.353C101.232 180.353 101.046 180.284 100.918 180.147C100.795 180.006 100.733 179.838 100.733 179.642ZM103.796 185.384V185.227C103.796 184.693 103.873 184.199 104.028 183.743C104.183 183.283 104.407 182.884 104.698 182.547C104.99 182.205 105.343 181.941 105.758 181.754C106.173 181.562 106.637 181.467 107.152 181.467C107.672 181.467 108.139 181.562 108.554 181.754C108.973 181.941 109.328 182.205 109.62 182.547C109.916 182.884 110.142 183.283 110.297 183.743C110.452 184.199 110.529 184.693 110.529 185.227V185.384C110.529 185.917 110.452 186.411 110.297 186.867C110.142 187.323 109.916 187.722 109.62 188.063C109.328 188.401 108.975 188.665 108.561 188.856C108.15 189.043 107.686 189.137 107.166 189.137C106.646 189.137 106.179 189.043 105.765 188.856C105.35 188.665 104.994 188.401 104.698 188.063C104.407 187.722 104.183 187.323 104.028 186.867C103.873 186.411 103.796 185.917 103.796 185.384ZM105.061 185.227V185.384C105.061 185.753 105.104 186.102 105.19 186.43C105.277 186.753 105.407 187.04 105.58 187.291C105.758 187.542 105.979 187.74 106.243 187.886C106.507 188.027 106.815 188.098 107.166 188.098C107.512 188.098 107.815 188.027 108.075 187.886C108.34 187.74 108.558 187.542 108.731 187.291C108.905 187.04 109.035 186.753 109.121 186.43C109.212 186.102 109.258 185.753 109.258 185.384V185.227C109.258 184.862 109.212 184.518 109.121 184.194C109.035 183.866 108.902 183.577 108.725 183.326C108.551 183.071 108.333 182.87 108.068 182.725C107.809 182.579 107.503 182.506 107.152 182.506C106.806 182.506 106.501 182.579 106.236 182.725C105.977 182.87 105.758 183.071 105.58 183.326C105.407 183.577 105.277 183.866 105.19 184.194C105.104 184.518 105.061 184.862 105.061 185.227ZM113.38 183.183V189H112.115V181.604H113.312L113.38 183.183ZM113.079 185.021L112.553 185.001C112.557 184.495 112.632 184.028 112.778 183.6C112.924 183.167 113.129 182.791 113.394 182.472C113.658 182.153 113.972 181.907 114.337 181.733C114.706 181.556 115.114 181.467 115.561 181.467C115.925 181.467 116.253 181.517 116.545 181.617C116.837 181.713 117.085 181.868 117.29 182.082C117.5 182.296 117.659 182.574 117.769 182.916C117.878 183.253 117.933 183.666 117.933 184.153V189H116.661V184.14C116.661 183.752 116.604 183.442 116.49 183.21C116.376 182.973 116.21 182.802 115.991 182.697C115.772 182.588 115.504 182.533 115.185 182.533C114.87 182.533 114.583 182.599 114.323 182.731C114.068 182.864 113.847 183.046 113.66 183.278C113.478 183.511 113.334 183.777 113.229 184.078C113.129 184.374 113.079 184.689 113.079 185.021Z" fill="#949699"/>
<defs>
<linearGradient id="paint0_linear_3944_24509" x1="91.5" y1="30.74" x2="79.8623" y2="160.963" gradientUnits="userSpaceOnUse">
<stop offset="0.1975" stop-color="#FFB666"/>
<stop offset="0.95505" stop-color="#FF0E65"/>
</linearGradient>
<linearGradient id="paint1_linear_3944_24509" x1="91.5" y1="30.74" x2="79.8623" y2="160.963" gradientUnits="userSpaceOnUse">
<stop offset="0.1975" stop-color="#FFB666"/>
<stop offset="0.95505" stop-color="#FF0E65"/>
</linearGradient>
<linearGradient id="paint2_linear_3944_24509" x1="91.5" y1="30.74" x2="79.8623" y2="160.963" gradientUnits="userSpaceOnUse">
<stop offset="0.1975" stop-color="#FFB666"/>
<stop offset="0.95505" stop-color="#FF0E65"/>
</linearGradient>
<linearGradient id="paint3_linear_3944_24509" x1="91.5" y1="30.74" x2="79.8623" y2="160.963" gradientUnits="userSpaceOnUse">
<stop offset="0.1975" stop-color="#FFB666"/>
<stop offset="0.95505" stop-color="#FF0E65"/>
</linearGradient>
</defs>
</svg>
