<svg width="160" height="212" viewBox="0 0 160 212" fill="none" xmlns="http://www.w3.org/2000/svg">
<path d="M79 16.5774C79.6188 16.2201 80.3812 16.2201 81 16.5774L120.569 39.4226C121.188 39.7799 121.569 40.4402 121.569 41.1547V86.8453C121.569 87.5598 121.188 88.2201 120.569 88.5774L81 111.423C80.3812 111.78 79.6188 111.78 79 111.423L39.4308 88.5774C38.812 88.2201 38.4308 87.5598 38.4308 86.8453V41.1547C38.4308 40.4402 38.812 39.7799 39.4308 39.4226L79 16.5774Z" fill="#F6F6F6"/>
<path d="M73.4452 47.6C73.4452 47.3791 73.6243 47.2 73.8452 47.2H86.2494C86.4703 47.2 86.6494 47.3791 86.6494 47.6V57.0839C86.6494 57.3048 86.4703 57.4839 86.2494 57.4839H73.8452C73.6243 57.4839 73.4452 57.3048 73.4452 57.0839V47.6Z" fill="url(#paint0_linear_3944_24502)"/>
<path d="M70.4043 57.4839C70.6252 57.4839 70.8043 57.3048 70.8043 57.0839V47.6C70.8043 47.3791 70.6299 47.2 70.409 47.2C68.8152 47.2 64.73 47.2 61.5978 47.2C59.3887 47.2 57.6 48.9909 57.6 51.2V57.0839C57.6 57.3048 57.7791 57.4839 58 57.4839H70.4043Z" fill="url(#paint1_linear_3944_24502)"/>
<path d="M57.6 60.5247C57.6 60.3038 57.7791 60.1247 58 60.1247H70.4043C70.6252 60.1247 70.8043 60.3038 70.8043 60.5247V81.2C70.8043 81.4209 70.6299 81.6 70.409 81.6C68.8152 81.6 64.73 81.6 61.5978 81.6C59.3887 81.6 57.6 79.8092 57.6 77.6V60.5247Z" fill="url(#paint2_linear_3944_24502)"/>
<path d="M73.4452 60.5247C73.4452 60.3038 73.6243 60.1247 73.8452 60.1247H86.2494C86.4703 60.1247 86.6494 60.3038 86.6494 60.5247V81.2C86.6494 81.4209 86.4703 81.6 86.2494 81.6H73.8452C73.6243 81.6 73.4452 81.4209 73.4452 81.2V60.5247Z" fill="url(#paint3_linear_3944_24502)"/>
<path d="M89.6904 60.1247C89.4695 60.1247 89.2904 60.3038 89.2904 60.5247V81.2C89.2904 81.4209 89.4695 81.6 89.6904 81.6C92.5995 81.6 95.5085 81.6 98.4176 81.6C100.62 81.6 102.408 79.8199 102.418 77.6176L102.493 60.5265C102.494 60.3049 102.314 60.1247 102.093 60.1247H89.6904Z" fill="url(#paint4_linear_3944_24502)"/>
<path d="M102.095 57.4839C102.315 57.4839 102.495 57.3048 102.495 57.0839V51.2C102.495 48.9909 100.706 47.2 98.4968 47.2C95.3646 47.2 91.2794 47.2 89.6857 47.2C89.4648 47.2 89.2904 47.3791 89.2904 47.6V57.0839C89.2904 57.3048 89.4695 57.4839 89.6904 57.4839H102.095Z" fill="url(#paint5_linear_3944_24502)"/>
<path d="M57.7832 128.781V143H55.3516V128.781H57.7832ZM62.2461 128.781V130.734H50.9277V128.781H62.2461ZM68.5352 140.881V135.842C68.5352 135.464 68.4668 135.139 68.3301 134.865C68.1934 134.592 67.985 134.38 67.7051 134.23C67.4316 134.081 67.0866 134.006 66.6699 134.006C66.2858 134.006 65.9538 134.071 65.6738 134.201C65.3939 134.331 65.1758 134.507 65.0195 134.729C64.8633 134.95 64.7852 135.201 64.7852 135.48H62.4414C62.4414 135.064 62.5423 134.66 62.7441 134.27C62.946 133.879 63.2389 133.531 63.623 133.225C64.0072 132.919 64.4661 132.678 65 132.502C65.5339 132.326 66.1328 132.238 66.7969 132.238C67.5911 132.238 68.2943 132.372 68.9062 132.639C69.5247 132.906 70.0098 133.309 70.3613 133.85C70.7194 134.383 70.8984 135.054 70.8984 135.861V140.559C70.8984 141.04 70.931 141.473 70.9961 141.857C71.0677 142.235 71.1686 142.564 71.2988 142.844V143H68.8867C68.776 142.746 68.6882 142.424 68.623 142.033C68.5645 141.636 68.5352 141.252 68.5352 140.881ZM68.877 136.574L68.8965 138.029H67.207C66.7708 138.029 66.3867 138.072 66.0547 138.156C65.7227 138.234 65.446 138.352 65.2246 138.508C65.0033 138.664 64.8372 138.853 64.7266 139.074C64.6159 139.296 64.5605 139.546 64.5605 139.826C64.5605 140.106 64.6257 140.363 64.7559 140.598C64.8861 140.826 65.0749 141.005 65.3223 141.135C65.5762 141.265 65.8822 141.33 66.2402 141.33C66.722 141.33 67.1419 141.232 67.5 141.037C67.8646 140.835 68.151 140.591 68.3594 140.305C68.5677 140.012 68.6784 139.735 68.6914 139.475L69.4531 140.52C69.375 140.786 69.2415 141.073 69.0527 141.379C68.8639 141.685 68.6165 141.978 68.3105 142.258C68.0111 142.531 67.6497 142.756 67.2266 142.932C66.8099 143.107 66.3281 143.195 65.7812 143.195C65.0911 143.195 64.4759 143.059 63.9355 142.785C63.3952 142.505 62.972 142.131 62.666 141.662C62.36 141.187 62.207 140.65 62.207 140.051C62.207 139.491 62.3112 138.996 62.5195 138.566C62.7344 138.13 63.0469 137.766 63.457 137.473C63.8737 137.18 64.3815 136.958 64.9805 136.809C65.5794 136.652 66.263 136.574 67.0312 136.574H68.877ZM73.3691 128H75.7227V140.744L75.498 143H73.3691V128ZM82.6172 137.619V137.824C82.6172 138.605 82.5293 139.325 82.3535 139.982C82.1842 140.633 81.9238 141.2 81.5723 141.682C81.2272 142.163 80.7975 142.538 80.2832 142.805C79.7754 143.065 79.1862 143.195 78.5156 143.195C77.8581 143.195 77.2852 143.072 76.7969 142.824C76.3086 142.577 75.8984 142.225 75.5664 141.77C75.2409 141.314 74.9772 140.77 74.7754 140.139C74.5736 139.507 74.4303 138.811 74.3457 138.049V137.395C74.4303 136.626 74.5736 135.93 74.7754 135.305C74.9772 134.673 75.2409 134.13 75.5664 133.674C75.8984 133.212 76.3053 132.857 76.7871 132.609C77.2754 132.362 77.8451 132.238 78.4961 132.238C79.1732 132.238 79.7689 132.368 80.2832 132.629C80.804 132.889 81.237 133.26 81.582 133.742C81.9271 134.217 82.1842 134.784 82.3535 135.441C82.5293 136.099 82.6172 136.825 82.6172 137.619ZM80.2637 137.824V137.619C80.2637 137.144 80.2246 136.698 80.1465 136.281C80.0684 135.858 79.9382 135.487 79.7559 135.168C79.5801 134.849 79.3392 134.598 79.0332 134.416C78.7337 134.227 78.3594 134.133 77.9102 134.133C77.4935 134.133 77.1354 134.204 76.8359 134.348C76.5365 134.491 76.2858 134.686 76.084 134.934C75.8822 135.181 75.7227 135.467 75.6055 135.793C75.4948 136.118 75.4199 136.47 75.3809 136.848V138.615C75.4395 139.104 75.5632 139.553 75.752 139.963C75.9473 140.367 76.2207 140.692 76.5723 140.939C76.9238 141.18 77.3763 141.301 77.9297 141.301C78.3659 141.301 78.7337 141.213 79.0332 141.037C79.3327 140.861 79.5703 140.617 79.7461 140.305C79.9284 139.986 80.0586 139.615 80.1367 139.191C80.2214 138.768 80.2637 138.312 80.2637 137.824ZM87.1289 128V143H84.7656V128H87.1289ZM94.3652 143.195C93.584 143.195 92.8776 143.068 92.2461 142.814C91.6211 142.554 91.0872 142.193 90.6445 141.73C90.2083 141.268 89.873 140.725 89.6387 140.1C89.4043 139.475 89.2871 138.801 89.2871 138.078V137.688C89.2871 136.861 89.4076 136.112 89.6484 135.441C89.8893 134.771 90.2246 134.198 90.6543 133.723C91.084 133.241 91.5918 132.873 92.1777 132.619C92.7637 132.365 93.3984 132.238 94.082 132.238C94.8372 132.238 95.498 132.365 96.0645 132.619C96.6309 132.873 97.0996 133.231 97.4707 133.693C97.8483 134.149 98.1283 134.693 98.3105 135.324C98.4993 135.956 98.5938 136.652 98.5938 137.414V138.42H90.4297V136.73H96.2695V136.545C96.2565 136.122 96.1719 135.725 96.0156 135.354C95.8659 134.982 95.6348 134.683 95.3223 134.455C95.0098 134.227 94.5931 134.113 94.0723 134.113C93.6816 134.113 93.3333 134.198 93.0273 134.367C92.7279 134.53 92.4772 134.768 92.2754 135.08C92.0736 135.393 91.9173 135.77 91.8066 136.213C91.7025 136.649 91.6504 137.141 91.6504 137.688V138.078C91.6504 138.54 91.7122 138.97 91.8359 139.367C91.9661 139.758 92.1549 140.1 92.4023 140.393C92.6497 140.686 92.9492 140.917 93.3008 141.086C93.6523 141.249 94.0527 141.33 94.502 141.33C95.0684 141.33 95.5729 141.216 96.0156 140.988C96.4583 140.76 96.8424 140.438 97.168 140.021L98.4082 141.223C98.1803 141.555 97.8841 141.874 97.5195 142.18C97.1549 142.479 96.709 142.723 96.1816 142.912C95.6608 143.101 95.0553 143.195 94.3652 143.195ZM106.357 140.139C106.357 139.904 106.299 139.693 106.182 139.504C106.064 139.309 105.84 139.133 105.508 138.977C105.182 138.82 104.701 138.677 104.062 138.547C103.503 138.423 102.988 138.277 102.52 138.107C102.057 137.932 101.66 137.72 101.328 137.473C100.996 137.225 100.739 136.932 100.557 136.594C100.374 136.255 100.283 135.865 100.283 135.422C100.283 134.992 100.378 134.585 100.566 134.201C100.755 133.817 101.025 133.479 101.377 133.186C101.729 132.893 102.155 132.661 102.656 132.492C103.164 132.323 103.73 132.238 104.355 132.238C105.241 132.238 105.999 132.388 106.631 132.688C107.269 132.98 107.757 133.381 108.096 133.889C108.434 134.39 108.604 134.956 108.604 135.588H106.25C106.25 135.308 106.178 135.048 106.035 134.807C105.898 134.559 105.69 134.361 105.41 134.211C105.13 134.055 104.779 133.977 104.355 133.977C103.952 133.977 103.617 134.042 103.35 134.172C103.089 134.296 102.894 134.458 102.764 134.66C102.64 134.862 102.578 135.083 102.578 135.324C102.578 135.5 102.611 135.66 102.676 135.803C102.747 135.939 102.865 136.066 103.027 136.184C103.19 136.294 103.411 136.398 103.691 136.496C103.978 136.594 104.336 136.688 104.766 136.779C105.573 136.949 106.266 137.167 106.846 137.434C107.432 137.694 107.881 138.033 108.193 138.449C108.506 138.859 108.662 139.38 108.662 140.012C108.662 140.48 108.561 140.91 108.359 141.301C108.164 141.685 107.878 142.02 107.5 142.307C107.122 142.587 106.67 142.805 106.143 142.961C105.622 143.117 105.036 143.195 104.385 143.195C103.428 143.195 102.617 143.026 101.953 142.688C101.289 142.342 100.785 141.903 100.439 141.369C100.101 140.829 99.9316 140.269 99.9316 139.689H102.207C102.233 140.126 102.354 140.474 102.568 140.734C102.79 140.988 103.063 141.174 103.389 141.291C103.721 141.402 104.062 141.457 104.414 141.457C104.837 141.457 105.192 141.402 105.479 141.291C105.765 141.174 105.983 141.018 106.133 140.822C106.283 140.62 106.357 140.393 106.357 140.139Z" fill="#33373D"/>
<path d="M34.4453 159.047V169H33.126V159.047H34.4453ZM37.918 163.183V169H36.6533V161.604H37.8496L37.918 163.183ZM37.6172 165.021L37.0908 165.001C37.0954 164.495 37.1706 164.028 37.3164 163.6C37.4622 163.167 37.6673 162.791 37.9316 162.472C38.196 162.153 38.5104 161.907 38.875 161.733C39.2441 161.556 39.652 161.467 40.0986 161.467C40.4632 161.467 40.7913 161.517 41.083 161.617C41.3747 161.713 41.623 161.868 41.8281 162.082C42.0378 162.296 42.1973 162.574 42.3066 162.916C42.416 163.253 42.4707 163.666 42.4707 164.153V169H41.1992V164.14C41.1992 163.752 41.1423 163.442 41.0283 163.21C40.9144 162.973 40.748 162.802 40.5293 162.697C40.3105 162.588 40.0417 162.533 39.7227 162.533C39.4082 162.533 39.1211 162.599 38.8613 162.731C38.6061 162.864 38.3851 163.046 38.1982 163.278C38.016 163.511 37.8724 163.777 37.7676 164.078C37.6673 164.374 37.6172 164.689 37.6172 165.021ZM47.4883 161.604V162.574H43.4893V161.604H47.4883ZM44.8428 159.806H46.1074V167.168C46.1074 167.419 46.1462 167.608 46.2236 167.735C46.3011 167.863 46.4014 167.947 46.5244 167.988C46.6475 168.029 46.7796 168.05 46.9209 168.05C47.0257 168.05 47.1351 168.041 47.249 168.022C47.3675 168 47.4564 167.981 47.5156 167.968L47.5225 169C47.4222 169.032 47.29 169.062 47.126 169.089C46.9665 169.121 46.7728 169.137 46.5449 169.137C46.235 169.137 45.9502 169.075 45.6904 168.952C45.4307 168.829 45.2233 168.624 45.0684 168.337C44.918 168.045 44.8428 167.653 44.8428 167.161V159.806ZM52.041 169.137C51.526 169.137 51.0589 169.05 50.6396 168.877C50.2249 168.699 49.8672 168.451 49.5664 168.132C49.2702 167.813 49.0423 167.435 48.8828 166.997C48.7233 166.56 48.6436 166.081 48.6436 165.562V165.274C48.6436 164.673 48.7324 164.137 48.9102 163.668C49.0879 163.194 49.3294 162.793 49.6348 162.465C49.9401 162.137 50.2865 161.888 50.6738 161.72C51.0612 161.551 51.4622 161.467 51.877 161.467C52.4056 161.467 52.8613 161.558 53.2441 161.74C53.6315 161.923 53.9482 162.178 54.1943 162.506C54.4404 162.829 54.6227 163.212 54.7412 163.654C54.8597 164.092 54.9189 164.57 54.9189 165.09V165.657H49.3955V164.625H53.6543V164.529C53.6361 164.201 53.5677 163.882 53.4492 163.572C53.3353 163.262 53.153 163.007 52.9023 162.807C52.6517 162.606 52.3099 162.506 51.877 162.506C51.5898 162.506 51.3255 162.567 51.084 162.69C50.8424 162.809 50.6351 162.987 50.4619 163.224C50.2887 163.461 50.1543 163.75 50.0586 164.092C49.9629 164.434 49.915 164.828 49.915 165.274V165.562C49.915 165.912 49.9629 166.243 50.0586 166.553C50.1589 166.858 50.3024 167.127 50.4893 167.359C50.6807 167.592 50.9108 167.774 51.1797 167.906C51.4531 168.038 51.763 168.104 52.1094 168.104C52.556 168.104 52.9342 168.013 53.2441 167.831C53.554 167.649 53.8252 167.405 54.0576 167.1L54.8232 167.708C54.6637 167.95 54.4609 168.18 54.2148 168.398C53.9688 168.617 53.6657 168.795 53.3057 168.932C52.9502 169.068 52.5286 169.137 52.041 169.137ZM57.6602 162.766V169H56.3955V161.604H57.626L57.6602 162.766ZM59.9707 161.562L59.9639 162.738C59.859 162.715 59.7588 162.702 59.6631 162.697C59.5719 162.688 59.4671 162.684 59.3486 162.684C59.057 162.684 58.7995 162.729 58.5762 162.82C58.3529 162.911 58.1637 163.039 58.0088 163.203C57.8538 163.367 57.7308 163.563 57.6396 163.791C57.5531 164.014 57.4961 164.26 57.4688 164.529L57.1133 164.734C57.1133 164.288 57.1566 163.868 57.2432 163.477C57.3343 163.085 57.4733 162.738 57.6602 162.438C57.847 162.132 58.084 161.895 58.3711 161.727C58.6628 161.553 59.0091 161.467 59.4102 161.467C59.5013 161.467 59.6061 161.478 59.7246 161.501C59.8431 161.519 59.9251 161.54 59.9707 161.562ZM65.2275 167.735V163.928C65.2275 163.636 65.1683 163.383 65.0498 163.169C64.9359 162.95 64.7627 162.782 64.5303 162.663C64.2979 162.545 64.0107 162.485 63.6689 162.485C63.3499 162.485 63.0697 162.54 62.8281 162.649C62.5911 162.759 62.4043 162.902 62.2676 163.08C62.1354 163.258 62.0693 163.449 62.0693 163.654H60.8047C60.8047 163.39 60.873 163.128 61.0098 162.868C61.1465 162.608 61.3424 162.374 61.5977 162.164C61.8574 161.95 62.1673 161.781 62.5273 161.658C62.8919 161.531 63.2975 161.467 63.7441 161.467C64.2819 161.467 64.7559 161.558 65.166 161.74C65.5807 161.923 65.9043 162.198 66.1367 162.567C66.3737 162.932 66.4922 163.39 66.4922 163.941V167.387C66.4922 167.633 66.5127 167.895 66.5537 168.173C66.5993 168.451 66.6654 168.69 66.752 168.891V169H65.4326C65.3688 168.854 65.3187 168.66 65.2822 168.419C65.2458 168.173 65.2275 167.945 65.2275 167.735ZM65.4463 164.516L65.46 165.404H64.1816C63.8216 165.404 63.5003 165.434 63.2178 165.493C62.9352 165.548 62.6982 165.632 62.5068 165.746C62.3154 165.86 62.1696 166.004 62.0693 166.177C61.9691 166.345 61.9189 166.544 61.9189 166.771C61.9189 167.004 61.9714 167.216 62.0762 167.407C62.181 167.599 62.3382 167.751 62.5479 167.865C62.762 167.975 63.0241 168.029 63.334 168.029C63.7214 168.029 64.0632 167.947 64.3594 167.783C64.6556 167.619 64.8903 167.419 65.0635 167.182C65.2412 166.945 65.3369 166.715 65.3506 166.491L65.8906 167.1C65.8587 167.291 65.7721 167.503 65.6309 167.735C65.4896 167.968 65.3005 168.191 65.0635 168.405C64.8311 168.615 64.5531 168.79 64.2295 168.932C63.9105 169.068 63.5505 169.137 63.1494 169.137C62.6481 169.137 62.2083 169.039 61.8301 168.843C61.4564 168.647 61.1647 168.385 60.9551 168.057C60.75 167.724 60.6475 167.353 60.6475 166.942C60.6475 166.546 60.7249 166.197 60.8799 165.896C61.0348 165.591 61.2581 165.338 61.5498 165.138C61.8415 164.933 62.1924 164.778 62.6025 164.673C63.0127 164.568 63.4707 164.516 63.9766 164.516H65.4463ZM71.4414 168.098C71.7422 168.098 72.0202 168.036 72.2754 167.913C72.5306 167.79 72.7402 167.621 72.9043 167.407C73.0684 167.188 73.1618 166.94 73.1846 166.662H74.3877C74.3649 167.1 74.2168 167.507 73.9434 167.886C73.6745 168.259 73.3213 168.562 72.8838 168.795C72.4463 169.023 71.9655 169.137 71.4414 169.137C70.8854 169.137 70.4001 169.039 69.9854 168.843C69.5752 168.647 69.2334 168.378 68.96 168.036C68.6911 167.694 68.4883 167.302 68.3516 166.86C68.2194 166.414 68.1533 165.942 68.1533 165.445V165.158C68.1533 164.661 68.2194 164.192 68.3516 163.75C68.4883 163.303 68.6911 162.909 68.96 162.567C69.2334 162.226 69.5752 161.957 69.9854 161.761C70.4001 161.565 70.8854 161.467 71.4414 161.467C72.0202 161.467 72.526 161.585 72.959 161.822C73.3919 162.055 73.7314 162.374 73.9775 162.779C74.2282 163.18 74.3649 163.636 74.3877 164.146H73.1846C73.1618 163.841 73.0752 163.565 72.9248 163.319C72.779 163.073 72.5785 162.877 72.3232 162.731C72.0726 162.581 71.7786 162.506 71.4414 162.506C71.054 162.506 70.7282 162.583 70.4639 162.738C70.2041 162.889 69.9967 163.094 69.8418 163.354C69.6914 163.609 69.582 163.894 69.5137 164.208C69.4499 164.518 69.418 164.835 69.418 165.158V165.445C69.418 165.769 69.4499 166.088 69.5137 166.402C69.5775 166.717 69.6846 167.002 69.835 167.257C69.9899 167.512 70.1973 167.717 70.457 167.872C70.7214 168.022 71.0495 168.098 71.4414 168.098ZM78.9062 161.604V162.574H74.9072V161.604H78.9062ZM76.2607 159.806H77.5254V167.168C77.5254 167.419 77.5641 167.608 77.6416 167.735C77.7191 167.863 77.8193 167.947 77.9424 167.988C78.0654 168.029 78.1976 168.05 78.3389 168.05C78.4437 168.05 78.5531 168.041 78.667 168.022C78.7855 168 78.8743 167.981 78.9336 167.968L78.9404 169C78.8402 169.032 78.708 169.062 78.5439 169.089C78.3844 169.121 78.1908 169.137 77.9629 169.137C77.653 169.137 77.3682 169.075 77.1084 168.952C76.8486 168.829 76.6413 168.624 76.4863 168.337C76.3359 168.045 76.2607 167.653 76.2607 167.161V159.806ZM81.7637 161.604V169H80.4922V161.604H81.7637ZM80.3965 159.642C80.3965 159.437 80.458 159.263 80.5811 159.122C80.7087 158.981 80.8955 158.91 81.1416 158.91C81.3831 158.91 81.5677 158.981 81.6953 159.122C81.8275 159.263 81.8936 159.437 81.8936 159.642C81.8936 159.838 81.8275 160.006 81.6953 160.147C81.5677 160.284 81.3831 160.353 81.1416 160.353C80.8955 160.353 80.7087 160.284 80.5811 160.147C80.458 160.006 80.3965 159.838 80.3965 159.642ZM86.043 167.858L88.0664 161.604H89.3584L86.6992 169H85.8516L86.043 167.858ZM84.3545 161.604L86.4395 167.893L86.583 169H85.7354L83.0557 161.604H84.3545ZM93.5488 169.137C93.0339 169.137 92.5667 169.05 92.1475 168.877C91.7327 168.699 91.375 168.451 91.0742 168.132C90.778 167.813 90.5501 167.435 90.3906 166.997C90.2311 166.56 90.1514 166.081 90.1514 165.562V165.274C90.1514 164.673 90.2402 164.137 90.418 163.668C90.5957 163.194 90.8372 162.793 91.1426 162.465C91.4479 162.137 91.7943 161.888 92.1816 161.72C92.569 161.551 92.9701 161.467 93.3848 161.467C93.9134 161.467 94.3691 161.558 94.752 161.74C95.1393 161.923 95.4561 162.178 95.7021 162.506C95.9482 162.829 96.1305 163.212 96.249 163.654C96.3675 164.092 96.4268 164.57 96.4268 165.09V165.657H90.9033V164.625H95.1621V164.529C95.1439 164.201 95.0755 163.882 94.957 163.572C94.8431 163.262 94.6608 163.007 94.4102 162.807C94.1595 162.606 93.8177 162.506 93.3848 162.506C93.0977 162.506 92.8333 162.567 92.5918 162.69C92.3503 162.809 92.1429 162.987 91.9697 163.224C91.7965 163.461 91.6621 163.75 91.5664 164.092C91.4707 164.434 91.4229 164.828 91.4229 165.274V165.562C91.4229 165.912 91.4707 166.243 91.5664 166.553C91.6667 166.858 91.8102 167.127 91.9971 167.359C92.1885 167.592 92.4186 167.774 92.6875 167.906C92.9609 168.038 93.2708 168.104 93.6172 168.104C94.0638 168.104 94.4421 168.013 94.752 167.831C95.0618 167.649 95.333 167.405 95.5654 167.1L96.3311 167.708C96.1715 167.95 95.9688 168.18 95.7227 168.398C95.4766 168.617 95.1735 168.795 94.8135 168.932C94.458 169.068 94.0365 169.137 93.5488 169.137ZM106.038 167.564V158.5H107.31V169H106.147L106.038 167.564ZM101.062 165.384V165.24C101.062 164.675 101.13 164.162 101.267 163.702C101.408 163.237 101.606 162.839 101.861 162.506C102.121 162.173 102.429 161.918 102.784 161.74C103.144 161.558 103.545 161.467 103.987 161.467C104.452 161.467 104.858 161.549 105.204 161.713C105.555 161.872 105.851 162.107 106.093 162.417C106.339 162.722 106.533 163.091 106.674 163.524C106.815 163.957 106.913 164.447 106.968 164.994V165.623C106.918 166.165 106.82 166.653 106.674 167.086C106.533 167.519 106.339 167.888 106.093 168.193C105.851 168.499 105.555 168.733 105.204 168.897C104.853 169.057 104.443 169.137 103.974 169.137C103.541 169.137 103.144 169.043 102.784 168.856C102.429 168.67 102.121 168.408 101.861 168.07C101.606 167.733 101.408 167.337 101.267 166.881C101.13 166.421 101.062 165.922 101.062 165.384ZM102.333 165.24V165.384C102.333 165.753 102.369 166.099 102.442 166.423C102.52 166.746 102.638 167.031 102.798 167.277C102.957 167.523 103.16 167.717 103.406 167.858C103.652 167.995 103.946 168.063 104.288 168.063C104.707 168.063 105.051 167.975 105.32 167.797C105.594 167.619 105.812 167.384 105.977 167.093C106.141 166.801 106.268 166.484 106.359 166.143V164.495C106.305 164.244 106.225 164.003 106.12 163.771C106.02 163.534 105.888 163.324 105.724 163.142C105.564 162.955 105.366 162.807 105.129 162.697C104.896 162.588 104.621 162.533 104.302 162.533C103.955 162.533 103.657 162.606 103.406 162.752C103.16 162.893 102.957 163.089 102.798 163.34C102.638 163.586 102.52 163.873 102.442 164.201C102.369 164.525 102.333 164.871 102.333 165.24ZM113.64 167.735V163.928C113.64 163.636 113.58 163.383 113.462 163.169C113.348 162.95 113.175 162.782 112.942 162.663C112.71 162.545 112.423 162.485 112.081 162.485C111.762 162.485 111.482 162.54 111.24 162.649C111.003 162.759 110.816 162.902 110.68 163.08C110.548 163.258 110.481 163.449 110.481 163.654H109.217C109.217 163.39 109.285 163.128 109.422 162.868C109.559 162.608 109.755 162.374 110.01 162.164C110.27 161.95 110.579 161.781 110.939 161.658C111.304 161.531 111.71 161.467 112.156 161.467C112.694 161.467 113.168 161.558 113.578 161.74C113.993 161.923 114.316 162.198 114.549 162.567C114.786 162.932 114.904 163.39 114.904 163.941V167.387C114.904 167.633 114.925 167.895 114.966 168.173C115.011 168.451 115.077 168.69 115.164 168.891V169H113.845C113.781 168.854 113.731 168.66 113.694 168.419C113.658 168.173 113.64 167.945 113.64 167.735ZM113.858 164.516L113.872 165.404H112.594C112.234 165.404 111.912 165.434 111.63 165.493C111.347 165.548 111.11 165.632 110.919 165.746C110.728 165.86 110.582 166.004 110.481 166.177C110.381 166.345 110.331 166.544 110.331 166.771C110.331 167.004 110.383 167.216 110.488 167.407C110.593 167.599 110.75 167.751 110.96 167.865C111.174 167.975 111.436 168.029 111.746 168.029C112.133 168.029 112.475 167.947 112.771 167.783C113.068 167.619 113.302 167.419 113.476 167.182C113.653 166.945 113.749 166.715 113.763 166.491L114.303 167.1C114.271 167.291 114.184 167.503 114.043 167.735C113.902 167.968 113.713 168.191 113.476 168.405C113.243 168.615 112.965 168.79 112.642 168.932C112.323 169.068 111.963 169.137 111.562 169.137C111.06 169.137 110.62 169.039 110.242 168.843C109.868 168.647 109.577 168.385 109.367 168.057C109.162 167.724 109.06 167.353 109.06 166.942C109.06 166.546 109.137 166.197 109.292 165.896C109.447 165.591 109.67 165.338 109.962 165.138C110.254 164.933 110.604 164.778 111.015 164.673C111.425 164.568 111.883 164.516 112.389 164.516H113.858ZM119.99 161.604V162.574H115.991V161.604H119.99ZM117.345 159.806H118.609V167.168C118.609 167.419 118.648 167.608 118.726 167.735C118.803 167.863 118.903 167.947 119.026 167.988C119.149 168.029 119.282 168.05 119.423 168.05C119.528 168.05 119.637 168.041 119.751 168.022C119.869 168 119.958 167.981 120.018 167.968L120.024 169C119.924 169.032 119.792 169.062 119.628 169.089C119.468 169.121 119.275 169.137 119.047 169.137C118.737 169.137 118.452 169.075 118.192 168.952C117.933 168.829 117.725 168.624 117.57 168.337C117.42 168.045 117.345 167.653 117.345 167.161V159.806ZM125.835 167.735V163.928C125.835 163.636 125.776 163.383 125.657 163.169C125.543 162.95 125.37 162.782 125.138 162.663C124.905 162.545 124.618 162.485 124.276 162.485C123.957 162.485 123.677 162.54 123.436 162.649C123.199 162.759 123.012 162.902 122.875 163.08C122.743 163.258 122.677 163.449 122.677 163.654H121.412C121.412 163.39 121.48 163.128 121.617 162.868C121.754 162.608 121.95 162.374 122.205 162.164C122.465 161.95 122.775 161.781 123.135 161.658C123.499 161.531 123.905 161.467 124.352 161.467C124.889 161.467 125.363 161.558 125.773 161.74C126.188 161.923 126.512 162.198 126.744 162.567C126.981 162.932 127.1 163.39 127.1 163.941V167.387C127.1 167.633 127.12 167.895 127.161 168.173C127.207 168.451 127.273 168.69 127.359 168.891V169H126.04C125.976 168.854 125.926 168.66 125.89 168.419C125.853 168.173 125.835 167.945 125.835 167.735ZM126.054 164.516L126.067 165.404H124.789C124.429 165.404 124.108 165.434 123.825 165.493C123.543 165.548 123.306 165.632 123.114 165.746C122.923 165.86 122.777 166.004 122.677 166.177C122.576 166.345 122.526 166.544 122.526 166.771C122.526 167.004 122.579 167.216 122.684 167.407C122.788 167.599 122.946 167.751 123.155 167.865C123.369 167.975 123.632 168.029 123.941 168.029C124.329 168.029 124.671 167.947 124.967 167.783C125.263 167.619 125.498 167.419 125.671 167.182C125.849 166.945 125.944 166.715 125.958 166.491L126.498 167.1C126.466 167.291 126.38 167.503 126.238 167.735C126.097 167.968 125.908 168.191 125.671 168.405C125.438 168.615 125.16 168.79 124.837 168.932C124.518 169.068 124.158 169.137 123.757 169.137C123.256 169.137 122.816 169.039 122.438 168.843C122.064 168.647 121.772 168.385 121.562 168.057C121.357 167.724 121.255 167.353 121.255 166.942C121.255 166.546 121.332 166.197 121.487 165.896C121.642 165.591 121.866 165.338 122.157 165.138C122.449 164.933 122.8 164.778 123.21 164.673C123.62 164.568 124.078 164.516 124.584 164.516H126.054ZM44.2959 187.858L46.3193 181.604H47.6113L44.9521 189H44.1045L44.2959 187.858ZM42.6074 181.604L44.6924 187.893L44.8359 189H43.9883L41.3086 181.604H42.6074ZM50.2021 181.604V189H48.9307V181.604H50.2021ZM48.835 179.642C48.835 179.437 48.8965 179.263 49.0195 179.122C49.1471 178.981 49.334 178.91 49.5801 178.91C49.8216 178.91 50.0062 178.981 50.1338 179.122C50.266 179.263 50.332 179.437 50.332 179.642C50.332 179.838 50.266 180.006 50.1338 180.147C50.0062 180.284 49.8216 180.353 49.5801 180.353C49.334 180.353 49.1471 180.284 49.0195 180.147C48.8965 180.006 48.835 179.838 48.835 179.642ZM56.5391 187.038C56.5391 186.856 56.498 186.687 56.416 186.532C56.3385 186.373 56.1768 186.229 55.9307 186.102C55.6891 185.969 55.3245 185.855 54.8369 185.76C54.4268 185.673 54.0553 185.571 53.7227 185.452C53.3945 185.334 53.1143 185.19 52.8818 185.021C52.654 184.853 52.4785 184.655 52.3555 184.427C52.2324 184.199 52.1709 183.932 52.1709 183.627C52.1709 183.335 52.2347 183.06 52.3623 182.8C52.4945 182.54 52.679 182.31 52.916 182.109C53.1576 181.909 53.4469 181.752 53.7842 181.638C54.1214 181.524 54.4974 181.467 54.9121 181.467C55.5046 181.467 56.0104 181.572 56.4297 181.781C56.849 181.991 57.1702 182.271 57.3936 182.622C57.6169 182.968 57.7285 183.354 57.7285 183.777H56.4639C56.4639 183.572 56.4023 183.374 56.2793 183.183C56.1608 182.987 55.9854 182.825 55.7529 182.697C55.5251 182.57 55.2448 182.506 54.9121 182.506C54.5612 182.506 54.2764 182.561 54.0576 182.67C53.8434 182.775 53.6862 182.909 53.5859 183.073C53.4902 183.237 53.4424 183.41 53.4424 183.593C53.4424 183.729 53.4652 183.853 53.5107 183.962C53.5609 184.067 53.6475 184.165 53.7705 184.256C53.8936 184.342 54.0667 184.424 54.29 184.502C54.5133 184.579 54.7982 184.657 55.1445 184.734C55.7507 184.871 56.2497 185.035 56.6416 185.227C57.0335 185.418 57.3252 185.653 57.5166 185.931C57.708 186.209 57.8037 186.546 57.8037 186.942C57.8037 187.266 57.7354 187.562 57.5986 187.831C57.4665 188.1 57.2728 188.332 57.0176 188.528C56.7669 188.72 56.4661 188.87 56.1152 188.979C55.7689 189.084 55.3792 189.137 54.9463 189.137C54.2946 189.137 53.7432 189.021 53.292 188.788C52.8408 188.556 52.499 188.255 52.2666 187.886C52.0342 187.517 51.918 187.127 51.918 186.717H53.1895C53.2077 187.063 53.3079 187.339 53.4902 187.544C53.6725 187.744 53.8958 187.888 54.1602 187.975C54.4245 188.057 54.6865 188.098 54.9463 188.098C55.2926 188.098 55.582 188.052 55.8145 187.961C56.0514 187.87 56.2314 187.744 56.3545 187.585C56.4775 187.425 56.5391 187.243 56.5391 187.038ZM63.9902 187.291V181.604H65.2617V189H64.0518L63.9902 187.291ZM64.2295 185.732L64.7559 185.719C64.7559 186.211 64.7035 186.667 64.5986 187.086C64.4984 187.501 64.3343 187.861 64.1064 188.166C63.8786 188.471 63.5801 188.711 63.2109 188.884C62.8418 189.052 62.3929 189.137 61.8643 189.137C61.5042 189.137 61.1738 189.084 60.873 188.979C60.5768 188.875 60.3216 188.713 60.1074 188.494C59.8932 188.275 59.7269 187.991 59.6084 187.64C59.4945 187.289 59.4375 186.867 59.4375 186.375V181.604H60.7021V186.389C60.7021 186.721 60.7386 186.997 60.8115 187.216C60.889 187.43 60.9915 187.601 61.1191 187.729C61.2513 187.852 61.3971 187.938 61.5566 187.988C61.7207 188.038 61.8893 188.063 62.0625 188.063C62.6003 188.063 63.0264 187.961 63.3408 187.756C63.6553 187.546 63.8809 187.266 64.0176 186.915C64.1589 186.56 64.2295 186.165 64.2295 185.732ZM71.5508 187.735V183.928C71.5508 183.636 71.4915 183.383 71.373 183.169C71.2591 182.95 71.0859 182.782 70.8535 182.663C70.6211 182.545 70.334 182.485 69.9922 182.485C69.6732 182.485 69.3929 182.54 69.1514 182.649C68.9144 182.759 68.7275 182.902 68.5908 183.08C68.4587 183.258 68.3926 183.449 68.3926 183.654H67.1279C67.1279 183.39 67.1963 183.128 67.333 182.868C67.4697 182.608 67.6657 182.374 67.9209 182.164C68.1807 181.95 68.4906 181.781 68.8506 181.658C69.2152 181.531 69.6208 181.467 70.0674 181.467C70.6051 181.467 71.0791 181.558 71.4893 181.74C71.904 181.923 72.2275 182.198 72.46 182.567C72.6969 182.932 72.8154 183.39 72.8154 183.941V187.387C72.8154 187.633 72.8359 187.895 72.877 188.173C72.9225 188.451 72.9886 188.69 73.0752 188.891V189H71.7559C71.6921 188.854 71.6419 188.66 71.6055 188.419C71.569 188.173 71.5508 187.945 71.5508 187.735ZM71.7695 184.516L71.7832 185.404H70.5049C70.1449 185.404 69.8236 185.434 69.541 185.493C69.2585 185.548 69.0215 185.632 68.8301 185.746C68.6387 185.86 68.4928 186.004 68.3926 186.177C68.2923 186.345 68.2422 186.544 68.2422 186.771C68.2422 187.004 68.2946 187.216 68.3994 187.407C68.5042 187.599 68.6615 187.751 68.8711 187.865C69.0853 187.975 69.3473 188.029 69.6572 188.029C70.0446 188.029 70.3864 187.947 70.6826 187.783C70.9788 187.619 71.2135 187.419 71.3867 187.182C71.5645 186.945 71.6602 186.715 71.6738 186.491L72.2139 187.1C72.182 187.291 72.0954 187.503 71.9541 187.735C71.8128 187.968 71.6237 188.191 71.3867 188.405C71.1543 188.615 70.8763 188.79 70.5527 188.932C70.2337 189.068 69.8737 189.137 69.4727 189.137C68.9714 189.137 68.5316 189.039 68.1533 188.843C67.7796 188.647 67.488 188.385 67.2783 188.057C67.0732 187.724 66.9707 187.353 66.9707 186.942C66.9707 186.546 67.0482 186.197 67.2031 185.896C67.3581 185.591 67.5814 185.338 67.873 185.138C68.1647 184.933 68.5156 184.778 68.9258 184.673C69.3359 184.568 69.7939 184.516 70.2998 184.516H71.7695ZM76.1787 178.5V189H74.9072V178.5H76.1787ZM79.583 181.604V189H78.3115V181.604H79.583ZM78.2158 179.642C78.2158 179.437 78.2773 179.263 78.4004 179.122C78.528 178.981 78.7148 178.91 78.9609 178.91C79.2025 178.91 79.387 178.981 79.5146 179.122C79.6468 179.263 79.7129 179.437 79.7129 179.642C79.7129 179.838 79.6468 180.006 79.5146 180.147C79.387 180.284 79.2025 180.353 78.9609 180.353C78.7148 180.353 78.528 180.284 78.4004 180.147C78.2773 180.006 78.2158 179.838 78.2158 179.642ZM87.123 187.961V189H81.7432V187.961H87.123ZM86.9248 182.499L82.0303 189H81.2578V188.07L86.1182 181.604H86.9248V182.499ZM86.3643 181.604V182.649H81.3125V181.604H86.3643ZM92.9199 187.735V183.928C92.9199 183.636 92.8607 183.383 92.7422 183.169C92.6283 182.95 92.4551 182.782 92.2227 182.663C91.9902 182.545 91.7031 182.485 91.3613 182.485C91.0423 182.485 90.762 182.54 90.5205 182.649C90.2835 182.759 90.0967 182.902 89.96 183.08C89.8278 183.258 89.7617 183.449 89.7617 183.654H88.4971C88.4971 183.39 88.5654 183.128 88.7021 182.868C88.8389 182.608 89.0348 182.374 89.29 182.164C89.5498 181.95 89.8597 181.781 90.2197 181.658C90.5843 181.531 90.9899 181.467 91.4365 181.467C91.9743 181.467 92.4482 181.558 92.8584 181.74C93.2731 181.923 93.5967 182.198 93.8291 182.567C94.0661 182.932 94.1846 183.39 94.1846 183.941V187.387C94.1846 187.633 94.2051 187.895 94.2461 188.173C94.2917 188.451 94.3577 188.69 94.4443 188.891V189H93.125C93.0612 188.854 93.0111 188.66 92.9746 188.419C92.9382 188.173 92.9199 187.945 92.9199 187.735ZM93.1387 184.516L93.1523 185.404H91.874C91.514 185.404 91.1927 185.434 90.9102 185.493C90.6276 185.548 90.3906 185.632 90.1992 185.746C90.0078 185.86 89.862 186.004 89.7617 186.177C89.6615 186.345 89.6113 186.544 89.6113 186.771C89.6113 187.004 89.6637 187.216 89.7686 187.407C89.8734 187.599 90.0306 187.751 90.2402 187.865C90.4544 187.975 90.7165 188.029 91.0264 188.029C91.4137 188.029 91.7555 187.947 92.0518 187.783C92.348 187.619 92.5827 187.419 92.7559 187.182C92.9336 186.945 93.0293 186.715 93.043 186.491L93.583 187.1C93.5511 187.291 93.4645 187.503 93.3232 187.735C93.182 187.968 92.9928 188.191 92.7559 188.405C92.5234 188.615 92.2454 188.79 91.9219 188.932C91.6029 189.068 91.2428 189.137 90.8418 189.137C90.3405 189.137 89.9007 189.039 89.5225 188.843C89.1488 188.647 88.8571 188.385 88.6475 188.057C88.4424 187.724 88.3398 187.353 88.3398 186.942C88.3398 186.546 88.4173 186.197 88.5723 185.896C88.7272 185.591 88.9505 185.338 89.2422 185.138C89.5339 184.933 89.8848 184.778 90.2949 184.673C90.7051 184.568 91.1631 184.516 91.6689 184.516H93.1387ZM99.2705 181.604V182.574H95.2715V181.604H99.2705ZM96.625 179.806H97.8896V187.168C97.8896 187.419 97.9284 187.608 98.0059 187.735C98.0833 187.863 98.1836 187.947 98.3066 187.988C98.4297 188.029 98.5618 188.05 98.7031 188.05C98.8079 188.05 98.9173 188.041 99.0312 188.022C99.1497 188 99.2386 187.981 99.2979 187.968L99.3047 189C99.2044 189.032 99.0723 189.062 98.9082 189.089C98.7487 189.121 98.555 189.137 98.3271 189.137C98.0173 189.137 97.7324 189.075 97.4727 188.952C97.2129 188.829 97.0055 188.624 96.8506 188.337C96.7002 188.045 96.625 187.653 96.625 187.161V179.806ZM102.128 181.604V189H100.856V181.604H102.128ZM100.761 179.642C100.761 179.437 100.822 179.263 100.945 179.122C101.073 178.981 101.26 178.91 101.506 178.91C101.747 178.91 101.932 178.981 102.06 179.122C102.192 179.263 102.258 179.437 102.258 179.642C102.258 179.838 102.192 180.006 102.06 180.147C101.932 180.284 101.747 180.353 101.506 180.353C101.26 180.353 101.073 180.284 100.945 180.147C100.822 180.006 100.761 179.838 100.761 179.642ZM103.823 185.384V185.227C103.823 184.693 103.901 184.199 104.056 183.743C104.211 183.283 104.434 182.884 104.726 182.547C105.017 182.205 105.37 181.941 105.785 181.754C106.2 181.562 106.665 181.467 107.18 181.467C107.699 181.467 108.166 181.562 108.581 181.754C109 181.941 109.356 182.205 109.647 182.547C109.944 182.884 110.169 183.283 110.324 183.743C110.479 184.199 110.557 184.693 110.557 185.227V185.384C110.557 185.917 110.479 186.411 110.324 186.867C110.169 187.323 109.944 187.722 109.647 188.063C109.356 188.401 109.003 188.665 108.588 188.856C108.178 189.043 107.713 189.137 107.193 189.137C106.674 189.137 106.207 189.043 105.792 188.856C105.377 188.665 105.022 188.401 104.726 188.063C104.434 187.722 104.211 187.323 104.056 186.867C103.901 186.411 103.823 185.917 103.823 185.384ZM105.088 185.227V185.384C105.088 185.753 105.131 186.102 105.218 186.43C105.304 186.753 105.434 187.04 105.607 187.291C105.785 187.542 106.006 187.74 106.271 187.886C106.535 188.027 106.842 188.098 107.193 188.098C107.54 188.098 107.843 188.027 108.103 187.886C108.367 187.74 108.586 187.542 108.759 187.291C108.932 187.04 109.062 186.753 109.148 186.43C109.24 186.102 109.285 185.753 109.285 185.384V185.227C109.285 184.862 109.24 184.518 109.148 184.194C109.062 183.866 108.93 183.577 108.752 183.326C108.579 183.071 108.36 182.87 108.096 182.725C107.836 182.579 107.531 182.506 107.18 182.506C106.833 182.506 106.528 182.579 106.264 182.725C106.004 182.87 105.785 183.071 105.607 183.326C105.434 183.577 105.304 183.866 105.218 184.194C105.131 184.518 105.088 184.862 105.088 185.227ZM113.407 183.183V189H112.143V181.604H113.339L113.407 183.183ZM113.106 185.021L112.58 185.001C112.585 184.495 112.66 184.028 112.806 183.6C112.951 183.167 113.157 182.791 113.421 182.472C113.685 182.153 114 181.907 114.364 181.733C114.733 181.556 115.141 181.467 115.588 181.467C115.952 181.467 116.281 181.517 116.572 181.617C116.864 181.713 117.112 181.868 117.317 182.082C117.527 182.296 117.687 182.574 117.796 182.916C117.905 183.253 117.96 183.666 117.96 184.153V189H116.688V184.14C116.688 183.752 116.632 183.442 116.518 183.21C116.404 182.973 116.237 182.802 116.019 182.697C115.8 182.588 115.531 182.533 115.212 182.533C114.897 182.533 114.61 182.599 114.351 182.731C114.095 182.864 113.874 183.046 113.688 183.278C113.505 183.511 113.362 183.777 113.257 184.078C113.157 184.374 113.106 184.689 113.106 185.021Z" fill="#949699"/>
<defs>
<linearGradient id="paint0_linear_3944_24502" x1="91.2709" y1="36.536" x2="84.5805" y2="134.24" gradientUnits="userSpaceOnUse">
<stop offset="0.1975" stop-color="#FFB666"/>
<stop offset="0.95505" stop-color="#FF0E65"/>
</linearGradient>
<linearGradient id="paint1_linear_3944_24502" x1="91.2709" y1="36.536" x2="84.5805" y2="134.24" gradientUnits="userSpaceOnUse">
<stop offset="0.1975" stop-color="#FFB666"/>
<stop offset="0.95505" stop-color="#FF0E65"/>
</linearGradient>
<linearGradient id="paint2_linear_3944_24502" x1="91.2709" y1="36.536" x2="84.5805" y2="134.24" gradientUnits="userSpaceOnUse">
<stop offset="0.1975" stop-color="#FFB666"/>
<stop offset="0.95505" stop-color="#FF0E65"/>
</linearGradient>
<linearGradient id="paint3_linear_3944_24502" x1="91.2709" y1="36.536" x2="84.5805" y2="134.24" gradientUnits="userSpaceOnUse">
<stop offset="0.1975" stop-color="#FFB666"/>
<stop offset="0.95505" stop-color="#FF0E65"/>
</linearGradient>
<linearGradient id="paint4_linear_3944_24502" x1="91.2709" y1="36.536" x2="84.5805" y2="134.24" gradientUnits="userSpaceOnUse">
<stop offset="0.1975" stop-color="#FFB666"/>
<stop offset="0.95505" stop-color="#FF0E65"/>
</linearGradient>
<linearGradient id="paint5_linear_3944_24502" x1="91.2709" y1="36.536" x2="84.5805" y2="134.24" gradientUnits="userSpaceOnUse">
<stop offset="0.1975" stop-color="#FFB666"/>
<stop offset="0.95505" stop-color="#FF0E65"/>
</linearGradient>
</defs>
</svg>
