<svg width="499" height="116" viewBox="0 0 499 116" fill="none" xmlns="http://www.w3.org/2000/svg">
<rect width="499" height="116" fill="#2B3038"/>
<path d="M387.409 57.0415C386.435 57.0415 385.51 56.9441 384.682 56.7005C383.854 56.5057 383.074 56.1648 382.246 55.7265L382.198 51.9763H384.341L384.925 54.9472C385.704 55.2881 386.532 55.4342 387.458 55.4342C388.529 55.4342 389.357 55.2394 389.893 54.8498C390.429 54.4602 390.721 53.9244 390.721 53.2426C390.721 52.6582 390.526 52.1711 390.088 51.7815C389.649 51.3919 388.919 51.051 387.896 50.71L386.289 50.1743C385.071 49.7847 384.146 49.2002 383.415 48.4697C382.734 47.7391 382.393 46.7651 382.393 45.6449C382.393 44.7195 382.636 43.9403 383.123 43.2097C383.61 42.4792 384.292 41.8461 385.169 41.4564C386.094 41.0181 387.214 40.7746 388.529 40.7746C389.455 40.7746 390.282 40.872 391.062 41.1155C391.841 41.3103 392.572 41.6512 393.351 42.0896L393.205 45.4501H391.062L390.477 42.7714C389.893 42.5279 389.211 42.3818 388.48 42.3818C387.604 42.3818 386.971 42.5766 386.484 42.9175C385.997 43.2584 385.753 43.7942 385.753 44.3786C385.753 44.9631 385.948 45.4501 386.338 45.791C386.727 46.1319 387.506 46.4729 388.578 46.8625L389.844 47.2521C391.403 47.7879 392.523 48.4697 393.205 49.2489C393.887 50.0282 394.179 51.0023 394.179 52.1224C394.179 53.5835 393.594 54.7524 392.425 55.6778C391.208 56.6031 389.552 57.0415 387.409 57.0415Z" fill="white"/>
<path d="M373.139 42.2806C372.603 42.2806 372.116 42.4754 371.58 42.8163C371.093 43.1572 370.655 43.693 370.314 44.4235C369.973 45.1541 369.778 46.1768 369.681 47.4918H374.113C374.892 47.4918 375.379 47.3457 375.672 47.0048C375.915 46.6639 376.061 46.2255 376.061 45.6411C376.061 44.667 375.769 43.8391 375.233 43.2059C374.6 42.5728 373.918 42.2806 373.139 42.2806ZM373.139 57.0376C371.629 57.0376 370.314 56.6967 369.194 56.0636C368.074 55.4304 367.148 54.5051 366.515 53.2875C365.882 52.0699 365.541 50.6088 365.541 48.9529C365.541 47.2483 365.882 45.7872 366.613 44.5209C367.343 43.2546 368.317 42.3293 369.486 41.6961C370.704 41.0143 371.97 40.7221 373.334 40.7221C374.6 40.7221 375.72 40.9656 376.646 41.55C377.571 42.0858 378.302 42.8163 378.837 43.7904C379.373 44.7644 379.665 45.8846 379.665 47.1996C379.665 47.8814 379.617 48.4659 379.47 48.9529H369.632C369.73 50.8036 370.217 52.1673 371.093 53.0927C372.019 54.018 373.139 54.4564 374.454 54.4564C375.379 54.4564 376.207 54.2616 376.84 53.9206C377.522 53.531 378.107 53.044 378.642 52.4595L379.568 53.2875C378.935 54.4564 378.107 55.3817 376.987 56.0636C375.915 56.7454 374.649 57.0376 373.139 57.0376Z" fill="white"/>
<path d="M356.531 57.0337C355.557 57.0337 354.632 56.9363 353.804 56.6927C352.976 56.4979 352.197 56.157 351.369 55.7187L351.32 51.9685H353.463L354.047 54.9394C354.826 55.2803 355.654 55.4265 356.58 55.4265C357.651 55.4265 358.479 55.2316 359.015 54.842C359.551 54.4524 359.843 53.9167 359.843 53.2348C359.843 52.6504 359.648 52.1633 359.21 51.7737C358.771 51.3841 358.041 51.0432 357.018 50.7022L355.411 50.1665C354.193 49.7769 353.268 49.1924 352.537 48.4619C351.856 47.7313 351.515 46.7573 351.515 45.6371C351.515 44.7117 351.758 43.9325 352.245 43.2019C352.732 42.4714 353.414 41.8383 354.291 41.4486C355.216 41.0103 356.336 40.7668 357.651 40.7668C358.577 40.7668 359.405 40.8642 360.184 41.1077C360.963 41.3025 361.694 41.6434 362.473 42.0818L362.327 45.4423H360.135L359.551 42.7636C358.966 42.5201 358.284 42.374 357.554 42.374C356.677 42.374 356.044 42.5688 355.557 42.9097C355.07 43.2506 354.826 43.7864 354.826 44.3708C354.826 44.9553 355.021 45.4423 355.411 45.7832C355.801 46.1241 356.58 46.4651 357.651 46.8547L358.918 47.2443C360.476 47.7801 361.596 48.4619 362.278 49.2411C362.96 50.0204 363.252 50.9945 363.252 52.1146C363.252 53.5757 362.668 54.7446 361.499 55.67C360.379 56.5953 358.723 57.0337 356.531 57.0337Z" fill="white"/>
<path d="M346.693 56.9475C345.816 56.9475 345.135 56.7527 344.599 56.3144C344.063 55.8761 343.722 55.2916 343.527 54.5611C342.748 55.389 342.018 56.0222 341.384 56.4118C340.751 56.8014 339.923 57.0449 338.852 57.0449C337.634 57.0449 336.612 56.704 335.784 56.0222C334.956 55.2916 334.566 54.3175 334.566 53.0026C334.566 52.3207 334.712 51.6876 335.053 51.1031C335.394 50.5187 335.93 49.9343 336.758 49.4472C337.586 48.9115 338.803 48.4245 340.313 47.9374C340.751 47.7913 341.238 47.6452 341.774 47.4991C342.31 47.353 342.846 47.2069 343.43 47.0608V46.1841C343.43 44.6743 343.235 43.6515 342.797 43.1645C342.407 42.6288 341.677 42.3366 340.605 42.3366C340.41 42.3366 340.216 42.3366 339.972 42.3853C339.777 42.3853 339.534 42.434 339.29 42.4827L338.901 44.236C338.803 45.0152 338.608 45.5997 338.219 45.9406C337.878 46.2815 337.391 46.4763 336.855 46.4763C335.832 46.4763 335.248 45.9893 335.053 45.0152C335.248 43.7489 335.93 42.6775 337.099 41.9469C338.316 41.1677 339.875 40.7781 341.823 40.7781C343.673 40.7781 345.037 41.2164 345.914 42.1417C346.79 43.0184 347.18 44.5282 347.18 46.6224V53.6357C347.18 54.6098 347.472 55.0968 348.105 55.0968C348.495 55.0968 348.885 54.8533 349.226 54.3662L349.956 55.0369C349.567 55.7674 349.128 56.2657 348.593 56.5579C348.105 56.8014 347.472 56.9475 346.693 56.9475ZM338.316 52.272C338.316 53.1 338.511 53.7331 338.949 54.1227C339.388 54.4637 339.923 54.6585 340.605 54.6585C340.946 54.6585 341.336 54.5611 341.677 54.415C342.018 54.2201 342.602 53.8792 343.381 53.3435V48.2783C342.943 48.4245 342.505 48.5706 342.115 48.7167C341.725 48.8628 341.384 48.9602 341.141 49.0576C340.069 49.4959 339.339 49.983 338.901 50.5187C338.511 51.0544 338.316 51.6389 338.316 52.272Z" fill="white"/>
<path d="M324.496 57.0355V55.7206L326.639 55.2822C326.639 54.503 326.688 53.6263 326.688 52.701C326.688 51.7756 326.688 50.9476 326.688 50.2658V48.756C326.688 47.8793 326.688 47.1488 326.639 46.5643C326.639 45.9799 326.639 45.3468 326.59 44.7136L324.301 44.4214V43.2038L330.097 41.1583L330.633 41.4992L330.535 46.0286V50.2658C330.535 50.9476 330.535 51.7756 330.535 52.701C330.535 53.6263 330.535 54.503 330.584 55.3309L332.532 55.7206V57.0355H324.496ZM328.538 38.1874C327.856 38.1874 327.272 37.9926 326.785 37.5542C326.298 37.1159 326.054 36.5802 326.054 35.8983C326.054 35.2165 326.298 34.6321 326.785 34.2424C327.272 33.8041 327.856 33.6093 328.538 33.6093C329.22 33.6093 329.805 33.8041 330.243 34.2424C330.73 34.6808 330.973 35.2165 330.973 35.8983C330.973 36.5802 330.73 37.1159 330.243 37.5542C329.805 37.9439 329.22 38.1874 328.538 38.1874Z" fill="white"/>
<path d="M312.455 46.8065H310.994C310.994 48.4137 310.994 49.8748 310.994 51.2872C310.994 52.6996 311.042 54.0633 311.042 55.427H312.552C316.156 55.427 318.007 54.0146 318.007 51.1898C318.007 49.7287 317.569 48.6085 316.643 47.9267C315.767 47.1474 314.354 46.8065 312.455 46.8065ZM312.796 37.4068H311.091C311.091 38.7705 311.042 40.1341 311.042 41.4978C311.042 42.8615 311.042 44.0791 311.042 45.248H312.357C314.013 45.248 315.231 44.9071 316.01 44.2739C316.789 43.5921 317.179 42.5693 317.179 41.2056C317.179 39.8906 316.838 38.9166 316.107 38.3321C315.328 37.699 314.257 37.4068 312.796 37.4068ZM304.126 37.2607V35.7509H313.965C316.448 35.7509 318.25 36.2379 319.419 37.212C320.588 38.186 321.173 39.4036 321.173 40.8647C321.173 41.9849 320.783 43.0076 320.004 43.933C319.224 44.8096 317.861 45.4428 315.961 45.8324C318.25 46.1246 319.858 46.7578 320.832 47.6831C321.806 48.6085 322.293 49.6136 322.293 50.9286C322.293 51.6592 322.147 52.5535 321.806 53.284C321.514 53.9659 320.978 54.599 320.296 55.1834C319.614 55.7679 318.689 56.2062 317.471 56.5471C316.302 56.8881 314.792 57.0828 313.039 57.0828H304.126V55.5731L306.805 55.2808C306.854 53.9172 306.854 52.5535 306.854 51.1898C306.854 49.8261 306.854 48.4137 306.854 47.05V45.7837C306.854 44.42 306.854 43.0563 306.854 41.6439C306.854 40.2803 306.854 38.9166 306.805 37.5042L304.126 37.2607Z" fill="white"/>
<path d="M283.817 42.0931C284.012 42.2879 284.158 42.5314 284.304 42.7262C284.45 42.921 284.596 43.0672 284.791 43.3107C285.668 42.5801 286.35 41.8009 286.837 41.0216C287.324 40.2424 287.567 39.4631 287.567 38.6839C287.567 37.8559 287.324 37.1741 286.837 36.7357C286.399 36.2487 285.814 36.0052 285.084 36.0052C284.353 36.0052 283.72 36.2487 283.233 36.7844C282.746 37.3202 282.502 37.9533 282.502 38.7326C282.502 39.2683 282.6 39.7553 282.746 40.2911C282.989 40.8268 283.33 41.4113 283.817 42.0931ZM297.844 56.6067C297.259 56.7528 296.724 56.8502 296.334 56.8989C295.944 56.9476 295.506 56.9963 295.068 56.9963C294.191 56.9963 293.412 56.8989 292.73 56.6553C292.097 56.4605 291.464 56.0222 290.83 55.4378C290.684 55.243 290.538 55.0968 290.343 54.9507C290.197 54.7559 290.051 54.6098 289.905 54.4637C289.223 55.1943 288.395 55.7787 287.373 56.2657C286.35 56.7528 285.084 56.9963 283.525 56.9963C282.161 56.9963 280.944 56.7528 279.97 56.217C278.947 55.6813 278.168 54.9994 277.632 54.1228C277.145 53.2461 276.853 52.2721 276.853 51.2006C276.853 49.8369 277.242 48.668 278.022 47.6453C278.801 46.5738 280.067 45.6484 281.723 44.8692C281.723 44.8205 281.674 44.7718 281.674 44.7718C281.674 44.7231 281.626 44.6744 281.577 44.6744C280.798 43.749 280.262 42.8723 279.97 42.0444C279.677 41.2164 279.531 40.3885 279.531 39.5605C279.531 38.0507 280.067 36.8819 281.09 36.0052C282.161 35.1285 283.476 34.7389 285.132 34.7389C286.837 34.7389 288.103 35.1285 289.028 35.9078C289.905 36.6383 290.392 37.6611 290.392 38.8787C290.392 39.9989 290.003 40.9729 289.223 41.8009C288.444 42.6288 287.226 43.4081 285.571 44.236C285.863 44.577 286.204 44.9666 286.642 45.4049C287.08 45.8432 287.567 46.3303 288.103 46.9634C288.736 47.6453 289.321 48.2784 289.856 48.8628C290.392 49.4473 290.928 50.0317 291.464 50.5675C291.999 49.6421 292.486 48.668 292.827 47.7427C293.217 46.7686 293.509 45.6971 293.753 44.577L291.22 44.1386V42.7749H298.039V44.1386L295.701 44.5283C295.311 45.9407 294.824 47.1582 294.288 48.2784C293.753 49.3986 293.12 50.5187 292.389 51.5902C292.779 51.9798 293.168 52.4182 293.558 52.8565C293.948 53.2948 294.386 53.7332 294.873 54.2202L297.99 54.7559L297.844 56.6067ZM285.863 49.8369C285.132 48.9602 284.45 48.181 283.915 47.5479C283.379 46.9147 282.941 46.3303 282.502 45.7945C281.723 46.379 281.139 47.0608 280.846 47.8401C280.554 48.5706 280.408 49.3499 280.408 50.0804C280.408 50.9084 280.603 51.6389 280.992 52.3208C281.382 53.0026 281.918 53.5384 282.6 53.9767C283.33 54.3663 284.109 54.6098 285.035 54.6098C286.496 54.6098 287.811 54.2202 288.882 53.3922C288.347 52.7591 287.811 52.1747 287.275 51.5902C286.837 50.9571 286.35 50.3726 285.863 49.8369Z" fill="white"/>
<path d="M281.367 84.154C280.666 84.154 280.024 83.9975 279.441 83.6847C278.87 83.372 278.428 82.9296 278.115 82.3579L278.325 82.099V83.9598H276.852V71.7107H278.357V77.1152L278.131 76.743C278.454 76.2252 278.897 75.8154 279.458 75.5133C280.019 75.2005 280.661 75.044 281.383 75.044C282.203 75.044 282.937 75.2435 283.584 75.6427C284.242 76.0419 284.76 76.5865 285.137 77.277C285.515 77.9566 285.704 78.7333 285.704 79.6071C285.704 80.4594 285.515 81.2305 285.137 81.921C284.76 82.6115 284.242 83.1561 283.584 83.5553C282.937 83.9545 282.198 84.154 281.367 84.154ZM281.254 82.6977C281.804 82.6977 282.295 82.5629 282.726 82.2932C283.158 82.0234 283.492 81.6568 283.729 81.1928C283.978 80.7183 284.102 80.1896 284.102 79.6071C284.102 79.0031 283.978 78.4744 283.729 78.0213C283.492 77.5574 283.158 77.1908 282.726 76.921C282.295 76.6406 281.804 76.5003 281.254 76.5003C280.704 76.5003 280.208 76.6351 279.765 76.9048C279.334 77.1746 278.988 77.5468 278.729 78.0213C278.481 78.4853 278.357 79.0137 278.357 79.6071C278.357 80.1896 278.481 80.7183 278.729 81.1928C278.988 81.6568 279.334 82.0234 279.765 82.2932C280.208 82.5629 280.704 82.6977 281.254 82.6977ZM288.474 87.5197C288.279 87.5197 288.085 87.5035 287.891 87.4711C287.697 87.4388 287.514 87.3849 287.341 87.3093V85.9663C287.459 85.9878 287.605 86.0095 287.778 86.031C287.961 86.0634 288.139 86.0795 288.312 86.0795C288.819 86.0795 289.202 85.9663 289.461 85.7398C289.73 85.5241 289.984 85.1464 290.221 84.6071L290.771 83.2964L290.739 84.6071L287.017 75.2382H288.652L291.548 82.6815H291.063L293.943 75.2382H295.609L291.677 84.9954C291.494 85.4593 291.257 85.88 290.965 86.2575C290.685 86.6459 290.34 86.9533 289.93 87.1799C289.52 87.4064 289.035 87.5197 288.474 87.5197ZM306.445 84.154C305.591 84.154 304.805 84.003 304.081 83.7009C303.37 83.3882 302.744 82.9513 302.206 82.3902C301.675 81.8292 301.267 81.1713 300.975 80.4161C300.683 79.6609 300.539 78.8357 300.539 77.9404C300.539 77.0343 300.683 76.2037 300.975 75.4485C301.267 74.6933 301.675 74.0354 302.206 73.4744C302.734 72.9134 303.36 72.482 304.081 72.1799C304.805 71.8672 305.591 71.7107 306.445 71.7107C307.275 71.7107 308.018 71.8563 308.678 72.1476C309.347 72.4388 309.907 72.8163 310.36 73.2802C310.824 73.7442 311.152 74.2403 311.348 74.7689L309.892 75.4324C309.611 74.7636 309.174 74.2241 308.58 73.8142C307.986 73.3935 307.275 73.1832 306.445 73.1832C305.604 73.1832 304.852 73.3827 304.194 73.7819C303.547 74.1811 303.04 74.7366 302.674 75.4485C302.308 76.1605 302.125 76.9911 302.125 77.9404C302.125 78.8789 302.308 79.7042 302.674 80.4161C303.04 81.1281 303.547 81.6836 304.194 82.0828C304.852 82.482 305.604 82.6815 306.445 82.6815C307.275 82.6815 307.986 82.4765 308.58 82.0666C309.174 81.6459 309.611 81.1011 309.892 80.4323L311.348 81.0957C311.152 81.6244 310.824 82.1205 310.36 82.5844C309.907 83.0483 309.347 83.4258 308.678 83.7171C308.018 84.0084 307.275 84.154 306.445 84.154ZM317.795 84.154C316.954 84.154 316.194 83.9598 315.515 83.5715C314.835 83.1723 314.295 82.6276 313.896 81.9372C313.496 81.2467 313.298 80.4647 313.298 79.5909C313.298 78.7171 313.492 77.9404 313.879 77.2608C314.28 76.5812 314.818 76.0419 315.498 75.6427C316.177 75.2435 316.943 75.044 317.795 75.044C318.638 75.044 319.398 75.2435 320.077 75.6427C320.756 76.031 321.291 76.565 321.678 77.2446C322.079 77.9243 322.279 78.7063 322.279 79.5909C322.279 80.4756 322.072 81.2629 321.663 81.9533C321.253 82.633 320.707 83.1723 320.028 83.5715C319.36 83.9598 318.615 84.154 317.795 84.154ZM317.795 82.6977C318.336 82.6977 318.821 82.5629 319.251 82.2932C319.694 82.0234 320.039 81.6512 320.288 81.1767C320.546 80.7021 320.676 80.1734 320.676 79.5909C320.676 78.9975 320.546 78.4744 320.288 78.0213C320.039 77.5574 319.694 77.1908 319.251 76.921C318.821 76.6406 318.336 76.5003 317.795 76.5003C317.246 76.5003 316.749 76.6406 316.307 76.921C315.877 77.1908 315.53 77.5574 315.272 78.0213C315.012 78.4744 314.882 78.9975 314.882 79.5909C314.882 80.1734 315.012 80.7021 315.272 81.1767C315.53 81.6512 315.877 82.0234 316.307 82.2932C316.749 82.5629 317.246 82.6977 317.795 82.6977ZM324.725 83.9598V75.2382H326.198V76.8401L326.037 76.6136C326.241 76.1173 326.554 75.7506 326.976 75.5133C327.395 75.2652 327.908 75.1411 328.513 75.1411H329.047V76.565H328.285C327.672 76.565 327.176 76.7592 326.797 77.1476C326.42 77.525 326.23 78.0646 326.23 78.7657V83.9598H324.725ZM334.881 84.154C334.04 84.154 333.29 83.9545 332.633 83.5553C331.975 83.1561 331.457 82.6115 331.078 81.921C330.702 81.2199 330.512 80.4377 330.512 79.5747C330.512 78.701 330.695 77.9243 331.063 77.2446C331.44 76.565 331.947 76.031 332.584 75.6427C333.231 75.2435 333.955 75.044 334.751 75.044C335.398 75.044 335.971 75.1626 336.467 75.4C336.974 75.6265 337.4 75.9393 337.745 76.3385C338.102 76.7268 338.371 77.1746 338.554 77.6815C338.75 78.1778 338.845 78.6956 338.845 79.2349C338.845 79.3535 338.835 79.4885 338.813 79.6394C338.803 79.7798 338.786 79.9145 338.764 80.044H331.613V78.7495H337.891L337.178 79.332C337.276 78.771 337.223 78.2694 337.016 77.8272C336.812 77.3849 336.51 77.0343 336.112 76.7754C335.711 76.5165 335.26 76.387 334.751 76.387C334.244 76.387 333.78 76.5165 333.361 76.7754C332.939 77.0343 332.611 77.4065 332.373 77.8919C332.147 78.3665 332.056 78.9328 332.098 79.5909C332.056 80.2273 332.151 80.7883 332.39 81.2737C332.637 81.7483 332.984 82.1205 333.425 82.3902C333.878 82.6491 334.37 82.7786 334.898 82.7786C335.479 82.7786 335.971 82.6438 336.369 82.3741C336.769 82.1043 337.093 81.7592 337.34 81.3385L338.603 81.9857C338.43 82.3849 338.162 82.7516 337.794 83.086C337.438 83.4097 337.012 83.6686 336.516 83.8627C336.031 84.0569 335.486 84.154 334.881 84.154ZM343.689 83.9598L340.306 71.9049H341.973L344.805 82.5197H344.417L347.362 71.9049H349.029L351.956 82.5197H351.552L354.401 71.9049H356.068L352.684 83.9598H350.922L347.977 73.3935H348.396L345.452 83.9598H343.689ZM361.309 84.154C360.468 84.154 359.719 83.9545 359.061 83.5553C358.401 83.1561 357.884 82.6115 357.507 81.921C357.13 81.2199 356.941 80.4377 356.941 79.5747C356.941 78.701 357.124 77.9243 357.49 77.2446C357.869 76.565 358.376 76.031 359.012 75.6427C359.659 75.2435 360.381 75.044 361.18 75.044C361.827 75.044 362.4 75.1626 362.896 75.4C363.402 75.6265 363.828 75.9393 364.173 76.3385C364.529 76.7268 364.799 77.1746 364.982 77.6815C365.176 78.1778 365.274 78.6956 365.274 79.2349C365.274 79.3535 365.263 79.4885 365.242 79.6394C365.231 79.7798 365.214 79.9145 365.193 80.044H358.041V78.7495H364.32L363.607 79.332C363.705 78.771 363.649 78.2694 363.445 77.8272C363.241 77.3849 362.938 77.0343 362.54 76.7754C362.14 76.5165 361.686 76.387 361.18 76.387C360.673 76.387 360.209 76.5165 359.789 76.7754C359.368 77.0343 359.038 77.4065 358.801 77.8919C358.576 78.3665 358.482 78.9328 358.527 79.5909C358.482 80.2273 358.58 80.7883 358.818 81.2737C359.065 81.7483 359.41 82.1205 359.853 82.3902C360.307 82.6491 360.796 82.7786 361.326 82.7786C361.908 82.7786 362.4 82.6438 362.798 82.3741C363.198 82.1043 363.522 81.7592 363.769 81.3385L365.031 81.9857C364.859 82.3849 364.588 82.7516 364.222 83.086C363.866 83.4097 363.441 83.6686 362.945 83.8627C362.459 84.0569 361.914 84.154 361.309 84.154ZM370.167 84.154C369.596 84.154 369.089 84.0516 368.646 83.8466C368.214 83.6309 367.876 83.3396 367.626 82.9728C367.379 82.5953 367.254 82.1637 367.254 81.6783C367.254 81.2143 367.352 80.7992 367.546 80.4323C367.75 80.0548 368.063 79.7365 368.484 79.4776C368.917 79.2187 369.455 79.0354 370.103 78.9275L373.339 78.3935V79.6556L370.443 80.1411C369.881 80.2382 369.472 80.4161 369.213 80.675C368.964 80.9339 368.84 81.2522 368.84 81.6297C368.84 81.9857 368.981 82.2823 369.262 82.5197C369.553 82.7571 369.913 82.8757 370.345 82.8757C370.895 82.8757 371.369 82.7624 371.77 82.5359C372.179 82.2985 372.498 81.9804 372.724 81.5812C372.962 81.182 373.079 80.7398 373.079 80.2543V78.0375C373.079 77.5629 372.902 77.1799 372.547 76.8886C372.2 76.5865 371.742 76.4356 371.171 76.4356C370.673 76.4356 370.233 76.565 369.843 76.8239C369.466 77.072 369.185 77.4064 369.002 77.8272L367.693 77.1476C367.854 76.7483 368.112 76.3924 368.467 76.0796C368.825 75.756 369.24 75.5024 369.715 75.3191C370.188 75.1358 370.686 75.044 371.203 75.044C371.872 75.044 372.46 75.1735 372.966 75.4324C373.473 75.6804 373.867 76.031 374.148 76.4841C374.44 76.9263 374.584 77.4441 374.584 78.0375V83.9598H373.113V82.3093L373.388 82.4064C373.205 82.7516 372.956 83.0537 372.643 83.3126C372.33 83.5715 371.963 83.7765 371.542 83.9275C371.122 84.0784 370.663 84.154 370.167 84.154ZM379.673 83.9598L376.258 75.2382H377.942L380.676 82.6168H380.092L382.843 75.2382H384.527L381.097 83.9598H379.673ZM390.214 84.154C389.373 84.154 388.622 83.9545 387.964 83.5553C387.306 83.1561 386.788 82.6115 386.412 81.921C386.033 81.2199 385.845 80.4377 385.845 79.5747C385.845 78.701 386.028 77.9243 386.395 77.2446C386.771 76.565 387.28 76.031 387.917 75.6427C388.564 75.2435 389.286 75.044 390.084 75.044C390.732 75.044 391.302 75.1626 391.8 75.4C392.307 75.6265 392.733 75.9393 393.078 76.3385C393.433 76.7268 393.704 77.1746 393.887 77.6815C394.081 78.1778 394.179 78.6956 394.179 79.2349C394.179 79.3535 394.168 79.4885 394.147 79.6394C394.134 79.7798 394.119 79.9145 394.098 80.044H386.946V78.7495H393.223L392.511 79.332C392.609 78.771 392.554 78.2694 392.35 77.8272C392.145 77.3849 391.843 77.0343 391.443 76.7754C391.045 76.5165 390.591 76.387 390.084 76.387C389.578 76.387 389.113 76.5165 388.692 76.7754C388.272 77.0343 387.942 77.4065 387.706 77.8919C387.478 78.3665 387.387 78.9328 387.431 79.5909C387.387 80.2273 387.485 80.7883 387.721 81.2737C387.97 81.7483 388.315 82.1205 388.758 82.3902C389.211 82.6491 389.701 82.7786 390.229 82.7786C390.812 82.7786 391.302 82.6438 391.702 82.3741C392.101 82.1043 392.424 81.7592 392.673 81.3385L393.936 81.9857C393.763 82.3849 393.493 82.7516 393.127 83.086C392.771 83.4097 392.343 83.6686 391.847 83.8627C391.362 84.0569 390.817 84.154 390.214 84.154Z" fill="white"/>
<path d="M198.44 47.4009C198.44 46.0879 198.185 44.9443 197.635 44.0125C197.127 43.0383 196.407 42.3182 195.475 41.7676C194.543 41.217 193.442 40.9628 192.171 40.9628C190.816 40.9628 189.545 41.3017 188.359 41.937C187.173 42.5724 186.199 43.5042 185.479 44.7749C184.759 46.0032 184.377 47.4433 184.377 49.1799C184.377 50.9165 184.716 52.2718 185.352 53.5002C185.987 54.6861 186.876 55.618 188.02 56.2533C189.164 56.8886 190.477 57.2275 191.959 57.2275C193.442 57.2275 194.755 56.8886 195.814 56.2533C196.915 55.5756 197.762 54.6861 198.397 53.5002L197.465 52.653C196.915 53.246 196.322 53.7543 195.686 54.1355C195.051 54.5167 194.246 54.6861 193.315 54.6861C191.959 54.6861 190.858 54.2202 189.926 53.2884C189.037 52.3566 188.571 51.0012 188.486 49.1375H198.313C198.355 48.6716 198.44 48.0786 198.44 47.4009ZM194.416 47.1891C194.162 47.528 193.653 47.6551 192.891 47.6551H188.486C188.571 46.3844 188.782 45.3678 189.121 44.6054C189.503 43.843 189.926 43.3348 190.392 42.9959C190.9 42.6571 191.409 42.4876 191.917 42.4876C192.722 42.4876 193.399 42.7841 193.95 43.4195C194.501 44.0548 194.797 44.8596 194.797 45.8338C194.755 46.3844 194.628 46.8503 194.416 47.1891Z" fill="white"/>
<path d="M221.862 42.2759C220.761 41.3864 219.236 40.9205 217.288 40.9205C215.34 40.9205 213.815 41.3864 212.714 42.3606C211.612 43.2925 211.062 44.5631 211.062 46.1303C211.062 48.2057 211.909 49.6882 213.603 50.5353C212.798 51.2553 212.205 51.933 211.824 52.5684C211.443 53.1614 211.273 53.7967 211.273 54.3897C211.273 54.9827 211.443 55.4909 211.739 55.9145C212.078 56.338 212.544 56.6769 213.222 56.8887C212.205 57.3969 211.443 57.9052 211.019 58.4558C210.553 59.0488 210.342 59.6842 210.342 60.3619C210.342 61.0395 210.553 61.7172 210.977 62.2679C211.443 62.8608 212.163 63.2844 213.137 63.6656C214.154 64.0045 215.467 64.1739 217.119 64.1739C219.025 64.1739 220.592 63.9197 221.862 63.3691C223.133 62.8185 224.107 62.1408 224.743 61.2513C225.42 60.3618 225.717 59.43 225.717 58.4135C225.717 57.0581 225.251 55.9992 224.361 55.1944C223.472 54.3897 221.989 54.0085 219.872 54.0085H215.848C215.128 54.0085 214.662 53.8814 214.365 53.6696C214.111 53.4155 213.984 53.119 213.984 52.6954C213.984 52.0601 214.196 51.4671 214.577 50.9165C215.382 51.1706 216.271 51.2553 217.246 51.2553C219.194 51.2553 220.761 50.7894 221.82 49.8576C222.921 48.8834 223.472 47.6127 223.472 46.0879C223.472 45.029 223.26 44.1396 222.794 43.3772H225.886V41.1323L225.42 40.7935L221.862 42.2759ZM214.069 57.3122C214.704 57.4393 215.382 57.524 216.187 57.524H219.745C220.761 57.524 221.481 57.7358 221.905 58.1593C222.328 58.5829 222.54 59.0912 222.54 59.6842C222.54 60.4889 222.117 61.1666 221.227 61.7172C220.38 62.2679 219.109 62.5643 217.415 62.5643C216.06 62.5643 215.043 62.3526 214.323 61.8867C213.603 61.4207 213.222 60.7007 213.222 59.7265C213.179 58.9218 213.476 58.117 214.069 57.3122ZM219.279 48.8834C218.813 49.6035 218.135 49.9423 217.246 49.9423C216.356 49.9423 215.721 49.6035 215.297 48.9258C214.831 48.2481 214.62 47.3163 214.62 46.1726C214.62 45.029 214.874 44.0972 215.34 43.4195C215.848 42.6995 216.526 42.3606 217.373 42.3606C218.22 42.3606 218.897 42.6995 219.321 43.3772C219.787 44.0549 220.041 44.9443 220.041 46.0879C219.999 47.2315 219.787 48.2057 219.279 48.8834Z" fill="white"/>
<path d="M242.975 52.7261V46.9233C242.975 44.9326 242.594 43.4925 241.832 42.5607C241.069 41.6288 239.968 41.1629 238.613 41.1629C236.622 41.1629 234.758 42.0947 233.149 44.0008V38.2827L233.276 33.7506L232.81 33.4542L227.092 34.8943V36.1649L229.421 36.5038V52.6837C229.421 53.6155 229.422 54.4626 229.379 55.2674L227.261 55.691V57.004H235.182V55.691L233.276 55.3098C233.234 54.505 233.234 53.6155 233.234 52.7261V45.7373C234.504 44.509 235.775 43.916 236.961 43.916C237.766 43.916 238.359 44.1702 238.655 44.6361C238.994 45.102 239.163 45.9915 239.163 47.2198V52.7261C239.163 53.6155 239.163 54.4626 239.121 55.2674L237.088 55.691V57.004H244.966V55.691L243.018 55.3098C242.975 54.505 242.975 53.6579 242.975 52.7261Z" fill="white"/>
<path d="M185.479 35.7221H178.405V37.2045L181.031 37.5857L177.135 51.6055L172.857 37.5434L175.864 37.2045V35.7221H166.715V37.2045L169.511 37.5434L165.106 51.4361L161.463 37.5434L164.131 37.2045V35.7221H154.813V37.2045L157.143 37.4587L162.903 57.0694H165.106L169.934 41.4401L175.017 57.0694H177.219L182.768 37.5857L185.352 37.1622V35.7221H185.479Z" fill="white"/>
<path d="M204.751 38.2858C205.428 38.2858 206.021 38.074 206.445 37.6504C206.911 37.2269 207.165 36.6763 207.165 35.9986C207.165 35.3209 206.911 34.7702 206.445 34.3467C205.979 33.9231 205.428 33.7114 204.751 33.7114C204.073 33.7114 203.48 33.9231 203.014 34.3467C202.548 34.7702 202.294 35.3209 202.294 35.9986C202.294 36.6763 202.548 37.2269 203.014 37.6504C203.48 38.074 204.073 38.2858 204.751 38.2858Z" fill="white"/>
<path d="M206.657 52.7714V46.0791L206.741 41.5471L206.233 41.2082L200.473 43.2413V44.4696L202.76 44.7661C202.802 45.4014 202.845 46.0368 202.845 46.6298C202.887 47.2227 202.887 47.9428 202.887 48.7899V52.729C202.887 53.6608 202.887 54.5079 202.845 55.3127L200.727 55.7363V57.0493H208.69V55.7363L206.741 55.3551C206.699 54.5503 206.657 53.7032 206.657 52.7714Z" fill="white"/>
<path d="M253.968 55.1097C253.46 55.1097 253.036 54.9403 252.697 54.5591C252.401 54.1779 252.232 53.6273 252.232 52.8225V43.3772H256.128V41.3864H252.274L252.401 36.9814H249.817L248.589 41.3864L246.005 41.7253V43.3772H248.377V50.1965C248.377 50.8318 248.377 51.3401 248.335 51.806V53.2037C248.335 54.6015 248.716 55.6603 249.436 56.2957C250.156 56.931 251.173 57.2699 252.443 57.2699C253.46 57.2699 254.307 57.1004 255.027 56.7192C255.747 56.338 256.298 55.8298 256.679 55.1521L255.916 54.3473C255.239 54.8132 254.561 55.0674 253.968 55.1097Z" fill="white"/>
<path d="M265.658 47.4433L264.388 47.0621C263.286 46.6809 262.566 46.3421 262.143 46.0032C261.762 45.622 261.55 45.1561 261.55 44.6055C261.55 43.9701 261.804 43.5042 262.27 43.123C262.736 42.7418 263.413 42.5724 264.261 42.5724C264.981 42.5724 265.658 42.6995 266.251 42.9536L266.844 45.6644H268.962L269.132 42.3183C268.369 41.8947 267.607 41.5559 266.844 41.3441C266.082 41.0899 265.277 41.0052 264.345 41.0052C263.032 41.0052 261.931 41.217 260.999 41.6829C260.11 42.1065 259.432 42.6995 258.966 43.4619C258.5 44.1819 258.246 44.9867 258.246 45.9185C258.246 47.0621 258.585 47.9939 259.263 48.7564C259.983 49.5188 260.914 50.0694 262.1 50.4506L263.71 51.0012C264.727 51.3401 265.447 51.7213 265.87 52.1025C266.294 52.4837 266.505 52.9496 266.505 53.5426C266.505 54.2203 266.251 54.7709 265.701 55.1521C265.15 55.5333 264.345 55.7451 263.244 55.7451C262.355 55.7451 261.507 55.5756 260.745 55.2792L260.152 52.3142H257.992L258.034 56.0416C258.839 56.5075 259.644 56.804 260.491 57.0157C261.338 57.2699 262.228 57.3546 263.202 57.3546C265.362 57.3546 267.014 56.8887 268.157 55.9568C269.343 55.025 269.936 53.8391 269.936 52.399C269.936 51.2977 269.597 50.3235 268.962 49.5611C268.327 48.6293 267.226 47.9516 265.658 47.4433Z" fill="white"/>
<path d="M109.323 33.6352C110.594 33.6352 111.61 32.6187 111.61 31.348C111.61 30.0773 110.594 29.0608 109.323 29.0608C108.052 29.0608 107.036 30.0773 107.036 31.348C107.036 32.6187 108.052 33.6352 109.323 33.6352Z" fill="#FFCF4D"/>
<path d="M110.128 43.9702C112.076 43.5043 113.304 41.5559 112.838 39.6075C112.373 37.6592 110.424 36.4308 108.476 36.8968C106.527 37.3627 105.299 39.311 105.765 41.2594C106.231 43.2501 108.179 44.4361 110.128 43.9702Z" fill="#FFCF4D"/>
<path d="M110.128 62.1408C112.076 61.6749 113.304 59.7265 112.838 57.7781C112.373 55.8298 110.424 54.6015 108.476 55.0674C106.527 55.5333 105.299 57.4817 105.765 59.43C106.231 61.3784 108.179 62.6067 110.128 62.1408Z" fill="#FFCF4D"/>
<path d="M111.568 49.5186C111.568 48.2479 110.551 47.2314 109.281 47.2314C108.01 47.2314 106.993 48.2479 106.993 49.5186C106.993 50.7893 108.01 51.8058 109.281 51.8058C110.551 51.8058 111.568 50.7893 111.568 49.5186Z" fill="#FFCF4D"/>
<path d="M123.258 49.2646C121.267 49.2646 119.615 50.8741 119.615 52.9072C119.615 54.8979 121.225 56.5498 123.258 56.5498C125.249 56.5498 126.901 54.9403 126.901 52.9072C126.858 50.8741 125.249 49.2646 123.258 49.2646Z" fill="#FFCF4D"/>
<path d="M123.258 59.6842C121.987 59.6842 120.971 60.7007 120.971 61.9714C120.971 63.2421 121.987 64.2586 123.258 64.2586C124.529 64.2586 125.545 63.2421 125.545 61.9714C125.503 60.7007 124.486 59.6842 123.258 59.6842Z" fill="#FFCF4D"/>
<path d="M123.258 46.0878C124.529 46.0878 125.545 45.0713 125.545 43.8006C125.545 42.5299 124.529 41.5134 123.258 41.5134C121.987 41.5134 120.971 42.5299 120.971 43.8006C120.971 45.0713 121.987 46.0878 123.258 46.0878Z" fill="#FFCF4D"/>
<path d="M123.597 36.9814C124.825 36.7696 125.672 35.626 125.46 34.3977C125.249 33.1694 124.105 32.3223 122.877 32.5341C121.648 32.7458 120.801 33.8894 121.013 35.1178C121.225 36.3461 122.369 37.1508 123.597 36.9814Z" fill="#FFCF4D"/>
<path d="M139.734 42.9959C141.132 41.5982 141.132 39.2686 139.734 37.8709C138.337 36.4731 136.007 36.4731 134.609 37.8709C133.212 39.2686 133.212 41.5982 134.609 42.9959C136.007 44.436 138.337 44.436 139.734 42.9959Z" fill="#FFCF4D"/>
<path d="M137.193 33.6352C138.464 33.6352 139.48 32.6187 139.48 31.348C139.48 30.0773 138.464 29.0608 137.193 29.0608C135.922 29.0608 134.906 30.0773 134.906 31.348C134.906 32.6187 135.922 33.6352 137.193 33.6352Z" fill="#FFCF4D"/>
<path d="M137.193 47.2738C135.922 47.2738 134.906 48.2903 134.906 49.561C134.906 50.8317 135.922 51.8482 137.193 51.8482C138.464 51.8482 139.48 50.8317 139.48 49.561C139.438 48.2903 138.421 47.2738 137.193 47.2738Z" fill="#FFCF4D"/>
<path d="M137.193 56.3379C135.922 56.3379 134.906 57.3544 134.906 58.6251C134.906 59.8958 135.922 60.9123 137.193 60.9123C138.464 60.9123 139.48 59.8958 139.48 58.6251C139.438 57.3544 138.421 56.3379 137.193 56.3379Z" fill="#FFCF4D"/>
</svg>
