<svg width="160" height="228" viewBox="0 0 160 228" fill="none" xmlns="http://www.w3.org/2000/svg">
<path d="M39.1797 135.057V137H31.6309V135.057H39.1797ZM32.3242 122.781V137H29.873V122.781H32.3242ZM38.1934 128.719V130.633H31.6309V128.719H38.1934ZM39.1309 122.781V124.734H31.6309V122.781H39.1309ZM44.1309 135.135L46.7188 126.434H49.1602L45.4883 137H43.9648L44.1309 135.135ZM42.1484 126.434L44.7852 135.174L44.9121 137H43.3887L39.6973 126.434H42.1484ZM56.416 134.881V129.842C56.416 129.464 56.3477 129.139 56.2109 128.865C56.0742 128.592 55.8659 128.38 55.5859 128.23C55.3125 128.081 54.9674 128.006 54.5508 128.006C54.1667 128.006 53.8346 128.071 53.5547 128.201C53.2747 128.331 53.0566 128.507 52.9004 128.729C52.7441 128.95 52.666 129.201 52.666 129.48H50.3223C50.3223 129.064 50.4232 128.66 50.625 128.27C50.8268 127.879 51.1198 127.531 51.5039 127.225C51.888 126.919 52.347 126.678 52.8809 126.502C53.4147 126.326 54.0137 126.238 54.6777 126.238C55.472 126.238 56.1751 126.372 56.7871 126.639C57.4056 126.906 57.8906 127.309 58.2422 127.85C58.6003 128.383 58.7793 129.054 58.7793 129.861V134.559C58.7793 135.04 58.8118 135.473 58.877 135.857C58.9486 136.235 59.0495 136.564 59.1797 136.844V137H56.7676C56.6569 136.746 56.569 136.424 56.5039 136.033C56.4453 135.636 56.416 135.252 56.416 134.881ZM56.7578 130.574L56.7773 132.029H55.0879C54.6517 132.029 54.2676 132.072 53.9355 132.156C53.6035 132.234 53.3268 132.352 53.1055 132.508C52.8841 132.664 52.7181 132.853 52.6074 133.074C52.4967 133.296 52.4414 133.546 52.4414 133.826C52.4414 134.106 52.5065 134.363 52.6367 134.598C52.7669 134.826 52.9557 135.005 53.2031 135.135C53.457 135.265 53.763 135.33 54.1211 135.33C54.6029 135.33 55.0228 135.232 55.3809 135.037C55.7454 134.835 56.0319 134.591 56.2402 134.305C56.4486 134.012 56.5592 133.735 56.5723 133.475L57.334 134.52C57.2559 134.786 57.1224 135.073 56.9336 135.379C56.7448 135.685 56.4974 135.978 56.1914 136.258C55.8919 136.531 55.5306 136.756 55.1074 136.932C54.6908 137.107 54.209 137.195 53.6621 137.195C52.972 137.195 52.3568 137.059 51.8164 136.785C51.276 136.505 50.8529 136.131 50.5469 135.662C50.2409 135.187 50.0879 134.65 50.0879 134.051C50.0879 133.491 50.1921 132.996 50.4004 132.566C50.6152 132.13 50.9277 131.766 51.3379 131.473C51.7546 131.18 52.2624 130.958 52.8613 130.809C53.4603 130.652 54.1439 130.574 54.9121 130.574H56.7578ZM63.7598 122V137H61.3965V122H63.7598ZM72.6953 134.51V126.434H75.0586V137H72.832L72.6953 134.51ZM73.0273 132.312L73.8184 132.293C73.8184 133.003 73.7402 133.657 73.584 134.256C73.4277 134.848 73.1868 135.366 72.8613 135.809C72.5358 136.245 72.1191 136.587 71.6113 136.834C71.1035 137.075 70.4948 137.195 69.7852 137.195C69.2708 137.195 68.7988 137.12 68.3691 136.971C67.9395 136.821 67.5684 136.59 67.2559 136.277C66.9499 135.965 66.7122 135.558 66.543 135.057C66.3737 134.555 66.2891 133.956 66.2891 133.26V126.434H68.6426V133.279C68.6426 133.663 68.6882 133.986 68.7793 134.246C68.8704 134.5 68.9941 134.705 69.1504 134.861C69.3066 135.018 69.4889 135.128 69.6973 135.193C69.9056 135.258 70.127 135.291 70.3613 135.291C71.0319 135.291 71.5592 135.161 71.9434 134.9C72.334 134.633 72.6107 134.275 72.7734 133.826C72.9427 133.377 73.0273 132.872 73.0273 132.312ZM83.4277 134.881V129.842C83.4277 129.464 83.3594 129.139 83.2227 128.865C83.0859 128.592 82.8776 128.38 82.5977 128.23C82.3242 128.081 81.9792 128.006 81.5625 128.006C81.1784 128.006 80.8464 128.071 80.5664 128.201C80.2865 128.331 80.0684 128.507 79.9121 128.729C79.7559 128.95 79.6777 129.201 79.6777 129.48H77.334C77.334 129.064 77.4349 128.66 77.6367 128.27C77.8385 127.879 78.1315 127.531 78.5156 127.225C78.8997 126.919 79.3587 126.678 79.8926 126.502C80.4264 126.326 81.0254 126.238 81.6895 126.238C82.4837 126.238 83.1868 126.372 83.7988 126.639C84.4173 126.906 84.9023 127.309 85.2539 127.85C85.612 128.383 85.791 129.054 85.791 129.861V134.559C85.791 135.04 85.8236 135.473 85.8887 135.857C85.9603 136.235 86.0612 136.564 86.1914 136.844V137H83.7793C83.6686 136.746 83.5807 136.424 83.5156 136.033C83.457 135.636 83.4277 135.252 83.4277 134.881ZM83.7695 130.574L83.7891 132.029H82.0996C81.6634 132.029 81.2793 132.072 80.9473 132.156C80.6152 132.234 80.3385 132.352 80.1172 132.508C79.8958 132.664 79.7298 132.853 79.6191 133.074C79.5085 133.296 79.4531 133.546 79.4531 133.826C79.4531 134.106 79.5182 134.363 79.6484 134.598C79.7786 134.826 79.9674 135.005 80.2148 135.135C80.4688 135.265 80.7747 135.33 81.1328 135.33C81.6146 135.33 82.0345 135.232 82.3926 135.037C82.7572 134.835 83.0436 134.591 83.252 134.305C83.4603 134.012 83.571 133.735 83.584 133.475L84.3457 134.52C84.2676 134.786 84.1341 135.073 83.9453 135.379C83.7565 135.685 83.5091 135.978 83.2031 136.258C82.9036 136.531 82.5423 136.756 82.1191 136.932C81.7025 137.107 81.2207 137.195 80.6738 137.195C79.9837 137.195 79.3685 137.059 78.8281 136.785C78.2878 136.505 77.8646 136.131 77.5586 135.662C77.2526 135.187 77.0996 134.65 77.0996 134.051C77.0996 133.491 77.2038 132.996 77.4121 132.566C77.627 132.13 77.9395 131.766 78.3496 131.473C78.7663 131.18 79.2741 130.958 79.873 130.809C80.472 130.652 81.1556 130.574 81.9238 130.574H83.7695ZM93.0957 126.434V128.152H87.1387V126.434H93.0957ZM88.8574 123.846H91.2109V134.08C91.2109 134.406 91.2565 134.656 91.3477 134.832C91.4453 135.001 91.5788 135.115 91.748 135.174C91.9173 135.232 92.1159 135.262 92.3438 135.262C92.5065 135.262 92.6628 135.252 92.8125 135.232C92.9622 135.213 93.0827 135.193 93.1738 135.174L93.1836 136.971C92.9883 137.029 92.7604 137.081 92.5 137.127C92.2461 137.173 91.9531 137.195 91.6211 137.195C91.0807 137.195 90.6022 137.101 90.1855 136.912C89.7689 136.717 89.4434 136.401 89.209 135.965C88.9746 135.529 88.8574 134.949 88.8574 134.227V123.846ZM97.4316 126.434V137H95.0684V126.434H97.4316ZM94.9121 123.66C94.9121 123.302 95.0293 123.006 95.2637 122.771C95.5046 122.531 95.8366 122.41 96.2598 122.41C96.6764 122.41 97.0052 122.531 97.2461 122.771C97.487 123.006 97.6074 123.302 97.6074 123.66C97.6074 124.012 97.487 124.305 97.2461 124.539C97.0052 124.773 96.6764 124.891 96.2598 124.891C95.8366 124.891 95.5046 124.773 95.2637 124.539C95.0293 124.305 94.9121 124.012 94.9121 123.66ZM99.5605 131.834V131.609C99.5605 130.848 99.6712 130.141 99.8926 129.49C100.114 128.833 100.433 128.263 100.85 127.781C101.273 127.293 101.787 126.915 102.393 126.648C103.005 126.375 103.695 126.238 104.463 126.238C105.238 126.238 105.928 126.375 106.533 126.648C107.145 126.915 107.663 127.293 108.086 127.781C108.509 128.263 108.831 128.833 109.053 129.49C109.274 130.141 109.385 130.848 109.385 131.609V131.834C109.385 132.596 109.274 133.302 109.053 133.953C108.831 134.604 108.509 135.174 108.086 135.662C107.663 136.144 107.148 136.521 106.543 136.795C105.938 137.062 105.251 137.195 104.482 137.195C103.708 137.195 103.014 137.062 102.402 136.795C101.797 136.521 101.283 136.144 100.859 135.662C100.436 135.174 100.114 134.604 99.8926 133.953C99.6712 133.302 99.5605 132.596 99.5605 131.834ZM101.914 131.609V131.834C101.914 132.309 101.963 132.758 102.061 133.182C102.158 133.605 102.311 133.976 102.52 134.295C102.728 134.614 102.995 134.865 103.32 135.047C103.646 135.229 104.033 135.32 104.482 135.32C104.919 135.32 105.296 135.229 105.615 135.047C105.941 134.865 106.208 134.614 106.416 134.295C106.624 133.976 106.777 133.605 106.875 133.182C106.979 132.758 107.031 132.309 107.031 131.834V131.609C107.031 131.141 106.979 130.698 106.875 130.281C106.777 129.858 106.621 129.484 106.406 129.158C106.198 128.833 105.931 128.579 105.605 128.396C105.286 128.208 104.906 128.113 104.463 128.113C104.02 128.113 103.636 128.208 103.311 128.396C102.992 128.579 102.728 128.833 102.52 129.158C102.311 129.484 102.158 129.858 102.061 130.281C101.963 130.698 101.914 131.141 101.914 131.609ZM113.691 128.689V137H111.338V126.434H113.555L113.691 128.689ZM113.271 131.326L112.51 131.316C112.516 130.568 112.62 129.881 112.822 129.256C113.031 128.631 113.317 128.094 113.682 127.645C114.053 127.195 114.495 126.85 115.01 126.609C115.524 126.362 116.097 126.238 116.729 126.238C117.236 126.238 117.695 126.31 118.105 126.453C118.522 126.59 118.877 126.814 119.17 127.127C119.469 127.439 119.697 127.846 119.854 128.348C120.01 128.842 120.088 129.451 120.088 130.174V137H117.725V130.164C117.725 129.656 117.65 129.256 117.5 128.963C117.357 128.663 117.145 128.452 116.865 128.328C116.592 128.198 116.25 128.133 115.84 128.133C115.436 128.133 115.075 128.217 114.756 128.387C114.437 128.556 114.167 128.787 113.945 129.08C113.73 129.373 113.564 129.712 113.447 130.096C113.33 130.48 113.271 130.89 113.271 131.326ZM128.418 134.139C128.418 133.904 128.359 133.693 128.242 133.504C128.125 133.309 127.9 133.133 127.568 132.977C127.243 132.82 126.761 132.677 126.123 132.547C125.563 132.423 125.049 132.277 124.58 132.107C124.118 131.932 123.721 131.72 123.389 131.473C123.057 131.225 122.799 130.932 122.617 130.594C122.435 130.255 122.344 129.865 122.344 129.422C122.344 128.992 122.438 128.585 122.627 128.201C122.816 127.817 123.086 127.479 123.438 127.186C123.789 126.893 124.215 126.661 124.717 126.492C125.225 126.323 125.791 126.238 126.416 126.238C127.301 126.238 128.06 126.388 128.691 126.688C129.329 126.98 129.818 127.381 130.156 127.889C130.495 128.39 130.664 128.956 130.664 129.588H128.311C128.311 129.308 128.239 129.048 128.096 128.807C127.959 128.559 127.751 128.361 127.471 128.211C127.191 128.055 126.839 127.977 126.416 127.977C126.012 127.977 125.677 128.042 125.41 128.172C125.15 128.296 124.954 128.458 124.824 128.66C124.701 128.862 124.639 129.083 124.639 129.324C124.639 129.5 124.671 129.66 124.736 129.803C124.808 129.939 124.925 130.066 125.088 130.184C125.251 130.294 125.472 130.398 125.752 130.496C126.038 130.594 126.396 130.688 126.826 130.779C127.633 130.949 128.327 131.167 128.906 131.434C129.492 131.694 129.941 132.033 130.254 132.449C130.566 132.859 130.723 133.38 130.723 134.012C130.723 134.48 130.622 134.91 130.42 135.301C130.225 135.685 129.938 136.02 129.561 136.307C129.183 136.587 128.73 136.805 128.203 136.961C127.682 137.117 127.096 137.195 126.445 137.195C125.488 137.195 124.678 137.026 124.014 136.688C123.35 136.342 122.845 135.903 122.5 135.369C122.161 134.829 121.992 134.269 121.992 133.689H124.268C124.294 134.126 124.414 134.474 124.629 134.734C124.85 134.988 125.124 135.174 125.449 135.291C125.781 135.402 126.123 135.457 126.475 135.457C126.898 135.457 127.253 135.402 127.539 135.291C127.826 135.174 128.044 135.018 128.193 134.822C128.343 134.62 128.418 134.393 128.418 134.139Z" fill="white"/>
<path opacity="0.6" d="M10.8813 162.609H12.2876C12.2144 163.283 12.0215 163.886 11.709 164.418C11.3965 164.95 10.9546 165.373 10.3833 165.685C9.81201 165.993 9.09912 166.146 8.24463 166.146C7.61963 166.146 7.05078 166.029 6.53809 165.795C6.03027 165.561 5.59326 165.229 5.22705 164.799C4.86084 164.364 4.57764 163.844 4.37744 163.239C4.18213 162.628 4.08447 161.95 4.08447 161.203V160.141C4.08447 159.394 4.18213 158.717 4.37744 158.112C4.57764 157.501 4.86328 156.979 5.23438 156.544C5.61035 156.11 6.06201 155.775 6.58936 155.541C7.1167 155.307 7.70996 155.189 8.36914 155.189C9.1748 155.189 9.85596 155.341 10.4126 155.644C10.9692 155.946 11.4014 156.366 11.709 156.903C12.0215 157.436 12.2144 158.053 12.2876 158.756H10.8813C10.813 158.258 10.686 157.831 10.5005 157.475C10.3149 157.113 10.0513 156.835 9.70947 156.64C9.36768 156.444 8.9209 156.347 8.36914 156.347C7.89551 156.347 7.47803 156.437 7.1167 156.618C6.76025 156.798 6.45996 157.055 6.21582 157.387C5.97656 157.719 5.7959 158.117 5.67383 158.581C5.55176 159.044 5.49072 159.56 5.49072 160.126V161.203C5.49072 161.725 5.54443 162.216 5.65186 162.675C5.76416 163.134 5.93262 163.537 6.15723 163.883C6.38184 164.23 6.66748 164.503 7.01416 164.704C7.36084 164.899 7.771 164.997 8.24463 164.997C8.84521 164.997 9.32373 164.901 9.68018 164.711C10.0366 164.521 10.3052 164.247 10.4858 163.891C10.6714 163.534 10.8032 163.107 10.8813 162.609ZM13.6499 162.125V161.957C13.6499 161.386 13.7329 160.856 13.8989 160.368C14.0649 159.875 14.3042 159.447 14.6167 159.086C14.9292 158.72 15.3076 158.437 15.752 158.236C16.1963 158.031 16.6943 157.929 17.2461 157.929C17.8027 157.929 18.3032 158.031 18.7476 158.236C19.1968 158.437 19.5776 158.72 19.8901 159.086C20.2075 159.447 20.4492 159.875 20.6152 160.368C20.7812 160.856 20.8643 161.386 20.8643 161.957V162.125C20.8643 162.697 20.7812 163.227 20.6152 163.715C20.4492 164.203 20.2075 164.63 19.8901 164.997C19.5776 165.358 19.1992 165.641 18.7549 165.846C18.3154 166.046 17.8174 166.146 17.2607 166.146C16.7041 166.146 16.2036 166.046 15.7593 165.846C15.3149 165.641 14.9341 165.358 14.6167 164.997C14.3042 164.63 14.0649 164.203 13.8989 163.715C13.7329 163.227 13.6499 162.697 13.6499 162.125ZM15.0049 161.957V162.125C15.0049 162.521 15.0513 162.895 15.144 163.246C15.2368 163.593 15.376 163.9 15.5615 164.169C15.752 164.438 15.9888 164.65 16.272 164.806C16.5552 164.958 16.8848 165.033 17.2607 165.033C17.6318 165.033 17.9565 164.958 18.2349 164.806C18.5181 164.65 18.7524 164.438 18.938 164.169C19.1235 163.9 19.2627 163.593 19.3555 163.246C19.4531 162.895 19.502 162.521 19.502 162.125V161.957C19.502 161.566 19.4531 161.198 19.3555 160.851C19.2627 160.5 19.1211 160.189 18.9307 159.921C18.7451 159.647 18.5107 159.433 18.2275 159.276C17.9492 159.12 17.6221 159.042 17.2461 159.042C16.875 159.042 16.5479 159.12 16.2646 159.276C15.9863 159.433 15.752 159.647 15.5615 159.921C15.376 160.189 15.2368 160.5 15.144 160.851C15.0513 161.198 15.0049 161.566 15.0049 161.957ZM23.9185 159.767V166H22.5635V158.075H23.8452L23.9185 159.767ZM23.5962 161.737L23.0322 161.715C23.0371 161.173 23.1177 160.673 23.2739 160.214C23.4302 159.75 23.6499 159.347 23.9331 159.005C24.2163 158.664 24.5532 158.4 24.9438 158.214C25.3394 158.024 25.7764 157.929 26.2549 157.929C26.6455 157.929 26.9971 157.982 27.3096 158.09C27.6221 158.192 27.8882 158.358 28.1079 158.588C28.3325 158.817 28.5034 159.115 28.6206 159.481C28.7378 159.843 28.7964 160.285 28.7964 160.807V166H27.4341V160.792C27.4341 160.377 27.373 160.045 27.251 159.796C27.1289 159.542 26.9507 159.359 26.7163 159.247C26.4819 159.13 26.1938 159.071 25.8521 159.071C25.5151 159.071 25.2075 159.142 24.9292 159.284C24.6558 159.425 24.4189 159.621 24.2188 159.87C24.0234 160.119 23.8696 160.404 23.7573 160.727C23.6499 161.044 23.5962 161.381 23.5962 161.737ZM34.1724 158.075V159.115H29.8877V158.075H34.1724ZM31.3379 156.149H32.6929V164.037C32.6929 164.306 32.7344 164.508 32.8174 164.645C32.9004 164.782 33.0078 164.872 33.1396 164.916C33.2715 164.96 33.4131 164.982 33.5645 164.982C33.6768 164.982 33.7939 164.972 33.916 164.953C34.043 164.928 34.1382 164.909 34.2017 164.894L34.209 166C34.1016 166.034 33.96 166.066 33.7842 166.095C33.6133 166.129 33.4058 166.146 33.1616 166.146C32.8296 166.146 32.5244 166.081 32.2461 165.949C31.9678 165.817 31.7456 165.597 31.5796 165.29C31.4185 164.977 31.3379 164.557 31.3379 164.03V156.149ZM37.2339 158.075V166H35.8716V158.075H37.2339ZM35.769 155.973C35.769 155.753 35.835 155.568 35.9668 155.417C36.1035 155.265 36.3037 155.189 36.5674 155.189C36.8262 155.189 37.0239 155.265 37.1606 155.417C37.3022 155.568 37.373 155.753 37.373 155.973C37.373 156.183 37.3022 156.364 37.1606 156.515C37.0239 156.662 36.8262 156.735 36.5674 156.735C36.3037 156.735 36.1035 156.662 35.9668 156.515C35.835 156.364 35.769 156.183 35.769 155.973ZM40.7642 159.767V166H39.4092V158.075H40.6909L40.7642 159.767ZM40.4419 161.737L39.8779 161.715C39.8828 161.173 39.9634 160.673 40.1196 160.214C40.2759 159.75 40.4956 159.347 40.7788 159.005C41.062 158.664 41.3989 158.4 41.7896 158.214C42.1851 158.024 42.6221 157.929 43.1006 157.929C43.4912 157.929 43.8428 157.982 44.1553 158.09C44.4678 158.192 44.7339 158.358 44.9536 158.588C45.1782 158.817 45.3491 159.115 45.4663 159.481C45.5835 159.843 45.6421 160.285 45.6421 160.807V166H44.2798V160.792C44.2798 160.377 44.2188 160.045 44.0967 159.796C43.9746 159.542 43.7964 159.359 43.562 159.247C43.3276 159.13 43.0396 159.071 42.6978 159.071C42.3608 159.071 42.0532 159.142 41.7749 159.284C41.5015 159.425 41.2646 159.621 41.0645 159.87C40.8691 160.119 40.7153 160.404 40.603 160.727C40.4956 161.044 40.4419 161.381 40.4419 161.737ZM52.5488 164.169V158.075H53.9111V166H52.6147L52.5488 164.169ZM52.8052 162.499L53.3691 162.484C53.3691 163.012 53.313 163.5 53.2007 163.949C53.0933 164.394 52.9175 164.779 52.6733 165.106C52.4292 165.434 52.1094 165.69 51.7139 165.875C51.3184 166.056 50.8374 166.146 50.271 166.146C49.8853 166.146 49.5312 166.09 49.209 165.978C48.8916 165.866 48.6182 165.692 48.3887 165.458C48.1592 165.224 47.981 164.918 47.854 164.542C47.7319 164.167 47.6709 163.715 47.6709 163.188V158.075H49.0259V163.202C49.0259 163.559 49.0649 163.854 49.1431 164.088C49.2261 164.318 49.3359 164.501 49.4727 164.638C49.6143 164.77 49.7705 164.862 49.9414 164.916C50.1172 164.97 50.2979 164.997 50.4834 164.997C51.0596 164.997 51.5161 164.887 51.853 164.667C52.1899 164.442 52.4316 164.142 52.5781 163.766C52.7295 163.385 52.8052 162.963 52.8052 162.499ZM55.6177 162.125V161.957C55.6177 161.386 55.7007 160.856 55.8667 160.368C56.0327 159.875 56.272 159.447 56.5845 159.086C56.897 158.72 57.2754 158.437 57.7197 158.236C58.1641 158.031 58.6621 157.929 59.2139 157.929C59.7705 157.929 60.271 158.031 60.7153 158.236C61.1646 158.437 61.5454 158.72 61.8579 159.086C62.1753 159.447 62.417 159.875 62.583 160.368C62.749 160.856 62.832 161.386 62.832 161.957V162.125C62.832 162.697 62.749 163.227 62.583 163.715C62.417 164.203 62.1753 164.63 61.8579 164.997C61.5454 165.358 61.167 165.641 60.7227 165.846C60.2832 166.046 59.7852 166.146 59.2285 166.146C58.6719 166.146 58.1714 166.046 57.7271 165.846C57.2827 165.641 56.9019 165.358 56.5845 164.997C56.272 164.63 56.0327 164.203 55.8667 163.715C55.7007 163.227 55.6177 162.697 55.6177 162.125ZM56.9727 161.957V162.125C56.9727 162.521 57.019 162.895 57.1118 163.246C57.2046 163.593 57.3438 163.9 57.5293 164.169C57.7197 164.438 57.9565 164.65 58.2397 164.806C58.5229 164.958 58.8525 165.033 59.2285 165.033C59.5996 165.033 59.9243 164.958 60.2026 164.806C60.4858 164.65 60.7202 164.438 60.9058 164.169C61.0913 163.9 61.2305 163.593 61.3232 163.246C61.4209 162.895 61.4697 162.521 61.4697 162.125V161.957C61.4697 161.566 61.4209 161.198 61.3232 160.851C61.2305 160.5 61.0889 160.189 60.8984 159.921C60.7129 159.647 60.4785 159.433 60.1953 159.276C59.917 159.12 59.5898 159.042 59.2139 159.042C58.8428 159.042 58.5156 159.12 58.2324 159.276C57.9541 159.433 57.7197 159.647 57.5293 159.921C57.3438 160.189 57.2046 160.5 57.1118 160.851C57.019 161.198 56.9727 161.566 56.9727 161.957ZM69.3799 164.169V158.075H70.7422V166H69.4458L69.3799 164.169ZM69.6362 162.499L70.2002 162.484C70.2002 163.012 70.144 163.5 70.0317 163.949C69.9243 164.394 69.7485 164.779 69.5044 165.106C69.2603 165.434 68.9404 165.69 68.5449 165.875C68.1494 166.056 67.6685 166.146 67.1021 166.146C66.7163 166.146 66.3623 166.09 66.04 165.978C65.7227 165.866 65.4492 165.692 65.2197 165.458C64.9902 165.224 64.812 164.918 64.6851 164.542C64.563 164.167 64.502 163.715 64.502 163.188V158.075H65.8569V163.202C65.8569 163.559 65.896 163.854 65.9741 164.088C66.0571 164.318 66.167 164.501 66.3037 164.638C66.4453 164.77 66.6016 164.862 66.7725 164.916C66.9482 164.97 67.1289 164.997 67.3145 164.997C67.8906 164.997 68.3472 164.887 68.6841 164.667C69.021 164.442 69.2627 164.142 69.4092 163.766C69.5605 163.385 69.6362 162.963 69.6362 162.499ZM77.4219 163.898C77.4219 163.703 77.3779 163.522 77.29 163.356C77.207 163.185 77.0337 163.031 76.77 162.895C76.5112 162.753 76.1206 162.631 75.5981 162.528C75.1587 162.436 74.7607 162.326 74.4043 162.199C74.0527 162.072 73.7524 161.918 73.5034 161.737C73.2593 161.557 73.0713 161.344 72.9395 161.1C72.8076 160.856 72.7417 160.57 72.7417 160.243C72.7417 159.931 72.8101 159.635 72.9468 159.357C73.0884 159.079 73.2861 158.832 73.54 158.617C73.7988 158.402 74.1089 158.234 74.4702 158.112C74.8315 157.99 75.2344 157.929 75.6787 157.929C76.3135 157.929 76.8555 158.041 77.3047 158.266C77.7539 158.49 78.0981 158.791 78.3374 159.167C78.5767 159.538 78.6963 159.95 78.6963 160.404H77.3413C77.3413 160.185 77.2754 159.972 77.1436 159.767C77.0166 159.557 76.8286 159.384 76.5796 159.247C76.3354 159.11 76.0352 159.042 75.6787 159.042C75.3027 159.042 74.9976 159.101 74.7632 159.218C74.5337 159.33 74.3652 159.474 74.2578 159.65C74.1553 159.826 74.104 160.011 74.104 160.207C74.104 160.353 74.1284 160.485 74.1772 160.602C74.231 160.714 74.3237 160.819 74.4556 160.917C74.5874 161.01 74.7729 161.098 75.0122 161.181C75.2515 161.264 75.5566 161.347 75.9277 161.43C76.5771 161.576 77.1118 161.752 77.5317 161.957C77.9517 162.162 78.2642 162.414 78.4692 162.711C78.6743 163.009 78.7769 163.371 78.7769 163.795C78.7769 164.142 78.7036 164.459 78.5571 164.748C78.4155 165.036 78.208 165.285 77.9346 165.495C77.666 165.7 77.3438 165.861 76.9678 165.978C76.5967 166.09 76.1792 166.146 75.7153 166.146C75.0171 166.146 74.4263 166.022 73.9429 165.773C73.4595 165.524 73.0933 165.202 72.8442 164.806C72.5952 164.411 72.4707 163.993 72.4707 163.554H73.833C73.8525 163.925 73.96 164.22 74.1553 164.44C74.3506 164.655 74.5898 164.809 74.873 164.901C75.1562 164.989 75.437 165.033 75.7153 165.033C76.0864 165.033 76.3965 164.984 76.6455 164.887C76.8994 164.789 77.0923 164.655 77.2241 164.484C77.356 164.313 77.4219 164.118 77.4219 163.898ZM87.5659 166.146C87.0142 166.146 86.5137 166.054 86.0645 165.868C85.6201 165.678 85.2368 165.412 84.9146 165.07C84.5972 164.728 84.353 164.323 84.1821 163.854C84.0112 163.385 83.9258 162.873 83.9258 162.316V162.008C83.9258 161.364 84.021 160.79 84.2114 160.287C84.4019 159.779 84.6606 159.35 84.9878 158.998C85.3149 158.646 85.686 158.38 86.1011 158.2C86.5161 158.019 86.9458 157.929 87.3901 157.929C87.9565 157.929 88.4448 158.026 88.855 158.222C89.27 158.417 89.6094 158.69 89.873 159.042C90.1367 159.389 90.332 159.799 90.459 160.272C90.5859 160.741 90.6494 161.254 90.6494 161.811V162.418H84.7314V161.312H89.2944V161.21C89.2749 160.858 89.2017 160.517 89.0747 160.185C88.9526 159.853 88.7573 159.579 88.4888 159.364C88.2202 159.149 87.854 159.042 87.3901 159.042C87.0825 159.042 86.7993 159.108 86.5405 159.24C86.2817 159.367 86.0596 159.557 85.874 159.811C85.6885 160.065 85.5444 160.375 85.4419 160.741C85.3394 161.107 85.2881 161.53 85.2881 162.008V162.316C85.2881 162.692 85.3394 163.046 85.4419 163.378C85.5493 163.705 85.7031 163.993 85.9033 164.242C86.1084 164.491 86.355 164.687 86.6431 164.828C86.936 164.97 87.2681 165.041 87.6392 165.041C88.1177 165.041 88.5229 164.943 88.855 164.748C89.187 164.552 89.4775 164.291 89.7266 163.964L90.5469 164.616C90.376 164.875 90.1587 165.121 89.895 165.355C89.6313 165.59 89.3066 165.78 88.9209 165.927C88.54 166.073 88.0884 166.146 87.5659 166.146ZM94.5386 164.777L96.7065 158.075H98.0908L95.2417 166H94.3335L94.5386 164.777ZM92.7295 158.075L94.9634 164.813L95.1172 166H94.209L91.3379 158.075H92.7295ZM103.95 164.645V160.565C103.95 160.253 103.887 159.982 103.76 159.752C103.638 159.518 103.452 159.337 103.203 159.21C102.954 159.083 102.646 159.02 102.28 159.02C101.938 159.02 101.638 159.079 101.379 159.196C101.125 159.313 100.925 159.467 100.779 159.657C100.637 159.848 100.566 160.053 100.566 160.272H99.2114C99.2114 159.989 99.2847 159.708 99.4312 159.43C99.5776 159.152 99.7876 158.9 100.061 158.676C100.339 158.446 100.671 158.266 101.057 158.134C101.448 157.997 101.882 157.929 102.361 157.929C102.937 157.929 103.445 158.026 103.884 158.222C104.329 158.417 104.675 158.712 104.924 159.108C105.178 159.499 105.305 159.989 105.305 160.58V164.271C105.305 164.535 105.327 164.816 105.371 165.114C105.42 165.412 105.491 165.668 105.583 165.883V166H104.17C104.102 165.844 104.048 165.636 104.009 165.377C103.97 165.114 103.95 164.87 103.95 164.645ZM104.185 161.195L104.199 162.147H102.83C102.444 162.147 102.1 162.179 101.797 162.243C101.494 162.301 101.24 162.392 101.035 162.514C100.83 162.636 100.674 162.79 100.566 162.975C100.459 163.156 100.405 163.368 100.405 163.612C100.405 163.861 100.461 164.088 100.574 164.293C100.686 164.499 100.854 164.662 101.079 164.784C101.309 164.901 101.589 164.96 101.921 164.96C102.336 164.96 102.703 164.872 103.02 164.696C103.337 164.521 103.589 164.306 103.774 164.052C103.965 163.798 104.067 163.551 104.082 163.312L104.661 163.964C104.626 164.169 104.534 164.396 104.382 164.645C104.231 164.894 104.028 165.133 103.774 165.363C103.525 165.587 103.228 165.775 102.881 165.927C102.539 166.073 102.153 166.146 101.724 166.146C101.187 166.146 100.715 166.042 100.31 165.832C99.9097 165.622 99.5972 165.341 99.3726 164.989C99.1528 164.633 99.043 164.235 99.043 163.795C99.043 163.371 99.126 162.997 99.292 162.675C99.458 162.348 99.6973 162.077 100.01 161.862C100.322 161.642 100.698 161.476 101.138 161.364C101.577 161.251 102.068 161.195 102.61 161.195H104.185ZM108.909 154.75V166H107.546V154.75H108.909ZM115.933 164.169V158.075H117.295V166H115.999L115.933 164.169ZM116.189 162.499L116.753 162.484C116.753 163.012 116.697 163.5 116.584 163.949C116.477 164.394 116.301 164.779 116.057 165.106C115.813 165.434 115.493 165.69 115.098 165.875C114.702 166.056 114.221 166.146 113.655 166.146C113.269 166.146 112.915 166.09 112.593 165.978C112.275 165.866 112.002 165.692 111.772 165.458C111.543 165.224 111.365 164.918 111.238 164.542C111.116 164.167 111.055 163.715 111.055 163.188V158.075H112.41V163.202C112.41 163.559 112.449 163.854 112.527 164.088C112.61 164.318 112.72 164.501 112.856 164.638C112.998 164.77 113.154 164.862 113.325 164.916C113.501 164.97 113.682 164.997 113.867 164.997C114.443 164.997 114.9 164.887 115.237 164.667C115.574 164.442 115.815 164.142 115.962 163.766C116.113 163.385 116.189 162.963 116.189 162.499ZM122.678 158.075V159.115H118.394V158.075H122.678ZM119.844 156.149H121.199V164.037C121.199 164.306 121.24 164.508 121.323 164.645C121.406 164.782 121.514 164.872 121.646 164.916C121.777 164.96 121.919 164.982 122.07 164.982C122.183 164.982 122.3 164.972 122.422 164.953C122.549 164.928 122.644 164.909 122.708 164.894L122.715 166C122.607 166.034 122.466 166.066 122.29 166.095C122.119 166.129 121.912 166.146 121.667 166.146C121.335 166.146 121.03 166.081 120.752 165.949C120.474 165.817 120.251 165.597 120.085 165.29C119.924 164.977 119.844 164.557 119.844 164.03V156.149ZM128.94 164.645V160.565C128.94 160.253 128.877 159.982 128.75 159.752C128.628 159.518 128.442 159.337 128.193 159.21C127.944 159.083 127.637 159.02 127.271 159.02C126.929 159.02 126.628 159.079 126.37 159.196C126.116 159.313 125.916 159.467 125.769 159.657C125.627 159.848 125.557 160.053 125.557 160.272H124.202C124.202 159.989 124.275 159.708 124.421 159.43C124.568 159.152 124.778 158.9 125.051 158.676C125.33 158.446 125.662 158.266 126.047 158.134C126.438 157.997 126.873 157.929 127.351 157.929C127.927 157.929 128.435 158.026 128.875 158.222C129.319 158.417 129.666 158.712 129.915 159.108C130.168 159.499 130.295 159.989 130.295 160.58V164.271C130.295 164.535 130.317 164.816 130.361 165.114C130.41 165.412 130.481 165.668 130.574 165.883V166H129.16C129.092 165.844 129.038 165.636 128.999 165.377C128.96 165.114 128.94 164.87 128.94 164.645ZM129.175 161.195L129.189 162.147H127.82C127.434 162.147 127.09 162.179 126.787 162.243C126.484 162.301 126.23 162.392 126.025 162.514C125.82 162.636 125.664 162.79 125.557 162.975C125.449 163.156 125.396 163.368 125.396 163.612C125.396 163.861 125.452 164.088 125.564 164.293C125.676 164.499 125.845 164.662 126.069 164.784C126.299 164.901 126.58 164.96 126.912 164.96C127.327 164.96 127.693 164.872 128.01 164.696C128.328 164.521 128.579 164.306 128.765 164.052C128.955 163.798 129.058 163.551 129.072 163.312L129.651 163.964C129.617 164.169 129.524 164.396 129.373 164.645C129.221 164.894 129.019 165.133 128.765 165.363C128.516 165.587 128.218 165.775 127.871 165.927C127.529 166.073 127.144 166.146 126.714 166.146C126.177 166.146 125.706 166.042 125.3 165.832C124.9 165.622 124.587 165.341 124.363 164.989C124.143 164.633 124.033 164.235 124.033 163.795C124.033 163.371 124.116 162.997 124.282 162.675C124.448 162.348 124.688 162.077 125 161.862C125.312 161.642 125.688 161.476 126.128 161.364C126.567 161.251 127.058 161.195 127.6 161.195H129.175ZM135.745 158.075V159.115H131.46V158.075H135.745ZM132.91 156.149H134.265V164.037C134.265 164.306 134.307 164.508 134.39 164.645C134.473 164.782 134.58 164.872 134.712 164.916C134.844 164.96 134.985 164.982 135.137 164.982C135.249 164.982 135.366 164.972 135.488 164.953C135.615 164.928 135.71 164.909 135.774 164.894L135.781 166C135.674 166.034 135.532 166.066 135.356 166.095C135.186 166.129 134.978 166.146 134.734 166.146C134.402 166.146 134.097 166.081 133.818 165.949C133.54 165.817 133.318 165.597 133.152 165.29C132.991 164.977 132.91 164.557 132.91 164.03V156.149ZM138.806 158.075V166H137.444V158.075H138.806ZM137.341 155.973C137.341 155.753 137.407 155.568 137.539 155.417C137.676 155.265 137.876 155.189 138.14 155.189C138.398 155.189 138.596 155.265 138.733 155.417C138.875 155.568 138.945 155.753 138.945 155.973C138.945 156.183 138.875 156.364 138.733 156.515C138.596 156.662 138.398 156.735 138.14 156.735C137.876 156.735 137.676 156.662 137.539 156.515C137.407 156.364 137.341 156.183 137.341 155.973ZM140.623 162.125V161.957C140.623 161.386 140.706 160.856 140.872 160.368C141.038 159.875 141.277 159.447 141.589 159.086C141.902 158.72 142.28 158.437 142.725 158.236C143.169 158.031 143.667 157.929 144.219 157.929C144.775 157.929 145.276 158.031 145.72 158.236C146.169 158.437 146.55 158.72 146.863 159.086C147.18 159.447 147.422 159.875 147.588 160.368C147.754 160.856 147.837 161.386 147.837 161.957V162.125C147.837 162.697 147.754 163.227 147.588 163.715C147.422 164.203 147.18 164.63 146.863 164.997C146.55 165.358 146.172 165.641 145.728 165.846C145.288 166.046 144.79 166.146 144.233 166.146C143.677 166.146 143.176 166.046 142.732 165.846C142.288 165.641 141.907 165.358 141.589 164.997C141.277 164.63 141.038 164.203 140.872 163.715C140.706 163.227 140.623 162.697 140.623 162.125ZM141.978 161.957V162.125C141.978 162.521 142.024 162.895 142.117 163.246C142.209 163.593 142.349 163.9 142.534 164.169C142.725 164.438 142.961 164.65 143.245 164.806C143.528 164.958 143.857 165.033 144.233 165.033C144.604 165.033 144.929 164.958 145.208 164.806C145.491 164.65 145.725 164.438 145.911 164.169C146.096 163.9 146.235 163.593 146.328 163.246C146.426 162.895 146.475 162.521 146.475 162.125V161.957C146.475 161.566 146.426 161.198 146.328 160.851C146.235 160.5 146.094 160.189 145.903 159.921C145.718 159.647 145.483 159.433 145.2 159.276C144.922 159.12 144.595 159.042 144.219 159.042C143.848 159.042 143.521 159.12 143.237 159.276C142.959 159.433 142.725 159.647 142.534 159.921C142.349 160.189 142.209 160.5 142.117 160.851C142.024 161.198 141.978 161.566 141.978 161.957ZM150.891 159.767V166H149.536V158.075H150.818L150.891 159.767ZM150.569 161.737L150.005 161.715C150.01 161.173 150.09 160.673 150.247 160.214C150.403 159.75 150.623 159.347 150.906 159.005C151.189 158.664 151.526 158.4 151.917 158.214C152.312 158.024 152.749 157.929 153.228 157.929C153.618 157.929 153.97 157.982 154.282 158.09C154.595 158.192 154.861 158.358 155.081 158.588C155.305 158.817 155.476 159.115 155.593 159.481C155.71 159.843 155.769 160.285 155.769 160.807V166H154.407V160.792C154.407 160.377 154.346 160.045 154.224 159.796C154.102 159.542 153.923 159.359 153.689 159.247C153.455 159.13 153.167 159.071 152.825 159.071C152.488 159.071 152.18 159.142 151.902 159.284C151.628 159.425 151.392 159.621 151.191 159.87C150.996 160.119 150.842 160.404 150.73 160.727C150.623 161.044 150.569 161.381 150.569 161.737ZM33.2056 185.645V181.565C33.2056 181.253 33.1421 180.982 33.0151 180.752C32.8931 180.518 32.7075 180.337 32.4585 180.21C32.2095 180.083 31.9019 180.02 31.5356 180.02C31.1938 180.02 30.8936 180.079 30.6348 180.196C30.3809 180.313 30.1807 180.467 30.0342 180.657C29.8926 180.848 29.8218 181.053 29.8218 181.272H28.4668C28.4668 180.989 28.54 180.708 28.6865 180.43C28.833 180.152 29.043 179.9 29.3164 179.676C29.5947 179.446 29.9268 179.266 30.3125 179.134C30.7031 178.997 31.1377 178.929 31.6162 178.929C32.1924 178.929 32.7002 179.026 33.1396 179.222C33.584 179.417 33.9307 179.712 34.1797 180.108C34.4336 180.499 34.5605 180.989 34.5605 181.58V185.271C34.5605 185.535 34.5825 185.816 34.6265 186.114C34.6753 186.412 34.7461 186.668 34.8389 186.883V187H33.4253C33.3569 186.844 33.3032 186.636 33.2642 186.377C33.2251 186.114 33.2056 185.87 33.2056 185.645ZM33.4399 182.195L33.4546 183.147H32.085C31.6992 183.147 31.355 183.179 31.0522 183.243C30.7495 183.301 30.4956 183.392 30.2905 183.514C30.0854 183.636 29.9292 183.79 29.8218 183.975C29.7144 184.156 29.6606 184.368 29.6606 184.612C29.6606 184.861 29.7168 185.088 29.8291 185.293C29.9414 185.499 30.1099 185.662 30.3345 185.784C30.564 185.901 30.8447 185.96 31.1768 185.96C31.5918 185.96 31.958 185.872 32.2754 185.696C32.5928 185.521 32.8442 185.306 33.0298 185.052C33.2202 184.798 33.3228 184.551 33.3374 184.312L33.916 184.964C33.8818 185.169 33.7891 185.396 33.6377 185.645C33.4863 185.894 33.2837 186.133 33.0298 186.363C32.7808 186.587 32.4829 186.775 32.1362 186.927C31.7944 187.073 31.4087 187.146 30.979 187.146C30.4419 187.146 29.9707 187.042 29.5654 186.832C29.165 186.622 28.8525 186.341 28.6279 185.989C28.4082 185.633 28.2983 185.235 28.2983 184.795C28.2983 184.371 28.3813 183.997 28.5474 183.675C28.7134 183.348 28.9526 183.077 29.2651 182.862C29.5776 182.642 29.9536 182.476 30.3931 182.364C30.8325 182.251 31.3232 182.195 31.8652 182.195H33.4399ZM38.0469 180.767V187H36.6919V179.075H37.9736L38.0469 180.767ZM37.7246 182.737L37.1606 182.715C37.1655 182.173 37.2461 181.673 37.4023 181.214C37.5586 180.75 37.7783 180.347 38.0615 180.005C38.3447 179.664 38.6816 179.4 39.0723 179.214C39.4678 179.024 39.9048 178.929 40.3833 178.929C40.7739 178.929 41.1255 178.982 41.438 179.09C41.7505 179.192 42.0166 179.358 42.2363 179.588C42.4609 179.817 42.6318 180.115 42.749 180.481C42.8662 180.843 42.9248 181.285 42.9248 181.807V187H41.5625V181.792C41.5625 181.377 41.5015 181.045 41.3794 180.796C41.2573 180.542 41.0791 180.359 40.8447 180.247C40.6104 180.13 40.3223 180.071 39.9805 180.071C39.6436 180.071 39.3359 180.142 39.0576 180.284C38.7842 180.425 38.5474 180.621 38.3472 180.87C38.1519 181.119 37.998 181.404 37.8857 181.727C37.7783 182.044 37.7246 182.381 37.7246 182.737ZM49.978 185.462V175.75H51.3403V187H50.0952L49.978 185.462ZM44.646 183.125V182.972C44.646 182.366 44.7192 181.817 44.8657 181.324C45.0171 180.826 45.2295 180.398 45.5029 180.042C45.7812 179.686 46.1108 179.412 46.4917 179.222C46.8774 179.026 47.3071 178.929 47.7808 178.929C48.2788 178.929 48.7134 179.017 49.0845 179.192C49.4604 179.363 49.7778 179.615 50.0366 179.947C50.3003 180.274 50.5078 180.669 50.6592 181.133C50.8105 181.597 50.9155 182.122 50.9741 182.708V183.382C50.9204 183.963 50.8154 184.485 50.6592 184.949C50.5078 185.413 50.3003 185.809 50.0366 186.136C49.7778 186.463 49.4604 186.714 49.0845 186.89C48.7085 187.061 48.269 187.146 47.7661 187.146C47.3022 187.146 46.8774 187.046 46.4917 186.846C46.1108 186.646 45.7812 186.365 45.5029 186.004C45.2295 185.643 45.0171 185.218 44.8657 184.729C44.7192 184.236 44.646 183.702 44.646 183.125ZM46.0083 182.972V183.125C46.0083 183.521 46.0474 183.892 46.1255 184.239C46.2085 184.585 46.3354 184.891 46.5063 185.154C46.6772 185.418 46.8945 185.625 47.1582 185.777C47.4219 185.923 47.7368 185.997 48.103 185.997C48.5522 185.997 48.9209 185.901 49.209 185.711C49.502 185.521 49.7363 185.269 49.9121 184.957C50.0879 184.644 50.2246 184.305 50.3223 183.938V182.173C50.2637 181.905 50.1782 181.646 50.0659 181.397C49.9585 181.143 49.8169 180.918 49.6411 180.723C49.4702 180.523 49.2578 180.364 49.0039 180.247C48.7549 180.13 48.4595 180.071 48.1177 180.071C47.7466 180.071 47.4268 180.149 47.1582 180.306C46.8945 180.457 46.6772 180.667 46.5063 180.936C46.3354 181.199 46.2085 181.507 46.1255 181.858C46.0474 182.205 46.0083 182.576 46.0083 182.972ZM58.5181 180.65V187H57.1558V179.075H58.4448L58.5181 180.65ZM58.2397 182.737L57.6099 182.715C57.6147 182.173 57.6855 181.673 57.8223 181.214C57.959 180.75 58.1616 180.347 58.4302 180.005C58.6987 179.664 59.0332 179.4 59.4336 179.214C59.834 179.024 60.2979 178.929 60.8252 178.929C61.1963 178.929 61.5381 178.982 61.8506 179.09C62.1631 179.192 62.4341 179.356 62.6636 179.581C62.8931 179.805 63.0713 180.093 63.1982 180.445C63.3252 180.796 63.3887 181.221 63.3887 181.719V187H62.0337V181.785C62.0337 181.37 61.9629 181.038 61.8213 180.789C61.6846 180.54 61.4893 180.359 61.2354 180.247C60.9814 180.13 60.6836 180.071 60.3418 180.071C59.9414 180.071 59.6069 180.142 59.3384 180.284C59.0698 180.425 58.855 180.621 58.6938 180.87C58.5327 181.119 58.4155 181.404 58.3423 181.727C58.2739 182.044 58.2397 182.381 58.2397 182.737ZM63.374 181.99L62.4658 182.269C62.4707 181.834 62.5415 181.417 62.6782 181.016C62.8198 180.616 63.0225 180.259 63.2861 179.947C63.5547 179.634 63.8843 179.388 64.2749 179.207C64.6655 179.021 65.1123 178.929 65.6152 178.929C66.04 178.929 66.416 178.985 66.7432 179.097C67.0752 179.209 67.3535 179.383 67.5781 179.617C67.8076 179.847 67.981 180.142 68.0981 180.503C68.2153 180.865 68.2739 181.294 68.2739 181.792V187H66.9116V181.778C66.9116 181.333 66.8408 180.989 66.6992 180.745C66.5625 180.496 66.3672 180.323 66.1133 180.225C65.8643 180.123 65.5664 180.071 65.2197 180.071C64.9219 180.071 64.6582 180.123 64.4287 180.225C64.1992 180.328 64.0063 180.469 63.8501 180.65C63.6938 180.826 63.5742 181.028 63.4912 181.258C63.4131 181.487 63.374 181.731 63.374 181.99ZM69.9658 183.125V182.957C69.9658 182.386 70.0488 181.856 70.2148 181.368C70.3809 180.875 70.6201 180.447 70.9326 180.086C71.2451 179.72 71.6235 179.437 72.0679 179.236C72.5122 179.031 73.0103 178.929 73.562 178.929C74.1187 178.929 74.6191 179.031 75.0635 179.236C75.5127 179.437 75.8936 179.72 76.2061 180.086C76.5234 180.447 76.7651 180.875 76.9312 181.368C77.0972 181.856 77.1802 182.386 77.1802 182.957V183.125C77.1802 183.697 77.0972 184.227 76.9312 184.715C76.7651 185.203 76.5234 185.63 76.2061 185.997C75.8936 186.358 75.5151 186.641 75.0708 186.846C74.6313 187.046 74.1333 187.146 73.5767 187.146C73.02 187.146 72.5195 187.046 72.0752 186.846C71.6309 186.641 71.25 186.358 70.9326 185.997C70.6201 185.63 70.3809 185.203 70.2148 184.715C70.0488 184.227 69.9658 183.697 69.9658 183.125ZM71.3208 182.957V183.125C71.3208 183.521 71.3672 183.895 71.46 184.246C71.5527 184.593 71.6919 184.9 71.8774 185.169C72.0679 185.438 72.3047 185.65 72.5879 185.806C72.8711 185.958 73.2007 186.033 73.5767 186.033C73.9478 186.033 74.2725 185.958 74.5508 185.806C74.834 185.65 75.0684 185.438 75.2539 185.169C75.4395 184.9 75.5786 184.593 75.6714 184.246C75.769 183.895 75.8179 183.521 75.8179 183.125V182.957C75.8179 182.566 75.769 182.198 75.6714 181.851C75.5786 181.5 75.437 181.189 75.2466 180.921C75.061 180.647 74.8267 180.433 74.5435 180.276C74.2651 180.12 73.938 180.042 73.562 180.042C73.1909 180.042 72.8638 180.12 72.5806 180.276C72.3022 180.433 72.0679 180.647 71.8774 180.921C71.6919 181.189 71.5527 181.5 71.46 181.851C71.3672 182.198 71.3208 182.566 71.3208 182.957ZM80.2344 180.767V187H78.8794V179.075H80.1611L80.2344 180.767ZM79.9121 182.737L79.3481 182.715C79.353 182.173 79.4336 181.673 79.5898 181.214C79.7461 180.75 79.9658 180.347 80.249 180.005C80.5322 179.664 80.8691 179.4 81.2598 179.214C81.6553 179.024 82.0923 178.929 82.5708 178.929C82.9614 178.929 83.313 178.982 83.6255 179.09C83.938 179.192 84.2041 179.358 84.4238 179.588C84.6484 179.817 84.8193 180.115 84.9365 180.481C85.0537 180.843 85.1123 181.285 85.1123 181.807V187H83.75V181.792C83.75 181.377 83.689 181.045 83.5669 180.796C83.4448 180.542 83.2666 180.359 83.0322 180.247C82.7979 180.13 82.5098 180.071 82.168 180.071C81.8311 180.071 81.5234 180.142 81.2451 180.284C80.9717 180.425 80.7349 180.621 80.5347 180.87C80.3394 181.119 80.1855 181.404 80.0732 181.727C79.9658 182.044 79.9121 182.381 79.9121 182.737ZM88.6426 179.075V187H87.2803V179.075H88.6426ZM87.1777 176.973C87.1777 176.753 87.2437 176.568 87.3755 176.417C87.5122 176.265 87.7124 176.189 87.9761 176.189C88.2349 176.189 88.4326 176.265 88.5693 176.417C88.7109 176.568 88.7817 176.753 88.7817 176.973C88.7817 177.183 88.7109 177.364 88.5693 177.515C88.4326 177.662 88.2349 177.735 87.9761 177.735C87.7124 177.735 87.5122 177.662 87.3755 177.515C87.2437 177.364 87.1777 177.183 87.1777 176.973ZM94.1357 179.075V180.115H89.8511V179.075H94.1357ZM91.3013 177.149H92.6562V185.037C92.6562 185.306 92.6978 185.508 92.7808 185.645C92.8638 185.782 92.9712 185.872 93.103 185.916C93.2349 185.96 93.3765 185.982 93.5278 185.982C93.6401 185.982 93.7573 185.972 93.8794 185.953C94.0063 185.928 94.1016 185.909 94.165 185.894L94.1724 187C94.0649 187.034 93.9233 187.066 93.7476 187.095C93.5767 187.129 93.3691 187.146 93.125 187.146C92.793 187.146 92.4878 187.081 92.2095 186.949C91.9312 186.817 91.709 186.597 91.543 186.29C91.3818 185.977 91.3013 185.557 91.3013 185.03V177.149ZM95.2197 183.125V182.957C95.2197 182.386 95.3027 181.856 95.4688 181.368C95.6348 180.875 95.874 180.447 96.1865 180.086C96.499 179.72 96.8774 179.437 97.3218 179.236C97.7661 179.031 98.2642 178.929 98.8159 178.929C99.3726 178.929 99.873 179.031 100.317 179.236C100.767 179.437 101.147 179.72 101.46 180.086C101.777 180.447 102.019 180.875 102.185 181.368C102.351 181.856 102.434 182.386 102.434 182.957V183.125C102.434 183.697 102.351 184.227 102.185 184.715C102.019 185.203 101.777 185.63 101.46 185.997C101.147 186.358 100.769 186.641 100.325 186.846C99.8853 187.046 99.3872 187.146 98.8306 187.146C98.2739 187.146 97.7734 187.046 97.3291 186.846C96.8848 186.641 96.5039 186.358 96.1865 185.997C95.874 185.63 95.6348 185.203 95.4688 184.715C95.3027 184.227 95.2197 183.697 95.2197 183.125ZM96.5747 182.957V183.125C96.5747 183.521 96.6211 183.895 96.7139 184.246C96.8066 184.593 96.9458 184.9 97.1313 185.169C97.3218 185.438 97.5586 185.65 97.8418 185.806C98.125 185.958 98.4546 186.033 98.8306 186.033C99.2017 186.033 99.5264 185.958 99.8047 185.806C100.088 185.65 100.322 185.438 100.508 185.169C100.693 184.9 100.833 184.593 100.925 184.246C101.023 183.895 101.072 183.521 101.072 183.125V182.957C101.072 182.566 101.023 182.198 100.925 181.851C100.833 181.5 100.691 181.189 100.5 180.921C100.315 180.647 100.081 180.433 99.7974 180.276C99.519 180.12 99.1919 180.042 98.8159 180.042C98.4448 180.042 98.1177 180.12 97.8345 180.276C97.5562 180.433 97.3218 180.647 97.1313 180.921C96.9458 181.189 96.8066 181.5 96.7139 181.851C96.6211 182.198 96.5747 182.566 96.5747 182.957ZM105.488 180.32V187H104.133V179.075H105.452L105.488 180.32ZM107.964 179.031L107.957 180.291C107.844 180.267 107.737 180.252 107.634 180.247C107.537 180.237 107.424 180.232 107.297 180.232C106.985 180.232 106.709 180.281 106.47 180.379C106.23 180.477 106.028 180.613 105.862 180.789C105.696 180.965 105.564 181.175 105.466 181.419C105.374 181.658 105.312 181.922 105.283 182.21L104.902 182.43C104.902 181.951 104.949 181.502 105.042 181.082C105.139 180.662 105.288 180.291 105.488 179.969C105.688 179.642 105.942 179.388 106.25 179.207C106.562 179.021 106.934 178.929 107.363 178.929C107.461 178.929 107.573 178.941 107.7 178.965C107.827 178.985 107.915 179.007 107.964 179.031ZM110.688 179.075V187H109.326V179.075H110.688ZM109.224 176.973C109.224 176.753 109.29 176.568 109.421 176.417C109.558 176.265 109.758 176.189 110.022 176.189C110.281 176.189 110.479 176.265 110.615 176.417C110.757 176.568 110.828 176.753 110.828 176.973C110.828 177.183 110.757 177.364 110.615 177.515C110.479 177.662 110.281 177.735 110.022 177.735C109.758 177.735 109.558 177.662 109.421 177.515C109.29 177.364 109.224 177.183 109.224 176.973ZM114.219 180.767V187H112.864V179.075H114.146L114.219 180.767ZM113.896 182.737L113.333 182.715C113.337 182.173 113.418 181.673 113.574 181.214C113.73 180.75 113.95 180.347 114.233 180.005C114.517 179.664 114.854 179.4 115.244 179.214C115.64 179.024 116.077 178.929 116.555 178.929C116.946 178.929 117.297 178.982 117.61 179.09C117.922 179.192 118.188 179.358 118.408 179.588C118.633 179.817 118.804 180.115 118.921 180.481C119.038 180.843 119.097 181.285 119.097 181.807V187H117.734V181.792C117.734 181.377 117.673 181.045 117.551 180.796C117.429 180.542 117.251 180.359 117.017 180.247C116.782 180.13 116.494 180.071 116.152 180.071C115.815 180.071 115.508 180.142 115.229 180.284C114.956 180.425 114.719 180.621 114.519 180.87C114.324 181.119 114.17 181.404 114.058 181.727C113.95 182.044 113.896 182.381 113.896 182.737ZM126.289 179.075H127.52V186.832C127.52 187.53 127.378 188.125 127.095 188.619C126.812 189.112 126.416 189.485 125.908 189.739C125.405 189.998 124.824 190.127 124.165 190.127C123.892 190.127 123.569 190.083 123.198 189.996C122.832 189.913 122.471 189.769 122.114 189.563C121.763 189.363 121.467 189.092 121.228 188.75L121.938 187.945C122.271 188.345 122.617 188.624 122.979 188.78C123.345 188.936 123.706 189.014 124.062 189.014C124.492 189.014 124.863 188.934 125.176 188.772C125.488 188.611 125.73 188.372 125.901 188.055C126.077 187.742 126.165 187.356 126.165 186.897V180.818L126.289 179.075ZM120.833 183.125V182.972C120.833 182.366 120.903 181.817 121.045 181.324C121.191 180.826 121.399 180.398 121.667 180.042C121.941 179.686 122.271 179.412 122.656 179.222C123.042 179.026 123.477 178.929 123.96 178.929C124.458 178.929 124.893 179.017 125.264 179.192C125.64 179.363 125.957 179.615 126.216 179.947C126.479 180.274 126.687 180.669 126.838 181.133C126.99 181.597 127.095 182.122 127.153 182.708V183.382C127.1 183.963 126.995 184.485 126.838 184.949C126.687 185.413 126.479 185.809 126.216 186.136C125.957 186.463 125.64 186.714 125.264 186.89C124.888 187.061 124.448 187.146 123.945 187.146C123.472 187.146 123.042 187.046 122.656 186.846C122.275 186.646 121.948 186.365 121.675 186.004C121.401 185.643 121.191 185.218 121.045 184.729C120.903 184.236 120.833 183.702 120.833 183.125ZM122.188 182.972V183.125C122.188 183.521 122.227 183.892 122.305 184.239C122.388 184.585 122.512 184.891 122.678 185.154C122.849 185.418 123.066 185.625 123.33 185.777C123.594 185.923 123.909 185.997 124.275 185.997C124.724 185.997 125.095 185.901 125.388 185.711C125.681 185.521 125.913 185.269 126.084 184.957C126.26 184.644 126.396 184.305 126.494 183.938V182.173C126.44 181.905 126.357 181.646 126.245 181.397C126.138 181.143 125.996 180.918 125.82 180.723C125.649 180.523 125.437 180.364 125.183 180.247C124.929 180.13 124.631 180.071 124.29 180.071C123.918 180.071 123.599 180.149 123.33 180.306C123.066 180.457 122.849 180.667 122.678 180.936C122.512 181.199 122.388 181.507 122.305 181.858C122.227 182.205 122.188 182.576 122.188 182.972ZM129.6 186.282C129.6 186.053 129.67 185.86 129.812 185.704C129.958 185.542 130.168 185.462 130.442 185.462C130.715 185.462 130.923 185.542 131.064 185.704C131.211 185.86 131.284 186.053 131.284 186.282C131.284 186.507 131.211 186.697 131.064 186.854C130.923 187.01 130.715 187.088 130.442 187.088C130.168 187.088 129.958 187.01 129.812 186.854C129.67 186.697 129.6 186.507 129.6 186.282Z" fill="white"/>
<rect x="31" y="204" width="98" height="24" rx="12" fill="white" fill-opacity="0.1"/>
<path d="M43.816 221.168C43.0507 221.168 42.3553 220.986 41.73 220.622C41.1047 220.258 40.6053 219.726 40.232 219.026C39.868 218.317 39.686 217.458 39.686 216.45C39.686 215.451 39.8727 214.597 40.246 213.888C40.6287 213.169 41.1373 212.623 41.772 212.25C42.4067 211.867 43.1067 211.676 43.872 211.676C44.4507 211.676 44.964 211.793 45.412 212.026C45.86 212.259 46.2287 212.53 46.518 212.838L45.65 213.888C45.4167 213.645 45.1553 213.454 44.866 213.314C44.586 213.165 44.2687 213.09 43.914 213.09C43.4193 213.09 42.976 213.225 42.584 213.496C42.2013 213.757 41.898 214.135 41.674 214.63C41.4593 215.125 41.352 215.717 41.352 216.408C41.352 217.453 41.5807 218.275 42.038 218.872C42.4953 219.46 43.1067 219.754 43.872 219.754C44.2827 219.754 44.6467 219.67 44.964 219.502C45.2813 219.325 45.5707 219.096 45.832 218.816L46.7 219.838C46.3267 220.267 45.8973 220.599 45.412 220.832C44.936 221.056 44.404 221.168 43.816 221.168ZM50.9024 221.168C50.3331 221.168 49.8011 221.028 49.3064 220.748C48.8117 220.459 48.4104 220.048 48.1024 219.516C47.7944 218.975 47.6404 218.326 47.6404 217.57C47.6404 216.805 47.7944 216.156 48.1024 215.624C48.4104 215.083 48.8117 214.672 49.3064 214.392C49.8011 214.103 50.3331 213.958 50.9024 213.958C51.4811 213.958 52.0177 214.103 52.5124 214.392C53.0071 214.672 53.4084 215.083 53.7164 215.624C54.0244 216.156 54.1784 216.805 54.1784 217.57C54.1784 218.326 54.0244 218.975 53.7164 219.516C53.4084 220.048 53.0071 220.459 52.5124 220.748C52.0177 221.028 51.4811 221.168 50.9024 221.168ZM50.9024 219.852C51.4064 219.852 51.8031 219.642 52.0924 219.222C52.3817 218.802 52.5264 218.251 52.5264 217.57C52.5264 216.879 52.3817 216.324 52.0924 215.904C51.8031 215.484 51.4064 215.274 50.9024 215.274C50.3984 215.274 50.0017 215.484 49.7124 215.904C49.4324 216.324 49.2924 216.879 49.2924 217.57C49.2924 218.251 49.4324 218.802 49.7124 219.222C50.0017 219.642 50.3984 219.852 50.9024 219.852ZM55.772 221V214.126H57.102L57.214 215.064H57.27C57.5593 214.756 57.872 214.495 58.208 214.28C58.5533 214.065 58.9407 213.958 59.37 213.958C59.874 213.958 60.2753 214.07 60.574 214.294C60.882 214.509 61.1153 214.807 61.274 215.19C61.6007 214.835 61.9413 214.541 62.296 214.308C62.66 214.075 63.0567 213.958 63.486 213.958C64.214 213.958 64.7507 214.196 65.096 214.672C65.4413 215.148 65.614 215.82 65.614 216.688V221H63.99V216.898C63.99 216.329 63.9013 215.927 63.724 215.694C63.556 215.461 63.2947 215.344 62.94 215.344C62.5107 215.344 62.03 215.629 61.498 216.198V221H59.888V216.898C59.888 216.329 59.7993 215.927 59.622 215.694C59.454 215.461 59.188 215.344 58.824 215.344C58.3947 215.344 57.914 215.629 57.382 216.198V221H55.772ZM67.5708 221V214.126H69.1808V221H67.5708ZM68.3828 212.922C68.0935 212.922 67.8602 212.838 67.6828 212.67C67.5055 212.502 67.4168 212.278 67.4168 211.998C67.4168 211.727 67.5055 211.508 67.6828 211.34C67.8602 211.172 68.0935 211.088 68.3828 211.088C68.6722 211.088 68.9055 211.172 69.0828 211.34C69.2602 211.508 69.3488 211.727 69.3488 211.998C69.3488 212.278 69.2602 212.502 69.0828 212.67C68.9055 212.838 68.6722 212.922 68.3828 212.922ZM71.2349 221V214.126H72.5649L72.6769 215.05H72.7329C73.0409 214.751 73.3769 214.495 73.7409 214.28C74.1049 214.065 74.5202 213.958 74.9869 213.958C75.7242 213.958 76.2609 214.196 76.5969 214.672C76.9329 215.148 77.1009 215.82 77.1009 216.688V221H75.4909V216.898C75.4909 216.329 75.4069 215.927 75.2389 215.694C75.0709 215.461 74.7956 215.344 74.4129 215.344C74.1142 215.344 73.8482 215.419 73.6149 215.568C73.3909 215.708 73.1342 215.918 72.8449 216.198V221H71.2349ZM81.4629 224.038C80.9215 224.038 80.4315 223.973 79.9929 223.842C79.5635 223.711 79.2229 223.511 78.9709 223.24C78.7282 222.979 78.6069 222.647 78.6069 222.246C78.6069 221.677 78.9335 221.187 79.5869 220.776V220.72C79.4095 220.608 79.2602 220.459 79.1389 220.272C79.0269 220.085 78.9709 219.852 78.9709 219.572C78.9709 219.301 79.0455 219.059 79.1949 218.844C79.3535 218.62 79.5309 218.438 79.7269 218.298V218.242C79.4935 218.065 79.2835 217.817 79.0969 217.5C78.9195 217.183 78.8309 216.823 78.8309 216.422C78.8309 215.89 78.9569 215.442 79.2089 215.078C79.4609 214.714 79.7922 214.439 80.2029 214.252C80.6229 214.056 81.0709 213.958 81.5469 213.958C81.7335 213.958 81.9109 213.977 82.0789 214.014C82.2562 214.042 82.4149 214.079 82.5549 214.126H85.0189V215.316H83.7589C83.8709 215.447 83.9642 215.615 84.0389 215.82C84.1135 216.016 84.1509 216.235 84.1509 216.478C84.1509 216.982 84.0342 217.411 83.8009 217.766C83.5675 218.111 83.2549 218.373 82.8629 218.55C82.4709 218.727 82.0322 218.816 81.5469 218.816C81.3975 218.816 81.2435 218.802 81.0849 218.774C80.9262 218.746 80.7675 218.699 80.6089 218.634C80.5062 218.727 80.4222 218.821 80.3569 218.914C80.3009 219.007 80.2729 219.133 80.2729 219.292C80.2729 219.488 80.3522 219.642 80.5109 219.754C80.6789 219.866 80.9729 219.922 81.3929 219.922H82.6109C83.4415 219.922 84.0669 220.057 84.4869 220.328C84.9162 220.589 85.1309 221.019 85.1309 221.616C85.1309 222.064 84.9815 222.47 84.6829 222.834C84.3842 223.207 83.9595 223.501 83.4089 223.716C82.8582 223.931 82.2095 224.038 81.4629 224.038ZM81.5469 217.808C81.8735 217.808 82.1535 217.687 82.3869 217.444C82.6202 217.201 82.7369 216.861 82.7369 216.422C82.7369 215.993 82.6202 215.661 82.3869 215.428C82.1629 215.185 81.8829 215.064 81.5469 215.064C81.2109 215.064 80.9262 215.181 80.6929 215.414C80.4595 215.647 80.3429 215.983 80.3429 216.422C80.3429 216.861 80.4595 217.201 80.6929 217.444C80.9262 217.687 81.2109 217.808 81.5469 217.808ZM81.7149 222.988C82.2655 222.988 82.7135 222.876 83.0589 222.652C83.4042 222.428 83.5769 222.171 83.5769 221.882C83.5769 221.611 83.4695 221.429 83.2549 221.336C83.0495 221.243 82.7509 221.196 82.3589 221.196H81.4209C81.0475 221.196 80.7349 221.163 80.4829 221.098C80.1282 221.369 79.9509 221.672 79.9509 222.008C79.9509 222.316 80.1095 222.554 80.4269 222.722C80.7442 222.899 81.1735 222.988 81.7149 222.988ZM93.8658 221.168C93.3991 221.168 92.9324 221.079 92.4658 220.902C91.9991 220.715 91.5978 220.487 91.2618 220.216L92.0178 219.18C92.3258 219.413 92.6338 219.6 92.9418 219.74C93.2498 219.88 93.5764 219.95 93.9218 219.95C94.2951 219.95 94.5704 219.871 94.7478 219.712C94.9251 219.553 95.0138 219.357 95.0138 219.124C95.0138 218.928 94.9391 218.769 94.7898 218.648C94.6498 218.517 94.4678 218.405 94.2438 218.312C94.0198 218.209 93.7864 218.111 93.5438 218.018C93.2451 217.906 92.9464 217.771 92.6478 217.612C92.3584 217.444 92.1204 217.234 91.9338 216.982C91.7471 216.721 91.6538 216.399 91.6538 216.016C91.6538 215.409 91.8778 214.915 92.3258 214.532C92.7738 214.149 93.3804 213.958 94.1458 213.958C94.6311 213.958 95.0651 214.042 95.4478 214.21C95.8304 214.378 96.1618 214.569 96.4418 214.784L95.6998 215.764C95.4571 215.587 95.2098 215.447 94.9578 215.344C94.7151 215.232 94.4584 215.176 94.1878 215.176C93.8424 215.176 93.5858 215.251 93.4178 215.4C93.2498 215.54 93.1658 215.717 93.1658 215.932C93.1658 216.203 93.3058 216.408 93.5858 216.548C93.8658 216.688 94.1924 216.823 94.5658 216.954C94.8831 217.066 95.1911 217.206 95.4898 217.374C95.7884 217.533 96.0358 217.743 96.2318 218.004C96.4371 218.265 96.5398 218.611 96.5398 219.04C96.5398 219.628 96.3111 220.132 95.8538 220.552C95.3964 220.963 94.7338 221.168 93.8658 221.168ZM100.791 221.168C100.222 221.168 99.6897 221.028 99.1951 220.748C98.7004 220.459 98.2991 220.048 97.9911 219.516C97.6831 218.975 97.5291 218.326 97.5291 217.57C97.5291 216.805 97.6831 216.156 97.9911 215.624C98.2991 215.083 98.7004 214.672 99.1951 214.392C99.6897 214.103 100.222 213.958 100.791 213.958C101.37 213.958 101.906 214.103 102.401 214.392C102.896 214.672 103.297 215.083 103.605 215.624C103.913 216.156 104.067 216.805 104.067 217.57C104.067 218.326 103.913 218.975 103.605 219.516C103.297 220.048 102.896 220.459 102.401 220.748C101.906 221.028 101.37 221.168 100.791 221.168ZM100.791 219.852C101.295 219.852 101.692 219.642 101.981 219.222C102.27 218.802 102.415 218.251 102.415 217.57C102.415 216.879 102.27 216.324 101.981 215.904C101.692 215.484 101.295 215.274 100.791 215.274C100.287 215.274 99.8904 215.484 99.6011 215.904C99.3211 216.324 99.1811 216.879 99.1811 217.57C99.1811 218.251 99.3211 218.802 99.6011 219.222C99.8904 219.642 100.287 219.852 100.791 219.852ZM108.475 221.168C107.905 221.168 107.373 221.028 106.879 220.748C106.384 220.459 105.983 220.048 105.675 219.516C105.367 218.975 105.213 218.326 105.213 217.57C105.213 216.805 105.367 216.156 105.675 215.624C105.983 215.083 106.384 214.672 106.879 214.392C107.373 214.103 107.905 213.958 108.475 213.958C109.053 213.958 109.59 214.103 110.085 214.392C110.579 214.672 110.981 215.083 111.289 215.624C111.597 216.156 111.751 216.805 111.751 217.57C111.751 218.326 111.597 218.975 111.289 219.516C110.981 220.048 110.579 220.459 110.085 220.748C109.59 221.028 109.053 221.168 108.475 221.168ZM108.475 219.852C108.979 219.852 109.375 219.642 109.665 219.222C109.954 218.802 110.099 218.251 110.099 217.57C110.099 216.879 109.954 216.324 109.665 215.904C109.375 215.484 108.979 215.274 108.475 215.274C107.971 215.274 107.574 215.484 107.285 215.904C107.005 216.324 106.865 216.879 106.865 217.57C106.865 218.251 107.005 218.802 107.285 219.222C107.574 219.642 107.971 219.852 108.475 219.852ZM113.344 221V214.126H114.674L114.786 215.05H114.842C115.15 214.751 115.486 214.495 115.85 214.28C116.214 214.065 116.63 213.958 117.096 213.958C117.834 213.958 118.37 214.196 118.706 214.672C119.042 215.148 119.21 215.82 119.21 216.688V221H117.6V216.898C117.6 216.329 117.516 215.927 117.348 215.694C117.18 215.461 116.905 215.344 116.522 215.344C116.224 215.344 115.958 215.419 115.724 215.568C115.5 215.708 115.244 215.918 114.954 216.198V221H113.344Z" fill="#76787A"/>
<path opacity="0.12" d="M79 0.57735C79.6188 0.220084 80.3812 0.220085 81 0.57735L120.569 23.4226C121.188 23.7799 121.569 24.4402 121.569 25.1547V70.8453C121.569 71.5598 121.188 72.2201 120.569 72.5774L81 95.4226C80.3812 95.7799 79.6188 95.7799 79 95.4226L39.4308 72.5774C38.812 72.2201 38.4308 71.5598 38.4308 70.8453V25.1547C38.4308 24.4402 38.812 23.7799 39.4308 23.4226L79 0.57735Z" fill="white"/>
<path d="M62.1231 30.168C62.3187 30.363 62.6349 30.3622 62.8338 30.1707C67.2849 25.8839 73.3338 23.25 80 23.25C86.8349 23.25 93.0206 26.0189 97.5009 30.4991C101.981 34.9793 104.75 41.1651 104.75 48H102.207C101.762 48 101.539 48.5386 101.854 48.8536L105.293 52.2929C105.683 52.6834 106.317 52.6834 106.707 52.2929L110.146 48.8536C110.461 48.5386 110.238 48 109.793 48H107.25C107.25 40.4755 104.199 33.6612 99.2686 28.7313C94.3387 23.8014 87.5245 20.75 80 20.75C72.643 20.75 65.9651 23.667 61.0635 28.4048C60.8649 28.5967 60.8657 28.9136 61.0612 29.1086L62.1231 30.168Z" fill="#E663FB"/>
<path d="M62.4991 65.5009C58.0189 61.0206 55.25 54.8349 55.25 48H57.7929C58.2383 48 58.4614 47.4614 58.1464 47.1464L54.7071 43.7071C54.3166 43.3166 53.6834 43.3166 53.2929 43.7071L49.8535 47.1464C49.5386 47.4614 49.7617 48 50.2071 48H52.75C52.75 55.5245 55.8014 62.3387 60.7313 67.2686C65.6612 72.1986 72.4755 75.25 80 75.25C87.3323 75.25 93.9902 72.3525 98.8873 67.6427C99.0863 67.4513 99.0864 67.1343 98.8913 66.9388L97.832 65.8768C97.637 65.6813 97.3208 65.6813 97.1214 65.8724C92.6745 70.1337 86.6439 72.75 80 72.75C73.1651 72.75 66.9793 69.9811 62.4991 65.5009Z" fill="#E663FB"/>
<path d="M93.768 41.4749C93.9633 41.2796 93.9633 40.963 93.768 40.7678L90.2325 37.2322C90.0372 37.037 89.7206 37.037 89.5253 37.2322L76.0002 50.7573L70.4751 45.2322C70.2798 45.037 69.9633 45.037 69.768 45.2322L66.2325 48.7678C66.0372 48.963 66.0372 49.2796 66.2325 49.4749L75.6467 58.8891C75.8419 59.0843 76.1585 59.0843 76.3538 58.8891L93.768 41.4749Z" fill="#E663FB"/>
</svg>
