<svg width="160" height="212" viewBox="0 0 160 212" fill="none" xmlns="http://www.w3.org/2000/svg">
<path opacity="0.08" d="M79 16.5774C79.6188 16.2201 80.3812 16.2201 81 16.5774L120.569 39.4226C121.188 39.7799 121.569 40.4402 121.569 41.1547V86.8453C121.569 87.5598 121.188 88.2201 120.569 88.5774L81 111.423C80.3812 111.78 79.6188 111.78 79 111.423L39.4308 88.5774C38.812 88.2201 38.4308 87.5598 38.4308 86.8453V41.1547C38.4308 40.4402 38.812 39.7799 39.4308 39.4226L79 16.5774Z" fill="#EAEAFF"/>
<path fill-rule="evenodd" clip-rule="evenodd" d="M87.8255 60.6586C87.2938 59.7054 87.0147 58.6322 87.0147 57.5408V42.8171C87.0147 42.5962 87.1938 42.4171 87.4147 42.4171H87.5378C88.2684 42.4171 88.8608 41.8272 88.8608 41.0995C88.8608 40.3717 88.2684 39.7818 87.5378 39.7818H73.2616C72.5309 39.7818 71.9386 40.3717 71.9386 41.0995C71.9386 41.8272 72.5309 42.4171 73.2616 42.4171H73.3846C73.6055 42.4171 73.7846 42.5962 73.7846 42.8171V57.5408C73.7846 58.6322 73.5055 59.7054 72.9738 60.6586L62.9048 78.7092C61.4351 81.3439 63.3481 84.5818 66.3744 84.5818H94.4249C97.4512 84.5818 99.3642 81.3439 97.8945 78.7092L87.8255 60.6586ZM76.4306 42.8171C76.4306 42.5962 76.6097 42.4171 76.8306 42.4171H83.9687C84.1896 42.4171 84.3687 42.5962 84.3687 42.8171V57.4289C84.3687 57.8707 84.0105 58.2289 83.5687 58.2289H77.2306C76.7888 58.2289 76.4306 57.8707 76.4306 57.4289V42.8171Z" fill="url(#paint0_linear_3944_24389)"/>
<path d="M34.8828 141.057V143H27.334V141.057H34.8828ZM28.0273 128.781V143H25.5762V128.781H28.0273ZM33.8965 134.719V136.633H27.334V134.719H33.8965ZM34.834 128.781V130.734H27.334V128.781H34.834ZM38.4473 132.434L40.459 135.939L42.5098 132.434H45.0977L41.8945 137.619L45.2246 143H42.6367L40.4883 139.348L38.3398 143H35.7422L39.0625 137.619L35.8691 132.434H38.4473ZM49.0723 134.465V147.062H46.7188V132.434H48.8867L49.0723 134.465ZM55.957 137.619V137.824C55.957 138.592 55.8659 139.305 55.6836 139.963C55.5078 140.614 55.2441 141.184 54.8926 141.672C54.5475 142.154 54.1211 142.528 53.6133 142.795C53.1055 143.062 52.5195 143.195 51.8555 143.195C51.1979 143.195 50.6217 143.075 50.127 142.834C49.6387 142.587 49.2253 142.238 48.8867 141.789C48.5482 141.34 48.2747 140.812 48.0664 140.207C47.8646 139.595 47.7214 138.924 47.6367 138.195V137.404C47.7214 136.63 47.8646 135.926 48.0664 135.295C48.2747 134.663 48.5482 134.12 48.8867 133.664C49.2253 133.208 49.6387 132.857 50.127 132.609C50.6152 132.362 51.1849 132.238 51.8359 132.238C52.5 132.238 53.0892 132.368 53.6035 132.629C54.1178 132.883 54.5508 133.247 54.9023 133.723C55.2539 134.191 55.5176 134.758 55.6934 135.422C55.8691 136.079 55.957 136.812 55.957 137.619ZM53.6035 137.824V137.619C53.6035 137.131 53.5579 136.678 53.4668 136.262C53.3757 135.839 53.2324 135.467 53.0371 135.148C52.8418 134.829 52.5911 134.582 52.2852 134.406C51.9857 134.224 51.6243 134.133 51.2012 134.133C50.7845 134.133 50.4264 134.204 50.127 134.348C49.8275 134.484 49.5768 134.676 49.375 134.924C49.1732 135.171 49.0169 135.461 48.9062 135.793C48.7956 136.118 48.7174 136.473 48.6719 136.857V138.752C48.75 139.221 48.8835 139.65 49.0723 140.041C49.2611 140.432 49.528 140.744 49.873 140.979C50.2246 141.206 50.6738 141.32 51.2207 141.32C51.6439 141.32 52.0052 141.229 52.3047 141.047C52.6042 140.865 52.8483 140.614 53.0371 140.295C53.2324 139.969 53.3757 139.595 53.4668 139.172C53.5579 138.749 53.6035 138.299 53.6035 137.824ZM62.6172 143.195C61.8359 143.195 61.1296 143.068 60.498 142.814C59.873 142.554 59.3392 142.193 58.8965 141.73C58.4603 141.268 58.125 140.725 57.8906 140.1C57.6562 139.475 57.5391 138.801 57.5391 138.078V137.688C57.5391 136.861 57.6595 136.112 57.9004 135.441C58.1413 134.771 58.4766 134.198 58.9062 133.723C59.3359 133.241 59.8438 132.873 60.4297 132.619C61.0156 132.365 61.6504 132.238 62.334 132.238C63.0892 132.238 63.75 132.365 64.3164 132.619C64.8828 132.873 65.3516 133.231 65.7227 133.693C66.1003 134.149 66.3802 134.693 66.5625 135.324C66.7513 135.956 66.8457 136.652 66.8457 137.414V138.42H58.6816V136.73H64.5215V136.545C64.5085 136.122 64.4238 135.725 64.2676 135.354C64.1178 134.982 63.8867 134.683 63.5742 134.455C63.2617 134.227 62.8451 134.113 62.3242 134.113C61.9336 134.113 61.5853 134.198 61.2793 134.367C60.9798 134.53 60.7292 134.768 60.5273 135.08C60.3255 135.393 60.1693 135.77 60.0586 136.213C59.9544 136.649 59.9023 137.141 59.9023 137.688V138.078C59.9023 138.54 59.9642 138.97 60.0879 139.367C60.2181 139.758 60.4069 140.1 60.6543 140.393C60.9017 140.686 61.2012 140.917 61.5527 141.086C61.9043 141.249 62.3047 141.33 62.7539 141.33C63.3203 141.33 63.8249 141.216 64.2676 140.988C64.7103 140.76 65.0944 140.438 65.4199 140.021L66.6602 141.223C66.4323 141.555 66.1361 141.874 65.7715 142.18C65.4069 142.479 64.9609 142.723 64.4336 142.912C63.9128 143.101 63.3073 143.195 62.6172 143.195ZM71.0449 134.445V143H68.6914V132.434H70.9375L71.0449 134.445ZM74.2773 132.365L74.2578 134.553C74.1146 134.527 73.9583 134.507 73.7891 134.494C73.6263 134.481 73.4635 134.475 73.3008 134.475C72.8971 134.475 72.5423 134.533 72.2363 134.65C71.9303 134.761 71.6732 134.924 71.4648 135.139C71.263 135.347 71.1068 135.601 70.9961 135.9C70.8854 136.2 70.8203 136.535 70.8008 136.906L70.2637 136.945C70.2637 136.281 70.3288 135.666 70.459 135.1C70.5892 134.533 70.7845 134.035 71.0449 133.605C71.3118 133.176 71.6439 132.84 72.041 132.6C72.4447 132.359 72.9102 132.238 73.4375 132.238C73.5807 132.238 73.7337 132.251 73.8965 132.277C74.0658 132.303 74.1927 132.333 74.2773 132.365ZM78.2715 132.434V143H75.9082V132.434H78.2715ZM75.752 129.66C75.752 129.302 75.8691 129.006 76.1035 128.771C76.3444 128.531 76.6764 128.41 77.0996 128.41C77.5163 128.41 77.8451 128.531 78.0859 128.771C78.3268 129.006 78.4473 129.302 78.4473 129.66C78.4473 130.012 78.3268 130.305 78.0859 130.539C77.8451 130.773 77.5163 130.891 77.0996 130.891C76.6764 130.891 76.3444 130.773 76.1035 130.539C75.8691 130.305 75.752 130.012 75.752 129.66ZM83.2031 134.582V143H80.8496V132.434H83.0664L83.2031 134.582ZM82.8223 137.326L82.0215 137.316C82.0215 136.587 82.1126 135.913 82.2949 135.295C82.4772 134.676 82.7441 134.139 83.0957 133.684C83.4473 133.221 83.8835 132.867 84.4043 132.619C84.9316 132.365 85.5404 132.238 86.2305 132.238C86.7122 132.238 87.1517 132.31 87.5488 132.453C87.9525 132.59 88.3008 132.808 88.5938 133.107C88.8932 133.407 89.1211 133.791 89.2773 134.26C89.4401 134.729 89.5215 135.295 89.5215 135.959V143H87.168V136.164C87.168 135.65 87.0898 135.246 86.9336 134.953C86.7839 134.66 86.5658 134.452 86.2793 134.328C85.9993 134.198 85.6641 134.133 85.2734 134.133C84.8307 134.133 84.4531 134.217 84.1406 134.387C83.8346 134.556 83.584 134.787 83.3887 135.08C83.1934 135.373 83.0501 135.712 82.959 136.096C82.8678 136.48 82.8223 136.89 82.8223 137.326ZM89.375 136.701L88.2715 136.945C88.2715 136.307 88.3594 135.705 88.5352 135.139C88.7174 134.566 88.9811 134.064 89.3262 133.635C89.6777 133.199 90.1107 132.857 90.625 132.609C91.1393 132.362 91.7285 132.238 92.3926 132.238C92.9329 132.238 93.4147 132.313 93.8379 132.463C94.2676 132.606 94.6322 132.834 94.9316 133.146C95.2311 133.459 95.459 133.866 95.6152 134.367C95.7715 134.862 95.8496 135.461 95.8496 136.164V143H93.4863V136.154C93.4863 135.62 93.4082 135.207 93.252 134.914C93.1022 134.621 92.8874 134.419 92.6074 134.309C92.3275 134.191 91.9922 134.133 91.6016 134.133C91.237 134.133 90.9147 134.201 90.6348 134.338C90.3613 134.468 90.1302 134.654 89.9414 134.895C89.7526 135.129 89.6094 135.399 89.5117 135.705C89.4206 136.011 89.375 136.343 89.375 136.701ZM102.93 143.195C102.148 143.195 101.442 143.068 100.811 142.814C100.186 142.554 99.6517 142.193 99.209 141.73C98.7728 141.268 98.4375 140.725 98.2031 140.1C97.9688 139.475 97.8516 138.801 97.8516 138.078V137.688C97.8516 136.861 97.972 136.112 98.2129 135.441C98.4538 134.771 98.7891 134.198 99.2188 133.723C99.6484 133.241 100.156 132.873 100.742 132.619C101.328 132.365 101.963 132.238 102.646 132.238C103.402 132.238 104.062 132.365 104.629 132.619C105.195 132.873 105.664 133.231 106.035 133.693C106.413 134.149 106.693 134.693 106.875 135.324C107.064 135.956 107.158 136.652 107.158 137.414V138.42H98.9941V136.73H104.834V136.545C104.821 136.122 104.736 135.725 104.58 135.354C104.43 134.982 104.199 134.683 103.887 134.455C103.574 134.227 103.158 134.113 102.637 134.113C102.246 134.113 101.898 134.198 101.592 134.367C101.292 134.53 101.042 134.768 100.84 135.08C100.638 135.393 100.482 135.77 100.371 136.213C100.267 136.649 100.215 137.141 100.215 137.688V138.078C100.215 138.54 100.277 138.97 100.4 139.367C100.531 139.758 100.719 140.1 100.967 140.393C101.214 140.686 101.514 140.917 101.865 141.086C102.217 141.249 102.617 141.33 103.066 141.33C103.633 141.33 104.137 141.216 104.58 140.988C105.023 140.76 105.407 140.438 105.732 140.021L106.973 141.223C106.745 141.555 106.449 141.874 106.084 142.18C105.719 142.479 105.273 142.723 104.746 142.912C104.225 143.101 103.62 143.195 102.93 143.195ZM111.328 134.689V143H108.975V132.434H111.191L111.328 134.689ZM110.908 137.326L110.146 137.316C110.153 136.568 110.257 135.881 110.459 135.256C110.667 134.631 110.954 134.094 111.318 133.645C111.689 133.195 112.132 132.85 112.646 132.609C113.161 132.362 113.734 132.238 114.365 132.238C114.873 132.238 115.332 132.31 115.742 132.453C116.159 132.59 116.514 132.814 116.807 133.127C117.106 133.439 117.334 133.846 117.49 134.348C117.646 134.842 117.725 135.451 117.725 136.174V143H115.361V136.164C115.361 135.656 115.286 135.256 115.137 134.963C114.993 134.663 114.782 134.452 114.502 134.328C114.229 134.198 113.887 134.133 113.477 134.133C113.073 134.133 112.712 134.217 112.393 134.387C112.074 134.556 111.803 134.787 111.582 135.08C111.367 135.373 111.201 135.712 111.084 136.096C110.967 136.48 110.908 136.89 110.908 137.326ZM124.971 132.434V134.152H119.014V132.434H124.971ZM120.732 129.846H123.086V140.08C123.086 140.406 123.132 140.656 123.223 140.832C123.32 141.001 123.454 141.115 123.623 141.174C123.792 141.232 123.991 141.262 124.219 141.262C124.382 141.262 124.538 141.252 124.688 141.232C124.837 141.213 124.958 141.193 125.049 141.174L125.059 142.971C124.863 143.029 124.635 143.081 124.375 143.127C124.121 143.173 123.828 143.195 123.496 143.195C122.956 143.195 122.477 143.101 122.061 142.912C121.644 142.717 121.318 142.401 121.084 141.965C120.85 141.529 120.732 140.949 120.732 140.227V129.846ZM132.715 140.139C132.715 139.904 132.656 139.693 132.539 139.504C132.422 139.309 132.197 139.133 131.865 138.977C131.54 138.82 131.058 138.677 130.42 138.547C129.86 138.423 129.346 138.277 128.877 138.107C128.415 137.932 128.018 137.72 127.686 137.473C127.354 137.225 127.096 136.932 126.914 136.594C126.732 136.255 126.641 135.865 126.641 135.422C126.641 134.992 126.735 134.585 126.924 134.201C127.113 133.817 127.383 133.479 127.734 133.186C128.086 132.893 128.512 132.661 129.014 132.492C129.521 132.323 130.088 132.238 130.713 132.238C131.598 132.238 132.357 132.388 132.988 132.688C133.626 132.98 134.115 133.381 134.453 133.889C134.792 134.39 134.961 134.956 134.961 135.588H132.607C132.607 135.308 132.536 135.048 132.393 134.807C132.256 134.559 132.048 134.361 131.768 134.211C131.488 134.055 131.136 133.977 130.713 133.977C130.309 133.977 129.974 134.042 129.707 134.172C129.447 134.296 129.251 134.458 129.121 134.66C128.997 134.862 128.936 135.083 128.936 135.324C128.936 135.5 128.968 135.66 129.033 135.803C129.105 135.939 129.222 136.066 129.385 136.184C129.548 136.294 129.769 136.398 130.049 136.496C130.335 136.594 130.693 136.688 131.123 136.779C131.93 136.949 132.624 137.167 133.203 137.434C133.789 137.694 134.238 138.033 134.551 138.449C134.863 138.859 135.02 139.38 135.02 140.012C135.02 140.48 134.919 140.91 134.717 141.301C134.521 141.685 134.235 142.02 133.857 142.307C133.48 142.587 133.027 142.805 132.5 142.961C131.979 143.117 131.393 143.195 130.742 143.195C129.785 143.195 128.975 143.026 128.311 142.688C127.646 142.342 127.142 141.903 126.797 141.369C126.458 140.829 126.289 140.269 126.289 139.689H128.564C128.59 140.126 128.711 140.474 128.926 140.734C129.147 140.988 129.421 141.174 129.746 141.291C130.078 141.402 130.42 141.457 130.771 141.457C131.195 141.457 131.549 141.402 131.836 141.291C132.122 141.174 132.34 141.018 132.49 140.822C132.64 140.62 132.715 140.393 132.715 140.139Z" fill="white"/>
<path d="M50.5645 167.927V169H45.2939V167.927H50.5645ZM45.5605 159.047V169H44.2412V159.047H45.5605ZM49.8672 163.326V164.399H45.2939V163.326H49.8672ZM50.4961 159.047V160.127H45.2939V159.047H50.4961ZM52.8613 161.604L54.4814 164.297L56.1221 161.604H57.6055L55.1855 165.254L57.6807 169H56.2178L54.5088 166.225L52.7998 169H51.3301L53.8184 165.254L51.4053 161.604H52.8613ZM60.2168 163.025V171.844H58.9453V161.604H60.1074L60.2168 163.025ZM65.2002 165.24V165.384C65.2002 165.922 65.1364 166.421 65.0088 166.881C64.8812 167.337 64.6943 167.733 64.4482 168.07C64.2067 168.408 63.9082 168.67 63.5527 168.856C63.1973 169.043 62.7894 169.137 62.3291 169.137C61.8597 169.137 61.445 169.059 61.085 168.904C60.7249 168.749 60.4196 168.524 60.1689 168.228C59.9183 167.931 59.7178 167.576 59.5674 167.161C59.4215 166.746 59.3213 166.279 59.2666 165.76V164.994C59.3213 164.447 59.4238 163.957 59.5742 163.524C59.7246 163.091 59.9229 162.722 60.1689 162.417C60.4196 162.107 60.7227 161.872 61.0781 161.713C61.4336 161.549 61.8438 161.467 62.3086 161.467C62.7734 161.467 63.1859 161.558 63.5459 161.74C63.9059 161.918 64.209 162.173 64.4551 162.506C64.7012 162.839 64.8857 163.237 65.0088 163.702C65.1364 164.162 65.2002 164.675 65.2002 165.24ZM63.9287 165.384V165.24C63.9287 164.871 63.89 164.525 63.8125 164.201C63.735 163.873 63.6143 163.586 63.4502 163.34C63.2907 163.089 63.0856 162.893 62.835 162.752C62.5843 162.606 62.2858 162.533 61.9395 162.533C61.6204 162.533 61.3424 162.588 61.1055 162.697C60.873 162.807 60.6748 162.955 60.5107 163.142C60.3467 163.324 60.2122 163.534 60.1074 163.771C60.0072 164.003 59.932 164.244 59.8818 164.495V166.266C59.973 166.585 60.1006 166.885 60.2646 167.168C60.4287 167.446 60.6475 167.672 60.9209 167.845C61.1943 168.013 61.5384 168.098 61.9531 168.098C62.2949 168.098 62.5889 168.027 62.835 167.886C63.0856 167.74 63.2907 167.542 63.4502 167.291C63.6143 167.04 63.735 166.753 63.8125 166.43C63.89 166.102 63.9287 165.753 63.9287 165.384ZM69.8828 169.137C69.3678 169.137 68.9007 169.05 68.4814 168.877C68.0667 168.699 67.709 168.451 67.4082 168.132C67.112 167.813 66.8841 167.435 66.7246 166.997C66.5651 166.56 66.4854 166.081 66.4854 165.562V165.274C66.4854 164.673 66.5742 164.137 66.752 163.668C66.9297 163.194 67.1712 162.793 67.4766 162.465C67.7819 162.137 68.1283 161.888 68.5156 161.72C68.903 161.551 69.304 161.467 69.7188 161.467C70.2474 161.467 70.7031 161.558 71.0859 161.74C71.4733 161.923 71.79 162.178 72.0361 162.506C72.2822 162.829 72.4645 163.212 72.583 163.654C72.7015 164.092 72.7607 164.57 72.7607 165.09V165.657H67.2373V164.625H71.4961V164.529C71.4779 164.201 71.4095 163.882 71.291 163.572C71.1771 163.262 70.9948 163.007 70.7441 162.807C70.4935 162.606 70.1517 162.506 69.7188 162.506C69.4316 162.506 69.1673 162.567 68.9258 162.69C68.6842 162.809 68.4769 162.987 68.3037 163.224C68.1305 163.461 67.9961 163.75 67.9004 164.092C67.8047 164.434 67.7568 164.828 67.7568 165.274V165.562C67.7568 165.912 67.8047 166.243 67.9004 166.553C68.0007 166.858 68.1442 167.127 68.3311 167.359C68.5225 167.592 68.7526 167.774 69.0215 167.906C69.2949 168.038 69.6048 168.104 69.9512 168.104C70.3978 168.104 70.776 168.013 71.0859 167.831C71.3958 167.649 71.667 167.405 71.8994 167.1L72.665 167.708C72.5055 167.95 72.3027 168.18 72.0566 168.398C71.8105 168.617 71.5075 168.795 71.1475 168.932C70.792 169.068 70.3704 169.137 69.8828 169.137ZM75.502 162.766V169H74.2373V161.604H75.4678L75.502 162.766ZM77.8125 161.562L77.8057 162.738C77.7008 162.715 77.6006 162.702 77.5049 162.697C77.4137 162.688 77.3089 162.684 77.1904 162.684C76.8988 162.684 76.6413 162.729 76.418 162.82C76.1947 162.911 76.0055 163.039 75.8506 163.203C75.6956 163.367 75.5726 163.563 75.4814 163.791C75.3949 164.014 75.3379 164.26 75.3105 164.529L74.9551 164.734C74.9551 164.288 74.9984 163.868 75.085 163.477C75.1761 163.085 75.3151 162.738 75.502 162.438C75.6888 162.132 75.9258 161.895 76.2129 161.727C76.5046 161.553 76.8509 161.467 77.252 161.467C77.3431 161.467 77.4479 161.478 77.5664 161.501C77.6849 161.519 77.7669 161.54 77.8125 161.562ZM80.3555 161.604V169H79.084V161.604H80.3555ZM78.9883 159.642C78.9883 159.437 79.0498 159.263 79.1729 159.122C79.3005 158.981 79.4873 158.91 79.7334 158.91C79.9749 158.91 80.1595 158.981 80.2871 159.122C80.4193 159.263 80.4854 159.437 80.4854 159.642C80.4854 159.838 80.4193 160.006 80.2871 160.147C80.1595 160.284 79.9749 160.353 79.7334 160.353C79.4873 160.353 79.3005 160.284 79.1729 160.147C79.0498 160.006 78.9883 159.838 78.9883 159.642ZM83.6436 163.073V169H82.3721V161.604H83.5752L83.6436 163.073ZM83.3838 165.021L82.7959 165.001C82.8005 164.495 82.8665 164.028 82.9941 163.6C83.1217 163.167 83.3109 162.791 83.5615 162.472C83.8122 162.153 84.1243 161.907 84.498 161.733C84.8717 161.556 85.3047 161.467 85.7969 161.467C86.1432 161.467 86.4622 161.517 86.7539 161.617C87.0456 161.713 87.2985 161.866 87.5127 162.075C87.7269 162.285 87.8932 162.554 88.0117 162.882C88.1302 163.21 88.1895 163.606 88.1895 164.071V169H86.9248V164.133C86.9248 163.745 86.8587 163.436 86.7266 163.203C86.599 162.971 86.4167 162.802 86.1797 162.697C85.9427 162.588 85.6647 162.533 85.3457 162.533C84.972 162.533 84.6598 162.599 84.4092 162.731C84.1585 162.864 83.958 163.046 83.8076 163.278C83.6572 163.511 83.5479 163.777 83.4795 164.078C83.4157 164.374 83.3838 164.689 83.3838 165.021ZM88.1758 164.324L87.3281 164.584C87.3327 164.178 87.3988 163.789 87.5264 163.415C87.6585 163.041 87.8477 162.709 88.0938 162.417C88.3444 162.125 88.652 161.895 89.0166 161.727C89.3812 161.553 89.7982 161.467 90.2676 161.467C90.6641 161.467 91.015 161.519 91.3203 161.624C91.6302 161.729 91.89 161.891 92.0996 162.109C92.3138 162.324 92.4756 162.599 92.585 162.937C92.6943 163.274 92.749 163.675 92.749 164.14V169H91.4775V164.126C91.4775 163.711 91.4115 163.39 91.2793 163.162C91.1517 162.93 90.9694 162.768 90.7324 162.677C90.5 162.581 90.222 162.533 89.8984 162.533C89.6204 162.533 89.3743 162.581 89.1602 162.677C88.946 162.772 88.766 162.905 88.6201 163.073C88.4743 163.237 88.3626 163.426 88.2852 163.641C88.2122 163.855 88.1758 164.083 88.1758 164.324ZM97.7324 169.137C97.2174 169.137 96.7503 169.05 96.3311 168.877C95.9163 168.699 95.5586 168.451 95.2578 168.132C94.9616 167.813 94.7337 167.435 94.5742 166.997C94.4147 166.56 94.335 166.081 94.335 165.562V165.274C94.335 164.673 94.4238 164.137 94.6016 163.668C94.7793 163.194 95.0208 162.793 95.3262 162.465C95.6315 162.137 95.9779 161.888 96.3652 161.72C96.7526 161.551 97.1536 161.467 97.5684 161.467C98.097 161.467 98.5527 161.558 98.9355 161.74C99.3229 161.923 99.6396 162.178 99.8857 162.506C100.132 162.829 100.314 163.212 100.433 163.654C100.551 164.092 100.61 164.57 100.61 165.09V165.657H95.0869V164.625H99.3457V164.529C99.3275 164.201 99.2591 163.882 99.1406 163.572C99.0267 163.262 98.8444 163.007 98.5938 162.807C98.3431 162.606 98.0013 162.506 97.5684 162.506C97.2812 162.506 97.0169 162.567 96.7754 162.69C96.5339 162.809 96.3265 162.987 96.1533 163.224C95.9801 163.461 95.8457 163.75 95.75 164.092C95.6543 164.434 95.6064 164.828 95.6064 165.274V165.562C95.6064 165.912 95.6543 166.243 95.75 166.553C95.8503 166.858 95.9938 167.127 96.1807 167.359C96.3721 167.592 96.6022 167.774 96.8711 167.906C97.1445 168.038 97.4544 168.104 97.8008 168.104C98.2474 168.104 98.6257 168.013 98.9355 167.831C99.2454 167.649 99.5166 167.405 99.749 167.1L100.515 167.708C100.355 167.95 100.152 168.18 99.9062 168.398C99.6602 168.617 99.3571 168.795 98.9971 168.932C98.6416 169.068 98.2201 169.137 97.7324 169.137ZM103.352 163.183V169H102.087V161.604H103.283L103.352 163.183ZM103.051 165.021L102.524 165.001C102.529 164.495 102.604 164.028 102.75 163.6C102.896 163.167 103.101 162.791 103.365 162.472C103.63 162.153 103.944 161.907 104.309 161.733C104.678 161.556 105.086 161.467 105.532 161.467C105.897 161.467 106.225 161.517 106.517 161.617C106.808 161.713 107.057 161.868 107.262 162.082C107.471 162.296 107.631 162.574 107.74 162.916C107.85 163.253 107.904 163.666 107.904 164.153V169H106.633V164.14C106.633 163.752 106.576 163.442 106.462 163.21C106.348 162.973 106.182 162.802 105.963 162.697C105.744 162.588 105.475 162.533 105.156 162.533C104.842 162.533 104.555 162.599 104.295 162.731C104.04 162.864 103.819 163.046 103.632 163.278C103.45 163.511 103.306 163.777 103.201 164.078C103.101 164.374 103.051 164.689 103.051 165.021ZM112.922 161.604V162.574H108.923V161.604H112.922ZM110.276 159.806H111.541V167.168C111.541 167.419 111.58 167.608 111.657 167.735C111.735 167.863 111.835 167.947 111.958 167.988C112.081 168.029 112.213 168.05 112.354 168.05C112.459 168.05 112.569 168.041 112.683 168.022C112.801 168 112.89 167.981 112.949 167.968L112.956 169C112.856 169.032 112.724 169.062 112.56 169.089C112.4 169.121 112.206 169.137 111.979 169.137C111.669 169.137 111.384 169.075 111.124 168.952C110.864 168.829 110.657 168.624 110.502 168.337C110.352 168.045 110.276 167.653 110.276 167.161V159.806ZM59.0137 181.604V182.574H55.0146V181.604H59.0137ZM56.3682 179.806H57.6328V187.168C57.6328 187.419 57.6715 187.608 57.749 187.735C57.8265 187.863 57.9268 187.947 58.0498 187.988C58.1729 188.029 58.305 188.05 58.4463 188.05C58.5511 188.05 58.6605 188.041 58.7744 188.022C58.8929 188 58.9818 187.981 59.041 187.968L59.0479 189C58.9476 189.032 58.8154 189.062 58.6514 189.089C58.4919 189.121 58.2982 189.137 58.0703 189.137C57.7604 189.137 57.4756 189.075 57.2158 188.952C56.9561 188.829 56.7487 188.624 56.5938 188.337C56.4434 188.045 56.3682 187.653 56.3682 187.161V179.806ZM61.7617 182.766V189H60.4971V181.604H61.7275L61.7617 182.766ZM64.0723 181.562L64.0654 182.738C63.9606 182.715 63.8604 182.702 63.7646 182.697C63.6735 182.688 63.5687 182.684 63.4502 182.684C63.1585 182.684 62.901 182.729 62.6777 182.82C62.4544 182.911 62.2653 183.039 62.1104 183.203C61.9554 183.367 61.8324 183.563 61.7412 183.791C61.6546 184.014 61.5977 184.26 61.5703 184.529L61.2148 184.734C61.2148 184.288 61.2581 183.868 61.3447 183.477C61.4359 183.085 61.5749 182.738 61.7617 182.438C61.9486 182.132 62.1855 181.895 62.4727 181.727C62.7643 181.553 63.1107 181.467 63.5117 181.467C63.6029 181.467 63.7077 181.478 63.8262 181.501C63.9447 181.519 64.0267 181.54 64.0723 181.562ZM69.3291 187.735V183.928C69.3291 183.636 69.2699 183.383 69.1514 183.169C69.0374 182.95 68.8643 182.782 68.6318 182.663C68.3994 182.545 68.1123 182.485 67.7705 182.485C67.4515 182.485 67.1712 182.54 66.9297 182.649C66.6927 182.759 66.5059 182.902 66.3691 183.08C66.237 183.258 66.1709 183.449 66.1709 183.654H64.9062C64.9062 183.39 64.9746 183.128 65.1113 182.868C65.248 182.608 65.444 182.374 65.6992 182.164C65.959 181.95 66.2689 181.781 66.6289 181.658C66.9935 181.531 67.3991 181.467 67.8457 181.467C68.3835 181.467 68.8574 181.558 69.2676 181.74C69.6823 181.923 70.0059 182.198 70.2383 182.567C70.4753 182.932 70.5938 183.39 70.5938 183.941V187.387C70.5938 187.633 70.6143 187.895 70.6553 188.173C70.7008 188.451 70.7669 188.69 70.8535 188.891V189H69.5342C69.4704 188.854 69.4202 188.66 69.3838 188.419C69.3473 188.173 69.3291 187.945 69.3291 187.735ZM69.5479 184.516L69.5615 185.404H68.2832C67.9232 185.404 67.6019 185.434 67.3193 185.493C67.0368 185.548 66.7998 185.632 66.6084 185.746C66.417 185.86 66.2712 186.004 66.1709 186.177C66.0706 186.345 66.0205 186.544 66.0205 186.771C66.0205 187.004 66.0729 187.216 66.1777 187.407C66.2826 187.599 66.4398 187.751 66.6494 187.865C66.8636 187.975 67.1257 188.029 67.4355 188.029C67.8229 188.029 68.1647 187.947 68.4609 187.783C68.7572 187.619 68.9919 187.419 69.165 187.182C69.3428 186.945 69.4385 186.715 69.4521 186.491L69.9922 187.1C69.9603 187.291 69.8737 187.503 69.7324 187.735C69.5911 187.968 69.402 188.191 69.165 188.405C68.9326 188.615 68.6546 188.79 68.3311 188.932C68.012 189.068 67.652 189.137 67.251 189.137C66.7497 189.137 66.3099 189.039 65.9316 188.843C65.5579 188.647 65.2663 188.385 65.0566 188.057C64.8516 187.724 64.749 187.353 64.749 186.942C64.749 186.546 64.8265 186.197 64.9814 185.896C65.1364 185.591 65.3597 185.338 65.6514 185.138C65.943 184.933 66.2939 184.778 66.7041 184.673C67.1143 184.568 67.5723 184.516 68.0781 184.516H69.5479ZM75.543 188.098C75.8438 188.098 76.1217 188.036 76.377 187.913C76.6322 187.79 76.8418 187.621 77.0059 187.407C77.1699 187.188 77.2633 186.94 77.2861 186.662H78.4893C78.4665 187.1 78.3184 187.507 78.0449 187.886C77.776 188.259 77.4229 188.562 76.9854 188.795C76.5479 189.023 76.0671 189.137 75.543 189.137C74.987 189.137 74.5016 189.039 74.0869 188.843C73.6768 188.647 73.335 188.378 73.0615 188.036C72.7926 187.694 72.5898 187.302 72.4531 186.86C72.321 186.414 72.2549 185.942 72.2549 185.445V185.158C72.2549 184.661 72.321 184.192 72.4531 183.75C72.5898 183.303 72.7926 182.909 73.0615 182.567C73.335 182.226 73.6768 181.957 74.0869 181.761C74.5016 181.565 74.987 181.467 75.543 181.467C76.1217 181.467 76.6276 181.585 77.0605 181.822C77.4935 182.055 77.833 182.374 78.0791 182.779C78.3298 183.18 78.4665 183.636 78.4893 184.146H77.2861C77.2633 183.841 77.1768 183.565 77.0264 183.319C76.8805 183.073 76.68 182.877 76.4248 182.731C76.1742 182.581 75.8802 182.506 75.543 182.506C75.1556 182.506 74.8298 182.583 74.5654 182.738C74.3057 182.889 74.0983 183.094 73.9434 183.354C73.793 183.609 73.6836 183.894 73.6152 184.208C73.5514 184.518 73.5195 184.835 73.5195 185.158V185.445C73.5195 185.769 73.5514 186.088 73.6152 186.402C73.679 186.717 73.7861 187.002 73.9365 187.257C74.0915 187.512 74.2988 187.717 74.5586 187.872C74.8229 188.022 75.151 188.098 75.543 188.098ZM81.1826 178.5V189H79.9111V178.5H81.1826ZM85.7012 181.604L82.4746 185.056L80.6699 186.929L80.5674 185.582L81.8594 184.037L84.1562 181.604H85.7012ZM84.5459 189L81.9072 185.473L82.5635 184.345L86.0361 189H84.5459ZM88.3809 181.604V189H87.1094V181.604H88.3809ZM87.0137 179.642C87.0137 179.437 87.0752 179.263 87.1982 179.122C87.3258 178.981 87.5127 178.91 87.7588 178.91C88.0003 178.91 88.1849 178.981 88.3125 179.122C88.4447 179.263 88.5107 179.437 88.5107 179.642C88.5107 179.838 88.4447 180.006 88.3125 180.147C88.1849 180.284 88.0003 180.353 87.7588 180.353C87.5127 180.353 87.3258 180.284 87.1982 180.147C87.0752 180.006 87.0137 179.838 87.0137 179.642ZM91.6758 183.183V189H90.4111V181.604H91.6074L91.6758 183.183ZM91.375 185.021L90.8486 185.001C90.8532 184.495 90.9284 184.028 91.0742 183.6C91.2201 183.167 91.4251 182.791 91.6895 182.472C91.9538 182.153 92.2682 181.907 92.6328 181.733C93.002 181.556 93.4098 181.467 93.8564 181.467C94.221 181.467 94.5492 181.517 94.8408 181.617C95.1325 181.713 95.3809 181.868 95.5859 182.082C95.7956 182.296 95.9551 182.574 96.0645 182.916C96.1738 183.253 96.2285 183.666 96.2285 184.153V189H94.957V184.14C94.957 183.752 94.9001 183.442 94.7861 183.21C94.6722 182.973 94.5059 182.802 94.2871 182.697C94.0684 182.588 93.7995 182.533 93.4805 182.533C93.166 182.533 92.8789 182.599 92.6191 182.731C92.3639 182.864 92.1429 183.046 91.9561 183.278C91.7738 183.511 91.6302 183.777 91.5254 184.078C91.4251 184.374 91.375 184.689 91.375 185.021ZM102.941 181.604H104.09V188.843C104.09 189.494 103.958 190.05 103.693 190.511C103.429 190.971 103.06 191.32 102.586 191.557C102.117 191.798 101.574 191.919 100.959 191.919C100.704 191.919 100.403 191.878 100.057 191.796C99.7148 191.718 99.3776 191.584 99.0449 191.393C98.7168 191.206 98.4411 190.953 98.2178 190.634L98.8809 189.882C99.1908 190.256 99.5143 190.515 99.8516 190.661C100.193 190.807 100.531 190.88 100.863 190.88C101.264 190.88 101.611 190.805 101.902 190.654C102.194 190.504 102.42 190.281 102.579 189.984C102.743 189.693 102.825 189.333 102.825 188.904V183.23L102.941 181.604ZM97.8486 185.384V185.24C97.8486 184.675 97.9147 184.162 98.0469 183.702C98.1836 183.237 98.3773 182.839 98.6279 182.506C98.8831 182.173 99.1908 181.918 99.5508 181.74C99.9108 181.558 100.316 181.467 100.768 181.467C101.232 181.467 101.638 181.549 101.984 181.713C102.335 181.872 102.632 182.107 102.873 182.417C103.119 182.722 103.313 183.091 103.454 183.524C103.595 183.957 103.693 184.447 103.748 184.994V185.623C103.698 186.165 103.6 186.653 103.454 187.086C103.313 187.519 103.119 187.888 102.873 188.193C102.632 188.499 102.335 188.733 101.984 188.897C101.633 189.057 101.223 189.137 100.754 189.137C100.312 189.137 99.9108 189.043 99.5508 188.856C99.1953 188.67 98.89 188.408 98.6348 188.07C98.3796 187.733 98.1836 187.337 98.0469 186.881C97.9147 186.421 97.8486 185.922 97.8486 185.384ZM99.1133 185.24V185.384C99.1133 185.753 99.1497 186.099 99.2227 186.423C99.3001 186.746 99.4163 187.031 99.5713 187.277C99.7308 187.523 99.9336 187.717 100.18 187.858C100.426 187.995 100.72 188.063 101.062 188.063C101.481 188.063 101.827 187.975 102.101 187.797C102.374 187.619 102.59 187.384 102.75 187.093C102.914 186.801 103.042 186.484 103.133 186.143V184.495C103.083 184.244 103.005 184.003 102.9 183.771C102.8 183.534 102.668 183.324 102.504 183.142C102.344 182.955 102.146 182.807 101.909 182.697C101.672 182.588 101.394 182.533 101.075 182.533C100.729 182.533 100.43 182.606 100.18 182.752C99.9336 182.893 99.7308 183.089 99.5713 183.34C99.4163 183.586 99.3001 183.873 99.2227 184.201C99.1497 184.525 99.1133 184.871 99.1133 185.24Z" fill="#949699"/>
<defs>
<linearGradient id="paint0_linear_3944_24389" x1="89.3997" y1="25.8938" x2="75.356" y2="152.171" gradientUnits="userSpaceOnUse">
<stop offset="0.1975" stop-color="#FFB666"/>
<stop offset="0.95505" stop-color="#FF0E65"/>
</linearGradient>
</defs>
</svg>
