<svg width="160" height="192" viewBox="0 0 160 192" fill="none" xmlns="http://www.w3.org/2000/svg">
<path d="M49.3262 122.781H51.5137L55.625 133.748L59.7266 122.781H61.9141L56.4844 137H54.7461L49.3262 122.781ZM48.3301 122.781H50.4102L50.7715 132.273V137H48.3301V122.781ZM60.8301 122.781H62.9199V137H60.4688V132.273L60.8301 122.781ZM65.1465 131.834V131.609C65.1465 130.848 65.2572 130.141 65.4785 129.49C65.6999 128.833 66.0189 128.263 66.4355 127.781C66.8587 127.293 67.373 126.915 67.9785 126.648C68.5905 126.375 69.2806 126.238 70.0488 126.238C70.8236 126.238 71.5137 126.375 72.1191 126.648C72.7311 126.915 73.2487 127.293 73.6719 127.781C74.0951 128.263 74.4173 128.833 74.6387 129.49C74.86 130.141 74.9707 130.848 74.9707 131.609V131.834C74.9707 132.596 74.86 133.302 74.6387 133.953C74.4173 134.604 74.0951 135.174 73.6719 135.662C73.2487 136.144 72.7344 136.521 72.1289 136.795C71.5234 137.062 70.8366 137.195 70.0684 137.195C69.2936 137.195 68.6003 137.062 67.9883 136.795C67.3828 136.521 66.8685 136.144 66.4453 135.662C66.0221 135.174 65.6999 134.604 65.4785 133.953C65.2572 133.302 65.1465 132.596 65.1465 131.834ZM67.5 131.609V131.834C67.5 132.309 67.5488 132.758 67.6465 133.182C67.7441 133.605 67.8971 133.976 68.1055 134.295C68.3138 134.614 68.5807 134.865 68.9062 135.047C69.2318 135.229 69.6191 135.32 70.0684 135.32C70.5046 135.32 70.8822 135.229 71.2012 135.047C71.5267 134.865 71.7936 134.614 72.002 134.295C72.2103 133.976 72.3633 133.605 72.4609 133.182C72.5651 132.758 72.6172 132.309 72.6172 131.834V131.609C72.6172 131.141 72.5651 130.698 72.4609 130.281C72.3633 129.858 72.207 129.484 71.9922 129.158C71.7839 128.833 71.5169 128.579 71.1914 128.396C70.8724 128.208 70.4915 128.113 70.0488 128.113C69.6061 128.113 69.222 128.208 68.8965 128.396C68.5775 128.579 68.3138 128.833 68.1055 129.158C67.8971 129.484 67.7441 129.858 67.6465 130.281C67.5488 130.698 67.5 131.141 67.5 131.609ZM83.3887 134.812V122H85.752V137H83.6133L83.3887 134.812ZM76.5137 131.834V131.629C76.5137 130.828 76.6081 130.099 76.7969 129.441C76.9857 128.777 77.2591 128.208 77.6172 127.732C77.9753 127.251 78.4115 126.883 78.9258 126.629C79.4401 126.368 80.0195 126.238 80.6641 126.238C81.3021 126.238 81.862 126.362 82.3438 126.609C82.8255 126.857 83.2357 127.212 83.5742 127.674C83.9128 128.13 84.1829 128.676 84.3848 129.314C84.5866 129.946 84.7298 130.649 84.8145 131.424V132.078C84.7298 132.833 84.5866 133.523 84.3848 134.148C84.1829 134.773 83.9128 135.314 83.5742 135.77C83.2357 136.225 82.8223 136.577 82.334 136.824C81.8522 137.072 81.2891 137.195 80.6445 137.195C80.0065 137.195 79.4303 137.062 78.916 136.795C78.4082 136.528 77.9753 136.154 77.6172 135.672C77.2591 135.19 76.9857 134.624 76.7969 133.973C76.6081 133.315 76.5137 132.602 76.5137 131.834ZM78.8672 131.629V131.834C78.8672 132.316 78.9095 132.765 78.9941 133.182C79.0853 133.598 79.2253 133.966 79.4141 134.285C79.6029 134.598 79.847 134.845 80.1465 135.027C80.4525 135.203 80.8171 135.291 81.2402 135.291C81.7741 135.291 82.2135 135.174 82.5586 134.939C82.9036 134.705 83.1738 134.389 83.3691 133.992C83.571 133.589 83.7077 133.139 83.7793 132.645V130.877C83.7402 130.493 83.6589 130.135 83.5352 129.803C83.418 129.471 83.2585 129.181 83.0566 128.934C82.8548 128.68 82.6042 128.484 82.3047 128.348C82.0117 128.204 81.6634 128.133 81.2598 128.133C80.8301 128.133 80.4655 128.224 80.166 128.406C79.8665 128.589 79.6191 128.839 79.4238 129.158C79.235 129.477 79.0951 129.848 79.0039 130.271C78.9128 130.695 78.8672 131.147 78.8672 131.629ZM92.8711 137.195C92.0898 137.195 91.3835 137.068 90.752 136.814C90.127 136.554 89.5931 136.193 89.1504 135.73C88.7142 135.268 88.3789 134.725 88.1445 134.1C87.9102 133.475 87.793 132.801 87.793 132.078V131.688C87.793 130.861 87.9134 130.112 88.1543 129.441C88.3952 128.771 88.7305 128.198 89.1602 127.723C89.5898 127.241 90.0977 126.873 90.6836 126.619C91.2695 126.365 91.9043 126.238 92.5879 126.238C93.3431 126.238 94.0039 126.365 94.5703 126.619C95.1367 126.873 95.6055 127.231 95.9766 127.693C96.3542 128.149 96.6341 128.693 96.8164 129.324C97.0052 129.956 97.0996 130.652 97.0996 131.414V132.42H88.9355V130.73H94.7754V130.545C94.7624 130.122 94.6777 129.725 94.5215 129.354C94.3717 128.982 94.1406 128.683 93.8281 128.455C93.5156 128.227 93.099 128.113 92.5781 128.113C92.1875 128.113 91.8392 128.198 91.5332 128.367C91.2337 128.53 90.9831 128.768 90.7812 129.08C90.5794 129.393 90.4232 129.77 90.3125 130.213C90.2083 130.649 90.1562 131.141 90.1562 131.688V132.078C90.1562 132.54 90.2181 132.97 90.3418 133.367C90.472 133.758 90.6608 134.1 90.9082 134.393C91.1556 134.686 91.4551 134.917 91.8066 135.086C92.1582 135.249 92.5586 135.33 93.0078 135.33C93.5742 135.33 94.0788 135.216 94.5215 134.988C94.9642 134.76 95.3483 134.438 95.6738 134.021L96.9141 135.223C96.6862 135.555 96.39 135.874 96.0254 136.18C95.6608 136.479 95.2148 136.723 94.6875 136.912C94.1667 137.101 93.5612 137.195 92.8711 137.195ZM101.455 122V137H99.0918V122H101.455ZM109.961 134.139C109.961 133.904 109.902 133.693 109.785 133.504C109.668 133.309 109.443 133.133 109.111 132.977C108.786 132.82 108.304 132.677 107.666 132.547C107.106 132.423 106.592 132.277 106.123 132.107C105.661 131.932 105.264 131.72 104.932 131.473C104.6 131.225 104.342 130.932 104.16 130.594C103.978 130.255 103.887 129.865 103.887 129.422C103.887 128.992 103.981 128.585 104.17 128.201C104.359 127.817 104.629 127.479 104.98 127.186C105.332 126.893 105.758 126.661 106.26 126.492C106.768 126.323 107.334 126.238 107.959 126.238C108.844 126.238 109.603 126.388 110.234 126.688C110.872 126.98 111.361 127.381 111.699 127.889C112.038 128.39 112.207 128.956 112.207 129.588H109.854C109.854 129.308 109.782 129.048 109.639 128.807C109.502 128.559 109.294 128.361 109.014 128.211C108.734 128.055 108.382 127.977 107.959 127.977C107.555 127.977 107.22 128.042 106.953 128.172C106.693 128.296 106.497 128.458 106.367 128.66C106.243 128.862 106.182 129.083 106.182 129.324C106.182 129.5 106.214 129.66 106.279 129.803C106.351 129.939 106.468 130.066 106.631 130.184C106.794 130.294 107.015 130.398 107.295 130.496C107.581 130.594 107.939 130.688 108.369 130.779C109.176 130.949 109.87 131.167 110.449 131.434C111.035 131.694 111.484 132.033 111.797 132.449C112.109 132.859 112.266 133.38 112.266 134.012C112.266 134.48 112.165 134.91 111.963 135.301C111.768 135.685 111.481 136.02 111.104 136.307C110.726 136.587 110.273 136.805 109.746 136.961C109.225 137.117 108.639 137.195 107.988 137.195C107.031 137.195 106.221 137.026 105.557 136.688C104.893 136.342 104.388 135.903 104.043 135.369C103.704 134.829 103.535 134.269 103.535 133.689H105.811C105.837 134.126 105.957 134.474 106.172 134.734C106.393 134.988 106.667 135.174 106.992 135.291C107.324 135.402 107.666 135.457 108.018 135.457C108.441 135.457 108.796 135.402 109.082 135.291C109.368 135.174 109.587 135.018 109.736 134.822C109.886 134.62 109.961 134.393 109.961 134.139Z" fill="white"/>
<path opacity="0.6" d="M31.6675 155.336H33.0371L36.5308 164.03L40.0171 155.336H41.394L37.0581 166H35.9888L31.6675 155.336ZM31.2207 155.336H32.4292L32.627 161.84V166H31.2207V155.336ZM40.625 155.336H41.8335V166H40.4272V161.84L40.625 155.336ZM43.7524 162.125V161.957C43.7524 161.386 43.8354 160.856 44.0015 160.368C44.1675 159.875 44.4067 159.447 44.7192 159.086C45.0317 158.72 45.4102 158.437 45.8545 158.236C46.2988 158.031 46.7969 157.929 47.3486 157.929C47.9053 157.929 48.4058 158.031 48.8501 158.236C49.2993 158.437 49.6802 158.72 49.9927 159.086C50.3101 159.447 50.5518 159.875 50.7178 160.368C50.8838 160.856 50.9668 161.386 50.9668 161.957V162.125C50.9668 162.697 50.8838 163.227 50.7178 163.715C50.5518 164.203 50.3101 164.63 49.9927 164.997C49.6802 165.358 49.3018 165.641 48.8574 165.846C48.418 166.046 47.9199 166.146 47.3633 166.146C46.8066 166.146 46.3062 166.046 45.8618 165.846C45.4175 165.641 45.0366 165.358 44.7192 164.997C44.4067 164.63 44.1675 164.203 44.0015 163.715C43.8354 163.227 43.7524 162.697 43.7524 162.125ZM45.1074 161.957V162.125C45.1074 162.521 45.1538 162.895 45.2466 163.246C45.3394 163.593 45.4785 163.9 45.6641 164.169C45.8545 164.438 46.0913 164.65 46.3745 164.806C46.6577 164.958 46.9873 165.033 47.3633 165.033C47.7344 165.033 48.0591 164.958 48.3374 164.806C48.6206 164.65 48.855 164.438 49.0405 164.169C49.2261 163.9 49.3652 163.593 49.458 163.246C49.5557 162.895 49.6045 162.521 49.6045 162.125V161.957C49.6045 161.566 49.5557 161.198 49.458 160.851C49.3652 160.5 49.2236 160.189 49.0332 159.921C48.8477 159.647 48.6133 159.433 48.3301 159.276C48.0518 159.12 47.7246 159.042 47.3486 159.042C46.9775 159.042 46.6504 159.12 46.3672 159.276C46.0889 159.433 45.8545 159.647 45.6641 159.921C45.4785 160.189 45.3394 160.5 45.2466 160.851C45.1538 161.198 45.1074 161.566 45.1074 161.957ZM57.6611 164.462V154.75H59.0234V166H57.7783L57.6611 164.462ZM52.3291 162.125V161.972C52.3291 161.366 52.4023 160.817 52.5488 160.324C52.7002 159.826 52.9126 159.398 53.186 159.042C53.4644 158.686 53.7939 158.412 54.1748 158.222C54.5605 158.026 54.9902 157.929 55.4639 157.929C55.9619 157.929 56.3965 158.017 56.7676 158.192C57.1436 158.363 57.4609 158.615 57.7197 158.947C57.9834 159.274 58.1909 159.669 58.3423 160.133C58.4937 160.597 58.5986 161.122 58.6572 161.708V162.382C58.6035 162.963 58.4985 163.485 58.3423 163.949C58.1909 164.413 57.9834 164.809 57.7197 165.136C57.4609 165.463 57.1436 165.714 56.7676 165.89C56.3916 166.061 55.9521 166.146 55.4492 166.146C54.9854 166.146 54.5605 166.046 54.1748 165.846C53.7939 165.646 53.4644 165.365 53.186 165.004C52.9126 164.643 52.7002 164.218 52.5488 163.729C52.4023 163.236 52.3291 162.702 52.3291 162.125ZM53.6914 161.972V162.125C53.6914 162.521 53.7305 162.892 53.8086 163.239C53.8916 163.585 54.0186 163.891 54.1895 164.154C54.3604 164.418 54.5776 164.625 54.8413 164.777C55.105 164.923 55.4199 164.997 55.7861 164.997C56.2354 164.997 56.604 164.901 56.8921 164.711C57.1851 164.521 57.4194 164.269 57.5952 163.957C57.771 163.644 57.9077 163.305 58.0054 162.938V161.173C57.9468 160.905 57.8613 160.646 57.749 160.397C57.6416 160.143 57.5 159.918 57.3242 159.723C57.1533 159.523 56.9409 159.364 56.687 159.247C56.438 159.13 56.1426 159.071 55.8008 159.071C55.4297 159.071 55.1099 159.149 54.8413 159.306C54.5776 159.457 54.3604 159.667 54.1895 159.936C54.0186 160.199 53.8916 160.507 53.8086 160.858C53.7305 161.205 53.6914 161.576 53.6914 161.972ZM64.4214 166.146C63.8696 166.146 63.3691 166.054 62.9199 165.868C62.4756 165.678 62.0923 165.412 61.77 165.07C61.4526 164.728 61.2085 164.323 61.0376 163.854C60.8667 163.385 60.7812 162.873 60.7812 162.316V162.008C60.7812 161.364 60.8765 160.79 61.0669 160.287C61.2573 159.779 61.5161 159.35 61.8433 158.998C62.1704 158.646 62.5415 158.38 62.9565 158.2C63.3716 158.019 63.8013 157.929 64.2456 157.929C64.812 157.929 65.3003 158.026 65.7104 158.222C66.1255 158.417 66.4648 158.69 66.7285 159.042C66.9922 159.389 67.1875 159.799 67.3145 160.272C67.4414 160.741 67.5049 161.254 67.5049 161.811V162.418H61.5869V161.312H66.1499V161.21C66.1304 160.858 66.0571 160.517 65.9302 160.185C65.8081 159.853 65.6128 159.579 65.3442 159.364C65.0757 159.149 64.7095 159.042 64.2456 159.042C63.938 159.042 63.6548 159.108 63.396 159.24C63.1372 159.367 62.915 159.557 62.7295 159.811C62.5439 160.065 62.3999 160.375 62.2974 160.741C62.1948 161.107 62.1436 161.53 62.1436 162.008V162.316C62.1436 162.692 62.1948 163.046 62.2974 163.378C62.4048 163.705 62.5586 163.993 62.7588 164.242C62.9639 164.491 63.2104 164.687 63.4985 164.828C63.7915 164.97 64.1235 165.041 64.4946 165.041C64.9731 165.041 65.3784 164.943 65.7104 164.748C66.0425 164.552 66.333 164.291 66.582 163.964L67.4023 164.616C67.2314 164.875 67.0142 165.121 66.7505 165.355C66.4868 165.59 66.1621 165.78 65.7764 165.927C65.3955 166.073 64.9438 166.146 64.4214 166.146ZM70.5591 154.75V166H69.1968V154.75H70.5591ZM77.9272 154.75V166H76.5649V154.75H77.9272ZM81.5747 158.075V166H80.2124V158.075H81.5747ZM80.1099 155.973C80.1099 155.753 80.1758 155.568 80.3076 155.417C80.4443 155.265 80.6445 155.189 80.9082 155.189C81.167 155.189 81.3647 155.265 81.5015 155.417C81.6431 155.568 81.7139 155.753 81.7139 155.973C81.7139 156.183 81.6431 156.364 81.5015 156.515C81.3647 156.662 81.167 156.735 80.9082 156.735C80.6445 156.735 80.4443 156.662 80.3076 156.515C80.1758 156.364 80.1099 156.183 80.1099 155.973ZM85.7715 166H84.4165V157.24C84.4165 156.669 84.519 156.188 84.7241 155.797C84.9341 155.402 85.2344 155.104 85.625 154.904C86.0156 154.699 86.4795 154.596 87.0166 154.596C87.1729 154.596 87.3291 154.606 87.4854 154.625C87.6465 154.645 87.8027 154.674 87.9541 154.713L87.8809 155.819C87.7783 155.795 87.6611 155.778 87.5293 155.768C87.4023 155.758 87.2754 155.753 87.1484 155.753C86.8604 155.753 86.6113 155.812 86.4014 155.929C86.1963 156.042 86.04 156.208 85.9326 156.427C85.8252 156.647 85.7715 156.918 85.7715 157.24V166ZM87.4561 158.075V159.115H83.1641V158.075H87.4561ZM92.0776 166.146C91.5259 166.146 91.0254 166.054 90.5762 165.868C90.1318 165.678 89.7485 165.412 89.4263 165.07C89.1089 164.728 88.8647 164.323 88.6938 163.854C88.5229 163.385 88.4375 162.873 88.4375 162.316V162.008C88.4375 161.364 88.5327 160.79 88.7231 160.287C88.9136 159.779 89.1724 159.35 89.4995 158.998C89.8267 158.646 90.1978 158.38 90.6128 158.2C91.0278 158.019 91.4575 157.929 91.9019 157.929C92.4683 157.929 92.9565 158.026 93.3667 158.222C93.7817 158.417 94.1211 158.69 94.3848 159.042C94.6484 159.389 94.8438 159.799 94.9707 160.272C95.0977 160.741 95.1611 161.254 95.1611 161.811V162.418H89.2432V161.312H93.8062V161.21C93.7866 160.858 93.7134 160.517 93.5864 160.185C93.4644 159.853 93.269 159.579 93.0005 159.364C92.7319 159.149 92.3657 159.042 91.9019 159.042C91.5942 159.042 91.311 159.108 91.0522 159.24C90.7935 159.367 90.5713 159.557 90.3857 159.811C90.2002 160.065 90.0562 160.375 89.9536 160.741C89.8511 161.107 89.7998 161.53 89.7998 162.008V162.316C89.7998 162.692 89.8511 163.046 89.9536 163.378C90.061 163.705 90.2148 163.993 90.415 164.242C90.6201 164.491 90.8667 164.687 91.1548 164.828C91.4478 164.97 91.7798 165.041 92.1509 165.041C92.6294 165.041 93.0347 164.943 93.3667 164.748C93.6987 164.552 93.9893 164.291 94.2383 163.964L95.0586 164.616C94.8877 164.875 94.6704 165.121 94.4067 165.355C94.1431 165.59 93.8184 165.78 93.4326 165.927C93.0518 166.073 92.6001 166.146 92.0776 166.146ZM99.9146 165.033C100.237 165.033 100.535 164.967 100.808 164.835C101.082 164.704 101.306 164.523 101.482 164.293C101.658 164.059 101.758 163.793 101.782 163.495H103.071C103.047 163.964 102.888 164.401 102.595 164.806C102.307 165.207 101.929 165.531 101.46 165.78C100.991 166.024 100.476 166.146 99.9146 166.146C99.3188 166.146 98.7988 166.042 98.3545 165.832C97.915 165.622 97.5488 165.333 97.2559 164.967C96.9678 164.601 96.7505 164.181 96.604 163.708C96.4624 163.229 96.3916 162.724 96.3916 162.191V161.884C96.3916 161.352 96.4624 160.849 96.604 160.375C96.7505 159.896 96.9678 159.474 97.2559 159.108C97.5488 158.742 97.915 158.454 98.3545 158.244C98.7988 158.034 99.3188 157.929 99.9146 157.929C100.535 157.929 101.077 158.056 101.541 158.31C102.004 158.559 102.368 158.9 102.632 159.335C102.9 159.765 103.047 160.253 103.071 160.8H101.782C101.758 160.473 101.665 160.177 101.504 159.914C101.348 159.65 101.133 159.44 100.859 159.284C100.591 159.123 100.276 159.042 99.9146 159.042C99.4995 159.042 99.1504 159.125 98.8672 159.291C98.5889 159.452 98.3667 159.672 98.2007 159.95C98.0396 160.224 97.9224 160.529 97.8491 160.866C97.7808 161.198 97.7466 161.537 97.7466 161.884V162.191C97.7466 162.538 97.7808 162.88 97.8491 163.217C97.9175 163.554 98.0322 163.859 98.1934 164.132C98.3594 164.406 98.5815 164.625 98.8599 164.792C99.1431 164.953 99.4946 165.033 99.9146 165.033ZM106.821 165.18L109.026 158.075H110.476L107.297 167.223C107.224 167.418 107.126 167.628 107.004 167.853C106.887 168.083 106.736 168.3 106.55 168.505C106.365 168.71 106.14 168.876 105.876 169.003C105.618 169.135 105.308 169.201 104.946 169.201C104.839 169.201 104.702 169.186 104.536 169.157C104.37 169.127 104.253 169.103 104.185 169.083L104.177 167.985C104.216 167.99 104.277 167.995 104.36 168C104.448 168.009 104.509 168.014 104.543 168.014C104.851 168.014 105.112 167.973 105.327 167.89C105.542 167.812 105.723 167.677 105.869 167.487C106.021 167.301 106.15 167.045 106.257 166.718L106.821 165.18ZM105.203 158.075L107.261 164.228L107.612 165.656L106.638 166.154L103.723 158.075H105.203ZM114.768 165.033C115.09 165.033 115.388 164.967 115.662 164.835C115.935 164.704 116.16 164.523 116.335 164.293C116.511 164.059 116.611 163.793 116.636 163.495H117.925C117.9 163.964 117.742 164.401 117.449 164.806C117.161 165.207 116.782 165.531 116.313 165.78C115.845 166.024 115.33 166.146 114.768 166.146C114.172 166.146 113.652 166.042 113.208 165.832C112.769 165.622 112.402 165.333 112.109 164.967C111.821 164.601 111.604 164.181 111.458 163.708C111.316 163.229 111.245 162.724 111.245 162.191V161.884C111.245 161.352 111.316 160.849 111.458 160.375C111.604 159.896 111.821 159.474 112.109 159.108C112.402 158.742 112.769 158.454 113.208 158.244C113.652 158.034 114.172 157.929 114.768 157.929C115.388 157.929 115.93 158.056 116.394 158.31C116.858 158.559 117.222 158.9 117.485 159.335C117.754 159.765 117.9 160.253 117.925 160.8H116.636C116.611 160.473 116.519 160.177 116.357 159.914C116.201 159.65 115.986 159.44 115.713 159.284C115.444 159.123 115.129 159.042 114.768 159.042C114.353 159.042 114.004 159.125 113.721 159.291C113.442 159.452 113.22 159.672 113.054 159.95C112.893 160.224 112.776 160.529 112.703 160.866C112.634 161.198 112.6 161.537 112.6 161.884V162.191C112.6 162.538 112.634 162.88 112.703 163.217C112.771 163.554 112.886 163.859 113.047 164.132C113.213 164.406 113.435 164.625 113.713 164.792C113.997 164.953 114.348 165.033 114.768 165.033ZM120.92 154.75V166H119.558V154.75H120.92ZM126.384 166.146C125.833 166.146 125.332 166.054 124.883 165.868C124.438 165.678 124.055 165.412 123.733 165.07C123.416 164.728 123.171 164.323 123 163.854C122.83 163.385 122.744 162.873 122.744 162.316V162.008C122.744 161.364 122.839 160.79 123.03 160.287C123.22 159.779 123.479 159.35 123.806 158.998C124.133 158.646 124.504 158.38 124.919 158.2C125.334 158.019 125.764 157.929 126.208 157.929C126.775 157.929 127.263 158.026 127.673 158.222C128.088 158.417 128.428 158.69 128.691 159.042C128.955 159.389 129.15 159.799 129.277 160.272C129.404 160.741 129.468 161.254 129.468 161.811V162.418H123.55V161.312H128.113V161.21C128.093 160.858 128.02 160.517 127.893 160.185C127.771 159.853 127.576 159.579 127.307 159.364C127.039 159.149 126.672 159.042 126.208 159.042C125.901 159.042 125.618 159.108 125.359 159.24C125.1 159.367 124.878 159.557 124.692 159.811C124.507 160.065 124.363 160.375 124.26 160.741C124.158 161.107 124.106 161.53 124.106 162.008V162.316C124.106 162.692 124.158 163.046 124.26 163.378C124.368 163.705 124.521 163.993 124.722 164.242C124.927 164.491 125.173 164.687 125.461 164.828C125.754 164.97 126.086 165.041 126.458 165.041C126.936 165.041 127.341 164.943 127.673 164.748C128.005 164.552 128.296 164.291 128.545 163.964L129.365 164.616C129.194 164.875 128.977 165.121 128.713 165.355C128.45 165.59 128.125 165.78 127.739 165.927C127.358 166.073 126.907 166.146 126.384 166.146ZM38.1567 180.65V187H36.7944V179.075H38.0835L38.1567 180.65ZM37.8784 182.737L37.2485 182.715C37.2534 182.173 37.3242 181.673 37.4609 181.214C37.5977 180.75 37.8003 180.347 38.0688 180.005C38.3374 179.664 38.6719 179.4 39.0723 179.214C39.4727 179.024 39.9365 178.929 40.4639 178.929C40.835 178.929 41.1768 178.982 41.4893 179.09C41.8018 179.192 42.0728 179.356 42.3022 179.581C42.5317 179.805 42.71 180.093 42.8369 180.445C42.9639 180.796 43.0273 181.221 43.0273 181.719V187H41.6724V181.785C41.6724 181.37 41.6016 181.038 41.46 180.789C41.3232 180.54 41.1279 180.359 40.874 180.247C40.6201 180.13 40.3223 180.071 39.9805 180.071C39.5801 180.071 39.2456 180.142 38.9771 180.284C38.7085 180.425 38.4937 180.621 38.3325 180.87C38.1714 181.119 38.0542 181.404 37.981 181.727C37.9126 182.044 37.8784 182.381 37.8784 182.737ZM43.0127 181.99L42.1045 182.269C42.1094 181.834 42.1802 181.417 42.3169 181.016C42.4585 180.616 42.6611 180.259 42.9248 179.947C43.1934 179.634 43.5229 179.388 43.9136 179.207C44.3042 179.021 44.751 178.929 45.2539 178.929C45.6787 178.929 46.0547 178.985 46.3818 179.097C46.7139 179.209 46.9922 179.383 47.2168 179.617C47.4463 179.847 47.6196 180.142 47.7368 180.503C47.854 180.865 47.9126 181.294 47.9126 181.792V187H46.5503V181.778C46.5503 181.333 46.4795 180.989 46.3379 180.745C46.2012 180.496 46.0059 180.323 45.752 180.225C45.5029 180.123 45.2051 180.071 44.8584 180.071C44.5605 180.071 44.2969 180.123 44.0674 180.225C43.8379 180.328 43.645 180.469 43.4888 180.65C43.3325 180.826 43.2129 181.028 43.1299 181.258C43.0518 181.487 43.0127 181.731 43.0127 181.99ZM54.6362 185.645V181.565C54.6362 181.253 54.5728 180.982 54.4458 180.752C54.3237 180.518 54.1382 180.337 53.8892 180.21C53.6401 180.083 53.3325 180.02 52.9663 180.02C52.6245 180.02 52.3242 180.079 52.0654 180.196C51.8115 180.313 51.6113 180.467 51.4648 180.657C51.3232 180.848 51.2524 181.053 51.2524 181.272H49.8975C49.8975 180.989 49.9707 180.708 50.1172 180.43C50.2637 180.152 50.4736 179.9 50.7471 179.676C51.0254 179.446 51.3574 179.266 51.7432 179.134C52.1338 178.997 52.5684 178.929 53.0469 178.929C53.623 178.929 54.1309 179.026 54.5703 179.222C55.0146 179.417 55.3613 179.712 55.6104 180.108C55.8643 180.499 55.9912 180.989 55.9912 181.58V185.271C55.9912 185.535 56.0132 185.816 56.0571 186.114C56.106 186.412 56.1768 186.668 56.2695 186.883V187H54.856C54.7876 186.844 54.7339 186.636 54.6948 186.377C54.6558 186.114 54.6362 185.87 54.6362 185.645ZM54.8706 182.195L54.8853 183.147H53.5156C53.1299 183.147 52.7856 183.179 52.4829 183.243C52.1802 183.301 51.9263 183.392 51.7212 183.514C51.5161 183.636 51.3599 183.79 51.2524 183.975C51.145 184.156 51.0913 184.368 51.0913 184.612C51.0913 184.861 51.1475 185.088 51.2598 185.293C51.3721 185.499 51.5405 185.662 51.7651 185.784C51.9946 185.901 52.2754 185.96 52.6074 185.96C53.0225 185.96 53.3887 185.872 53.7061 185.696C54.0234 185.521 54.2749 185.306 54.4604 185.052C54.6509 184.798 54.7534 184.551 54.7681 184.312L55.3467 184.964C55.3125 185.169 55.2197 185.396 55.0684 185.645C54.917 185.894 54.7144 186.133 54.4604 186.363C54.2114 186.587 53.9136 186.775 53.5669 186.927C53.2251 187.073 52.8394 187.146 52.4097 187.146C51.8726 187.146 51.4014 187.042 50.9961 186.832C50.5957 186.622 50.2832 186.341 50.0586 185.989C49.8389 185.633 49.729 185.235 49.729 184.795C49.729 184.371 49.812 183.997 49.978 183.675C50.144 183.348 50.3833 183.077 50.6958 182.862C51.0083 182.642 51.3843 182.476 51.8237 182.364C52.2632 182.251 52.7539 182.195 53.2959 182.195H54.8706ZM59.4775 180.767V187H58.1226V179.075H59.4043L59.4775 180.767ZM59.1553 182.737L58.5913 182.715C58.5962 182.173 58.6768 181.673 58.833 181.214C58.9893 180.75 59.209 180.347 59.4922 180.005C59.7754 179.664 60.1123 179.4 60.5029 179.214C60.8984 179.024 61.3354 178.929 61.814 178.929C62.2046 178.929 62.5562 178.982 62.8687 179.09C63.1812 179.192 63.4473 179.358 63.667 179.588C63.8916 179.817 64.0625 180.115 64.1797 180.481C64.2969 180.843 64.3555 181.285 64.3555 181.807V187H62.9932V181.792C62.9932 181.377 62.9321 181.045 62.8101 180.796C62.688 180.542 62.5098 180.359 62.2754 180.247C62.041 180.13 61.7529 180.071 61.4111 180.071C61.0742 180.071 60.7666 180.142 60.4883 180.284C60.2148 180.425 59.978 180.621 59.7778 180.87C59.5825 181.119 59.4287 181.404 59.3164 181.727C59.209 182.044 59.1553 182.381 59.1553 182.737ZM71.0864 185.645V181.565C71.0864 181.253 71.0229 180.982 70.896 180.752C70.7739 180.518 70.5884 180.337 70.3394 180.21C70.0903 180.083 69.7827 180.02 69.4165 180.02C69.0747 180.02 68.7744 180.079 68.5156 180.196C68.2617 180.313 68.0615 180.467 67.915 180.657C67.7734 180.848 67.7026 181.053 67.7026 181.272H66.3477C66.3477 180.989 66.4209 180.708 66.5674 180.43C66.7139 180.152 66.9238 179.9 67.1973 179.676C67.4756 179.446 67.8076 179.266 68.1934 179.134C68.584 178.997 69.0186 178.929 69.4971 178.929C70.0732 178.929 70.5811 179.026 71.0205 179.222C71.4648 179.417 71.8115 179.712 72.0605 180.108C72.3145 180.499 72.4414 180.989 72.4414 181.58V185.271C72.4414 185.535 72.4634 185.816 72.5073 186.114C72.5562 186.412 72.627 186.668 72.7197 186.883V187H71.3062C71.2378 186.844 71.1841 186.636 71.145 186.377C71.106 186.114 71.0864 185.87 71.0864 185.645ZM71.3208 182.195L71.3354 183.147H69.9658C69.5801 183.147 69.2358 183.179 68.9331 183.243C68.6304 183.301 68.3765 183.392 68.1714 183.514C67.9663 183.636 67.8101 183.79 67.7026 183.975C67.5952 184.156 67.5415 184.368 67.5415 184.612C67.5415 184.861 67.5977 185.088 67.71 185.293C67.8223 185.499 67.9907 185.662 68.2153 185.784C68.4448 185.901 68.7256 185.96 69.0576 185.96C69.4727 185.96 69.8389 185.872 70.1562 185.696C70.4736 185.521 70.7251 185.306 70.9106 185.052C71.1011 184.798 71.2036 184.551 71.2183 184.312L71.7969 184.964C71.7627 185.169 71.6699 185.396 71.5186 185.645C71.3672 185.894 71.1646 186.133 70.9106 186.363C70.6616 186.587 70.3638 186.775 70.0171 186.927C69.6753 187.073 69.2896 187.146 68.8599 187.146C68.3228 187.146 67.8516 187.042 67.4463 186.832C67.0459 186.622 66.7334 186.341 66.5088 185.989C66.2891 185.633 66.1792 185.235 66.1792 184.795C66.1792 184.371 66.2622 183.997 66.4282 183.675C66.5942 183.348 66.8335 183.077 67.146 182.862C67.4585 182.642 67.8345 182.476 68.2739 182.364C68.7134 182.251 69.2041 182.195 69.7461 182.195H71.3208ZM79.707 179.075H80.9375V186.832C80.9375 187.53 80.7959 188.125 80.5127 188.619C80.2295 189.112 79.834 189.485 79.3262 189.739C78.8232 189.998 78.2422 190.127 77.583 190.127C77.3096 190.127 76.9873 190.083 76.6162 189.996C76.25 189.913 75.8887 189.769 75.5322 189.563C75.1807 189.363 74.8853 189.092 74.646 188.75L75.3564 187.945C75.6885 188.345 76.0352 188.624 76.3965 188.78C76.7627 188.936 77.124 189.014 77.4805 189.014C77.9102 189.014 78.2812 188.934 78.5938 188.772C78.9062 188.611 79.1479 188.372 79.3188 188.055C79.4946 187.742 79.5825 187.356 79.5825 186.897V180.818L79.707 179.075ZM74.2505 183.125V182.972C74.2505 182.366 74.3213 181.817 74.4629 181.324C74.6094 180.826 74.8169 180.398 75.0854 180.042C75.3589 179.686 75.6885 179.412 76.0742 179.222C76.46 179.026 76.8945 178.929 77.3779 178.929C77.876 178.929 78.3105 179.017 78.6816 179.192C79.0576 179.363 79.375 179.615 79.6338 179.947C79.8975 180.274 80.105 180.669 80.2563 181.133C80.4077 181.597 80.5127 182.122 80.5713 182.708V183.382C80.5176 183.963 80.4126 184.485 80.2563 184.949C80.105 185.413 79.8975 185.809 79.6338 186.136C79.375 186.463 79.0576 186.714 78.6816 186.89C78.3057 187.061 77.8662 187.146 77.3633 187.146C76.8896 187.146 76.46 187.046 76.0742 186.846C75.6934 186.646 75.3662 186.365 75.0928 186.004C74.8193 185.643 74.6094 185.218 74.4629 184.729C74.3213 184.236 74.2505 183.702 74.2505 183.125ZM75.6055 182.972V183.125C75.6055 183.521 75.6445 183.892 75.7227 184.239C75.8057 184.585 75.9302 184.891 76.0962 185.154C76.2671 185.418 76.4844 185.625 76.748 185.777C77.0117 185.923 77.3267 185.997 77.6929 185.997C78.1421 185.997 78.5132 185.901 78.8062 185.711C79.0991 185.521 79.3311 185.269 79.502 184.957C79.6777 184.644 79.8145 184.305 79.9121 183.938V182.173C79.8584 181.905 79.7754 181.646 79.6631 181.397C79.5557 181.143 79.4141 180.918 79.2383 180.723C79.0674 180.523 78.855 180.364 78.6011 180.247C78.3472 180.13 78.0493 180.071 77.7075 180.071C77.3364 180.071 77.0166 180.149 76.748 180.306C76.4844 180.457 76.2671 180.667 76.0962 180.936C75.9302 181.199 75.8057 181.507 75.7227 181.858C75.6445 182.205 75.6055 182.576 75.6055 182.972ZM86.2842 187.146C85.7324 187.146 85.2319 187.054 84.7827 186.868C84.3384 186.678 83.9551 186.412 83.6328 186.07C83.3154 185.728 83.0713 185.323 82.9004 184.854C82.7295 184.385 82.644 183.873 82.644 183.316V183.008C82.644 182.364 82.7393 181.79 82.9297 181.287C83.1201 180.779 83.3789 180.35 83.7061 179.998C84.0332 179.646 84.4043 179.38 84.8193 179.2C85.2344 179.019 85.6641 178.929 86.1084 178.929C86.6748 178.929 87.1631 179.026 87.5732 179.222C87.9883 179.417 88.3276 179.69 88.5913 180.042C88.855 180.389 89.0503 180.799 89.1772 181.272C89.3042 181.741 89.3677 182.254 89.3677 182.811V183.418H83.4497V182.312H88.0127V182.21C87.9932 181.858 87.9199 181.517 87.793 181.185C87.6709 180.853 87.4756 180.579 87.207 180.364C86.9385 180.149 86.5723 180.042 86.1084 180.042C85.8008 180.042 85.5176 180.108 85.2588 180.24C85 180.367 84.7778 180.557 84.5923 180.811C84.4067 181.065 84.2627 181.375 84.1602 181.741C84.0576 182.107 84.0063 182.53 84.0063 183.008V183.316C84.0063 183.692 84.0576 184.046 84.1602 184.378C84.2676 184.705 84.4214 184.993 84.6216 185.242C84.8267 185.491 85.0732 185.687 85.3613 185.828C85.6543 185.97 85.9863 186.041 86.3574 186.041C86.8359 186.041 87.2412 185.943 87.5732 185.748C87.9053 185.552 88.1958 185.291 88.4448 184.964L89.2651 185.616C89.0942 185.875 88.877 186.121 88.6133 186.355C88.3496 186.59 88.0249 186.78 87.6392 186.927C87.2583 187.073 86.8066 187.146 86.2842 187.146ZM92.2974 180.65V187H90.9351V179.075H92.2241L92.2974 180.65ZM92.019 182.737L91.3892 182.715C91.394 182.173 91.4648 181.673 91.6016 181.214C91.7383 180.75 91.9409 180.347 92.2095 180.005C92.478 179.664 92.8125 179.4 93.2129 179.214C93.6133 179.024 94.0771 178.929 94.6045 178.929C94.9756 178.929 95.3174 178.982 95.6299 179.09C95.9424 179.192 96.2134 179.356 96.4429 179.581C96.6724 179.805 96.8506 180.093 96.9775 180.445C97.1045 180.796 97.168 181.221 97.168 181.719V187H95.813V181.785C95.813 181.37 95.7422 181.038 95.6006 180.789C95.4639 180.54 95.2686 180.359 95.0146 180.247C94.7607 180.13 94.4629 180.071 94.1211 180.071C93.7207 180.071 93.3862 180.142 93.1177 180.284C92.8491 180.425 92.6343 180.621 92.4731 180.87C92.312 181.119 92.1948 181.404 92.1216 181.727C92.0532 182.044 92.019 182.381 92.019 182.737ZM97.1533 181.99L96.2451 182.269C96.25 181.834 96.3208 181.417 96.4575 181.016C96.5991 180.616 96.8018 180.259 97.0654 179.947C97.334 179.634 97.6636 179.388 98.0542 179.207C98.4448 179.021 98.8916 178.929 99.3945 178.929C99.8193 178.929 100.195 178.985 100.522 179.097C100.854 179.209 101.133 179.383 101.357 179.617C101.587 179.847 101.76 180.142 101.877 180.503C101.995 180.865 102.053 181.294 102.053 181.792V187H100.691V181.778C100.691 181.333 100.62 180.989 100.479 180.745C100.342 180.496 100.146 180.323 99.8926 180.225C99.6436 180.123 99.3457 180.071 98.999 180.071C98.7012 180.071 98.4375 180.123 98.208 180.225C97.9785 180.328 97.7856 180.469 97.6294 180.65C97.4731 180.826 97.3535 181.028 97.2705 181.258C97.1924 181.487 97.1533 181.731 97.1533 181.99ZM107.393 187.146C106.841 187.146 106.34 187.054 105.891 186.868C105.447 186.678 105.063 186.412 104.741 186.07C104.424 185.728 104.18 185.323 104.009 184.854C103.838 184.385 103.752 183.873 103.752 183.316V183.008C103.752 182.364 103.848 181.79 104.038 181.287C104.229 180.779 104.487 180.35 104.814 179.998C105.142 179.646 105.513 179.38 105.928 179.2C106.343 179.019 106.772 178.929 107.217 178.929C107.783 178.929 108.271 179.026 108.682 179.222C109.097 179.417 109.436 179.69 109.7 180.042C109.963 180.389 110.159 180.799 110.286 181.272C110.413 181.741 110.476 182.254 110.476 182.811V183.418H104.558V182.312H109.121V182.21C109.102 181.858 109.028 181.517 108.901 181.185C108.779 180.853 108.584 180.579 108.315 180.364C108.047 180.149 107.681 180.042 107.217 180.042C106.909 180.042 106.626 180.108 106.367 180.24C106.108 180.367 105.886 180.557 105.701 180.811C105.515 181.065 105.371 181.375 105.269 181.741C105.166 182.107 105.115 182.53 105.115 183.008V183.316C105.115 183.692 105.166 184.046 105.269 184.378C105.376 184.705 105.53 184.993 105.73 185.242C105.935 185.491 106.182 185.687 106.47 185.828C106.763 185.97 107.095 186.041 107.466 186.041C107.944 186.041 108.35 185.943 108.682 185.748C109.014 185.552 109.304 185.291 109.553 184.964L110.374 185.616C110.203 185.875 109.985 186.121 109.722 186.355C109.458 186.59 109.133 186.78 108.748 186.927C108.367 187.073 107.915 187.146 107.393 187.146ZM113.413 180.767V187H112.058V179.075H113.34L113.413 180.767ZM113.091 182.737L112.527 182.715C112.532 182.173 112.612 181.673 112.769 181.214C112.925 180.75 113.145 180.347 113.428 180.005C113.711 179.664 114.048 179.4 114.438 179.214C114.834 179.024 115.271 178.929 115.75 178.929C116.14 178.929 116.492 178.982 116.804 179.09C117.117 179.192 117.383 179.358 117.603 179.588C117.827 179.817 117.998 180.115 118.115 180.481C118.232 180.843 118.291 181.285 118.291 181.807V187H116.929V181.792C116.929 181.377 116.868 181.045 116.746 180.796C116.624 180.542 116.445 180.359 116.211 180.247C115.977 180.13 115.688 180.071 115.347 180.071C115.01 180.071 114.702 180.142 114.424 180.284C114.15 180.425 113.914 180.621 113.713 180.87C113.518 181.119 113.364 181.404 113.252 181.727C113.145 182.044 113.091 182.381 113.091 182.737ZM123.667 179.075V180.115H119.382V179.075H123.667ZM120.833 177.149H122.188V185.037C122.188 185.306 122.229 185.508 122.312 185.645C122.395 185.782 122.502 185.872 122.634 185.916C122.766 185.96 122.908 185.982 123.059 185.982C123.171 185.982 123.289 185.972 123.411 185.953C123.538 185.928 123.633 185.909 123.696 185.894L123.704 187C123.596 187.034 123.455 187.066 123.279 187.095C123.108 187.129 122.9 187.146 122.656 187.146C122.324 187.146 122.019 187.081 121.741 186.949C121.462 186.817 121.24 186.597 121.074 186.29C120.913 185.977 120.833 185.557 120.833 185.03V177.149Z" fill="white"/>
<path opacity="0.12" d="M79 0.57735C79.6188 0.220084 80.3812 0.220085 81 0.57735L120.569 23.4226C121.188 23.7799 121.569 24.4402 121.569 25.1547V70.8453C121.569 71.5598 121.188 72.2201 120.569 72.5774L81 95.4226C80.3812 95.7799 79.6188 95.7799 79 95.4226L39.4308 72.5774C38.812 72.2201 38.4308 71.5598 38.4308 70.8453V25.1547C38.4308 24.4402 38.812 23.7799 39.4308 23.4226L79 0.57735Z" fill="white"/>
<path d="M88.8 27.76C88.8 32.6201 84.8601 36.56 80 36.56C75.1399 36.56 71.2 32.6201 71.2 27.76C71.2 22.8999 75.1399 18.96 80 18.96C84.8601 18.96 88.8 22.8999 88.8 27.76Z" fill="#946FFF"/>
<path d="M88.8 68.24C88.8 73.1001 84.8601 77.04 80 77.04C75.1399 77.04 71.2 73.1001 71.2 68.24C71.2 63.3799 75.1399 59.44 80 59.44C84.8601 59.44 88.8 63.3799 88.8 68.24Z" fill="#946FFF"/>
<path d="M59.76 56.8C64.6201 56.8 68.56 52.8601 68.56 48C68.56 43.1399 64.6201 39.2 59.76 39.2C54.8999 39.2 50.96 43.1399 50.96 48C50.96 52.8601 54.8999 56.8 59.76 56.8Z" fill="#946FFF"/>
<path d="M109.04 48C109.04 52.8601 105.1 56.8 100.24 56.8C95.3799 56.8 91.44 52.8601 91.44 48C91.44 43.1399 95.3799 39.2 100.24 39.2C105.1 39.2 109.04 43.1399 109.04 48Z" fill="#946FFF"/>
<path d="M73.5823 36.3023C73.7541 36.4741 73.7541 36.7527 73.5823 36.9245L68.9245 41.5823C68.7527 41.7541 68.4741 41.7541 68.3023 41.5823L67.0578 40.3378C66.8859 40.1659 66.8859 39.8873 67.0578 39.7155L71.7155 35.0578C71.8874 34.8859 72.1659 34.8859 72.3378 35.0578L73.5823 36.3023Z" fill="#946FFF"/>
<path d="M89.24 48.88C89.24 49.123 89.043 49.32 88.8 49.32H71.2C70.957 49.32 70.76 49.123 70.76 48.88V47.12C70.76 46.877 70.957 46.68 71.2 46.68H88.8C89.043 46.68 89.24 46.877 89.24 47.12V48.88Z" fill="#946FFF"/>
<path d="M88.2845 60.9423C88.1127 61.1141 87.8341 61.1141 87.6623 60.9423L86.4178 59.6978C86.2459 59.5259 86.2459 59.2473 86.4178 59.0755L91.0755 54.4178C91.2474 54.2459 91.5259 54.2459 91.6978 54.4178L92.9423 55.6623C93.1141 55.8341 93.1141 56.1127 92.9423 56.2845L88.2845 60.9423Z" fill="#946FFF"/>
<path d="M86.4178 36.3023C86.246 36.4741 86.246 36.7527 86.4178 36.9245L91.0755 41.5823C91.2474 41.7541 91.526 41.7541 91.6978 41.5823L92.9423 40.3378C93.1141 40.1659 93.1141 39.8873 92.9423 39.7155L88.2846 35.0578C88.1127 34.8859 87.8341 34.8859 87.6623 35.0578L86.4178 36.3023Z" fill="#946FFF"/>
<path d="M71.7155 60.9423C71.8874 61.1141 72.166 61.1141 72.3378 60.9423L73.5823 59.6978C73.7541 59.5259 73.7541 59.2473 73.5823 59.0755L68.9246 54.4178C68.7527 54.2459 68.4741 54.2459 68.3023 54.4178L67.0578 55.6623C66.886 55.8341 66.886 56.1127 67.0578 56.2845L71.7155 60.9423Z" fill="#946FFF"/>
</svg>
