<svg width="160" height="192" viewBox="0 0 160 192" fill="none" xmlns="http://www.w3.org/2000/svg">
<path d="M46.2305 122.781H51.2598C52.3405 122.781 53.2617 122.944 54.0234 123.27C54.7852 123.595 55.3678 124.077 55.7715 124.715C56.1816 125.346 56.3867 126.128 56.3867 127.059C56.3867 127.768 56.2565 128.393 55.9961 128.934C55.7357 129.474 55.3678 129.93 54.8926 130.301C54.4173 130.665 53.8509 130.949 53.1934 131.15L52.4512 131.512H47.9297L47.9102 129.568H51.2988C51.8848 129.568 52.373 129.464 52.7637 129.256C53.1543 129.048 53.4473 128.764 53.6426 128.406C53.8444 128.042 53.9453 127.632 53.9453 127.176C53.9453 126.681 53.8477 126.251 53.6523 125.887C53.4635 125.516 53.1706 125.232 52.7734 125.037C52.3763 124.835 51.8717 124.734 51.2598 124.734H48.6816V137H46.2305V122.781ZM54.3457 137L51.0059 130.613L53.5742 130.604L56.9629 136.873V137H54.3457ZM63.252 137.195C62.4707 137.195 61.7643 137.068 61.1328 136.814C60.5078 136.554 59.974 136.193 59.5312 135.73C59.0951 135.268 58.7598 134.725 58.5254 134.1C58.291 133.475 58.1738 132.801 58.1738 132.078V131.688C58.1738 130.861 58.2943 130.112 58.5352 129.441C58.776 128.771 59.1113 128.198 59.541 127.723C59.9707 127.241 60.4785 126.873 61.0645 126.619C61.6504 126.365 62.2852 126.238 62.9688 126.238C63.724 126.238 64.3848 126.365 64.9512 126.619C65.5176 126.873 65.9863 127.231 66.3574 127.693C66.735 128.149 67.015 128.693 67.1973 129.324C67.3861 129.956 67.4805 130.652 67.4805 131.414V132.42H59.3164V130.73H65.1562V130.545C65.1432 130.122 65.0586 129.725 64.9023 129.354C64.7526 128.982 64.5215 128.683 64.209 128.455C63.8965 128.227 63.4798 128.113 62.959 128.113C62.5684 128.113 62.2201 128.198 61.9141 128.367C61.6146 128.53 61.3639 128.768 61.1621 129.08C60.9603 129.393 60.804 129.77 60.6934 130.213C60.5892 130.649 60.5371 131.141 60.5371 131.688V132.078C60.5371 132.54 60.599 132.97 60.7227 133.367C60.8529 133.758 61.0417 134.1 61.2891 134.393C61.5365 134.686 61.8359 134.917 62.1875 135.086C62.5391 135.249 62.9395 135.33 63.3887 135.33C63.9551 135.33 64.4596 135.216 64.9023 134.988C65.3451 134.76 65.7292 134.438 66.0547 134.021L67.2949 135.223C67.0671 135.555 66.7708 135.874 66.4062 136.18C66.0417 136.479 65.5957 136.723 65.0684 136.912C64.5475 137.101 63.9421 137.195 63.252 137.195ZM71.6797 128.465V141.062H69.3262V126.434H71.4941L71.6797 128.465ZM78.5645 131.619V131.824C78.5645 132.592 78.4733 133.305 78.291 133.963C78.1152 134.614 77.8516 135.184 77.5 135.672C77.1549 136.154 76.7285 136.528 76.2207 136.795C75.7129 137.062 75.127 137.195 74.4629 137.195C73.8053 137.195 73.2292 137.075 72.7344 136.834C72.2461 136.587 71.8327 136.238 71.4941 135.789C71.1556 135.34 70.8822 134.812 70.6738 134.207C70.472 133.595 70.3288 132.924 70.2441 132.195V131.404C70.3288 130.63 70.472 129.926 70.6738 129.295C70.8822 128.663 71.1556 128.12 71.4941 127.664C71.8327 127.208 72.2461 126.857 72.7344 126.609C73.2227 126.362 73.7923 126.238 74.4434 126.238C75.1074 126.238 75.6966 126.368 76.2109 126.629C76.7253 126.883 77.1582 127.247 77.5098 127.723C77.8613 128.191 78.125 128.758 78.3008 129.422C78.4766 130.079 78.5645 130.812 78.5645 131.619ZM76.2109 131.824V131.619C76.2109 131.131 76.1654 130.678 76.0742 130.262C75.9831 129.839 75.8398 129.467 75.6445 129.148C75.4492 128.829 75.1986 128.582 74.8926 128.406C74.5931 128.224 74.2318 128.133 73.8086 128.133C73.3919 128.133 73.0339 128.204 72.7344 128.348C72.4349 128.484 72.1842 128.676 71.9824 128.924C71.7806 129.171 71.6243 129.461 71.5137 129.793C71.403 130.118 71.3249 130.473 71.2793 130.857V132.752C71.3574 133.221 71.4909 133.65 71.6797 134.041C71.8685 134.432 72.1354 134.744 72.4805 134.979C72.832 135.206 73.2812 135.32 73.8281 135.32C74.2513 135.32 74.6126 135.229 74.9121 135.047C75.2116 134.865 75.4557 134.614 75.6445 134.295C75.8398 133.969 75.9831 133.595 76.0742 133.172C76.1654 132.749 76.2109 132.299 76.2109 131.824ZM80.1172 131.834V131.609C80.1172 130.848 80.2279 130.141 80.4492 129.49C80.6706 128.833 80.9896 128.263 81.4062 127.781C81.8294 127.293 82.3438 126.915 82.9492 126.648C83.5612 126.375 84.2513 126.238 85.0195 126.238C85.7943 126.238 86.4844 126.375 87.0898 126.648C87.7018 126.915 88.2194 127.293 88.6426 127.781C89.0658 128.263 89.388 128.833 89.6094 129.49C89.8307 130.141 89.9414 130.848 89.9414 131.609V131.834C89.9414 132.596 89.8307 133.302 89.6094 133.953C89.388 134.604 89.0658 135.174 88.6426 135.662C88.2194 136.144 87.7051 136.521 87.0996 136.795C86.4941 137.062 85.8073 137.195 85.0391 137.195C84.2643 137.195 83.571 137.062 82.959 136.795C82.3535 136.521 81.8392 136.144 81.416 135.662C80.9928 135.174 80.6706 134.604 80.4492 133.953C80.2279 133.302 80.1172 132.596 80.1172 131.834ZM82.4707 131.609V131.834C82.4707 132.309 82.5195 132.758 82.6172 133.182C82.7148 133.605 82.8678 133.976 83.0762 134.295C83.2845 134.614 83.5514 134.865 83.877 135.047C84.2025 135.229 84.5898 135.32 85.0391 135.32C85.4753 135.32 85.8529 135.229 86.1719 135.047C86.4974 134.865 86.7643 134.614 86.9727 134.295C87.181 133.976 87.334 133.605 87.4316 133.182C87.5358 132.758 87.5879 132.309 87.5879 131.834V131.609C87.5879 131.141 87.5358 130.698 87.4316 130.281C87.334 129.858 87.1777 129.484 86.9629 129.158C86.7546 128.833 86.4876 128.579 86.1621 128.396C85.8431 128.208 85.4622 128.113 85.0195 128.113C84.5768 128.113 84.1927 128.208 83.8672 128.396C83.5482 128.579 83.2845 128.833 83.0762 129.158C82.8678 129.484 82.7148 129.858 82.6172 130.281C82.5195 130.698 82.4707 131.141 82.4707 131.609ZM94.2773 128.445V137H91.9238V126.434H94.1699L94.2773 128.445ZM97.5098 126.365L97.4902 128.553C97.347 128.527 97.1908 128.507 97.0215 128.494C96.8587 128.481 96.696 128.475 96.5332 128.475C96.1296 128.475 95.7747 128.533 95.4688 128.65C95.1628 128.761 94.9056 128.924 94.6973 129.139C94.4954 129.347 94.3392 129.601 94.2285 129.9C94.1178 130.2 94.0527 130.535 94.0332 130.906L93.4961 130.945C93.4961 130.281 93.5612 129.666 93.6914 129.1C93.8216 128.533 94.0169 128.035 94.2773 127.605C94.5443 127.176 94.8763 126.84 95.2734 126.6C95.6771 126.359 96.1426 126.238 96.6699 126.238C96.8132 126.238 96.9661 126.251 97.1289 126.277C97.2982 126.303 97.4251 126.333 97.5098 126.365ZM104.316 126.434V128.152H98.3594V126.434H104.316ZM100.078 123.846H102.432V134.08C102.432 134.406 102.477 134.656 102.568 134.832C102.666 135.001 102.799 135.115 102.969 135.174C103.138 135.232 103.337 135.262 103.564 135.262C103.727 135.262 103.883 135.252 104.033 135.232C104.183 135.213 104.303 135.193 104.395 135.174L104.404 136.971C104.209 137.029 103.981 137.081 103.721 137.127C103.467 137.173 103.174 137.195 102.842 137.195C102.301 137.195 101.823 137.101 101.406 136.912C100.99 136.717 100.664 136.401 100.43 135.965C100.195 135.529 100.078 134.949 100.078 134.227V123.846ZM112.061 134.139C112.061 133.904 112.002 133.693 111.885 133.504C111.768 133.309 111.543 133.133 111.211 132.977C110.885 132.82 110.404 132.677 109.766 132.547C109.206 132.423 108.691 132.277 108.223 132.107C107.76 131.932 107.363 131.72 107.031 131.473C106.699 131.225 106.442 130.932 106.26 130.594C106.077 130.255 105.986 129.865 105.986 129.422C105.986 128.992 106.081 128.585 106.27 128.201C106.458 127.817 106.729 127.479 107.08 127.186C107.432 126.893 107.858 126.661 108.359 126.492C108.867 126.323 109.434 126.238 110.059 126.238C110.944 126.238 111.702 126.388 112.334 126.688C112.972 126.98 113.46 127.381 113.799 127.889C114.137 128.39 114.307 128.956 114.307 129.588H111.953C111.953 129.308 111.882 129.048 111.738 128.807C111.602 128.559 111.393 128.361 111.113 128.211C110.833 128.055 110.482 127.977 110.059 127.977C109.655 127.977 109.32 128.042 109.053 128.172C108.792 128.296 108.597 128.458 108.467 128.66C108.343 128.862 108.281 129.083 108.281 129.324C108.281 129.5 108.314 129.66 108.379 129.803C108.451 129.939 108.568 130.066 108.73 130.184C108.893 130.294 109.115 130.398 109.395 130.496C109.681 130.594 110.039 130.688 110.469 130.779C111.276 130.949 111.969 131.167 112.549 131.434C113.135 131.694 113.584 132.033 113.896 132.449C114.209 132.859 114.365 133.38 114.365 134.012C114.365 134.48 114.264 134.91 114.062 135.301C113.867 135.685 113.581 136.02 113.203 136.307C112.826 136.587 112.373 136.805 111.846 136.961C111.325 137.117 110.739 137.195 110.088 137.195C109.131 137.195 108.32 137.026 107.656 136.688C106.992 136.342 106.488 135.903 106.143 135.369C105.804 134.829 105.635 134.269 105.635 133.689H107.91C107.936 134.126 108.057 134.474 108.271 134.734C108.493 134.988 108.766 135.174 109.092 135.291C109.424 135.402 109.766 135.457 110.117 135.457C110.54 135.457 110.895 135.402 111.182 135.291C111.468 135.174 111.686 135.018 111.836 134.822C111.986 134.62 112.061 134.393 112.061 134.139Z" fill="white"/>
<path opacity="0.6" d="M43.9868 162.609H45.3931C45.3198 163.283 45.127 163.886 44.8145 164.418C44.502 164.95 44.0601 165.373 43.4888 165.685C42.9175 165.993 42.2046 166.146 41.3501 166.146C40.7251 166.146 40.1562 166.029 39.6436 165.795C39.1357 165.561 38.6987 165.229 38.3325 164.799C37.9663 164.364 37.6831 163.844 37.4829 163.239C37.2876 162.628 37.1899 161.95 37.1899 161.203V160.141C37.1899 159.394 37.2876 158.717 37.4829 158.112C37.6831 157.501 37.9688 156.979 38.3398 156.544C38.7158 156.11 39.1675 155.775 39.6948 155.541C40.2222 155.307 40.8154 155.189 41.4746 155.189C42.2803 155.189 42.9614 155.341 43.5181 155.644C44.0747 155.946 44.5068 156.366 44.8145 156.903C45.127 157.436 45.3198 158.053 45.3931 158.756H43.9868C43.9185 158.258 43.7915 157.831 43.606 157.475C43.4204 157.113 43.1567 156.835 42.8149 156.64C42.4731 156.444 42.0264 156.347 41.4746 156.347C41.001 156.347 40.5835 156.437 40.2222 156.618C39.8657 156.798 39.5654 157.055 39.3213 157.387C39.082 157.719 38.9014 158.117 38.7793 158.581C38.6572 159.044 38.5962 159.56 38.5962 160.126V161.203C38.5962 161.725 38.6499 162.216 38.7573 162.675C38.8696 163.134 39.0381 163.537 39.2627 163.883C39.4873 164.23 39.7729 164.503 40.1196 164.704C40.4663 164.899 40.8765 164.997 41.3501 164.997C41.9507 164.997 42.4292 164.901 42.7856 164.711C43.1421 164.521 43.4106 164.247 43.5913 163.891C43.7769 163.534 43.9087 163.107 43.9868 162.609ZM46.7554 162.125V161.957C46.7554 161.386 46.8384 160.856 47.0044 160.368C47.1704 159.875 47.4097 159.447 47.7222 159.086C48.0347 158.72 48.4131 158.437 48.8574 158.236C49.3018 158.031 49.7998 157.929 50.3516 157.929C50.9082 157.929 51.4087 158.031 51.853 158.236C52.3022 158.437 52.6831 158.72 52.9956 159.086C53.313 159.447 53.5547 159.875 53.7207 160.368C53.8867 160.856 53.9697 161.386 53.9697 161.957V162.125C53.9697 162.697 53.8867 163.227 53.7207 163.715C53.5547 164.203 53.313 164.63 52.9956 164.997C52.6831 165.358 52.3047 165.641 51.8604 165.846C51.4209 166.046 50.9229 166.146 50.3662 166.146C49.8096 166.146 49.3091 166.046 48.8647 165.846C48.4204 165.641 48.0396 165.358 47.7222 164.997C47.4097 164.63 47.1704 164.203 47.0044 163.715C46.8384 163.227 46.7554 162.697 46.7554 162.125ZM48.1104 161.957V162.125C48.1104 162.521 48.1567 162.895 48.2495 163.246C48.3423 163.593 48.4814 163.9 48.667 164.169C48.8574 164.438 49.0942 164.65 49.3774 164.806C49.6606 164.958 49.9902 165.033 50.3662 165.033C50.7373 165.033 51.062 164.958 51.3403 164.806C51.6235 164.65 51.8579 164.438 52.0435 164.169C52.229 163.9 52.3682 163.593 52.4609 163.246C52.5586 162.895 52.6074 162.521 52.6074 162.125V161.957C52.6074 161.566 52.5586 161.198 52.4609 160.851C52.3682 160.5 52.2266 160.189 52.0361 159.921C51.8506 159.647 51.6162 159.433 51.333 159.276C51.0547 159.12 50.7275 159.042 50.3516 159.042C49.9805 159.042 49.6533 159.12 49.3701 159.276C49.0918 159.433 48.8574 159.647 48.667 159.921C48.4814 160.189 48.3423 160.5 48.2495 160.851C48.1567 161.198 48.1104 161.566 48.1104 161.957ZM57.1411 154.75V166H55.7788V154.75H57.1411ZM60.7886 154.75V166H59.4263V154.75H60.7886ZM67.6367 164.645V160.565C67.6367 160.253 67.5732 159.982 67.4463 159.752C67.3242 159.518 67.1387 159.337 66.8896 159.21C66.6406 159.083 66.333 159.02 65.9668 159.02C65.625 159.02 65.3247 159.079 65.0659 159.196C64.812 159.313 64.6118 159.467 64.4653 159.657C64.3237 159.848 64.2529 160.053 64.2529 160.272H62.8979C62.8979 159.989 62.9712 159.708 63.1177 159.43C63.2642 159.152 63.4741 158.9 63.7476 158.676C64.0259 158.446 64.3579 158.266 64.7437 158.134C65.1343 157.997 65.5688 157.929 66.0474 157.929C66.6235 157.929 67.1313 158.026 67.5708 158.222C68.0151 158.417 68.3618 158.712 68.6108 159.108C68.8647 159.499 68.9917 159.989 68.9917 160.58V164.271C68.9917 164.535 69.0137 164.816 69.0576 165.114C69.1064 165.412 69.1772 165.668 69.27 165.883V166H67.8564C67.7881 165.844 67.7344 165.636 67.6953 165.377C67.6562 165.114 67.6367 164.87 67.6367 164.645ZM67.8711 161.195L67.8857 162.147H66.5161C66.1304 162.147 65.7861 162.179 65.4834 162.243C65.1807 162.301 64.9268 162.392 64.7217 162.514C64.5166 162.636 64.3604 162.79 64.2529 162.975C64.1455 163.156 64.0918 163.368 64.0918 163.612C64.0918 163.861 64.1479 164.088 64.2603 164.293C64.3726 164.499 64.541 164.662 64.7656 164.784C64.9951 164.901 65.2759 164.96 65.6079 164.96C66.0229 164.96 66.3892 164.872 66.7065 164.696C67.0239 164.521 67.2754 164.306 67.4609 164.052C67.6514 163.798 67.7539 163.551 67.7686 163.312L68.3472 163.964C68.313 164.169 68.2202 164.396 68.0688 164.645C67.9175 164.894 67.7148 165.133 67.4609 165.363C67.2119 165.587 66.9141 165.775 66.5674 165.927C66.2256 166.073 65.8398 166.146 65.4102 166.146C64.873 166.146 64.4019 166.042 63.9966 165.832C63.5962 165.622 63.2837 165.341 63.0591 164.989C62.8394 164.633 62.7295 164.235 62.7295 163.795C62.7295 163.371 62.8125 162.997 62.9785 162.675C63.1445 162.348 63.3838 162.077 63.6963 161.862C64.0088 161.642 64.3848 161.476 64.8242 161.364C65.2637 161.251 65.7544 161.195 66.2964 161.195H67.8711ZM71.1157 154.75H72.478V164.462L72.3608 166H71.1157V154.75ZM77.832 161.972V162.125C77.832 162.702 77.7637 163.236 77.627 163.729C77.4902 164.218 77.29 164.643 77.0264 165.004C76.7627 165.365 76.4404 165.646 76.0596 165.846C75.6787 166.046 75.2417 166.146 74.7485 166.146C74.2456 166.146 73.8037 166.061 73.4229 165.89C73.0469 165.714 72.7295 165.463 72.4707 165.136C72.2119 164.809 72.0044 164.413 71.8481 163.949C71.6968 163.485 71.5918 162.963 71.5332 162.382V161.708C71.5918 161.122 71.6968 160.597 71.8481 160.133C72.0044 159.669 72.2119 159.274 72.4707 158.947C72.7295 158.615 73.0469 158.363 73.4229 158.192C73.7988 158.017 74.2358 157.929 74.7339 157.929C75.2319 157.929 75.6738 158.026 76.0596 158.222C76.4453 158.412 76.7676 158.686 77.0264 159.042C77.29 159.398 77.4902 159.826 77.627 160.324C77.7637 160.817 77.832 161.366 77.832 161.972ZM76.4697 162.125V161.972C76.4697 161.576 76.4331 161.205 76.3599 160.858C76.2866 160.507 76.1694 160.199 76.0083 159.936C75.8472 159.667 75.6348 159.457 75.3711 159.306C75.1074 159.149 74.7827 159.071 74.397 159.071C74.0552 159.071 73.7573 159.13 73.5034 159.247C73.2544 159.364 73.042 159.523 72.8662 159.723C72.6904 159.918 72.5464 160.143 72.4341 160.397C72.3267 160.646 72.2461 160.905 72.1924 161.173V162.938C72.2705 163.28 72.3975 163.61 72.5732 163.927C72.7539 164.24 72.9932 164.496 73.291 164.696C73.5938 164.896 73.9673 164.997 74.4116 164.997C74.7778 164.997 75.0903 164.923 75.3491 164.777C75.6128 164.625 75.8252 164.418 75.9863 164.154C76.1523 163.891 76.2744 163.585 76.3525 163.239C76.4307 162.892 76.4697 162.521 76.4697 162.125ZM79.187 162.125V161.957C79.187 161.386 79.27 160.856 79.436 160.368C79.6021 159.875 79.8413 159.447 80.1538 159.086C80.4663 158.72 80.8447 158.437 81.2891 158.236C81.7334 158.031 82.2314 157.929 82.7832 157.929C83.3398 157.929 83.8403 158.031 84.2847 158.236C84.7339 158.437 85.1147 158.72 85.4272 159.086C85.7446 159.447 85.9863 159.875 86.1523 160.368C86.3184 160.856 86.4014 161.386 86.4014 161.957V162.125C86.4014 162.697 86.3184 163.227 86.1523 163.715C85.9863 164.203 85.7446 164.63 85.4272 164.997C85.1147 165.358 84.7363 165.641 84.292 165.846C83.8525 166.046 83.3545 166.146 82.7979 166.146C82.2412 166.146 81.7407 166.046 81.2964 165.846C80.8521 165.641 80.4712 165.358 80.1538 164.997C79.8413 164.63 79.6021 164.203 79.436 163.715C79.27 163.227 79.187 162.697 79.187 162.125ZM80.542 161.957V162.125C80.542 162.521 80.5884 162.895 80.6812 163.246C80.7739 163.593 80.9131 163.9 81.0986 164.169C81.2891 164.438 81.5259 164.65 81.8091 164.806C82.0923 164.958 82.4219 165.033 82.7979 165.033C83.1689 165.033 83.4937 164.958 83.772 164.806C84.0552 164.65 84.2896 164.438 84.4751 164.169C84.6606 163.9 84.7998 163.593 84.8926 163.246C84.9902 162.895 85.0391 162.521 85.0391 162.125V161.957C85.0391 161.566 84.9902 161.198 84.8926 160.851C84.7998 160.5 84.6582 160.189 84.4678 159.921C84.2822 159.647 84.0479 159.433 83.7646 159.276C83.4863 159.12 83.1592 159.042 82.7832 159.042C82.4121 159.042 82.085 159.12 81.8018 159.276C81.5234 159.433 81.2891 159.647 81.0986 159.921C80.9131 160.189 80.7739 160.5 80.6812 160.851C80.5884 161.198 80.542 161.566 80.542 161.957ZM89.4556 159.32V166H88.1006V158.075H89.4189L89.4556 159.32ZM91.9312 158.031L91.9238 159.291C91.8115 159.267 91.7041 159.252 91.6016 159.247C91.5039 159.237 91.3916 159.232 91.2646 159.232C90.9521 159.232 90.6763 159.281 90.437 159.379C90.1978 159.477 89.9951 159.613 89.8291 159.789C89.6631 159.965 89.5312 160.175 89.4336 160.419C89.3408 160.658 89.2798 160.922 89.2505 161.21L88.8696 161.43C88.8696 160.951 88.916 160.502 89.0088 160.082C89.1064 159.662 89.2554 159.291 89.4556 158.969C89.6558 158.642 89.9097 158.388 90.2173 158.207C90.5298 158.021 90.9009 157.929 91.3306 157.929C91.4282 157.929 91.5405 157.941 91.6675 157.965C91.7944 157.985 91.8823 158.007 91.9312 158.031ZM97.5635 164.645V160.565C97.5635 160.253 97.5 159.982 97.373 159.752C97.251 159.518 97.0654 159.337 96.8164 159.21C96.5674 159.083 96.2598 159.02 95.8936 159.02C95.5518 159.02 95.2515 159.079 94.9927 159.196C94.7388 159.313 94.5386 159.467 94.3921 159.657C94.2505 159.848 94.1797 160.053 94.1797 160.272H92.8247C92.8247 159.989 92.8979 159.708 93.0444 159.43C93.1909 159.152 93.4009 158.9 93.6743 158.676C93.9526 158.446 94.2847 158.266 94.6704 158.134C95.061 157.997 95.4956 157.929 95.9741 157.929C96.5503 157.929 97.0581 158.026 97.4976 158.222C97.9419 158.417 98.2886 158.712 98.5376 159.108C98.7915 159.499 98.9185 159.989 98.9185 160.58V164.271C98.9185 164.535 98.9404 164.816 98.9844 165.114C99.0332 165.412 99.104 165.668 99.1968 165.883V166H97.7832C97.7148 165.844 97.6611 165.636 97.6221 165.377C97.583 165.114 97.5635 164.87 97.5635 164.645ZM97.7979 161.195L97.8125 162.147H96.4429C96.0571 162.147 95.7129 162.179 95.4102 162.243C95.1074 162.301 94.8535 162.392 94.6484 162.514C94.4434 162.636 94.2871 162.79 94.1797 162.975C94.0723 163.156 94.0186 163.368 94.0186 163.612C94.0186 163.861 94.0747 164.088 94.187 164.293C94.2993 164.499 94.4678 164.662 94.6924 164.784C94.9219 164.901 95.2026 164.96 95.5347 164.96C95.9497 164.96 96.3159 164.872 96.6333 164.696C96.9507 164.521 97.2021 164.306 97.3877 164.052C97.5781 163.798 97.6807 163.551 97.6953 163.312L98.2739 163.964C98.2397 164.169 98.147 164.396 97.9956 164.645C97.8442 164.894 97.6416 165.133 97.3877 165.363C97.1387 165.587 96.8408 165.775 96.4941 165.927C96.1523 166.073 95.7666 166.146 95.3369 166.146C94.7998 166.146 94.3286 166.042 93.9233 165.832C93.5229 165.622 93.2104 165.341 92.9858 164.989C92.7661 164.633 92.6562 164.235 92.6562 163.795C92.6562 163.371 92.7393 162.997 92.9053 162.675C93.0713 162.348 93.3105 162.077 93.623 161.862C93.9355 161.642 94.3115 161.476 94.751 161.364C95.1904 161.251 95.6812 161.195 96.2231 161.195H97.7979ZM104.368 158.075V159.115H100.083V158.075H104.368ZM101.533 156.149H102.888V164.037C102.888 164.306 102.93 164.508 103.013 164.645C103.096 164.782 103.203 164.872 103.335 164.916C103.467 164.96 103.608 164.982 103.76 164.982C103.872 164.982 103.989 164.972 104.111 164.953C104.238 164.928 104.333 164.909 104.397 164.894L104.404 166C104.297 166.034 104.155 166.066 103.979 166.095C103.809 166.129 103.601 166.146 103.357 166.146C103.025 166.146 102.72 166.081 102.441 165.949C102.163 165.817 101.941 165.597 101.775 165.29C101.614 164.977 101.533 164.557 101.533 164.03V156.149ZM107.429 158.075V166H106.067V158.075H107.429ZM105.964 155.973C105.964 155.753 106.03 155.568 106.162 155.417C106.299 155.265 106.499 155.189 106.763 155.189C107.021 155.189 107.219 155.265 107.356 155.417C107.498 155.568 107.568 155.753 107.568 155.973C107.568 156.183 107.498 156.364 107.356 156.515C107.219 156.662 107.021 156.735 106.763 156.735C106.499 156.735 106.299 156.662 106.162 156.515C106.03 156.364 105.964 156.183 105.964 155.973ZM112.014 164.777L114.182 158.075H115.566L112.717 166H111.809L112.014 164.777ZM110.205 158.075L112.439 164.813L112.593 166H111.685L108.813 158.075H110.205ZM120.056 166.146C119.504 166.146 119.004 166.054 118.555 165.868C118.11 165.678 117.727 165.412 117.405 165.07C117.087 164.728 116.843 164.323 116.672 163.854C116.501 163.385 116.416 162.873 116.416 162.316V162.008C116.416 161.364 116.511 160.79 116.702 160.287C116.892 159.779 117.151 159.35 117.478 158.998C117.805 158.646 118.176 158.38 118.591 158.2C119.006 158.019 119.436 157.929 119.88 157.929C120.447 157.929 120.935 158.026 121.345 158.222C121.76 158.417 122.1 158.69 122.363 159.042C122.627 159.389 122.822 159.799 122.949 160.272C123.076 160.741 123.14 161.254 123.14 161.811V162.418H117.222V161.312H121.785V161.21C121.765 160.858 121.692 160.517 121.565 160.185C121.443 159.853 121.248 159.579 120.979 159.364C120.71 159.149 120.344 159.042 119.88 159.042C119.573 159.042 119.29 159.108 119.031 159.24C118.772 159.367 118.55 159.557 118.364 159.811C118.179 160.065 118.035 160.375 117.932 160.741C117.83 161.107 117.778 161.53 117.778 162.008V162.316C117.778 162.692 117.83 163.046 117.932 163.378C118.04 163.705 118.193 163.993 118.394 164.242C118.599 164.491 118.845 164.687 119.133 164.828C119.426 164.97 119.758 165.041 120.129 165.041C120.608 165.041 121.013 164.943 121.345 164.748C121.677 164.552 121.968 164.291 122.217 163.964L123.037 164.616C122.866 164.875 122.649 165.121 122.385 165.355C122.122 165.59 121.797 165.78 121.411 165.927C121.03 166.073 120.579 166.146 120.056 166.146ZM46.5649 185.462V175.75H47.9272V187H46.6821L46.5649 185.462ZM41.2329 183.125V182.972C41.2329 182.366 41.3062 181.817 41.4526 181.324C41.604 180.826 41.8164 180.398 42.0898 180.042C42.3682 179.686 42.6978 179.412 43.0786 179.222C43.4644 179.026 43.894 178.929 44.3677 178.929C44.8657 178.929 45.3003 179.017 45.6714 179.192C46.0474 179.363 46.3647 179.615 46.6235 179.947C46.8872 180.274 47.0947 180.669 47.2461 181.133C47.3975 181.597 47.5024 182.122 47.561 182.708V183.382C47.5073 183.963 47.4023 184.485 47.2461 184.949C47.0947 185.413 46.8872 185.809 46.6235 186.136C46.3647 186.463 46.0474 186.714 45.6714 186.89C45.2954 187.061 44.856 187.146 44.353 187.146C43.8892 187.146 43.4644 187.046 43.0786 186.846C42.6978 186.646 42.3682 186.365 42.0898 186.004C41.8164 185.643 41.604 185.218 41.4526 184.729C41.3062 184.236 41.2329 183.702 41.2329 183.125ZM42.5952 182.972V183.125C42.5952 183.521 42.6343 183.892 42.7124 184.239C42.7954 184.585 42.9224 184.891 43.0933 185.154C43.2642 185.418 43.4814 185.625 43.7451 185.777C44.0088 185.923 44.3237 185.997 44.6899 185.997C45.1392 185.997 45.5078 185.901 45.7959 185.711C46.0889 185.521 46.3232 185.269 46.499 184.957C46.6748 184.644 46.8115 184.305 46.9092 183.938V182.173C46.8506 181.905 46.7651 181.646 46.6528 181.397C46.5454 181.143 46.4038 180.918 46.228 180.723C46.0571 180.523 45.8447 180.364 45.5908 180.247C45.3418 180.13 45.0464 180.071 44.7046 180.071C44.3335 180.071 44.0137 180.149 43.7451 180.306C43.4814 180.457 43.2642 180.667 43.0933 180.936C42.9224 181.199 42.7954 181.507 42.7124 181.858C42.6343 182.205 42.5952 182.576 42.5952 182.972ZM54.7095 185.645V181.565C54.7095 181.253 54.646 180.982 54.519 180.752C54.397 180.518 54.2114 180.337 53.9624 180.21C53.7134 180.083 53.4058 180.02 53.0396 180.02C52.6978 180.02 52.3975 180.079 52.1387 180.196C51.8848 180.313 51.6846 180.467 51.5381 180.657C51.3965 180.848 51.3257 181.053 51.3257 181.272H49.9707C49.9707 180.989 50.0439 180.708 50.1904 180.43C50.3369 180.152 50.5469 179.9 50.8203 179.676C51.0986 179.446 51.4307 179.266 51.8164 179.134C52.207 178.997 52.6416 178.929 53.1201 178.929C53.6963 178.929 54.2041 179.026 54.6436 179.222C55.0879 179.417 55.4346 179.712 55.6836 180.108C55.9375 180.499 56.0645 180.989 56.0645 181.58V185.271C56.0645 185.535 56.0864 185.816 56.1304 186.114C56.1792 186.412 56.25 186.668 56.3428 186.883V187H54.9292C54.8608 186.844 54.8071 186.636 54.7681 186.377C54.729 186.114 54.7095 185.87 54.7095 185.645ZM54.9438 182.195L54.9585 183.147H53.5889C53.2031 183.147 52.8589 183.179 52.5562 183.243C52.2534 183.301 51.9995 183.392 51.7944 183.514C51.5894 183.636 51.4331 183.79 51.3257 183.975C51.2183 184.156 51.1646 184.368 51.1646 184.612C51.1646 184.861 51.2207 185.088 51.333 185.293C51.4453 185.499 51.6138 185.662 51.8384 185.784C52.0679 185.901 52.3486 185.96 52.6807 185.96C53.0957 185.96 53.4619 185.872 53.7793 185.696C54.0967 185.521 54.3481 185.306 54.5337 185.052C54.7241 184.798 54.8267 184.551 54.8413 184.312L55.4199 184.964C55.3857 185.169 55.293 185.396 55.1416 185.645C54.9902 185.894 54.7876 186.133 54.5337 186.363C54.2847 186.587 53.9868 186.775 53.6401 186.927C53.2983 187.073 52.9126 187.146 52.4829 187.146C51.9458 187.146 51.4746 187.042 51.0693 186.832C50.6689 186.622 50.3564 186.341 50.1318 185.989C49.9121 185.633 49.8022 185.235 49.8022 184.795C49.8022 184.371 49.8853 183.997 50.0513 183.675C50.2173 183.348 50.4565 183.077 50.769 182.862C51.0815 182.642 51.4575 182.476 51.897 182.364C52.3364 182.251 52.8271 182.195 53.3691 182.195H54.9438ZM62.8101 184.898C62.8101 184.703 62.7661 184.522 62.6782 184.356C62.5952 184.185 62.4219 184.031 62.1582 183.895C61.8994 183.753 61.5088 183.631 60.9863 183.528C60.5469 183.436 60.1489 183.326 59.7925 183.199C59.4409 183.072 59.1406 182.918 58.8916 182.737C58.6475 182.557 58.4595 182.344 58.3276 182.1C58.1958 181.856 58.1299 181.57 58.1299 181.243C58.1299 180.931 58.1982 180.635 58.335 180.357C58.4766 180.079 58.6743 179.832 58.9282 179.617C59.187 179.402 59.4971 179.234 59.8584 179.112C60.2197 178.99 60.6226 178.929 61.0669 178.929C61.7017 178.929 62.2437 179.041 62.6929 179.266C63.1421 179.49 63.4863 179.791 63.7256 180.167C63.9648 180.538 64.0845 180.95 64.0845 181.404H62.7295C62.7295 181.185 62.6636 180.972 62.5317 180.767C62.4048 180.557 62.2168 180.384 61.9678 180.247C61.7236 180.11 61.4233 180.042 61.0669 180.042C60.6909 180.042 60.3857 180.101 60.1514 180.218C59.9219 180.33 59.7534 180.474 59.646 180.65C59.5435 180.826 59.4922 181.011 59.4922 181.207C59.4922 181.353 59.5166 181.485 59.5654 181.602C59.6191 181.714 59.7119 181.819 59.8438 181.917C59.9756 182.01 60.1611 182.098 60.4004 182.181C60.6396 182.264 60.9448 182.347 61.3159 182.43C61.9653 182.576 62.5 182.752 62.9199 182.957C63.3398 183.162 63.6523 183.414 63.8574 183.711C64.0625 184.009 64.165 184.371 64.165 184.795C64.165 185.142 64.0918 185.459 63.9453 185.748C63.8037 186.036 63.5962 186.285 63.3228 186.495C63.0542 186.7 62.7319 186.861 62.356 186.978C61.9849 187.09 61.5674 187.146 61.1035 187.146C60.4053 187.146 59.8145 187.022 59.3311 186.773C58.8477 186.524 58.4814 186.202 58.2324 185.806C57.9834 185.411 57.8589 184.993 57.8589 184.554H59.2212C59.2407 184.925 59.3481 185.22 59.5435 185.44C59.7388 185.655 59.978 185.809 60.2612 185.901C60.5444 185.989 60.8252 186.033 61.1035 186.033C61.4746 186.033 61.7847 185.984 62.0337 185.887C62.2876 185.789 62.4805 185.655 62.6123 185.484C62.7441 185.313 62.8101 185.118 62.8101 184.898ZM67.2998 175.75V187H65.9448V175.75H67.2998ZM66.9775 182.737L66.4136 182.715C66.4185 182.173 66.499 181.673 66.6553 181.214C66.8115 180.75 67.0312 180.347 67.3145 180.005C67.5977 179.664 67.9346 179.4 68.3252 179.214C68.7207 179.024 69.1577 178.929 69.6362 178.929C70.0269 178.929 70.3784 178.982 70.6909 179.09C71.0034 179.192 71.2695 179.358 71.4893 179.588C71.7139 179.817 71.8848 180.115 72.002 180.481C72.1191 180.843 72.1777 181.285 72.1777 181.807V187H70.8154V181.792C70.8154 181.377 70.7544 181.045 70.6323 180.796C70.5103 180.542 70.332 180.359 70.0977 180.247C69.8633 180.13 69.5752 180.071 69.2334 180.071C68.8965 180.071 68.5889 180.142 68.3105 180.284C68.0371 180.425 67.8003 180.621 67.6001 180.87C67.4048 181.119 67.251 181.404 67.1387 181.727C67.0312 182.044 66.9775 182.381 66.9775 182.737ZM74.1992 175.75H75.5615V185.462L75.4443 187H74.1992V175.75ZM80.9155 182.972V183.125C80.9155 183.702 80.8472 184.236 80.7104 184.729C80.5737 185.218 80.3735 185.643 80.1099 186.004C79.8462 186.365 79.5239 186.646 79.1431 186.846C78.7622 187.046 78.3252 187.146 77.832 187.146C77.3291 187.146 76.8872 187.061 76.5063 186.89C76.1304 186.714 75.813 186.463 75.5542 186.136C75.2954 185.809 75.0879 185.413 74.9316 184.949C74.7803 184.485 74.6753 183.963 74.6167 183.382V182.708C74.6753 182.122 74.7803 181.597 74.9316 181.133C75.0879 180.669 75.2954 180.274 75.5542 179.947C75.813 179.615 76.1304 179.363 76.5063 179.192C76.8823 179.017 77.3193 178.929 77.8174 178.929C78.3154 178.929 78.7573 179.026 79.1431 179.222C79.5288 179.412 79.8511 179.686 80.1099 180.042C80.3735 180.398 80.5737 180.826 80.7104 181.324C80.8472 181.817 80.9155 182.366 80.9155 182.972ZM79.5532 183.125V182.972C79.5532 182.576 79.5166 182.205 79.4434 181.858C79.3701 181.507 79.2529 181.199 79.0918 180.936C78.9307 180.667 78.7183 180.457 78.4546 180.306C78.1909 180.149 77.8662 180.071 77.4805 180.071C77.1387 180.071 76.8408 180.13 76.5869 180.247C76.3379 180.364 76.1255 180.523 75.9497 180.723C75.7739 180.918 75.6299 181.143 75.5176 181.397C75.4102 181.646 75.3296 181.905 75.2759 182.173V183.938C75.354 184.28 75.481 184.61 75.6567 184.927C75.8374 185.24 76.0767 185.496 76.3745 185.696C76.6772 185.896 77.0508 185.997 77.4951 185.997C77.8613 185.997 78.1738 185.923 78.4326 185.777C78.6963 185.625 78.9087 185.418 79.0698 185.154C79.2358 184.891 79.3579 184.585 79.436 184.239C79.5142 183.892 79.5532 183.521 79.5532 183.125ZM82.2705 183.125V182.957C82.2705 182.386 82.3535 181.856 82.5195 181.368C82.6855 180.875 82.9248 180.447 83.2373 180.086C83.5498 179.72 83.9282 179.437 84.3726 179.236C84.8169 179.031 85.3149 178.929 85.8667 178.929C86.4233 178.929 86.9238 179.031 87.3682 179.236C87.8174 179.437 88.1982 179.72 88.5107 180.086C88.8281 180.447 89.0698 180.875 89.2358 181.368C89.4019 181.856 89.4849 182.386 89.4849 182.957V183.125C89.4849 183.697 89.4019 184.227 89.2358 184.715C89.0698 185.203 88.8281 185.63 88.5107 185.997C88.1982 186.358 87.8198 186.641 87.3755 186.846C86.936 187.046 86.438 187.146 85.8813 187.146C85.3247 187.146 84.8242 187.046 84.3799 186.846C83.9355 186.641 83.5547 186.358 83.2373 185.997C82.9248 185.63 82.6855 185.203 82.5195 184.715C82.3535 184.227 82.2705 183.697 82.2705 183.125ZM83.6255 182.957V183.125C83.6255 183.521 83.6719 183.895 83.7646 184.246C83.8574 184.593 83.9966 184.9 84.1821 185.169C84.3726 185.438 84.6094 185.65 84.8926 185.806C85.1758 185.958 85.5054 186.033 85.8813 186.033C86.2524 186.033 86.5771 185.958 86.8555 185.806C87.1387 185.65 87.373 185.438 87.5586 185.169C87.7441 184.9 87.8833 184.593 87.9761 184.246C88.0737 183.895 88.1226 183.521 88.1226 183.125V182.957C88.1226 182.566 88.0737 182.198 87.9761 181.851C87.8833 181.5 87.7417 181.189 87.5513 180.921C87.3657 180.647 87.1313 180.433 86.8481 180.276C86.5698 180.12 86.2427 180.042 85.8667 180.042C85.4956 180.042 85.1685 180.12 84.8853 180.276C84.6069 180.433 84.3726 180.647 84.1821 180.921C83.9966 181.189 83.8574 181.5 83.7646 181.851C83.6719 182.198 83.6255 182.566 83.6255 182.957ZM95.8569 185.645V181.565C95.8569 181.253 95.7935 180.982 95.6665 180.752C95.5444 180.518 95.3589 180.337 95.1099 180.21C94.8608 180.083 94.5532 180.02 94.187 180.02C93.8452 180.02 93.5449 180.079 93.2861 180.196C93.0322 180.313 92.832 180.467 92.6855 180.657C92.5439 180.848 92.4731 181.053 92.4731 181.272H91.1182C91.1182 180.989 91.1914 180.708 91.3379 180.43C91.4844 180.152 91.6943 179.9 91.9678 179.676C92.2461 179.446 92.5781 179.266 92.9639 179.134C93.3545 178.997 93.7891 178.929 94.2676 178.929C94.8438 178.929 95.3516 179.026 95.791 179.222C96.2354 179.417 96.582 179.712 96.8311 180.108C97.085 180.499 97.2119 180.989 97.2119 181.58V185.271C97.2119 185.535 97.2339 185.816 97.2778 186.114C97.3267 186.412 97.3975 186.668 97.4902 186.883V187H96.0767C96.0083 186.844 95.9546 186.636 95.9155 186.377C95.8765 186.114 95.8569 185.87 95.8569 185.645ZM96.0913 182.195L96.106 183.147H94.7363C94.3506 183.147 94.0063 183.179 93.7036 183.243C93.4009 183.301 93.147 183.392 92.9419 183.514C92.7368 183.636 92.5806 183.79 92.4731 183.975C92.3657 184.156 92.312 184.368 92.312 184.612C92.312 184.861 92.3682 185.088 92.4805 185.293C92.5928 185.499 92.7612 185.662 92.9858 185.784C93.2153 185.901 93.4961 185.96 93.8281 185.96C94.2432 185.96 94.6094 185.872 94.9268 185.696C95.2441 185.521 95.4956 185.306 95.6812 185.052C95.8716 184.798 95.9741 184.551 95.9888 184.312L96.5674 184.964C96.5332 185.169 96.4404 185.396 96.2891 185.645C96.1377 185.894 95.9351 186.133 95.6812 186.363C95.4321 186.587 95.1343 186.775 94.7876 186.927C94.4458 187.073 94.0601 187.146 93.6304 187.146C93.0933 187.146 92.6221 187.042 92.2168 186.832C91.8164 186.622 91.5039 186.341 91.2793 185.989C91.0596 185.633 90.9497 185.235 90.9497 184.795C90.9497 184.371 91.0327 183.997 91.1987 183.675C91.3647 183.348 91.604 183.077 91.9165 182.862C92.229 182.642 92.605 182.476 93.0444 182.364C93.4839 182.251 93.9746 182.195 94.5166 182.195H96.0913ZM100.698 180.32V187H99.3433V179.075H100.662L100.698 180.32ZM103.174 179.031L103.167 180.291C103.054 180.267 102.947 180.252 102.844 180.247C102.747 180.237 102.634 180.232 102.507 180.232C102.195 180.232 101.919 180.281 101.68 180.379C101.44 180.477 101.238 180.613 101.072 180.789C100.906 180.965 100.774 181.175 100.676 181.419C100.583 181.658 100.522 181.922 100.493 182.21L100.112 182.43C100.112 181.951 100.159 181.502 100.251 181.082C100.349 180.662 100.498 180.291 100.698 179.969C100.898 179.642 101.152 179.388 101.46 179.207C101.772 179.021 102.144 178.929 102.573 178.929C102.671 178.929 102.783 178.941 102.91 178.965C103.037 178.985 103.125 179.007 103.174 179.031ZM109.275 185.462V175.75H110.637V187H109.392L109.275 185.462ZM103.943 183.125V182.972C103.943 182.366 104.016 181.817 104.163 181.324C104.314 180.826 104.526 180.398 104.8 180.042C105.078 179.686 105.408 179.412 105.789 179.222C106.174 179.026 106.604 178.929 107.078 178.929C107.576 178.929 108.01 179.017 108.381 179.192C108.757 179.363 109.075 179.615 109.333 179.947C109.597 180.274 109.805 180.669 109.956 181.133C110.107 181.597 110.212 182.122 110.271 182.708V183.382C110.217 183.963 110.112 184.485 109.956 184.949C109.805 185.413 109.597 185.809 109.333 186.136C109.075 186.463 108.757 186.714 108.381 186.89C108.005 187.061 107.566 187.146 107.063 187.146C106.599 187.146 106.174 187.046 105.789 186.846C105.408 186.646 105.078 186.365 104.8 186.004C104.526 185.643 104.314 185.218 104.163 184.729C104.016 184.236 103.943 183.702 103.943 183.125ZM105.305 182.972V183.125C105.305 183.521 105.344 183.892 105.422 184.239C105.505 184.585 105.632 184.891 105.803 185.154C105.974 185.418 106.191 185.625 106.455 185.777C106.719 185.923 107.034 185.997 107.4 185.997C107.849 185.997 108.218 185.901 108.506 185.711C108.799 185.521 109.033 185.269 109.209 184.957C109.385 184.644 109.521 184.305 109.619 183.938V182.173C109.561 181.905 109.475 181.646 109.363 181.397C109.255 181.143 109.114 180.918 108.938 180.723C108.767 180.523 108.555 180.364 108.301 180.247C108.052 180.13 107.756 180.071 107.415 180.071C107.043 180.071 106.724 180.149 106.455 180.306C106.191 180.457 105.974 180.667 105.803 180.936C105.632 181.199 105.505 181.507 105.422 181.858C105.344 182.205 105.305 182.576 105.305 182.972ZM117.361 184.898C117.361 184.703 117.317 184.522 117.229 184.356C117.146 184.185 116.973 184.031 116.709 183.895C116.45 183.753 116.06 183.631 115.537 183.528C115.098 183.436 114.7 183.326 114.343 183.199C113.992 183.072 113.691 182.918 113.442 182.737C113.198 182.557 113.01 182.344 112.878 182.1C112.747 181.856 112.681 181.57 112.681 181.243C112.681 180.931 112.749 180.635 112.886 180.357C113.027 180.079 113.225 179.832 113.479 179.617C113.738 179.402 114.048 179.234 114.409 179.112C114.771 178.99 115.173 178.929 115.618 178.929C116.252 178.929 116.794 179.041 117.244 179.266C117.693 179.49 118.037 179.791 118.276 180.167C118.516 180.538 118.635 180.95 118.635 181.404H117.28C117.28 181.185 117.214 180.972 117.083 180.767C116.956 180.557 116.768 180.384 116.519 180.247C116.274 180.11 115.974 180.042 115.618 180.042C115.242 180.042 114.937 180.101 114.702 180.218C114.473 180.33 114.304 180.474 114.197 180.65C114.094 180.826 114.043 181.011 114.043 181.207C114.043 181.353 114.067 181.485 114.116 181.602C114.17 181.714 114.263 181.819 114.395 181.917C114.526 182.01 114.712 182.098 114.951 182.181C115.19 182.264 115.496 182.347 115.867 182.43C116.516 182.576 117.051 182.752 117.471 182.957C117.891 183.162 118.203 183.414 118.408 183.711C118.613 184.009 118.716 184.371 118.716 184.795C118.716 185.142 118.643 185.459 118.496 185.748C118.354 186.036 118.147 186.285 117.874 186.495C117.605 186.7 117.283 186.861 116.907 186.978C116.536 187.09 116.118 187.146 115.654 187.146C114.956 187.146 114.365 187.022 113.882 186.773C113.398 186.524 113.032 186.202 112.783 185.806C112.534 185.411 112.41 184.993 112.41 184.554H113.772C113.792 184.925 113.899 185.22 114.094 185.44C114.29 185.655 114.529 185.809 114.812 185.901C115.095 185.989 115.376 186.033 115.654 186.033C116.025 186.033 116.335 185.984 116.584 185.887C116.838 185.789 117.031 185.655 117.163 185.484C117.295 185.313 117.361 185.118 117.361 184.898Z" fill="white"/>
<path opacity="0.12" d="M79 0.57735C79.6188 0.220084 80.3812 0.220085 81 0.57735L120.569 23.4226C121.188 23.7799 121.569 24.4402 121.569 25.1547V70.8453C121.569 71.5598 121.188 72.2201 120.569 72.5774L81 95.4226C80.3812 95.7799 79.6188 95.7799 79 95.4226L39.4308 72.5774C38.812 72.2201 38.4308 71.5598 38.4308 70.8453V25.1547C38.4308 24.4402 38.812 23.7799 39.4308 23.4226L79 0.57735Z" fill="white"/>
<path d="M89.6563 29.52V25.0566C89.6563 24.5387 89.4281 24.0487 88.9865 23.7782C87.7504 23.0214 84.7885 21.6 79.9763 21.6C75.164 21.6 72.2021 23.0214 70.9661 23.7782C70.5244 24.0487 70.2963 24.5387 70.2963 25.0566V29.52C70.2963 30.492 71.0842 31.28 72.0563 31.28H87.8963C88.8683 31.28 89.6563 30.492 89.6563 29.52Z" fill="#FF9365"/>
<path fill-rule="evenodd" clip-rule="evenodd" d="M68.0963 29.52V26.88C68.0963 26.637 67.8993 26.44 67.6563 26.44H64.16C61.7299 26.44 59.76 28.4099 59.76 30.84V68.88C59.76 71.3101 61.7309 73.28 64.1609 73.28H95.839C98.2691 73.28 100.24 71.3101 100.24 68.88V30.84C100.24 28.4099 98.2701 26.44 95.84 26.44H92.2963C92.0532 26.44 91.8563 26.637 91.8563 26.88V29.52C91.8563 31.707 90.0833 33.48 87.8963 33.48H72.0563C69.8692 33.48 68.0963 31.707 68.0963 29.52ZM82.2 47.44C82.443 47.44 82.64 47.637 82.64 47.88V49.64C82.64 49.883 82.443 50.08 82.2 50.08H69C68.757 50.08 68.56 49.883 68.56 49.64V47.88C68.56 47.637 68.757 47.44 69 47.44H82.2ZM91 55.36C91.243 55.36 91.44 55.557 91.44 55.8V57.56C91.44 57.803 91.243 58 91 58H69C68.757 58 68.56 57.803 68.56 57.56V55.8C68.56 55.557 68.757 55.36 69 55.36H91Z" fill="#FF9365"/>
</svg>
