<svg width="160" height="192" viewBox="0 0 160 192" fill="none" xmlns="http://www.w3.org/2000/svg">
<path d="M53.9551 133.338C53.9551 133.045 53.9095 132.785 53.8184 132.557C53.7337 132.329 53.5807 132.12 53.3594 131.932C53.138 131.743 52.8255 131.561 52.4219 131.385C52.0247 131.202 51.5169 131.017 50.8984 130.828C50.2214 130.62 49.5964 130.389 49.0234 130.135C48.457 129.874 47.9622 129.575 47.5391 129.236C47.1159 128.891 46.7871 128.497 46.5527 128.055C46.3184 127.605 46.2012 127.088 46.2012 126.502C46.2012 125.923 46.3216 125.395 46.5625 124.92C46.8099 124.445 47.1582 124.035 47.6074 123.689C48.0632 123.338 48.6003 123.068 49.2188 122.879C49.8372 122.684 50.5208 122.586 51.2695 122.586C52.3242 122.586 53.2324 122.781 53.9941 123.172C54.7624 123.562 55.3516 124.087 55.7617 124.744C56.1784 125.402 56.3867 126.128 56.3867 126.922H53.9551C53.9551 126.453 53.8542 126.04 53.6523 125.682C53.457 125.317 53.1576 125.031 52.7539 124.822C52.3568 124.614 51.8522 124.51 51.2402 124.51C50.6608 124.51 50.179 124.598 49.7949 124.773C49.4108 124.949 49.1243 125.187 48.9355 125.486C48.7467 125.786 48.6523 126.124 48.6523 126.502C48.6523 126.769 48.7142 127.013 48.8379 127.234C48.9616 127.449 49.1504 127.651 49.4043 127.84C49.6582 128.022 49.9772 128.195 50.3613 128.357C50.7454 128.52 51.1979 128.676 51.7188 128.826C52.5065 129.061 53.1934 129.321 53.7793 129.607C54.3652 129.887 54.8535 130.206 55.2441 130.564C55.6348 130.923 55.9277 131.329 56.123 131.785C56.3184 132.234 56.416 132.745 56.416 133.318C56.416 133.917 56.2956 134.458 56.0547 134.939C55.8138 135.415 55.4688 135.822 55.0195 136.16C54.5768 136.492 54.043 136.749 53.418 136.932C52.7995 137.107 52.1094 137.195 51.3477 137.195C50.6641 137.195 49.9902 137.104 49.3262 136.922C48.6686 136.74 48.0697 136.463 47.5293 136.092C46.9889 135.714 46.5592 135.245 46.2402 134.686C45.9212 134.119 45.7617 133.458 45.7617 132.703H48.2129C48.2129 133.165 48.291 133.559 48.4473 133.885C48.61 134.21 48.8346 134.477 49.1211 134.686C49.4076 134.887 49.7396 135.037 50.1172 135.135C50.5013 135.232 50.9115 135.281 51.3477 135.281C51.9206 135.281 52.3991 135.2 52.7832 135.037C53.1738 134.874 53.4668 134.646 53.6621 134.354C53.8574 134.061 53.9551 133.722 53.9551 133.338ZM61.2207 134.656L63.6621 126.434H65.166L64.7559 128.895L62.2949 137H60.9473L61.2207 134.656ZM59.7852 126.434L61.6895 134.695L61.8457 137H60.3418L57.4805 126.434H59.7852ZM67.4512 134.598L69.2969 126.434H71.5918L68.7402 137H67.2363L67.4512 134.598ZM65.4199 126.434L67.832 134.559L68.1348 137H66.7871L64.2969 128.885L63.8867 126.434H65.4199ZM77.8516 137.195C77.0703 137.195 76.3639 137.068 75.7324 136.814C75.1074 136.554 74.5736 136.193 74.1309 135.73C73.6947 135.268 73.3594 134.725 73.125 134.1C72.8906 133.475 72.7734 132.801 72.7734 132.078V131.688C72.7734 130.861 72.8939 130.112 73.1348 129.441C73.3757 128.771 73.7109 128.198 74.1406 127.723C74.5703 127.241 75.0781 126.873 75.6641 126.619C76.25 126.365 76.8848 126.238 77.5684 126.238C78.3236 126.238 78.9844 126.365 79.5508 126.619C80.1172 126.873 80.5859 127.231 80.957 127.693C81.3346 128.149 81.6146 128.693 81.7969 129.324C81.9857 129.956 82.0801 130.652 82.0801 131.414V132.42H73.916V130.73H79.7559V130.545C79.7428 130.122 79.6582 129.725 79.502 129.354C79.3522 128.982 79.1211 128.683 78.8086 128.455C78.4961 128.227 78.0794 128.113 77.5586 128.113C77.168 128.113 76.8197 128.198 76.5137 128.367C76.2142 128.53 75.9635 128.768 75.7617 129.08C75.5599 129.393 75.4036 129.77 75.293 130.213C75.1888 130.649 75.1367 131.141 75.1367 131.688V132.078C75.1367 132.54 75.1986 132.97 75.3223 133.367C75.4525 133.758 75.6413 134.1 75.8887 134.393C76.1361 134.686 76.4355 134.917 76.7871 135.086C77.1387 135.249 77.5391 135.33 77.9883 135.33C78.5547 135.33 79.0592 135.216 79.502 134.988C79.9447 134.76 80.3288 134.438 80.6543 134.021L81.8945 135.223C81.6667 135.555 81.3704 135.874 81.0059 136.18C80.6413 136.479 80.1953 136.723 79.668 136.912C79.1471 137.101 78.5417 137.195 77.8516 137.195ZM88.5742 137.195C87.793 137.195 87.0866 137.068 86.4551 136.814C85.8301 136.554 85.2962 136.193 84.8535 135.73C84.4173 135.268 84.082 134.725 83.8477 134.1C83.6133 133.475 83.4961 132.801 83.4961 132.078V131.688C83.4961 130.861 83.6165 130.112 83.8574 129.441C84.0983 128.771 84.4336 128.198 84.8633 127.723C85.293 127.241 85.8008 126.873 86.3867 126.619C86.9727 126.365 87.6074 126.238 88.291 126.238C89.0462 126.238 89.707 126.365 90.2734 126.619C90.8398 126.873 91.3086 127.231 91.6797 127.693C92.0573 128.149 92.3372 128.693 92.5195 129.324C92.7083 129.956 92.8027 130.652 92.8027 131.414V132.42H84.6387V130.73H90.4785V130.545C90.4655 130.122 90.3809 129.725 90.2246 129.354C90.0749 128.982 89.8438 128.683 89.5312 128.455C89.2188 128.227 88.8021 128.113 88.2812 128.113C87.8906 128.113 87.5423 128.198 87.2363 128.367C86.9368 128.53 86.6862 128.768 86.4844 129.08C86.2826 129.393 86.1263 129.77 86.0156 130.213C85.9115 130.649 85.8594 131.141 85.8594 131.688V132.078C85.8594 132.54 85.9212 132.97 86.0449 133.367C86.1751 133.758 86.3639 134.1 86.6113 134.393C86.8587 134.686 87.1582 134.917 87.5098 135.086C87.8613 135.249 88.2617 135.33 88.7109 135.33C89.2773 135.33 89.7819 135.216 90.2246 134.988C90.6673 134.76 91.0514 134.438 91.377 134.021L92.6172 135.223C92.3893 135.555 92.0931 135.874 91.7285 136.18C91.3639 136.479 90.918 136.723 90.3906 136.912C89.8698 137.101 89.2643 137.195 88.5742 137.195ZM97.002 128.465V141.062H94.6484V126.434H96.8164L97.002 128.465ZM103.887 131.619V131.824C103.887 132.592 103.796 133.305 103.613 133.963C103.438 134.614 103.174 135.184 102.822 135.672C102.477 136.154 102.051 136.528 101.543 136.795C101.035 137.062 100.449 137.195 99.7852 137.195C99.1276 137.195 98.5514 137.075 98.0566 136.834C97.5684 136.587 97.1549 136.238 96.8164 135.789C96.4779 135.34 96.2044 134.812 95.9961 134.207C95.7943 133.595 95.651 132.924 95.5664 132.195V131.404C95.651 130.63 95.7943 129.926 95.9961 129.295C96.2044 128.663 96.4779 128.12 96.8164 127.664C97.1549 127.208 97.5684 126.857 98.0566 126.609C98.5449 126.362 99.1146 126.238 99.7656 126.238C100.43 126.238 101.019 126.368 101.533 126.629C102.048 126.883 102.48 127.247 102.832 127.723C103.184 128.191 103.447 128.758 103.623 129.422C103.799 130.079 103.887 130.812 103.887 131.619ZM101.533 131.824V131.619C101.533 131.131 101.488 130.678 101.396 130.262C101.305 129.839 101.162 129.467 100.967 129.148C100.771 128.829 100.521 128.582 100.215 128.406C99.9154 128.224 99.554 128.133 99.1309 128.133C98.7142 128.133 98.3561 128.204 98.0566 128.348C97.7572 128.484 97.5065 128.676 97.3047 128.924C97.1029 129.171 96.9466 129.461 96.8359 129.793C96.7253 130.118 96.6471 130.473 96.6016 130.857V132.752C96.6797 133.221 96.8132 133.65 97.002 134.041C97.1908 134.432 97.4577 134.744 97.8027 134.979C98.1543 135.206 98.6035 135.32 99.1504 135.32C99.5736 135.32 99.9349 135.229 100.234 135.047C100.534 134.865 100.778 134.614 100.967 134.295C101.162 133.969 101.305 133.595 101.396 133.172C101.488 132.749 101.533 132.299 101.533 131.824ZM111.816 134.139C111.816 133.904 111.758 133.693 111.641 133.504C111.523 133.309 111.299 133.133 110.967 132.977C110.641 132.82 110.16 132.677 109.521 132.547C108.962 132.423 108.447 132.277 107.979 132.107C107.516 131.932 107.119 131.72 106.787 131.473C106.455 131.225 106.198 130.932 106.016 130.594C105.833 130.255 105.742 129.865 105.742 129.422C105.742 128.992 105.837 128.585 106.025 128.201C106.214 127.817 106.484 127.479 106.836 127.186C107.188 126.893 107.614 126.661 108.115 126.492C108.623 126.323 109.189 126.238 109.814 126.238C110.7 126.238 111.458 126.388 112.09 126.688C112.728 126.98 113.216 127.381 113.555 127.889C113.893 128.39 114.062 128.956 114.062 129.588H111.709C111.709 129.308 111.637 129.048 111.494 128.807C111.357 128.559 111.149 128.361 110.869 128.211C110.589 128.055 110.238 127.977 109.814 127.977C109.411 127.977 109.076 128.042 108.809 128.172C108.548 128.296 108.353 128.458 108.223 128.66C108.099 128.862 108.037 129.083 108.037 129.324C108.037 129.5 108.07 129.66 108.135 129.803C108.206 129.939 108.324 130.066 108.486 130.184C108.649 130.294 108.87 130.398 109.15 130.496C109.437 130.594 109.795 130.688 110.225 130.779C111.032 130.949 111.725 131.167 112.305 131.434C112.891 131.694 113.34 132.033 113.652 132.449C113.965 132.859 114.121 133.38 114.121 134.012C114.121 134.48 114.02 134.91 113.818 135.301C113.623 135.685 113.337 136.02 112.959 136.307C112.581 136.587 112.129 136.805 111.602 136.961C111.081 137.117 110.495 137.195 109.844 137.195C108.887 137.195 108.076 137.026 107.412 136.688C106.748 136.342 106.243 135.903 105.898 135.369C105.56 134.829 105.391 134.269 105.391 133.689H107.666C107.692 134.126 107.812 134.474 108.027 134.734C108.249 134.988 108.522 135.174 108.848 135.291C109.18 135.402 109.521 135.457 109.873 135.457C110.296 135.457 110.651 135.402 110.938 135.291C111.224 135.174 111.442 135.018 111.592 134.822C111.742 134.62 111.816 134.393 111.816 134.139Z" fill="white"/>
<path opacity="0.6" d="M34.2749 159.921V161.071H28.5034V159.921H34.2749ZM28.7231 155.336V166H27.3096V155.336H28.7231ZM35.5054 155.336V166H34.0991V155.336H35.5054ZM40.0391 165.18L42.2437 158.075H43.6938L40.5151 167.223C40.4419 167.418 40.3442 167.628 40.2222 167.853C40.105 168.083 39.9536 168.3 39.7681 168.505C39.5825 168.71 39.3579 168.876 39.0942 169.003C38.8354 169.135 38.5254 169.201 38.1641 169.201C38.0566 169.201 37.9199 169.186 37.7539 169.157C37.5879 169.127 37.4707 169.103 37.4023 169.083L37.395 167.985C37.4341 167.99 37.4951 167.995 37.5781 168C37.666 168.009 37.7271 168.014 37.7612 168.014C38.0688 168.014 38.3301 167.973 38.5449 167.89C38.7598 167.812 38.9404 167.677 39.0869 167.487C39.2383 167.301 39.3677 167.045 39.4751 166.718L40.0391 165.18ZM38.4204 158.075L40.4785 164.228L40.8301 165.656L39.856 166.154L36.9409 158.075H38.4204ZM46.272 159.599V169.047H44.9097V158.075H46.1548L46.272 159.599ZM51.6113 161.972V162.125C51.6113 162.702 51.543 163.236 51.4062 163.729C51.2695 164.218 51.0693 164.643 50.8057 165.004C50.5469 165.365 50.2271 165.646 49.8462 165.846C49.4653 166.046 49.0283 166.146 48.5352 166.146C48.0322 166.146 47.5879 166.063 47.2021 165.897C46.8164 165.731 46.4893 165.49 46.2207 165.172C45.9521 164.855 45.7373 164.474 45.5762 164.03C45.4199 163.585 45.3125 163.085 45.2539 162.528V161.708C45.3125 161.122 45.4224 160.597 45.5835 160.133C45.7446 159.669 45.957 159.274 46.2207 158.947C46.4893 158.615 46.814 158.363 47.1948 158.192C47.5757 158.017 48.0151 157.929 48.5132 157.929C49.0112 157.929 49.4531 158.026 49.8389 158.222C50.2246 158.412 50.5493 158.686 50.813 159.042C51.0767 159.398 51.2744 159.826 51.4062 160.324C51.543 160.817 51.6113 161.366 51.6113 161.972ZM50.249 162.125V161.972C50.249 161.576 50.2075 161.205 50.1245 160.858C50.0415 160.507 49.9121 160.199 49.7363 159.936C49.5654 159.667 49.3457 159.457 49.0771 159.306C48.8086 159.149 48.4888 159.071 48.1177 159.071C47.7759 159.071 47.478 159.13 47.2241 159.247C46.9751 159.364 46.7627 159.523 46.5869 159.723C46.4111 159.918 46.2671 160.143 46.1548 160.397C46.0474 160.646 45.9668 160.905 45.9131 161.173V163.07C46.0107 163.412 46.1475 163.734 46.3232 164.037C46.499 164.335 46.7334 164.577 47.0264 164.762C47.3193 164.943 47.688 165.033 48.1323 165.033C48.4985 165.033 48.8135 164.958 49.0771 164.806C49.3457 164.65 49.5654 164.438 49.7363 164.169C49.9121 163.9 50.0415 163.593 50.1245 163.246C50.2075 162.895 50.249 162.521 50.249 162.125ZM56.6284 166.146C56.0767 166.146 55.5762 166.054 55.127 165.868C54.6826 165.678 54.2993 165.412 53.9771 165.07C53.6597 164.728 53.4155 164.323 53.2446 163.854C53.0737 163.385 52.9883 162.873 52.9883 162.316V162.008C52.9883 161.364 53.0835 160.79 53.2739 160.287C53.4644 159.779 53.7231 159.35 54.0503 158.998C54.3774 158.646 54.7485 158.38 55.1636 158.2C55.5786 158.019 56.0083 157.929 56.4526 157.929C57.019 157.929 57.5073 158.026 57.9175 158.222C58.3325 158.417 58.6719 158.69 58.9355 159.042C59.1992 159.389 59.3945 159.799 59.5215 160.272C59.6484 160.741 59.7119 161.254 59.7119 161.811V162.418H53.7939V161.312H58.3569V161.21C58.3374 160.858 58.2642 160.517 58.1372 160.185C58.0151 159.853 57.8198 159.579 57.5513 159.364C57.2827 159.149 56.9165 159.042 56.4526 159.042C56.145 159.042 55.8618 159.108 55.603 159.24C55.3442 159.367 55.1221 159.557 54.9365 159.811C54.751 160.065 54.6069 160.375 54.5044 160.741C54.4019 161.107 54.3506 161.53 54.3506 162.008V162.316C54.3506 162.692 54.4019 163.046 54.5044 163.378C54.6118 163.705 54.7656 163.993 54.9658 164.242C55.1709 164.491 55.4175 164.687 55.7056 164.828C55.9985 164.97 56.3306 165.041 56.7017 165.041C57.1802 165.041 57.5854 164.943 57.9175 164.748C58.2495 164.552 58.54 164.291 58.7891 163.964L59.6094 164.616C59.4385 164.875 59.2212 165.121 58.9575 165.355C58.6938 165.59 58.3691 165.78 57.9834 165.927C57.6025 166.073 57.1509 166.146 56.6284 166.146ZM62.6489 159.32V166H61.2939V158.075H62.6123L62.6489 159.32ZM65.1245 158.031L65.1172 159.291C65.0049 159.267 64.8975 159.252 64.7949 159.247C64.6973 159.237 64.585 159.232 64.458 159.232C64.1455 159.232 63.8696 159.281 63.6304 159.379C63.3911 159.477 63.1885 159.613 63.0225 159.789C62.8564 159.965 62.7246 160.175 62.627 160.419C62.5342 160.658 62.4731 160.922 62.4438 161.21L62.063 161.43C62.063 160.951 62.1094 160.502 62.2021 160.082C62.2998 159.662 62.4487 159.291 62.6489 158.969C62.8491 158.642 63.103 158.388 63.4106 158.207C63.7231 158.021 64.0942 157.929 64.5239 157.929C64.6216 157.929 64.7339 157.941 64.8608 157.965C64.9878 157.985 65.0757 158.007 65.1245 158.031ZM67.7319 159.599V169.047H66.3696V158.075H67.6147L67.7319 159.599ZM73.0713 161.972V162.125C73.0713 162.702 73.0029 163.236 72.8662 163.729C72.7295 164.218 72.5293 164.643 72.2656 165.004C72.0068 165.365 71.687 165.646 71.3062 165.846C70.9253 166.046 70.4883 166.146 69.9951 166.146C69.4922 166.146 69.0479 166.063 68.6621 165.897C68.2764 165.731 67.9492 165.49 67.6807 165.172C67.4121 164.855 67.1973 164.474 67.0361 164.03C66.8799 163.585 66.7725 163.085 66.7139 162.528V161.708C66.7725 161.122 66.8823 160.597 67.0435 160.133C67.2046 159.669 67.417 159.274 67.6807 158.947C67.9492 158.615 68.2739 158.363 68.6548 158.192C69.0356 158.017 69.4751 157.929 69.9731 157.929C70.4712 157.929 70.9131 158.026 71.2988 158.222C71.6846 158.412 72.0093 158.686 72.2729 159.042C72.5366 159.398 72.7344 159.826 72.8662 160.324C73.0029 160.817 73.0713 161.366 73.0713 161.972ZM71.709 162.125V161.972C71.709 161.576 71.6675 161.205 71.5845 160.858C71.5015 160.507 71.3721 160.199 71.1963 159.936C71.0254 159.667 70.8057 159.457 70.5371 159.306C70.2686 159.149 69.9487 159.071 69.5776 159.071C69.2358 159.071 68.938 159.13 68.6841 159.247C68.4351 159.364 68.2227 159.523 68.0469 159.723C67.8711 159.918 67.7271 160.143 67.6147 160.397C67.5073 160.646 67.4268 160.905 67.373 161.173V163.07C67.4707 163.412 67.6074 163.734 67.7832 164.037C67.959 164.335 68.1934 164.577 68.4863 164.762C68.7793 164.943 69.1479 165.033 69.5923 165.033C69.9585 165.033 70.2734 164.958 70.5371 164.806C70.8057 164.65 71.0254 164.438 71.1963 164.169C71.3721 163.9 71.5015 163.593 71.5845 163.246C71.6675 162.895 71.709 162.521 71.709 162.125ZM79.4727 164.645V160.565C79.4727 160.253 79.4092 159.982 79.2822 159.752C79.1602 159.518 78.9746 159.337 78.7256 159.21C78.4766 159.083 78.1689 159.02 77.8027 159.02C77.4609 159.02 77.1606 159.079 76.9019 159.196C76.6479 159.313 76.4478 159.467 76.3013 159.657C76.1597 159.848 76.0889 160.053 76.0889 160.272H74.7339C74.7339 159.989 74.8071 159.708 74.9536 159.43C75.1001 159.152 75.3101 158.9 75.5835 158.676C75.8618 158.446 76.1938 158.266 76.5796 158.134C76.9702 157.997 77.4048 157.929 77.8833 157.929C78.4595 157.929 78.9673 158.026 79.4067 158.222C79.8511 158.417 80.1978 158.712 80.4468 159.108C80.7007 159.499 80.8276 159.989 80.8276 160.58V164.271C80.8276 164.535 80.8496 164.816 80.8936 165.114C80.9424 165.412 81.0132 165.668 81.106 165.883V166H79.6924C79.624 165.844 79.5703 165.636 79.5312 165.377C79.4922 165.114 79.4727 164.87 79.4727 164.645ZM79.707 161.195L79.7217 162.147H78.3521C77.9663 162.147 77.6221 162.179 77.3193 162.243C77.0166 162.301 76.7627 162.392 76.5576 162.514C76.3525 162.636 76.1963 162.79 76.0889 162.975C75.9814 163.156 75.9277 163.368 75.9277 163.612C75.9277 163.861 75.9839 164.088 76.0962 164.293C76.2085 164.499 76.377 164.662 76.6016 164.784C76.8311 164.901 77.1118 164.96 77.4438 164.96C77.8589 164.96 78.2251 164.872 78.5425 164.696C78.8599 164.521 79.1113 164.306 79.2969 164.052C79.4873 163.798 79.5898 163.551 79.6045 163.312L80.1831 163.964C80.1489 164.169 80.0562 164.396 79.9048 164.645C79.7534 164.894 79.5508 165.133 79.2969 165.363C79.0479 165.587 78.75 165.775 78.4033 165.927C78.0615 166.073 77.6758 166.146 77.2461 166.146C76.709 166.146 76.2378 166.042 75.8325 165.832C75.4321 165.622 75.1196 165.341 74.895 164.989C74.6753 164.633 74.5654 164.235 74.5654 163.795C74.5654 163.371 74.6484 162.997 74.8145 162.675C74.9805 162.348 75.2197 162.077 75.5322 161.862C75.8447 161.642 76.2207 161.476 76.6602 161.364C77.0996 161.251 77.5903 161.195 78.1323 161.195H79.707ZM84.314 159.32V166H82.959V158.075H84.2773L84.314 159.32ZM86.7896 158.031L86.7822 159.291C86.6699 159.267 86.5625 159.252 86.46 159.247C86.3623 159.237 86.25 159.232 86.123 159.232C85.8105 159.232 85.5347 159.281 85.2954 159.379C85.0562 159.477 84.8535 159.613 84.6875 159.789C84.5215 159.965 84.3896 160.175 84.292 160.419C84.1992 160.658 84.1382 160.922 84.1089 161.21L83.728 161.43C83.728 160.951 83.7744 160.502 83.8672 160.082C83.9648 159.662 84.1138 159.291 84.314 158.969C84.5142 158.642 84.7681 158.388 85.0757 158.207C85.3882 158.021 85.7593 157.929 86.189 157.929C86.2866 157.929 86.3989 157.941 86.5259 157.965C86.6528 157.985 86.7407 158.007 86.7896 158.031ZM92.4219 164.645V160.565C92.4219 160.253 92.3584 159.982 92.2314 159.752C92.1094 159.518 91.9238 159.337 91.6748 159.21C91.4258 159.083 91.1182 159.02 90.752 159.02C90.4102 159.02 90.1099 159.079 89.8511 159.196C89.5972 159.313 89.397 159.467 89.2505 159.657C89.1089 159.848 89.0381 160.053 89.0381 160.272H87.6831C87.6831 159.989 87.7563 159.708 87.9028 159.43C88.0493 159.152 88.2593 158.9 88.5327 158.676C88.811 158.446 89.1431 158.266 89.5288 158.134C89.9194 157.997 90.354 157.929 90.8325 157.929C91.4087 157.929 91.9165 158.026 92.356 158.222C92.8003 158.417 93.147 158.712 93.396 159.108C93.6499 159.499 93.7769 159.989 93.7769 160.58V164.271C93.7769 164.535 93.7988 164.816 93.8428 165.114C93.8916 165.412 93.9624 165.668 94.0552 165.883V166H92.6416C92.5732 165.844 92.5195 165.636 92.4805 165.377C92.4414 165.114 92.4219 164.87 92.4219 164.645ZM92.6562 161.195L92.6709 162.147H91.3013C90.9155 162.147 90.5713 162.179 90.2686 162.243C89.9658 162.301 89.7119 162.392 89.5068 162.514C89.3018 162.636 89.1455 162.79 89.0381 162.975C88.9307 163.156 88.877 163.368 88.877 163.612C88.877 163.861 88.9331 164.088 89.0454 164.293C89.1577 164.499 89.3262 164.662 89.5508 164.784C89.7803 164.901 90.061 164.96 90.3931 164.96C90.8081 164.96 91.1743 164.872 91.4917 164.696C91.8091 164.521 92.0605 164.306 92.2461 164.052C92.4365 163.798 92.5391 163.551 92.5537 163.312L93.1323 163.964C93.0981 164.169 93.0054 164.396 92.854 164.645C92.7026 164.894 92.5 165.133 92.2461 165.363C91.9971 165.587 91.6992 165.775 91.3525 165.927C91.0107 166.073 90.625 166.146 90.1953 166.146C89.6582 166.146 89.187 166.042 88.7817 165.832C88.3813 165.622 88.0688 165.341 87.8442 164.989C87.6245 164.633 87.5146 164.235 87.5146 163.795C87.5146 163.371 87.5977 162.997 87.7637 162.675C87.9297 162.348 88.1689 162.077 88.4814 161.862C88.7939 161.642 89.1699 161.476 89.6094 161.364C90.0488 161.251 90.5396 161.195 91.0815 161.195H92.6562ZM97.2559 159.65V166H95.8936V158.075H97.1826L97.2559 159.65ZM96.9775 161.737L96.3477 161.715C96.3525 161.173 96.4233 160.673 96.5601 160.214C96.6968 159.75 96.8994 159.347 97.168 159.005C97.4365 158.664 97.771 158.4 98.1714 158.214C98.5718 158.024 99.0356 157.929 99.563 157.929C99.9341 157.929 100.276 157.982 100.588 158.09C100.901 158.192 101.172 158.356 101.401 158.581C101.631 158.805 101.809 159.093 101.936 159.445C102.063 159.796 102.126 160.221 102.126 160.719V166H100.771V160.785C100.771 160.37 100.701 160.038 100.559 159.789C100.422 159.54 100.227 159.359 99.9731 159.247C99.7192 159.13 99.4214 159.071 99.0796 159.071C98.6792 159.071 98.3447 159.142 98.0762 159.284C97.8076 159.425 97.5928 159.621 97.4316 159.87C97.2705 160.119 97.1533 160.404 97.0801 160.727C97.0117 161.044 96.9775 161.381 96.9775 161.737ZM102.112 160.99L101.204 161.269C101.208 160.834 101.279 160.417 101.416 160.016C101.558 159.616 101.76 159.259 102.024 158.947C102.292 158.634 102.622 158.388 103.013 158.207C103.403 158.021 103.85 157.929 104.353 157.929C104.778 157.929 105.154 157.985 105.481 158.097C105.813 158.209 106.091 158.383 106.316 158.617C106.545 158.847 106.719 159.142 106.836 159.503C106.953 159.865 107.012 160.294 107.012 160.792V166H105.649V160.778C105.649 160.333 105.579 159.989 105.437 159.745C105.3 159.496 105.105 159.323 104.851 159.225C104.602 159.123 104.304 159.071 103.958 159.071C103.66 159.071 103.396 159.123 103.167 159.225C102.937 159.328 102.744 159.469 102.588 159.65C102.432 159.826 102.312 160.028 102.229 160.258C102.151 160.487 102.112 160.731 102.112 160.99ZM112.351 166.146C111.799 166.146 111.299 166.054 110.85 165.868C110.405 165.678 110.022 165.412 109.7 165.07C109.382 164.728 109.138 164.323 108.967 163.854C108.796 163.385 108.711 162.873 108.711 162.316V162.008C108.711 161.364 108.806 160.79 108.997 160.287C109.187 159.779 109.446 159.35 109.773 158.998C110.1 158.646 110.471 158.38 110.886 158.2C111.301 158.019 111.731 157.929 112.175 157.929C112.742 157.929 113.23 158.026 113.64 158.222C114.055 158.417 114.395 158.69 114.658 159.042C114.922 159.389 115.117 159.799 115.244 160.272C115.371 160.741 115.435 161.254 115.435 161.811V162.418H109.517V161.312H114.08V161.21C114.06 160.858 113.987 160.517 113.86 160.185C113.738 159.853 113.542 159.579 113.274 159.364C113.005 159.149 112.639 159.042 112.175 159.042C111.868 159.042 111.584 159.108 111.326 159.24C111.067 159.367 110.845 159.557 110.659 159.811C110.474 160.065 110.33 160.375 110.227 160.741C110.125 161.107 110.073 161.53 110.073 162.008V162.316C110.073 162.692 110.125 163.046 110.227 163.378C110.334 163.705 110.488 163.993 110.688 164.242C110.894 164.491 111.14 164.687 111.428 164.828C111.721 164.97 112.053 165.041 112.424 165.041C112.903 165.041 113.308 164.943 113.64 164.748C113.972 164.552 114.263 164.291 114.512 163.964L115.332 164.616C115.161 164.875 114.944 165.121 114.68 165.355C114.417 165.59 114.092 165.78 113.706 165.927C113.325 166.073 112.874 166.146 112.351 166.146ZM120.334 158.075V159.115H116.05V158.075H120.334ZM117.5 156.149H118.855V164.037C118.855 164.306 118.896 164.508 118.979 164.645C119.062 164.782 119.17 164.872 119.302 164.916C119.434 164.96 119.575 164.982 119.727 164.982C119.839 164.982 119.956 164.972 120.078 164.953C120.205 164.928 120.3 164.909 120.364 164.894L120.371 166C120.264 166.034 120.122 166.066 119.946 166.095C119.775 166.129 119.568 166.146 119.324 166.146C118.992 166.146 118.687 166.081 118.408 165.949C118.13 165.817 117.908 165.597 117.742 165.29C117.581 164.977 117.5 164.557 117.5 164.03V156.149ZM125.212 166.146C124.661 166.146 124.16 166.054 123.711 165.868C123.267 165.678 122.883 165.412 122.561 165.07C122.244 164.728 122 164.323 121.829 163.854C121.658 163.385 121.572 162.873 121.572 162.316V162.008C121.572 161.364 121.667 160.79 121.858 160.287C122.048 159.779 122.307 159.35 122.634 158.998C122.961 158.646 123.333 158.38 123.748 158.2C124.163 158.019 124.592 157.929 125.037 157.929C125.603 157.929 126.091 158.026 126.501 158.222C126.917 158.417 127.256 158.69 127.52 159.042C127.783 159.389 127.979 159.799 128.105 160.272C128.232 160.741 128.296 161.254 128.296 161.811V162.418H122.378V161.312H126.941V161.21C126.921 160.858 126.848 160.517 126.721 160.185C126.599 159.853 126.404 159.579 126.135 159.364C125.867 159.149 125.5 159.042 125.037 159.042C124.729 159.042 124.446 159.108 124.187 159.24C123.928 159.367 123.706 159.557 123.521 159.811C123.335 160.065 123.191 160.375 123.088 160.741C122.986 161.107 122.935 161.53 122.935 162.008V162.316C122.935 162.692 122.986 163.046 123.088 163.378C123.196 163.705 123.35 163.993 123.55 164.242C123.755 164.491 124.001 164.687 124.29 164.828C124.583 164.97 124.915 165.041 125.286 165.041C125.764 165.041 126.169 164.943 126.501 164.748C126.833 164.552 127.124 164.291 127.373 163.964L128.193 164.616C128.022 164.875 127.805 165.121 127.542 165.355C127.278 165.59 126.953 165.78 126.567 165.927C126.187 166.073 125.735 166.146 125.212 166.146ZM131.233 159.32V166H129.878V158.075H131.196L131.233 159.32ZM133.708 158.031L133.701 159.291C133.589 159.267 133.481 159.252 133.379 159.247C133.281 159.237 133.169 159.232 133.042 159.232C132.729 159.232 132.454 159.281 132.214 159.379C131.975 159.477 131.772 159.613 131.606 159.789C131.44 159.965 131.309 160.175 131.211 160.419C131.118 160.658 131.057 160.922 131.028 161.21L130.647 161.43C130.647 160.951 130.693 160.502 130.786 160.082C130.884 159.662 131.033 159.291 131.233 158.969C131.433 158.642 131.687 158.388 131.995 158.207C132.307 158.021 132.678 157.929 133.108 157.929C133.206 157.929 133.318 157.941 133.445 157.965C133.572 157.985 133.66 158.007 133.708 158.031ZM39.0063 183.125V182.957C39.0063 182.386 39.0894 181.856 39.2554 181.368C39.4214 180.875 39.6606 180.447 39.9731 180.086C40.2856 179.72 40.6641 179.437 41.1084 179.236C41.5527 179.031 42.0508 178.929 42.6025 178.929C43.1592 178.929 43.6597 179.031 44.104 179.236C44.5532 179.437 44.9341 179.72 45.2466 180.086C45.564 180.447 45.8057 180.875 45.9717 181.368C46.1377 181.856 46.2207 182.386 46.2207 182.957V183.125C46.2207 183.697 46.1377 184.227 45.9717 184.715C45.8057 185.203 45.564 185.63 45.2466 185.997C44.9341 186.358 44.5557 186.641 44.1113 186.846C43.6719 187.046 43.1738 187.146 42.6172 187.146C42.0605 187.146 41.5601 187.046 41.1157 186.846C40.6714 186.641 40.2905 186.358 39.9731 185.997C39.6606 185.63 39.4214 185.203 39.2554 184.715C39.0894 184.227 39.0063 183.697 39.0063 183.125ZM40.3613 182.957V183.125C40.3613 183.521 40.4077 183.895 40.5005 184.246C40.5933 184.593 40.7324 184.9 40.918 185.169C41.1084 185.438 41.3452 185.65 41.6284 185.806C41.9116 185.958 42.2412 186.033 42.6172 186.033C42.9883 186.033 43.313 185.958 43.5913 185.806C43.8745 185.65 44.1089 185.438 44.2944 185.169C44.48 184.9 44.6191 184.593 44.7119 184.246C44.8096 183.895 44.8584 183.521 44.8584 183.125V182.957C44.8584 182.566 44.8096 182.198 44.7119 181.851C44.6191 181.5 44.4775 181.189 44.2871 180.921C44.1016 180.647 43.8672 180.433 43.584 180.276C43.3057 180.12 42.9785 180.042 42.6025 180.042C42.2314 180.042 41.9043 180.12 41.6211 180.276C41.3428 180.433 41.1084 180.647 40.918 180.921C40.7324 181.189 40.5933 181.5 40.5005 181.851C40.4077 182.198 40.3613 182.566 40.3613 182.957ZM49.2749 180.599V190.047H47.9126V179.075H49.1577L49.2749 180.599ZM54.6143 182.972V183.125C54.6143 183.702 54.5459 184.236 54.4092 184.729C54.2725 185.218 54.0723 185.643 53.8086 186.004C53.5498 186.365 53.23 186.646 52.8491 186.846C52.4683 187.046 52.0312 187.146 51.5381 187.146C51.0352 187.146 50.5908 187.063 50.2051 186.897C49.8193 186.731 49.4922 186.49 49.2236 186.172C48.9551 185.855 48.7402 185.474 48.5791 185.03C48.4229 184.585 48.3154 184.085 48.2568 183.528V182.708C48.3154 182.122 48.4253 181.597 48.5864 181.133C48.7476 180.669 48.96 180.274 49.2236 179.947C49.4922 179.615 49.8169 179.363 50.1978 179.192C50.5786 179.017 51.0181 178.929 51.5161 178.929C52.0142 178.929 52.4561 179.026 52.8418 179.222C53.2275 179.412 53.5522 179.686 53.8159 180.042C54.0796 180.398 54.2773 180.826 54.4092 181.324C54.5459 181.817 54.6143 182.366 54.6143 182.972ZM53.252 183.125V182.972C53.252 182.576 53.2104 182.205 53.1274 181.858C53.0444 181.507 52.915 181.199 52.7393 180.936C52.5684 180.667 52.3486 180.457 52.0801 180.306C51.8115 180.149 51.4917 180.071 51.1206 180.071C50.7788 180.071 50.481 180.13 50.2271 180.247C49.978 180.364 49.7656 180.523 49.5898 180.723C49.4141 180.918 49.27 181.143 49.1577 181.397C49.0503 181.646 48.9697 181.905 48.916 182.173V184.07C49.0137 184.412 49.1504 184.734 49.3262 185.037C49.502 185.335 49.7363 185.577 50.0293 185.762C50.3223 185.943 50.6909 186.033 51.1353 186.033C51.5015 186.033 51.8164 185.958 52.0801 185.806C52.3486 185.65 52.5684 185.438 52.7393 185.169C52.915 184.9 53.0444 184.593 53.1274 184.246C53.2104 183.895 53.252 183.521 53.252 183.125ZM59.6606 179.075V180.115H55.376V179.075H59.6606ZM56.8262 177.149H58.1812V185.037C58.1812 185.306 58.2227 185.508 58.3057 185.645C58.3887 185.782 58.4961 185.872 58.6279 185.916C58.7598 185.96 58.9014 185.982 59.0527 185.982C59.165 185.982 59.2822 185.972 59.4043 185.953C59.5312 185.928 59.6265 185.909 59.6899 185.894L59.6973 187C59.5898 187.034 59.4482 187.066 59.2725 187.095C59.1016 187.129 58.894 187.146 58.6499 187.146C58.3179 187.146 58.0127 187.081 57.7344 186.949C57.4561 186.817 57.2339 186.597 57.0679 186.29C56.9067 185.977 56.8262 185.557 56.8262 185.03V177.149ZM62.7222 179.075V187H61.3599V179.075H62.7222ZM61.2573 176.973C61.2573 176.753 61.3232 176.568 61.4551 176.417C61.5918 176.265 61.792 176.189 62.0557 176.189C62.3145 176.189 62.5122 176.265 62.6489 176.417C62.7905 176.568 62.8613 176.753 62.8613 176.973C62.8613 177.183 62.7905 177.364 62.6489 177.515C62.5122 177.662 62.3145 177.735 62.0557 177.735C61.792 177.735 61.5918 177.662 61.4551 177.515C61.3232 177.364 61.2573 177.183 61.2573 176.973ZM66.2451 180.65V187H64.8828V179.075H66.1719L66.2451 180.65ZM65.9668 182.737L65.3369 182.715C65.3418 182.173 65.4126 181.673 65.5493 181.214C65.686 180.75 65.8887 180.347 66.1572 180.005C66.4258 179.664 66.7603 179.4 67.1606 179.214C67.561 179.024 68.0249 178.929 68.5522 178.929C68.9233 178.929 69.2651 178.982 69.5776 179.09C69.8901 179.192 70.1611 179.356 70.3906 179.581C70.6201 179.805 70.7983 180.093 70.9253 180.445C71.0522 180.796 71.1157 181.221 71.1157 181.719V187H69.7607V181.785C69.7607 181.37 69.6899 181.038 69.5483 180.789C69.4116 180.54 69.2163 180.359 68.9624 180.247C68.7085 180.13 68.4106 180.071 68.0688 180.071C67.6685 180.071 67.334 180.142 67.0654 180.284C66.7969 180.425 66.582 180.621 66.4209 180.87C66.2598 181.119 66.1426 181.404 66.0693 181.727C66.001 182.044 65.9668 182.381 65.9668 182.737ZM71.1011 181.99L70.1929 182.269C70.1978 181.834 70.2686 181.417 70.4053 181.016C70.5469 180.616 70.7495 180.259 71.0132 179.947C71.2817 179.634 71.6113 179.388 72.002 179.207C72.3926 179.021 72.8394 178.929 73.3423 178.929C73.7671 178.929 74.1431 178.985 74.4702 179.097C74.8022 179.209 75.0806 179.383 75.3052 179.617C75.5347 179.847 75.708 180.142 75.8252 180.503C75.9424 180.865 76.001 181.294 76.001 181.792V187H74.6387V181.778C74.6387 181.333 74.5679 180.989 74.4263 180.745C74.2896 180.496 74.0942 180.323 73.8403 180.225C73.5913 180.123 73.2935 180.071 72.9468 180.071C72.6489 180.071 72.3853 180.123 72.1558 180.225C71.9263 180.328 71.7334 180.469 71.5771 180.65C71.4209 180.826 71.3013 181.028 71.2183 181.258C71.1401 181.487 71.1011 181.731 71.1011 181.99ZM79.5239 179.075V187H78.1616V179.075H79.5239ZM78.0591 176.973C78.0591 176.753 78.125 176.568 78.2568 176.417C78.3936 176.265 78.5938 176.189 78.8574 176.189C79.1162 176.189 79.314 176.265 79.4507 176.417C79.5923 176.568 79.6631 176.753 79.6631 176.973C79.6631 177.183 79.5923 177.364 79.4507 177.515C79.314 177.662 79.1162 177.735 78.8574 177.735C78.5938 177.735 78.3936 177.662 78.2568 177.515C78.125 177.364 78.0591 177.183 78.0591 176.973ZM87.6025 185.887V187H81.8384V185.887H87.6025ZM87.3901 180.035L82.146 187H81.3184V186.004L86.5259 179.075H87.3901V180.035ZM86.7896 179.075V180.196H81.377V179.075H86.7896ZM93.8135 185.645V181.565C93.8135 181.253 93.75 180.982 93.623 180.752C93.501 180.518 93.3154 180.337 93.0664 180.21C92.8174 180.083 92.5098 180.02 92.1436 180.02C91.8018 180.02 91.5015 180.079 91.2427 180.196C90.9888 180.313 90.7886 180.467 90.6421 180.657C90.5005 180.848 90.4297 181.053 90.4297 181.272H89.0747C89.0747 180.989 89.1479 180.708 89.2944 180.43C89.4409 180.152 89.6509 179.9 89.9243 179.676C90.2026 179.446 90.5347 179.266 90.9204 179.134C91.311 178.997 91.7456 178.929 92.2241 178.929C92.8003 178.929 93.3081 179.026 93.7476 179.222C94.1919 179.417 94.5386 179.712 94.7876 180.108C95.0415 180.499 95.1685 180.989 95.1685 181.58V185.271C95.1685 185.535 95.1904 185.816 95.2344 186.114C95.2832 186.412 95.354 186.668 95.4468 186.883V187H94.0332C93.9648 186.844 93.9111 186.636 93.8721 186.377C93.833 186.114 93.8135 185.87 93.8135 185.645ZM94.0479 182.195L94.0625 183.147H92.6929C92.3071 183.147 91.9629 183.179 91.6602 183.243C91.3574 183.301 91.1035 183.392 90.8984 183.514C90.6934 183.636 90.5371 183.79 90.4297 183.975C90.3223 184.156 90.2686 184.368 90.2686 184.612C90.2686 184.861 90.3247 185.088 90.437 185.293C90.5493 185.499 90.7178 185.662 90.9424 185.784C91.1719 185.901 91.4526 185.96 91.7847 185.96C92.1997 185.96 92.5659 185.872 92.8833 185.696C93.2007 185.521 93.4521 185.306 93.6377 185.052C93.8281 184.798 93.9307 184.551 93.9453 184.312L94.5239 184.964C94.4897 185.169 94.397 185.396 94.2456 185.645C94.0942 185.894 93.8916 186.133 93.6377 186.363C93.3887 186.587 93.0908 186.775 92.7441 186.927C92.4023 187.073 92.0166 187.146 91.5869 187.146C91.0498 187.146 90.5786 187.042 90.1733 186.832C89.7729 186.622 89.4604 186.341 89.2358 185.989C89.0161 185.633 88.9062 185.235 88.9062 184.795C88.9062 184.371 88.9893 183.997 89.1553 183.675C89.3213 183.348 89.5605 183.077 89.873 182.862C90.1855 182.642 90.5615 182.476 91.001 182.364C91.4404 182.251 91.9312 182.195 92.4731 182.195H94.0479ZM100.618 179.075V180.115H96.333V179.075H100.618ZM97.7832 177.149H99.1382V185.037C99.1382 185.306 99.1797 185.508 99.2627 185.645C99.3457 185.782 99.4531 185.872 99.585 185.916C99.7168 185.96 99.8584 185.982 100.01 185.982C100.122 185.982 100.239 185.972 100.361 185.953C100.488 185.928 100.583 185.909 100.647 185.894L100.654 187C100.547 187.034 100.405 187.066 100.229 187.095C100.059 187.129 99.8511 187.146 99.6069 187.146C99.2749 187.146 98.9697 187.081 98.6914 186.949C98.4131 186.817 98.1909 186.597 98.0249 186.29C97.8638 185.977 97.7832 185.557 97.7832 185.03V177.149ZM103.679 179.075V187H102.317V179.075H103.679ZM102.214 176.973C102.214 176.753 102.28 176.568 102.412 176.417C102.549 176.265 102.749 176.189 103.013 176.189C103.271 176.189 103.469 176.265 103.606 176.417C103.748 176.568 103.818 176.753 103.818 176.973C103.818 177.183 103.748 177.364 103.606 177.515C103.469 177.662 103.271 177.735 103.013 177.735C102.749 177.735 102.549 177.662 102.412 177.515C102.28 177.364 102.214 177.183 102.214 176.973ZM105.496 183.125V182.957C105.496 182.386 105.579 181.856 105.745 181.368C105.911 180.875 106.15 180.447 106.462 180.086C106.775 179.72 107.153 179.437 107.598 179.236C108.042 179.031 108.54 178.929 109.092 178.929C109.648 178.929 110.149 179.031 110.593 179.236C111.042 179.437 111.423 179.72 111.736 180.086C112.053 180.447 112.295 180.875 112.461 181.368C112.627 181.856 112.71 182.386 112.71 182.957V183.125C112.71 183.697 112.627 184.227 112.461 184.715C112.295 185.203 112.053 185.63 111.736 185.997C111.423 186.358 111.045 186.641 110.601 186.846C110.161 187.046 109.663 187.146 109.106 187.146C108.55 187.146 108.049 187.046 107.605 186.846C107.161 186.641 106.78 186.358 106.462 185.997C106.15 185.63 105.911 185.203 105.745 184.715C105.579 184.227 105.496 183.697 105.496 183.125ZM106.851 182.957V183.125C106.851 183.521 106.897 183.895 106.99 184.246C107.083 184.593 107.222 184.9 107.407 185.169C107.598 185.438 107.834 185.65 108.118 185.806C108.401 185.958 108.73 186.033 109.106 186.033C109.478 186.033 109.802 185.958 110.081 185.806C110.364 185.65 110.598 185.438 110.784 185.169C110.969 184.9 111.108 184.593 111.201 184.246C111.299 183.895 111.348 183.521 111.348 183.125V182.957C111.348 182.566 111.299 182.198 111.201 181.851C111.108 181.5 110.967 181.189 110.776 180.921C110.591 180.647 110.356 180.433 110.073 180.276C109.795 180.12 109.468 180.042 109.092 180.042C108.721 180.042 108.394 180.12 108.11 180.276C107.832 180.433 107.598 180.647 107.407 180.921C107.222 181.189 107.083 181.5 106.99 181.851C106.897 182.198 106.851 182.566 106.851 182.957ZM115.764 180.767V187H114.409V179.075H115.691L115.764 180.767ZM115.442 182.737L114.878 182.715C114.883 182.173 114.963 181.673 115.12 181.214C115.276 180.75 115.496 180.347 115.779 180.005C116.062 179.664 116.399 179.4 116.79 179.214C117.185 179.024 117.622 178.929 118.101 178.929C118.491 178.929 118.843 178.982 119.155 179.09C119.468 179.192 119.734 179.358 119.954 179.588C120.178 179.817 120.349 180.115 120.466 180.481C120.583 180.843 120.642 181.285 120.642 181.807V187H119.28V181.792C119.28 181.377 119.219 181.045 119.097 180.796C118.975 180.542 118.796 180.359 118.562 180.247C118.328 180.13 118.04 180.071 117.698 180.071C117.361 180.071 117.053 180.142 116.775 180.284C116.501 180.425 116.265 180.621 116.064 180.87C115.869 181.119 115.715 181.404 115.603 181.727C115.496 182.044 115.442 182.381 115.442 182.737Z" fill="white"/>
<path opacity="0.12" d="M79 0.57735C79.6188 0.220084 80.3812 0.220085 81 0.57735L120.569 23.4226C121.188 23.7799 121.569 24.4402 121.569 25.1547V70.8453C121.569 71.5598 121.188 72.2201 120.569 72.5774L81 95.4226C80.3812 95.7799 79.6188 95.7799 79 95.4226L39.4308 72.5774C38.812 72.2201 38.4308 71.5598 38.4308 70.8453V25.1547C38.4308 24.4402 38.812 23.7799 39.4308 23.4226L79 0.57735Z" fill="white"/>
<path d="M77 34C77 40.0751 72.0751 45 66 45C59.9249 45 55 40.0751 55 34C55 31.6406 55.7428 29.4547 57.0074 27.6634C57.1803 27.4184 57.5307 27.398 57.7427 27.61L65.0752 34.9424C65.247 35.1143 65.5256 35.1143 65.6974 34.9424L66.9419 33.6979C67.1138 33.5261 67.1138 33.2475 66.9419 33.0757L59.6094 25.7431C59.3974 25.5311 59.4179 25.1807 59.6628 25.0078C61.4542 23.743 63.6403 23 66 23C72.0751 23 77 27.9249 77 34Z" fill="#00BECC"/>
<path d="M105 34C105 40.0751 100.075 45 94 45C87.9249 45 83 40.0751 83 34C83 31.5976 83.7701 29.3752 85.077 27.566C85.2513 27.3246 85.5989 27.3061 85.8094 27.5166L93.2352 34.9424C93.407 35.1143 93.6856 35.1143 93.8574 34.9424L95.1019 33.6979C95.2738 33.5261 95.2738 33.2475 95.1019 33.0757L87.7036 25.6773C87.4901 25.4639 87.5126 25.1106 87.7611 24.9392C89.5339 23.7162 91.6833 23 94 23C100.075 23 105 27.9249 105 34Z" fill="#00BECC"/>
<path d="M66 73C72.0751 73 77 68.0751 77 62C77 59.6404 76.2571 57.4543 74.9923 55.663C74.8194 55.4181 74.469 55.3976 74.257 55.6096L66.7642 63.1024C66.5924 63.2743 66.3138 63.2743 66.142 63.1024L64.8974 61.8579C64.7256 61.6861 64.7256 61.4075 64.8974 61.2357L72.3903 53.7428C72.6022 53.5309 72.5818 53.1804 72.3369 53.0075C70.5455 51.7429 68.3595 51 66 51C59.9249 51 55 55.9249 55 62C55 68.0751 59.9249 73 66 73Z" fill="#00BECC"/>
<path d="M105 62C105 68.0751 100.075 73 94 73C87.9249 73 83 68.0751 83 62C83 55.9249 87.9249 51 94 51C96.4024 51 98.625 51.7702 100.434 53.0771C100.676 53.2514 100.694 53.599 100.484 53.8095L93.0574 61.2357C92.8856 61.4075 92.8856 61.6861 93.0574 61.8579L94.3019 63.1024C94.4738 63.2743 94.7524 63.2743 94.9242 63.1024L102.323 55.7038C102.536 55.4903 102.89 55.5128 103.061 55.7613C104.284 57.5341 105 59.6834 105 62Z" fill="#00BECC"/>
</svg>
