<svg width="160" height="192" viewBox="0 0 160 192" fill="none" xmlns="http://www.w3.org/2000/svg">
<path d="M57.7832 122.781V137H55.3516V122.781H57.7832ZM62.2461 122.781V124.734H50.9277V122.781H62.2461ZM68.5352 134.881V129.842C68.5352 129.464 68.4668 129.139 68.3301 128.865C68.1934 128.592 67.985 128.38 67.7051 128.23C67.4316 128.081 67.0866 128.006 66.6699 128.006C66.2858 128.006 65.9538 128.071 65.6738 128.201C65.3939 128.331 65.1758 128.507 65.0195 128.729C64.8633 128.95 64.7852 129.201 64.7852 129.48H62.4414C62.4414 129.064 62.5423 128.66 62.7441 128.27C62.946 127.879 63.2389 127.531 63.623 127.225C64.0072 126.919 64.4661 126.678 65 126.502C65.5339 126.326 66.1328 126.238 66.7969 126.238C67.5911 126.238 68.2943 126.372 68.9062 126.639C69.5247 126.906 70.0098 127.309 70.3613 127.85C70.7194 128.383 70.8984 129.054 70.8984 129.861V134.559C70.8984 135.04 70.931 135.473 70.9961 135.857C71.0677 136.235 71.1686 136.564 71.2988 136.844V137H68.8867C68.776 136.746 68.6882 136.424 68.623 136.033C68.5645 135.636 68.5352 135.252 68.5352 134.881ZM68.877 130.574L68.8965 132.029H67.207C66.7708 132.029 66.3867 132.072 66.0547 132.156C65.7227 132.234 65.446 132.352 65.2246 132.508C65.0033 132.664 64.8372 132.853 64.7266 133.074C64.6159 133.296 64.5605 133.546 64.5605 133.826C64.5605 134.106 64.6257 134.363 64.7559 134.598C64.8861 134.826 65.0749 135.005 65.3223 135.135C65.5762 135.265 65.8822 135.33 66.2402 135.33C66.722 135.33 67.1419 135.232 67.5 135.037C67.8646 134.835 68.151 134.591 68.3594 134.305C68.5677 134.012 68.6784 133.735 68.6914 133.475L69.4531 134.52C69.375 134.786 69.2415 135.073 69.0527 135.379C68.8639 135.685 68.6165 135.978 68.3105 136.258C68.0111 136.531 67.6497 136.756 67.2266 136.932C66.8099 137.107 66.3281 137.195 65.7812 137.195C65.0911 137.195 64.4759 137.059 63.9355 136.785C63.3952 136.505 62.972 136.131 62.666 135.662C62.36 135.187 62.207 134.65 62.207 134.051C62.207 133.491 62.3112 132.996 62.5195 132.566C62.7344 132.13 63.0469 131.766 63.457 131.473C63.8737 131.18 64.3815 130.958 64.9805 130.809C65.5794 130.652 66.263 130.574 67.0312 130.574H68.877ZM73.3691 122H75.7227V134.744L75.498 137H73.3691V122ZM82.6172 131.619V131.824C82.6172 132.605 82.5293 133.325 82.3535 133.982C82.1842 134.633 81.9238 135.2 81.5723 135.682C81.2272 136.163 80.7975 136.538 80.2832 136.805C79.7754 137.065 79.1862 137.195 78.5156 137.195C77.8581 137.195 77.2852 137.072 76.7969 136.824C76.3086 136.577 75.8984 136.225 75.5664 135.77C75.2409 135.314 74.9772 134.77 74.7754 134.139C74.5736 133.507 74.4303 132.811 74.3457 132.049V131.395C74.4303 130.626 74.5736 129.93 74.7754 129.305C74.9772 128.673 75.2409 128.13 75.5664 127.674C75.8984 127.212 76.3053 126.857 76.7871 126.609C77.2754 126.362 77.8451 126.238 78.4961 126.238C79.1732 126.238 79.7689 126.368 80.2832 126.629C80.804 126.889 81.237 127.26 81.582 127.742C81.9271 128.217 82.1842 128.784 82.3535 129.441C82.5293 130.099 82.6172 130.825 82.6172 131.619ZM80.2637 131.824V131.619C80.2637 131.144 80.2246 130.698 80.1465 130.281C80.0684 129.858 79.9382 129.487 79.7559 129.168C79.5801 128.849 79.3392 128.598 79.0332 128.416C78.7337 128.227 78.3594 128.133 77.9102 128.133C77.4935 128.133 77.1354 128.204 76.8359 128.348C76.5365 128.491 76.2858 128.686 76.084 128.934C75.8822 129.181 75.7227 129.467 75.6055 129.793C75.4948 130.118 75.4199 130.47 75.3809 130.848V132.615C75.4395 133.104 75.5632 133.553 75.752 133.963C75.9473 134.367 76.2207 134.692 76.5723 134.939C76.9238 135.18 77.3763 135.301 77.9297 135.301C78.3659 135.301 78.7337 135.213 79.0332 135.037C79.3327 134.861 79.5703 134.617 79.7461 134.305C79.9284 133.986 80.0586 133.615 80.1367 133.191C80.2214 132.768 80.2637 132.312 80.2637 131.824ZM87.1289 122V137H84.7656V122H87.1289ZM94.3652 137.195C93.584 137.195 92.8776 137.068 92.2461 136.814C91.6211 136.554 91.0872 136.193 90.6445 135.73C90.2083 135.268 89.873 134.725 89.6387 134.1C89.4043 133.475 89.2871 132.801 89.2871 132.078V131.688C89.2871 130.861 89.4076 130.112 89.6484 129.441C89.8893 128.771 90.2246 128.198 90.6543 127.723C91.084 127.241 91.5918 126.873 92.1777 126.619C92.7637 126.365 93.3984 126.238 94.082 126.238C94.8372 126.238 95.498 126.365 96.0645 126.619C96.6309 126.873 97.0996 127.231 97.4707 127.693C97.8483 128.149 98.1283 128.693 98.3105 129.324C98.4993 129.956 98.5938 130.652 98.5938 131.414V132.42H90.4297V130.73H96.2695V130.545C96.2565 130.122 96.1719 129.725 96.0156 129.354C95.8659 128.982 95.6348 128.683 95.3223 128.455C95.0098 128.227 94.5931 128.113 94.0723 128.113C93.6816 128.113 93.3333 128.198 93.0273 128.367C92.7279 128.53 92.4772 128.768 92.2754 129.08C92.0736 129.393 91.9173 129.77 91.8066 130.213C91.7025 130.649 91.6504 131.141 91.6504 131.688V132.078C91.6504 132.54 91.7122 132.97 91.8359 133.367C91.9661 133.758 92.1549 134.1 92.4023 134.393C92.6497 134.686 92.9492 134.917 93.3008 135.086C93.6523 135.249 94.0527 135.33 94.502 135.33C95.0684 135.33 95.5729 135.216 96.0156 134.988C96.4583 134.76 96.8424 134.438 97.168 134.021L98.4082 135.223C98.1803 135.555 97.8841 135.874 97.5195 136.18C97.1549 136.479 96.709 136.723 96.1816 136.912C95.6608 137.101 95.0553 137.195 94.3652 137.195ZM106.357 134.139C106.357 133.904 106.299 133.693 106.182 133.504C106.064 133.309 105.84 133.133 105.508 132.977C105.182 132.82 104.701 132.677 104.062 132.547C103.503 132.423 102.988 132.277 102.52 132.107C102.057 131.932 101.66 131.72 101.328 131.473C100.996 131.225 100.739 130.932 100.557 130.594C100.374 130.255 100.283 129.865 100.283 129.422C100.283 128.992 100.378 128.585 100.566 128.201C100.755 127.817 101.025 127.479 101.377 127.186C101.729 126.893 102.155 126.661 102.656 126.492C103.164 126.323 103.73 126.238 104.355 126.238C105.241 126.238 105.999 126.388 106.631 126.688C107.269 126.98 107.757 127.381 108.096 127.889C108.434 128.39 108.604 128.956 108.604 129.588H106.25C106.25 129.308 106.178 129.048 106.035 128.807C105.898 128.559 105.69 128.361 105.41 128.211C105.13 128.055 104.779 127.977 104.355 127.977C103.952 127.977 103.617 128.042 103.35 128.172C103.089 128.296 102.894 128.458 102.764 128.66C102.64 128.862 102.578 129.083 102.578 129.324C102.578 129.5 102.611 129.66 102.676 129.803C102.747 129.939 102.865 130.066 103.027 130.184C103.19 130.294 103.411 130.398 103.691 130.496C103.978 130.594 104.336 130.688 104.766 130.779C105.573 130.949 106.266 131.167 106.846 131.434C107.432 131.694 107.881 132.033 108.193 132.449C108.506 132.859 108.662 133.38 108.662 134.012C108.662 134.48 108.561 134.91 108.359 135.301C108.164 135.685 107.878 136.02 107.5 136.307C107.122 136.587 106.67 136.805 106.143 136.961C105.622 137.117 105.036 137.195 104.385 137.195C103.428 137.195 102.617 137.026 101.953 136.688C101.289 136.342 100.785 135.903 100.439 135.369C100.101 134.829 99.9316 134.269 99.9316 133.689H102.207C102.233 134.126 102.354 134.474 102.568 134.734C102.79 134.988 103.063 135.174 103.389 135.291C103.721 135.402 104.062 135.457 104.414 135.457C104.837 135.457 105.192 135.402 105.479 135.291C105.765 135.174 105.983 135.018 106.133 134.822C106.283 134.62 106.357 134.393 106.357 134.139Z" fill="white"/>
<path opacity="0.6" d="M31.1914 155.336V166H29.7778V155.336H31.1914ZM34.9121 159.767V166H33.5571V158.075H34.8389L34.9121 159.767ZM34.5898 161.737L34.0259 161.715C34.0308 161.173 34.1113 160.673 34.2676 160.214C34.4238 159.75 34.6436 159.347 34.9268 159.005C35.21 158.664 35.5469 158.4 35.9375 158.214C36.333 158.024 36.77 157.929 37.2485 157.929C37.6392 157.929 37.9907 157.982 38.3032 158.09C38.6157 158.192 38.8818 158.358 39.1016 158.588C39.3262 158.817 39.4971 159.115 39.6143 159.481C39.7314 159.843 39.79 160.285 39.79 160.807V166H38.4277V160.792C38.4277 160.377 38.3667 160.045 38.2446 159.796C38.1226 159.542 37.9443 159.359 37.71 159.247C37.4756 159.13 37.1875 159.071 36.8457 159.071C36.5088 159.071 36.2012 159.142 35.9229 159.284C35.6494 159.425 35.4126 159.621 35.2124 159.87C35.0171 160.119 34.8633 160.404 34.751 160.727C34.6436 161.044 34.5898 161.381 34.5898 161.737ZM45.166 158.075V159.115H40.8813V158.075H45.166ZM42.3315 156.149H43.6865V164.037C43.6865 164.306 43.728 164.508 43.811 164.645C43.894 164.782 44.0015 164.872 44.1333 164.916C44.2651 164.96 44.4067 164.982 44.5581 164.982C44.6704 164.982 44.7876 164.972 44.9097 164.953C45.0366 164.928 45.1318 164.909 45.1953 164.894L45.2026 166C45.0952 166.034 44.9536 166.066 44.7778 166.095C44.6069 166.129 44.3994 166.146 44.1553 166.146C43.8232 166.146 43.5181 166.081 43.2397 165.949C42.9614 165.817 42.7393 165.597 42.5732 165.29C42.4121 164.977 42.3315 164.557 42.3315 164.03V156.149ZM50.0439 166.146C49.4922 166.146 48.9917 166.054 48.5425 165.868C48.0981 165.678 47.7148 165.412 47.3926 165.07C47.0752 164.728 46.8311 164.323 46.6602 163.854C46.4893 163.385 46.4038 162.873 46.4038 162.316V162.008C46.4038 161.364 46.499 160.79 46.6895 160.287C46.8799 159.779 47.1387 159.35 47.4658 158.998C47.793 158.646 48.1641 158.38 48.5791 158.2C48.9941 158.019 49.4238 157.929 49.8682 157.929C50.4346 157.929 50.9229 158.026 51.333 158.222C51.748 158.417 52.0874 158.69 52.3511 159.042C52.6147 159.389 52.8101 159.799 52.937 160.272C53.064 160.741 53.1274 161.254 53.1274 161.811V162.418H47.2095V161.312H51.7725V161.21C51.7529 160.858 51.6797 160.517 51.5527 160.185C51.4307 159.853 51.2354 159.579 50.9668 159.364C50.6982 159.149 50.332 159.042 49.8682 159.042C49.5605 159.042 49.2773 159.108 49.0186 159.24C48.7598 159.367 48.5376 159.557 48.3521 159.811C48.1665 160.065 48.0225 160.375 47.9199 160.741C47.8174 161.107 47.7661 161.53 47.7661 162.008V162.316C47.7661 162.692 47.8174 163.046 47.9199 163.378C48.0273 163.705 48.1812 163.993 48.3813 164.242C48.5864 164.491 48.833 164.687 49.1211 164.828C49.4141 164.97 49.7461 165.041 50.1172 165.041C50.5957 165.041 51.001 164.943 51.333 164.748C51.665 164.552 51.9556 164.291 52.2046 163.964L53.0249 164.616C52.854 164.875 52.6367 165.121 52.373 165.355C52.1094 165.59 51.7847 165.78 51.3989 165.927C51.0181 166.073 50.5664 166.146 50.0439 166.146ZM56.0645 159.32V166H54.7095V158.075H56.0278L56.0645 159.32ZM58.54 158.031L58.5327 159.291C58.4204 159.267 58.313 159.252 58.2104 159.247C58.1128 159.237 58.0005 159.232 57.8735 159.232C57.561 159.232 57.2852 159.281 57.0459 159.379C56.8066 159.477 56.604 159.613 56.438 159.789C56.272 159.965 56.1401 160.175 56.0425 160.419C55.9497 160.658 55.8887 160.922 55.8594 161.21L55.4785 161.43C55.4785 160.951 55.5249 160.502 55.6177 160.082C55.7153 159.662 55.8643 159.291 56.0645 158.969C56.2646 158.642 56.5186 158.388 56.8262 158.207C57.1387 158.021 57.5098 157.929 57.9395 157.929C58.0371 157.929 58.1494 157.941 58.2764 157.965C58.4033 157.985 58.4912 158.007 58.54 158.031ZM64.1724 164.645V160.565C64.1724 160.253 64.1089 159.982 63.9819 159.752C63.8599 159.518 63.6743 159.337 63.4253 159.21C63.1763 159.083 62.8687 159.02 62.5024 159.02C62.1606 159.02 61.8604 159.079 61.6016 159.196C61.3477 159.313 61.1475 159.467 61.001 159.657C60.8594 159.848 60.7886 160.053 60.7886 160.272H59.4336C59.4336 159.989 59.5068 159.708 59.6533 159.43C59.7998 159.152 60.0098 158.9 60.2832 158.676C60.5615 158.446 60.8936 158.266 61.2793 158.134C61.6699 157.997 62.1045 157.929 62.583 157.929C63.1592 157.929 63.667 158.026 64.1064 158.222C64.5508 158.417 64.8975 158.712 65.1465 159.108C65.4004 159.499 65.5273 159.989 65.5273 160.58V164.271C65.5273 164.535 65.5493 164.816 65.5933 165.114C65.6421 165.412 65.7129 165.668 65.8057 165.883V166H64.3921C64.3237 165.844 64.27 165.636 64.231 165.377C64.1919 165.114 64.1724 164.87 64.1724 164.645ZM64.4067 161.195L64.4214 162.147H63.0518C62.666 162.147 62.3218 162.179 62.019 162.243C61.7163 162.301 61.4624 162.392 61.2573 162.514C61.0522 162.636 60.896 162.79 60.7886 162.975C60.6812 163.156 60.6274 163.368 60.6274 163.612C60.6274 163.861 60.6836 164.088 60.7959 164.293C60.9082 164.499 61.0767 164.662 61.3013 164.784C61.5308 164.901 61.8115 164.96 62.1436 164.96C62.5586 164.96 62.9248 164.872 63.2422 164.696C63.5596 164.521 63.811 164.306 63.9966 164.052C64.187 163.798 64.2896 163.551 64.3042 163.312L64.8828 163.964C64.8486 164.169 64.7559 164.396 64.6045 164.645C64.4531 164.894 64.2505 165.133 63.9966 165.363C63.7476 165.587 63.4497 165.775 63.103 165.927C62.7612 166.073 62.3755 166.146 61.9458 166.146C61.4087 166.146 60.9375 166.042 60.5322 165.832C60.1318 165.622 59.8193 165.341 59.5947 164.989C59.375 164.633 59.2651 164.235 59.2651 163.795C59.2651 163.371 59.3481 162.997 59.5142 162.675C59.6802 162.348 59.9194 162.077 60.2319 161.862C60.5444 161.642 60.9204 161.476 61.3599 161.364C61.7993 161.251 62.29 161.195 62.832 161.195H64.4067ZM70.8301 165.033C71.1523 165.033 71.4502 164.967 71.7236 164.835C71.9971 164.704 72.2217 164.523 72.3975 164.293C72.5732 164.059 72.6733 163.793 72.6978 163.495H73.9868C73.9624 163.964 73.8037 164.401 73.5107 164.806C73.2227 165.207 72.8442 165.531 72.3755 165.78C71.9067 166.024 71.3916 166.146 70.8301 166.146C70.2344 166.146 69.7144 166.042 69.27 165.832C68.8306 165.622 68.4644 165.333 68.1714 164.967C67.8833 164.601 67.666 164.181 67.5195 163.708C67.3779 163.229 67.3071 162.724 67.3071 162.191V161.884C67.3071 161.352 67.3779 160.849 67.5195 160.375C67.666 159.896 67.8833 159.474 68.1714 159.108C68.4644 158.742 68.8306 158.454 69.27 158.244C69.7144 158.034 70.2344 157.929 70.8301 157.929C71.4502 157.929 71.9922 158.056 72.4561 158.31C72.9199 158.559 73.2837 158.9 73.5474 159.335C73.8159 159.765 73.9624 160.253 73.9868 160.8H72.6978C72.6733 160.473 72.5806 160.177 72.4194 159.914C72.2632 159.65 72.0483 159.44 71.7749 159.284C71.5063 159.123 71.1914 159.042 70.8301 159.042C70.415 159.042 70.0659 159.125 69.7827 159.291C69.5044 159.452 69.2822 159.672 69.1162 159.95C68.9551 160.224 68.8379 160.529 68.7646 160.866C68.6963 161.198 68.6621 161.537 68.6621 161.884V162.191C68.6621 162.538 68.6963 162.88 68.7646 163.217C68.833 163.554 68.9478 163.859 69.1089 164.132C69.2749 164.406 69.4971 164.625 69.7754 164.792C70.0586 164.953 70.4102 165.033 70.8301 165.033ZM78.8281 158.075V159.115H74.5435V158.075H78.8281ZM75.9937 156.149H77.3486V164.037C77.3486 164.306 77.3901 164.508 77.4731 164.645C77.5562 164.782 77.6636 164.872 77.7954 164.916C77.9272 164.96 78.0688 164.982 78.2202 164.982C78.3325 164.982 78.4497 164.972 78.5718 164.953C78.6987 164.928 78.7939 164.909 78.8574 164.894L78.8647 166C78.7573 166.034 78.6157 166.066 78.4399 166.095C78.269 166.129 78.0615 166.146 77.8174 166.146C77.4854 166.146 77.1802 166.081 76.9019 165.949C76.6235 165.817 76.4014 165.597 76.2354 165.29C76.0742 164.977 75.9937 164.557 75.9937 164.03V156.149ZM81.8896 158.075V166H80.5273V158.075H81.8896ZM80.4248 155.973C80.4248 155.753 80.4907 155.568 80.6226 155.417C80.7593 155.265 80.9595 155.189 81.2231 155.189C81.4819 155.189 81.6797 155.265 81.8164 155.417C81.958 155.568 82.0288 155.753 82.0288 155.973C82.0288 156.183 81.958 156.364 81.8164 156.515C81.6797 156.662 81.4819 156.735 81.2231 156.735C80.9595 156.735 80.7593 156.662 80.6226 156.515C80.4907 156.364 80.4248 156.183 80.4248 155.973ZM86.4746 164.777L88.6426 158.075H90.0269L87.1777 166H86.2695L86.4746 164.777ZM84.6655 158.075L86.8994 164.813L87.0532 166H86.145L83.2739 158.075H84.6655ZM94.5166 166.146C93.9648 166.146 93.4644 166.054 93.0151 165.868C92.5708 165.678 92.1875 165.412 91.8652 165.07C91.5479 164.728 91.3037 164.323 91.1328 163.854C90.9619 163.385 90.8765 162.873 90.8765 162.316V162.008C90.8765 161.364 90.9717 160.79 91.1621 160.287C91.3525 159.779 91.6113 159.35 91.9385 158.998C92.2656 158.646 92.6367 158.38 93.0518 158.2C93.4668 158.019 93.8965 157.929 94.3408 157.929C94.9072 157.929 95.3955 158.026 95.8057 158.222C96.2207 158.417 96.5601 158.69 96.8237 159.042C97.0874 159.389 97.2827 159.799 97.4097 160.272C97.5366 160.741 97.6001 161.254 97.6001 161.811V162.418H91.6821V161.312H96.2451V161.21C96.2256 160.858 96.1523 160.517 96.0254 160.185C95.9033 159.853 95.708 159.579 95.4395 159.364C95.1709 159.149 94.8047 159.042 94.3408 159.042C94.0332 159.042 93.75 159.108 93.4912 159.24C93.2324 159.367 93.0103 159.557 92.8247 159.811C92.6392 160.065 92.4951 160.375 92.3926 160.741C92.29 161.107 92.2388 161.53 92.2388 162.008V162.316C92.2388 162.692 92.29 163.046 92.3926 163.378C92.5 163.705 92.6538 163.993 92.854 164.242C93.0591 164.491 93.3057 164.687 93.5938 164.828C93.8867 164.97 94.2188 165.041 94.5898 165.041C95.0684 165.041 95.4736 164.943 95.8057 164.748C96.1377 164.552 96.4282 164.291 96.6772 163.964L97.4976 164.616C97.3267 164.875 97.1094 165.121 96.8457 165.355C96.582 165.59 96.2573 165.78 95.8716 165.927C95.4907 166.073 95.0391 166.146 94.5166 166.146ZM107.898 164.462V154.75H109.26V166H108.015L107.898 164.462ZM102.566 162.125V161.972C102.566 161.366 102.639 160.817 102.786 160.324C102.937 159.826 103.149 159.398 103.423 159.042C103.701 158.686 104.031 158.412 104.412 158.222C104.797 158.026 105.227 157.929 105.701 157.929C106.199 157.929 106.633 158.017 107.004 158.192C107.38 158.363 107.698 158.615 107.957 158.947C108.22 159.274 108.428 159.669 108.579 160.133C108.73 160.597 108.835 161.122 108.894 161.708V162.382C108.84 162.963 108.735 163.485 108.579 163.949C108.428 164.413 108.22 164.809 107.957 165.136C107.698 165.463 107.38 165.714 107.004 165.89C106.628 166.061 106.189 166.146 105.686 166.146C105.222 166.146 104.797 166.046 104.412 165.846C104.031 165.646 103.701 165.365 103.423 165.004C103.149 164.643 102.937 164.218 102.786 163.729C102.639 163.236 102.566 162.702 102.566 162.125ZM103.928 161.972V162.125C103.928 162.521 103.967 162.892 104.045 163.239C104.128 163.585 104.255 163.891 104.426 164.154C104.597 164.418 104.814 164.625 105.078 164.777C105.342 164.923 105.657 164.997 106.023 164.997C106.472 164.997 106.841 164.901 107.129 164.711C107.422 164.521 107.656 164.269 107.832 163.957C108.008 163.644 108.145 163.305 108.242 162.938V161.173C108.184 160.905 108.098 160.646 107.986 160.397C107.878 160.143 107.737 159.918 107.561 159.723C107.39 159.523 107.178 159.364 106.924 159.247C106.675 159.13 106.379 159.071 106.038 159.071C105.667 159.071 105.347 159.149 105.078 159.306C104.814 159.457 104.597 159.667 104.426 159.936C104.255 160.199 104.128 160.507 104.045 160.858C103.967 161.205 103.928 161.576 103.928 161.972ZM116.042 164.645V160.565C116.042 160.253 115.979 159.982 115.852 159.752C115.73 159.518 115.544 159.337 115.295 159.21C115.046 159.083 114.739 159.02 114.373 159.02C114.031 159.02 113.73 159.079 113.472 159.196C113.218 159.313 113.018 159.467 112.871 159.657C112.729 159.848 112.659 160.053 112.659 160.272H111.304C111.304 159.989 111.377 159.708 111.523 159.43C111.67 159.152 111.88 158.9 112.153 158.676C112.432 158.446 112.764 158.266 113.149 158.134C113.54 157.997 113.975 157.929 114.453 157.929C115.029 157.929 115.537 158.026 115.977 158.222C116.421 158.417 116.768 158.712 117.017 159.108C117.271 159.499 117.397 159.989 117.397 160.58V164.271C117.397 164.535 117.419 164.816 117.463 165.114C117.512 165.412 117.583 165.668 117.676 165.883V166H116.262C116.194 165.844 116.14 165.636 116.101 165.377C116.062 165.114 116.042 164.87 116.042 164.645ZM116.277 161.195L116.292 162.147H114.922C114.536 162.147 114.192 162.179 113.889 162.243C113.586 162.301 113.333 162.392 113.127 162.514C112.922 162.636 112.766 162.79 112.659 162.975C112.551 163.156 112.498 163.368 112.498 163.612C112.498 163.861 112.554 164.088 112.666 164.293C112.778 164.499 112.947 164.662 113.171 164.784C113.401 164.901 113.682 164.96 114.014 164.96C114.429 164.96 114.795 164.872 115.112 164.696C115.43 164.521 115.681 164.306 115.867 164.052C116.057 163.798 116.16 163.551 116.174 163.312L116.753 163.964C116.719 164.169 116.626 164.396 116.475 164.645C116.323 164.894 116.121 165.133 115.867 165.363C115.618 165.587 115.32 165.775 114.973 165.927C114.631 166.073 114.246 166.146 113.816 166.146C113.279 166.146 112.808 166.042 112.402 165.832C112.002 165.622 111.689 165.341 111.465 164.989C111.245 164.633 111.135 164.235 111.135 163.795C111.135 163.371 111.218 162.997 111.384 162.675C111.55 162.348 111.79 162.077 112.102 161.862C112.415 161.642 112.791 161.476 113.23 161.364C113.669 161.251 114.16 161.195 114.702 161.195H116.277ZM122.847 158.075V159.115H118.562V158.075H122.847ZM120.012 156.149H121.367V164.037C121.367 164.306 121.409 164.508 121.492 164.645C121.575 164.782 121.682 164.872 121.814 164.916C121.946 164.96 122.087 164.982 122.239 164.982C122.351 164.982 122.468 164.972 122.59 164.953C122.717 164.928 122.812 164.909 122.876 164.894L122.883 166C122.776 166.034 122.634 166.066 122.458 166.095C122.288 166.129 122.08 166.146 121.836 166.146C121.504 166.146 121.199 166.081 120.92 165.949C120.642 165.817 120.42 165.597 120.254 165.29C120.093 164.977 120.012 164.557 120.012 164.03V156.149ZM129.109 164.645V160.565C129.109 160.253 129.045 159.982 128.918 159.752C128.796 159.518 128.611 159.337 128.362 159.21C128.113 159.083 127.805 159.02 127.439 159.02C127.097 159.02 126.797 159.079 126.538 159.196C126.284 159.313 126.084 159.467 125.938 159.657C125.796 159.848 125.725 160.053 125.725 160.272H124.37C124.37 159.989 124.443 159.708 124.59 159.43C124.736 159.152 124.946 158.9 125.22 158.676C125.498 158.446 125.83 158.266 126.216 158.134C126.606 157.997 127.041 157.929 127.52 157.929C128.096 157.929 128.604 158.026 129.043 158.222C129.487 158.417 129.834 158.712 130.083 159.108C130.337 159.499 130.464 159.989 130.464 160.58V164.271C130.464 164.535 130.486 164.816 130.53 165.114C130.579 165.412 130.649 165.668 130.742 165.883V166H129.329C129.26 165.844 129.207 165.636 129.167 165.377C129.128 165.114 129.109 164.87 129.109 164.645ZM129.343 161.195L129.358 162.147H127.988C127.603 162.147 127.258 162.179 126.956 162.243C126.653 162.301 126.399 162.392 126.194 162.514C125.989 162.636 125.833 162.79 125.725 162.975C125.618 163.156 125.564 163.368 125.564 163.612C125.564 163.861 125.62 164.088 125.732 164.293C125.845 164.499 126.013 164.662 126.238 164.784C126.467 164.901 126.748 164.96 127.08 164.96C127.495 164.96 127.861 164.872 128.179 164.696C128.496 164.521 128.748 164.306 128.933 164.052C129.124 163.798 129.226 163.551 129.241 163.312L129.819 163.964C129.785 164.169 129.692 164.396 129.541 164.645C129.39 164.894 129.187 165.133 128.933 165.363C128.684 165.587 128.386 165.775 128.04 165.927C127.698 166.073 127.312 166.146 126.882 166.146C126.345 166.146 125.874 166.042 125.469 165.832C125.068 165.622 124.756 165.341 124.531 164.989C124.312 164.633 124.202 164.235 124.202 163.795C124.202 163.371 124.285 162.997 124.451 162.675C124.617 162.348 124.856 162.077 125.168 161.862C125.481 161.642 125.857 161.476 126.296 161.364C126.736 161.251 127.227 161.195 127.769 161.195H129.343ZM41.7456 185.777L43.9136 179.075H45.2979L42.4487 187H41.5405L41.7456 185.777ZM39.9365 179.075L42.1704 185.813L42.3242 187H41.416L38.5449 179.075H39.9365ZM48.0737 179.075V187H46.7114V179.075H48.0737ZM46.6089 176.973C46.6089 176.753 46.6748 176.568 46.8066 176.417C46.9434 176.265 47.1436 176.189 47.4072 176.189C47.666 176.189 47.8638 176.265 48.0005 176.417C48.1421 176.568 48.2129 176.753 48.2129 176.973C48.2129 177.183 48.1421 177.364 48.0005 177.515C47.8638 177.662 47.666 177.735 47.4072 177.735C47.1436 177.735 46.9434 177.662 46.8066 177.515C46.6748 177.364 46.6089 177.183 46.6089 176.973ZM54.8633 184.898C54.8633 184.703 54.8193 184.522 54.7314 184.356C54.6484 184.185 54.4751 184.031 54.2114 183.895C53.9526 183.753 53.562 183.631 53.0396 183.528C52.6001 183.436 52.2021 183.326 51.8457 183.199C51.4941 183.072 51.1938 182.918 50.9448 182.737C50.7007 182.557 50.5127 182.344 50.3809 182.1C50.249 181.856 50.1831 181.57 50.1831 181.243C50.1831 180.931 50.2515 180.635 50.3882 180.357C50.5298 180.079 50.7275 179.832 50.9814 179.617C51.2402 179.402 51.5503 179.234 51.9116 179.112C52.2729 178.99 52.6758 178.929 53.1201 178.929C53.7549 178.929 54.2969 179.041 54.7461 179.266C55.1953 179.49 55.5396 179.791 55.7788 180.167C56.0181 180.538 56.1377 180.95 56.1377 181.404H54.7827C54.7827 181.185 54.7168 180.972 54.585 180.767C54.458 180.557 54.27 180.384 54.021 180.247C53.7769 180.11 53.4766 180.042 53.1201 180.042C52.7441 180.042 52.439 180.101 52.2046 180.218C51.9751 180.33 51.8066 180.474 51.6992 180.65C51.5967 180.826 51.5454 181.011 51.5454 181.207C51.5454 181.353 51.5698 181.485 51.6187 181.602C51.6724 181.714 51.7651 181.819 51.897 181.917C52.0288 182.01 52.2144 182.098 52.4536 182.181C52.6929 182.264 52.998 182.347 53.3691 182.43C54.0186 182.576 54.5532 182.752 54.9731 182.957C55.3931 183.162 55.7056 183.414 55.9106 183.711C56.1157 184.009 56.2183 184.371 56.2183 184.795C56.2183 185.142 56.145 185.459 55.9985 185.748C55.8569 186.036 55.6494 186.285 55.376 186.495C55.1074 186.7 54.7852 186.861 54.4092 186.978C54.0381 187.09 53.6206 187.146 53.1567 187.146C52.4585 187.146 51.8677 187.022 51.3843 186.773C50.9009 186.524 50.5347 186.202 50.2856 185.806C50.0366 185.411 49.9121 184.993 49.9121 184.554H51.2744C51.2939 184.925 51.4014 185.22 51.5967 185.44C51.792 185.655 52.0312 185.809 52.3145 185.901C52.5977 185.989 52.8784 186.033 53.1567 186.033C53.5278 186.033 53.8379 185.984 54.0869 185.887C54.3408 185.789 54.5337 185.655 54.6655 185.484C54.7974 185.313 54.8633 185.118 54.8633 184.898ZM62.8467 185.169V179.075H64.209V187H62.9126L62.8467 185.169ZM63.103 183.499L63.667 183.484C63.667 184.012 63.6108 184.5 63.4985 184.949C63.3911 185.394 63.2153 185.779 62.9712 186.106C62.7271 186.434 62.4072 186.69 62.0117 186.875C61.6162 187.056 61.1353 187.146 60.5688 187.146C60.1831 187.146 59.8291 187.09 59.5068 186.978C59.1895 186.866 58.916 186.692 58.6865 186.458C58.457 186.224 58.2788 185.918 58.1519 185.542C58.0298 185.167 57.9688 184.715 57.9688 184.188V179.075H59.3237V184.202C59.3237 184.559 59.3628 184.854 59.4409 185.088C59.5239 185.318 59.6338 185.501 59.7705 185.638C59.9121 185.77 60.0684 185.862 60.2393 185.916C60.415 185.97 60.5957 185.997 60.7812 185.997C61.3574 185.997 61.814 185.887 62.1509 185.667C62.4878 185.442 62.7295 185.142 62.876 184.766C63.0273 184.385 63.103 183.963 63.103 183.499ZM70.9473 185.645V181.565C70.9473 181.253 70.8838 180.982 70.7568 180.752C70.6348 180.518 70.4492 180.337 70.2002 180.21C69.9512 180.083 69.6436 180.02 69.2773 180.02C68.9355 180.02 68.6353 180.079 68.3765 180.196C68.1226 180.313 67.9224 180.467 67.7759 180.657C67.6343 180.848 67.5635 181.053 67.5635 181.272H66.2085C66.2085 180.989 66.2817 180.708 66.4282 180.43C66.5747 180.152 66.7847 179.9 67.0581 179.676C67.3364 179.446 67.6685 179.266 68.0542 179.134C68.4448 178.997 68.8794 178.929 69.3579 178.929C69.9341 178.929 70.4419 179.026 70.8813 179.222C71.3257 179.417 71.6724 179.712 71.9214 180.108C72.1753 180.499 72.3022 180.989 72.3022 181.58V185.271C72.3022 185.535 72.3242 185.816 72.3682 186.114C72.417 186.412 72.4878 186.668 72.5806 186.883V187H71.167C71.0986 186.844 71.0449 186.636 71.0059 186.377C70.9668 186.114 70.9473 185.87 70.9473 185.645ZM71.1816 182.195L71.1963 183.147H69.8267C69.4409 183.147 69.0967 183.179 68.7939 183.243C68.4912 183.301 68.2373 183.392 68.0322 183.514C67.8271 183.636 67.6709 183.79 67.5635 183.975C67.4561 184.156 67.4023 184.368 67.4023 184.612C67.4023 184.861 67.4585 185.088 67.5708 185.293C67.6831 185.499 67.8516 185.662 68.0762 185.784C68.3057 185.901 68.5864 185.96 68.9185 185.96C69.3335 185.96 69.6997 185.872 70.0171 185.696C70.3345 185.521 70.5859 185.306 70.7715 185.052C70.9619 184.798 71.0645 184.551 71.0791 184.312L71.6577 184.964C71.6235 185.169 71.5308 185.396 71.3794 185.645C71.228 185.894 71.0254 186.133 70.7715 186.363C70.5225 186.587 70.2246 186.775 69.8779 186.927C69.5361 187.073 69.1504 187.146 68.7207 187.146C68.1836 187.146 67.7124 187.042 67.3071 186.832C66.9067 186.622 66.5942 186.341 66.3696 185.989C66.1499 185.633 66.04 185.235 66.04 184.795C66.04 184.371 66.123 183.997 66.2891 183.675C66.4551 183.348 66.6943 183.077 67.0068 182.862C67.3193 182.642 67.6953 182.476 68.1348 182.364C68.5742 182.251 69.0649 182.195 69.6069 182.195H71.1816ZM75.9058 175.75V187H74.5435V175.75H75.9058ZM79.5532 179.075V187H78.1909V179.075H79.5532ZM78.0884 176.973C78.0884 176.753 78.1543 176.568 78.2861 176.417C78.4229 176.265 78.623 176.189 78.8867 176.189C79.1455 176.189 79.3433 176.265 79.48 176.417C79.6216 176.568 79.6924 176.753 79.6924 176.973C79.6924 177.183 79.6216 177.364 79.48 177.515C79.3433 177.662 79.1455 177.735 78.8867 177.735C78.623 177.735 78.4229 177.662 78.2861 177.515C78.1543 177.364 78.0884 177.183 78.0884 176.973ZM87.6318 185.887V187H81.8677V185.887H87.6318ZM87.4194 180.035L82.1753 187H81.3477V186.004L86.5552 179.075H87.4194V180.035ZM86.8188 179.075V180.196H81.4062V179.075H86.8188ZM93.8428 185.645V181.565C93.8428 181.253 93.7793 180.982 93.6523 180.752C93.5303 180.518 93.3447 180.337 93.0957 180.21C92.8467 180.083 92.5391 180.02 92.1729 180.02C91.8311 180.02 91.5308 180.079 91.272 180.196C91.0181 180.313 90.8179 180.467 90.6714 180.657C90.5298 180.848 90.459 181.053 90.459 181.272H89.104C89.104 180.989 89.1772 180.708 89.3237 180.43C89.4702 180.152 89.6802 179.9 89.9536 179.676C90.2319 179.446 90.564 179.266 90.9497 179.134C91.3403 178.997 91.7749 178.929 92.2534 178.929C92.8296 178.929 93.3374 179.026 93.7769 179.222C94.2212 179.417 94.5679 179.712 94.8169 180.108C95.0708 180.499 95.1978 180.989 95.1978 181.58V185.271C95.1978 185.535 95.2197 185.816 95.2637 186.114C95.3125 186.412 95.3833 186.668 95.4761 186.883V187H94.0625C93.9941 186.844 93.9404 186.636 93.9014 186.377C93.8623 186.114 93.8428 185.87 93.8428 185.645ZM94.0771 182.195L94.0918 183.147H92.7222C92.3364 183.147 91.9922 183.179 91.6895 183.243C91.3867 183.301 91.1328 183.392 90.9277 183.514C90.7227 183.636 90.5664 183.79 90.459 183.975C90.3516 184.156 90.2979 184.368 90.2979 184.612C90.2979 184.861 90.354 185.088 90.4663 185.293C90.5786 185.499 90.7471 185.662 90.9717 185.784C91.2012 185.901 91.4819 185.96 91.814 185.96C92.229 185.96 92.5952 185.872 92.9126 185.696C93.23 185.521 93.4814 185.306 93.667 185.052C93.8574 184.798 93.96 184.551 93.9746 184.312L94.5532 184.964C94.519 185.169 94.4263 185.396 94.2749 185.645C94.1235 185.894 93.9209 186.133 93.667 186.363C93.418 186.587 93.1201 186.775 92.7734 186.927C92.4316 187.073 92.0459 187.146 91.6162 187.146C91.0791 187.146 90.6079 187.042 90.2026 186.832C89.8022 186.622 89.4897 186.341 89.2651 185.989C89.0454 185.633 88.9355 185.235 88.9355 184.795C88.9355 184.371 89.0186 183.997 89.1846 183.675C89.3506 183.348 89.5898 183.077 89.9023 182.862C90.2148 182.642 90.5908 182.476 91.0303 182.364C91.4697 182.251 91.9604 182.195 92.5024 182.195H94.0771ZM100.647 179.075V180.115H96.3623V179.075H100.647ZM97.8125 177.149H99.1675V185.037C99.1675 185.306 99.209 185.508 99.292 185.645C99.375 185.782 99.4824 185.872 99.6143 185.916C99.7461 185.96 99.8877 185.982 100.039 185.982C100.151 185.982 100.269 185.972 100.391 185.953C100.518 185.928 100.613 185.909 100.676 185.894L100.684 187C100.576 187.034 100.435 187.066 100.259 187.095C100.088 187.129 99.8804 187.146 99.6362 187.146C99.3042 187.146 98.999 187.081 98.7207 186.949C98.4424 186.817 98.2202 186.597 98.0542 186.29C97.8931 185.977 97.8125 185.557 97.8125 185.03V177.149ZM103.708 179.075V187H102.346V179.075H103.708ZM102.244 176.973C102.244 176.753 102.31 176.568 102.441 176.417C102.578 176.265 102.778 176.189 103.042 176.189C103.301 176.189 103.499 176.265 103.635 176.417C103.777 176.568 103.848 176.753 103.848 176.973C103.848 177.183 103.777 177.364 103.635 177.515C103.499 177.662 103.301 177.735 103.042 177.735C102.778 177.735 102.578 177.662 102.441 177.515C102.31 177.364 102.244 177.183 102.244 176.973ZM105.525 183.125V182.957C105.525 182.386 105.608 181.856 105.774 181.368C105.94 180.875 106.179 180.447 106.492 180.086C106.804 179.72 107.183 179.437 107.627 179.236C108.071 179.031 108.569 178.929 109.121 178.929C109.678 178.929 110.178 179.031 110.623 179.236C111.072 179.437 111.453 179.72 111.765 180.086C112.083 180.447 112.324 180.875 112.49 181.368C112.656 181.856 112.739 182.386 112.739 182.957V183.125C112.739 183.697 112.656 184.227 112.49 184.715C112.324 185.203 112.083 185.63 111.765 185.997C111.453 186.358 111.074 186.641 110.63 186.846C110.19 187.046 109.692 187.146 109.136 187.146C108.579 187.146 108.079 187.046 107.634 186.846C107.19 186.641 106.809 186.358 106.492 185.997C106.179 185.63 105.94 185.203 105.774 184.715C105.608 184.227 105.525 183.697 105.525 183.125ZM106.88 182.957V183.125C106.88 183.521 106.926 183.895 107.019 184.246C107.112 184.593 107.251 184.9 107.437 185.169C107.627 185.438 107.864 185.65 108.147 185.806C108.43 185.958 108.76 186.033 109.136 186.033C109.507 186.033 109.832 185.958 110.11 185.806C110.393 185.65 110.627 185.438 110.813 185.169C110.999 184.9 111.138 184.593 111.23 184.246C111.328 183.895 111.377 183.521 111.377 183.125V182.957C111.377 182.566 111.328 182.198 111.23 181.851C111.138 181.5 110.996 181.189 110.806 180.921C110.62 180.647 110.386 180.433 110.103 180.276C109.824 180.12 109.497 180.042 109.121 180.042C108.75 180.042 108.423 180.12 108.14 180.276C107.861 180.433 107.627 180.647 107.437 180.921C107.251 181.189 107.112 181.5 107.019 181.851C106.926 182.198 106.88 182.566 106.88 182.957ZM115.793 180.767V187H114.438V179.075H115.72L115.793 180.767ZM115.471 182.737L114.907 182.715C114.912 182.173 114.993 181.673 115.149 181.214C115.305 180.75 115.525 180.347 115.808 180.005C116.091 179.664 116.428 179.4 116.819 179.214C117.214 179.024 117.651 178.929 118.13 178.929C118.521 178.929 118.872 178.982 119.185 179.09C119.497 179.192 119.763 179.358 119.983 179.588C120.208 179.817 120.378 180.115 120.496 180.481C120.613 180.843 120.671 181.285 120.671 181.807V187H119.309V181.792C119.309 181.377 119.248 181.045 119.126 180.796C119.004 180.542 118.826 180.359 118.591 180.247C118.357 180.13 118.069 180.071 117.727 180.071C117.39 180.071 117.083 180.142 116.804 180.284C116.531 180.425 116.294 180.621 116.094 180.87C115.898 181.119 115.745 181.404 115.632 181.727C115.525 182.044 115.471 182.381 115.471 182.737Z" fill="white"/>
<path opacity="0.12" d="M79 0.57735C79.6188 0.220084 80.3812 0.220085 81 0.57735L120.569 23.4226C121.188 23.7799 121.569 24.4402 121.569 25.1547V70.8453C121.569 71.5598 121.188 72.2201 120.569 72.5774L81 95.4226C80.3812 95.7799 79.6188 95.7799 79 95.4226L39.4308 72.5774C38.812 72.2201 38.4308 71.5598 38.4308 70.8453V25.1547C38.4308 24.4402 38.812 23.7799 39.4308 23.4226L79 0.57735Z" fill="white"/>
<path d="M72.7898 29.96C72.7898 29.717 72.9867 29.52 73.2298 29.52H86.8743C87.1174 29.52 87.3143 29.717 87.3143 29.96V40.3923C87.3143 40.6353 87.1174 40.8323 86.8743 40.8323H73.2298C72.9867 40.8323 72.7898 40.6353 72.7898 40.3923V29.96Z" fill="#5ED686"/>
<path d="M69.4447 40.8323C69.6877 40.8323 69.8847 40.6353 69.8847 40.3923V29.96C69.8847 29.717 69.6929 29.52 69.4499 29.52C67.6968 29.52 63.203 29.52 59.7576 29.52C57.3275 29.52 55.36 31.49 55.36 33.92V40.3923C55.36 40.6353 55.557 40.8323 55.8 40.8323H69.4447Z" fill="#5ED686"/>
<path d="M55.36 44.1772C55.36 43.9342 55.557 43.7372 55.8 43.7372H69.4447C69.6877 43.7372 69.8847 43.9342 69.8847 44.1772V66.92C69.8847 67.163 69.6929 67.36 69.4499 67.36C67.6968 67.36 63.203 67.36 59.7576 67.36C57.3275 67.36 55.36 65.3901 55.36 62.96V44.1772Z" fill="#5ED686"/>
<path d="M72.7898 44.1772C72.7898 43.9342 72.9867 43.7372 73.2298 43.7372H86.8743C87.1174 43.7372 87.3143 43.9342 87.3143 44.1772V66.92C87.3143 67.163 87.1174 67.36 86.8743 67.36H73.2298C72.9867 67.36 72.7898 67.163 72.7898 66.92V44.1772Z" fill="#5ED686"/>
<path d="M90.6594 43.7372C90.4164 43.7372 90.2194 43.9342 90.2194 44.1772V66.92C90.2194 67.163 90.4164 67.36 90.6594 67.36C93.8594 67.36 97.0594 67.36 100.259 67.36C102.682 67.36 104.649 65.4018 104.659 62.9794L104.742 44.1791C104.743 43.9354 104.546 43.7372 104.302 43.7372H90.6594Z" fill="#5ED686"/>
<path d="M104.304 40.8323C104.547 40.8323 104.744 40.6353 104.744 40.3923V33.92C104.744 31.49 102.776 29.52 100.346 29.52C96.9011 29.52 92.4074 29.52 90.6542 29.52C90.4112 29.52 90.2194 29.717 90.2194 29.96V40.3923C90.2194 40.6353 90.4164 40.8323 90.6594 40.8323H104.304Z" fill="#5ED686"/>
</svg>
