<svg width="160" height="212" viewBox="0 0 160 212" fill="none" xmlns="http://www.w3.org/2000/svg">
<path opacity="0.08" d="M79 16.5774C79.6188 16.2201 80.3812 16.2201 81 16.5774L120.569 39.4226C121.188 39.7799 121.569 40.4402 121.569 41.1547V86.8453C121.569 87.5598 121.188 88.2201 120.569 88.5774L81 111.423C80.3812 111.78 79.6188 111.78 79 111.423L39.4308 88.5774C38.812 88.2201 38.4308 87.5598 38.4308 86.8453V41.1547C38.4308 40.4402 38.812 39.7799 39.4308 39.4226L79 16.5774Z" fill="#EAEAFF"/>
<path d="M95.9563 74.1093C98.6663 78.8032 97.0581 84.8051 92.3642 87.5151C87.6704 90.2251 81.6684 88.6169 78.9584 83.923L74.8856 76.8687C74.7459 76.6268 74.9199 76.3243 75.1992 76.3233L84.3849 76.2908C84.5153 76.2904 84.6359 76.3598 84.7011 76.4727L86.4916 79.5738C87.1453 80.7062 89.0769 79.591 88.4231 78.4586L80.2745 64.3448C80.2102 64.2333 80.2095 64.0961 80.2729 63.9841L84.8257 55.9272C84.9641 55.6822 85.3165 55.6806 85.4572 55.9243L95.9563 74.1093Z" fill="url(#paint0_linear_3944_24448)"/>
<path d="M51.8182 64.2546C51.8182 69.6746 56.2119 74.0683 61.6319 74.0683H82.6301C82.9115 74.0683 83.0863 73.7624 82.9433 73.52L78.2423 65.5487C78.177 65.4378 78.0578 65.3698 77.9291 65.3698H61.6319C60.3243 65.3698 60.3243 63.1394 61.6319 63.1394H65.2128C65.3432 63.1394 65.4635 63.0696 65.5283 62.9565L70.0931 54.9852C70.2319 54.7428 70.0569 54.4409 69.7775 54.4409H61.6319C56.2119 54.4409 51.8182 58.8346 51.8182 64.2546Z" fill="url(#paint1_linear_3944_24448)"/>
<path d="M92.2354 40.771C87.5416 38.061 81.5396 39.6692 78.8296 44.3631L68.3305 62.548C68.1898 62.7918 68.3674 63.0961 68.6488 63.0935L77.9026 63.0079C78.0313 63.0067 78.1498 62.9376 78.2142 62.8261L86.3628 48.7123C87.0166 47.5799 88.9481 48.6951 88.2944 49.8275L86.5039 52.9286C86.4387 53.0415 86.439 53.1807 86.5046 53.2934L91.1255 61.2322C91.2661 61.4736 91.615 61.473 91.7547 61.2311L95.8275 54.1768C98.5375 49.483 96.9293 43.481 92.2354 40.771Z" fill="url(#paint2_linear_3944_24448)"/>
<path d="M55.4297 139.807L58.2617 128.781H59.7461L59.5801 131.623L56.5527 143H55.0098L55.4297 139.807ZM53.3105 128.781L55.6055 139.719L55.8105 143H54.1699L50.8789 128.781H53.3105ZM62.959 139.689L65.2246 128.781H67.666L64.375 143H62.7344L62.959 139.689ZM60.3223 128.781L63.125 139.836L63.5352 143H61.9922L59.0137 131.623L58.8574 128.781H60.3223ZM73.5938 143.195C72.8125 143.195 72.1061 143.068 71.4746 142.814C70.8496 142.554 70.3158 142.193 69.873 141.73C69.4368 141.268 69.1016 140.725 68.8672 140.1C68.6328 139.475 68.5156 138.801 68.5156 138.078V137.688C68.5156 136.861 68.6361 136.112 68.877 135.441C69.1178 134.771 69.4531 134.198 69.8828 133.723C70.3125 133.241 70.8203 132.873 71.4062 132.619C71.9922 132.365 72.627 132.238 73.3105 132.238C74.0658 132.238 74.7266 132.365 75.293 132.619C75.8594 132.873 76.3281 133.231 76.6992 133.693C77.0768 134.149 77.3568 134.693 77.5391 135.324C77.7279 135.956 77.8223 136.652 77.8223 137.414V138.42H69.6582V136.73H75.498V136.545C75.485 136.122 75.4004 135.725 75.2441 135.354C75.0944 134.982 74.8633 134.683 74.5508 134.455C74.2383 134.227 73.8216 134.113 73.3008 134.113C72.9102 134.113 72.5618 134.198 72.2559 134.367C71.9564 134.53 71.7057 134.768 71.5039 135.08C71.3021 135.393 71.1458 135.77 71.0352 136.213C70.931 136.649 70.8789 137.141 70.8789 137.688V138.078C70.8789 138.54 70.9408 138.97 71.0645 139.367C71.1947 139.758 71.3835 140.1 71.6309 140.393C71.8783 140.686 72.1777 140.917 72.5293 141.086C72.8809 141.249 73.2812 141.33 73.7305 141.33C74.2969 141.33 74.8014 141.216 75.2441 140.988C75.6868 140.76 76.071 140.438 76.3965 140.021L77.6367 141.223C77.4089 141.555 77.1126 141.874 76.748 142.18C76.3835 142.479 75.9375 142.723 75.4102 142.912C74.8893 143.101 74.2839 143.195 73.5938 143.195ZM85.6152 140.881V135.842C85.6152 135.464 85.5469 135.139 85.4102 134.865C85.2734 134.592 85.0651 134.38 84.7852 134.23C84.5117 134.081 84.1667 134.006 83.75 134.006C83.3659 134.006 83.0339 134.071 82.7539 134.201C82.474 134.331 82.2559 134.507 82.0996 134.729C81.9434 134.95 81.8652 135.201 81.8652 135.48H79.5215C79.5215 135.064 79.6224 134.66 79.8242 134.27C80.026 133.879 80.319 133.531 80.7031 133.225C81.0872 132.919 81.5462 132.678 82.0801 132.502C82.6139 132.326 83.2129 132.238 83.877 132.238C84.6712 132.238 85.3743 132.372 85.9863 132.639C86.6048 132.906 87.0898 133.309 87.4414 133.85C87.7995 134.383 87.9785 135.054 87.9785 135.861V140.559C87.9785 141.04 88.0111 141.473 88.0762 141.857C88.1478 142.235 88.2487 142.564 88.3789 142.844V143H85.9668C85.8561 142.746 85.7682 142.424 85.7031 142.033C85.6445 141.636 85.6152 141.252 85.6152 140.881ZM85.957 136.574L85.9766 138.029H84.2871C83.8509 138.029 83.4668 138.072 83.1348 138.156C82.8027 138.234 82.526 138.352 82.3047 138.508C82.0833 138.664 81.9173 138.853 81.8066 139.074C81.696 139.296 81.6406 139.546 81.6406 139.826C81.6406 140.106 81.7057 140.363 81.8359 140.598C81.9661 140.826 82.1549 141.005 82.4023 141.135C82.6562 141.265 82.9622 141.33 83.3203 141.33C83.8021 141.33 84.222 141.232 84.5801 141.037C84.9447 140.835 85.2311 140.591 85.4395 140.305C85.6478 140.012 85.7585 139.735 85.7715 139.475L86.5332 140.52C86.4551 140.786 86.3216 141.073 86.1328 141.379C85.944 141.685 85.6966 141.978 85.3906 142.258C85.0911 142.531 84.7298 142.756 84.3066 142.932C83.89 143.107 83.4082 143.195 82.8613 143.195C82.1712 143.195 81.556 143.059 81.0156 142.785C80.4753 142.505 80.0521 142.131 79.7461 141.662C79.4401 141.187 79.2871 140.65 79.2871 140.051C79.2871 139.491 79.3913 138.996 79.5996 138.566C79.8145 138.13 80.127 137.766 80.5371 137.473C80.9538 137.18 81.4616 136.958 82.0605 136.809C82.6595 136.652 83.3431 136.574 84.1113 136.574H85.957ZM93.7207 141.135L96.3086 132.434H98.75L95.0781 143H93.5547L93.7207 141.135ZM91.7383 132.434L94.375 141.174L94.502 143H92.9785L89.2871 132.434H91.7383ZM104.727 143.195C103.945 143.195 103.239 143.068 102.607 142.814C101.982 142.554 101.449 142.193 101.006 141.73C100.57 141.268 100.234 140.725 100 140.1C99.7656 139.475 99.6484 138.801 99.6484 138.078V137.688C99.6484 136.861 99.7689 136.112 100.01 135.441C100.251 134.771 100.586 134.198 101.016 133.723C101.445 133.241 101.953 132.873 102.539 132.619C103.125 132.365 103.76 132.238 104.443 132.238C105.199 132.238 105.859 132.365 106.426 132.619C106.992 132.873 107.461 133.231 107.832 133.693C108.21 134.149 108.49 134.693 108.672 135.324C108.861 135.956 108.955 136.652 108.955 137.414V138.42H100.791V136.73H106.631V136.545C106.618 136.122 106.533 135.725 106.377 135.354C106.227 134.982 105.996 134.683 105.684 134.455C105.371 134.227 104.954 134.113 104.434 134.113C104.043 134.113 103.695 134.198 103.389 134.367C103.089 134.53 102.839 134.768 102.637 135.08C102.435 135.393 102.279 135.77 102.168 136.213C102.064 136.649 102.012 137.141 102.012 137.688V138.078C102.012 138.54 102.074 138.97 102.197 139.367C102.327 139.758 102.516 140.1 102.764 140.393C103.011 140.686 103.311 140.917 103.662 141.086C104.014 141.249 104.414 141.33 104.863 141.33C105.43 141.33 105.934 141.216 106.377 140.988C106.82 140.76 107.204 140.438 107.529 140.021L108.77 141.223C108.542 141.555 108.245 141.874 107.881 142.18C107.516 142.479 107.07 142.723 106.543 142.912C106.022 143.101 105.417 143.195 104.727 143.195Z" fill="white"/>
<path d="M25.7021 165.097H23.043V164.023H25.7021C26.2171 164.023 26.6341 163.941 26.9531 163.777C27.2721 163.613 27.5046 163.385 27.6504 163.094C27.8008 162.802 27.876 162.469 27.876 162.096C27.876 161.754 27.8008 161.433 27.6504 161.132C27.5046 160.831 27.2721 160.59 26.9531 160.407C26.6341 160.22 26.2171 160.127 25.7021 160.127H23.3506V169H22.0312V159.047H25.7021C26.4541 159.047 27.0898 159.177 27.6094 159.437C28.1289 159.696 28.5231 160.056 28.792 160.517C29.0609 160.972 29.1953 161.494 29.1953 162.082C29.1953 162.72 29.0609 163.265 28.792 163.716C28.5231 164.167 28.1289 164.511 27.6094 164.748C27.0898 164.98 26.4541 165.097 25.7021 165.097ZM32.0459 158.5V169H30.7744V158.5H32.0459ZM38.4375 167.735V163.928C38.4375 163.636 38.3783 163.383 38.2598 163.169C38.1458 162.95 37.9727 162.782 37.7402 162.663C37.5078 162.545 37.2207 162.485 36.8789 162.485C36.5599 162.485 36.2796 162.54 36.0381 162.649C35.8011 162.759 35.6143 162.902 35.4775 163.08C35.3454 163.258 35.2793 163.449 35.2793 163.654H34.0146C34.0146 163.39 34.083 163.128 34.2197 162.868C34.3564 162.608 34.5524 162.374 34.8076 162.164C35.0674 161.95 35.3773 161.781 35.7373 161.658C36.1019 161.531 36.5075 161.467 36.9541 161.467C37.4919 161.467 37.9658 161.558 38.376 161.74C38.7907 161.923 39.1143 162.198 39.3467 162.567C39.5837 162.932 39.7021 163.39 39.7021 163.941V167.387C39.7021 167.633 39.7227 167.895 39.7637 168.173C39.8092 168.451 39.8753 168.69 39.9619 168.891V169H38.6426C38.5788 168.854 38.5286 168.66 38.4922 168.419C38.4557 168.173 38.4375 167.945 38.4375 167.735ZM38.6562 164.516L38.6699 165.404H37.3916C37.0316 165.404 36.7103 165.434 36.4277 165.493C36.1452 165.548 35.9082 165.632 35.7168 165.746C35.5254 165.86 35.3796 166.004 35.2793 166.177C35.179 166.345 35.1289 166.544 35.1289 166.771C35.1289 167.004 35.1813 167.216 35.2861 167.407C35.391 167.599 35.5482 167.751 35.7578 167.865C35.972 167.975 36.234 168.029 36.5439 168.029C36.9313 168.029 37.2731 167.947 37.5693 167.783C37.8656 167.619 38.1003 167.419 38.2734 167.182C38.4512 166.945 38.5469 166.715 38.5605 166.491L39.1006 167.1C39.0687 167.291 38.9821 167.503 38.8408 167.735C38.6995 167.968 38.5104 168.191 38.2734 168.405C38.041 168.615 37.763 168.79 37.4395 168.932C37.1204 169.068 36.7604 169.137 36.3594 169.137C35.8581 169.137 35.4183 169.039 35.04 168.843C34.6663 168.647 34.3747 168.385 34.165 168.057C33.96 167.724 33.8574 167.353 33.8574 166.942C33.8574 166.546 33.9349 166.197 34.0898 165.896C34.2448 165.591 34.4681 165.338 34.7598 165.138C35.0514 164.933 35.4023 164.778 35.8125 164.673C36.2227 164.568 36.6807 164.516 37.1865 164.516H38.6562ZM44.7881 161.604V162.574H40.7891V161.604H44.7881ZM42.1426 159.806H43.4072V167.168C43.4072 167.419 43.446 167.608 43.5234 167.735C43.6009 167.863 43.7012 167.947 43.8242 167.988C43.9473 168.029 44.0794 168.05 44.2207 168.05C44.3255 168.05 44.4349 168.041 44.5488 168.022C44.6673 168 44.7562 167.981 44.8154 167.968L44.8223 169C44.722 169.032 44.5898 169.062 44.4258 169.089C44.2663 169.121 44.0726 169.137 43.8447 169.137C43.5348 169.137 43.25 169.075 42.9902 168.952C42.7305 168.829 42.5231 168.624 42.3682 168.337C42.2178 168.045 42.1426 167.653 42.1426 167.161V159.806ZM48.1582 169H46.8936V160.824C46.8936 160.291 46.9893 159.842 47.1807 159.478C47.3766 159.108 47.6569 158.83 48.0215 158.644C48.3861 158.452 48.819 158.356 49.3203 158.356C49.4661 158.356 49.612 158.366 49.7578 158.384C49.9082 158.402 50.054 158.429 50.1953 158.466L50.127 159.498C50.0312 159.475 49.9219 159.459 49.7988 159.45C49.6803 159.441 49.5618 159.437 49.4434 159.437C49.1745 159.437 48.9421 159.491 48.7461 159.601C48.5547 159.705 48.4089 159.86 48.3086 160.065C48.2083 160.271 48.1582 160.523 48.1582 160.824V169ZM49.7305 161.604V162.574H45.7246V161.604H49.7305ZM50.8037 165.384V165.227C50.8037 164.693 50.8812 164.199 51.0361 163.743C51.1911 163.283 51.4144 162.884 51.7061 162.547C51.9977 162.205 52.3509 161.941 52.7656 161.754C53.1803 161.562 53.6452 161.467 54.1602 161.467C54.6797 161.467 55.1468 161.562 55.5615 161.754C55.9808 161.941 56.3363 162.205 56.6279 162.547C56.9242 162.884 57.1497 163.283 57.3047 163.743C57.4596 164.199 57.5371 164.693 57.5371 165.227V165.384C57.5371 165.917 57.4596 166.411 57.3047 166.867C57.1497 167.323 56.9242 167.722 56.6279 168.063C56.3363 168.401 55.9831 168.665 55.5684 168.856C55.1582 169.043 54.6934 169.137 54.1738 169.137C53.6543 169.137 53.1872 169.043 52.7725 168.856C52.3577 168.665 52.0023 168.401 51.7061 168.063C51.4144 167.722 51.1911 167.323 51.0361 166.867C50.8812 166.411 50.8037 165.917 50.8037 165.384ZM52.0684 165.227V165.384C52.0684 165.753 52.1117 166.102 52.1982 166.43C52.2848 166.753 52.4147 167.04 52.5879 167.291C52.7656 167.542 52.9867 167.74 53.251 167.886C53.5153 168.027 53.8229 168.098 54.1738 168.098C54.5202 168.098 54.8232 168.027 55.083 167.886C55.3473 167.74 55.5661 167.542 55.7393 167.291C55.9124 167.04 56.0423 166.753 56.1289 166.43C56.2201 166.102 56.2656 165.753 56.2656 165.384V165.227C56.2656 164.862 56.2201 164.518 56.1289 164.194C56.0423 163.866 55.9102 163.577 55.7324 163.326C55.5592 163.071 55.3405 162.87 55.0762 162.725C54.8164 162.579 54.5111 162.506 54.1602 162.506C53.8138 162.506 53.5085 162.579 53.2441 162.725C52.9844 162.87 52.7656 163.071 52.5879 163.326C52.4147 163.577 52.2848 163.866 52.1982 164.194C52.1117 164.518 52.0684 164.862 52.0684 165.227ZM60.3877 162.766V169H59.123V161.604H60.3535L60.3877 162.766ZM62.6982 161.562L62.6914 162.738C62.5866 162.715 62.4863 162.702 62.3906 162.697C62.2995 162.688 62.1947 162.684 62.0762 162.684C61.7845 162.684 61.527 162.729 61.3037 162.82C61.0804 162.911 60.8913 163.039 60.7363 163.203C60.5814 163.367 60.4583 163.563 60.3672 163.791C60.2806 164.014 60.2236 164.26 60.1963 164.529L59.8408 164.734C59.8408 164.288 59.8841 163.868 59.9707 163.477C60.0618 163.085 60.2008 162.738 60.3877 162.438C60.5745 162.132 60.8115 161.895 61.0986 161.727C61.3903 161.553 61.7367 161.467 62.1377 161.467C62.2288 161.467 62.3337 161.478 62.4521 161.501C62.5706 161.519 62.6527 161.54 62.6982 161.562ZM65.125 163.073V169H63.8535V161.604H65.0566L65.125 163.073ZM64.8652 165.021L64.2773 165.001C64.2819 164.495 64.348 164.028 64.4756 163.6C64.6032 163.167 64.7923 162.791 65.043 162.472C65.2936 162.153 65.6058 161.907 65.9795 161.733C66.3532 161.556 66.7861 161.467 67.2783 161.467C67.6247 161.467 67.9437 161.517 68.2354 161.617C68.527 161.713 68.7799 161.866 68.9941 162.075C69.2083 162.285 69.3747 162.554 69.4932 162.882C69.6117 163.21 69.6709 163.606 69.6709 164.071V169H68.4062V164.133C68.4062 163.745 68.3402 163.436 68.208 163.203C68.0804 162.971 67.8981 162.802 67.6611 162.697C67.4242 162.588 67.1462 162.533 66.8271 162.533C66.4535 162.533 66.1413 162.599 65.8906 162.731C65.64 162.864 65.4395 163.046 65.2891 163.278C65.1387 163.511 65.0293 163.777 64.9609 164.078C64.8971 164.374 64.8652 164.689 64.8652 165.021ZM69.6572 164.324L68.8096 164.584C68.8141 164.178 68.8802 163.789 69.0078 163.415C69.14 163.041 69.3291 162.709 69.5752 162.417C69.8258 162.125 70.1335 161.895 70.498 161.727C70.8626 161.553 71.2796 161.467 71.749 161.467C72.1455 161.467 72.4964 161.519 72.8018 161.624C73.1117 161.729 73.3714 161.891 73.5811 162.109C73.7952 162.324 73.957 162.599 74.0664 162.937C74.1758 163.274 74.2305 163.675 74.2305 164.14V169H72.959V164.126C72.959 163.711 72.8929 163.39 72.7607 163.162C72.6331 162.93 72.4508 162.768 72.2139 162.677C71.9814 162.581 71.7035 162.533 71.3799 162.533C71.1019 162.533 70.8558 162.581 70.6416 162.677C70.4274 162.772 70.2474 162.905 70.1016 163.073C69.9557 163.237 69.8441 163.426 69.7666 163.641C69.6937 163.855 69.6572 164.083 69.6572 164.324ZM82.6865 169.137C82.1715 169.137 81.7044 169.05 81.2852 168.877C80.8704 168.699 80.5127 168.451 80.2119 168.132C79.9157 167.813 79.6878 167.435 79.5283 166.997C79.3688 166.56 79.2891 166.081 79.2891 165.562V165.274C79.2891 164.673 79.3779 164.137 79.5557 163.668C79.7334 163.194 79.9749 162.793 80.2803 162.465C80.5856 162.137 80.932 161.888 81.3193 161.72C81.7067 161.551 82.1077 161.467 82.5225 161.467C83.0511 161.467 83.5068 161.558 83.8896 161.74C84.277 161.923 84.5938 162.178 84.8398 162.506C85.0859 162.829 85.2682 163.212 85.3867 163.654C85.5052 164.092 85.5645 164.57 85.5645 165.09V165.657H80.041V164.625H84.2998V164.529C84.2816 164.201 84.2132 163.882 84.0947 163.572C83.9808 163.262 83.7985 163.007 83.5479 162.807C83.2972 162.606 82.9554 162.506 82.5225 162.506C82.2354 162.506 81.971 162.567 81.7295 162.69C81.488 162.809 81.2806 162.987 81.1074 163.224C80.9342 163.461 80.7998 163.75 80.7041 164.092C80.6084 164.434 80.5605 164.828 80.5605 165.274V165.562C80.5605 165.912 80.6084 166.243 80.7041 166.553C80.8044 166.858 80.9479 167.127 81.1348 167.359C81.3262 167.592 81.5563 167.774 81.8252 167.906C82.0986 168.038 82.4085 168.104 82.7549 168.104C83.2015 168.104 83.5798 168.013 83.8896 167.831C84.1995 167.649 84.4707 167.405 84.7031 167.1L85.4688 167.708C85.3092 167.95 85.1064 168.18 84.8604 168.398C84.6143 168.617 84.3112 168.795 83.9512 168.932C83.5957 169.068 83.1742 169.137 82.6865 169.137ZM87.8955 161.604L89.5156 164.297L91.1562 161.604H92.6396L90.2197 165.254L92.7148 169H91.252L89.543 166.225L87.834 169H86.3643L88.8525 165.254L86.4395 161.604H87.8955ZM97.083 161.604V162.574H93.084V161.604H97.083ZM94.4375 159.806H95.7021V167.168C95.7021 167.419 95.7409 167.608 95.8184 167.735C95.8958 167.863 95.9961 167.947 96.1191 167.988C96.2422 168.029 96.3743 168.05 96.5156 168.05C96.6204 168.05 96.7298 168.041 96.8438 168.022C96.9622 168 97.0511 167.981 97.1104 167.968L97.1172 169C97.0169 169.032 96.8848 169.062 96.7207 169.089C96.5612 169.121 96.3675 169.137 96.1396 169.137C95.8298 169.137 95.5449 169.075 95.2852 168.952C95.0254 168.829 94.818 168.624 94.6631 168.337C94.5127 168.045 94.4375 167.653 94.4375 167.161V159.806ZM101.636 169.137C101.121 169.137 100.654 169.05 100.234 168.877C99.8197 168.699 99.4619 168.451 99.1611 168.132C98.8649 167.813 98.637 167.435 98.4775 166.997C98.318 166.56 98.2383 166.081 98.2383 165.562V165.274C98.2383 164.673 98.3271 164.137 98.5049 163.668C98.6826 163.194 98.9242 162.793 99.2295 162.465C99.5348 162.137 99.8812 161.888 100.269 161.72C100.656 161.551 101.057 161.467 101.472 161.467C102 161.467 102.456 161.558 102.839 161.74C103.226 161.923 103.543 162.178 103.789 162.506C104.035 162.829 104.217 163.212 104.336 163.654C104.454 164.092 104.514 164.57 104.514 165.09V165.657H98.9902V164.625H103.249V164.529C103.231 164.201 103.162 163.882 103.044 163.572C102.93 163.262 102.748 163.007 102.497 162.807C102.246 162.606 101.905 162.506 101.472 162.506C101.185 162.506 100.92 162.567 100.679 162.69C100.437 162.809 100.23 162.987 100.057 163.224C99.8835 163.461 99.749 163.75 99.6533 164.092C99.5576 164.434 99.5098 164.828 99.5098 165.274V165.562C99.5098 165.912 99.5576 166.243 99.6533 166.553C99.7536 166.858 99.8971 167.127 100.084 167.359C100.275 167.592 100.506 167.774 100.774 167.906C101.048 168.038 101.358 168.104 101.704 168.104C102.151 168.104 102.529 168.013 102.839 167.831C103.149 167.649 103.42 167.405 103.652 167.1L104.418 167.708C104.258 167.95 104.056 168.18 103.81 168.398C103.563 168.617 103.26 168.795 102.9 168.932C102.545 169.068 102.123 169.137 101.636 169.137ZM107.255 163.183V169H105.99V161.604H107.187L107.255 163.183ZM106.954 165.021L106.428 165.001C106.432 164.495 106.507 164.028 106.653 163.6C106.799 163.167 107.004 162.791 107.269 162.472C107.533 162.153 107.847 161.907 108.212 161.733C108.581 161.556 108.989 161.467 109.436 161.467C109.8 161.467 110.128 161.517 110.42 161.617C110.712 161.713 110.96 161.868 111.165 162.082C111.375 162.296 111.534 162.574 111.644 162.916C111.753 163.253 111.808 163.666 111.808 164.153V169H110.536V164.14C110.536 163.752 110.479 163.442 110.365 163.21C110.251 162.973 110.085 162.802 109.866 162.697C109.647 162.588 109.379 162.533 109.06 162.533C108.745 162.533 108.458 162.599 108.198 162.731C107.943 162.864 107.722 163.046 107.535 163.278C107.353 163.511 107.209 163.777 107.104 164.078C107.004 164.374 106.954 164.689 106.954 165.021ZM118.035 167.038C118.035 166.856 117.994 166.687 117.912 166.532C117.835 166.373 117.673 166.229 117.427 166.102C117.185 165.969 116.821 165.855 116.333 165.76C115.923 165.673 115.551 165.571 115.219 165.452C114.891 165.334 114.61 165.19 114.378 165.021C114.15 164.853 113.975 164.655 113.852 164.427C113.729 164.199 113.667 163.932 113.667 163.627C113.667 163.335 113.731 163.06 113.858 162.8C113.991 162.54 114.175 162.31 114.412 162.109C114.654 161.909 114.943 161.752 115.28 161.638C115.618 161.524 115.993 161.467 116.408 161.467C117.001 161.467 117.507 161.572 117.926 161.781C118.345 161.991 118.666 162.271 118.89 162.622C119.113 162.968 119.225 163.354 119.225 163.777H117.96C117.96 163.572 117.898 163.374 117.775 163.183C117.657 162.987 117.481 162.825 117.249 162.697C117.021 162.57 116.741 162.506 116.408 162.506C116.057 162.506 115.772 162.561 115.554 162.67C115.34 162.775 115.182 162.909 115.082 163.073C114.986 163.237 114.938 163.41 114.938 163.593C114.938 163.729 114.961 163.853 115.007 163.962C115.057 164.067 115.144 164.165 115.267 164.256C115.39 164.342 115.563 164.424 115.786 164.502C116.009 164.579 116.294 164.657 116.641 164.734C117.247 164.871 117.746 165.035 118.138 165.227C118.53 165.418 118.821 165.653 119.013 165.931C119.204 166.209 119.3 166.546 119.3 166.942C119.3 167.266 119.231 167.562 119.095 167.831C118.963 168.1 118.769 168.332 118.514 168.528C118.263 168.72 117.962 168.87 117.611 168.979C117.265 169.084 116.875 169.137 116.442 169.137C115.791 169.137 115.239 169.021 114.788 168.788C114.337 168.556 113.995 168.255 113.763 167.886C113.53 167.517 113.414 167.127 113.414 166.717H114.686C114.704 167.063 114.804 167.339 114.986 167.544C115.169 167.744 115.392 167.888 115.656 167.975C115.921 168.057 116.183 168.098 116.442 168.098C116.789 168.098 117.078 168.052 117.311 167.961C117.548 167.87 117.728 167.744 117.851 167.585C117.974 167.425 118.035 167.243 118.035 167.038ZM122.335 161.604V169H121.063V161.604H122.335ZM120.968 159.642C120.968 159.437 121.029 159.263 121.152 159.122C121.28 158.981 121.467 158.91 121.713 158.91C121.954 158.91 122.139 158.981 122.267 159.122C122.399 159.263 122.465 159.437 122.465 159.642C122.465 159.838 122.399 160.006 122.267 160.147C122.139 160.284 121.954 160.353 121.713 160.353C121.467 160.353 121.28 160.284 121.152 160.147C121.029 160.006 120.968 159.838 120.968 159.642ZM124.03 165.384V165.227C124.03 164.693 124.108 164.199 124.263 163.743C124.418 163.283 124.641 162.884 124.933 162.547C125.224 162.205 125.577 161.941 125.992 161.754C126.407 161.562 126.872 161.467 127.387 161.467C127.906 161.467 128.373 161.562 128.788 161.754C129.207 161.941 129.563 162.205 129.854 162.547C130.151 162.884 130.376 163.283 130.531 163.743C130.686 164.199 130.764 164.693 130.764 165.227V165.384C130.764 165.917 130.686 166.411 130.531 166.867C130.376 167.323 130.151 167.722 129.854 168.063C129.563 168.401 129.21 168.665 128.795 168.856C128.385 169.043 127.92 169.137 127.4 169.137C126.881 169.137 126.414 169.043 125.999 168.856C125.584 168.665 125.229 168.401 124.933 168.063C124.641 167.722 124.418 167.323 124.263 166.867C124.108 166.411 124.03 165.917 124.03 165.384ZM125.295 165.227V165.384C125.295 165.753 125.338 166.102 125.425 166.43C125.511 166.753 125.641 167.04 125.814 167.291C125.992 167.542 126.213 167.74 126.478 167.886C126.742 168.027 127.049 168.098 127.4 168.098C127.747 168.098 128.05 168.027 128.31 167.886C128.574 167.74 128.793 167.542 128.966 167.291C129.139 167.04 129.269 166.753 129.355 166.43C129.447 166.102 129.492 165.753 129.492 165.384V165.227C129.492 164.862 129.447 164.518 129.355 164.194C129.269 163.866 129.137 163.577 128.959 163.326C128.786 163.071 128.567 162.87 128.303 162.725C128.043 162.579 127.738 162.506 127.387 162.506C127.04 162.506 126.735 162.579 126.471 162.725C126.211 162.87 125.992 163.071 125.814 163.326C125.641 163.577 125.511 163.866 125.425 164.194C125.338 164.518 125.295 164.862 125.295 165.227ZM133.614 163.183V169H132.35V161.604H133.546L133.614 163.183ZM133.313 165.021L132.787 165.001C132.792 164.495 132.867 164.028 133.013 163.6C133.159 163.167 133.364 162.791 133.628 162.472C133.892 162.153 134.207 161.907 134.571 161.733C134.94 161.556 135.348 161.467 135.795 161.467C136.16 161.467 136.488 161.517 136.779 161.617C137.071 161.713 137.319 161.868 137.524 162.082C137.734 162.296 137.894 162.574 138.003 162.916C138.112 163.253 138.167 163.666 138.167 164.153V169H136.896V164.14C136.896 163.752 136.839 163.442 136.725 163.21C136.611 162.973 136.444 162.802 136.226 162.697C136.007 162.588 135.738 162.533 135.419 162.533C135.104 162.533 134.817 162.599 134.558 162.731C134.302 162.864 134.081 163.046 133.895 163.278C133.712 163.511 133.569 163.777 133.464 164.078C133.364 164.374 133.313 164.689 133.313 165.021ZM64.6123 181.604V182.574H60.6133V181.604H64.6123ZM61.9668 179.806H63.2314V187.168C63.2314 187.419 63.2702 187.608 63.3477 187.735C63.4251 187.863 63.5254 187.947 63.6484 187.988C63.7715 188.029 63.9036 188.05 64.0449 188.05C64.1497 188.05 64.2591 188.041 64.373 188.022C64.4915 188 64.5804 187.981 64.6396 187.968L64.6465 189C64.5462 189.032 64.4141 189.062 64.25 189.089C64.0905 189.121 63.8968 189.137 63.6689 189.137C63.359 189.137 63.0742 189.075 62.8145 188.952C62.5547 188.829 62.3473 188.624 62.1924 188.337C62.042 188.045 61.9668 187.653 61.9668 187.161V179.806ZM65.624 185.384V185.227C65.624 184.693 65.7015 184.199 65.8564 183.743C66.0114 183.283 66.2347 182.884 66.5264 182.547C66.818 182.205 67.1712 181.941 67.5859 181.754C68.0007 181.562 68.4655 181.467 68.9805 181.467C69.5 181.467 69.9671 181.562 70.3818 181.754C70.8011 181.941 71.1566 182.205 71.4482 182.547C71.7445 182.884 71.9701 183.283 72.125 183.743C72.2799 184.199 72.3574 184.693 72.3574 185.227V185.384C72.3574 185.917 72.2799 186.411 72.125 186.867C71.9701 187.323 71.7445 187.722 71.4482 188.063C71.1566 188.401 70.8034 188.665 70.3887 188.856C69.9785 189.043 69.5137 189.137 68.9941 189.137C68.4746 189.137 68.0075 189.043 67.5928 188.856C67.1781 188.665 66.8226 188.401 66.5264 188.063C66.2347 187.722 66.0114 187.323 65.8564 186.867C65.7015 186.411 65.624 185.917 65.624 185.384ZM66.8887 185.227V185.384C66.8887 185.753 66.932 186.102 67.0186 186.43C67.1051 186.753 67.235 187.04 67.4082 187.291C67.5859 187.542 67.807 187.74 68.0713 187.886C68.3356 188.027 68.6432 188.098 68.9941 188.098C69.3405 188.098 69.6436 188.027 69.9033 187.886C70.1676 187.74 70.3864 187.542 70.5596 187.291C70.7327 187.04 70.8626 186.753 70.9492 186.43C71.0404 186.102 71.0859 185.753 71.0859 185.384V185.227C71.0859 184.862 71.0404 184.518 70.9492 184.194C70.8626 183.866 70.7305 183.577 70.5527 183.326C70.3796 183.071 70.1608 182.87 69.8965 182.725C69.6367 182.579 69.3314 182.506 68.9805 182.506C68.6341 182.506 68.3288 182.579 68.0645 182.725C67.8047 182.87 67.5859 183.071 67.4082 183.326C67.235 183.577 67.1051 183.866 67.0186 184.194C66.932 184.518 66.8887 184.862 66.8887 185.227ZM73.6084 185.384V185.227C73.6084 184.693 73.6859 184.199 73.8408 183.743C73.9958 183.283 74.2191 182.884 74.5107 182.547C74.8024 182.205 75.1556 181.941 75.5703 181.754C75.985 181.562 76.4499 181.467 76.9648 181.467C77.4844 181.467 77.9515 181.562 78.3662 181.754C78.7855 181.941 79.141 182.205 79.4326 182.547C79.7288 182.884 79.9544 183.283 80.1094 183.743C80.2643 184.199 80.3418 184.693 80.3418 185.227V185.384C80.3418 185.917 80.2643 186.411 80.1094 186.867C79.9544 187.323 79.7288 187.722 79.4326 188.063C79.141 188.401 78.7878 188.665 78.373 188.856C77.9629 189.043 77.498 189.137 76.9785 189.137C76.459 189.137 75.9919 189.043 75.5771 188.856C75.1624 188.665 74.807 188.401 74.5107 188.063C74.2191 187.722 73.9958 187.323 73.8408 186.867C73.6859 186.411 73.6084 185.917 73.6084 185.384ZM74.873 185.227V185.384C74.873 185.753 74.9163 186.102 75.0029 186.43C75.0895 186.753 75.2194 187.04 75.3926 187.291C75.5703 187.542 75.7913 187.74 76.0557 187.886C76.32 188.027 76.6276 188.098 76.9785 188.098C77.3249 188.098 77.6279 188.027 77.8877 187.886C78.152 187.74 78.3708 187.542 78.5439 187.291C78.7171 187.04 78.847 186.753 78.9336 186.43C79.0247 186.102 79.0703 185.753 79.0703 185.384V185.227C79.0703 184.862 79.0247 184.518 78.9336 184.194C78.847 183.866 78.7148 183.577 78.5371 183.326C78.3639 183.071 78.1452 182.87 77.8809 182.725C77.6211 182.579 77.3158 182.506 76.9648 182.506C76.6185 182.506 76.3132 182.579 76.0488 182.725C75.7891 182.87 75.5703 183.071 75.3926 183.326C75.2194 183.577 75.0895 183.866 75.0029 184.194C74.9163 184.518 74.873 184.862 74.873 185.227ZM83.3018 178.5V189H82.0303V178.5H83.3018ZM86.6035 178.5V189H85.332V178.5H86.6035ZM91.1221 181.604L87.8955 185.056L86.0908 186.929L85.9883 185.582L87.2803 184.037L89.5771 181.604H91.1221ZM89.9668 189L87.3281 185.473L87.9844 184.345L91.457 189H89.9668ZM93.8018 181.604V189H92.5303V181.604H93.8018ZM92.4346 179.642C92.4346 179.437 92.4961 179.263 92.6191 179.122C92.7467 178.981 92.9336 178.91 93.1797 178.91C93.4212 178.91 93.6058 178.981 93.7334 179.122C93.8656 179.263 93.9316 179.437 93.9316 179.642C93.9316 179.838 93.8656 180.006 93.7334 180.147C93.6058 180.284 93.4212 180.353 93.1797 180.353C92.9336 180.353 92.7467 180.284 92.6191 180.147C92.4961 180.006 92.4346 179.838 92.4346 179.642ZM98.9287 181.604V182.574H94.9297V181.604H98.9287ZM96.2832 179.806H97.5479V187.168C97.5479 187.419 97.5866 187.608 97.6641 187.735C97.7415 187.863 97.8418 187.947 97.9648 187.988C98.0879 188.029 98.2201 188.05 98.3613 188.05C98.4661 188.05 98.5755 188.041 98.6895 188.022C98.8079 188 98.8968 187.981 98.9561 187.968L98.9629 189C98.8626 189.032 98.7305 189.062 98.5664 189.089C98.4069 189.121 98.2132 189.137 97.9854 189.137C97.6755 189.137 97.3906 189.075 97.1309 188.952C96.8711 188.829 96.6637 188.624 96.5088 188.337C96.3584 188.045 96.2832 187.653 96.2832 187.161V179.806Z" fill="#949699"/>
<defs>
<linearGradient id="paint0_linear_3944_24448" x1="85.9091" y1="24.1477" x2="72.3583" y2="163.732" gradientUnits="userSpaceOnUse">
<stop offset="0.1975" stop-color="#FFB666"/>
<stop offset="0.95505" stop-color="#FF0E65"/>
</linearGradient>
<linearGradient id="paint1_linear_3944_24448" x1="85.9091" y1="24.1477" x2="72.3583" y2="163.732" gradientUnits="userSpaceOnUse">
<stop offset="0.1975" stop-color="#FFB666"/>
<stop offset="0.95505" stop-color="#FF0E65"/>
</linearGradient>
<linearGradient id="paint2_linear_3944_24448" x1="85.9091" y1="24.1477" x2="72.3583" y2="163.732" gradientUnits="userSpaceOnUse">
<stop offset="0.1975" stop-color="#FFB666"/>
<stop offset="0.95505" stop-color="#FF0E65"/>
</linearGradient>
</defs>
</svg>
